<svg xmlns="http://www.w3.org/2000/svg" xmlns:xlink="http://www.w3.org/1999/xlink" width="261pt" height="239pt" viewBox="0.00 0.00 261.00 239.00">
<g id="graph0" class="graph" transform="scale(1 1) rotate(0) translate(4 235.25)">
<title>counts</title>
<polygon fill="white" stroke="none" points="-4,4 -4,-235.25 257.12,-235.25 257.12,4 -4,4"/>
<!-- b0 -->
<g id="node1" class="node">
<title>b0</title>
<polygon fill="none" stroke="black" points="75.12,-204 75.12,-227.25 204.12,-227.25 204.12,-204 75.12,-204"/>
<text xml:space="preserve" text-anchor="start" x="81.12" y="-211.75" font-family="Times,serif" font-size="10.00">PLQuantumPhaseEstimation</text>
<polygon fill="none" stroke="black" points="75.12,-180.75 75.12,-204 149.75,-204 149.75,-180.75 75.12,-180.75"/>
<text xml:space="preserve" text-anchor="start" x="98.56" y="-188.5" font-family="Times,serif" font-size="10.00">Qubits</text>
<polygon fill="none" stroke="black" points="149.75,-180.75 149.75,-204 204.12,-204 204.12,-180.75 149.75,-180.75"/>
<text xml:space="preserve" text-anchor="start" x="174.31" y="-188.5" font-family="Times,serif" font-size="10.00">4</text>
<polygon fill="none" stroke="black" points="75.12,-157.5 75.12,-180.75 149.75,-180.75 149.75,-157.5 75.12,-157.5"/>
<text xml:space="preserve" text-anchor="start" x="107.56" y="-165.25" font-family="Times,serif" font-size="10.00">Ts</text>
<polygon fill="none" stroke="black" points="149.75,-157.5 149.75,-180.75 204.12,-180.75 204.12,-157.5 149.75,-157.5"/>
<text xml:space="preserve" text-anchor="start" x="169.06" y="-165.25" font-family="Times,serif" font-size="10.00">660</text>
<polygon fill="none" stroke="black" points="75.12,-134.25 75.12,-157.5 149.75,-157.5 149.75,-134.25 75.12,-134.25"/>
<text xml:space="preserve" text-anchor="start" x="94.44" y="-142" font-family="Times,serif" font-size="10.00">Cliffords</text>
<polygon fill="none" stroke="black" points="149.75,-134.25 149.75,-157.5 204.12,-157.5 204.12,-134.25 149.75,-134.25"/>
<text xml:space="preserve" text-anchor="start" x="171.69" y="-142" font-family="Times,serif" font-size="10.00">21</text>
</g>
<!-- b1 -->
<g id="node2" class="node">
<title>b1</title>
<polygon fill="none" stroke="black" points="8,-50.5 8,-73.75 73.25,-73.75 73.25,-50.5 8,-50.5"/>
<text xml:space="preserve" text-anchor="start" x="36.88" y="-58.25" font-family="Times,serif" font-size="10.00">H</text>
<polygon fill="none" stroke="black" points="8,-27.25 8,-50.5 56,-50.5 56,-27.25 8,-27.25"/>
<text xml:space="preserve" text-anchor="start" x="18.12" y="-35" font-family="Times,serif" font-size="10.00">Qubits</text>
<polygon fill="none" stroke="black" points="56,-27.25 56,-50.5 73.25,-50.5 73.25,-27.25 56,-27.25"/>
<text xml:space="preserve" text-anchor="start" x="62" y="-35" font-family="Times,serif" font-size="10.00">1</text>
<polygon fill="none" stroke="black" points="8,-4 8,-27.25 56,-27.25 56,-4 8,-4"/>
<text xml:space="preserve" text-anchor="start" x="14" y="-11.75" font-family="Times,serif" font-size="10.00">Cliffords</text>
<polygon fill="none" stroke="black" points="56,-4 56,-27.25 73.25,-27.25 73.25,-4 56,-4"/>
<text xml:space="preserve" text-anchor="start" x="62" y="-11.75" font-family="Times,serif" font-size="10.00">1</text>
</g>
<!-- b0&#45;&gt;b1 -->
<g id="edge1" class="edge">
<title>b0-&gt;b1</title>
<path fill="none" stroke="black" d="M104.72,-130.44C94.58,-116.11 83.55,-100.52 73.54,-86.38"/>
<polygon fill="black" stroke="black" points="76.63,-84.69 68,-78.55 70.92,-88.74 76.63,-84.69"/>
<text xml:space="preserve" text-anchor="middle" x="93.5" y="-98.95" font-family="Times,serif" font-size="14.00">6</text>
</g>
<!-- b2 -->
<g id="node3" class="node">
<title>b2</title>
<polygon fill="none" stroke="black" points="107,-50.5 107,-73.75 172.25,-73.75 172.25,-50.5 107,-50.5"/>
<text xml:space="preserve" text-anchor="start" x="125.75" y="-58.25" font-family="Times,serif" font-size="10.00">CNOT</text>
<polygon fill="none" stroke="black" points="107,-27.25 107,-50.5 155,-50.5 155,-27.25 107,-27.25"/>
<text xml:space="preserve" text-anchor="start" x="117.12" y="-35" font-family="Times,serif" font-size="10.00">Qubits</text>
<polygon fill="none" stroke="black" points="155,-27.25 155,-50.5 172.25,-50.5 172.25,-27.25 155,-27.25"/>
<text xml:space="preserve" text-anchor="start" x="161" y="-35" font-family="Times,serif" font-size="10.00">2</text>
<polygon fill="none" stroke="black" points="107,-4 107,-27.25 155,-27.25 155,-4 107,-4"/>
<text xml:space="preserve" text-anchor="start" x="113" y="-11.75" font-family="Times,serif" font-size="10.00">Cliffords</text>
<polygon fill="none" stroke="black" points="155,-4 155,-27.25 172.25,-27.25 172.25,-4 155,-4"/>
<text xml:space="preserve" text-anchor="start" x="161" y="-11.75" font-family="Times,serif" font-size="10.00">1</text>
</g>
<!-- b0&#45;&gt;b2 -->
<g id="edge2" class="edge">
<title>b0-&gt;b2</title>
<path fill="none" stroke="black" d="M139.62,-130.44C139.62,-116.93 139.62,-102.3 139.62,-88.81"/>
<polygon fill="black" stroke="black" points="143.13,-88.83 139.63,-78.83 136.13,-88.83 143.13,-88.83"/>
<text xml:space="preserve" text-anchor="middle" x="146.38" y="-98.95" font-family="Times,serif" font-size="14.00">15</text>
</g>
<!-- b3 -->
<g id="node4" class="node">
<title>b3</title>
<polygon fill="none" stroke="black" points="206.12,-38.88 206.12,-62.12 245.12,-62.12 245.12,-38.88 206.12,-38.88"/>
<text xml:space="preserve" text-anchor="start" x="222.62" y="-46.62" font-family="Times,serif" font-size="10.00">T</text>
<polygon fill="none" stroke="black" points="206.12,-15.62 206.12,-38.88 227.88,-38.88 227.88,-15.62 206.12,-15.62"/>
<text xml:space="preserve" text-anchor="start" x="212.12" y="-23.38" font-family="Times,serif" font-size="10.00">Ts</text>
<polygon fill="none" stroke="black" points="227.88,-15.62 227.88,-38.88 245.12,-38.88 245.12,-15.62 227.88,-15.62"/>
<text xml:space="preserve" text-anchor="start" x="233.88" y="-23.38" font-family="Times,serif" font-size="10.00">1</text>
</g>
<!-- b0&#45;&gt;b3 -->
<g id="edge3" class="edge">
<title>b0-&gt;b3</title>
<path fill="none" stroke="black" d="M169.95,-130.44C181.1,-112.29 193.51,-92.11 203.78,-75.41"/>
<polygon fill="black" stroke="black" points="206.5,-77.66 208.76,-67.31 200.54,-74 206.5,-77.66"/>
<text xml:space="preserve" text-anchor="middle" x="200.45" y="-98.95" font-family="Times,serif" font-size="14.00">660</text>
</g>
</g>
</svg>