<svg xmlns="http://www.w3.org/2000/svg" xmlns:xlink="http://www.w3.org/1999/xlink" width="301pt" height="263pt" viewBox="0.00 0.00 300.75 262.50">
<g id="graph0" class="graph" transform="scale(1 1) rotate(0) translate(4 258.5)">
<title>counts</title>
<polygon fill="white" stroke="none" points="-4,4 -4,-258.5 296.75,-258.5 296.75,4 -4,4"/>
<!-- b0 -->
<g id="node1" class="node">
<title>b0</title>
<polygon fill="none" stroke="black" points="77.12,-227.25 77.12,-250.5 206.12,-250.5 206.12,-227.25 77.12,-227.25"/>
<text text-anchor="start" x="83.12" y="-235" font-family="Times,serif" font-size="10.00">PLQuantumPhaseEstimation</text>
<polygon fill="none" stroke="black" points="77.12,-204 77.12,-227.25 156.25,-227.25 156.25,-204 77.12,-204"/>
<text text-anchor="start" x="102.81" y="-211.75" font-family="Times,serif" font-size="10.00">Qubits</text>
<polygon fill="none" stroke="black" points="156.25,-204 156.25,-227.25 206.12,-227.25 206.12,-204 156.25,-204"/>
<text text-anchor="start" x="178.56" y="-211.75" font-family="Times,serif" font-size="10.00">4</text>
<polygon fill="none" stroke="black" points="77.12,-180.75 77.12,-204 156.25,-204 156.25,-180.75 77.12,-180.75"/>
<text text-anchor="start" x="98.69" y="-188.5" font-family="Times,serif" font-size="10.00">Cliffords</text>
<polygon fill="none" stroke="black" points="156.25,-180.75 156.25,-204 206.12,-204 206.12,-180.75 156.25,-180.75"/>
<text text-anchor="start" x="175.94" y="-188.5" font-family="Times,serif" font-size="10.00">13</text>
<polygon fill="none" stroke="black" points="77.12,-157.5 77.12,-180.75 156.25,-180.75 156.25,-157.5 77.12,-157.5"/>
<text text-anchor="start" x="96.81" y="-165.25" font-family="Times,serif" font-size="10.00">Rotations</text>
<polygon fill="none" stroke="black" points="156.25,-157.5 156.25,-180.75 206.12,-180.75 206.12,-157.5 156.25,-157.5"/>
<text text-anchor="start" x="175.94" y="-165.25" font-family="Times,serif" font-size="10.00">16</text>
</g>
<!-- b1 -->
<g id="node2" class="node">
<title>b1</title>
<polygon fill="none" stroke="black" points="8,-62.12 8,-85.38 73.25,-85.38 73.25,-62.12 8,-62.12"/>
<text text-anchor="start" x="36.88" y="-69.88" font-family="Times,serif" font-size="10.00">H</text>
<polygon fill="none" stroke="black" points="8,-38.88 8,-62.12 56,-62.12 56,-38.88 8,-38.88"/>
<text text-anchor="start" x="18.12" y="-46.62" font-family="Times,serif" font-size="10.00">Qubits</text>
<polygon fill="none" stroke="black" points="56,-38.88 56,-62.12 73.25,-62.12 73.25,-38.88 56,-38.88"/>
<text text-anchor="start" x="62" y="-46.62" font-family="Times,serif" font-size="10.00">1</text>
<polygon fill="none" stroke="black" points="8,-15.62 8,-38.88 56,-38.88 56,-15.62 8,-15.62"/>
<text text-anchor="start" x="14" y="-23.38" font-family="Times,serif" font-size="10.00">Cliffords</text>
<polygon fill="none" stroke="black" points="56,-15.62 56,-38.88 73.25,-38.88 73.25,-15.62 56,-15.62"/>
<text text-anchor="start" x="62" y="-23.38" font-family="Times,serif" font-size="10.00">1</text>
</g>
<!-- b0&#45;&gt;b1 -->
<g id="edge1" class="edge">
<title>b0-&gt;b1</title>
<path fill="none" stroke="black" d="M108.83,-153.81C96.97,-136.02 83.62,-116 71.9,-98.41"/>
<polygon fill="black" stroke="black" points="74.87,-96.56 66.41,-90.18 69.05,-100.44 74.87,-96.56"/>
<text text-anchor="middle" x="97.53" y="-122.2" font-family="Times,serif" font-size="14.00">3</text>
</g>
<!-- b2 -->
<g id="node3" class="node">
<title>b2</title>
<polygon fill="none" stroke="black" points="107.12,-50.5 107.12,-73.75 176.12,-73.75 176.12,-50.5 107.12,-50.5"/>
<text text-anchor="start" x="120.25" y="-58.25" font-family="Times,serif" font-size="10.00">C[Ry(0.3)]</text>
<polygon fill="none" stroke="black" points="107.12,-27.25 107.12,-50.5 158.88,-50.5 158.88,-27.25 107.12,-27.25"/>
<text text-anchor="start" x="113.12" y="-35" font-family="Times,serif" font-size="10.00">Rotations</text>
<polygon fill="none" stroke="black" points="158.88,-27.25 158.88,-50.5 176.12,-50.5 176.12,-27.25 158.88,-27.25"/>
<text text-anchor="start" x="164.88" y="-35" font-family="Times,serif" font-size="10.00">1</text>
</g>
<!-- b0&#45;&gt;b2 -->
<g id="edge2" class="edge">
<title>b0-&gt;b2</title>
<path fill="none" stroke="black" d="M141.62,-153.81C141.62,-132.68 141.62,-108.38 141.62,-88.77"/>
<polygon fill="black" stroke="black" points="145.13,-89.05 141.63,-79.05 138.13,-89.05 145.13,-89.05"/>
<text text-anchor="middle" x="145" y="-122.2" font-family="Times,serif" font-size="14.00">7</text>
</g>
<!-- b3 -->
<g id="node4" class="node">
<title>b3</title>
<polygon fill="none" stroke="black" points="210.5,-73.75 210.5,-97 284.75,-97 284.75,-73.75 210.5,-73.75"/>
<text text-anchor="start" x="230" y="-81.5" font-family="Times,serif" font-size="10.00">PLQFT†</text>
<polygon fill="none" stroke="black" points="210.5,-50.5 210.5,-73.75 262.25,-73.75 262.25,-50.5 210.5,-50.5"/>
<text text-anchor="start" x="222.5" y="-58.25" font-family="Times,serif" font-size="10.00">Qubits</text>
<polygon fill="none" stroke="black" points="262.25,-50.5 262.25,-73.75 284.75,-73.75 284.75,-50.5 262.25,-50.5"/>
<text text-anchor="start" x="270.88" y="-58.25" font-family="Times,serif" font-size="10.00">3</text>
<polygon fill="none" stroke="black" points="210.5,-27.25 210.5,-50.5 262.25,-50.5 262.25,-27.25 210.5,-27.25"/>
<text text-anchor="start" x="218.38" y="-35" font-family="Times,serif" font-size="10.00">Cliffords</text>
<polygon fill="none" stroke="black" points="262.25,-27.25 262.25,-50.5 284.75,-50.5 284.75,-27.25 262.25,-27.25"/>
<text text-anchor="start" x="268.25" y="-35" font-family="Times,serif" font-size="10.00">10</text>
<polygon fill="none" stroke="black" points="210.5,-4 210.5,-27.25 262.25,-27.25 262.25,-4 210.5,-4"/>
<text text-anchor="start" x="216.5" y="-11.75" font-family="Times,serif" font-size="10.00">Rotations</text>
<polygon fill="none" stroke="black" points="262.25,-4 262.25,-27.25 284.75,-27.25 284.75,-4 262.25,-4"/>
<text text-anchor="start" x="270.88" y="-11.75" font-family="Times,serif" font-size="10.00">9</text>
</g>
<!-- b0&#45;&gt;b3 -->
<g id="edge3" class="edge">
<title>b0-&gt;b3</title>
<path fill="none" stroke="black" d="M176.04,-153.81C185.76,-139.92 196.43,-124.66 206.5,-110.27"/>
<polygon fill="black" stroke="black" points="209.29,-112.4 212.15,-102.2 203.55,-108.39 209.29,-112.4"/>
<text text-anchor="middle" x="201.18" y="-122.2" font-family="Times,serif" font-size="14.00">1</text>
</g>
</g>
</svg>