<?xml version="1.0" encoding="utf-8"?>
<!-- Generator: Adobe Illustrator 27.1.1, SVG Export Plug-In . SVG Version: 6.00 Build 0)  -->
<svg version="1.1" id="Layer_1" xmlns="http://www.w3.org/2000/svg" xmlns:xlink="http://www.w3.org/1999/xlink" x="0px" y="0px"
	 viewBox="0 0 130 80" style="enable-background:new 0 0 130 80;" xml:space="preserve">
<style type="text/css">
	.st0{fill:#ACE3FF;stroke:#000000;stroke-linecap:round;stroke-linejoin:round;stroke-miterlimit:10;}
	.st1{fill:#FFE096;stroke:#000000;stroke-linecap:round;stroke-linejoin:round;stroke-miterlimit:10;}
	.st2{fill:#FF87EB;stroke:#000000;stroke-linecap:round;stroke-linejoin:round;stroke-miterlimit:10;}
	.st3{fill:#70CEFF;stroke:#000000;stroke-linecap:round;stroke-linejoin:round;stroke-miterlimit:10;}
</style>
<g>
	<g>
		<path class="st0" d="M86,31.2c0-0.3,0-0.6,0-0.9c0-0.5-0.3-1-0.5-1.4c-0.1-0.2-0.2-0.4-0.3-0.5c-0.2-0.2-0.4-0.3-0.6-0.5
			c-0.4-0.4-0.7-0.8-1.1-1c-0.3-0.2-0.7-0.4-1.1-0.6c-0.3-0.1-0.5-0.3-0.9-0.3c-0.6-0.1-1.3,0.1-1.3-0.1c-1.7,0-3.5,0.1-5.2-0.2
			c-0.3-0.1-0.6-0.1-1-0.2c-0.6,0-1.1,0-1.7,0c-1.2,0-2.3-0.2-3.5-0.1c-2.2,0.1-4.5,0.1-6.7,0.4c-0.5,0.1-1,0.2-1.5,0.3
			c-0.3,0-0.7,0.1-1,0.2c-0.5,0.2-1,0.4-1.5,0.7c-0.4,0.2-0.8,0.6-1,1c-0.1,0.2-0.2,0.3-0.3,0.5c1.1,0.8,2.2,1.7,3.4,2.5
			c1.1,0.8,2.1,1.6,3,2.4c0.7,0.6,1.3,1.1,1.9,1.7c0,0,0.1,0.1,0.1,0.1c0,0,0.1,0,0.1,0c0.8,0,1.7,0,2.5,0c1,0,1.9-0.1,2.9,0.1
			c0.3,0.1,0.6,0.1,0.8,0.4c0.2,0.3,0.2,0.8,0.1,1.2c-0.1,0.7-0.4,1.3-0.7,1.9c-0.4,0.7-0.9,1.3-1.3,2c-0.4,0.6-0.8,1.1-1.2,1.7
			c0.1,1.3,0.3,2.5,0.4,3.8c0.1,2.1,0.1,4.2,0.2,6.4c0,0.2,0,0.4,0,0.6c0.4,0,0.8,0,1.2,0c0.8-0.2,1.5-0.7,2.2-1.2
			c0.8-0.6,1.4-1.3,2.1-2c0.7-0.8,1.3-1.6,2-2.4c0.7-1,1.5-2,2-3.1c0.3-0.6,0.5-1.1,0.8-1.7c0.3-0.7,0.7-1.2,1.1-1.8
			c0.8-1.2,1.6-2.5,2.5-3.6c0.5-0.5,0.9-1.1,1.3-1.6c0.4-0.5,0.8-1.1,1.2-1.7c0.3-0.5,0.5-1,0.6-1.6C85.9,31.9,86,31.6,86,31.2z"/>
		<path class="st1" d="M67.8,52.8c-0.3-0.2-0.6-0.3-0.9-0.5c-0.3-0.1-0.5-0.3-0.7-0.5c-0.7-0.8-1-1.8-0.9-2.8
			c0.1-0.7,0.3-1.4,0.6-2.1c0.3-0.8,0.7-1.5,1-2.2c0.4-0.7,0.7-1.4,1.2-2c0.1-0.1,0.1-0.2,0.2-0.3c0.1-0.1,0.1-1.9,0.1-2.2
			c0-1.9-2.1-3.7-3.3-4.9c-0.4,0-0.7,0.1-1.1,0.1c-0.7,0-1.4,0.1-2.1,0.2c-1.3,0.1-3.3-0.2-4.3-1.2c-0.6-0.6-1.1-1.4-1.4-2.2
			c-0.1-0.4-0.2-0.8-0.2-1.2c0-0.4,0.1-0.8,0.2-1.2c0.1-0.4,0.3-0.8,0.5-1.2c-0.3-0.2-0.6-0.4-0.9-0.6c-1.4-1-2.8-1.9-4.4-2.6
			c-1-0.5-2.1-1-3.3-0.9c-0.6,0.1-1.1,0.4-1.5,0.7c-0.4,0.3-0.8,0.7-1.1,1.1c0.1,0.2,0.3,0.3,0.4,0.4c1,1.1,1.8,2.3,2.6,3.4
			c0.5,0.6,0.9,1.3,1.3,2c0.3,0.6,0.5,1.2,0.8,1.8c0.2,0.5,0.5,0.9,0.7,1.4c0.3,0.6,0.5,1.3,0.8,1.9c0.3,0.3,0.6,0.5,0.9,0.8
			c0.5,0.5,0.9,1,1.5,1.5c0.4,0.3,0.8,0.6,1.3,0.9c0.6,0.3,1.2,0.5,1.7,1c0.6,0.5,1,1.1,1.1,1.9c0.2,1,0.1,2.1,0.1,3
			c0,1-0.2,2.1-0.2,3.1c0,0.2,0,0.4,0,0.6c1.6,3.1,2.9,6.4,4.3,9.6c0.1,0.2,0.6,0.5,0.9,1c0.2,0.3,0.2,0.6,0.3,0.8
			c0.2,0.5,0.4,0.9,0.5,1.4c0,0,0,0,0,0.1c0.9,0,2.1-0.2,2.6-1c0.7-1.1,1-2.2,1.2-3.5c0.3-1.7,0.6-3.4,0.6-5.1
			C68.6,53.1,68.2,53,67.8,52.8z"/>
		<path class="st2" d="M56.1,30.8c0,0.4,0.1,0.8,0.2,1.2c0.2,0.8,0.8,1.6,1.4,2.2c1,1,3,1.3,4.3,1.2c0.7-0.1,1.4-0.2,2.1-0.2
			c0.4,0,0.7,0,1.1-0.1c0,0-0.1-0.1-0.1-0.1c-0.6-0.6-1.2-1.2-1.9-1.7c-1-0.8-2-1.7-3-2.4c-1.1-0.8-2.2-1.7-3.4-2.5
			c-0.2,0.4-0.4,0.8-0.5,1.2C56.2,30,56,30.3,56.1,30.8z"/>
		<path class="st2" d="M68.8,46.2c-0.1-1.3-0.3-2.5-0.4-3.8c-0.1,0.1-0.1,0.2-0.2,0.3c-0.5,0.6-0.8,1.3-1.2,2
			c-0.4,0.7-0.8,1.4-1,2.2c-0.2,0.7-0.5,1.3-0.6,2.1c-0.1,1,0.2,2,0.9,2.8c0.2,0.2,0.4,0.4,0.7,0.5c0.3,0.1,0.6,0.3,0.9,0.5
			c0.3,0.2,0.7,0.3,1.1,0.3c0-0.2,0-0.4,0-0.6C68.9,50.4,68.9,48.3,68.8,46.2z"/>
		<path class="st0" d="M60.6,61.5c-0.5-0.3-1.1-0.8-1.4-1.4c-0.3-0.6-0.4-1.4-0.5-2.1c-0.2-1.2-0.5-2.3-0.4-3.5c0.1-1,0.1-2,0.1-2.9
			c0.1-0.6,0.1-1.2,0.1-1.8c-0.3-0.6-0.6-1.1-0.9-1.7c-0.4-0.7-0.9-1.4-1.3-2.2c-0.5-1-1-2-1.5-3c-0.9-1.8-1.7-3.8-2.6-5.6
			c0-0.1-0.1-0.2-0.1-0.3c-0.2-0.2-0.4-0.3-0.7-0.5c-0.9-0.7-1.8-1.5-2.8-2.2c-0.7-0.5-1.5-0.8-2.3-1.3c-0.8-0.5-1.3-1.3-1.8-2.1
			c-0.8-1.5-0.4-3.4,0.6-4.7c0-0.1,0.1-0.1,0.1-0.2c-0.3-0.3-0.6-0.6-0.9-0.7c-0.5-0.2-1-0.1-1.5-0.1c-1.3,0.1-2.6,0.1-3.7,0.8
			c-0.8,0.5-1.3,1-1.5,2c-0.4,1.9,0.7,3.4,1.6,4.9c0.4,0.8,0.8,1.6,1.2,2.4c0.6,1.2,1.3,2.4,1.9,3.7c0.7,1.4,1.5,2.7,2.3,4
			c0.3,0.6,0.5,1.2,0.8,1.8c0.5,1,1,2.1,1.6,3.1c0.4,0.6,0.6,1.2,0.9,1.8c0.3,0.5,0.6,1,0.8,1.5c0.2,0.3,0.3,0.6,0.4,0.8
			c0.4,0.9,1,1.8,1.5,2.7c0.9,1.5,1.9,2.9,2.7,4.5c0.6,1.2,1.2,2.4,1.8,3.6c0.4,0.7,0.8,1.3,1.3,2c0.4,0.6,0.9,1,1.4,1.5
			c0.6,0.6,1.4,1.2,2.2,1.5c0.6,0.1,1.2,0.2,1.7,0.1c0.6-0.2,1.1-0.9,1.4-1.5c0.3-0.7,0.6-1.4,0.8-2.1c0.1-0.5,0.2-1,0.1-1.5
			c-0.1,0-0.3,0-0.4,0C62.9,62.6,61.6,62.2,60.6,61.5z"/>
		<path class="st2" d="M64.1,61.2c-0.1-0.3-0.2-0.6-0.3-0.8c-0.3-0.5-0.8-0.9-0.9-1c-1.4-3.2-2.7-6.5-4.3-9.6c0,0.6-0.1,1.2-0.1,1.8
			c-0.1,1-0.1,2-0.1,2.9c-0.1,1.2,0.2,2.3,0.4,3.5c0.1,0.7,0.2,1.5,0.5,2.1c0.3,0.5,0.9,1,1.4,1.4c1,0.7,2.3,1.2,3.5,1.2
			c0.1,0,0.3,0,0.4,0c0,0,0,0,0-0.1C64.5,62,64.3,61.7,64.1,61.2z"/>
		<path class="st2" d="M44.8,31c0.4,0.8,1,1.5,1.8,2.1c0.7,0.5,1.5,0.9,2.3,1.3c1,0.6,1.8,1.5,2.8,2.2c0.2,0.2,0.4,0.3,0.7,0.5
			c-0.3-0.6-0.5-1.3-0.8-1.9c-0.2-0.5-0.5-1-0.7-1.4c-0.3-0.6-0.5-1.2-0.8-1.8c-0.4-0.7-0.9-1.3-1.3-2c-0.9-1.1-1.7-2.4-2.6-3.4
			c-0.1-0.1-0.3-0.3-0.4-0.4c0,0.1-0.1,0.1-0.1,0.2C44.3,27.5,44,29.5,44.8,31z"/>
	</g>
	<path class="st2" d="M90.6,13c-0.4-0.6-0.8-1-1.3-1.5c-0.3-0.3-0.6-0.5-0.8-0.8c-0.2-0.3-0.5-0.6-0.7-0.9c-0.1-0.2-0.3-0.4-0.5-0.5
		c-0.1,0.1-0.1,0.3-0.1,0.5c-0.1,0.4-0.2,0.8-0.3,1.2c0,0.3,0.1,0.6,0,1c-0.1,0.3-0.1,0.5-0.1,0.8c0,0.3,0,0.7-0.1,1
		c-0.1,0.4-0.1,0.7-0.2,1.1c-0.1,0.6-0.2,1.1-0.3,1.7c0,0.3,0,0.5-0.1,0.8c-0.1,0.2-0.1,0.4-0.1,0.6c0,0.4-0.1,0.8-0.2,1.2
		c-0.1,0.2-0.1,0.5-0.2,0.7c-0.1,0.2-0.1,0.4-0.2,0.6c0.1-0.1,0.3-0.1,0.4-0.1c0.2,0,0.3,0,0.5,0c0.5,0,0.9-0.1,1.4-0.2
		c0.6,0,1.3-0.1,1.9-0.1c0.3,0,0.6-0.1,0.9-0.1c0.4,0,0.8,0,1.2,0c0.4,0,0.8-0.1,1.2-0.1c0.3,0,0.5-0.1,0.8,0c0.3,0,0.6,0,0.9,0
		c0.2,0,0.5,0,0.7,0c0.3,0,0.5-0.1,0.8-0.1c0.2,0,0.4,0,0.5,0c0.1,0,0.2,0.1,0.3,0.1c0-0.1-0.2-0.2-0.3-0.3
		c-0.2-0.2-0.4-0.4-0.6-0.6c-0.2-0.2-0.3-0.5-0.5-0.7c-0.2-0.2-0.5-0.4-0.7-0.7c-0.3-0.4-0.8-0.8-1.2-1.1c-0.1-0.1-0.3-0.3-0.5-0.2
		c0.4-0.4,0.8-0.9,1.2-1.3c0.2-0.2,0.3-0.4,0.5-0.6c0.3-0.4,0.7-0.7,1-1.1c0.3-0.4,0.7-0.6,1-0.9c0.4-0.4,0.9-0.7,1.3-1.2
		c0.4-0.4,0.6-0.9,1-1.3c0.5-0.5,1-0.9,1.4-1.3c0.2-0.2,0.5-0.4,0.7-0.6c0.2-0.2,0.3-0.4,0.5-0.6c0.2-0.2,0.4-0.3,0.6-0.5
		c0.2-0.2,0.4-0.3,0.6-0.5c0.5-0.4,0.9-0.9,1.4-1.2c0-0.1-0.3-0.2-0.5-0.2c-0.2-0.1-0.3-0.2-0.5-0.4c-0.3-0.3-0.4-0.6-0.7-0.9
		c-0.3-0.3-0.5-0.6-0.8-0.9c-0.2-0.2-0.3-0.5-0.6-0.6c-0.1,0.1-0.2,0.2-0.3,0.3c-0.2,0.3-0.4,0.5-0.6,0.8c-0.4,0.4-0.8,0.9-1.2,1.2
		C99,4.7,98.5,5.1,98,5.5c-0.3,0.2-0.5,0.5-0.8,0.8C97,6.5,96.6,6.7,96.4,7c-0.5,0.5-1.1,1-1.5,1.5c-0.4,0.5-0.9,1-1.4,1.4
		c-0.4,0.3-0.7,0.7-1,1.1c-0.3,0.3-0.5,0.6-0.8,0.9c-0.2,0.2-0.5,0.5-0.7,0.7c-0.1,0.1-0.1,0.2-0.2,0.2C90.6,12.9,90.5,13,90.6,13z"
		/>
	<path class="st3" d="M25.8,37c-0.1-3.6-0.1-7.2-0.2-10.8c-0.1-4.2-0.2-8.8,1.4-12.9c1.9-4.6,5.9-6.7,10.6-7.4
		c0.7-0.1,1.3-0.2,2-0.3c0.6,0,1.2,0,1.8,0c1,0,1.9-0.1,2.9-0.2c0.5,0,1,0,1.5,0.1c0.7,0,1.4,0,2.1,0c0.5,0,1.1,0,1.6,0
		c0.5,0,0.9,0.2,1.4,0.2c0.7,0.1,1.3,0,2,0c0.7,0,1.4,0,2.1,0.1c0.6,0,1.2,0.1,1.8,0.1c0.6-0.1,1.3-0.2,1.9-0.2c1.3,0,2.5,0.2,3.8,0
		c0.7-0.1,1.5-0.1,2.2,0c0.7,0.1,1.5,0.1,2.2,0.1c1.3,0,2.6,0.4,3.9,0.3c0.8-0.1,1.5,0,2.3,0c0.7,0,1.4-0.1,2-0.1c0,0,0,0,0-0.1
		c0,1,0,1.9,0,2.9c0,0.4-0.1,0.7-0.2,1c-0.1,0.3-0.1,0.7-0.1,1c0,0.2-0.1,0.6,0,0.9c-0.2,0-0.4-0.2-0.6-0.3
		c-0.3-0.2-0.8-0.4-1.2-0.4c-0.6,0-1.2,0.2-1.8,0.2c-0.7-0.1-1.3-0.3-2-0.3c-0.8-0.1-1.6,0-2.4-0.1c-1-0.2-2-0.2-3-0.2
		c-1.2,0-2.3,0-3.5-0.1c-0.6-0.1-1.2,0-1.8,0.1c-0.7,0.1-1.3,0-2,0.1c-0.6,0-1.2-0.1-1.8-0.1c-0.7,0-1.3,0.1-1.9,0
		c-0.7,0-1.3-0.1-1.9-0.1c-0.5,0-1.1,0.1-1.6,0.1c-0.5,0-1,0.1-1.5,0.1c-0.5,0-1.1-0.1-1.6-0.2c-1,0-1.9,0.2-2.8,0.2
		c-0.5,0-1.1,0.1-1.6,0.1c-0.5,0-1-0.1-1.5,0c-1.7,0.2-3.4,0.4-5,1.2c-0.6,0.3-1.1,0.7-1.5,1.3c-0.4,0.6-0.8,1.1-1.2,1.8
		c-0.2,0.3-0.4,0.7-0.5,1.1c-0.1,0.5-0.3,0.9-0.4,1.4c-0.2,0.9-0.6,1.7-0.8,2.7c-0.2,0.9-0.3,1.8-0.4,2.6c0,0.4,0,0.9,0,1.3
		c0,0.5-0.2,1-0.2,1.5c0,0.4,0.1,0.7,0.1,1.1c0,0.4,0,0.7,0,1.1c-0.1,0.9-0.2,1.7-0.2,2.6c-0.1,1.7-0.2,3.4-0.1,5.1
		c0,0.3,0.1,0.5,0.1,0.8c0,0.4-0.1,0.8-0.1,1.3c0,1.2,0,2.4,0.3,3.6c0.2,0.8,0.2,1.7,0.4,2.5c0.2,0.9,0.1,1.9,0.2,2.8
		c0.1,0.7,0.1,1.4,0,2.1c-0.1,0.7,0,1.5,0,2.2c0,0.5,0,1,0,1.5c0,0.4,0.1,0.8,0.1,1.3c-0.1,0.9,0.1,1.7,0.1,2.6
		c0,0.9,0.2,1.9,0.1,2.9c0,0.4,0,0.8,0,1.2c0,0.6,0.1,1.3,0,1.9c0,0.9,0.3,1.9,0.3,2.8c0,0.8,0.4,1.6,0.5,2.4c0.1,1,0.3,1.4,1.1,2.1
		c0.9,0.8,1.8,1.7,2.9,2.2c1.1,0.5,2.3,0.7,3.6,0.8c3.2,0.4,6.7,1.1,9.9,0.6c3.6-0.5,7.6-0.5,11.2-0.2c1.2,0.1,2.4,0.2,3.6,0.2
		c2,0,4.1-0.2,6.1-0.4c3.6-0.3,7.1-0.3,10.7-0.1c2.3,0.2,4.6-0.1,6.9-0.3c0.5,0,1.1-0.1,1.6-0.3c0.8-0.3,1.7-0.6,2.4-1.1
		c0.4-0.3,0.8-0.5,1.2-0.8c0.4-0.4,0.7-0.7,0.9-1.2c0.5-0.8,1.1-1.7,1.3-2.6c0.4-1.4,0.6-2.9,0.6-4.3c0-0.4,0.1-0.9,0.1-1.3
		c0-0.4-0.1-0.7-0.2-1.1c-0.1-0.7-0.1-1.4-0.1-2.1c0-1,0-1.9,0-2.8c0-0.5-0.1-1.1-0.2-1.6c-0.1-0.5,0-0.9-0.1-1.4
		c-0.1-0.8-0.2-1.7-0.1-2.5c0.1-0.8,0-1.5,0.1-2.3c0.1-0.7,0-1.4,0-2.2c0-0.9,0.1-1.7,0-2.6c0-0.4-0.1-0.9-0.1-1.3
		c0-0.2,0-0.4,0-0.6c-0.1-0.2-0.2-0.4-0.2-0.7c-0.1-0.8,0-1.5,0-2.3c0-0.8,0-1.5,0-2.2c0-0.3,0.1-0.7,0-1.1
		c-0.1-0.3-0.1-0.6-0.1-0.9c0-0.3,0.1-0.7,0.2-1.1c0.1-0.4-0.1-1,0.1-1.4c0.1,0.2,0.4,0.2,0.6,0.2c0.3,0,0.6,0.1,0.9,0.1
		c0.4,0,0.9-0.1,1.3-0.2c0.4,0,0.7,0,1.1,0c0.4,0,0.9-0.1,1.3-0.1c-0.1,0.2,0,0.4,0,0.6c0,0.5-0.2,1-0.3,1.5c-0.1,0.5,0,0.9,0,1.4
		c0,0.6,0,1.2,0,1.8c0.1,0.6,0.2,1.1,0.2,1.7c0,0.4-0.2,0.8-0.1,1.2c0.1,1.1,0,2.1,0.1,3.2c0.1,0.8,0.2,1.6,0.2,2.4
		c0,0.6-0.1,1.2-0.1,1.8c-0.1,0.4-0.1,0.7-0.2,1.1c0,0.5,0,0.9,0.1,1.4c0.1,0.5,0,1,0,1.4c0,0.6,0.1,1.2,0.2,1.7
		c0.1,0.4,0.1,0.9,0.2,1.3c0,0.4,0.1,0.9,0.1,1.3c0,0.6-0.1,1.2,0,1.9c0,0.5,0,1,0,1.6c0,0.6,0,1.2,0.1,1.8c0.1,0.6,0,1.1,0,1.7
		c0,0.6,0.1,1.3,0,1.9c0,0.4-0.2,0.7-0.3,1.1c-0.1,0.4-0.1,0.8-0.2,1.2c-0.2,0.8-0.6,1.5-0.9,2.3c-0.3,0.7-0.3,1.5-0.6,2.2
		c-0.1,0.3-0.4,0.5-0.5,0.8c-0.2,0.3-0.4,0.6-0.6,1c-0.4,0.7-0.7,1.4-1.3,2c-0.5,0.6-1.2,1.1-1.9,1.6c-2.5,1.5-4.6,2.1-7.5,2.3
		c-4.7,0.3-9.4,0.3-14,0.3c-0.7,0-1.3,0.1-2,0.1c-0.6,0-1.2,0-1.8-0.1c-1-0.2-2,0.1-3,0.1c-0.5,0-1.1,0.1-1.6,0.1
		c-0.6,0-1.3-0.1-1.9-0.2c-0.6,0-1.2,0.1-1.9,0c-0.7-0.1-1.5-0.1-2.2-0.1c-0.7,0-1.4,0-2.1,0.1c-0.7,0-1.4-0.2-2.2-0.2
		c-0.8,0-1.7,0.1-2.5,0.2c-0.9,0.1-1.7,0-2.6,0c-0.5,0-1,0-1.5,0c-0.5,0-1-0.1-1.5-0.1c-0.5,0-1-0.2-1.5-0.2c-0.5,0-1.1,0-1.6,0
		c-0.6,0-1.2,0.1-1.8-0.1C40.6,77.2,40,77,39.4,77c-0.5,0-1,0.1-1.5,0c-0.3-0.1-0.6-0.2-0.9-0.2c-0.2,0-0.4,0-0.6,0
		c-0.3,0-0.6-0.1-0.8-0.1c-0.9-0.2-1.8-0.5-2.6-1c-0.6-0.4-1.5-0.6-2-1.2c-0.4-0.5-0.9-1-1.3-1.5c-0.3-0.4-0.7-0.8-0.9-1.3
		c-0.4-0.6-0.8-1.1-1.2-1.7c-1.3-2.1-1.2-4.9-1.3-7.3c-0.1-3-0.1-6-0.2-9.1c-0.1-4.7-0.2-9.3-0.3-14C25.8,38.7,25.8,37.9,25.8,37z"
		/>
</g>
</svg>
