<?xml version="1.0" encoding="utf-8" standalone="no"?>
<!DOCTYPE svg PUBLIC "-//W3C//DTD SVG 1.1//EN"
  "http://www.w3.org/Graphics/SVG/1.1/DTD/svg11.dtd">
<svg xmlns:xlink="http://www.w3.org/1999/xlink" width="772.75pt" height="537.88625pt" viewBox="0 0 772.75 537.88625" xmlns="http://www.w3.org/2000/svg" version="1.1">
 <metadata>
  <rdf:RDF xmlns:dc="http://purl.org/dc/elements/1.1/" xmlns:cc="http://creativecommons.org/ns#" xmlns:rdf="http://www.w3.org/1999/02/22-rdf-syntax-ns#">
   <cc:Work>
    <dc:type rdf:resource="http://purl.org/dc/dcmitype/StillImage"/>
    <dc:date>2022-08-04T17:28:55.764657</dc:date>
    <dc:format>image/svg+xml</dc:format>
    <dc:creator>
     <cc:Agent>
      <dc:title>Matplotlib v3.5.2, https://matplotlib.org/</dc:title>
     </cc:Agent>
    </dc:creator>
   </cc:Work>
  </rdf:RDF>
 </metadata>
 <defs>
  <style type="text/css">*{stroke-linejoin: round; stroke-linecap: butt}</style>
 </defs>
 <g id="figure_1">
  <g id="patch_1">
   <path d="M 0 537.88625 
L 772.75 537.88625 
L 772.75 0 
L 0 0 
z
" style="fill: #ffffff"/>
  </g>
  <g id="axes_1">
   <g id="patch_2">
    <path d="M 95.95 469.36 
L 765.55 469.36 
L 765.55 34.48 
L 95.95 34.48 
z
" style="fill: #ffffff"/>
   </g>
   <g id="PolyCollection_1">
    <defs>
     <path id="m9ba975ae8c" d="M 126.386364 -195.390996 
L 126.386364 -483.638977 
L 131.425735 -455.424327 
L 136.02632 -415.515616 
L 144.176788 -382.266147 
L 147.824674 -402.984447 
L 154.442472 -389.907256 
L 163.035397 -335.791523 
L 168.074769 -331.968935 
L 174.833751 -264.392922 
L 180.825821 -291.249686 
L 186.207416 -258.627741 
L 192.624175 -225.299176 
L 199.684431 -238.622014 
L 205.912018 -218.751929 
L 211.482785 -223.995208 
L 218.410692 -191.874991 
L 224.535111 -206.873493 
L 230.762698 -231.700581 
L 236.990285 -219.567953 
L 243.145294 -229.463495 
L 249.17885 -236.24157 
L 255.059725 -222.875553 
L 261.595613 -213.994728 
L 267.777639 -230.291541 
L 273.639319 -237.840886 
L 280.084045 -225.058448 
L 286.086434 -221.546484 
L 292.399924 -205.25696 
L 298.449186 -202.689362 
L 304.608681 -211.258233 
L 310.775668 -214.173617 
L 316.877345 -221.671216 
L 323.120937 -214.705374 
L 329.277353 -206.152318 
L 335.403553 -201.8208 
L 341.529558 -200.534458 
L 347.666686 -203.237256 
L 353.88533 -204.921723 
L 360.025398 -198.224007 
L 366.153799 -194.456528 
L 372.305691 -187.265115 
L 378.449044 -184.58561 
L 384.596641 -181.539201 
L 390.748571 -171.755628 
L 396.928631 -172.244259 
L 403.057508 -172.133328 
L 409.206623 -170.309633 
L 415.367154 -169.195474 
L 421.525112 -173.251125 
L 427.664149 -176.2034 
L 433.814872 -176.180873 
L 439.959997 -176.256244 
L 446.118864 -174.046158 
L 452.261644 -172.072753 
L 458.412493 -171.56795 
L 464.560751 -173.134195 
L 470.715759 -168.834233 
L 476.861276 -169.903822 
L 483.011138 -171.544974 
L 489.160539 -174.801272 
L 495.308669 -176.714492 
L 501.460588 -177.685304 
L 507.607637 -176.227937 
L 513.757879 -175.545902 
L 519.905394 -175.72077 
L 526.055502 -174.823395 
L 532.203694 -173.636105 
L 538.352688 -174.393299 
L 544.50035 -174.345119 
L 550.649865 -172.865351 
L 556.798519 -172.780902 
L 562.947955 -172.740094 
L 569.096359 -172.077199 
L 575.245851 -172.095913 
L 581.393881 -171.521845 
L 587.543326 -171.23301 
L 593.692056 -171.856669 
L 599.840658 -171.837168 
L 605.989122 -172.384925 
L 612.137891 -172.652229 
L 618.286768 -172.965787 
L 624.435661 -172.317615 
L 630.584467 -172.232207 
L 636.733262 -171.98059 
L 642.881977 -172.195641 
L 649.030974 -171.886439 
L 655.179734 -172.330339 
L 661.328377 -172.241327 
L 667.477094 -172.35227 
L 673.625934 -172.405863 
L 679.774767 -172.085334 
L 685.923472 -172.273896 
L 692.072297 -171.98787 
L 698.221037 -171.762569 
L 704.369833 -171.682898 
L 710.518583 -171.782787 
L 716.667338 -171.682946 
L 722.816056 -171.727324 
L 728.964871 -171.496403 
L 735.113636 -171.298526 
L 735.113636 -170.537992 
L 735.113636 -170.537992 
L 728.964871 -170.690878 
L 722.816056 -170.873744 
L 716.667338 -170.77886 
L 710.518583 -170.824142 
L 704.369833 -170.667509 
L 698.221037 -170.686509 
L 692.072297 -170.848449 
L 685.923472 -171.066153 
L 679.774767 -170.805803 
L 673.625934 -171.049244 
L 667.477094 -170.915962 
L 661.328377 -170.72025 
L 655.179734 -170.71831 
L 649.030974 -170.17894 
L 642.881977 -170.385814 
L 636.733262 -170.060992 
L 630.584467 -170.198806 
L 624.435661 -170.162854 
L 618.286768 -170.683039 
L 612.137891 -170.229935 
L 605.989122 -169.820132 
L 599.840658 -169.117521 
L 593.692056 -168.97308 
L 587.543326 -168.177865 
L 581.393881 -168.290245 
L 575.245851 -168.679924 
L 569.096359 -168.460117 
L 562.947955 -168.908729 
L 556.798519 -168.715575 
L 550.649865 -168.560399 
L 544.50035 -169.774979 
L 538.352688 -169.55172 
L 532.203694 -168.5001 
L 526.055502 -169.36936 
L 519.905394 -169.975293 
L 513.757879 -169.437637 
L 507.607637 -169.796434 
L 501.460588 -170.860596 
L 495.308669 -169.500081 
L 489.160539 -167.180655 
L 483.011138 -163.493198 
L 476.861276 -161.378617 
L 470.715759 -159.79568 
L 464.560751 -163.529404 
L 458.412493 -161.373769 
L 452.261644 -161.276058 
L 446.118864 -162.561538 
L 439.959997 -164.019024 
L 433.814872 -163.119574 
L 427.664149 -162.380651 
L 421.525112 -158.653935 
L 415.367154 -153.602281 
L 409.206623 -153.6584 
L 403.057508 -154.351223 
L 396.928631 -153.303154 
L 390.748571 -151.529159 
L 384.596641 -159.999038 
L 378.449044 -161.512291 
L 372.305691 -162.666501 
L 366.153799 -167.948931 
L 360.025398 -169.698307 
L 353.88533 -174.785014 
L 347.666686 -171.728671 
L 341.529558 -166.214896 
L 335.403553 -164.364797 
L 329.277353 -166.226565 
L 323.120937 -172.044899 
L 316.877345 -176.052279 
L 310.775668 -166.851336 
L 304.608681 -163.086665 
L 298.449186 -151.528184 
L 292.399924 -150.541758 
L 286.086434 -162.005674 
L 280.084045 -163.588488 
L 273.639319 -174.836133 
L 267.777639 -164.139591 
L 261.595613 -145.885623 
L 255.059725 -147.933905 
L 249.17885 -156.982114 
L 243.145294 -143.53265 
L 236.990285 -133.522275 
L 230.762698 -136.286345 
L 224.535111 -111.675018 
L 218.410692 -90.024703 
L 211.482785 -117.177662 
L 205.912018 -100.969696 
L 199.684431 -114.617181 
L 192.624175 -88.293523 
L 186.207416 -113.684033 
L 180.825821 -136.11122 
L 174.833751 -96.086068 
L 168.074769 -162.775345 
L 163.035397 -150.177248 
L 154.442472 -178.396439 
L 147.824674 -163.426492 
L 144.176788 -131.282796 
L 136.02632 -166.983756 
L 131.425735 -192.891363 
L 126.386364 -195.390996 
z
" style="stroke: #ff8c00; stroke-opacity: 0.4"/>
    </defs>
    <g clip-path="url(#p63215c0458)">
     <use xlink:href="#m9ba975ae8c" x="0" y="537.88625" style="fill: #ff8c00; fill-opacity: 0.4; stroke: #ff8c00; stroke-opacity: 0.4"/>
    </g>
   </g>
   <g id="PolyCollection_2">
    <defs>
     <path id="m6c4f333e66" d="M 126.386364 -165.805869 
L 126.386364 -181.494432 
L 131.425735 -181.946578 
L 136.02632 -180.981874 
L 144.176788 -178.532781 
L 147.824674 -181.795694 
L 154.442472 -180.628305 
L 163.035397 -179.613832 
L 168.074769 -179.720521 
L 174.833751 -178.70968 
L 180.825821 -175.483587 
L 186.207416 -173.612614 
L 192.624175 -172.846479 
L 199.684431 -171.831404 
L 205.912018 -170.1791 
L 211.482785 -169.798623 
L 218.410692 -169.777313 
L 224.535111 -170.450286 
L 230.762698 -170.134619 
L 236.990285 -170.671724 
L 243.145294 -170.067978 
L 249.17885 -171.580305 
L 255.059725 -171.719193 
L 261.595613 -172.943568 
L 267.777639 -173.2082 
L 273.639319 -172.752937 
L 280.084045 -173.064803 
L 286.086434 -172.758244 
L 292.399924 -172.529436 
L 298.449186 -171.388046 
L 304.608681 -170.856174 
L 310.775668 -171.054163 
L 316.877345 -170.910236 
L 323.120937 -170.431022 
L 329.277353 -170.587537 
L 335.403553 -169.997826 
L 341.529558 -170.524451 
L 347.666686 -171.129087 
L 353.88533 -170.909811 
L 360.025398 -170.997972 
L 366.153799 -170.879739 
L 372.305691 -171.102486 
L 378.449044 -170.711708 
L 384.596641 -170.385416 
L 390.748571 -170.571431 
L 396.928631 -170.433042 
L 403.057508 -170.307212 
L 409.206623 -170.111436 
L 415.367154 -169.926251 
L 421.525112 -169.876876 
L 427.664149 -169.772257 
L 433.814872 -169.767558 
L 439.959997 -169.807459 
L 446.118864 -169.938524 
L 452.261644 -170.237281 
L 458.412493 -170.294929 
L 464.560751 -170.218621 
L 470.715759 -170.173904 
L 476.861276 -170.236607 
L 483.011138 -170.223638 
L 489.160539 -170.226625 
L 495.308669 -170.238083 
L 501.460588 -170.246412 
L 507.607637 -170.264069 
L 513.757879 -170.267479 
L 519.905394 -170.317874 
L 526.055502 -170.338537 
L 532.203694 -170.272453 
L 538.352688 -170.364535 
L 544.50035 -170.350382 
L 550.649865 -170.314627 
L 556.798519 -170.272528 
L 562.947955 -170.299742 
L 569.096359 -170.30721 
L 575.245851 -170.369153 
L 581.393881 -170.334793 
L 587.543326 -170.285569 
L 593.692056 -170.233195 
L 599.840658 -170.238039 
L 605.989122 -170.22047 
L 612.137891 -170.246689 
L 618.286768 -170.237167 
L 624.435661 -170.258678 
L 630.584467 -170.264192 
L 636.733262 -170.221993 
L 642.881977 -170.243848 
L 649.030974 -170.226829 
L 655.179734 -170.224702 
L 661.328377 -170.231911 
L 667.477094 -170.207792 
L 673.625934 -170.217127 
L 679.774767 -170.225166 
L 685.923472 -170.209939 
L 692.072297 -170.227878 
L 698.221037 -170.24118 
L 704.369833 -170.250043 
L 710.518583 -170.247788 
L 716.667338 -170.229183 
L 722.816056 -170.226214 
L 728.964871 -170.217172 
L 735.113636 -170.211027 
L 735.113636 -170.162274 
L 735.113636 -170.162274 
L 728.964871 -170.165485 
L 722.816056 -170.171412 
L 716.667338 -170.17107 
L 710.518583 -170.186215 
L 704.369833 -170.184793 
L 698.221037 -170.171951 
L 692.072297 -170.154484 
L 685.923472 -170.132182 
L 679.774767 -170.142682 
L 673.625934 -170.129658 
L 667.477094 -170.115071 
L 661.328377 -170.133556 
L 655.179734 -170.120389 
L 649.030974 -170.116218 
L 642.881977 -170.126592 
L 636.733262 -170.097738 
L 630.584467 -170.132617 
L 624.435661 -170.119213 
L 618.286768 -170.0893 
L 612.137891 -170.089853 
L 605.989122 -170.054498 
L 599.840658 -170.062321 
L 593.692056 -170.047133 
L 587.543326 -170.088405 
L 581.393881 -170.126302 
L 575.245851 -170.149088 
L 569.096359 -170.073668 
L 562.947955 -170.052639 
L 556.798519 -170.0117 
L 550.649865 -170.037588 
L 544.50035 -170.057264 
L 538.352688 -170.055098 
L 532.203694 -169.944784 
L 526.055502 -169.989291 
L 519.905394 -169.948784 
L 513.757879 -169.877366 
L 507.607637 -169.851333 
L 501.460588 -169.807293 
L 495.308669 -169.774679 
L 489.160539 -169.736166 
L 483.011138 -169.705285 
L 476.861276 -169.688742 
L 470.715759 -169.593132 
L 464.560751 -169.604865 
L 458.412493 -169.643498 
L 452.261644 -169.542405 
L 446.118864 -169.19863 
L 439.959997 -169.021229 
L 433.814872 -168.927643 
L 427.664149 -168.874049 
L 421.525112 -168.919769 
L 415.367154 -168.900881 
L 409.206623 -169.037402 
L 403.057508 -169.197217 
L 396.928631 -169.27042 
L 390.748571 -169.32145 
L 384.596641 -169.048025 
L 378.449044 -169.314874 
L 372.305691 -169.631456 
L 366.153799 -169.339829 
L 360.025398 -169.399741 
L 353.88533 -169.22662 
L 347.666686 -169.344305 
L 341.529558 -168.658314 
L 335.403553 -168.117209 
L 329.277353 -168.604482 
L 323.120937 -168.368025 
L 316.877345 -168.676515 
L 310.775668 -168.713333 
L 304.608681 -168.421615 
L 298.449186 -168.720213 
L 292.399924 -169.704461 
L 286.086434 -169.759672 
L 280.084045 -169.949645 
L 273.639319 -169.365524 
L 267.777639 -169.866287 
L 261.595613 -169.416788 
L 255.059725 -168.109942 
L 249.17885 -167.79038 
L 243.145294 -166.054812 
L 236.990285 -166.340545 
L 230.762698 -165.506543 
L 224.535111 -165.456823 
L 218.410692 -164.408136 
L 211.482785 -164.021331 
L 205.912018 -164.185514 
L 199.684431 -165.511822 
L 192.624175 -165.70035 
L 186.207416 -165.583665 
L 180.825821 -166.783467 
L 174.833751 -169.816106 
L 168.074769 -169.807936 
L 163.035397 -169.218326 
L 154.442472 -169.555492 
L 147.824674 -169.58956 
L 144.176788 -167.016826 
L 136.02632 -167.850284 
L 131.425735 -167.581879 
L 126.386364 -165.805869 
z
" style="stroke: #4682b4; stroke-opacity: 0.4"/>
    </defs>
    <g clip-path="url(#p63215c0458)">
     <use xlink:href="#m6c4f333e66" x="0" y="537.88625" style="fill: #4682b4; fill-opacity: 0.4; stroke: #4682b4; stroke-opacity: 0.4"/>
    </g>
   </g>
   <g id="matplotlib.axis_1">
    <g id="xtick_1">
     <g id="line2d_1">
      <defs>
       <path id="m7d5ee8f360" d="M 0 0 
L 0 3.5 
" style="stroke: #000000; stroke-width: 0.8"/>
      </defs>
      <g>
       <use xlink:href="#m7d5ee8f360" x="126.386364" y="469.36" style="stroke: #000000; stroke-width: 0.8"/>
      </g>
     </g>
     <g id="text_1">
      <!-- $\mathdefault{10^{1}}$ -->
      <g transform="translate(105.266364 494.59625)scale(0.24 -0.24)">
       <defs>
        <path id="DejaVuSans-31" d="M 794 531 
L 1825 531 
L 1825 4091 
L 703 3866 
L 703 4441 
L 1819 4666 
L 2450 4666 
L 2450 531 
L 3481 531 
L 3481 0 
L 794 0 
L 794 531 
z
" transform="scale(0.015625)"/>
        <path id="DejaVuSans-30" d="M 2034 4250 
Q 1547 4250 1301 3770 
Q 1056 3291 1056 2328 
Q 1056 1369 1301 889 
Q 1547 409 2034 409 
Q 2525 409 2770 889 
Q 3016 1369 3016 2328 
Q 3016 3291 2770 3770 
Q 2525 4250 2034 4250 
z
M 2034 4750 
Q 2819 4750 3233 4129 
Q 3647 3509 3647 2328 
Q 3647 1150 3233 529 
Q 2819 -91 2034 -91 
Q 1250 -91 836 529 
Q 422 1150 422 2328 
Q 422 3509 836 4129 
Q 1250 4750 2034 4750 
z
" transform="scale(0.015625)"/>
       </defs>
       <use xlink:href="#DejaVuSans-31" transform="translate(0 0.684375)"/>
       <use xlink:href="#DejaVuSans-30" transform="translate(63.623047 0.684375)"/>
       <use xlink:href="#DejaVuSans-31" transform="translate(128.203125 38.965625)scale(0.7)"/>
      </g>
     </g>
    </g>
    <g id="xtick_2">
     <g id="line2d_2">
      <g>
       <use xlink:href="#m7d5ee8f360" x="248.131818" y="469.36" style="stroke: #000000; stroke-width: 0.8"/>
      </g>
     </g>
     <g id="text_2">
      <!-- $\mathdefault{10^{2}}$ -->
      <g transform="translate(227.011818 494.59625)scale(0.24 -0.24)">
       <defs>
        <path id="DejaVuSans-32" d="M 1228 531 
L 3431 531 
L 3431 0 
L 469 0 
L 469 531 
Q 828 903 1448 1529 
Q 2069 2156 2228 2338 
Q 2531 2678 2651 2914 
Q 2772 3150 2772 3378 
Q 2772 3750 2511 3984 
Q 2250 4219 1831 4219 
Q 1534 4219 1204 4116 
Q 875 4013 500 3803 
L 500 4441 
Q 881 4594 1212 4672 
Q 1544 4750 1819 4750 
Q 2544 4750 2975 4387 
Q 3406 4025 3406 3419 
Q 3406 3131 3298 2873 
Q 3191 2616 2906 2266 
Q 2828 2175 2409 1742 
Q 1991 1309 1228 531 
z
" transform="scale(0.015625)"/>
       </defs>
       <use xlink:href="#DejaVuSans-31" transform="translate(0 0.765625)"/>
       <use xlink:href="#DejaVuSans-30" transform="translate(63.623047 0.765625)"/>
       <use xlink:href="#DejaVuSans-32" transform="translate(128.203125 39.046875)scale(0.7)"/>
      </g>
     </g>
    </g>
    <g id="xtick_3">
     <g id="line2d_3">
      <g>
       <use xlink:href="#m7d5ee8f360" x="369.877273" y="469.36" style="stroke: #000000; stroke-width: 0.8"/>
      </g>
     </g>
     <g id="text_3">
      <!-- $\mathdefault{10^{3}}$ -->
      <g transform="translate(348.757273 494.59625)scale(0.24 -0.24)">
       <defs>
        <path id="DejaVuSans-33" d="M 2597 2516 
Q 3050 2419 3304 2112 
Q 3559 1806 3559 1356 
Q 3559 666 3084 287 
Q 2609 -91 1734 -91 
Q 1441 -91 1130 -33 
Q 819 25 488 141 
L 488 750 
Q 750 597 1062 519 
Q 1375 441 1716 441 
Q 2309 441 2620 675 
Q 2931 909 2931 1356 
Q 2931 1769 2642 2001 
Q 2353 2234 1838 2234 
L 1294 2234 
L 1294 2753 
L 1863 2753 
Q 2328 2753 2575 2939 
Q 2822 3125 2822 3475 
Q 2822 3834 2567 4026 
Q 2313 4219 1838 4219 
Q 1578 4219 1281 4162 
Q 984 4106 628 3988 
L 628 4550 
Q 988 4650 1302 4700 
Q 1616 4750 1894 4750 
Q 2613 4750 3031 4423 
Q 3450 4097 3450 3541 
Q 3450 3153 3228 2886 
Q 3006 2619 2597 2516 
z
" transform="scale(0.015625)"/>
       </defs>
       <use xlink:href="#DejaVuSans-31" transform="translate(0 0.765625)"/>
       <use xlink:href="#DejaVuSans-30" transform="translate(63.623047 0.765625)"/>
       <use xlink:href="#DejaVuSans-33" transform="translate(128.203125 39.046875)scale(0.7)"/>
      </g>
     </g>
    </g>
    <g id="xtick_4">
     <g id="line2d_4">
      <g>
       <use xlink:href="#m7d5ee8f360" x="491.622727" y="469.36" style="stroke: #000000; stroke-width: 0.8"/>
      </g>
     </g>
     <g id="text_4">
      <!-- $\mathdefault{10^{4}}$ -->
      <g transform="translate(470.502727 494.59625)scale(0.24 -0.24)">
       <defs>
        <path id="DejaVuSans-34" d="M 2419 4116 
L 825 1625 
L 2419 1625 
L 2419 4116 
z
M 2253 4666 
L 3047 4666 
L 3047 1625 
L 3713 1625 
L 3713 1100 
L 3047 1100 
L 3047 0 
L 2419 0 
L 2419 1100 
L 313 1100 
L 313 1709 
L 2253 4666 
z
" transform="scale(0.015625)"/>
       </defs>
       <use xlink:href="#DejaVuSans-31" transform="translate(0 0.684375)"/>
       <use xlink:href="#DejaVuSans-30" transform="translate(63.623047 0.684375)"/>
       <use xlink:href="#DejaVuSans-34" transform="translate(128.203125 38.965625)scale(0.7)"/>
      </g>
     </g>
    </g>
    <g id="xtick_5">
     <g id="line2d_5">
      <g>
       <use xlink:href="#m7d5ee8f360" x="613.368182" y="469.36" style="stroke: #000000; stroke-width: 0.8"/>
      </g>
     </g>
     <g id="text_5">
      <!-- $\mathdefault{10^{5}}$ -->
      <g transform="translate(592.248182 494.59625)scale(0.24 -0.24)">
       <defs>
        <path id="DejaVuSans-35" d="M 691 4666 
L 3169 4666 
L 3169 4134 
L 1269 4134 
L 1269 2991 
Q 1406 3038 1543 3061 
Q 1681 3084 1819 3084 
Q 2600 3084 3056 2656 
Q 3513 2228 3513 1497 
Q 3513 744 3044 326 
Q 2575 -91 1722 -91 
Q 1428 -91 1123 -41 
Q 819 9 494 109 
L 494 744 
Q 775 591 1075 516 
Q 1375 441 1709 441 
Q 2250 441 2565 725 
Q 2881 1009 2881 1497 
Q 2881 1984 2565 2268 
Q 2250 2553 1709 2553 
Q 1456 2553 1204 2497 
Q 953 2441 691 2322 
L 691 4666 
z
" transform="scale(0.015625)"/>
       </defs>
       <use xlink:href="#DejaVuSans-31" transform="translate(0 0.684375)"/>
       <use xlink:href="#DejaVuSans-30" transform="translate(63.623047 0.684375)"/>
       <use xlink:href="#DejaVuSans-35" transform="translate(128.203125 38.965625)scale(0.7)"/>
      </g>
     </g>
    </g>
    <g id="xtick_6">
     <g id="line2d_6">
      <g>
       <use xlink:href="#m7d5ee8f360" x="735.113636" y="469.36" style="stroke: #000000; stroke-width: 0.8"/>
      </g>
     </g>
     <g id="text_6">
      <!-- $\mathdefault{10^{6}}$ -->
      <g transform="translate(713.993636 494.59625)scale(0.24 -0.24)">
       <defs>
        <path id="DejaVuSans-36" d="M 2113 2584 
Q 1688 2584 1439 2293 
Q 1191 2003 1191 1497 
Q 1191 994 1439 701 
Q 1688 409 2113 409 
Q 2538 409 2786 701 
Q 3034 994 3034 1497 
Q 3034 2003 2786 2293 
Q 2538 2584 2113 2584 
z
M 3366 4563 
L 3366 3988 
Q 3128 4100 2886 4159 
Q 2644 4219 2406 4219 
Q 1781 4219 1451 3797 
Q 1122 3375 1075 2522 
Q 1259 2794 1537 2939 
Q 1816 3084 2150 3084 
Q 2853 3084 3261 2657 
Q 3669 2231 3669 1497 
Q 3669 778 3244 343 
Q 2819 -91 2113 -91 
Q 1303 -91 875 529 
Q 447 1150 447 2328 
Q 447 3434 972 4092 
Q 1497 4750 2381 4750 
Q 2619 4750 2861 4703 
Q 3103 4656 3366 4563 
z
" transform="scale(0.015625)"/>
       </defs>
       <use xlink:href="#DejaVuSans-31" transform="translate(0 0.765625)"/>
       <use xlink:href="#DejaVuSans-30" transform="translate(63.623047 0.765625)"/>
       <use xlink:href="#DejaVuSans-36" transform="translate(128.203125 39.046875)scale(0.7)"/>
      </g>
     </g>
    </g>
    <g id="xtick_7">
     <g id="line2d_7">
      <defs>
       <path id="mf7f700111e" d="M 0 0 
L 0 2 
" style="stroke: #000000; stroke-width: 0.6"/>
      </defs>
      <g>
       <use xlink:href="#mf7f700111e" x="99.377287" y="469.36" style="stroke: #000000; stroke-width: 0.6"/>
      </g>
     </g>
    </g>
    <g id="xtick_8">
     <g id="line2d_8">
      <g>
       <use xlink:href="#mf7f700111e" x="107.527754" y="469.36" style="stroke: #000000; stroke-width: 0.6"/>
      </g>
     </g>
    </g>
    <g id="xtick_9">
     <g id="line2d_9">
      <g>
       <use xlink:href="#mf7f700111e" x="114.58801" y="469.36" style="stroke: #000000; stroke-width: 0.6"/>
      </g>
     </g>
    </g>
    <g id="xtick_10">
     <g id="line2d_10">
      <g>
       <use xlink:href="#mf7f700111e" x="120.815597" y="469.36" style="stroke: #000000; stroke-width: 0.6"/>
      </g>
     </g>
    </g>
    <g id="xtick_11">
     <g id="line2d_11">
      <g>
       <use xlink:href="#mf7f700111e" x="163.035397" y="469.36" style="stroke: #000000; stroke-width: 0.6"/>
      </g>
     </g>
    </g>
    <g id="xtick_12">
     <g id="line2d_12">
      <g>
       <use xlink:href="#mf7f700111e" x="184.473708" y="469.36" style="stroke: #000000; stroke-width: 0.6"/>
      </g>
     </g>
    </g>
    <g id="xtick_13">
     <g id="line2d_13">
      <g>
       <use xlink:href="#mf7f700111e" x="199.684431" y="469.36" style="stroke: #000000; stroke-width: 0.6"/>
      </g>
     </g>
    </g>
    <g id="xtick_14">
     <g id="line2d_14">
      <g>
       <use xlink:href="#mf7f700111e" x="211.482785" y="469.36" style="stroke: #000000; stroke-width: 0.6"/>
      </g>
     </g>
    </g>
    <g id="xtick_15">
     <g id="line2d_15">
      <g>
       <use xlink:href="#mf7f700111e" x="221.122741" y="469.36" style="stroke: #000000; stroke-width: 0.6"/>
      </g>
     </g>
    </g>
    <g id="xtick_16">
     <g id="line2d_16">
      <g>
       <use xlink:href="#mf7f700111e" x="229.273209" y="469.36" style="stroke: #000000; stroke-width: 0.6"/>
      </g>
     </g>
    </g>
    <g id="xtick_17">
     <g id="line2d_17">
      <g>
       <use xlink:href="#mf7f700111e" x="236.333465" y="469.36" style="stroke: #000000; stroke-width: 0.6"/>
      </g>
     </g>
    </g>
    <g id="xtick_18">
     <g id="line2d_18">
      <g>
       <use xlink:href="#mf7f700111e" x="242.561052" y="469.36" style="stroke: #000000; stroke-width: 0.6"/>
      </g>
     </g>
    </g>
    <g id="xtick_19">
     <g id="line2d_19">
      <g>
       <use xlink:href="#mf7f700111e" x="284.780852" y="469.36" style="stroke: #000000; stroke-width: 0.6"/>
      </g>
     </g>
    </g>
    <g id="xtick_20">
     <g id="line2d_20">
      <g>
       <use xlink:href="#mf7f700111e" x="306.219162" y="469.36" style="stroke: #000000; stroke-width: 0.6"/>
      </g>
     </g>
    </g>
    <g id="xtick_21">
     <g id="line2d_21">
      <g>
       <use xlink:href="#mf7f700111e" x="321.429885" y="469.36" style="stroke: #000000; stroke-width: 0.6"/>
      </g>
     </g>
    </g>
    <g id="xtick_22">
     <g id="line2d_22">
      <g>
       <use xlink:href="#mf7f700111e" x="333.228239" y="469.36" style="stroke: #000000; stroke-width: 0.6"/>
      </g>
     </g>
    </g>
    <g id="xtick_23">
     <g id="line2d_23">
      <g>
       <use xlink:href="#mf7f700111e" x="342.868196" y="469.36" style="stroke: #000000; stroke-width: 0.6"/>
      </g>
     </g>
    </g>
    <g id="xtick_24">
     <g id="line2d_24">
      <g>
       <use xlink:href="#mf7f700111e" x="351.018663" y="469.36" style="stroke: #000000; stroke-width: 0.6"/>
      </g>
     </g>
    </g>
    <g id="xtick_25">
     <g id="line2d_25">
      <g>
       <use xlink:href="#mf7f700111e" x="358.078919" y="469.36" style="stroke: #000000; stroke-width: 0.6"/>
      </g>
     </g>
    </g>
    <g id="xtick_26">
     <g id="line2d_26">
      <g>
       <use xlink:href="#mf7f700111e" x="364.306506" y="469.36" style="stroke: #000000; stroke-width: 0.6"/>
      </g>
     </g>
    </g>
    <g id="xtick_27">
     <g id="line2d_27">
      <g>
       <use xlink:href="#mf7f700111e" x="406.526306" y="469.36" style="stroke: #000000; stroke-width: 0.6"/>
      </g>
     </g>
    </g>
    <g id="xtick_28">
     <g id="line2d_28">
      <g>
       <use xlink:href="#mf7f700111e" x="427.964617" y="469.36" style="stroke: #000000; stroke-width: 0.6"/>
      </g>
     </g>
    </g>
    <g id="xtick_29">
     <g id="line2d_29">
      <g>
       <use xlink:href="#mf7f700111e" x="443.17534" y="469.36" style="stroke: #000000; stroke-width: 0.6"/>
      </g>
     </g>
    </g>
    <g id="xtick_30">
     <g id="line2d_30">
      <g>
       <use xlink:href="#mf7f700111e" x="454.973694" y="469.36" style="stroke: #000000; stroke-width: 0.6"/>
      </g>
     </g>
    </g>
    <g id="xtick_31">
     <g id="line2d_31">
      <g>
       <use xlink:href="#mf7f700111e" x="464.61365" y="469.36" style="stroke: #000000; stroke-width: 0.6"/>
      </g>
     </g>
    </g>
    <g id="xtick_32">
     <g id="line2d_32">
      <g>
       <use xlink:href="#mf7f700111e" x="472.764118" y="469.36" style="stroke: #000000; stroke-width: 0.6"/>
      </g>
     </g>
    </g>
    <g id="xtick_33">
     <g id="line2d_33">
      <g>
       <use xlink:href="#mf7f700111e" x="479.824374" y="469.36" style="stroke: #000000; stroke-width: 0.6"/>
      </g>
     </g>
    </g>
    <g id="xtick_34">
     <g id="line2d_34">
      <g>
       <use xlink:href="#mf7f700111e" x="486.051961" y="469.36" style="stroke: #000000; stroke-width: 0.6"/>
      </g>
     </g>
    </g>
    <g id="xtick_35">
     <g id="line2d_35">
      <g>
       <use xlink:href="#mf7f700111e" x="528.271761" y="469.36" style="stroke: #000000; stroke-width: 0.6"/>
      </g>
     </g>
    </g>
    <g id="xtick_36">
     <g id="line2d_36">
      <g>
       <use xlink:href="#mf7f700111e" x="549.710071" y="469.36" style="stroke: #000000; stroke-width: 0.6"/>
      </g>
     </g>
    </g>
    <g id="xtick_37">
     <g id="line2d_37">
      <g>
       <use xlink:href="#mf7f700111e" x="564.920795" y="469.36" style="stroke: #000000; stroke-width: 0.6"/>
      </g>
     </g>
    </g>
    <g id="xtick_38">
     <g id="line2d_38">
      <g>
       <use xlink:href="#mf7f700111e" x="576.719148" y="469.36" style="stroke: #000000; stroke-width: 0.6"/>
      </g>
     </g>
    </g>
    <g id="xtick_39">
     <g id="line2d_39">
      <g>
       <use xlink:href="#mf7f700111e" x="586.359105" y="469.36" style="stroke: #000000; stroke-width: 0.6"/>
      </g>
     </g>
    </g>
    <g id="xtick_40">
     <g id="line2d_40">
      <g>
       <use xlink:href="#mf7f700111e" x="594.509572" y="469.36" style="stroke: #000000; stroke-width: 0.6"/>
      </g>
     </g>
    </g>
    <g id="xtick_41">
     <g id="line2d_41">
      <g>
       <use xlink:href="#mf7f700111e" x="601.569828" y="469.36" style="stroke: #000000; stroke-width: 0.6"/>
      </g>
     </g>
    </g>
    <g id="xtick_42">
     <g id="line2d_42">
      <g>
       <use xlink:href="#mf7f700111e" x="607.797415" y="469.36" style="stroke: #000000; stroke-width: 0.6"/>
      </g>
     </g>
    </g>
    <g id="xtick_43">
     <g id="line2d_43">
      <g>
       <use xlink:href="#mf7f700111e" x="650.017215" y="469.36" style="stroke: #000000; stroke-width: 0.6"/>
      </g>
     </g>
    </g>
    <g id="xtick_44">
     <g id="line2d_44">
      <g>
       <use xlink:href="#mf7f700111e" x="671.455526" y="469.36" style="stroke: #000000; stroke-width: 0.6"/>
      </g>
     </g>
    </g>
    <g id="xtick_45">
     <g id="line2d_45">
      <g>
       <use xlink:href="#mf7f700111e" x="686.666249" y="469.36" style="stroke: #000000; stroke-width: 0.6"/>
      </g>
     </g>
    </g>
    <g id="xtick_46">
     <g id="line2d_46">
      <g>
       <use xlink:href="#mf7f700111e" x="698.464603" y="469.36" style="stroke: #000000; stroke-width: 0.6"/>
      </g>
     </g>
    </g>
    <g id="xtick_47">
     <g id="line2d_47">
      <g>
       <use xlink:href="#mf7f700111e" x="708.10456" y="469.36" style="stroke: #000000; stroke-width: 0.6"/>
      </g>
     </g>
    </g>
    <g id="xtick_48">
     <g id="line2d_48">
      <g>
       <use xlink:href="#mf7f700111e" x="716.255027" y="469.36" style="stroke: #000000; stroke-width: 0.6"/>
      </g>
     </g>
    </g>
    <g id="xtick_49">
     <g id="line2d_49">
      <g>
       <use xlink:href="#mf7f700111e" x="723.315283" y="469.36" style="stroke: #000000; stroke-width: 0.6"/>
      </g>
     </g>
    </g>
    <g id="xtick_50">
     <g id="line2d_50">
      <g>
       <use xlink:href="#mf7f700111e" x="729.54287" y="469.36" style="stroke: #000000; stroke-width: 0.6"/>
      </g>
     </g>
    </g>
    <g id="text_7">
     <!-- Number of shots -->
     <g transform="translate(314.6025 524.863125)scale(0.28 -0.28)">
      <defs>
       <path id="DejaVuSans-4e" d="M 628 4666 
L 1478 4666 
L 3547 763 
L 3547 4666 
L 4159 4666 
L 4159 0 
L 3309 0 
L 1241 3903 
L 1241 0 
L 628 0 
L 628 4666 
z
" transform="scale(0.015625)"/>
       <path id="DejaVuSans-75" d="M 544 1381 
L 544 3500 
L 1119 3500 
L 1119 1403 
Q 1119 906 1312 657 
Q 1506 409 1894 409 
Q 2359 409 2629 706 
Q 2900 1003 2900 1516 
L 2900 3500 
L 3475 3500 
L 3475 0 
L 2900 0 
L 2900 538 
Q 2691 219 2414 64 
Q 2138 -91 1772 -91 
Q 1169 -91 856 284 
Q 544 659 544 1381 
z
M 1991 3584 
L 1991 3584 
z
" transform="scale(0.015625)"/>
       <path id="DejaVuSans-6d" d="M 3328 2828 
Q 3544 3216 3844 3400 
Q 4144 3584 4550 3584 
Q 5097 3584 5394 3201 
Q 5691 2819 5691 2113 
L 5691 0 
L 5113 0 
L 5113 2094 
Q 5113 2597 4934 2840 
Q 4756 3084 4391 3084 
Q 3944 3084 3684 2787 
Q 3425 2491 3425 1978 
L 3425 0 
L 2847 0 
L 2847 2094 
Q 2847 2600 2669 2842 
Q 2491 3084 2119 3084 
Q 1678 3084 1418 2786 
Q 1159 2488 1159 1978 
L 1159 0 
L 581 0 
L 581 3500 
L 1159 3500 
L 1159 2956 
Q 1356 3278 1631 3431 
Q 1906 3584 2284 3584 
Q 2666 3584 2933 3390 
Q 3200 3197 3328 2828 
z
" transform="scale(0.015625)"/>
       <path id="DejaVuSans-62" d="M 3116 1747 
Q 3116 2381 2855 2742 
Q 2594 3103 2138 3103 
Q 1681 3103 1420 2742 
Q 1159 2381 1159 1747 
Q 1159 1113 1420 752 
Q 1681 391 2138 391 
Q 2594 391 2855 752 
Q 3116 1113 3116 1747 
z
M 1159 2969 
Q 1341 3281 1617 3432 
Q 1894 3584 2278 3584 
Q 2916 3584 3314 3078 
Q 3713 2572 3713 1747 
Q 3713 922 3314 415 
Q 2916 -91 2278 -91 
Q 1894 -91 1617 61 
Q 1341 213 1159 525 
L 1159 0 
L 581 0 
L 581 4863 
L 1159 4863 
L 1159 2969 
z
" transform="scale(0.015625)"/>
       <path id="DejaVuSans-65" d="M 3597 1894 
L 3597 1613 
L 953 1613 
Q 991 1019 1311 708 
Q 1631 397 2203 397 
Q 2534 397 2845 478 
Q 3156 559 3463 722 
L 3463 178 
Q 3153 47 2828 -22 
Q 2503 -91 2169 -91 
Q 1331 -91 842 396 
Q 353 884 353 1716 
Q 353 2575 817 3079 
Q 1281 3584 2069 3584 
Q 2775 3584 3186 3129 
Q 3597 2675 3597 1894 
z
M 3022 2063 
Q 3016 2534 2758 2815 
Q 2500 3097 2075 3097 
Q 1594 3097 1305 2825 
Q 1016 2553 972 2059 
L 3022 2063 
z
" transform="scale(0.015625)"/>
       <path id="DejaVuSans-72" d="M 2631 2963 
Q 2534 3019 2420 3045 
Q 2306 3072 2169 3072 
Q 1681 3072 1420 2755 
Q 1159 2438 1159 1844 
L 1159 0 
L 581 0 
L 581 3500 
L 1159 3500 
L 1159 2956 
Q 1341 3275 1631 3429 
Q 1922 3584 2338 3584 
Q 2397 3584 2469 3576 
Q 2541 3569 2628 3553 
L 2631 2963 
z
" transform="scale(0.015625)"/>
       <path id="DejaVuSans-20" transform="scale(0.015625)"/>
       <path id="DejaVuSans-6f" d="M 1959 3097 
Q 1497 3097 1228 2736 
Q 959 2375 959 1747 
Q 959 1119 1226 758 
Q 1494 397 1959 397 
Q 2419 397 2687 759 
Q 2956 1122 2956 1747 
Q 2956 2369 2687 2733 
Q 2419 3097 1959 3097 
z
M 1959 3584 
Q 2709 3584 3137 3096 
Q 3566 2609 3566 1747 
Q 3566 888 3137 398 
Q 2709 -91 1959 -91 
Q 1206 -91 779 398 
Q 353 888 353 1747 
Q 353 2609 779 3096 
Q 1206 3584 1959 3584 
z
" transform="scale(0.015625)"/>
       <path id="DejaVuSans-66" d="M 2375 4863 
L 2375 4384 
L 1825 4384 
Q 1516 4384 1395 4259 
Q 1275 4134 1275 3809 
L 1275 3500 
L 2222 3500 
L 2222 3053 
L 1275 3053 
L 1275 0 
L 697 0 
L 697 3053 
L 147 3053 
L 147 3500 
L 697 3500 
L 697 3744 
Q 697 4328 969 4595 
Q 1241 4863 1831 4863 
L 2375 4863 
z
" transform="scale(0.015625)"/>
       <path id="DejaVuSans-73" d="M 2834 3397 
L 2834 2853 
Q 2591 2978 2328 3040 
Q 2066 3103 1784 3103 
Q 1356 3103 1142 2972 
Q 928 2841 928 2578 
Q 928 2378 1081 2264 
Q 1234 2150 1697 2047 
L 1894 2003 
Q 2506 1872 2764 1633 
Q 3022 1394 3022 966 
Q 3022 478 2636 193 
Q 2250 -91 1575 -91 
Q 1294 -91 989 -36 
Q 684 19 347 128 
L 347 722 
Q 666 556 975 473 
Q 1284 391 1588 391 
Q 1994 391 2212 530 
Q 2431 669 2431 922 
Q 2431 1156 2273 1281 
Q 2116 1406 1581 1522 
L 1381 1569 
Q 847 1681 609 1914 
Q 372 2147 372 2553 
Q 372 3047 722 3315 
Q 1072 3584 1716 3584 
Q 2034 3584 2315 3537 
Q 2597 3491 2834 3397 
z
" transform="scale(0.015625)"/>
       <path id="DejaVuSans-68" d="M 3513 2113 
L 3513 0 
L 2938 0 
L 2938 2094 
Q 2938 2591 2744 2837 
Q 2550 3084 2163 3084 
Q 1697 3084 1428 2787 
Q 1159 2491 1159 1978 
L 1159 0 
L 581 0 
L 581 4863 
L 1159 4863 
L 1159 2956 
Q 1366 3272 1645 3428 
Q 1925 3584 2291 3584 
Q 2894 3584 3203 3211 
Q 3513 2838 3513 2113 
z
" transform="scale(0.015625)"/>
       <path id="DejaVuSans-74" d="M 1172 4494 
L 1172 3500 
L 2356 3500 
L 2356 3053 
L 1172 3053 
L 1172 1153 
Q 1172 725 1289 603 
Q 1406 481 1766 481 
L 2356 481 
L 2356 0 
L 1766 0 
Q 1100 0 847 248 
Q 594 497 594 1153 
L 594 3053 
L 172 3053 
L 172 3500 
L 594 3500 
L 594 4494 
L 1172 4494 
z
" transform="scale(0.015625)"/>
      </defs>
      <use xlink:href="#DejaVuSans-4e"/>
      <use xlink:href="#DejaVuSans-75" x="74.804688"/>
      <use xlink:href="#DejaVuSans-6d" x="138.183594"/>
      <use xlink:href="#DejaVuSans-62" x="235.595703"/>
      <use xlink:href="#DejaVuSans-65" x="299.072266"/>
      <use xlink:href="#DejaVuSans-72" x="360.595703"/>
      <use xlink:href="#DejaVuSans-20" x="401.708984"/>
      <use xlink:href="#DejaVuSans-6f" x="433.496094"/>
      <use xlink:href="#DejaVuSans-66" x="494.677734"/>
      <use xlink:href="#DejaVuSans-20" x="529.882812"/>
      <use xlink:href="#DejaVuSans-73" x="561.669922"/>
      <use xlink:href="#DejaVuSans-68" x="613.769531"/>
      <use xlink:href="#DejaVuSans-6f" x="677.148438"/>
      <use xlink:href="#DejaVuSans-74" x="738.330078"/>
      <use xlink:href="#DejaVuSans-73" x="777.539062"/>
     </g>
    </g>
   </g>
   <g id="matplotlib.axis_2">
    <g id="ytick_1">
     <g id="line2d_51">
      <defs>
       <path id="m538a81b99c" d="M 0 0 
L -3.5 0 
" style="stroke: #000000; stroke-width: 0.8"/>
      </defs>
      <g>
       <use xlink:href="#m538a81b99c" x="95.95" y="428.574122" style="stroke: #000000; stroke-width: 0.8"/>
      </g>
     </g>
     <g id="text_8">
      <!-- −20 -->
      <g transform="translate(38.29875 437.692247)scale(0.24 -0.24)">
       <defs>
        <path id="DejaVuSans-2212" d="M 678 2272 
L 4684 2272 
L 4684 1741 
L 678 1741 
L 678 2272 
z
" transform="scale(0.015625)"/>
       </defs>
       <use xlink:href="#DejaVuSans-2212"/>
       <use xlink:href="#DejaVuSans-32" x="83.789062"/>
       <use xlink:href="#DejaVuSans-30" x="147.412109"/>
      </g>
     </g>
    </g>
    <g id="ytick_2">
     <g id="line2d_52">
      <g>
       <use xlink:href="#m538a81b99c" x="95.95" y="367.299815" style="stroke: #000000; stroke-width: 0.8"/>
      </g>
     </g>
     <g id="text_9">
      <!-- 0 -->
      <g transform="translate(73.68 376.41794)scale(0.24 -0.24)">
       <use xlink:href="#DejaVuSans-30"/>
      </g>
     </g>
    </g>
    <g id="ytick_3">
     <g id="line2d_53">
      <g>
       <use xlink:href="#m538a81b99c" x="95.95" y="306.025508" style="stroke: #000000; stroke-width: 0.8"/>
      </g>
     </g>
     <g id="text_10">
      <!-- 20 -->
      <g transform="translate(58.41 315.143633)scale(0.24 -0.24)">
       <use xlink:href="#DejaVuSans-32"/>
       <use xlink:href="#DejaVuSans-30" x="63.623047"/>
      </g>
     </g>
    </g>
    <g id="ytick_4">
     <g id="line2d_54">
      <g>
       <use xlink:href="#m538a81b99c" x="95.95" y="244.751201" style="stroke: #000000; stroke-width: 0.8"/>
      </g>
     </g>
     <g id="text_11">
      <!-- 40 -->
      <g transform="translate(58.41 253.869326)scale(0.24 -0.24)">
       <use xlink:href="#DejaVuSans-34"/>
       <use xlink:href="#DejaVuSans-30" x="63.623047"/>
      </g>
     </g>
    </g>
    <g id="ytick_5">
     <g id="line2d_55">
      <g>
       <use xlink:href="#m538a81b99c" x="95.95" y="183.476894" style="stroke: #000000; stroke-width: 0.8"/>
      </g>
     </g>
     <g id="text_12">
      <!-- 60 -->
      <g transform="translate(58.41 192.595019)scale(0.24 -0.24)">
       <use xlink:href="#DejaVuSans-36"/>
       <use xlink:href="#DejaVuSans-30" x="63.623047"/>
      </g>
     </g>
    </g>
    <g id="ytick_6">
     <g id="line2d_56">
      <g>
       <use xlink:href="#m538a81b99c" x="95.95" y="122.202586" style="stroke: #000000; stroke-width: 0.8"/>
      </g>
     </g>
     <g id="text_13">
      <!-- 80 -->
      <g transform="translate(58.41 131.320711)scale(0.24 -0.24)">
       <defs>
        <path id="DejaVuSans-38" d="M 2034 2216 
Q 1584 2216 1326 1975 
Q 1069 1734 1069 1313 
Q 1069 891 1326 650 
Q 1584 409 2034 409 
Q 2484 409 2743 651 
Q 3003 894 3003 1313 
Q 3003 1734 2745 1975 
Q 2488 2216 2034 2216 
z
M 1403 2484 
Q 997 2584 770 2862 
Q 544 3141 544 3541 
Q 544 4100 942 4425 
Q 1341 4750 2034 4750 
Q 2731 4750 3128 4425 
Q 3525 4100 3525 3541 
Q 3525 3141 3298 2862 
Q 3072 2584 2669 2484 
Q 3125 2378 3379 2068 
Q 3634 1759 3634 1313 
Q 3634 634 3220 271 
Q 2806 -91 2034 -91 
Q 1263 -91 848 271 
Q 434 634 434 1313 
Q 434 1759 690 2068 
Q 947 2378 1403 2484 
z
M 1172 3481 
Q 1172 3119 1398 2916 
Q 1625 2713 2034 2713 
Q 2441 2713 2670 2916 
Q 2900 3119 2900 3481 
Q 2900 3844 2670 4047 
Q 2441 4250 2034 4250 
Q 1625 4250 1398 4047 
Q 1172 3844 1172 3481 
z
" transform="scale(0.015625)"/>
       </defs>
       <use xlink:href="#DejaVuSans-38"/>
       <use xlink:href="#DejaVuSans-30" x="63.623047"/>
      </g>
     </g>
    </g>
    <g id="ytick_7">
     <g id="line2d_57">
      <g>
       <use xlink:href="#m538a81b99c" x="95.95" y="60.928279" style="stroke: #000000; stroke-width: 0.8"/>
      </g>
     </g>
     <g id="text_14">
      <!-- 100 -->
      <g transform="translate(43.14 70.046404)scale(0.24 -0.24)">
       <use xlink:href="#DejaVuSans-31"/>
       <use xlink:href="#DejaVuSans-30" x="63.623047"/>
       <use xlink:href="#DejaVuSans-30" x="127.246094"/>
      </g>
     </g>
    </g>
    <g id="text_15">
     <!-- QAOA cost -->
     <g transform="translate(28.475625 326.12)rotate(-90)scale(0.28 -0.28)">
      <defs>
       <path id="DejaVuSans-51" d="M 2522 4238 
Q 1834 4238 1429 3725 
Q 1025 3213 1025 2328 
Q 1025 1447 1429 934 
Q 1834 422 2522 422 
Q 3209 422 3611 934 
Q 4013 1447 4013 2328 
Q 4013 3213 3611 3725 
Q 3209 4238 2522 4238 
z
M 3406 84 
L 4238 -825 
L 3475 -825 
L 2784 -78 
Q 2681 -84 2626 -87 
Q 2572 -91 2522 -91 
Q 1538 -91 948 567 
Q 359 1225 359 2328 
Q 359 3434 948 4092 
Q 1538 4750 2522 4750 
Q 3503 4750 4090 4092 
Q 4678 3434 4678 2328 
Q 4678 1516 4351 937 
Q 4025 359 3406 84 
z
" transform="scale(0.015625)"/>
       <path id="DejaVuSans-41" d="M 2188 4044 
L 1331 1722 
L 3047 1722 
L 2188 4044 
z
M 1831 4666 
L 2547 4666 
L 4325 0 
L 3669 0 
L 3244 1197 
L 1141 1197 
L 716 0 
L 50 0 
L 1831 4666 
z
" transform="scale(0.015625)"/>
       <path id="DejaVuSans-4f" d="M 2522 4238 
Q 1834 4238 1429 3725 
Q 1025 3213 1025 2328 
Q 1025 1447 1429 934 
Q 1834 422 2522 422 
Q 3209 422 3611 934 
Q 4013 1447 4013 2328 
Q 4013 3213 3611 3725 
Q 3209 4238 2522 4238 
z
M 2522 4750 
Q 3503 4750 4090 4092 
Q 4678 3434 4678 2328 
Q 4678 1225 4090 567 
Q 3503 -91 2522 -91 
Q 1538 -91 948 565 
Q 359 1222 359 2328 
Q 359 3434 948 4092 
Q 1538 4750 2522 4750 
z
" transform="scale(0.015625)"/>
       <path id="DejaVuSans-63" d="M 3122 3366 
L 3122 2828 
Q 2878 2963 2633 3030 
Q 2388 3097 2138 3097 
Q 1578 3097 1268 2742 
Q 959 2388 959 1747 
Q 959 1106 1268 751 
Q 1578 397 2138 397 
Q 2388 397 2633 464 
Q 2878 531 3122 666 
L 3122 134 
Q 2881 22 2623 -34 
Q 2366 -91 2075 -91 
Q 1284 -91 818 406 
Q 353 903 353 1747 
Q 353 2603 823 3093 
Q 1294 3584 2113 3584 
Q 2378 3584 2631 3529 
Q 2884 3475 3122 3366 
z
" transform="scale(0.015625)"/>
      </defs>
      <use xlink:href="#DejaVuSans-51"/>
      <use xlink:href="#DejaVuSans-41" x="78.710938"/>
      <use xlink:href="#DejaVuSans-4f" x="145.369141"/>
      <use xlink:href="#DejaVuSans-41" x="222.330078"/>
      <use xlink:href="#DejaVuSans-20" x="290.738281"/>
      <use xlink:href="#DejaVuSans-63" x="322.525391"/>
      <use xlink:href="#DejaVuSans-6f" x="377.505859"/>
      <use xlink:href="#DejaVuSans-73" x="438.6875"/>
      <use xlink:href="#DejaVuSans-74" x="490.787109"/>
     </g>
    </g>
   </g>
   <g id="line2d_58">
    <path d="M 95.95 367.717741 
L 765.55 367.717741 
" clip-path="url(#p63215c0458)" style="fill: none; stroke-dasharray: 11.1,4.8; stroke-dashoffset: 0; stroke: #000000; stroke-opacity: 0.6; stroke-width: 3"/>
   </g>
   <g id="line2d_59">
    <path d="M 126.386364 198.371264 
L 131.425735 213.728405 
L 136.02632 246.636564 
L 144.176788 281.111779 
L 147.824674 254.680781 
L 154.442472 253.734402 
L 163.035397 294.901864 
L 168.074769 290.51411 
L 174.833751 357.646755 
L 180.825821 324.205797 
L 186.207416 351.730363 
L 192.624175 381.089901 
L 199.684431 361.266652 
L 205.912018 378.025437 
L 211.482785 367.299815 
L 218.410692 396.936403 
L 224.535111 378.611995 
L 230.762698 353.892787 
L 236.990285 361.341136 
L 243.145294 351.388177 
L 249.17885 341.274408 
L 255.059725 352.481521 
L 261.595613 357.946075 
L 267.777639 340.670684 
L 273.639319 331.547741 
L 280.084045 343.562782 
L 286.086434 346.110171 
L 292.399924 359.986891 
L 298.449186 360.777477 
L 304.608681 350.713801 
L 310.775668 347.373774 
L 316.877345 339.024503 
L 323.120937 344.511114 
L 329.277353 351.696808 
L 335.403553 354.793451 
L 341.529558 354.511573 
L 347.666686 350.403287 
L 353.88533 348.032882 
L 360.025398 353.925093 
L 366.153799 356.68352 
L 372.305691 362.920442 
L 378.449044 364.8373 
L 384.596641 367.11713 
L 390.748571 376.243856 
L 396.928631 375.112543 
L 403.057508 374.643974 
L 409.206623 375.902233 
L 415.367154 376.487372 
L 421.525112 371.93372 
L 427.664149 368.594225 
L 433.814872 368.236026 
L 439.959997 367.748616 
L 446.118864 369.582402 
L 452.261644 371.211845 
L 458.412493 371.415391 
L 464.560751 369.55445 
L 470.715759 373.571294 
L 476.861276 372.24503 
L 483.011138 370.367164 
L 489.160539 366.895287 
L 495.308669 364.778964 
L 501.460588 363.6133 
L 507.607637 364.874064 
L 513.757879 365.39448 
L 519.905394 365.038218 
L 526.055502 365.789873 
L 532.203694 366.818148 
L 538.352688 365.913741 
L 544.50035 365.826201 
L 550.649865 367.173375 
L 556.798519 367.138011 
L 562.947955 367.061839 
L 569.096359 367.617592 
L 575.245851 367.498331 
L 581.393881 367.980205 
L 587.543326 368.180813 
L 593.692056 367.471376 
L 599.840658 367.408905 
L 605.989122 366.783721 
L 612.137891 366.445168 
L 618.286768 366.061837 
L 624.435661 366.646015 
L 630.584467 366.670743 
L 636.733262 366.865459 
L 642.881977 366.595523 
L 649.030974 366.853561 
L 655.179734 366.361926 
L 661.328377 366.405461 
L 667.477094 366.252134 
L 673.625934 366.158696 
L 679.774767 366.440681 
L 685.923472 366.216226 
L 692.072297 366.46809 
L 698.221037 366.661711 
L 704.369833 366.711046 
L 710.518583 366.582786 
L 716.667338 366.655347 
L 722.816056 366.585716 
L 728.964871 366.79261 
L 735.113636 366.967991 
" clip-path="url(#p63215c0458)" style="fill: none; stroke: #ff8c00; stroke-opacity: 0.8; stroke-width: 3; stroke-linecap: square"/>
   </g>
   <g id="line2d_60">
    <path d="M 126.386364 364.2361 
L 131.425735 363.122021 
L 136.02632 363.470171 
L 144.176788 365.111447 
L 147.824674 362.193623 
L 154.442472 362.794351 
L 163.035397 363.470171 
L 168.074769 363.122021 
L 174.833751 363.623357 
L 180.825821 366.752723 
L 186.207416 368.28811 
L 192.624175 368.612836 
L 199.684431 369.214637 
L 205.912018 370.703943 
L 211.482785 370.976273 
L 218.410692 370.793525 
L 224.535111 369.932695 
L 230.762698 370.065669 
L 236.990285 369.380116 
L 243.145294 369.824855 
L 249.17885 368.200908 
L 255.059725 367.971682 
L 261.595613 366.706072 
L 267.777639 366.349007 
L 273.639319 366.827019 
L 280.084045 366.379026 
L 286.086434 366.627292 
L 292.399924 366.769301 
L 298.449186 367.832121 
L 304.608681 368.247356 
L 310.775668 368.002502 
L 316.877345 368.092875 
L 323.120937 368.486726 
L 329.277353 368.29024 
L 335.403553 368.828732 
L 341.529558 368.294868 
L 347.666686 367.649554 
L 353.88533 367.818035 
L 360.025398 367.687393 
L 366.153799 367.776466 
L 372.305691 367.519279 
L 378.449044 367.872959 
L 384.596641 368.16953 
L 390.748571 367.939809 
L 396.928631 368.034519 
L 403.057508 368.134035 
L 409.206623 368.311831 
L 415.367154 368.472684 
L 421.525112 368.487927 
L 427.664149 368.563097 
L 433.814872 368.538649 
L 439.959997 368.471906 
L 446.118864 368.317673 
L 452.261644 367.996407 
L 458.412493 367.917036 
L 464.560751 367.974507 
L 470.715759 368.002732 
L 476.861276 367.923575 
L 483.011138 367.921788 
L 489.160539 367.904855 
L 495.308669 367.879869 
L 501.460588 367.859398 
L 507.607637 367.828549 
L 513.757879 367.813827 
L 519.905394 367.752921 
L 526.055502 367.722336 
L 532.203694 367.777632 
L 538.352688 367.676434 
L 544.50035 367.682427 
L 550.649865 367.710143 
L 556.798519 367.744136 
L 562.947955 367.710059 
L 569.096359 367.695811 
L 575.245851 367.62713 
L 581.393881 367.655702 
L 587.543326 367.699263 
L 593.692056 367.746086 
L 599.840658 367.73607 
L 605.989122 367.748766 
L 612.137891 367.717979 
L 618.286768 367.723016 
L 624.435661 367.697305 
L 630.584467 367.687845 
L 636.733262 367.726384 
L 642.881977 367.70103 
L 649.030974 367.714727 
L 655.179734 367.713705 
L 661.328377 367.703516 
L 667.477094 367.724819 
L 673.625934 367.712857 
L 679.774767 367.702326 
L 685.923472 367.71519 
L 692.072297 367.695069 
L 698.221037 367.679685 
L 704.369833 367.668832 
L 710.518583 367.669249 
L 716.667338 367.686123 
L 722.816056 367.687437 
L 728.964871 367.694922 
L 735.113636 367.699599 
" clip-path="url(#p63215c0458)" style="fill: none; stroke: #4682b4; stroke-opacity: 0.8; stroke-width: 3; stroke-linecap: square"/>
   </g>
   <g id="patch_3">
    <path d="M 95.95 469.36 
L 95.95 34.48 
" style="fill: none; stroke: #000000; stroke-width: 0.8; stroke-linejoin: miter; stroke-linecap: square"/>
   </g>
   <g id="patch_4">
    <path d="M 765.55 469.36 
L 765.55 34.48 
" style="fill: none; stroke: #000000; stroke-width: 0.8; stroke-linejoin: miter; stroke-linecap: square"/>
   </g>
   <g id="patch_5">
    <path d="M 95.95 469.36 
L 765.55 469.36 
" style="fill: none; stroke: #000000; stroke-width: 0.8; stroke-linejoin: miter; stroke-linecap: square"/>
   </g>
   <g id="patch_6">
    <path d="M 95.95 34.48 
L 765.55 34.48 
" style="fill: none; stroke: #000000; stroke-width: 0.8; stroke-linejoin: miter; stroke-linecap: square"/>
   </g>
   <g id="text_16">
    <!-- QAOA depth $p=1$ -->
    <g transform="translate(304.89 28.48)scale(0.28 -0.28)">
     <defs>
      <path id="DejaVuSans-64" d="M 2906 2969 
L 2906 4863 
L 3481 4863 
L 3481 0 
L 2906 0 
L 2906 525 
Q 2725 213 2448 61 
Q 2172 -91 1784 -91 
Q 1150 -91 751 415 
Q 353 922 353 1747 
Q 353 2572 751 3078 
Q 1150 3584 1784 3584 
Q 2172 3584 2448 3432 
Q 2725 3281 2906 2969 
z
M 947 1747 
Q 947 1113 1208 752 
Q 1469 391 1925 391 
Q 2381 391 2643 752 
Q 2906 1113 2906 1747 
Q 2906 2381 2643 2742 
Q 2381 3103 1925 3103 
Q 1469 3103 1208 2742 
Q 947 2381 947 1747 
z
" transform="scale(0.015625)"/>
      <path id="DejaVuSans-70" d="M 1159 525 
L 1159 -1331 
L 581 -1331 
L 581 3500 
L 1159 3500 
L 1159 2969 
Q 1341 3281 1617 3432 
Q 1894 3584 2278 3584 
Q 2916 3584 3314 3078 
Q 3713 2572 3713 1747 
Q 3713 922 3314 415 
Q 2916 -91 2278 -91 
Q 1894 -91 1617 61 
Q 1341 213 1159 525 
z
M 3116 1747 
Q 3116 2381 2855 2742 
Q 2594 3103 2138 3103 
Q 1681 3103 1420 2742 
Q 1159 2381 1159 1747 
Q 1159 1113 1420 752 
Q 1681 391 2138 391 
Q 2594 391 2855 752 
Q 3116 1113 3116 1747 
z
" transform="scale(0.015625)"/>
      <path id="DejaVuSans-Oblique-70" d="M 3175 2156 
Q 3175 2616 2975 2859 
Q 2775 3103 2400 3103 
Q 2144 3103 1911 2972 
Q 1678 2841 1497 2591 
Q 1319 2344 1212 1994 
Q 1106 1644 1106 1300 
Q 1106 863 1306 627 
Q 1506 391 1875 391 
Q 2147 391 2380 519 
Q 2613 647 2778 891 
Q 2956 1147 3065 1494 
Q 3175 1841 3175 2156 
z
M 1394 2969 
Q 1625 3272 1939 3428 
Q 2253 3584 2638 3584 
Q 3175 3584 3472 3232 
Q 3769 2881 3769 2247 
Q 3769 1728 3584 1258 
Q 3400 788 3053 416 
Q 2822 169 2531 39 
Q 2241 -91 1919 -91 
Q 1547 -91 1294 64 
Q 1041 219 916 525 
L 556 -1331 
L -19 -1331 
L 922 3500 
L 1497 3500 
L 1394 2969 
z
" transform="scale(0.015625)"/>
      <path id="DejaVuSans-3d" d="M 678 2906 
L 4684 2906 
L 4684 2381 
L 678 2381 
L 678 2906 
z
M 678 1631 
L 4684 1631 
L 4684 1100 
L 678 1100 
L 678 1631 
z
" transform="scale(0.015625)"/>
     </defs>
     <use xlink:href="#DejaVuSans-51" transform="translate(0 0.015625)"/>
     <use xlink:href="#DejaVuSans-41" transform="translate(78.710938 0.015625)"/>
     <use xlink:href="#DejaVuSans-4f" transform="translate(147.119141 0.015625)"/>
     <use xlink:href="#DejaVuSans-41" transform="translate(225.830078 0.015625)"/>
     <use xlink:href="#DejaVuSans-20" transform="translate(294.238281 0.015625)"/>
     <use xlink:href="#DejaVuSans-64" transform="translate(326.025391 0.015625)"/>
     <use xlink:href="#DejaVuSans-65" transform="translate(389.501953 0.015625)"/>
     <use xlink:href="#DejaVuSans-70" transform="translate(451.025391 0.015625)"/>
     <use xlink:href="#DejaVuSans-74" transform="translate(514.501953 0.015625)"/>
     <use xlink:href="#DejaVuSans-68" transform="translate(553.710938 0.015625)"/>
     <use xlink:href="#DejaVuSans-20" transform="translate(617.089844 0.015625)"/>
     <use xlink:href="#DejaVuSans-Oblique-70" transform="translate(648.876953 0.015625)"/>
     <use xlink:href="#DejaVuSans-3d" transform="translate(731.835938 0.015625)"/>
     <use xlink:href="#DejaVuSans-31" transform="translate(835.107422 0.015625)"/>
    </g>
   </g>
   <g id="patch_7">
    <path d="M 562.947955 369.947781 
L 735.113636 369.947781 
L 735.113636 364.681067 
L 562.947955 364.681067 
L 562.947955 369.947781 
z
" clip-path="url(#p63215c0458)" style="fill: none; opacity: 0.5; stroke: #808080; stroke-linejoin: miter"/>
   </g>
   <g id="patch_8">
    <path d="M 444.142 286.7104 
Q 503.544977 328.32909 562.947955 369.947781 
" style="fill: none; opacity: 0.5; stroke: #808080; stroke-linecap: round"/>
   </g>
   <g id="patch_9">
    <path d="M 745.462 286.7104 
Q 740.287818 328.32909 735.113636 369.947781 
" style="fill: none; opacity: 0.5; stroke: #808080; stroke-linecap: round"/>
   </g>
   <g id="legend_1">
    <g id="patch_10">
     <path d="M 268.928125 79.83625 
L 751.55 79.83625 
Q 755.55 79.83625 755.55 75.83625 
L 755.55 48.48 
Q 755.55 44.48 751.55 44.48 
L 268.928125 44.48 
Q 264.928125 44.48 264.928125 48.48 
L 264.928125 75.83625 
Q 264.928125 79.83625 268.928125 79.83625 
z
" style="fill: #ffffff; opacity: 0.8; stroke: #cccccc; stroke-linejoin: miter"/>
    </g>
    <g id="line2d_61">
     <path d="M 272.928125 60.676875 
L 292.928125 60.676875 
L 312.928125 60.676875 
" style="fill: none; stroke-dasharray: 11.1,4.8; stroke-dashoffset: 0; stroke: #000000; stroke-opacity: 0.6; stroke-width: 3"/>
    </g>
    <g id="text_17">
     <!-- Exact -->
     <g transform="translate(328.928125 67.676875)scale(0.2 -0.2)">
      <defs>
       <path id="DejaVuSans-45" d="M 628 4666 
L 3578 4666 
L 3578 4134 
L 1259 4134 
L 1259 2753 
L 3481 2753 
L 3481 2222 
L 1259 2222 
L 1259 531 
L 3634 531 
L 3634 0 
L 628 0 
L 628 4666 
z
" transform="scale(0.015625)"/>
       <path id="DejaVuSans-78" d="M 3513 3500 
L 2247 1797 
L 3578 0 
L 2900 0 
L 1881 1375 
L 863 0 
L 184 0 
L 1544 1831 
L 300 3500 
L 978 3500 
L 1906 2253 
L 2834 3500 
L 3513 3500 
z
" transform="scale(0.015625)"/>
       <path id="DejaVuSans-61" d="M 2194 1759 
Q 1497 1759 1228 1600 
Q 959 1441 959 1056 
Q 959 750 1161 570 
Q 1363 391 1709 391 
Q 2188 391 2477 730 
Q 2766 1069 2766 1631 
L 2766 1759 
L 2194 1759 
z
M 3341 1997 
L 3341 0 
L 2766 0 
L 2766 531 
Q 2569 213 2275 61 
Q 1981 -91 1556 -91 
Q 1019 -91 701 211 
Q 384 513 384 1019 
Q 384 1609 779 1909 
Q 1175 2209 1959 2209 
L 2766 2209 
L 2766 2266 
Q 2766 2663 2505 2880 
Q 2244 3097 1772 3097 
Q 1472 3097 1187 3025 
Q 903 2953 641 2809 
L 641 3341 
Q 956 3463 1253 3523 
Q 1550 3584 1831 3584 
Q 2591 3584 2966 3190 
Q 3341 2797 3341 1997 
z
" transform="scale(0.015625)"/>
      </defs>
      <use xlink:href="#DejaVuSans-45"/>
      <use xlink:href="#DejaVuSans-78" x="63.183594"/>
      <use xlink:href="#DejaVuSans-61" x="122.363281"/>
      <use xlink:href="#DejaVuSans-63" x="183.642578"/>
      <use xlink:href="#DejaVuSans-74" x="238.623047"/>
     </g>
    </g>
    <g id="line2d_62">
     <path d="M 424.496875 60.676875 
L 444.496875 60.676875 
L 464.496875 60.676875 
" style="fill: none; stroke: #ff8c00; stroke-opacity: 0.8; stroke-width: 3; stroke-linecap: square"/>
    </g>
    <g id="text_18">
     <!-- Pauli -->
     <g transform="translate(480.496875 67.676875)scale(0.2 -0.2)">
      <defs>
       <path id="DejaVuSans-50" d="M 1259 4147 
L 1259 2394 
L 2053 2394 
Q 2494 2394 2734 2622 
Q 2975 2850 2975 3272 
Q 2975 3691 2734 3919 
Q 2494 4147 2053 4147 
L 1259 4147 
z
M 628 4666 
L 2053 4666 
Q 2838 4666 3239 4311 
Q 3641 3956 3641 3272 
Q 3641 2581 3239 2228 
Q 2838 1875 2053 1875 
L 1259 1875 
L 1259 0 
L 628 0 
L 628 4666 
z
" transform="scale(0.015625)"/>
       <path id="DejaVuSans-6c" d="M 603 4863 
L 1178 4863 
L 1178 0 
L 603 0 
L 603 4863 
z
" transform="scale(0.015625)"/>
       <path id="DejaVuSans-69" d="M 603 3500 
L 1178 3500 
L 1178 0 
L 603 0 
L 603 3500 
z
M 603 4863 
L 1178 4863 
L 1178 4134 
L 603 4134 
L 603 4863 
z
" transform="scale(0.015625)"/>
      </defs>
      <use xlink:href="#DejaVuSans-50"/>
      <use xlink:href="#DejaVuSans-61" x="55.802734"/>
      <use xlink:href="#DejaVuSans-75" x="117.082031"/>
      <use xlink:href="#DejaVuSans-6c" x="180.460938"/>
      <use xlink:href="#DejaVuSans-69" x="208.244141"/>
     </g>
    </g>
    <g id="line2d_63">
     <path d="M 567.7 60.676875 
L 587.7 60.676875 
L 607.7 60.676875 
" style="fill: none; stroke: #4682b4; stroke-opacity: 0.8; stroke-width: 3; stroke-linecap: square"/>
    </g>
    <g id="text_19">
     <!-- Randomized -->
     <g transform="translate(623.7 67.676875)scale(0.2 -0.2)">
      <defs>
       <path id="DejaVuSans-52" d="M 2841 2188 
Q 3044 2119 3236 1894 
Q 3428 1669 3622 1275 
L 4263 0 
L 3584 0 
L 2988 1197 
Q 2756 1666 2539 1819 
Q 2322 1972 1947 1972 
L 1259 1972 
L 1259 0 
L 628 0 
L 628 4666 
L 2053 4666 
Q 2853 4666 3247 4331 
Q 3641 3997 3641 3322 
Q 3641 2881 3436 2590 
Q 3231 2300 2841 2188 
z
M 1259 4147 
L 1259 2491 
L 2053 2491 
Q 2509 2491 2742 2702 
Q 2975 2913 2975 3322 
Q 2975 3731 2742 3939 
Q 2509 4147 2053 4147 
L 1259 4147 
z
" transform="scale(0.015625)"/>
       <path id="DejaVuSans-6e" d="M 3513 2113 
L 3513 0 
L 2938 0 
L 2938 2094 
Q 2938 2591 2744 2837 
Q 2550 3084 2163 3084 
Q 1697 3084 1428 2787 
Q 1159 2491 1159 1978 
L 1159 0 
L 581 0 
L 581 3500 
L 1159 3500 
L 1159 2956 
Q 1366 3272 1645 3428 
Q 1925 3584 2291 3584 
Q 2894 3584 3203 3211 
Q 3513 2838 3513 2113 
z
" transform="scale(0.015625)"/>
       <path id="DejaVuSans-7a" d="M 353 3500 
L 3084 3500 
L 3084 2975 
L 922 459 
L 3084 459 
L 3084 0 
L 275 0 
L 275 525 
L 2438 3041 
L 353 3041 
L 353 3500 
z
" transform="scale(0.015625)"/>
      </defs>
      <use xlink:href="#DejaVuSans-52"/>
      <use xlink:href="#DejaVuSans-61" x="67.232422"/>
      <use xlink:href="#DejaVuSans-6e" x="128.511719"/>
      <use xlink:href="#DejaVuSans-64" x="191.890625"/>
      <use xlink:href="#DejaVuSans-6f" x="255.367188"/>
      <use xlink:href="#DejaVuSans-6d" x="316.548828"/>
      <use xlink:href="#DejaVuSans-69" x="413.960938"/>
      <use xlink:href="#DejaVuSans-7a" x="441.744141"/>
      <use xlink:href="#DejaVuSans-65" x="494.234375"/>
      <use xlink:href="#DejaVuSans-64" x="555.757812"/>
     </g>
    </g>
   </g>
   <g id="axes_2">
    <g id="patch_11">
     <path d="M 444.142 286.7104 
L 745.462 286.7104 
L 745.462 112.7584 
L 444.142 112.7584 
z
" style="fill: #ffffff"/>
    </g>
    <g id="PolyCollection_3">
     <defs>
      <path id="mef18d798ec" d="M 444.142 -283.222135 
L 444.142 -409.766624 
L 454.902781 -387.872173 
L 465.665465 -388.490261 
L 476.425591 -369.529609 
L 487.188193 -359.989803 
L 497.949544 -380.588374 
L 508.710671 -379.9443 
L 519.471557 -398.035926 
L 530.232976 -406.864573 
L 540.994584 -417.220941 
L 551.756221 -395.812775 
L 562.517705 -392.991868 
L 573.27917 -384.681304 
L 584.040494 -391.784153 
L 594.802313 -381.571629 
L 605.563716 -396.23301 
L 616.324914 -393.293096 
L 627.086243 -396.957357 
L 637.847786 -398.727462 
L 648.609318 -388.140866 
L 659.370625 -394.368783 
L 670.132141 -384.921754 
L 680.893509 -377.480393 
L 691.654977 -374.848977 
L 702.416363 -378.148167 
L 713.177758 -374.850548 
L 723.939087 -376.316296 
L 734.700587 -368.689314 
L 745.462 -362.153714 
L 745.462 -337.034367 
L 745.462 -337.034367 
L 734.700587 -342.083966 
L 723.939087 -348.123784 
L 713.177758 -344.989889 
L 702.416363 -346.485482 
L 691.654977 -341.312133 
L 680.893509 -341.939676 
L 670.132141 -347.288333 
L 659.370625 -354.478754 
L 648.609318 -345.879779 
L 637.847786 -353.920301 
L 627.086243 -349.518175 
L 616.324914 -343.054104 
L 605.563716 -342.99002 
L 594.802313 -325.175399 
L 584.040494 -332.008131 
L 573.27917 -321.279735 
L 562.517705 -325.831541 
L 551.756221 -324.644107 
L 540.994584 -341.825064 
L 530.232976 -326.859673 
L 519.471557 -313.324484 
L 508.710671 -290.118248 
L 497.949544 -285.347555 
L 487.188193 -259.082759 
L 476.425591 -262.794498 
L 465.665465 -275.665056 
L 454.902781 -268.405137 
L 444.142 -283.222135 
z
" style="stroke: #ff8c00; stroke-opacity: 0.4"/>
     </defs>
     <g clip-path="url(#p677554f7ad)">
      <use xlink:href="#mef18d798ec" x="0" y="537.88625" style="fill: #ff8c00; fill-opacity: 0.4; stroke: #ff8c00; stroke-opacity: 0.4"/>
     </g>
    </g>
    <g id="PolyCollection_4">
     <defs>
      <path id="m17c2fef03b" d="M 444.142 -321.003845 
L 444.142 -329.165323 
L 454.902781 -329.411974 
L 465.665465 -331.457858 
L 476.425591 -330.323009 
L 487.188193 -328.697204 
L 497.949544 -326.967344 
L 508.710671 -327.127356 
L 519.471557 -326.547086 
L 530.232976 -327.413033 
L 540.994584 -327.09856 
L 551.756221 -327.809021 
L 562.517705 -327.991147 
L 573.27917 -326.597388 
L 584.040494 -327.31921 
L 594.802313 -326.757085 
L 605.563716 -326.686835 
L 616.324914 -326.924953 
L 627.086243 -326.128329 
L 637.847786 -326.436673 
L 648.609318 -326.702182 
L 659.370625 -326.199234 
L 670.132141 -326.791762 
L 680.893509 -327.231088 
L 691.654977 -327.523814 
L 702.416363 -327.449341 
L 713.177758 -326.834846 
L 723.939087 -326.736785 
L 734.700587 -326.438148 
L 745.462 -326.235198 
L 745.462 -324.624945 
L 745.462 -324.624945 
L 734.700587 -324.730984 
L 723.939087 -324.926763 
L 713.177758 -324.915476 
L 702.416363 -325.415662 
L 691.654977 -325.3687 
L 680.893509 -324.944556 
L 670.132141 -324.367644 
L 659.370625 -323.631033 
L 648.609318 -323.977852 
L 637.847786 -323.547697 
L 627.086243 -323.065886 
L 616.324914 -323.676432 
L 605.563716 -323.241535 
L 594.802313 -323.103765 
L 584.040494 -323.44642 
L 573.27917 -322.493423 
L 562.517705 -323.645414 
L 551.756221 -323.202688 
L 540.994584 -322.214715 
L 530.232976 -322.232981 
L 519.471557 -321.06525 
L 508.710671 -321.323648 
L 497.949544 -320.82199 
L 487.188193 -322.185157 
L 476.425591 -323.436842 
L 465.665465 -324.189419 
L 454.902781 -321.698396 
L 444.142 -321.003845 
z
" style="stroke: #4682b4; stroke-opacity: 0.4"/>
     </defs>
     <g clip-path="url(#p677554f7ad)">
      <use xlink:href="#m17c2fef03b" x="0" y="537.88625" style="fill: #4682b4; fill-opacity: 0.4; stroke: #4682b4; stroke-opacity: 0.4"/>
     </g>
    </g>
    <g id="matplotlib.axis_3">
     <g id="xtick_51">
      <g id="line2d_64">
       <g>
        <use xlink:href="#m7d5ee8f360" x="532.3862" y="286.7104" style="stroke: #000000; stroke-width: 0.8"/>
       </g>
      </g>
      <g id="text_20">
       <!-- $\mathdefault{10^{5}}$ -->
       <g transform="translate(518.3062 305.8679)scale(0.16 -0.16)">
        <use xlink:href="#DejaVuSans-31" transform="translate(0 0.684375)"/>
        <use xlink:href="#DejaVuSans-30" transform="translate(63.623047 0.684375)"/>
        <use xlink:href="#DejaVuSans-35" transform="translate(128.203125 38.965625)scale(0.7)"/>
       </g>
      </g>
     </g>
     <g id="xtick_52">
      <g id="line2d_65">
       <g>
        <use xlink:href="#m7d5ee8f360" x="745.462" y="286.7104" style="stroke: #000000; stroke-width: 0.8"/>
       </g>
      </g>
      <g id="text_21">
       <!-- $\mathdefault{10^{6}}$ -->
       <g transform="translate(731.382 305.8679)scale(0.16 -0.16)">
        <use xlink:href="#DejaVuSans-31" transform="translate(0 0.765625)"/>
        <use xlink:href="#DejaVuSans-30" transform="translate(63.623047 0.765625)"/>
        <use xlink:href="#DejaVuSans-36" transform="translate(128.203125 39.046875)scale(0.7)"/>
       </g>
      </g>
     </g>
     <g id="xtick_53">
      <g id="line2d_66">
       <g>
        <use xlink:href="#mf7f700111e" x="447.594814" y="286.7104" style="stroke: #000000; stroke-width: 0.6"/>
       </g>
      </g>
     </g>
     <g id="xtick_54">
      <g id="line2d_67">
       <g>
        <use xlink:href="#mf7f700111e" x="468.243993" y="286.7104" style="stroke: #000000; stroke-width: 0.6"/>
       </g>
      </g>
     </g>
     <g id="xtick_55">
      <g id="line2d_68">
       <g>
        <use xlink:href="#mf7f700111e" x="485.1156" y="286.7104" style="stroke: #000000; stroke-width: 0.6"/>
       </g>
      </g>
     </g>
     <g id="xtick_56">
      <g id="line2d_69">
       <g>
        <use xlink:href="#mf7f700111e" x="499.380341" y="286.7104" style="stroke: #000000; stroke-width: 0.6"/>
       </g>
      </g>
     </g>
     <g id="xtick_57">
      <g id="line2d_70">
       <g>
        <use xlink:href="#mf7f700111e" x="511.737021" y="286.7104" style="stroke: #000000; stroke-width: 0.6"/>
       </g>
      </g>
     </g>
     <g id="xtick_58">
      <g id="line2d_71">
       <g>
        <use xlink:href="#mf7f700111e" x="522.636386" y="286.7104" style="stroke: #000000; stroke-width: 0.6"/>
       </g>
      </g>
     </g>
     <g id="xtick_59">
      <g id="line2d_72">
       <g>
        <use xlink:href="#mf7f700111e" x="596.528407" y="286.7104" style="stroke: #000000; stroke-width: 0.6"/>
       </g>
      </g>
     </g>
     <g id="xtick_60">
      <g id="line2d_73">
       <g>
        <use xlink:href="#mf7f700111e" x="634.049193" y="286.7104" style="stroke: #000000; stroke-width: 0.6"/>
       </g>
      </g>
     </g>
     <g id="xtick_61">
      <g id="line2d_74">
       <g>
        <use xlink:href="#mf7f700111e" x="660.670614" y="286.7104" style="stroke: #000000; stroke-width: 0.6"/>
       </g>
      </g>
     </g>
     <g id="xtick_62">
      <g id="line2d_75">
       <g>
        <use xlink:href="#mf7f700111e" x="681.319793" y="286.7104" style="stroke: #000000; stroke-width: 0.6"/>
       </g>
      </g>
     </g>
     <g id="xtick_63">
      <g id="line2d_76">
       <g>
        <use xlink:href="#mf7f700111e" x="698.1914" y="286.7104" style="stroke: #000000; stroke-width: 0.6"/>
       </g>
      </g>
     </g>
     <g id="xtick_64">
      <g id="line2d_77">
       <g>
        <use xlink:href="#mf7f700111e" x="712.456141" y="286.7104" style="stroke: #000000; stroke-width: 0.6"/>
       </g>
      </g>
     </g>
     <g id="xtick_65">
      <g id="line2d_78">
       <g>
        <use xlink:href="#mf7f700111e" x="724.812821" y="286.7104" style="stroke: #000000; stroke-width: 0.6"/>
       </g>
      </g>
     </g>
     <g id="xtick_66">
      <g id="line2d_79">
       <g>
        <use xlink:href="#mf7f700111e" x="735.712186" y="286.7104" style="stroke: #000000; stroke-width: 0.6"/>
       </g>
      </g>
     </g>
    </g>
    <g id="matplotlib.axis_4">
     <g id="ytick_8">
      <g id="line2d_80">
       <g>
        <use xlink:href="#m538a81b99c" x="444.142" y="249.846942" style="stroke: #000000; stroke-width: 0.8"/>
       </g>
      </g>
      <g id="text_22">
       <!-- −0.5 -->
       <g transform="translate(398.2895 255.925692)scale(0.16 -0.16)">
        <defs>
         <path id="DejaVuSans-2e" d="M 684 794 
L 1344 794 
L 1344 0 
L 684 0 
L 684 794 
z
" transform="scale(0.015625)"/>
        </defs>
        <use xlink:href="#DejaVuSans-2212"/>
        <use xlink:href="#DejaVuSans-30" x="83.789062"/>
        <use xlink:href="#DejaVuSans-2e" x="147.412109"/>
        <use xlink:href="#DejaVuSans-35" x="179.199219"/>
       </g>
      </g>
     </g>
     <g id="ytick_9">
      <g id="line2d_81">
       <g>
        <use xlink:href="#m538a81b99c" x="444.142" y="199.251878" style="stroke: #000000; stroke-width: 0.8"/>
       </g>
      </g>
      <g id="text_23">
       <!-- 0.0 -->
       <g transform="translate(411.697 205.330628)scale(0.16 -0.16)">
        <use xlink:href="#DejaVuSans-30"/>
        <use xlink:href="#DejaVuSans-2e" x="63.623047"/>
        <use xlink:href="#DejaVuSans-30" x="95.410156"/>
       </g>
      </g>
     </g>
     <g id="ytick_10">
      <g id="line2d_82">
       <g>
        <use xlink:href="#m538a81b99c" x="444.142" y="148.656815" style="stroke: #000000; stroke-width: 0.8"/>
       </g>
      </g>
      <g id="text_24">
       <!-- 0.5 -->
       <g transform="translate(411.697 154.735565)scale(0.16 -0.16)">
        <use xlink:href="#DejaVuSans-30"/>
        <use xlink:href="#DejaVuSans-2e" x="63.623047"/>
        <use xlink:href="#DejaVuSans-35" x="95.410156"/>
       </g>
      </g>
     </g>
    </g>
    <g id="line2d_83">
     <path d="M 444.142 213.055381 
L 745.462 213.055381 
" clip-path="url(#p677554f7ad)" style="fill: none; stroke-dasharray: 11.1,4.8; stroke-dashoffset: 0; stroke: #000000; stroke-opacity: 0.6; stroke-width: 3"/>
    </g>
    <g id="line2d_84">
     <path d="M 444.142 191.391871 
L 454.902781 209.747595 
L 465.665465 205.808592 
L 476.425591 221.724196 
L 487.188193 228.349969 
L 497.949544 204.918285 
L 508.710671 202.854976 
L 519.471557 182.206045 
L 530.232976 171.024127 
L 540.994584 158.363248 
L 551.756221 177.657809 
L 562.517705 178.474545 
L 573.27917 184.905731 
L 584.040494 175.990108 
L 594.802313 184.512736 
L 605.563716 168.274735 
L 616.324914 169.71265 
L 627.086243 164.648484 
L 637.847786 161.562368 
L 648.609318 170.875927 
L 659.370625 163.462482 
L 670.132141 171.781207 
L 680.893509 178.176215 
L 691.654977 179.805695 
L 702.416363 175.569425 
L 713.177758 177.966031 
L 723.939087 175.66621 
L 734.700587 182.49961 
L 745.462 188.292209 
" clip-path="url(#p677554f7ad)" style="fill: none; stroke: #ff8c00; stroke-opacity: 0.8; stroke-width: 3; stroke-linecap: square"/>
    </g>
    <g id="line2d_85">
     <path d="M 444.142 212.801666 
L 454.902781 212.331065 
L 465.665465 210.062612 
L 476.425591 211.006324 
L 487.188193 212.44507 
L 497.949544 213.991583 
L 508.710671 213.660748 
L 519.471557 214.080082 
L 530.232976 213.063243 
L 540.994584 213.229612 
L 551.756221 212.380395 
L 562.517705 212.067969 
L 573.27917 213.340844 
L 584.040494 212.503435 
L 594.802313 212.955825 
L 605.563716 212.922065 
L 616.324914 212.585558 
L 627.086243 213.289142 
L 637.847786 212.894065 
L 648.609318 212.546233 
L 659.370625 212.971117 
L 670.132141 212.306547 
L 680.893509 211.798428 
L 691.654977 211.439993 
L 702.416363 211.453749 
L 713.177758 212.011089 
L 723.939087 212.054476 
L 734.700587 212.301684 
L 745.462 212.456178 
" clip-path="url(#p677554f7ad)" style="fill: none; stroke: #4682b4; stroke-opacity: 0.8; stroke-width: 3; stroke-linecap: square"/>
    </g>
    <g id="patch_12">
     <path d="M 444.142 286.7104 
L 444.142 112.7584 
" style="fill: none; stroke: #000000; stroke-width: 0.8; stroke-linejoin: miter; stroke-linecap: square"/>
    </g>
    <g id="patch_13">
     <path d="M 745.462 286.7104 
L 745.462 112.7584 
" style="fill: none; stroke: #000000; stroke-width: 0.8; stroke-linejoin: miter; stroke-linecap: square"/>
    </g>
    <g id="patch_14">
     <path d="M 444.142 286.7104 
L 745.462 286.7104 
" style="fill: none; stroke: #000000; stroke-width: 0.8; stroke-linejoin: miter; stroke-linecap: square"/>
    </g>
    <g id="patch_15">
     <path d="M 444.142 112.7584 
L 745.462 112.7584 
" style="fill: none; stroke: #000000; stroke-width: 0.8; stroke-linejoin: miter; stroke-linecap: square"/>
    </g>
   </g>
   <g id="axes_3">
    <g id="LineCollection_1">
     <path d="M 236.902645 141.76238 
L 277.253884 141.76238 
" clip-path="url(#pf48bcfe312)" style="fill: none; stroke: #000000; stroke-width: 2"/>
     <path d="M 236.902645 141.76238 
L 317.605124 141.76238 
" clip-path="url(#pf48bcfe312)" style="fill: none; stroke: #000000; stroke-width: 2"/>
     <path d="M 236.902645 141.76238 
L 357.956364 141.76238 
" clip-path="url(#pf48bcfe312)" style="fill: none; stroke: #000000; stroke-width: 2"/>
     <path d="M 236.902645 141.76238 
L 216.727025 186.688 
" clip-path="url(#pf48bcfe312)" style="fill: none; stroke: #000000; stroke-width: 2"/>
     <path d="M 236.902645 141.76238 
L 257.078264 186.688 
" clip-path="url(#pf48bcfe312)" style="fill: none; stroke: #000000; stroke-width: 2"/>
     <path d="M 236.902645 141.76238 
L 297.429504 186.688 
" clip-path="url(#pf48bcfe312)" style="fill: none; stroke: #000000; stroke-width: 2"/>
     <path d="M 236.902645 141.76238 
L 337.780744 186.688 
" clip-path="url(#pf48bcfe312)" style="fill: none; stroke: #000000; stroke-width: 2"/>
     <path d="M 236.902645 141.76238 
L 378.131983 186.688 
" clip-path="url(#pf48bcfe312)" style="fill: none; stroke: #000000; stroke-width: 2"/>
     <path d="M 277.253884 141.76238 
L 317.605124 141.76238 
" clip-path="url(#pf48bcfe312)" style="fill: none; stroke: #000000; stroke-width: 2"/>
     <path d="M 277.253884 141.76238 
L 357.956364 141.76238 
" clip-path="url(#pf48bcfe312)" style="fill: none; stroke: #000000; stroke-width: 2"/>
     <path d="M 277.253884 141.76238 
L 216.727025 186.688 
" clip-path="url(#pf48bcfe312)" style="fill: none; stroke: #000000; stroke-width: 2"/>
     <path d="M 277.253884 141.76238 
L 257.078264 186.688 
" clip-path="url(#pf48bcfe312)" style="fill: none; stroke: #000000; stroke-width: 2"/>
     <path d="M 277.253884 141.76238 
L 297.429504 186.688 
" clip-path="url(#pf48bcfe312)" style="fill: none; stroke: #000000; stroke-width: 2"/>
     <path d="M 277.253884 141.76238 
L 337.780744 186.688 
" clip-path="url(#pf48bcfe312)" style="fill: none; stroke: #000000; stroke-width: 2"/>
     <path d="M 277.253884 141.76238 
L 378.131983 186.688 
" clip-path="url(#pf48bcfe312)" style="fill: none; stroke: #000000; stroke-width: 2"/>
     <path d="M 317.605124 141.76238 
L 357.956364 141.76238 
" clip-path="url(#pf48bcfe312)" style="fill: none; stroke: #000000; stroke-width: 2"/>
     <path d="M 317.605124 141.76238 
L 216.727025 186.688 
" clip-path="url(#pf48bcfe312)" style="fill: none; stroke: #000000; stroke-width: 2"/>
     <path d="M 317.605124 141.76238 
L 257.078264 186.688 
" clip-path="url(#pf48bcfe312)" style="fill: none; stroke: #000000; stroke-width: 2"/>
     <path d="M 317.605124 141.76238 
L 297.429504 186.688 
" clip-path="url(#pf48bcfe312)" style="fill: none; stroke: #000000; stroke-width: 2"/>
     <path d="M 317.605124 141.76238 
L 337.780744 186.688 
" clip-path="url(#pf48bcfe312)" style="fill: none; stroke: #000000; stroke-width: 2"/>
     <path d="M 317.605124 141.76238 
L 378.131983 186.688 
" clip-path="url(#pf48bcfe312)" style="fill: none; stroke: #000000; stroke-width: 2"/>
     <path d="M 357.956364 141.76238 
L 216.727025 186.688 
" clip-path="url(#pf48bcfe312)" style="fill: none; stroke: #000000; stroke-width: 2"/>
     <path d="M 357.956364 141.76238 
L 257.078264 186.688 
" clip-path="url(#pf48bcfe312)" style="fill: none; stroke: #000000; stroke-width: 2"/>
     <path d="M 357.956364 141.76238 
L 297.429504 186.688 
" clip-path="url(#pf48bcfe312)" style="fill: none; stroke: #000000; stroke-width: 2"/>
     <path d="M 357.956364 141.76238 
L 337.780744 186.688 
" clip-path="url(#pf48bcfe312)" style="fill: none; stroke: #000000; stroke-width: 2"/>
     <path d="M 357.956364 141.76238 
L 378.131983 186.688 
" clip-path="url(#pf48bcfe312)" style="fill: none; stroke: #000000; stroke-width: 2"/>
     <path d="M 216.727025 186.688 
L 236.902645 231.61362 
" clip-path="url(#pf48bcfe312)" style="fill: none; stroke: #000000; stroke-width: 2"/>
     <path d="M 216.727025 186.688 
L 277.253884 231.61362 
" clip-path="url(#pf48bcfe312)" style="fill: none; stroke: #000000; stroke-width: 2"/>
     <path d="M 216.727025 186.688 
L 317.605124 231.61362 
" clip-path="url(#pf48bcfe312)" style="fill: none; stroke: #000000; stroke-width: 2"/>
     <path d="M 216.727025 186.688 
L 357.956364 231.61362 
" clip-path="url(#pf48bcfe312)" style="fill: none; stroke: #000000; stroke-width: 2"/>
     <path d="M 257.078264 186.688 
L 236.902645 231.61362 
" clip-path="url(#pf48bcfe312)" style="fill: none; stroke: #000000; stroke-width: 2"/>
     <path d="M 257.078264 186.688 
L 277.253884 231.61362 
" clip-path="url(#pf48bcfe312)" style="fill: none; stroke: #000000; stroke-width: 2"/>
     <path d="M 257.078264 186.688 
L 317.605124 231.61362 
" clip-path="url(#pf48bcfe312)" style="fill: none; stroke: #000000; stroke-width: 2"/>
     <path d="M 257.078264 186.688 
L 357.956364 231.61362 
" clip-path="url(#pf48bcfe312)" style="fill: none; stroke: #000000; stroke-width: 2"/>
     <path d="M 297.429504 186.688 
L 236.902645 231.61362 
" clip-path="url(#pf48bcfe312)" style="fill: none; stroke: #000000; stroke-width: 2"/>
     <path d="M 297.429504 186.688 
L 277.253884 231.61362 
" clip-path="url(#pf48bcfe312)" style="fill: none; stroke: #000000; stroke-width: 2"/>
     <path d="M 297.429504 186.688 
L 317.605124 231.61362 
" clip-path="url(#pf48bcfe312)" style="fill: none; stroke: #000000; stroke-width: 2"/>
     <path d="M 297.429504 186.688 
L 357.956364 231.61362 
" clip-path="url(#pf48bcfe312)" style="fill: none; stroke: #000000; stroke-width: 2"/>
     <path d="M 337.780744 186.688 
L 236.902645 231.61362 
" clip-path="url(#pf48bcfe312)" style="fill: none; stroke: #000000; stroke-width: 2"/>
     <path d="M 337.780744 186.688 
L 277.253884 231.61362 
" clip-path="url(#pf48bcfe312)" style="fill: none; stroke: #000000; stroke-width: 2"/>
     <path d="M 337.780744 186.688 
L 317.605124 231.61362 
" clip-path="url(#pf48bcfe312)" style="fill: none; stroke: #000000; stroke-width: 2"/>
     <path d="M 337.780744 186.688 
L 357.956364 231.61362 
" clip-path="url(#pf48bcfe312)" style="fill: none; stroke: #000000; stroke-width: 2"/>
     <path d="M 378.131983 186.688 
L 236.902645 231.61362 
" clip-path="url(#pf48bcfe312)" style="fill: none; stroke: #000000; stroke-width: 2"/>
     <path d="M 378.131983 186.688 
L 277.253884 231.61362 
" clip-path="url(#pf48bcfe312)" style="fill: none; stroke: #000000; stroke-width: 2"/>
     <path d="M 378.131983 186.688 
L 317.605124 231.61362 
" clip-path="url(#pf48bcfe312)" style="fill: none; stroke: #000000; stroke-width: 2"/>
     <path d="M 378.131983 186.688 
L 357.956364 231.61362 
" clip-path="url(#pf48bcfe312)" style="fill: none; stroke: #000000; stroke-width: 2"/>
     <path d="M 236.902645 231.61362 
L 277.253884 231.61362 
" clip-path="url(#pf48bcfe312)" style="fill: none; stroke: #000000; stroke-width: 2"/>
     <path d="M 236.902645 231.61362 
L 317.605124 231.61362 
" clip-path="url(#pf48bcfe312)" style="fill: none; stroke: #000000; stroke-width: 2"/>
     <path d="M 236.902645 231.61362 
L 357.956364 231.61362 
" clip-path="url(#pf48bcfe312)" style="fill: none; stroke: #000000; stroke-width: 2"/>
     <path d="M 277.253884 231.61362 
L 317.605124 231.61362 
" clip-path="url(#pf48bcfe312)" style="fill: none; stroke: #000000; stroke-width: 2"/>
     <path d="M 277.253884 231.61362 
L 357.956364 231.61362 
" clip-path="url(#pf48bcfe312)" style="fill: none; stroke: #000000; stroke-width: 2"/>
     <path d="M 317.605124 231.61362 
L 357.956364 231.61362 
" clip-path="url(#pf48bcfe312)" style="fill: none; stroke: #000000; stroke-width: 2"/>
    </g>
    <g id="PathCollection_1">
     <defs>
      <path id="C0_0_04fd57b32d" d="M 0 14.142136 
C 3.750538 14.142136 7.347969 12.652031 10 10 
C 12.652031 7.347969 14.142136 3.750538 14.142136 -0 
C 14.142136 -3.750538 12.652031 -7.347969 10 -10 
C 7.347969 -12.652031 3.750538 -14.142136 0 -14.142136 
C -3.750538 -14.142136 -7.347969 -12.652031 -10 -10 
C -12.652031 -7.347969 -14.142136 -3.750538 -14.142136 0 
C -14.142136 3.750538 -12.652031 7.347969 -10 10 
C -7.347969 12.652031 -3.750538 14.142136 0 14.142136 
z
"/>
     </defs>
     <g clip-path="url(#pf48bcfe312)">
      <use xlink:href="#C0_0_04fd57b32d" x="236.902645" y="141.76238" style="fill: #4682b4; stroke: #4682b4"/>
     </g>
     <g clip-path="url(#pf48bcfe312)">
      <use xlink:href="#C0_0_04fd57b32d" x="277.253884" y="141.76238" style="fill: #4682b4; stroke: #4682b4"/>
     </g>
     <g clip-path="url(#pf48bcfe312)">
      <use xlink:href="#C0_0_04fd57b32d" x="317.605124" y="141.76238" style="fill: #4682b4; stroke: #4682b4"/>
     </g>
     <g clip-path="url(#pf48bcfe312)">
      <use xlink:href="#C0_0_04fd57b32d" x="357.956364" y="141.76238" style="fill: #4682b4; stroke: #4682b4"/>
     </g>
     <g clip-path="url(#pf48bcfe312)">
      <use xlink:href="#C0_0_04fd57b32d" x="216.727025" y="186.688" style="fill: #ffd700; stroke: #ffd700"/>
     </g>
     <g clip-path="url(#pf48bcfe312)">
      <use xlink:href="#C0_0_04fd57b32d" x="257.078264" y="186.688" style="fill: #ffd700; stroke: #ffd700"/>
     </g>
     <g clip-path="url(#pf48bcfe312)">
      <use xlink:href="#C0_0_04fd57b32d" x="297.429504" y="186.688" style="fill: #ffd700; stroke: #ffd700"/>
     </g>
     <g clip-path="url(#pf48bcfe312)">
      <use xlink:href="#C0_0_04fd57b32d" x="337.780744" y="186.688" style="fill: #ffd700; stroke: #ffd700"/>
     </g>
     <g clip-path="url(#pf48bcfe312)">
      <use xlink:href="#C0_0_04fd57b32d" x="378.131983" y="186.688" style="fill: #ffd700; stroke: #ffd700"/>
     </g>
     <g clip-path="url(#pf48bcfe312)">
      <use xlink:href="#C0_0_04fd57b32d" x="236.902645" y="231.61362" style="fill: #4682b4; stroke: #4682b4"/>
     </g>
     <g clip-path="url(#pf48bcfe312)">
      <use xlink:href="#C0_0_04fd57b32d" x="277.253884" y="231.61362" style="fill: #4682b4; stroke: #4682b4"/>
     </g>
     <g clip-path="url(#pf48bcfe312)">
      <use xlink:href="#C0_0_04fd57b32d" x="317.605124" y="231.61362" style="fill: #4682b4; stroke: #4682b4"/>
     </g>
     <g clip-path="url(#pf48bcfe312)">
      <use xlink:href="#C0_0_04fd57b32d" x="357.956364" y="231.61362" style="fill: #4682b4; stroke: #4682b4"/>
     </g>
    </g>
    <g id="text_25">
     <g clip-path="url(#pf48bcfe312)">
      <!-- 0 -->
      <g transform="translate(231.336395 146.17738)scale(0.16 -0.16)">
       <defs>
        <path id="DejaVuSans-Bold-30" d="M 2944 2338 
Q 2944 3213 2780 3570 
Q 2616 3928 2228 3928 
Q 1841 3928 1675 3570 
Q 1509 3213 1509 2338 
Q 1509 1453 1675 1090 
Q 1841 728 2228 728 
Q 2613 728 2778 1090 
Q 2944 1453 2944 2338 
z
M 4147 2328 
Q 4147 1169 3647 539 
Q 3147 -91 2228 -91 
Q 1306 -91 806 539 
Q 306 1169 306 2328 
Q 306 3491 806 4120 
Q 1306 4750 2228 4750 
Q 3147 4750 3647 4120 
Q 4147 3491 4147 2328 
z
" transform="scale(0.015625)"/>
       </defs>
       <use xlink:href="#DejaVuSans-Bold-30"/>
      </g>
     </g>
    </g>
    <g id="text_26">
     <g clip-path="url(#pf48bcfe312)">
      <!-- 1 -->
      <g transform="translate(271.687634 146.17738)scale(0.16 -0.16)">
       <defs>
        <path id="DejaVuSans-Bold-31" d="M 750 831 
L 1813 831 
L 1813 3847 
L 722 3622 
L 722 4441 
L 1806 4666 
L 2950 4666 
L 2950 831 
L 4013 831 
L 4013 0 
L 750 0 
L 750 831 
z
" transform="scale(0.015625)"/>
       </defs>
       <use xlink:href="#DejaVuSans-Bold-31"/>
      </g>
     </g>
    </g>
    <g id="text_27">
     <g clip-path="url(#pf48bcfe312)">
      <!-- 2 -->
      <g transform="translate(312.038874 146.17738)scale(0.16 -0.16)">
       <defs>
        <path id="DejaVuSans-Bold-32" d="M 1844 884 
L 3897 884 
L 3897 0 
L 506 0 
L 506 884 
L 2209 2388 
Q 2438 2594 2547 2791 
Q 2656 2988 2656 3200 
Q 2656 3528 2436 3728 
Q 2216 3928 1850 3928 
Q 1569 3928 1234 3808 
Q 900 3688 519 3450 
L 519 4475 
Q 925 4609 1322 4679 
Q 1719 4750 2100 4750 
Q 2938 4750 3402 4381 
Q 3866 4013 3866 3353 
Q 3866 2972 3669 2642 
Q 3472 2313 2841 1759 
L 1844 884 
z
" transform="scale(0.015625)"/>
       </defs>
       <use xlink:href="#DejaVuSans-Bold-32"/>
      </g>
     </g>
    </g>
    <g id="text_28">
     <g clip-path="url(#pf48bcfe312)">
      <!-- 3 -->
      <g transform="translate(352.390114 146.17738)scale(0.16 -0.16)">
       <defs>
        <path id="DejaVuSans-Bold-33" d="M 2981 2516 
Q 3453 2394 3698 2092 
Q 3944 1791 3944 1325 
Q 3944 631 3412 270 
Q 2881 -91 1863 -91 
Q 1503 -91 1142 -33 
Q 781 25 428 141 
L 428 1069 
Q 766 900 1098 814 
Q 1431 728 1753 728 
Q 2231 728 2486 893 
Q 2741 1059 2741 1369 
Q 2741 1688 2480 1852 
Q 2219 2016 1709 2016 
L 1228 2016 
L 1228 2791 
L 1734 2791 
Q 2188 2791 2409 2933 
Q 2631 3075 2631 3366 
Q 2631 3634 2415 3781 
Q 2200 3928 1806 3928 
Q 1516 3928 1219 3862 
Q 922 3797 628 3669 
L 628 4550 
Q 984 4650 1334 4700 
Q 1684 4750 2022 4750 
Q 2931 4750 3382 4451 
Q 3834 4153 3834 3553 
Q 3834 3144 3618 2883 
Q 3403 2622 2981 2516 
z
" transform="scale(0.015625)"/>
       </defs>
       <use xlink:href="#DejaVuSans-Bold-33"/>
      </g>
     </g>
    </g>
    <g id="text_29">
     <g clip-path="url(#pf48bcfe312)">
      <!-- 4 -->
      <g transform="translate(211.160775 191.103)scale(0.16 -0.16)">
       <defs>
        <path id="DejaVuSans-Bold-34" d="M 2356 3675 
L 1038 1722 
L 2356 1722 
L 2356 3675 
z
M 2156 4666 
L 3494 4666 
L 3494 1722 
L 4159 1722 
L 4159 850 
L 3494 850 
L 3494 0 
L 2356 0 
L 2356 850 
L 288 850 
L 288 1881 
L 2156 4666 
z
" transform="scale(0.015625)"/>
       </defs>
       <use xlink:href="#DejaVuSans-Bold-34"/>
      </g>
     </g>
    </g>
    <g id="text_30">
     <g clip-path="url(#pf48bcfe312)">
      <!-- 5 -->
      <g transform="translate(251.512014 191.103)scale(0.16 -0.16)">
       <defs>
        <path id="DejaVuSans-Bold-35" d="M 678 4666 
L 3669 4666 
L 3669 3781 
L 1638 3781 
L 1638 3059 
Q 1775 3097 1914 3117 
Q 2053 3138 2203 3138 
Q 3056 3138 3531 2711 
Q 4006 2284 4006 1522 
Q 4006 766 3489 337 
Q 2972 -91 2053 -91 
Q 1656 -91 1267 -14 
Q 878 63 494 219 
L 494 1166 
Q 875 947 1217 837 
Q 1559 728 1863 728 
Q 2300 728 2551 942 
Q 2803 1156 2803 1522 
Q 2803 1891 2551 2103 
Q 2300 2316 1863 2316 
Q 1603 2316 1309 2248 
Q 1016 2181 678 2041 
L 678 4666 
z
" transform="scale(0.015625)"/>
       </defs>
       <use xlink:href="#DejaVuSans-Bold-35"/>
      </g>
     </g>
    </g>
    <g id="text_31">
     <g clip-path="url(#pf48bcfe312)">
      <!-- 6 -->
      <g transform="translate(291.863254 191.103)scale(0.16 -0.16)">
       <defs>
        <path id="DejaVuSans-Bold-36" d="M 2316 2303 
Q 2000 2303 1842 2098 
Q 1684 1894 1684 1484 
Q 1684 1075 1842 870 
Q 2000 666 2316 666 
Q 2634 666 2792 870 
Q 2950 1075 2950 1484 
Q 2950 1894 2792 2098 
Q 2634 2303 2316 2303 
z
M 3803 4544 
L 3803 3681 
Q 3506 3822 3243 3889 
Q 2981 3956 2731 3956 
Q 2194 3956 1894 3657 
Q 1594 3359 1544 2772 
Q 1750 2925 1990 3001 
Q 2231 3078 2516 3078 
Q 3231 3078 3670 2659 
Q 4109 2241 4109 1563 
Q 4109 813 3618 361 
Q 3128 -91 2303 -91 
Q 1394 -91 895 523 
Q 397 1138 397 2266 
Q 397 3422 980 4083 
Q 1563 4744 2578 4744 
Q 2900 4744 3203 4694 
Q 3506 4644 3803 4544 
z
" transform="scale(0.015625)"/>
       </defs>
       <use xlink:href="#DejaVuSans-Bold-36"/>
      </g>
     </g>
    </g>
    <g id="text_32">
     <g clip-path="url(#pf48bcfe312)">
      <!-- 7 -->
      <g transform="translate(332.214494 191.103)scale(0.16 -0.16)">
       <defs>
        <path id="DejaVuSans-Bold-37" d="M 428 4666 
L 3944 4666 
L 3944 3988 
L 2125 0 
L 953 0 
L 2675 3781 
L 428 3781 
L 428 4666 
z
" transform="scale(0.015625)"/>
       </defs>
       <use xlink:href="#DejaVuSans-Bold-37"/>
      </g>
     </g>
    </g>
    <g id="text_33">
     <g clip-path="url(#pf48bcfe312)">
      <!-- 8 -->
      <g transform="translate(372.565733 191.103)scale(0.16 -0.16)">
       <defs>
        <path id="DejaVuSans-Bold-38" d="M 2228 2088 
Q 1891 2088 1709 1903 
Q 1528 1719 1528 1375 
Q 1528 1031 1709 848 
Q 1891 666 2228 666 
Q 2563 666 2741 848 
Q 2919 1031 2919 1375 
Q 2919 1722 2741 1905 
Q 2563 2088 2228 2088 
z
M 1350 2484 
Q 925 2613 709 2878 
Q 494 3144 494 3541 
Q 494 4131 934 4440 
Q 1375 4750 2228 4750 
Q 3075 4750 3515 4442 
Q 3956 4134 3956 3541 
Q 3956 3144 3739 2878 
Q 3522 2613 3097 2484 
Q 3572 2353 3814 2058 
Q 4056 1763 4056 1313 
Q 4056 619 3595 264 
Q 3134 -91 2228 -91 
Q 1319 -91 855 264 
Q 391 619 391 1313 
Q 391 1763 633 2058 
Q 875 2353 1350 2484 
z
M 1631 3419 
Q 1631 3141 1786 2991 
Q 1941 2841 2228 2841 
Q 2509 2841 2662 2991 
Q 2816 3141 2816 3419 
Q 2816 3697 2662 3845 
Q 2509 3994 2228 3994 
Q 1941 3994 1786 3844 
Q 1631 3694 1631 3419 
z
" transform="scale(0.015625)"/>
       </defs>
       <use xlink:href="#DejaVuSans-Bold-38"/>
      </g>
     </g>
    </g>
    <g id="text_34">
     <g clip-path="url(#pf48bcfe312)">
      <!-- 9 -->
      <g transform="translate(231.336395 236.02862)scale(0.16 -0.16)">
       <defs>
        <path id="DejaVuSans-Bold-39" d="M 641 103 
L 641 966 
Q 928 831 1190 764 
Q 1453 697 1709 697 
Q 2247 697 2547 995 
Q 2847 1294 2900 1881 
Q 2688 1725 2447 1647 
Q 2206 1569 1925 1569 
Q 1209 1569 770 1986 
Q 331 2403 331 3084 
Q 331 3838 820 4291 
Q 1309 4744 2131 4744 
Q 3044 4744 3544 4128 
Q 4044 3513 4044 2388 
Q 4044 1231 3459 570 
Q 2875 -91 1856 -91 
Q 1528 -91 1228 -42 
Q 928 6 641 103 
z
M 2125 2350 
Q 2441 2350 2600 2554 
Q 2759 2759 2759 3169 
Q 2759 3575 2600 3781 
Q 2441 3988 2125 3988 
Q 1809 3988 1650 3781 
Q 1491 3575 1491 3169 
Q 1491 2759 1650 2554 
Q 1809 2350 2125 2350 
z
" transform="scale(0.015625)"/>
       </defs>
       <use xlink:href="#DejaVuSans-Bold-39"/>
      </g>
     </g>
    </g>
    <g id="text_35">
     <g clip-path="url(#pf48bcfe312)">
      <!-- 10 -->
      <g transform="translate(266.121384 236.02862)scale(0.16 -0.16)">
       <use xlink:href="#DejaVuSans-Bold-31"/>
       <use xlink:href="#DejaVuSans-Bold-30" x="69.580078"/>
      </g>
     </g>
    </g>
    <g id="text_36">
     <g clip-path="url(#pf48bcfe312)">
      <!-- 11 -->
      <g transform="translate(306.472624 236.02862)scale(0.16 -0.16)">
       <use xlink:href="#DejaVuSans-Bold-31"/>
       <use xlink:href="#DejaVuSans-Bold-31" x="69.580078"/>
      </g>
     </g>
    </g>
    <g id="text_37">
     <g clip-path="url(#pf48bcfe312)">
      <!-- 12 -->
      <g transform="translate(346.823864 236.02862)scale(0.16 -0.16)">
       <use xlink:href="#DejaVuSans-Bold-31"/>
       <use xlink:href="#DejaVuSans-Bold-32" x="69.580078"/>
      </g>
     </g>
    </g>
   </g>
  </g>
 </g>
 <defs>
  <clipPath id="p63215c0458">
   <rect x="95.95" y="34.48" width="669.6" height="434.88"/>
  </clipPath>
  <clipPath id="p677554f7ad">
   <rect x="444.142" y="112.7584" width="301.32" height="173.952"/>
  </clipPath>
  <clipPath id="pf48bcfe312">
   <rect x="196.39" y="121.456" width="234.36" height="130.464"/>
  </clipPath>
 </defs>
</svg>
