<?xml version="1.0" encoding="utf-8"?>
<!-- Generator: Adobe Illustrator 27.7.0, SVG Export Plug-In . SVG Version: 6.00 Build 0)  -->
<svg version="1.1" xmlns="http://www.w3.org/2000/svg" xmlns:xlink="http://www.w3.org/1999/xlink" x="0px" y="0px"
	 viewBox="0 0 236 89.8" style="enable-background:new 0 0 236 89.8;" xml:space="preserve">
<style type="text/css">
	.st0{fill:#FFFFFF;}
	.st1{fill:none;stroke:#231F20;stroke-linecap:round;stroke-linejoin:round;stroke-miterlimit:10;}
	.st2{fill:none;stroke:#000000;stroke-linecap:round;stroke-linejoin:round;stroke-miterlimit:10;}
	.st3{fill:#FFFFFF;stroke:#FF87EB;stroke-linecap:round;stroke-linejoin:round;stroke-miterlimit:10;}
	.st4{fill:#FFFFFF;stroke:#70CEFF;stroke-linecap:round;stroke-linejoin:round;stroke-miterlimit:10;}
	.st5{fill:#FFFFFF;stroke:#FFE096;stroke-linecap:round;stroke-linejoin:round;stroke-miterlimit:10;}
	.st6{fill:#FFFFFF;stroke:#C756B2;stroke-linecap:round;stroke-linejoin:round;stroke-miterlimit:10;}
</style>
<g id="white_background">
	<rect x="0.5" y="0.3" class="st0" width="235.5" height="89"/>
</g>
<g id="lines_and_labels">
	<path class="st1" d="M5.8,61.3c0.1-0.4,0.3-0.7,0.5-1.1c0.5-1.1,0.7-2.3,1.1-3.4c0.3-1,0.4-2.4,1.5-2.8c0.3,1.2,0.7,2.3,1.2,3.4
		c0.4,0.8,0.6,1.8,1,2.6c0.4,0.6,0.9,1.1,1.2,1.7c0.1,0,0.1-0.1,0.1-0.2"/>
	<path class="st1" d="M6.4,59.5c1.4-0.3,3.3,0.4,4.5-0.4"/>
	<path class="st1" d="M228,21.3c-4,1-18,0-23.2,0c-17.7,0-36,0-53.6,0c-22.4,0-44.1-0.3-66.4-1c-22.7-0.7-48,1-70.6,0.3
		c0.2,0,0.2-0.4,0.2-0.6"/>
	<path class="st1" d="M15.5,58.3c22.7,0.2,45,0.5,67.7,0c21.2-0.5,41.1,1.1,62.2,0c19-1,39.3-0.3,58.3,0c6.2,0.1,18.1,0,21.3,0"/>
	<path class="st1" d="M14.8,80.9c25.3-0.8,64.8,0.4,75.9-0.6c19.1-1.7,38-0.1,57.2,0c4.5,0,9-0.7,13.5,0c6.3,1,14.6-0.2,20.6,0
		c7.5,0.3,13.3-0.8,20.6,0c7.6,0.9,18.2-1,25.4,0"/>
	<g>
		<path class="st2" d="M5.7,74.7c0,1.6,0.2,3.1,0.1,4.6c0,1,0,2.1,0,3.1c0-0.1,0-0.1,0-0.2"/>
		<path class="st2" d="M6,74.9c0.8-0.3,2.5-0.1,3.3,0.1c0.7,0.2,1.3,0.7,1.2,1.4c-0.1,1.8-2.9,1.9-4.3,1.9c0.1,0,0.1,0,0.2,0
			c0.9,0,2-0.1,2.9,0.2c1,0.3,2.1,2,1.4,2.9c-0.5,0.6-1.4,0.8-2.2,0.9c-0.7,0.1-1.9-0.2-2.5,0.1c0.1,0.1,0.2,0,0.3,0.1"/>
	</g>
	<path class="st2" d="M10.5,14.1C9.6,13,7,12.9,6.1,14c-0.9,1.1,0.6,2.3,1.5,2.8c0.9,0.5,3,0.6,3.1,2c0.1,1.2-1.1,2-2.1,2
		c-0.5,0-3-0.7-2.8-1.1"/>
</g>
<g id="boxes">
	<path class="st3" d="M26.5,4.3c-3,0-3.3,1.6-3.3,3c-0.1,5-0.7,10.1-0.7,15c0,4.5-1,12,2.1,13.4c3.4,1.5,6.9,0.6,11.9,0.6
		s10.9,0.5,16,0c5.5-0.5,11.7,0,17,0c5.3,0,10.5,0,16,0c4,0,15,0,15.3-1.6c0.7-3.4-0.5-12.8-0.3-16.4c0.2-5.7,0.6-12.2-2-14
		c-3-2-12.6-1-19-1c-5.9,0-11.6-0.3-17,0c-8.1,0.4-17,0-25,0C33.5,3.3,30.7,4.3,26.5,4.3z"/>
	<path class="st4" d="M21.8,55.5c0,3.4-0.3,5.4-0.3,8.8c0,4.5,0.8,7.2,1,11.6c0.1,2.3-1.6,6.7,1,8c1.7,0.9,3.9,2,5.7,1.8
		c3.5-0.4,6.9,0,10.5,0c24.5,0.1,49,0.1,73.3,0c5.3,0,7.6,0,9.5-4.5c1.7-4-1.2-9.9-1-14.3c0.2-3.2-0.1-3.9,0-7.1
		c0.1-1.6,1-3.8,0-5.3c-0.3-0.5-1.9-0.9-3.2-1.8c-1.3-0.9-4.3-0.2-5.7-0.2c-5.5,0.3-10.9,0.3-16.4-0.4c-3.4-0.4-7.4-0.3-11-0.3
		c-2.9,0-7.8-0.2-10.5,0c-13.3,0.9-24.5-0.4-37.8,0.5c-4.3,0.3-13.6-1.1-15.2,4.2C21.8,56.8,21.9,56.3,21.8,55.5z"/>
	<path class="st5" d="M138.5,10.3c-3.2,6.6-2,16.8-2,24c0,8-0.3,15.9,0,24.2c0.1,2.8,0.5,5.8,1.7,8.4c1.4,3,2.9,4,6.3,3.4
		c2.1-0.3,4.2-0.3,6.4-0.1c1.7,0.1,3.5-0.1,5.2-0.2c3.6-0.1,7.3,0.2,10.9,0.2c3.3,0,6.4-0.4,9.7-0.6c3.1-0.2,6.2,0.4,9.3-0.1
		c0.9-0.2,2.4-0.6,2.9-1.5c0.8-1.6,0-4.2,0.2-5.9c0.3-2.6,0.2-5.3,0.3-7.9c0-1.7-0.3-3.4-0.1-5.1c0.2-2.4,0.4-4.8,0.1-7.2
		c-0.2-2.5,0.7-4.8,0.3-7.3c-0.4-2.8,0.4-5.8,0.3-8.7c-0.1-2.6-0.4-5.1-0.5-7.6c-0.1-2.4-0.1-6-2.1-7.8c-1.9-1.7-5.6-1.4-8-1.4
		c-2.7-0.1-5.4,0.2-8.1,0.3c-7,0.3-14,0.5-21,0.4c-2.2,0-4.3,0.2-6.5,0.2c-1.6,0-3.7-0.2-5.2,0.2C138.8,9.8,138.3,10.3,138.5,10.3z"
		/>
	<path class="st6" d="M209.1,6.1c-2,2.7-1.3,6.2-1.5,9.3c-0.4,4.3-0.1,8.6,0,12.9c0,2.5,0.3,4.7,0.1,7.2c-0.2,2.2-0.1,4.4-0.1,6.6
		c0,5.6-0.6,11.4-0.3,17.1c0.1,3.1-0.1,6.2,0,9.4c0.1,4.3,0.2,8.6,0.5,12.9c0.2,3.2,1.3,6.2,4.8,6.8c5.4,0.8,12.4,0.7,17.7-0.3
		c4.2-0.8,3.7-4.2,3.7-8.3c0-3.1,0.7-6.1,0.3-9.2c-0.5-3.7-0.1-7.6-0.3-11.3c-0.1-1.6-0.1-3.2-0.1-4.9c0-3.3,0.4-6.6,0.3-9.9
		c-0.1-4.4,0-8.8,0.2-13.2c0.1-2.9,0-5.7,0-8.6c0-2.8,0-5.2,0.3-8c0.2-1.8,0.2-4.3,0.1-6.1c-0.1-1.5-0.9-3.8-2.5-4.4
		c-2-0.7-5.1-0.2-7.2-0.5c-2.8-0.3-5.6,0.3-8.4,0.2c-2.3-0.1-4-0.6-6.1,0.9C209.9,5.2,209.5,5.7,209.1,6.1z"/>
</g>
<g id="box_text">
	<g>
		<path class="st1" d="M53.4,8.4c-0.7-2.6-5.1-0.8-5.8,0.9c1.1,1.4,5.2,2,5.2,3.7c0.1,2.4-5.4,2.8-5.1,0.1"/>
		<path class="st1" d="M56.2,7.3c0.1,2.3-1.5,5.7,0.8,7.4c0.4,0,0.2-0.2,0.4-0.4"/>
		<path class="st1" d="M54.5,9.1c1,0.1,2-0.2,3-0.2c-0.2-0.1-0.5-0.2-0.7-0.3"/>
		<path class="st1" d="M64.9,9.1c-0.3,1.1,0,2,0,3.1c0,0.5-0.2,2.5-0.2,2"/>
		<path class="st1" d="M64.5,10.3c-1.5-2-4.1-0.4-4.5,1.6c-0.5,2.3,3,3.6,4.3,1.6"/>
		<path class="st1" d="M67.9,7.6c0,1.6-1,7.6,1.9,6.7c-0.1-0.3-0.2,0-0.4-0.1"/>
		<path class="st1" d="M66.7,9c0.7,0.6,2.3,0.4,2.9,0.4c-0.2,0-0.4,0-0.6,0"/>
		<path class="st1" d="M71.4,11.6c1.8,0,3.6,0.1,5.4,0c-0.4-1.9-4-2.9-5.1-1.4c-2,2.8,1.8,5,4.1,3.7"/>
		<path class="st1" d="M29.8,23.6c0,2.6,0,5.2,0,7.8c0-0.4-0.1-0.8-0.2-1.2"/>
		<path class="st1" d="M30,25.9c0.3-2.2,2.5-3.5,4.3-1.2c1.9,2.4-1.2,5-3.7,4.7c-0.2-0.3-0.2-0.6-0.2-0.9"/>
		<path class="st1" d="M37.2,23.8C37,24.4,37,25.1,37,25.9c0,0.6-0.1,3.4,0.2,2.8"/>
		<path class="st1" d="M37.2,26.1c0.6-0.8,1.4-2.5,2.5-1.9c0.3,0.3-0.2-0.1-0.2,0"/>
		<path class="st1" d="M41.9,26.1c1.5,0,3,0.1,4.5,0.4c0.1-2.2-1.3-3.3-3.5-2c-3.8,2.3,0.2,4.7,2.9,4.9c-0.1-0.3-0.2-0.5-0.4-0.7"/>
		<path class="st1" d="M48.3,23.5c0,2.6,0,5.2,0,7.8c0,0.1,0-0.5,0-0.4"/>
		<path class="st1" d="M48.3,25c0.7-1.5,4-1.8,5-0.5c2.7,3.4-4.7,6-4.7,3"/>
		<path class="st1" d="M60.5,23.5c-0.1,1.8,0.2,3.7,0.2,5.5"/>
		<path class="st1" d="M60.1,25.1c-0.5-1.7-2.7-0.6-3.4,0.3c-1.7,2.4,1.8,4.4,3,2.5"/>
		<path class="st1" d="M72,24.2c-1.6-0.5-4.5,0-4.5,2.3c-0.1,2.5,5.3,3.5,5.8,1.1c-0.3-0.2-0.4-0.1-0.7-0.2"/>
		<path class="st1" d="M72.6,23.1c0.2,2.2,0.2,4.5,0.2,6.8c0-0.2,0-0.5,0-0.7"/>
		<path class="st1" d="M74.3,24c1.1,0,2.3,0.1,3.2,0.4"/>
		<path class="st1" d="M76.5,22.3c-0.5,1.5-0.8,4.2-0.4,5.7c0.2,0.8,1.5,2.5,2.1,1.3"/>
		<path class="st1" d="M79.9,23.6c0.3,1.6,0.3,3.4,0.4,5.1"/>
		<path class="st1" d="M80.1,22.1c0.1,0,0.1,0,0.2,0"/>
		<path class="st1" d="M86.3,24.4c-2.6-1.9-6,3.2-2.1,4.2c5.6,1.4,4.1-5.6,1.5-4.4"/>
		<path class="st1" d="M90.1,24c0.3,1.1,0.3,2.6,0.1,3.7c-0.1,0.6-0.1,1.6-0.3,0.8"/>
		<path class="st1" d="M90.1,26.3c0-1.6,2.2-2.7,3.5-1.9c2,1.3,0.5,3.8,0.3,4.9"/>
		<path class="st1" d="M63.7,23.5c0,0.9,0.3,5.2-0.3,5.4"/>
		<path class="st1" d="M63.6,25.5c0.3-1,1.8-2.1,2.9-1.7c-0.1,0-0.2-0.1-0.3-0.1"/>
	</g>
	<g>
		<path class="st1" d="M149.2,21c-0.8-0.9-2.3-0.7-3.3-0.3c-1.6,0.6-2.4,2.3-2.5,3.9c-0.1,1.5,0.4,2.9,2,3.3c0.8,0.2,3.1,0,3.2-0.7"
			/>
		<path class="st1" d="M151.1,19.6c0.4,1.4,0,3,0,4.4c0,1.1-0.6,3.4,0,4.2c0-0.2,0-0.5,0-0.7"/>
		<path class="st1" d="M151.2,24.5c0.4-1.4,1.6-2.2,2.9-1.4c1.5,0.9,1.4,3.1,1,4.7"/>
		<path class="st1" d="M162.9,23.7c-0.7-2.7-4.3-1.2-5,0.7c-1.6,4.3,5.8,3.9,5.2,1.8"/>
		<path class="st1" d="M163.1,22.3c0,1.2-0.1,2.4-0.1,3.7c0,0.5,0,2.5,0,2.3"/>
		<path class="st1" d="M166,22.4c0,1.8-0.6,3.5-0.6,5.3c-0.1-0.2-0.1-0.4-0.1-0.6"/>
		<path class="st1" d="M165.6,25.4c-0.1-1.5,2.2-2.8,3.4-2.2c1.2,0.6,1.4,4.4,0.6,4.7"/>
		<path class="st1" d="M177.3,24.8c0.6-2.8-3.7-3.5-4.4-0.7c-0.3,1.2-0.2,3.1,1,3.6c1.4,0.6,4.6-1.7,3.5-2.4"/>
		<path class="st1" d="M177.3,22.1c0.6,1.7,0.1,4.9-0.5,6.6c-0.5,1.5-4.4,2.5-3.8,0.8"/>
		<path class="st1" d="M179.3,25.1c1.3,0.6,7.5,0.7,4.8-1.8c-1.9-1.7-4.1-0.1-4.6,1.9c-0.7,2.9,2.6,3.9,4.6,2.3"/>
		<path class="st1" d="M162.9,38.9c-2.3-1.6-5.1,2-3.1,4c1,1,2.8,1.2,3.9,0.1c1.2-1.2,0.1-3.6-1.1-4.6c-0.3,0-0.3,0.2-0.4,0.4"/>
		<path class="st1" d="M169.1,36c-1.8-0.4-2.1,1.5-2.1,2.9c0,0.9,0.1,1.7,0.1,2.5c0,0.3-0.1,2.3-0.1,1.8"/>
		<path class="st1" d="M165.3,38.4c1.1,0.1,2.8,0,3.5,0"/>
		<path class="st1" d="M150.6,51.6c0,1.7-0.2,3.4-0.1,5.1c0,0.8,0.2,3.3,0.3,3.2"/>
		<path class="st1" d="M150.9,56.7c-1-2.3,3.6-2.4,4.7-1c2.4,3.2-3.9,6-4.2,2.5"/>
		<path class="st1" d="M162.4,53.9c0.5,1.9,0.1,4.3,0.1,6c0-0.2,0-0.4,0-0.6"/>
		<path class="st1" d="M162.2,55.9c-1.1-2.2-3.5-1.3-4.4,0.5c-1.3,2.7,2.1,4,4,2.9"/>
		<path class="st1" d="M169,55c-1.9-1.2-5.8,0.5-2.7,1.9c0.9,0.4,2.8,0.9,2.4,2.2c-0.5,1.8-3,0.7-3.7-0.1"/>
		<path class="st1" d="M171.1,54.6c0.1,0.7,0.2,1.4,0.2,2.1c0,0.6-0.7,2.8-0.3,2.5"/>
		<path class="st1" d="M170.8,52.5c0.1,0,0.2,0,0.1,0.1"/>
		<path class="st1" d="M177.3,55.2c-1.5-1.5-4.7,0-2,1.7c0.8,0.5,2,0.5,1.5,2.1c-0.3,1.1-2.5,1.9-2.9,0.4"/>
	</g>
	<g>
		<path class="st1" d="M35.3,71.7c-0.4-2.2,0.1-4.7,0.1-6.9c1.7,0,3.1,0.2,4.8,0.6c-0.3,0-0.3-0.1-0.5-0.3"/>
		<path class="st1" d="M35.4,68.7c0.3,0.4,2.7,0.5,3.5,0.4c-0.1-0.2-0.2-0.1-0.4-0.1"/>
		<path class="st1" d="M35,72.5c1.5,0.2,3.1-0.1,4.6,0c-0.2,0-0.3,0.1-0.5,0.1"/>
		<path class="st1" d="M41.9,67.6c0,1.7,0,3.4,0,5.1c0-0.3,0-0.6,0-1"/>
		<path class="st1" d="M41.9,69.2c0.8-1,2-2.5,3.3-1.8c1.4,0.8,1.1,3.6,0.6,4.9"/>
		<path class="st1" d="M50.2,65.8c-0.2,1.3-1.7,6.4,0.7,6.6c0.1-0.1,0.1-0.3,0.2-0.4"/>
		<path class="st1" d="M48.3,66.9c0.6,0.8,1.8,0.6,2.7,0.6c-0.2,0-0.3,0-0.5,0"/>
		<path class="st1" d="M58.3,67.3c-0.1,1.8,0,3.7,0,5.5"/>
		<path class="st1" d="M57.7,68.2c-1.3-1.8-3.2-1-3.8,0.8c-0.4,1-0.5,2.1,0.3,2.8c0.6,0.5,3.4,0.9,3.1-0.1"/>
		<path class="st1" d="M61.2,67c-0.1,1.7,0.4,3.4,0,5.1c0-0.2,0-0.4,0-0.6"/>
		<path class="st1" d="M61.1,69.3c0.7-0.8,2-2.4,3.3-2c1.3,0.5,0.8,3.7,0.8,5c-0.2-0.1,0-0.1-0.1-0.3"/>
		<path class="st1" d="M73.1,67.2c0,1.5,0.3,4.2-0.3,5.9c-0.9,2.6-2.5,1.7-4.4,1.1"/>
		<path class="st1" d="M73,68.6c-1-2-3-2.1-4.1-0.1c-0.5,0.8-1.1,2.4-0.3,3.2c0.8,0.7,4.4,0.2,3.4-1.2"/>
		<path class="st1" d="M76.1,64.8c0,2.5,0.2,4.9,0,7.3c-0.2-0.1-0.2-0.3-0.3-0.4"/>
		<path class="st1" d="M78.5,69.4c0.4,0.5,3.3,0.7,4,0.3c0.9-0.7,0.3-1.7-0.8-2c-1.3-0.3-3.3,1-3.3,2.5c0,2.4,3.3,2.4,4.9,2
			c-0.3,0-0.4-0.2-0.7-0.3"/>
		<path class="st1" d="M85.7,67c0.1,1.8-0.6,4.4-0.4,5.8"/>
		<path class="st1" d="M85.5,70c-0.2-1.3,2-3,3.2-2.1c1.2,0.9,1.1,3.8,0.6,5c-0.1-0.2-0.1-0.4,0-0.6"/>
		<path class="st1" d="M89.2,70.1c0.1-1.1,2.1-3.3,3.3-2.5c1.1,0.7,0.8,4,0.9,5.1"/>
		<path class="st1" d="M96.7,69.7c1.7,0,3.4,0.1,5.1,0.1c-0.5-1.5-2.3-2.6-3.8-1.8c-1.1,0.7-2,2.2-1.1,3.3c0.9,1.1,2.4,0.9,3.6,0.8
			c-0.1-0.3-0.3-0.3-0.6-0.4"/>
		<path class="st1" d="M103.5,67.3c0,1.7,0.1,3.3-0.3,4.9c0-0.3,0.1-0.6,0.2-1"/>
		<path class="st1" d="M102.9,69.6c0.7-1.4,2.1-2.5,3.6-1.6c1.6,1,1.4,3.6,1.2,5.3c-0.2-0.3,0-0.5,0-0.9"/>
		<path class="st1" d="M111.5,65.2c-0.5,1.3-1.6,7,1,6.8c0.1-0.3-0.1-0.1-0.1-0.3"/>
		<path class="st1" d="M109,67.2c1.1,0,2.7,0.5,3.5,0.3"/>
	</g>
	<g>
		<path class="st1" d="M219.2,8.7c0.4,0-1.1,0-0.6,0c1.8,0.1,3.4-0.2,5.2,0c0.7,0.1,1.4,0.3,1.9-0.3c-1.1,0.1-2.1,1.7-3,2.3
			c-0.9,0.5-1.4,1-2,1.8c1.8,0.3,3.3,1.8,4.9,2.8c-1.4,0.3-2.9,0.1-4.4,0.2c-0.9,0-1.9,0.4-2.7,0.2c0.1-0.1,0.3-0.1,0.4,0"/>
		<path class="st1" d="M221.2,18.5c0,1.3-0.1,2.6,0,3.9c1.8,0,2.8-2.1,1.9-3.6c-2.2-3.7-5.1,1-5,3.5c0.1-0.2,0.2-0.3,0.3-0.5"/>
		<path class="st1" d="M224.2,30c-1.8,0-3.6,0.4-5.4,0.3c0.3,0,0.5,0,0.8,0"/>
		<path class="st1" d="M222.7,29.5c1.5-1.3,0.6-4-1.3-4.4c-2.7-0.6-3.1,2.4-2.3,4.2"/>
		<path class="st1" d="M222.7,36.3c1.8-1.2,0.2-5.9-1.3-3.4c-0.6,1-0.2,2.5-1.9,2.6c-2.1,0.2-2.2-3.6-0.4-3.9"/>
		<path class="st1" d="M223.9,38.4c-1.7-0.1-4.4-0.2-5.1,1.8c-1.1,3.2,4.6,3.1,4.5,2.7"/>
		<path class="st1" d="M223.9,45.5c-1.6,0.4-3.6,0.1-5.2,0c0.4-0.2,0.7-0.2,1.1-0.3"/>
		<path class="st1" d="M222,45.2c0.5,0.7,2.2,2.6,1.1,3.1"/>
		<path class="st1" d="M221.3,49.6c0,1.4,0.1,2.9,0.2,4.4c1.9,0.9,2.6-1,1.8-2.7c-0.6-1.2-1.9-1.7-3.1-1.2c-1.6,0.7-1.1,1.8-1.1,3.4
			c0.1-0.2,0.2-0.4,0.3-0.7"/>
		<path class="st1" d="M224,57.2c-1.7,0-3.6,0.2-5.2-0.3c0.4,0,0.8,0,1.1,0"/>
		<path class="st1" d="M222.3,58.2c0-0.2-0.3-0.2,0-0.3c0.9,0.2,1.6,1.4,1.3,2.3c-0.5,1.5-3.4,1.2-4.5,0.6"/>
		<path class="st1" d="M220.5,60.6c1.6,0.1,2.9,1.7,2.4,3.1c-0.6,1.7-2.8,1.8-4.3,1.4c-0.1-0.1-0.1-0.2,0.2-0.1"/>
		<path class="st1" d="M221.6,67.8c-0.3,1.4-0.3,2.9-0.5,4.2c1.6,0.1,3.4-0.4,2.3-2.6c-0.5-0.9-3-2.4-4-1.9
			c-1.2,0.6-1.2,3.2-0.3,3.8"/>
		<path class="st1" d="M223.9,75c-1.9,0-4.1,0.6-5.9,0c0.2,0,0.4,0,0.7,0"/>
		<path class="st1" d="M222.9,75.3c0.2,0.8,1.5,2.2,0.7,3c-0.9,0.9-3.6-0.1-4.7,0.5c0.1-0.2,0.2-0.2,0.4-0.3"/>
		<path class="st1" d="M225.1,82.6c-1.2-0.6-3.9-1-5.1-0.9c-0.8,0.1-2.6,1.5-1.5,2.1"/>
		<path class="st1" d="M223.6,80.8c0,1,0.1,2-0.2,3c-0.1,0-0.1-0.1-0.2-0.3"/>
	</g>
</g>
<g id="gates_and_stuff">
</g>
</svg>
