<?xml version="1.0" encoding="utf-8"?>
<!-- Generator: Adobe Illustrator 27.2.0, SVG Export Plug-In . SVG Version: 6.00 Build 0)  -->
<svg version="1.1" id="Layer_1" xmlns="http://www.w3.org/2000/svg" xmlns:xlink="http://www.w3.org/1999/xlink" x="0px" y="0px"
	 viewBox="0 0 300 200" style="enable-background:new 0 0 300 200;" xml:space="preserve">
<style type="text/css">
	.st0{fill:#BCBABA;stroke:#000000;stroke-linecap:round;stroke-linejoin:round;stroke-miterlimit:10;}
	.st1{fill:#DAD8D8;stroke:#000000;stroke-linecap:round;stroke-linejoin:round;stroke-miterlimit:10;}
	.st2{fill:#FFBF0C;}
	.st3{fill:#00B1FF;}
	.st4{fill:#FF00D9;}
	.st5{fill:none;stroke:#000000;stroke-linecap:round;stroke-linejoin:round;stroke-miterlimit:10;}
	.st6{fill:#70CEFF;stroke:#000000;stroke-linecap:round;stroke-linejoin:round;stroke-miterlimit:10;}
	.st7{fill:#FFE096;stroke:#000000;stroke-linecap:round;stroke-linejoin:round;stroke-miterlimit:10;}
	.st8{fill:#FFEEBF;stroke:#000000;stroke-linecap:round;stroke-linejoin:round;stroke-miterlimit:10;}
	.st9{fill:#FFFFFF;stroke:#000000;stroke-linecap:round;stroke-linejoin:round;stroke-miterlimit:10;}
	.st10{fill:#E7F6FD;}
	.st11{fill:#D7A2F6;}
	.st12{opacity:0.7;fill:#FFFFFF;}
	.st13{fill:#ACE3FF;stroke:#000000;stroke-linecap:round;stroke-linejoin:round;stroke-miterlimit:10;}
	.st14{fill:#00B1FF;stroke:#000000;stroke-linecap:round;stroke-linejoin:round;stroke-miterlimit:10;}
	.st15{fill:#FF87EB;stroke:#000000;stroke-linecap:round;stroke-linejoin:round;stroke-miterlimit:10;}
</style>
<g>
	<path class="st0" d="M93.5,14.2c-1-0.1-2-0.4-3-0.3c-0.4,0-0.8,0-1.2,0c-1.2,0-2.4,0-3.6,0.1c-0.6,0-1.2,0-1.8-0.1
		c-0.5,0-1,0.1-1.5,0.1c-1.1,0-2.2-0.1-3.3,0c-0.5,0-1,0.1-1.4,0.1c-0.5,0-1.1,0-1.6,0c-0.5,0-1,0.1-1.5,0.1c-0.6,0-1.3-0.1-1.9-0.1
		c-2.1,0-4.2,0-6.3,0c-1,0-2,0.1-3,0.1c-1.2-0.1-2.4,0-3.6,0.1c-1.2,0-2.4,0.2-3.6,0.1c-1,0-2-0.1-3.1-0.2c-3.1-0.2-6.2-0.2-9.4-0.1
		c-0.5,0-1,0.1-1.6,0.1c-0.4,0-0.9-0.1-1.3,0c-0.2,0-0.4,0-0.6,0c-0.3,0-0.6,0.3-0.8,0.5c-0.8,0.7-1.8,1.2-2.7,1.9
		c-0.8,0.6-1.5,1.3-2.2,1.9c-0.6,0.5-1.2,1-1.8,1.6c-0.8,0.7-1.4,1.5-2.1,2.3c-0.7,0.8-1.3,1.5-2.1,2.2c-0.7,0.7-1.5,1.3-2.2,2
		c-0.8,0.8-1.5,1.6-2.2,2.6c-0.6,1-1.5,1.6-2.3,2.4c-0.4,0.3-0.1,0.5,0.1,0.9c0.3,0.6,0.5,1.3,0.9,1.9c0.7,1.5,1.8,2.8,3.1,3.8
		c1.9,1.4,4.3,2.2,6.5,3.1c1.7,0.6,3.3,1.2,5,1.5c2.3,0.4,4.6,0.7,6.9,1c2.3,0.3,4.7,0.7,7,0.8c1,0.1,2,0.1,3,0.2
		c1.5,0.1,2.9,0,4.4,0.1c2.1,0.2,4.3,0,6.4-0.1c2.8-0.2,5.6-0.3,8.4-0.4c2.6-0.1,5.3-0.3,7.9-0.6c2.5-0.3,5-0.3,7.5-0.7
		c2-0.4,3.9-0.7,5.9-1.1c1-0.2,1.9-0.5,2.9-0.7c0.8-0.2,1.6-0.2,2.4-0.5c1.8-0.6,3.6-1,5.1-2.1c0.7-0.5,1.4-0.9,2.1-1.2
		c0.6-0.3,1.1-0.8,1.6-1.2c0.4-0.3,0.9-0.6,1.2-0.9c0.2-0.3,0.4-0.6,0.7-0.8c0.4-0.4,0.7-0.7,1-1.3c0.2-0.3,0.3-0.7,0.4-1.1
		c0.1-0.2,0.2-0.3,0.1-0.5c-0.1-0.2-0.6-0.5-0.8-0.6c-0.7-0.6-1.4-1.1-2.1-1.8c-0.3-0.3-0.5-0.5-0.8-0.8c-0.4-0.3-0.7-0.7-1.1-1
		c-0.4-0.4-0.9-0.7-1.3-1.1c-0.4-0.4-0.8-0.9-1.1-1.4c-0.6-0.7-1.2-1.5-1.8-2.3c-0.6-0.7-1.3-1.1-1.9-1.8c-0.5-0.6-1.1-1-1.7-1.5
		c-1.1-1-2.1-2-3.3-2.9c-0.7-0.6-1.4-1.3-2.1-1.8C94.1,14.4,93.7,14.2,93.5,14.2z"/>
	<path class="st1" d="M21.5,32.6C21.4,38.4,21,44,21,49.8c0,4.3,0,8.6,0,12.9c0,2.5,0.2,5.1,0.2,7.6c0,1.3,0.1,2.5,0.2,3.7
		c0.1,1.3-0.1,2.7,0,4c0.5,4.8,0.5,9.8,0.8,14.7c0.3,4.8,0,9.7,0,14.5c0,6.5-0.2,12.9-0.2,19.4c0,5.4,0,10.9,0,16.3
		c0,2.9,0,5.7,0,8.6c0,2.6,0.1,5.3-0.2,8c-0.3,2.6-0.3,5.2-0.3,7.8c0,2.9-0.2,5.7-0.2,8.6c0,2.8-0.2,5.5-0.3,8.8c0.9,0,2.9,0,3.9,0
		c0.8,0,2-0.2,2.2,0.3c1.5-0.1,4-0.6,5.6,0c0.5,0.2,0.9,0.5,1.5,0.6c1.7,0.3,3.8,0,5.6,0c6,0,11.9,0,17.9,0c3.7,0,7.5-0.2,11.2-0.2
		c4.7,0,9.3,0.6,13.9,0.6c6.6,0,13.3,0,19.9,0c3,0,6.2,0.3,9.2,0c0.3-1.6,0.2-3.3,0.4-5c0.2-1.5,0.1-3.1,0.1-4.6
		c0-1.7-0.2-3.1-0.6-4.7c-0.5-1.8-0.3-3.7-0.5-5.6c-0.3-2.1-0.5-4.2-0.5-6.3c0-2.5-0.3-4.9-0.3-7.5c0-2.6,0-5.3,0-7.9
		c0-2.8,0.5-5.5,0.5-8.3c0-2.6-0.2-5.3,0-8c0.3-3.1,0.2-6.2,0.7-9.2c0.3-1.5,0.3-3.1,0.5-4.6c0.2-1.7,0.5-3.2,0.5-4.9
		c0-3,0.2-6,0.2-9.1c0-7.2,0.1-14.4-0.2-21.5c-0.1-1.6,0-3.2,0-4.7c0-1.6-0.3-3.2-0.3-4.8c0-3-0.5-6-0.5-9.1c0-3.7,0-7.5,0-11.2
		c0-3-0.2-6.2,0.2-9.2c0.2-1.8,0.5-3.4,0.5-5.2c0-1.1,0-2.1-0.2-3.3c-1.9-0.1-4-0.4-6-0.1c-0.8,0.1-1.6,0.4-2.4,0.5
		c-1.1,0.1-2.2,0.2-3.3,0.2c-3.2,0-6.4,0-9.5,0c-7.2,0-14.3,0-21.5,0c-12.6,0-25.2,0-37.8,0c-2.2,0-4.4,0-6.6,0c-0.8,0-1.6,0-2.3,0
		c-0.4,0-0.8-0.1-1.1,0C21.5,32,21.4,32.4,21.5,32.6z"/>
	<g>
		<g>
			<rect x="31.7" y="95.4" class="st2" width="4" height="4"/>
			<rect x="35.7" y="95.4" class="st3" width="4" height="4"/>
			<rect x="31.7" y="99.4" class="st4" width="4" height="4"/>
			<rect x="35.7" y="99.4" class="st2" width="4" height="4"/>
			<rect x="39.7" y="95.4" class="st4" width="4" height="4"/>
			<rect x="43.7" y="95.4" class="st2" width="4" height="4"/>
			<rect x="39.7" y="99.4" class="st3" width="4" height="4"/>
			<rect x="43.7" y="99.4" class="st4" width="4" height="4"/>
			<rect x="47.7" y="95.4" class="st4" width="4" height="4"/>
			<rect x="51.7" y="95.4" class="st4" width="4" height="4"/>
			<rect x="47.7" y="99.4" class="st3" width="4" height="4"/>
			<rect x="51.7" y="99.4" class="st2" width="4" height="4"/>
			<rect x="55.7" y="95.4" class="st3" width="4" height="4"/>
			<rect x="59.7" y="95.4" class="st4" width="4" height="4"/>
			<rect x="55.7" y="99.4" class="st2" width="4" height="4"/>
			<rect x="59.7" y="99.4" class="st3" width="4" height="4"/>
			<rect x="63.7" y="95.4" class="st2" width="4" height="4"/>
			<rect x="67.7" y="95.4" class="st4" width="4" height="4"/>
			<rect x="63.7" y="99.4" class="st4" width="4" height="4"/>
			<rect x="67.7" y="99.4" class="st3" width="4" height="4"/>
			<rect x="71.7" y="95.4" class="st2" width="4" height="4"/>
			<rect x="75.7" y="95.4" class="st4" width="4" height="4"/>
			<rect x="71.7" y="99.4" class="st3" width="4" height="4"/>
			<rect x="75.7" y="99.4" class="st2" width="4" height="4"/>
			<rect x="79.7" y="95.4" class="st3" width="4" height="4"/>
			<rect x="83.7" y="95.4" class="st2" width="4" height="4"/>
			<rect x="79.7" y="99.4" class="st3" width="4" height="4"/>
			<rect x="83.7" y="99.4" class="st4" width="4" height="4"/>
			<rect x="87.7" y="95.4" class="st2" width="4" height="4"/>
			<rect x="91.7" y="95.4" class="st3" width="4" height="4"/>
			<rect x="87.7" y="99.4" class="st3" width="4" height="4"/>
			<rect x="91.7" y="99.4" class="st4" width="4" height="4"/>
			<rect x="95.7" y="95.4" class="st4" width="4" height="4"/>
			<rect x="99.7" y="95.4" class="st2" width="4" height="4"/>
			<rect x="95.7" y="99.4" class="st2" width="4" height="4"/>
			<rect x="99.7" y="99.4" class="st3" width="4" height="4"/>
		</g>
		<g>
			<rect x="98.7" y="131.6" class="st2" width="4" height="4"/>
			<rect x="94.7" y="131.6" class="st3" width="4" height="4"/>
			<rect x="98.7" y="135.6" class="st4" width="4" height="4"/>
			<rect x="94.7" y="135.6" class="st2" width="4" height="4"/>
			<rect x="90.7" y="131.6" class="st4" width="4" height="4"/>
			<rect x="86.7" y="131.6" class="st2" width="4" height="4"/>
			<rect x="90.7" y="135.6" class="st3" width="4" height="4"/>
			<rect x="86.7" y="135.6" class="st4" width="4" height="4"/>
			<rect x="82.7" y="131.6" class="st4" width="4" height="4"/>
			<rect x="78.7" y="131.6" class="st4" width="4" height="4"/>
			<rect x="82.7" y="135.6" class="st3" width="4" height="4"/>
			<rect x="78.7" y="135.6" class="st2" width="4" height="4"/>
			<rect x="74.7" y="131.6" class="st3" width="4" height="4"/>
			<rect x="70.7" y="131.6" class="st4" width="4" height="4"/>
			<rect x="74.7" y="135.6" class="st2" width="4" height="4"/>
			<rect x="70.7" y="135.6" class="st3" width="4" height="4"/>
			<rect x="66.7" y="131.6" class="st2" width="4" height="4"/>
			<rect x="62.7" y="131.6" class="st4" width="4" height="4"/>
			<rect x="66.7" y="135.6" class="st4" width="4" height="4"/>
			<rect x="62.7" y="135.6" class="st3" width="4" height="4"/>
			<rect x="58.7" y="131.6" class="st2" width="4" height="4"/>
			<rect x="54.7" y="131.6" class="st4" width="4" height="4"/>
			<rect x="58.7" y="135.6" class="st3" width="4" height="4"/>
			<rect x="54.7" y="135.6" class="st2" width="4" height="4"/>
			<rect x="50.7" y="131.6" class="st3" width="4" height="4"/>
			<rect x="46.7" y="131.6" class="st2" width="4" height="4"/>
			<rect x="50.7" y="135.6" class="st3" width="4" height="4"/>
			<rect x="46.7" y="135.6" class="st4" width="4" height="4"/>
			<rect x="42.7" y="131.6" class="st2" width="4" height="4"/>
			<rect x="38.7" y="131.6" class="st3" width="4" height="4"/>
			<rect x="42.7" y="135.6" class="st3" width="4" height="4"/>
			<rect x="38.7" y="135.6" class="st4" width="4" height="4"/>
			<rect x="34.7" y="131.6" class="st4" width="4" height="4"/>
			<rect x="30.7" y="131.6" class="st2" width="4" height="4"/>
			<rect x="34.7" y="135.6" class="st2" width="4" height="4"/>
			<rect x="30.7" y="135.6" class="st3" width="4" height="4"/>
		</g>
		<g>
			
				<rect x="99.7" y="117.9" transform="matrix(-1 -1.224647e-16 1.224647e-16 -1 203.4574 239.7724)" class="st2" width="4" height="4"/>
			
				<rect x="95.7" y="117.9" transform="matrix(-1 -1.224647e-16 1.224647e-16 -1 195.4574 239.7724)" class="st3" width="4" height="4"/>
			
				<rect x="99.7" y="113.9" transform="matrix(-1 -1.224647e-16 1.224647e-16 -1 203.4574 231.7724)" class="st4" width="4" height="4"/>
			
				<rect x="95.7" y="113.9" transform="matrix(-1 -1.224647e-16 1.224647e-16 -1 195.4574 231.7724)" class="st2" width="4" height="4"/>
			
				<rect x="91.7" y="117.9" transform="matrix(-1 -1.224647e-16 1.224647e-16 -1 187.4574 239.7724)" class="st4" width="4" height="4"/>
			
				<rect x="87.7" y="117.9" transform="matrix(-1 -1.224647e-16 1.224647e-16 -1 179.4574 239.7724)" class="st2" width="4" height="4"/>
			
				<rect x="91.7" y="113.9" transform="matrix(-1 -1.224647e-16 1.224647e-16 -1 187.4574 231.7724)" class="st3" width="4" height="4"/>
			
				<rect x="87.7" y="113.9" transform="matrix(-1 -1.224647e-16 1.224647e-16 -1 179.4574 231.7724)" class="st4" width="4" height="4"/>
			
				<rect x="83.7" y="117.9" transform="matrix(-1 -1.224647e-16 1.224647e-16 -1 171.4574 239.7724)" class="st4" width="4" height="4"/>
			
				<rect x="79.7" y="117.9" transform="matrix(-1 -1.224647e-16 1.224647e-16 -1 163.4574 239.7724)" class="st4" width="4" height="4"/>
			
				<rect x="83.7" y="113.9" transform="matrix(-1 -1.224647e-16 1.224647e-16 -1 171.4574 231.7724)" class="st3" width="4" height="4"/>
			
				<rect x="79.7" y="113.9" transform="matrix(-1 -1.224647e-16 1.224647e-16 -1 163.4574 231.7724)" class="st2" width="4" height="4"/>
			
				<rect x="75.7" y="117.9" transform="matrix(-1 -1.224647e-16 1.224647e-16 -1 155.4574 239.7724)" class="st3" width="4" height="4"/>
			
				<rect x="71.7" y="117.9" transform="matrix(-1 -1.224647e-16 1.224647e-16 -1 147.4574 239.7724)" class="st4" width="4" height="4"/>
			
				<rect x="75.7" y="113.9" transform="matrix(-1 -1.224647e-16 1.224647e-16 -1 155.4574 231.7724)" class="st2" width="4" height="4"/>
			
				<rect x="71.7" y="113.9" transform="matrix(-1 -1.224647e-16 1.224647e-16 -1 147.4574 231.7724)" class="st3" width="4" height="4"/>
			
				<rect x="67.7" y="117.9" transform="matrix(-1 -1.224647e-16 1.224647e-16 -1 139.4574 239.7724)" class="st2" width="4" height="4"/>
			
				<rect x="63.7" y="117.9" transform="matrix(-1 -1.224647e-16 1.224647e-16 -1 131.4574 239.7724)" class="st4" width="4" height="4"/>
			
				<rect x="67.7" y="113.9" transform="matrix(-1 -1.224647e-16 1.224647e-16 -1 139.4574 231.7724)" class="st4" width="4" height="4"/>
			
				<rect x="63.7" y="113.9" transform="matrix(-1 -1.224647e-16 1.224647e-16 -1 131.4574 231.7724)" class="st3" width="4" height="4"/>
			
				<rect x="59.7" y="117.9" transform="matrix(-1 -1.224647e-16 1.224647e-16 -1 123.4574 239.7724)" class="st2" width="4" height="4"/>
			
				<rect x="55.7" y="117.9" transform="matrix(-1 -1.224647e-16 1.224647e-16 -1 115.4574 239.7724)" class="st4" width="4" height="4"/>
			
				<rect x="59.7" y="113.9" transform="matrix(-1 -1.224647e-16 1.224647e-16 -1 123.4574 231.7724)" class="st3" width="4" height="4"/>
			
				<rect x="55.7" y="113.9" transform="matrix(-1 -1.224647e-16 1.224647e-16 -1 115.4574 231.7724)" class="st2" width="4" height="4"/>
			
				<rect x="51.7" y="117.9" transform="matrix(-1 -1.224647e-16 1.224647e-16 -1 107.4574 239.7724)" class="st3" width="4" height="4"/>
			
				<rect x="47.7" y="117.9" transform="matrix(-1 -1.224647e-16 1.224647e-16 -1 99.4574 239.7724)" class="st2" width="4" height="4"/>
			
				<rect x="51.7" y="113.9" transform="matrix(-1 -1.224647e-16 1.224647e-16 -1 107.4574 231.7724)" class="st3" width="4" height="4"/>
			
				<rect x="47.7" y="113.9" transform="matrix(-1 -1.224647e-16 1.224647e-16 -1 99.4574 231.7724)" class="st4" width="4" height="4"/>
			
				<rect x="43.7" y="117.9" transform="matrix(-1 -1.224647e-16 1.224647e-16 -1 91.4574 239.7724)" class="st2" width="4" height="4"/>
			
				<rect x="39.7" y="117.9" transform="matrix(-1 -1.224647e-16 1.224647e-16 -1 83.4574 239.7724)" class="st3" width="4" height="4"/>
			
				<rect x="43.7" y="113.9" transform="matrix(-1 -1.224647e-16 1.224647e-16 -1 91.4574 231.7724)" class="st3" width="4" height="4"/>
			
				<rect x="39.7" y="113.9" transform="matrix(-1 -1.224647e-16 1.224647e-16 -1 83.4574 231.7724)" class="st4" width="4" height="4"/>
			
				<rect x="35.7" y="117.9" transform="matrix(-1 -1.224647e-16 1.224647e-16 -1 75.4574 239.7724)" class="st4" width="4" height="4"/>
			
				<rect x="31.7" y="117.9" transform="matrix(-1 -1.224647e-16 1.224647e-16 -1 67.4574 239.7724)" class="st2" width="4" height="4"/>
			
				<rect x="35.7" y="113.9" transform="matrix(-1 -1.224647e-16 1.224647e-16 -1 75.4574 231.7724)" class="st2" width="4" height="4"/>
			
				<rect x="31.7" y="113.9" transform="matrix(-1 -1.224647e-16 1.224647e-16 -1 67.4574 231.7724)" class="st3" width="4" height="4"/>
		</g>
		<g>
			
				<rect x="99.5" y="153.4" transform="matrix(-1 -1.224647e-16 1.224647e-16 -1 202.9574 310.7724)" class="st2" width="4" height="4"/>
			
				<rect x="95.5" y="153.4" transform="matrix(-1 -1.224647e-16 1.224647e-16 -1 194.9574 310.7724)" class="st3" width="4" height="4"/>
			
				<rect x="99.5" y="149.4" transform="matrix(-1 -1.224647e-16 1.224647e-16 -1 202.9574 302.7724)" class="st4" width="4" height="4"/>
			
				<rect x="95.5" y="149.4" transform="matrix(-1 -1.224647e-16 1.224647e-16 -1 194.9574 302.7724)" class="st2" width="4" height="4"/>
			
				<rect x="91.5" y="153.4" transform="matrix(-1 -1.224647e-16 1.224647e-16 -1 186.9574 310.7724)" class="st4" width="4" height="4"/>
			
				<rect x="87.5" y="153.4" transform="matrix(-1 -1.224647e-16 1.224647e-16 -1 178.9574 310.7724)" class="st2" width="4" height="4"/>
			
				<rect x="91.5" y="149.4" transform="matrix(-1 -1.224647e-16 1.224647e-16 -1 186.9574 302.7724)" class="st3" width="4" height="4"/>
			
				<rect x="87.5" y="149.4" transform="matrix(-1 -1.224647e-16 1.224647e-16 -1 178.9574 302.7724)" class="st4" width="4" height="4"/>
			
				<rect x="83.5" y="153.4" transform="matrix(-1 -1.224647e-16 1.224647e-16 -1 170.9574 310.7724)" class="st4" width="4" height="4"/>
			
				<rect x="79.5" y="153.4" transform="matrix(-1 -1.224647e-16 1.224647e-16 -1 162.9574 310.7724)" class="st4" width="4" height="4"/>
			
				<rect x="83.5" y="149.4" transform="matrix(-1 -1.224647e-16 1.224647e-16 -1 170.9574 302.7724)" class="st3" width="4" height="4"/>
			
				<rect x="79.5" y="149.4" transform="matrix(-1 -1.224647e-16 1.224647e-16 -1 162.9574 302.7724)" class="st2" width="4" height="4"/>
			
				<rect x="75.5" y="153.4" transform="matrix(-1 -1.224647e-16 1.224647e-16 -1 154.9574 310.7724)" class="st3" width="4" height="4"/>
			
				<rect x="71.5" y="153.4" transform="matrix(-1 -1.224647e-16 1.224647e-16 -1 146.9574 310.7724)" class="st4" width="4" height="4"/>
			
				<rect x="75.5" y="149.4" transform="matrix(-1 -1.224647e-16 1.224647e-16 -1 154.9574 302.7724)" class="st2" width="4" height="4"/>
			
				<rect x="71.5" y="149.4" transform="matrix(-1 -1.224647e-16 1.224647e-16 -1 146.9574 302.7724)" class="st3" width="4" height="4"/>
			
				<rect x="67.5" y="153.4" transform="matrix(-1 -1.224647e-16 1.224647e-16 -1 138.9574 310.7724)" class="st2" width="4" height="4"/>
			
				<rect x="63.5" y="153.4" transform="matrix(-1 -1.224647e-16 1.224647e-16 -1 130.9574 310.7724)" class="st4" width="4" height="4"/>
			
				<rect x="67.5" y="149.4" transform="matrix(-1 -1.224647e-16 1.224647e-16 -1 138.9574 302.7724)" class="st4" width="4" height="4"/>
			
				<rect x="63.5" y="149.4" transform="matrix(-1 -1.224647e-16 1.224647e-16 -1 130.9574 302.7724)" class="st3" width="4" height="4"/>
			
				<rect x="59.5" y="153.4" transform="matrix(-1 -1.224647e-16 1.224647e-16 -1 122.9574 310.7724)" class="st2" width="4" height="4"/>
			
				<rect x="55.5" y="153.4" transform="matrix(-1 -1.224647e-16 1.224647e-16 -1 114.9574 310.7724)" class="st4" width="4" height="4"/>
			
				<rect x="59.5" y="149.4" transform="matrix(-1 -1.224647e-16 1.224647e-16 -1 122.9574 302.7724)" class="st3" width="4" height="4"/>
			
				<rect x="55.5" y="149.4" transform="matrix(-1 -1.224647e-16 1.224647e-16 -1 114.9574 302.7724)" class="st2" width="4" height="4"/>
			
				<rect x="51.5" y="153.4" transform="matrix(-1 -1.224647e-16 1.224647e-16 -1 106.9574 310.7724)" class="st3" width="4" height="4"/>
			
				<rect x="47.5" y="153.4" transform="matrix(-1 -1.224647e-16 1.224647e-16 -1 98.9574 310.7724)" class="st2" width="4" height="4"/>
			
				<rect x="51.5" y="149.4" transform="matrix(-1 -1.224647e-16 1.224647e-16 -1 106.9574 302.7724)" class="st3" width="4" height="4"/>
			
				<rect x="47.5" y="149.4" transform="matrix(-1 -1.224647e-16 1.224647e-16 -1 98.9574 302.7724)" class="st4" width="4" height="4"/>
			
				<rect x="43.5" y="153.4" transform="matrix(-1 -1.224647e-16 1.224647e-16 -1 90.9574 310.7724)" class="st2" width="4" height="4"/>
			
				<rect x="39.5" y="153.4" transform="matrix(-1 -1.224647e-16 1.224647e-16 -1 82.9574 310.7724)" class="st3" width="4" height="4"/>
			
				<rect x="43.5" y="149.4" transform="matrix(-1 -1.224647e-16 1.224647e-16 -1 90.9574 302.7724)" class="st3" width="4" height="4"/>
			
				<rect x="39.5" y="149.4" transform="matrix(-1 -1.224647e-16 1.224647e-16 -1 82.9574 302.7724)" class="st4" width="4" height="4"/>
			
				<rect x="35.5" y="153.4" transform="matrix(-1 -1.224647e-16 1.224647e-16 -1 74.9574 310.7724)" class="st4" width="4" height="4"/>
			
				<rect x="31.5" y="153.4" transform="matrix(-1 -1.224647e-16 1.224647e-16 -1 66.9574 310.7724)" class="st2" width="4" height="4"/>
			
				<rect x="35.5" y="149.4" transform="matrix(-1 -1.224647e-16 1.224647e-16 -1 74.9574 302.7724)" class="st2" width="4" height="4"/>
			
				<rect x="31.5" y="149.4" transform="matrix(-1 -1.224647e-16 1.224647e-16 -1 66.9574 302.7724)" class="st3" width="4" height="4"/>
		</g>
		<g>
			
				<rect x="31.7" y="171.4" transform="matrix(-1 -1.224647e-16 1.224647e-16 -1 67.4574 346.7724)" class="st2" width="4" height="4"/>
			
				<rect x="35.7" y="171.4" transform="matrix(-1 -1.224647e-16 1.224647e-16 -1 75.4574 346.7724)" class="st3" width="4" height="4"/>
			
				<rect x="31.7" y="167.4" transform="matrix(-1 -1.224647e-16 1.224647e-16 -1 67.4574 338.7724)" class="st4" width="4" height="4"/>
			
				<rect x="35.7" y="167.4" transform="matrix(-1 -1.224647e-16 1.224647e-16 -1 75.4574 338.7724)" class="st2" width="4" height="4"/>
			
				<rect x="39.7" y="171.4" transform="matrix(-1 -1.224647e-16 1.224647e-16 -1 83.4574 346.7724)" class="st4" width="4" height="4"/>
			
				<rect x="43.7" y="171.4" transform="matrix(-1 -1.224647e-16 1.224647e-16 -1 91.4574 346.7724)" class="st2" width="4" height="4"/>
			
				<rect x="39.7" y="167.4" transform="matrix(-1 -1.224647e-16 1.224647e-16 -1 83.4574 338.7724)" class="st3" width="4" height="4"/>
			
				<rect x="43.7" y="167.4" transform="matrix(-1 -1.224647e-16 1.224647e-16 -1 91.4574 338.7724)" class="st4" width="4" height="4"/>
			
				<rect x="47.7" y="171.4" transform="matrix(-1 -1.224647e-16 1.224647e-16 -1 99.4574 346.7724)" class="st4" width="4" height="4"/>
			
				<rect x="51.7" y="171.4" transform="matrix(-1 -1.224647e-16 1.224647e-16 -1 107.4574 346.7724)" class="st4" width="4" height="4"/>
			
				<rect x="47.7" y="167.4" transform="matrix(-1 -1.224647e-16 1.224647e-16 -1 99.4574 338.7724)" class="st3" width="4" height="4"/>
			
				<rect x="51.7" y="167.4" transform="matrix(-1 -1.224647e-16 1.224647e-16 -1 107.4574 338.7724)" class="st2" width="4" height="4"/>
			
				<rect x="55.7" y="171.4" transform="matrix(-1 -1.224647e-16 1.224647e-16 -1 115.4574 346.7724)" class="st3" width="4" height="4"/>
			
				<rect x="59.7" y="171.4" transform="matrix(-1 -1.224647e-16 1.224647e-16 -1 123.4574 346.7724)" class="st4" width="4" height="4"/>
			
				<rect x="55.7" y="167.4" transform="matrix(-1 -1.224647e-16 1.224647e-16 -1 115.4574 338.7724)" class="st2" width="4" height="4"/>
			
				<rect x="59.7" y="167.4" transform="matrix(-1 -1.224647e-16 1.224647e-16 -1 123.4574 338.7724)" class="st3" width="4" height="4"/>
			
				<rect x="63.7" y="171.4" transform="matrix(-1 -1.224647e-16 1.224647e-16 -1 131.4574 346.7724)" class="st2" width="4" height="4"/>
			
				<rect x="67.7" y="171.4" transform="matrix(-1 -1.224647e-16 1.224647e-16 -1 139.4574 346.7724)" class="st4" width="4" height="4"/>
			
				<rect x="63.7" y="167.4" transform="matrix(-1 -1.224647e-16 1.224647e-16 -1 131.4574 338.7724)" class="st4" width="4" height="4"/>
			
				<rect x="67.7" y="167.4" transform="matrix(-1 -1.224647e-16 1.224647e-16 -1 139.4574 338.7724)" class="st3" width="4" height="4"/>
			
				<rect x="71.7" y="171.4" transform="matrix(-1 -1.224647e-16 1.224647e-16 -1 147.4574 346.7724)" class="st2" width="4" height="4"/>
			
				<rect x="75.7" y="171.4" transform="matrix(-1 -1.224647e-16 1.224647e-16 -1 155.4574 346.7724)" class="st4" width="4" height="4"/>
			
				<rect x="71.7" y="167.4" transform="matrix(-1 -1.224647e-16 1.224647e-16 -1 147.4574 338.7724)" class="st3" width="4" height="4"/>
			
				<rect x="75.7" y="167.4" transform="matrix(-1 -1.224647e-16 1.224647e-16 -1 155.4574 338.7724)" class="st2" width="4" height="4"/>
			
				<rect x="79.7" y="171.4" transform="matrix(-1 -1.224647e-16 1.224647e-16 -1 163.4574 346.7724)" class="st3" width="4" height="4"/>
			
				<rect x="83.7" y="171.4" transform="matrix(-1 -1.224647e-16 1.224647e-16 -1 171.4574 346.7724)" class="st2" width="4" height="4"/>
			
				<rect x="79.7" y="167.4" transform="matrix(-1 -1.224647e-16 1.224647e-16 -1 163.4574 338.7724)" class="st3" width="4" height="4"/>
			
				<rect x="83.7" y="167.4" transform="matrix(-1 -1.224647e-16 1.224647e-16 -1 171.4574 338.7724)" class="st4" width="4" height="4"/>
			
				<rect x="87.7" y="171.4" transform="matrix(-1 -1.224647e-16 1.224647e-16 -1 179.4574 346.7724)" class="st2" width="4" height="4"/>
			
				<rect x="91.7" y="171.4" transform="matrix(-1 -1.224647e-16 1.224647e-16 -1 187.4574 346.7724)" class="st3" width="4" height="4"/>
			
				<rect x="87.7" y="167.4" transform="matrix(-1 -1.224647e-16 1.224647e-16 -1 179.4574 338.7724)" class="st3" width="4" height="4"/>
			
				<rect x="91.7" y="167.4" transform="matrix(-1 -1.224647e-16 1.224647e-16 -1 187.4574 338.7724)" class="st4" width="4" height="4"/>
			
				<rect x="95.7" y="171.4" transform="matrix(-1 -1.224647e-16 1.224647e-16 -1 195.4574 346.7724)" class="st4" width="4" height="4"/>
			
				<rect x="99.7" y="171.4" transform="matrix(-1 -1.224647e-16 1.224647e-16 -1 203.4574 346.7724)" class="st2" width="4" height="4"/>
			
				<rect x="95.7" y="167.4" transform="matrix(-1 -1.224647e-16 1.224647e-16 -1 195.4574 338.7724)" class="st2" width="4" height="4"/>
			
				<rect x="99.7" y="167.4" transform="matrix(-1 -1.224647e-16 1.224647e-16 -1 203.4574 338.7724)" class="st3" width="4" height="4"/>
		</g>
	</g>
	<g>
		<path class="st5" d="M102.8,94.9c-1.1,0-2.4-0.1-3.5,0.1c-0.3,0.1-0.6,0.1-0.9,0.1c-0.5,0-1,0-1.6,0c-1.1,0-2.3,0.1-3.4,0.1
			c-1.3,0.1-2.5,0.3-3.7,0.3c-1.8-0.1-3.5,0-5.3-0.1c-0.8-0.1-1.6-0.2-2.4-0.2c-1,0-2.1,0.2-3.1,0.1c-0.9,0-1.8-0.2-2.8-0.2
			c-1.1,0-2.1,0-3.2,0c-1.2,0-2.5,0-3.7,0.1c-1.6,0-3.1-0.1-4.7,0c-2,0.1-4-0.1-6,0c-1.9,0-3.8-0.2-5.8,0c-1.6,0.1-3.1-0.1-4.7-0.1
			c-0.5,0-0.9,0.2-1.3,0.2c-0.5,0-1-0.1-1.4,0c-1.2,0.1-2.4,0.1-3.6,0.3c-1.4,0.2-2.9,0-4.3-0.1c-1.1-0.1-2.2,0-3.3-0.1
			c-0.6-0.1-1.1-0.1-1.6-0.1c-0.2,0-0.4-0.1-0.6,0c-0.4,0.2-0.3,1.4-0.4,1.7c0,0.6-0.1,1.1-0.1,1.7c0,0.3,0.1,0.6,0.2,0.9
			c0,0.6,0,1.3-0.1,1.9c0,0.4-0.1,0.8-0.1,1.2c0,0.3-0.2,0.9-0.1,1.1c0.4,0.7,1.9,0.1,2.5,0c0.4,0,0.5,0.1,0.8,0.1
			c0.4,0.1,0.8,0,1.2,0c0.8,0,1.6,0,2.3,0c1.5,0,2.9,0.4,4.4,0.3c1.5-0.1,3.2,0.3,4.7,0c0.9-0.2,1.8-0.4,2.7-0.3
			c1.2,0.1,2.5,0.2,3.7,0c1.9-0.2,3.9,0,5.8-0.2c1-0.1,2.1,0,3.2,0c1.1,0,2.3,0,3.4,0c3.2,0,6.4,0.6,9.6,0.7c1.1,0,2.1-0.2,3.3-0.1
			c1.1,0.1,2.2,0,3.3-0.1c1.4-0.1,2.8-0.1,4.2-0.1c1.5,0,2.9-0.3,4.4-0.1c1.6,0.2,3.1-0.2,4.7-0.2c0.7,0,1.4,0.1,2.1,0.1
			c0.5,0,1-0.1,1.5-0.1c1.2,0.2,2.4,0.2,3.5,0.3c0.4,0,1,0.2,1.2-0.2c0.1-0.2-0.2-0.8-0.2-1c0-0.5,0-0.9,0-1.4
			c-0.1-1.2-0.1-2.2-0.5-3.4c-0.1-0.5-0.2-1-0.2-1.5C102.9,96,103,95.5,102.8,94.9z"/>
		<path class="st5" d="M102.6,112.9c-1,0.1-2.1,0.3-3.1,0.3c-0.2,0-0.3,0-0.5,0c-0.6,0.1-1.2,0-1.8-0.1c-0.6-0.1-1.2,0-1.8,0.1
			c-0.7,0.1-1.4,0-2.1,0c-1.3-0.1-2.5,0-3.8,0c-1,0-1.9-0.1-2.9-0.1c-0.8,0-1.7,0-2.5,0c-0.5,0-1,0.1-1.5,0.1
			c-0.5,0-0.9-0.1-1.4-0.1c-0.5,0-1,0.1-1.5,0.1c-0.7,0-1.4,0-2.1,0c-2,0.1-4-0.2-6.1-0.1c-1.5,0-3.1,0.1-4.6,0
			c-0.4,0-0.8-0.1-1.1-0.1c-0.4,0-0.7,0.1-1.1,0.1c-0.9,0-1.8,0-2.7,0c-1,0.1-2,0-3,0.1c-0.9,0.1-1.7-0.1-2.6,0
			c-1.7,0.1-3.5-0.1-5.2-0.1c-0.8,0-1.5,0-2.3,0c-0.9-0.1-1.7,0-2.6,0c-1.5,0-3-0.2-4.5-0.2c-1.2,0-2.5-0.2-3.7-0.2c-1,0.1-2,0-3,0
			c-0.8,0.1-1.7-0.1-2.5,0c-0.3,0-0.5,0.1-0.8,0c-0.1,0-0.3-0.1-0.4,0c-0.2,0.2,0,1,0,1.2c0,0.6,0.1,1.2,0.1,1.9
			c0,0.5,0.1,1,0.1,1.4c0,0.6-0.1,1.1-0.2,1.7c0,0.6-0.2,1.3-0.1,1.9c0,0.2,0,0.4,0,0.6c0,0.2-0.1,0.5,0,0.7
			c0.1,0.1,0.4,0.2,0.5,0.3c0.5,0.3,0.9,0.1,1.4,0c0.7-0.2,1.5-0.1,2.2-0.2c1,0,2-0.2,3-0.2c0.9-0.1,1.8-0.1,2.8-0.1
			c0.5,0,1-0.1,1.6-0.1c0.6,0,1.1,0,1.6,0c2.2,0.1,4.5,0.3,6.7,0.3c1.2,0,2.4,0,3.6-0.1c1.2-0.1,2.4,0.1,3.6,0.1
			c1.1,0,2.3-0.1,3.5,0c1.3,0.1,2.6,0.3,3.9,0.3c0.5,0,1,0,1.5,0c0.6,0,1.1,0.1,1.7,0.1c1.1,0.1,2.1,0,3.2,0c0.9,0,1.9,0.1,2.8,0.1
			c0.6,0,1.1-0.1,1.7-0.1c0.7,0,1.4,0,2-0.1c2.6-0.3,5.2-0.4,7.8-0.2c0.9,0.1,1.8,0,2.7,0.1c0.9,0.1,1.8,0,2.7,0
			c1.3,0,2.7,0.1,4,0.2c0.7,0.1,1.5-0.1,2.2-0.1c0.7,0,1.4,0.1,2,0.1c0.8-0.1,1.6,0.1,2.3-0.1c0.3-0.1,0.6-0.1,0.9-0.3
			c0.3-0.3,0.3-0.7,0.3-1c0-0.7,0.2-1.3,0.2-2c0-1.1,0-2.2-0.2-3.3c-0.1-0.8-0.2-1.6-0.3-2.4C103,113.1,102.8,113.1,102.6,112.9z"/>
		<path class="st5" d="M102.8,131c-0.6-0.1-1.3-0.2-1.9-0.2c-0.3,0-0.6,0.1-0.9,0.1c-0.3,0-0.6,0-0.9,0c-1,0-1.9,0-2.9,0
			c-0.8,0-1.6,0.1-2.4,0.1c-0.4,0-0.8,0-1.3-0.1c-0.6,0-1.1,0-1.7,0.1c-1.1,0.1-2.2,0.1-3.3,0.2c-0.7,0-1.4,0-2.1,0.1
			c-0.8,0.1-1.7,0.1-2.5,0.1c-1.3,0-2.6,0.1-3.9,0.1c-0.6,0-1.3-0.1-1.9-0.1c-0.8,0-1.5,0-2.3,0c-0.6,0-1.2-0.1-1.9-0.1
			c-0.6,0-1.1,0-1.7,0c-0.6,0-1.3,0.1-1.9,0.1c-0.7,0-1.3-0.1-2-0.1c-1,0-2.1-0.1-3.1-0.1c-1,0-2-0.1-3-0.2c-0.9,0-1.9-0.1-2.8,0
			c-0.5,0-0.9,0.1-1.4,0.1c-0.6,0-1.1-0.1-1.7-0.1c-0.9,0-1.9,0-2.8,0c-0.4,0-0.8,0-1.1,0c-0.5,0-1-0.1-1.6-0.2
			c-0.8-0.1-1.7,0-2.6,0.1c-0.9,0-1.9,0-2.8,0c-0.8,0-1.6,0.1-2.3,0.1c-0.8,0-1.6-0.2-2.3-0.2c-0.7,0-1.5-0.1-2.2-0.1
			c-0.8,0-1.4,0.1-2.2,0c-0.8-0.1-1.6,0.1-2.3,0c-0.4-0.1-1.4-0.3-1.8,0c-0.3,0.2-0.2,0.8-0.2,1.1c0,0.6,0.1,1.2,0.2,1.7
			c0.1,1,0.1,2.1-0.1,3.1c-0.1,0.6-0.1,1.3-0.2,1.9c-0.1,0.7-0.1,2.1,0.9,2c0.5,0,1.1-0.2,1.7-0.3c0.8-0.1,1.6-0.3,2.4-0.4
			c0.7-0.1,1.5,0,2.2,0c0.8,0,1.4,0.1,2.2,0.2c0.7,0,1.5,0,2.2,0.1c0.7,0.1,1.3,0.1,2,0.2c0.7,0.1,1.4,0.2,2.1,0.1
			c0.8-0.1,1.6,0,2.4,0.1c0.8,0.1,1.7,0.1,2.5,0.1c0.9,0,1.8-0.1,2.8-0.1c1,0,1.9-0.1,2.9-0.1c0.6,0,1.1,0.1,1.7,0
			c0.5,0,1.1-0.1,1.6-0.1c1,0,2,0,3,0c1.1,0.1,2.2-0.1,3.3-0.1c2.4,0,4.8-0.1,7.2-0.2c1.2,0,2.4,0.1,3.5,0.1c1,0,2,0,3-0.1
			c0.8,0,1.5,0.1,2.3,0.1c0.7,0,1.5-0.1,2.2,0c1.4,0.2,2.9,0.3,4.4,0.2c1.5-0.1,3.1,0.2,4.7,0c0.3,0,0.7-0.1,1-0.1
			c0.3-0.1,0.5-0.2,0.7-0.2c0.4-0.1,0.9,0,1.3,0.1c0.4,0,0.8,0.1,1.2,0.1c0.4,0,0.7,0,1,0c1.1,0,2.1-0.1,3.1,0c0.2,0,0.5,0.1,0.8,0
			c0.2,0,0.2,0,0.3-0.2c0.2-0.4,0.1-1.1,0.1-1.6c0-0.3,0.1-0.7,0.1-1c0-0.3-0.1-0.6-0.2-0.9c0-0.3,0-0.5,0-0.8c0-0.3-0.1-0.7-0.2-1
			c0-0.3-0.1-0.5-0.2-0.8c-0.1-0.3-0.1-0.5-0.1-0.7c0-0.4,0.1-0.7,0.1-1.1C103.2,131.7,103.2,131.4,102.8,131z"/>
		<path class="st5" d="M102.9,148.9c-2.3,0.1-4.5,0.3-6.8,0.3c-2,0-4.1-0.1-6.1-0.1c-1.1,0-2.1,0-3.2,0c-0.6,0-1.2-0.1-1.8,0
			c-0.6,0.1-1.3,0.1-1.9,0.2c-0.5,0-1,0-1.5,0c-0.4,0-0.8,0.1-1.3,0.1c-0.5,0-0.9-0.1-1.4-0.1c-0.5,0-1,0.1-1.5,0
			c-0.9,0-1.8-0.2-2.7-0.2c-1.2,0-2.4,0-3.7,0c-0.6,0-1.2-0.1-1.7-0.1c-0.6,0-1.1,0.1-1.7,0.1c-1.1,0-2.3,0-3.4,0c-2,0-4,0-6,0
			c-0.8,0-1.5,0-2.3,0c-0.8-0.1-1.6-0.1-2.4-0.1c-0.7,0.1-1.5-0.1-2.2-0.1c-1-0.1-2-0.1-3,0c-0.5,0-1,0.2-1.5,0.2
			c-0.5,0-0.9-0.1-1.4-0.2c-0.9-0.1-1.7-0.2-2.6-0.2c-0.7,0-1.3,0.1-1.9,0.1c-0.7,0-1.4,0-2.2,0c-1.2,0.1-2.5,0-3.7-0.2
			c-0.5-0.1-1,0-1.5,0c-0.3,0-0.5-0.1-0.8,0c-0.3,0-0.5,0.2-0.8,0.1c-0.2,0-0.5-0.1-0.7,0c-0.6,0.2-0.4,1-0.4,1.5
			c0.2,1.2,0.2,2.5,0.1,3.7c0,0.8-0.1,1.5,0,2.3c0.1,0.5,0.1,0.9,0.1,1.3c0,0.2,0,0.3,0.1,0.5c0.2,0.2,0.5,0.2,0.8,0.2
			c1.4-0.1,2.7-0.4,4.1-0.4c1.6,0,3.2-0.3,4.8-0.3c0.8,0,1.5,0.1,2.3,0.1c0.9,0,1.7,0.3,2.6,0.3c0.8,0,1.7-0.1,2.5-0.1
			c0.9,0,1.7,0,2.5,0.1c0.8,0.1,1.6-0.2,2.4-0.1c0.8,0.1,1.6,0.2,2.4,0.2c1,0.1,2,0,3.1,0c1.2,0,2.4,0.1,3.5,0.1
			c1.1,0,2.2-0.1,3.2-0.1c1.1,0.1,2.2,0,3.3,0c2-0.1,4-0.3,5.9-0.2c0.9,0,1.9,0,2.8,0.1c1,0.1,1.9,0,2.9,0c2.1,0.1,4.2,0,6.2,0.2
			c1.1,0.1,2.1,0,3.2,0c1,0.1,2,0,3,0.1c0.8,0,1.6-0.1,2.4,0c0.6,0,1.2,0,1.9,0c0.8,0,1.5,0,2.2,0.1c0.5,0.1,1,0,1.5,0
			c0.5,0,1.1,0.1,1.6,0c0.3,0,0.8,0,1-0.2c0.4-0.4,0.5-1.1,0.5-1.6c0-0.6-0.2-1.2-0.3-1.8c-0.1-0.4-0.1-0.7-0.1-1.1c0-0.3,0-0.7,0-1
			c-0.1-0.5-0.1-1-0.1-1.5c0-0.4-0.1-0.9-0.2-1.3c-0.1-0.3-0.2-0.5-0.4-0.7C102.8,149,102.8,148.7,102.9,148.9z"/>
		<path class="st5" d="M102.9,167c-0.6-0.2-1.1-0.5-1.7-0.4c-0.2,0-0.4,0.1-0.5,0.1c-0.4,0-0.7-0.1-1.1-0.1c-0.9,0-1.8,0.1-2.7,0.1
			c-0.4,0-0.9-0.1-1.3,0c-0.5,0-0.9,0.1-1.4,0.1c-0.5,0-1,0-1.5,0c-0.5,0-0.9,0.1-1.4,0.1c-1.1,0-2.2,0.1-3.3,0.2
			c-1.3,0.1-2.6,0.3-3.9,0.3c-1.4,0-2.7-0.1-4.1-0.2c-0.6,0-1.2,0.1-1.8,0c-0.7-0.1-1.3-0.1-2-0.1c-2.3,0-4.6,0-6.8-0.1
			c-1.1,0-2.1,0-3.1-0.1c-1-0.1-2-0.1-3.1-0.1c-1,0-2-0.1-3-0.2c-1.1-0.1-2.1,0-3.2,0c-1.1,0-2.1,0.1-3.1,0c-1-0.1-1.9,0-2.9,0
			c-1,0-2,0.1-2.9,0c-0.8,0-1.7-0.1-2.5-0.1c-0.7,0-1.4,0.1-2.1,0.1c-0.8,0-1.5-0.1-2.2,0c-0.7,0-1.3,0.2-2,0.1
			c-0.8-0.1-1.5-0.1-2.3-0.1c-0.6,0-1.3,0-1.9-0.1c-0.6,0-1.3,0-1.9-0.1c-0.4-0.1-1-0.2-1.5,0c-0.5,0.1-0.7,0.5-0.8,1
			c-0.1,0.5-0.1,1.1-0.1,1.6c0,0.5,0,1,0.2,1.5c0.1,0.4,0.2,0.8,0.1,1.3c0,0.2-0.1,0.3-0.1,0.5c0,0.2,0,0.3,0,0.5
			c-0.1,0.5,0.1,0.9,0.1,1.4c0,0.3,0,0.7,0.2,1.1c0.1,0.2,0.4,0.3,0.6,0.4c0.5,0.3,0.9,0.4,1.4,0.4c0.7,0,1.4,0,2.1-0.1
			c0.7,0,1.5,0,2.2-0.1c0.7-0.1,1.3-0.3,1.9-0.1c0.8,0.2,1.4,0.1,2.2,0c0.8-0.1,1.5,0.1,2.2,0.1c0.9,0,1.8-0.1,2.7-0.1
			c0.8,0,1.6,0,2.4,0c0.9,0,1.9-0.1,2.8,0c0.9,0,1.9,0,2.8,0.1c0.5,0,1.1,0.1,1.6,0.1c0.6,0,1.3-0.1,1.9-0.2
			c1.2-0.1,2.4-0.1,3.6-0.1c0.6,0,1.2-0.1,1.8-0.2c0.7-0.1,1.3,0,1.9,0.1c1.1,0,2.2,0.2,3.3,0c1-0.2,2,0.1,3.1,0
			c1,0,1.9,0.1,2.9,0.1c1,0,1.9,0.1,2.9,0.1c0.9,0,1.9,0.1,2.8,0.1c1,0,2,0.1,3,0.1c0.5,0,1,0,1.4,0c0.5,0,1,0.1,1.5,0
			c0.8,0,1.6,0.1,2.4,0.2c0.7,0,1.4-0.1,2.1-0.1c0.7,0,1.4,0.1,2.1,0c0.8,0,1.6,0,2.5-0.1c0.7-0.1,1.3,0.1,2,0.2c0.4,0,0.7,0,1.1,0
			c0.2,0,0.4-0.1,0.6-0.1c0.2,0,0.4,0.1,0.7,0.1c0.3,0,0.6,0.1,0.8,0.1c0.4,0,0.9-0.1,1.3-0.1c0.4,0,1.1,0.2,1.4,0
			c0.4-0.3,0.5-1.1,0.5-1.5c-0.1-0.6-0.1-1.2-0.2-1.8c-0.2-1-0.1-2.1-0.1-3.1c0-0.7,0.1-1.5-0.1-2.2
			C103.4,167.6,103.4,167.2,102.9,167z"/>
	</g>
	<path class="st6" d="M167.3,58.8c-1.2,1.3-2.6,2.5-3.4,4.1c-0.2,0.5-0.4,1-0.7,1.5c-0.7,1.3-1.8-0.8-2.5,0.5
		c-1,2.1-1.8,6.4-2.6,8.6c-0.4,1.1-0.4,3.4-0.5,4.6c-0.2,1.5-0.5,3.1-0.6,4.6c-0.1,1.2,0,2.6,0,3.8c0,1.2-0.1,2.3,0,3.5
		c0.4,2.5,0.8,4.9,1.2,7.4c0.4,2.7,1.4,4.9,2.8,7.2c1.7,2.9,3.8,5.5,5.9,8.1c0.9,1.1,1.8,2.3,2.8,3.4c1.1,1.2,2.4,2.2,3.8,3.1
		c3.2,2.1,6.7,3.7,10.2,5.1c1.4,0.6,2.7,1,4.2,1c1.3,0,2.5,0.2,3.8,0.2c1.2,0,2.4-0.1,3.6-0.1c1.3-0.1,2.6,0.1,3.9-0.1
		c1.1-0.2,2-0.6,3.1-0.8c1-0.2,1.9-0.4,2.9-0.7c2.1-0.5,4.3-0.1,6.3-0.9c1.5-0.6,2.9-1.7,4.2-2.5c0.5-0.3,1.1-0.8,1.7-1
		c0.8-0.4,1.7-0.5,2.4-1c1.6-1.1,3.2-2.4,4.7-3.7c0.8-0.7,1.3-1.5,1.8-2.4c0.6-1,1.4-1.9,2.1-2.9c0.6-0.8,1.1-1.5,1.5-2.4
		c0.5-0.8,1.2-1.6,1.6-2.4c0.4-0.8,1.3-1.1,1.6-1.9c0.4-0.9,0.7-1.9,0.9-2.9c0.2-0.7,1-2.8,1.2-3.6c0.1-0.9,1.1-3.5,1.3-4.4
		c0.2-1,0.5-12,0.4-13c-0.1-0.9-2.4,10.8-2.2,9.9c0.3-1.8,0.4-3.4,0.2-5.2c-0.1-0.9,0.1-1.8-0.1-2.7c-0.2-1-0.4-2-0.7-2.9
		c-0.6-2.4-1.6-4.6-2.6-6.8c-1.3-2.8-2.8-5.3-4.7-7.7c-1.6-2.1-3-4.2-4.8-6.2c-1.5-1.6-3.4-3.2-5.2-4.4c-0.8-0.5-1.6-1-2.4-1.5
		c-0.9-0.6-1.9-1.2-2.9-1.7c-3.4-1.6-7-3.2-10.8-3.5c-2.6-0.2-5.2-0.9-7.8-0.6c-1.2,0.2-2.6,0.3-3.7,0.7c-0.7,0.2-1.3,0.5-1.9,0.7
		c-0.6,0.2-1.2,0.2-1.8,0.4c-2.4,0.7-4.6,1.6-6.8,2.9c-1.1,0.6-2.1,1.2-3,2c-0.8,0.7-1.7,1.1-2.6,1.7c-1.4,0.9-2.7,2.1-4.1,3.2
		C167.1,58.3,166.7,60.6,167.3,58.8z"/>
	<path class="st7" d="M232.8,120.8c-0.3,0.8-0.5,1.9,0.2,2.7c0.3,0.3,0.5,0.6,0.8,0.9c0.5,0.6,1.1,1.2,1.7,1.8
		c1.3,1.3,2.5,2.7,3.8,4c2.7,2.7,5.4,5.4,8.1,8.1c6.1,6.1,12.2,12.3,18.4,18.4c0.6,0.6,1.2,1.3,1.9,2c0.5,0.5,1,0.9,1.4,1.4
		c0.5,0.7,1.4,1.7,2.2,2.1c0.7,0.4,1.4,0.7,2.2,0.7c0.8,0.1,1.4-0.2,2-0.5c0.9-0.6,1.8-1.5,2.6-2.4c0.4-0.5,0.4-1.2,0.6-1.8
		c0.2-0.8,0.6-1.6,0.2-2.5c-1.2-2.7-3.5-4.9-5.5-7c-1.6-1.6-3.2-3.2-4.8-4.8c-0.8-0.8-1.6-1.5-2.4-2.2c-0.7-0.6-1.4-1.3-2.3-2.1
		c-2.5-2.5-5-5-7.5-7.5c-1-1-2-2-3-3c-0.9-0.9-1.7-1.8-2.6-2.7c-2.1-2.1-4.2-4.2-6.4-6.4c-0.7-0.7-1.5-1.2-2.2-1.9
		c-0.5-0.5-1.1-1-1.6-1.3c-0.5-0.4-1.1-0.5-1.7-0.7c-0.7-0.2-1.2,0.1-1.6,0.4c-0.5,0.7-1,1.5-1.7,2c-0.3,0.2-0.5,0.6-0.8,0.9
		c-0.2,0.2-0.5,0.4-0.7,0.6C233.8,120.2,232.9,120.6,232.8,120.8z"/>
	<path class="st8" d="M227.8,107.2c-0.3,0.2-0.7,0.5-1.1,0.8c-0.2,0.1-0.3,0.3-0.4,0.5c-0.3,0.3-0.6,0.6-0.8,0.9
		c-0.3,0.5-0.8,0.9-1.1,1.4c-0.1,0.2-0.2,0.3-0.4,0.5c-0.1,0.1-0.3,0.2-0.3,0.4c0,0.1,0.1,0.3,0.1,0.4c0.2,0.2,0.4,0.5,0.6,0.7
		c0.6,0.6,1.3,1.1,1.8,1.7c0.2,0.2,0.4,0.5,0.7,0.7c0.2,0.2,0.5,0.4,0.8,0.6c0.5,0.4,0.7,0.9,1.2,1.3c0.4,0.3,0.7,0.6,1,0.9
		c0.3,0.3,0.5,0.6,0.8,0.9c0.2,0.2,0.4,0.5,0.6,0.7c0.2,0.2,0.4,0.4,0.5,0.6c0.1,0.2,0.3,0.3,0.4,0.5c0.1,0.1,0.2,0.2,0.4,0.3
		c0.2,0.1,0.6-0.1,0.8-0.1c0.3-0.1,0.4-0.3,0.7-0.4c0.7-0.4,1.3-0.8,1.9-1.3c0.2-0.2,0.4-0.4,0.6-0.6c0.2-0.2,0.3-0.4,0.5-0.6
		c0.2-0.2,0.3-0.4,0.4-0.6c0-0.1,0.1-0.2,0.1-0.2c0.1-0.1,0.1-0.1,0.1-0.2c0-0.1,0-0.3-0.1-0.4c0-0.2-0.1-0.4-0.2-0.6
		c-0.1-0.2-0.3-0.3-0.5-0.5c-0.3-0.3-0.7-0.5-1-0.7c-0.5-0.3-0.9-0.7-1.3-1.1c-0.7-0.5-1.2-1.1-1.8-1.6c-0.4-0.3-0.8-0.6-1.2-1
		c-0.3-0.4-0.7-0.6-1-0.9c-0.2-0.2-0.3-0.3-0.5-0.5c-0.2-0.1-0.3-0.3-0.4-0.5c-0.2-0.2-0.4-0.4-0.6-0.7c-0.2-0.3-0.5-0.7-0.8-0.9
		c-0.2-0.1-0.2-0.2-0.4-0.2C227.8,107.3,227.6,107.3,227.8,107.2z"/>
	<g>
		<path class="st9" d="M165.9,53.9c-0.2,0.5-0.4,1-0.7,1.5c-0.7,1.3-1.3,2.5-2,3.7c-1,2.1-2,4.1-2.8,6.3c-0.4,1.1-0.6,2.4-0.8,3.6
			c-0.2,1.5-0.5,3.1-0.6,4.6c-0.1,1.2,0,2.6,0,3.8c0,1.2-0.1,2.3,0,3.5c0.4,2.5,0.8,4.9,1.2,7.4c0.4,2.7,1.4,4.9,2.8,7.2
			c1.7,2.9,3.8,5.5,5.9,8.1c0.9,1.1,1.8,2.3,2.8,3.4c1.1,1.2,2.4,2.2,3.8,3.1c3.2,2.1,6.7,3.7,10.2,5.1c1.4,0.6,2.7,1,4.2,1
			c1.3,0,2.5,0.2,3.8,0.2c1.2,0,2.4-0.1,3.6-0.1c1.3-0.1,2.6,0.1,3.9-0.1c1.1-0.2,2-0.6,3.1-0.8c1-0.2,1.9-0.4,2.9-0.7
			c2.1-0.5,4.3-0.1,6.3-0.9c1.5-0.6,2.9-1.7,4.2-2.5c0.5-0.3,1.1-0.8,1.7-1c0.8-0.4,1.7-0.5,2.4-1c1.6-1.1,3.2-2.4,4.7-3.7
			c0.8-0.7,1.3-1.5,1.8-2.4c0.6-1,1.4-1.9,2.1-2.9c0.6-0.8,1.1-1.5,1.5-2.4c0.5-0.8,1.2-1.6,1.6-2.4c0.4-0.8,0.5-1.6,0.8-2.4
			c0.4-0.9,0.9-1.9,1.2-2.9c0.2-0.7,0-1.6,0.2-2.3c0.1-0.9,0.6-1.8,0.8-2.7c0.2-1,0.3-1.8,0.1-2.8c-0.1-0.9-0.1-1.9,0-2.8
			c0.3-1.8,0.4-3.4,0.2-5.2c-0.1-0.9,0.1-1.8-0.1-2.7c-0.2-1-0.4-2-0.7-2.9c-0.6-2.4-1.6-4.6-2.6-6.8c-1.3-2.8-2.8-5.3-4.7-7.7
			c-1.6-2.1-3-4.2-4.8-6.2c-1.5-1.6-3.4-3.2-5.2-4.4c-0.8-0.5-1.6-1-2.4-1.5c-0.9-0.6-1.9-1.2-2.9-1.7c-3.4-1.6-7-3.2-10.8-3.5
			c-2.6-0.2-5.2-0.9-7.8-0.6c-1.2,0.2-2.6,0.3-3.7,0.7c-0.7,0.2-1.3,0.5-1.9,0.7c-0.6,0.2-1.2,0.2-1.8,0.4c-2.4,0.7-4.6,1.6-6.8,2.9
			c-1.1,0.6-2.1,1.2-3,2c-0.8,0.7-1.7,1.1-2.6,1.7c-1.4,0.9-2.7,2.1-4.1,3.2C170.9,48,166.7,52.3,165.9,53.9z"/>
		<path class="st10" d="M231.6,64.6c-0.6-1.6-1-3.3-2.1-4.6c-0.3-0.4-0.7-0.8-1-1.2c-0.8-1.1-1.5-2.2-2.4-3.2
			c-1.4-1.7-2.6-3.5-4.2-5c-0.8-0.8-1.8-1.5-2.7-2.2c-1.2-0.8-2.3-1.7-3.6-2.5c-1-0.6-2.1-1.1-3.2-1.6c-1-0.5-1.9-1.1-2.9-1.4
			c-2.2-0.7-4.4-1.3-6.6-2.1c-2.4-0.8-4.6-0.8-7.1-0.7c-3,0.2-6.1,0.9-9,1.7c-1.3,0.3-2.6,0.6-3.9,0.9c-1.4,0.4-2.8,1.2-4,1.9
			c-3,1.8-5.7,4.1-8.2,6.5c-1,1-1.8,1.9-2.5,3.2c-0.5,1.1-1.2,2-1.7,3.1c-0.5,1-0.9,2.1-1.3,3.1c-0.4,1.1-1.1,2.2-1.4,3.3
			c-0.3,1-0.3,2-0.5,2.9c-0.2,0.9-0.4,1.8-0.6,2.7c-0.4,2-1.6,3.7-1.8,5.7c-0.1,1.5,0.3,3.1,0.5,4.6c0.1,0.6,0.2,1.2,0.2,1.8
			c0,0.8-0.3,1.6-0.1,2.4c0.3,1.8,0.7,3.7,1.2,5.5c0.3,1,0.7,1.7,1.3,2.5c0.6,0.9,1,2,1.5,3c0.4,0.8,0.9,1.6,1.4,2.3
			c0.5,0.8,0.8,1.6,1.4,2.4c0.5,0.6,1.2,1.1,1.7,1.7c0.6,0.7,1.2,1.6,1.9,2.2c0.5,0.5,1.3,0.7,1.9,1.1c0.7,0.5,1.2,1.2,1.9,1.8
			c0.7,0.6,1.4,1,2.3,1.3c0.8,0.3,1.6,0.7,2.3,1.2c1.3,1,2.7,1.7,4.2,2.3c0.8,0.3,1.5,0.8,2.3,1.1c0.9,0.2,1.8,0.5,2.7,0.7
			c2.2,0.5,4.4,0.6,6.7,0.7c2.8,0.1,5.5-0.2,8.3-0.7c2.3-0.5,4.7-0.8,7-1.5c1.9-0.6,4-1.5,5.7-2.6c0.7-0.5,1.4-1,2.2-1.4
			c0.9-0.5,1.8-1.1,2.6-1.8c2.7-2.2,5.4-4.6,7.2-7.7c1.2-2.1,2.8-4,3.6-6.4c0.4-1.1,0.7-2.3,0.9-3.5c0.1-0.6,0.1-1.3,0.2-1.9
			c0.1-0.6,0.3-1.1,0.4-1.7c0.4-2.3,0.4-4.6,0.3-6.9c-0.1-1.2-0.2-2.3-0.5-3.4c-0.2-1-0.2-1.9-0.4-2.9c-0.2-1.6-0.7-3.2-1.1-4.8
			C232.1,64.7,230.4,63.3,231.6,64.6z"/>
	</g>
	<path class="st5" d="M82.6,145.7c2.1-1.7,4-3.5,5.5-5.6c1-1.4,2-2.7,3.3-3.9c1.8-1.7,3.2-3.5,4.8-5.3c1.4-1.6,2.8-3.1,4.2-4.6
		c0.7-0.8,1.4-1.6,2-2.5c0.8-1.1,1.8-2,2.6-3.1c1.5-1.7,3.2-3.2,4.6-5c1.2-1.6,2.5-3.3,3.8-4.8c0.8-0.9,1.6-1.7,2.3-2.6
		c1-1.1,1.8-2.4,2.9-3.5c1-1,2-1.9,3-2.9c1-1,1.8-2.1,2.8-3.1c1.5-1.6,3.2-3,4.7-4.6c0.8-0.9,1.6-1.9,2.4-2.9
		c0.9-0.9,1.9-1.7,2.8-2.6c0.8-0.8,1.7-1.7,2.5-2.6c0.9-1,1.7-2.1,2.7-3c1.8-1.5,3.5-3.3,5.1-5.1c1.5-1.7,3.3-3.1,4.8-4.7
		c0.8-0.8,1.5-1.6,2.2-2.6c0.6-0.9,1.4-1.6,2.1-2.4c1.2-1.2,2.3-2.5,3.3-3.8c1-1.3,1.9-2.7,3-3.9c0.5-0.5,0.9-1.1,1.4-1.7
		c0.3-0.3,0.7-0.6,1-0.9c0.8-0.8,1.2-2.3,2.2-2.9"/>
	<path class="st5" d="M87.5,155.9c2.2-0.9,4.3-1.8,6.4-2.8c0.7-0.3,1.4-0.6,2.1-0.7c1.2-0.2,2.4,0,3.6-0.1c1.1-0.1,2.1-0.5,3.1-0.9
		c1.2-0.5,2.5-0.8,3.8-1.1c1.2-0.2,2.3-0.2,3.4-0.8c1.2-0.6,2.4-1.1,3.7-1.4c1.3-0.3,2.6-0.2,3.8-0.5c1.5-0.3,2.9-0.9,4.3-1.3
		c1.2-0.4,2.5-0.5,3.7-0.8c1.6-0.3,3.1-0.8,4.6-1.3c1.3-0.5,2.7-0.9,4-1.3c2.1-0.5,4.1-0.6,6.1-1.5c1.4-0.6,2.7-1,4.2-1.3
		c1.6-0.3,3.1-0.5,4.7-1c2.7-0.9,5.6-1.4,8.3-2.1c2.7-0.7,5.3-1.9,8.1-2.4c1.1-0.2,2.1-0.5,3.2-0.7c1.5-0.4,2.9-1.1,4.4-1.4
		c1-0.2,2-0.2,2.9-0.4c1.1-0.2,2.2-0.6,3.2-0.9c2-0.6,4.2-0.7,6.2-1.2c1.5-0.4,2.9-1,4.4-1.3c0.6-0.1,1.3-0.1,1.9-0.2
		c0.8-0.1,8.1-2,8.9-2.3c4.7-1.6,8.1-2.7,10.3-3.4"/>
	<g>
		<path class="st5" d="M185,65.7c0.4-0.3,0.8-0.6,1.3-0.7c0.1,0,0.2,0,0.3-0.1c0.2-0.1,0.4-0.2,0.6-0.3c0.4-0.2,0.8-0.2,1.2-0.4
			c0.3-0.2,0.6-0.3,0.9-0.4c0.5-0.1,0.9-0.3,1.3-0.5c0.5-0.2,0.9-0.3,1.4-0.5c0.3-0.1,0.6-0.2,0.8-0.3c0.2-0.1,0.5-0.2,0.7-0.3
			c0.5-0.1,1-0.3,1.5-0.4c0.4-0.1,0.9-0.1,1.3-0.3c0.4-0.1,0.7-0.3,1.1-0.4c0.5-0.2,1-0.4,1.6-0.6c1.1-0.4,2.2-1,3.3-1.3
			c0.2-0.1,0.5-0.1,0.8-0.2c0.3-0.1,0.5-0.2,0.8-0.3c0.3-0.1,0.5-0.1,0.7-0.2c0.3-0.1,0.6-0.3,0.9-0.3c1-0.3,2-0.7,3-1
			c0.4-0.1,0.8-0.3,1.2-0.4c0.2-0.1,0.5-0.1,0.8-0.3c0.2-0.1,0.5-0.2,0.7-0.4c0.2-0.1,0.3-0.3,0.5-0.4c-0.1,0.3-0.2,0.6-0.3,0.9
			c-0.1,0.5-0.1,1-0.2,1.5c-0.1,0.4,0,0.8,0,1.1c0.1,0.4,0.1,0.9,0.2,1.3c0.1,0.4,0.1,0.8,0.2,1.2c0,0.2,0.1,0.4,0.1,0.6
			c0,0.2,0,0.4-0.1,0.7c0,0.4-0.1,0.8-0.2,1.2c-0.1,0.4-0.1,0.9-0.2,1.4c0,0.4,0,0.8,0.1,1.2c0,0.4,0,0.9-0.1,1.3
			c-0.1,0.4,0,0.8-0.1,1.3c0,0.5,0,1,0,1.5c0,0.5,0,1-0.1,1.6c-0.1,0.6-0.2,1.2-0.1,1.8c0,0.9-0.1,1.8-0.1,2.8c0,0.2,0,0.5,0,0.7
			c0,0.3,0.1,0.5,0.1,0.8c0.1,0.5,0.1,1.1,0.1,1.6c0,0.3,0,0.5,0,0.7c0,0.2,0,0.4,0,0.6c0,0.6,0,1.2-0.1,1.8c-0.1,0.6,0,1.1,0,1.7
			c0,0.4,0,0.7,0,1.1c0,0.4,0,0.8,0,1.1c0,0.6,0.1,1.2,0.1,1.7c0,0.5,0.1,1.1,0.1,1.6c0,0.3,0.1,0.6,0.1,0.9c0,0.3-0.4,0.6-0.6,0.7
			c-0.4,0.2-0.8,0.3-1.2,0.4c-0.2,0.1-0.4,0.2-0.6,0.3c-0.2,0.1-0.5,0.2-0.7,0.3c-0.2,0.1-0.5,0.3-0.7,0.4c-0.3,0.1-0.6,0.1-0.9,0.2
			c-0.3,0.1-0.6,0.3-1,0.4c-0.4,0.1-0.8,0.3-1.2,0.4c-0.3,0.1-0.7,0.3-1,0.5c-0.3,0.2-0.6,0.4-0.9,0.5c-0.4,0.2-0.8,0.3-1.2,0.5
			c-0.4,0.2-0.8,0.2-1.2,0.3c-0.4,0.1-0.8,0.4-1.3,0.5c-0.4,0.1-0.7,0.3-1.1,0.5c-0.4,0.2-0.9,0.2-1.3,0.4c-0.3,0.1-0.7,0.2-1,0.3
			c-0.4,0.1-0.7,0.2-1.1,0.3c-0.4,0.1-0.8,0.2-1.1,0.3c-0.4,0.2-0.8,0.2-1.2,0.4c-0.4,0.1-0.7,0.3-1.1,0.4c-0.3,0.1-0.7,0.1-1,0.2
			c-0.3,0.1-0.6,0.2-0.9,0.3c-0.3,0.1-0.6,0.2-0.9,0.3c-0.3,0.1-0.7,0.2-1,0.3c-0.4,0.1-0.9,0.4-1.3,0.5c-0.3,0.1-0.6,0.1-0.8,0.2
			c-0.1-0.1-0.1-0.5-0.1-0.6c0-0.4,0-0.9-0.1-1.3c0-0.3-0.1-0.7-0.1-1c0-0.3,0-0.6,0.1-0.9c0.1-0.8,0.2-1.6,0.3-2.4
			c0.1-0.8,0-1.6,0.1-2.4c0.1-0.8,0-1.6-0.1-2.4c-0.1-0.7-0.1-1.3-0.1-2c0-0.3-0.1-0.5-0.1-0.8c-0.1-0.3,0-0.6,0-1
			c0-0.7,0.1-1.4,0.2-2.2c0.1-0.7-0.2-1.3-0.2-2c0-0.6,0-1.3,0-1.9c0-0.3,0-0.6-0.1-0.9c-0.1-0.3-0.1-0.7-0.1-1c0-0.3,0-0.5,0-0.8
			c0-0.3,0.1-0.6,0.1-0.9c0.1-0.7,0-1.3,0.1-2c0-0.3,0-0.6,0-0.9c0-0.4,0.1-0.7,0-1.1c0-0.3-0.1-0.5-0.1-0.8c0-0.3,0-0.6,0-0.9
			c0-0.6,0-1.1,0-1.7c0-0.8-0.1-1.6,0-2.4c0-0.3,0-0.5,0.1-0.8c0-0.1,0.1-0.3,0.1-0.4C185.3,65.7,185.3,65.5,185,65.7z"/>
		<path class="st5" d="M169.1,78.8c1.5-0.1,2.9-0.7,4.2-1.4c0.2-0.1,0.4-0.2,0.6-0.3c0.2-0.1,0.5-0.1,0.7-0.2
			c0.5-0.2,0.9-0.3,1.5-0.4c0.6-0.1,1.1-0.3,1.7-0.5c0.3-0.1,0.6-0.2,0.8-0.3c0.4-0.1,0.8-0.2,1.2-0.3c0.6-0.2,1.3-0.3,1.9-0.6
			c0.9-0.3,1.8-0.6,2.7-0.9c0.8-0.3,1.6-0.6,2.4-0.8c0.3-0.1,0.7-0.2,1-0.3c0.4-0.1,0.7-0.3,1.1-0.4c0.3-0.1,0.6-0.1,0.8-0.2
			c0.3-0.1,0.6-0.2,0.9-0.4c0.5-0.2,1.1-0.5,1.6-0.7c0.5-0.2,1-0.5,1.5-0.6c0.2-0.1,0.4-0.1,0.6-0.2c0.2-0.1,0.4-0.2,0.6-0.2
			c0.3-0.1,0.5-0.1,0.8-0.1c0.2,0,0.3,0,0.5,0.1c0.8,0.2,1.6,0.3,2.4,0.5c0.8,0.2,1.6,0.4,2.4,0.5c0.5,0.1,0.9,0.2,1.4,0.3
			c0.5,0.1,1,0.3,1.5,0.4c0.4,0.1,0.8,0.1,1.2,0.2c0.5,0.2,0.9,0.3,1.4,0.4c0.5,0.1,0.9,0.3,1.4,0.3c0.6,0.1,1.2,0.2,1.8,0.3
			c1,0.2,2.1,0.5,3,0.8c1,0.4,2,0.7,3.1,1c0.5,0.1,0.9,0.3,1.4,0.4c0.5,0.2,1.1,0.3,1.6,0.5c0.7,0.2,1.4,0.5,2.1,0.5
			c0.3,0,0.6,0.1,0.8,0.1c0.3,0,0.5,0.1,0.8,0.2c0.5,0.1,0.9,0.1,1.4,0.3c0.4,0.1,0.8,0.2,1.2,0.4c0.4,0.1,0.7,0.2,1.1,0.3
			c0.3,0.1,0.7,0.1,1,0.2c0.2,0,0.4,0.1,0.6,0.2c0.1,0,0.3,0.1,0.5,0.1c-0.1-0.1-0.2,0-0.3,0.1c-0.2,0.1-0.4,0.1-0.6,0.2
			c-0.6,0.1-1.2,0.3-1.7,0.5c-0.3,0.1-0.6,0.1-0.9,0.3c-0.2,0.1-0.5,0.1-0.7,0.2c-0.4,0.1-0.8,0.3-1.1,0.4c-0.4,0.1-0.8,0.2-1.3,0.4
			c-0.4,0.1-0.8,0.2-1.1,0.3c-0.4,0.1-0.7,0.3-1.1,0.4c-0.9,0.3-1.9,0.6-2.8,1c-0.4,0.1-0.8,0.2-1.1,0.3c-0.5,0.2-0.9,0.3-1.4,0.5
			c-0.4,0.1-0.9,0.3-1.3,0.4c-0.5,0.1-1,0.3-1.5,0.5c-0.4,0.1-0.7,0.2-1.1,0.3c-0.5,0.2-1,0.2-1.5,0.4c-0.3,0.1-0.6,0.3-1,0.4
			c-0.5,0.1-0.9,0.4-1.4,0.5c-0.3,0.1-0.7,0.2-1,0.3c-0.3,0.1-0.5,0.3-0.8,0.4c-0.5,0.2-1.1,0.3-1.6,0.4c-0.4,0.1-0.7,0.2-1,0.4
			c-0.3,0.1-0.6,0.1-0.8,0.2c-0.2,0.1-0.3,0-0.5-0.1c-0.4-0.2-1-0.4-1.5-0.5c-0.5-0.1-0.9-0.1-1.4-0.1c-0.5-0.1-0.9-0.2-1.3-0.3
			c-0.4-0.1-0.8-0.2-1.2-0.3c-0.4-0.1-0.9-0.3-1.3-0.4c-0.4-0.1-0.8-0.3-1.3-0.4c-0.2-0.1-0.4-0.1-0.6-0.2c-0.3-0.1-0.5-0.1-0.8-0.2
			c-0.4-0.1-0.8-0.2-1.1-0.3c-0.4-0.1-0.7-0.3-1.1-0.4c-1.6-0.4-3.1-1.2-4.8-1.4c-0.5,0-1-0.1-1.4-0.2c-0.6-0.1-1.1-0.2-1.6-0.4
			c-1-0.4-2.1-0.5-3.1-0.7c-0.5-0.1-1.1-0.2-1.6-0.4c-0.5-0.2-1-0.3-1.5-0.4c-0.4-0.1-0.9-0.3-1.3-0.3c-0.4-0.1-0.7-0.2-1-0.3
			c-0.6-0.2-1.1-0.3-1.7-0.5c-0.2,0-0.4-0.1-0.6-0.1c-0.1,0-0.2,0-0.4,0C169.8,78.9,169.7,78.9,169.1,78.8z"/>
		<path class="st5" d="M182.6,56.7c0.8,0.2,1.7,0.4,2.5,0.6c0.3,0.1,0.6,0.2,0.9,0.3c0.3,0.1,0.6,0.1,0.9,0.1c0.5,0.1,1,0.2,1.5,0.3
			c0.7,0.1,1.4,0.3,2.1,0.5c0.6,0.1,1.2,0.3,1.8,0.5c0.6,0.2,1.1,0.3,1.7,0.4c0.4,0.1,0.9,0.3,1.3,0.4c0.3,0.1,0.6,0.2,0.9,0.2
			c0.4,0.1,0.8,0.2,1.2,0.3c0.7,0.2,1.4,0.4,2.1,0.6c0.7,0.2,1.3,0.4,1.9,0.6c1.2,0.2,2.5,0.4,3.7,0.6c0.6,0,1.1,0.1,1.7,0.3
			c0.6,0.1,1.2,0.2,1.7,0.4c0.6,0.2,1.2,0.3,1.8,0.5c0.3,0.1,0.6,0.1,0.8,0.2c0.3,0.1,0.5,0.2,0.8,0.3c0.4,0.1,0.8,0.2,1.2,0.3
			c0.2,0.1,0.3,0.1,0.5,0.2c0.3,0.1,0.6,0.1,0.9,0.3c-0.1,0.6-0.1,1.1,0.1,1.7c0.2,0.8,0.1,1.5,0.2,2.3c0.1,0.6,0.1,1.2,0.1,1.8
			c0,0.3-0.1,0.6-0.1,0.9c0,0.4,0.1,0.8,0.1,1.2c0,0.3,0.1,0.7,0.1,1c0,0.3,0,0.7,0,1c0,0.8,0.1,1.5,0,2.3c0,0.3,0,0.6,0,1
			c-0.1,0.4-0.1,0.7-0.2,1.1c-0.1,0.7-0.1,1.5,0,2.2c0,0.4,0.1,0.8,0,1.1c0,0.3-0.1,0.7-0.1,1c-0.1,0.7,0,1.3,0.1,2
			c0,0.3,0.1,0.6,0.1,0.8c0.1,0.3,0,0.6,0,0.9c0,0.7,0.1,1.4,0.1,2.1c0,0.7-0.1,1.4-0.1,2.1c-0.1,0.8,0,1.7,0,2.5c0,0.5,0,1.1,0,1.6
			c0,0.4-0.1,0.9-0.1,1.3c0,0.4,0,0.7,0,1.1c0,0.4,0,0.8,0,1.2c0,0.3,0,0.6,0,0.8c0,0.1,0,0.2,0,0.3c0,0.1,0,0.3,0,0.4
			c-0.1,0-0.2-0.1-0.3-0.1c-0.2,0-0.4,0-0.5,0c-0.3,0-0.5-0.2-0.8-0.2c-0.2,0-0.4-0.1-0.6-0.1c-0.6,0-1.1-0.3-1.7-0.3
			c-0.3,0-0.5,0-0.8,0c-0.2,0-0.4-0.1-0.5-0.1c-0.2-0.1-0.4,0-0.7-0.1c-0.4-0.1-0.7-0.2-1.1-0.3c-0.3-0.1-0.5,0-0.8-0.1
			c-0.7-0.1-1.4-0.4-2.1-0.7c-0.6-0.2-1.2-0.6-1.8-0.7c-0.3-0.1-0.7-0.1-1-0.2c-0.3-0.1-0.6-0.1-0.9-0.2c-0.3,0-0.5-0.1-0.8-0.2
			c-0.3-0.1-0.6-0.2-0.9-0.2c-0.7-0.1-1.2-0.6-1.9-0.6c-0.3,0-0.6-0.1-0.9-0.2c-0.3-0.1-0.6-0.2-0.9-0.2c-0.7-0.1-1.5-0.4-2.2-0.5
			c-0.4-0.1-0.8-0.1-1.2-0.2c-0.3-0.1-0.6-0.2-1-0.2c-0.4,0-0.8-0.1-1.1-0.1c-0.4,0-0.8-0.2-1.3-0.2c-0.3,0-0.6,0-0.9-0.1
			c-0.4-0.1-0.7-0.1-1-0.2c-0.7,0-1.3-0.1-2-0.2c-0.2,0-0.4,0-0.7,0c-0.1,0-0.3-0.1-0.4-0.1c-0.1,0-0.2-0.1-0.2-0.1
			c-0.2-0.1-0.2-0.2-0.4-0.3c-0.2-0.1-0.3-0.2-0.5-0.4c-0.2-0.1-0.3-0.2-0.5-0.2c-0.1,0-0.3-0.1-0.3-0.1c-0.1-0.1-0.1-0.4-0.1-0.5
			c0.1-0.5,0.1-1,0.1-1.5c0-0.6-0.1-1.2-0.1-1.9c0-0.3-0.1-0.5-0.1-0.8c-0.1-0.4-0.1-0.9-0.2-1.3c-0.1-0.7-0.1-1.3-0.1-2
			c0-0.3,0-0.6,0-0.9c0-0.4,0-0.8,0-1.2c0-0.6,0.1-1.2,0-1.8c-0.1-0.9,0-1.7,0-2.6c0-0.6,0.1-1.3-0.1-1.9c-0.1-0.7,0-1.5,0.1-2.2
			c0-0.3,0-0.6,0-0.9c0-0.4,0.1-0.8,0.1-1.2c0-0.7-0.2-1.3-0.1-2c0.1-0.7,0-1.4,0-2.1c0-0.4,0-0.8,0-1.2c0-0.4,0.1-0.8,0.1-1.3
			c0-0.5,0.1-0.9,0.1-1.4c0-0.5-0.1-1-0.1-1.5c0-0.5,0.3-0.9,0.3-1.4c0-0.2,0-0.5,0-0.7c0-0.2,0-0.5,0-0.7c-0.1-0.2-0.1-0.5-0.1-0.7
			c0-0.4-0.1-0.8,0-1.1C182.2,57.5,182.2,57.1,182.6,56.7z"/>
		<path class="st7" d="M184.6,64.5c-0.2,0.1-0.5,0.3-0.7,0.5c-0.1,0.1,0,0.1-0.1,0.2c0,0.1,0,0.2,0,0.3c0,0.3,0.1,0.5,0.2,0.8
			c0.1,0.2,0.2,0.4,0.3,0.5c0.1,0.1,0.3,0.2,0.5,0.2c0.1,0.1,0.3,0.1,0.4,0.1c0.2,0,0.4,0,0.5,0c0.2,0,0.2-0.2,0.3-0.3
			c0.1-0.2,0.2-0.3,0.3-0.5c0.1-0.3,0.1-0.5,0.1-0.8c0-0.2,0-0.4-0.1-0.5c-0.1-0.2-0.2-0.3-0.4-0.5c-0.1-0.1-0.2-0.2-0.3-0.3
			c-0.1-0.1-0.3-0.1-0.4-0.1c-0.1,0-0.1,0-0.2,0.1C184.9,64.4,184.8,64.4,184.6,64.5z"/>
		<path class="st7" d="M169.1,77.8c-0.3-0.2-0.6-0.2-0.8,0c0,0.1-0.1,0.1-0.1,0.2c-0.1,0.1-0.1,0.3-0.1,0.5c0,0.2,0,0.5,0,0.8
			c0.1,0.5,0.5,0.7,0.9,0.9c0.6,0.3,1.4,0.2,1.7-0.4c0.3-0.5,0.2-1.2-0.2-1.7c-0.2-0.2-0.3-0.3-0.5-0.4c-0.2-0.1-0.3-0.1-0.5-0.1
			C169.2,77.6,168.9,77.5,169.1,77.8z"/>
		<path class="st7" d="M195.3,68.7c-0.3-0.1-0.6-0.2-0.9-0.1c0,0.1-0.1,0.1-0.1,0.2c-0.1,0.1-0.2,0.3-0.3,0.4
			c-0.1,0.2-0.2,0.4-0.2,0.6c0,0.2,0,0.6,0,0.8c0,0.2,0.1,0.3,0.3,0.5c0.1,0.2,0.3,0.3,0.4,0.4c0.2,0.1,0.4,0.1,0.6,0.1
			c0.2,0,0.3,0,0.5,0c0.2,0,0.2,0,0.4-0.2c0.2-0.3,0.4-0.7,0.5-1c0-0.2,0-0.5,0-0.7c0-0.2-0.2-0.3-0.3-0.4
			C195.9,69.1,195.6,68.9,195.3,68.7z"/>
		<path class="st7" d="M181.7,55.4c-0.3,0.3-0.6,0.6-0.7,1c0,0.2,0,0.3,0,0.5c0,0.2,0,0.3,0.1,0.5c0.1,0.3,0.3,0.6,0.6,0.8
			c0.2,0.2,0.3,0.4,0.6,0.4c0.2,0,0.3,0,0.5,0c0.4,0,0.7-0.2,1.1-0.3c0.4-0.2,0.3-0.8,0.3-1.1c0-0.3,0-0.8,0-1.1
			c-0.1-0.4-0.4-0.6-0.7-0.8C182.8,54.9,181.8,55.3,181.7,55.4z"/>
		<path class="st7" d="M182.6,91c-0.4,0-1.1-0.2-1.5,0.2c-0.1,0.1-0.2,0.3-0.3,0.4c-0.1,0.3,0,0.6,0,0.8c0,0.4,0.1,0.7,0.4,1
			c0.5,0.4,1.1,0.7,1.7,0.6c0.3,0,0.5-0.5,0.6-0.7c0.1-0.3,0.1-0.6,0.1-0.9c0-0.3,0-0.5-0.2-0.7C183.2,91.3,182.8,91.2,182.6,91z"/>
		<path class="st7" d="M215.3,98c-0.4,0-1.4-0.3-1.9,0c-0.2,0.1-0.4,0.3-0.5,0.5c-0.2,0.2-0.5,0.6-0.5,0.9c-0.1,0.6,0.2,1.1,0.6,1.6
			c0.3,0.4,0.7,0.7,1.2,0.7c0.4,0,1,0.1,1.4-0.2c0.3-0.2,0.5-0.5,0.6-0.8c0.1-0.2,0.1-0.3,0.2-0.5c0-0.2,0-0.4,0-0.5
			c0-0.4-0.1-0.7-0.4-1C215.7,98.2,215.3,98.1,215.3,98z"/>
		<path class="st7" d="M211,90.1c-0.5,0.1-1,0.2-1.3,0.6c-0.1,0.1-0.1,0.2-0.1,0.4c0,0.2-0.1,0.4,0,0.6c0.1,0.5,0.5,1.2,1,1.4
			c0.7,0.3,1.5-0.1,1.7-0.7c0.1-0.3,0.1-0.6,0.1-0.9c0-0.3-0.1-0.5-0.2-0.7c-0.1-0.2-0.3-0.5-0.6-0.6
			C211.3,90.1,211.1,90.1,211,90.1C210.7,90.1,210.4,90,211,90.1z"/>
		<path class="st7" d="M212.1,54.5c-0.4,0-1-0.1-1.4,0.1c-0.2,0.1-0.3,0.4-0.5,0.5c-0.2,0.2-0.3,0.6-0.3,0.9c0,0.2,0,0.4,0.1,0.6
			c0.1,0.2,0.3,0.4,0.5,0.6c0.3,0.4,0.6,0.5,1,0.5c0.2,0,0.4,0,0.6,0c0.2,0,0.4-0.2,0.6-0.3c0.2-0.2,0.5-0.4,0.6-0.7
			c0.1-0.3,0-0.7-0.1-1c-0.2-0.3-0.4-0.6-0.7-0.8C212,54.6,211.5,54.6,212.1,54.5z"/>
		<path class="st7" d="M185.4,80.6c-0.4,0.1-1.1,0.2-1.4,0.6c-0.1,0.1-0.1,0.3-0.2,0.4c-0.1,0.3-0.2,0.6-0.2,0.9
			c0,0.2,0,0.4,0.1,0.6c0.1,0.1,0.3,0.3,0.4,0.4c0.3,0.2,0.7,0.1,1,0.1c0.3,0,0.5-0.1,0.7-0.3c0.3-0.3,0.8-0.9,0.8-1.4
			c0-0.5-0.1-0.7-0.5-1C185.9,80.5,185.5,80.2,185.4,80.6z"/>
		<path class="st7" d="M210.5,71.9c-0.4,0-0.9-0.1-1.1,0.4c-0.1,0.2-0.2,0.4-0.2,0.6c-0.1,0.3,0,0.6,0,0.9c0,0.7,0.4,1.1,0.9,1.4
			c0.3,0.2,0.6,0.3,0.9,0.3c0.5,0,0.7-0.3,1-0.6c0.5-0.4,0.7-1.2,0.6-1.8c0-0.3-0.3-0.6-0.5-0.8C211.7,72.1,211.1,71.9,210.5,71.9z"
			/>
		<path class="st7" d="M215.1,80.4c-0.4,0.1-1,0.2-1.3,0.5c-0.1,0.1-0.2,0.4-0.2,0.6c0,0.2,0,0.4,0,0.6c0,0.5,0.4,1,0.7,1.2
			c0.3,0.2,0.5,0.2,0.8,0.2c0.4,0,0.6-0.2,0.9-0.5c0.3-0.2,0.4-0.4,0.4-0.8c0-0.3,0-0.7-0.2-1c-0.1-0.3-0.4-0.5-0.7-0.7
			C215.3,80.3,214.9,80.4,215.1,80.4z"/>
		<path class="st7" d="M198.1,59.5c-0.4,0.1-0.6,0.1-0.8,0.5c-0.1,0.2-0.1,0.4-0.1,0.6c0,0.3,0,0.6,0,0.9c0.1,0.4,0.5,0.8,0.9,0.9
			c0.3,0.1,0.7,0.1,1,0c0.3-0.1,0.6-0.5,0.8-0.7c0.3-0.5,0.4-1.2-0.1-1.6c-0.3-0.2-0.7-0.4-1-0.4c-0.2,0-0.3,0-0.5,0
			C198.1,59.7,197.8,59.7,198.1,59.5z"/>
		<g>
			<g>
				<g>
					<path class="st11" d="M185.9,99.7c-0.7,0-1.5-0.2-1.9,0.5c-0.1,0.2-0.2,0.5-0.2,0.7c0,0.5,0,0.9,0.4,1.3
						c0.4,0.4,1.1,0.5,1.7,0.5c0.4,0,0.9,0,1.1-0.4c0.1-0.2,0.1-0.5,0.1-0.7c0-0.2,0-0.4,0-0.7c0-0.4,0-0.6-0.3-0.9
						c-0.2-0.3-0.7-0.6-1.1-0.6C185.3,99.4,184.8,99.4,185.9,99.7z"/>
					<path class="st5" d="M185.9,99.7c-0.7,0-1.5-0.2-1.9,0.5c-0.1,0.2-0.2,0.5-0.2,0.7c0,0.5,0,0.9,0.4,1.3
						c0.4,0.4,1.1,0.5,1.7,0.5c0.4,0,0.9,0,1.1-0.4c0.1-0.2,0.1-0.5,0.1-0.7c0-0.2,0-0.4,0-0.7c0-0.4,0-0.6-0.3-0.9
						c-0.2-0.3-0.7-0.6-1.1-0.6C185.3,99.4,184.8,99.4,185.9,99.7z"/>
				</g>
				<g>
					<path class="st11" d="M214.8,63c-0.4,0-1.1,0-1.2,0.5c-0.1,0.2-0.1,0.4-0.2,0.5c-0.1,0.3-0.2,0.6-0.2,0.9c0,0.2,0,0.5,0,0.7
						c0,0.2,0.1,0.3,0.3,0.5c0.3,0.3,0.8,0.2,1.1,0.2c0.5,0,0.9-0.2,1.1-0.7c0.4-0.6,0.5-1.4,0.1-2C215.4,62.9,214.6,63.1,214.8,63z
						"/>
					<path class="st5" d="M214.8,63c-0.4,0-1.1,0-1.2,0.5c-0.1,0.2-0.1,0.4-0.2,0.5c-0.1,0.3-0.2,0.6-0.2,0.9c0,0.2,0,0.5,0,0.7
						c0,0.2,0.1,0.3,0.3,0.5c0.3,0.3,0.8,0.2,1.1,0.2c0.5,0,0.9-0.2,1.1-0.7c0.4-0.6,0.5-1.4,0.1-2C215.4,62.9,214.6,63.1,214.8,63z
						"/>
				</g>
				<g>
					<path class="st11" d="M181.3,73.2c-0.6,0.3-1.1,0.7-1.4,1.3c0,0.1,0.1,0.2,0.1,0.3c0,0.1,0,0.2,0,0.3c0.1,0.1,0.1,0.2,0.2,0.3
						c0.3,0.3,0.5,0.5,0.9,0.7c0.3,0.2,0.8,0.2,1.1,0.1c0.3,0,0.7-0.2,0.9-0.4c0.2-0.3,0.3-0.8,0.3-1.2c0-0.3,0-0.5-0.2-0.8
						C182.8,73.1,182,72.8,181.3,73.2z"/>
					<path class="st5" d="M181.3,73.2c-0.6,0.3-1.1,0.7-1.4,1.3c0,0.1,0.1,0.2,0.1,0.3c0,0.1,0,0.2,0,0.3c0.1,0.1,0.1,0.2,0.2,0.3
						c0.3,0.3,0.5,0.5,0.9,0.7c0.3,0.2,0.8,0.2,1.1,0.1c0.3,0,0.7-0.2,0.9-0.4c0.2-0.3,0.3-0.8,0.3-1.2c0-0.3,0-0.5-0.2-0.8
						C182.8,73.1,182,72.8,181.3,73.2z"/>
				</g>
				<g>
					<path class="st11" d="M200.6,85.6c-0.4,0-0.8,0.2-1,0.6c-0.1,0.2-0.1,0.5-0.1,0.7c0,0.4-0.1,0.8,0.1,1.1
						c0.2,0.3,0.6,0.6,0.9,0.7c0.7,0.2,1.5-0.2,1.8-0.9c0.1-0.4,0.1-0.7,0.1-1.1c0-0.3-0.1-0.4-0.4-0.6
						C201.6,85.8,201,85.7,200.6,85.6C200.4,85.5,200.2,85.5,200.6,85.6z"/>
					<path class="st5" d="M200.6,85.6c-0.4,0-0.8,0.2-1,0.6c-0.1,0.2-0.1,0.5-0.1,0.7c0,0.4-0.1,0.8,0.1,1.1
						c0.2,0.3,0.6,0.6,0.9,0.7c0.7,0.2,1.5-0.2,1.8-0.9c0.1-0.4,0.1-0.7,0.1-1.1c0-0.3-0.1-0.4-0.4-0.6
						C201.6,85.8,201,85.7,200.6,85.6C200.4,85.5,200.2,85.5,200.6,85.6z"/>
				</g>
			</g>
		</g>
		<path class="st7" d="M227.9,76.7c-0.5,0-1.1-0.1-1.4,0.3c-0.1,0.1-0.1,0.2-0.2,0.3c-0.2,0.2-0.3,0.5-0.4,0.7
			c-0.2,0.4-0.2,1,0.2,1.3c0.3,0.3,0.7,0.6,1.1,0.6c0.5,0,1-0.1,1.3-0.5c0.3-0.3,0.2-0.6,0.3-1c0-0.2,0.1-0.5,0-0.7
			c-0.1-0.2-0.1-0.4-0.3-0.5c-0.1-0.1-0.1-0.2-0.2-0.2C228.1,76.9,228,76.9,227.9,76.7z"/>
	</g>
	<path class="st12" d="M85.1,145.2c-0.9,0.2-2,0.3-2.7,0.9c-0.2,0.2-0.4,0.4-0.5,0.6c-0.2,0.3-0.5,0.6-0.7,1
		c-0.3,0.6-0.5,1.2-0.7,1.7c-0.2,0.6-0.5,1.3-0.5,1.9c0,0.7,0.4,1.4,0.7,2c0.9,1.6,2.9,3.2,4.7,3.3c1,0.1,2.1-0.5,2.8-1.1
		c0.8-0.7,1.8-1.3,2.3-2.2c0.4-0.7,0.8-1.8,0.8-2.6c-0.1-1.1-0.5-2.2-0.9-3.1c-0.5-1-1.6-1.9-2.6-2.2c-0.5-0.2-1-0.4-1.5-0.5
		c-0.2,0-0.5,0-0.8,0C85,144.9,84.2,144.8,85.1,145.2z"/>
	<path class="st5" d="M85.1,145.2c-0.9,0.2-2,0.3-2.7,0.9c-0.2,0.2-0.4,0.4-0.5,0.6c-0.2,0.3-0.5,0.6-0.7,1
		c-0.3,0.6-0.5,1.2-0.7,1.7c-0.2,0.6-0.5,1.3-0.5,1.9c0,0.7,0.4,1.4,0.7,2c0.9,1.6,2.9,3.2,4.7,3.3c1,0.1,2.1-0.5,2.8-1.1
		c0.8-0.7,1.8-1.3,2.3-2.2c0.4-0.7,0.8-1.8,0.8-2.6c-0.1-1.1-0.5-2.2-0.9-3.1c-0.5-1-1.6-1.9-2.6-2.2c-0.5-0.2-1-0.4-1.5-0.5
		c-0.2,0-0.5,0-0.8,0C85,144.9,84.2,144.8,85.1,145.2z"/>
	<path class="st13" d="M160.8,64.9c0.6-1.3,1.8,0.8,2.5-0.5c0.3-0.5,0.5-1,0.7-1.5c0.7-1.6,3.2-4.6,4.9-6c1.3-1.1,2.7-2.3,4.1-3.2
		c0.9-0.6,1.8-1,2.6-1.7c1-0.8,2-1.4,3-2c2.1-1.2,4.4-2.2,6.8-2.9c0.6-0.2,1.2-0.2,1.8-0.4c0.7-0.2,1.3-0.5,1.9-0.7
		c1.2-0.4,2.5-0.5,3.7-0.7c2.7-0.3,5.2,0.4,7.8,0.6c3.8,0.3,7.4,1.8,10.8,3.5c1,0.5,2,1.1,2.9,1.7c0.8,0.5,1.6,1,2.4,1.5
		c1.9,1.2,3.7,2.8,5.2,4.4c1.8,1.9,3.2,4.1,4.8,6.2c1.9,2.4,3.4,4.9,4.7,7.7c1,2.2,2,4.4,2.6,6.8c0.2,1,0.5,2,0.7,2.9
		c0.2,0.9,0,1.8,0.1,2.7c0.2,1.8,0.1,3.4-0.2,5.1c0.1-0.8,1.8-9.2,2.1-9.9c0.2-1.4,0.2-2.8,0.1-4.2c-0.1-0.9,0.1-1.8-0.1-2.7
		c-0.2-1-0.4-2-0.7-2.9c-0.6-2.4-1.6-4.6-2.6-6.8c-1.3-2.8-2.8-5.3-4.7-7.7c-1.6-2.1-3-4.2-4.8-6.2c-1.5-1.6-3.4-3.2-5.2-4.4
		c-0.8-0.5-1.6-1-2.4-1.5c-0.9-0.6-1.9-1.2-2.9-1.7c-3.4-1.6-7-3.2-10.8-3.5c-2.6-0.2-5.2-0.9-7.8-0.6c-1.2,0.2-2.6,0.3-3.7,0.7
		c-0.7,0.2-1.3,0.5-1.9,0.7c-0.6,0.2-1.2,0.2-1.8,0.4c-2.4,0.7-4.6,1.6-6.8,2.9c-1.1,0.6-2.1,1.2-3,2c-0.8,0.7-1.7,1.1-2.6,1.7
		c-1.4,0.9-2.7,2.1-4.1,3.2c0,0-4.2,4.3-4.9,6c-0.2,0.5-0.4,1-0.7,1.5c-0.7,1.3-1.3,2.5-2,3.7c-1,2.1-2,4.1-2.8,6.3
		c-0.1,0.3-0.2,0.6-0.3,0.9C160.4,65.9,160.6,65.4,160.8,64.9z"/>
	<path class="st14" d="M236.6,79.7c0.3-1.8,0.4-3.4,0.2-5.2c-0.1-0.9,0.1-1.8-0.1-2.7c-0.2-1-0.4-2-0.7-2.9
		c-0.6-2.4-1.6-4.6-2.6-6.8c-1.3-2.8-2.8-5.3-4.7-7.7c-1.6-2.1-3-4.2-4.8-6.2c-1.5-1.6-3.4-3.2-5.2-4.4c-0.8-0.5-1.6-1-2.4-1.5
		c-0.9-0.6-1.9-1.2-2.9-1.7c-3.4-1.6-7-3.2-10.8-3.5c-2.6-0.2-5.2-0.9-7.8-0.6c-1.2,0.2-2.6,0.3-3.7,0.7c-0.7,0.2-1.3,0.5-1.9,0.7
		c-0.6,0.2-1.2,0.2-1.8,0.4c-2.4,0.7-4.6,1.6-6.8,2.9c-1.1,0.6-2.1,1.2-3,2c-0.8,0.7-1.7,1.1-2.6,1.7c-1.4,0.9-2.7,2.1-4.1,3.2
		c0,0-4.2,4.3-4.9,6c-0.2,0.5-0.4,1-0.7,1.5c-0.7,1.3-1.3,2.5-2,3.7c-1,2.1-2,4.1-2.8,6.3c-0.4,1.1-0.6,2.4-0.8,3.6
		c-0.2,1.5-0.5,3.1-0.6,4.6c-0.1,1.2,0,2.6,0,3.8c0,1.2-0.1,2.3,0,3.5c0.4,2.5,0.8,4.9,1.2,7.4c0.4,2.7,1.4,4.9,2.8,7.2
		c1.7,2.9,3.8,5.5,5.9,8.1c0.9,1.1,1.8,2.3,2.8,3.4c1.1,1.2,2.4,2.2,3.8,3.1c3.2,2.1,6.7,3.7,10.2,5.1c1.4,0.6,2.7,1,4.2,1
		c1.3,0,2.5,0.2,3.8,0.2c1.2,0,2.4-0.1,3.6-0.1c1.3-0.1,2.6,0.1,3.9-0.1c1.1-0.2,2-0.6,3.1-0.8c1-0.2,1.9-0.4,2.9-0.7
		c2.1-0.5,4.3-0.1,6.3-0.9c1.5-0.6,2.9-1.7,4.2-2.5c0.5-0.3,1.1-0.8,1.7-1c0.8-0.4,1.7-0.5,2.4-1c1.6-1.1,3.2-2.4,4.7-3.7
		c0.8-0.7,1.3-1.5,1.8-2.4c0.6-1,1.4-1.9,2.1-2.9c0.6-0.8,1.1-1.5,1.5-2.4c0.5-0.8,1.2-1.6,1.6-2.4c0.4-0.8,0.5-1.6,0.8-2.4
		c0.4-0.9,0.9-1.9,1.2-2.9c0.2-0.7,0-1.6,0.2-2.3c0.1-0.9,0.6-1.8,0.8-2.7c0.2-1,0.3-1.8,0.1-2.8C236.5,81.6,236.5,80.6,236.6,79.7z
		 M234.2,84.7c-0.1,0.6-0.3,1.1-0.4,1.7c-0.1,0.6-0.1,1.3-0.2,1.9c-0.2,1.2-0.5,2.3-0.9,3.5c-0.8,2.4-2.3,4.3-3.6,6.4
		c-1.8,3.1-4.4,5.5-7.2,7.7c-0.8,0.6-1.7,1.2-2.6,1.8c-0.8,0.4-1.4,1-2.2,1.4c-1.7,1.1-3.8,2-5.7,2.6c-2.3,0.7-4.7,1-7,1.5
		c-2.8,0.5-5.4,0.8-8.3,0.7c-2.3-0.1-4.5-0.2-6.7-0.7c-0.9-0.2-1.8-0.4-2.7-0.7c-0.8-0.2-1.5-0.7-2.3-1.1c-1.6-0.6-2.9-1.3-4.2-2.3
		c-0.7-0.5-1.5-1-2.3-1.2c-0.9-0.3-1.5-0.7-2.3-1.3c-0.7-0.5-1.2-1.3-1.9-1.8c-0.6-0.4-1.3-0.6-1.9-1.1c-0.7-0.6-1.3-1.5-1.9-2.2
		c-0.5-0.6-1.2-1.1-1.7-1.7c-0.5-0.7-0.9-1.6-1.4-2.4c-0.5-0.8-1-1.5-1.4-2.3c-0.5-1-0.9-2.1-1.5-3c-0.5-0.8-1-1.6-1.3-2.5
		c-0.5-1.8-0.9-3.6-1.2-5.5c-0.1-0.8,0.1-1.6,0.1-2.4c0-0.6-0.1-1.2-0.2-1.8c-0.2-1.5-0.6-3.1-0.5-4.6c0.2-2,1.4-3.7,1.8-5.7
		c0.2-0.9,0.4-1.8,0.6-2.7c0.2-1,0.2-2,0.5-2.9c0.3-1.2,1-2.2,1.4-3.3c0.4-1.1,0.8-2.1,1.3-3.1c0.5-1.1,1.1-2,1.7-3.1
		c0.6-1.3,1.4-2.2,2.5-3.2c2.6-2.4,5.2-4.7,8.2-6.5c1.3-0.8,2.6-1.5,4-1.9c1.3-0.4,2.6-0.6,3.9-0.9c2.9-0.7,6-1.5,9-1.7
		c2.5-0.2,4.7-0.1,7.1,0.7c2.2,0.7,4.4,1.3,6.6,2.1c1,0.3,1.9,1,2.9,1.4c1.1,0.5,2.2,1,3.2,1.6c1.3,0.7,2.4,1.7,3.6,2.5
		c0.9,0.6,1.9,1.4,2.7,2.2c1.5,1.6,2.8,3.3,4.2,5c0.8,1.1,1.6,2.2,2.4,3.2c0.3,0.4,0.7,0.8,1,1.2c1.1,1.3,1.5,3,2.1,4.6c0,0,0,0,0,0
		c0.3,0.5,0.8,1.2,1,2.1c0.4,1.6,0.8,3.2,1.1,4.8c0.1,1,0.1,1.9,0.4,2.9c0.3,1.1,0.4,2.2,0.5,3.4C234.7,80.1,234.6,82.4,234.2,84.7z
		"/>
	<g>
		<g>
			<g>
				<path class="st15" d="M79.6,49.1c-0.1,0.2-0.3,0.3-0.4,0.5c-0.3,0.5-0.6,1.1-0.8,1.8c-0.3,0.7-0.5,1.3-0.5,2.1
					c0,0.6-0.1,1.1-0.1,1.7c-0.1,1.4-0.1,2.8-0.4,4.1c-0.3,1.3-0.8,2.6-1.5,3.6c-0.5,0.8-1.2,1.2-1.9,1.8c-0.5,0.5-1,0.7-1.6,1
					c-0.9,0.4-1.9,0.6-2.7,0.9c-0.3,0.1-0.6,0.1-0.9,0.1c0-1.1,0-2.2,0-3.3c0-1.6,0-3.3-0.1-4.9c-0.1-1.2-0.1-2.5-0.2-3.7
					c-0.1-0.9-0.1-1.8-0.1-2.8c0-0.3,0-0.7,0.1-1c0.2-0.3,0.7-0.5,1-0.6c0.4-0.1,0.7-0.1,1.1-0.2c0.4-0.1,0.9-0.3,1.2-0.3
					c-2.1,0-4.1,0-6.1,0c-1.2,0-2.3,0.3-3.4,0.3c0.7,0,1.5,0,2.1,0.4c0.5,0.3,0.6,0.8,0.7,1.3c0.2,0.7,0.2,1.5,0.2,2.2
					c0,0.9-0.1,1.9-0.1,2.8c0.1,3.2,0.1,6.5-0.1,9.7c-0.2,0-0.5,0-0.7-0.1c-0.9-0.3-1.8-0.5-2.7-0.9c-0.6-0.3-1.1-0.5-1.6-1
					c-0.6-0.6-1.3-1-1.9-1.8c-0.7-1.1-1.2-2.3-1.5-3.6c-0.3-1.3-0.4-2.7-0.4-4.1c0-0.6-0.1-1.1-0.1-1.7c0-0.7-0.3-1.4-0.5-2.1
					c-0.2-0.6-0.5-1.2-0.8-1.8c-0.1-0.2-0.2-0.3-0.4-0.5c-0.6-0.8-1.4-0.9-2.3-1.1c0.2,0,0.4,0.3,0.6,0.7c0.3,0.4,0.6,1,0.8,1.5
					c0.5,1.2,0.6,2.5,0.5,3.8c0,0.7-0.1,1.4-0.3,2c-0.2,0.6-0.2,1.3-0.5,1.9c-0.4,1.2-0.3,2.4-0.2,3.8c0.1,1.3,0.5,2.5,1.3,3.5
					c0.3,0.4,0.7,0.7,1,1c0.4,0.4,0.9,0.5,1.5,0.7c1,0.3,2,0.7,2.9,1.2c1.1,0.5,2.2,0.6,3.4,0.5c0.7-0.1,1.4-0.1,2-0.2
					c0,0.5,0,1.1-0.1,1.6c0,0.6,0,1.2,0,1.8c0,0.4-0.1,0.8,0,1.3c0,0.4,0,0.8,0,1.2c0,0.5-0.1,1-0.1,1.5c0,0.4-0.1,1,0,1.4
					c0,0.3,0,0.5,0.1,0.8c0,0.3-0.1,0.7,0,1c0,0.6,0,1.2-0.4,1.7c-0.4,0.4-0.9,1-1.5,0.9c0.9,0.1,1.8,0.1,2.6,0.1c0.4,0,0.9,0,1.3,0
					c0.4,0,0.8,0,1.2,0c0.8-0.1,1.7-0.1,2.5-0.2c0.4,0,0.8,0,1.2-0.1c0.2,0,0.5,0,0.7-0.1c-0.9-0.2-1.9-0.2-2.6-0.9
					c-0.2-0.3-0.3-0.7-0.4-1c-0.1-0.5-0.2-1-0.3-1.5c-0.3-1.6-0.3-3.2-0.2-4.8c0.1-1.6-0.1-3.2-0.2-4.8c0.8,0.1,1.5,0.2,2.3,0.2
					c1.2,0.1,2.3,0,3.4-0.5c1-0.4,1.9-0.9,2.9-1.2c0.5-0.2,1-0.3,1.5-0.7c0.3-0.3,0.7-0.6,1-1c0.8-0.9,1.2-2.1,1.3-3.5
					c0.1-1.3,0.2-2.5-0.2-3.8c-0.2-0.6-0.3-1.3-0.5-1.9c-0.2-0.6-0.3-1.3-0.3-2c-0.1-1.3,0-2.6,0.5-3.8c0.2-0.5,0.5-1,0.8-1.5
					c0.2-0.3,0.5-0.7,0.6-0.7C81,48.3,80.2,48.4,79.6,49.1z"/>
			</g>
		</g>
		<path class="st15" d="M85.3,48.6c-0.4,0.1-1.1,0.8-0.7,1.5c3.3,5.9,6.5,9.6,10.6,15.1c-1.3,2.1-3.5,4.7-4.8,6.6
			c-1.8,2.6-3.4,4.5-5.5,6.9c-0.4,0.5-0.5,1.4-0.2,2c0.1,0.2,0.3,0.3,0.5,0.4c0.6,0.3,1.3,0.2,1.9-0.1c0.6-0.3,1.1-0.8,1.6-1.2
			c3.8-3.6,7.5-8.9,10.2-13.5c0.2-0.3,0.4-0.7,0.4-1c0-0.4-0.3-0.8-0.5-1.1c-1.4-1.9-2.1-3.3-3.6-5.4c-0.8-1.2-3.2-3.9-4.4-5.4
			c-1.6-2.1-1.8-2.4-3.9-4.7C86.3,48.2,85.6,48.5,85.3,48.6z"/>
		<path class="st15" d="M43.8,48.5c-0.4,0-0.8,0.2-1,0.4c-0.9,0.9-0.4,2.6-0.4,3.6c0.1,1.9,0,3.8-0.1,5.6c-0.1,1.4-0.2,2.8-0.1,4.2
			c0.1,1.4-0.1,2.9-0.1,4.3c0,1.6,0,3.3,0,4.9c0,1.5-0.2,3-0.2,4.5c0,1,0.2,2,0.4,2.9c0.1,0.5,0.2,1.1,0.4,1.6
			c0.2,0.3,0.5,0.5,0.9,0.6c0.3,0,1,0.2,1.3-0.1c0.2-0.2,0.3-0.6,0.4-0.8c0.2-0.4,0.2-0.9,0.3-1.4c0.2-1.2,0.2-2.3,0.1-3.5
			c0-0.7-0.1-1.5-0.2-2.2c-0.1-0.7,0-1.4-0.1-2c0-0.7-0.1-1.4-0.2-2.1c-0.1-0.6,0.1-1.2,0.1-1.8c0.1-0.5,0-1,0-1.5
			c0-0.5,0-0.9,0-1.4c-0.2-2.7,0.2-5.4,0.2-8.2c0-0.9,0.2-1.8,0-2.7c-0.1-0.4,0-0.8,0-1.2c0-0.4,0-0.8,0-1.2c-0.1-0.7,0-1.9-0.7-2.4
			C44.7,48.5,44.2,48.4,43.8,48.5z"/>
	</g>
</g>
</svg>
