<?xml version="1.0" encoding="utf-8"?>
<!-- Generator: Adobe Illustrator 27.2.0, SVG Export Plug-In . SVG Version: 6.00 Build 0)  -->
<svg version="1.1" id="Layer_1" xmlns="http://www.w3.org/2000/svg" xmlns:xlink="http://www.w3.org/1999/xlink" x="0px" y="0px"
	 viewBox="0 0 300 200" style="enable-background:new 0 0 300 200;" xml:space="preserve">
<style type="text/css">
	.st0{fill:#F0EEEF;}
	.st1{fill:#F0EEEF;stroke:#000000;stroke-linecap:round;stroke-linejoin:round;stroke-miterlimit:10;}
	.st2{fill:#FF87EB;stroke:#000000;stroke-linecap:round;stroke-linejoin:round;stroke-miterlimit:10;}
	.st3{fill:#BCBABA;stroke:#000000;stroke-linecap:round;stroke-linejoin:round;stroke-miterlimit:10;}
	.st4{fill:#DAD8D8;stroke:#000000;stroke-linecap:round;stroke-linejoin:round;stroke-miterlimit:10;}
	.st5{fill:#ACE3FF;stroke:#000000;stroke-linecap:round;stroke-linejoin:round;stroke-miterlimit:10;}
	.st6{fill:#70CEFF;stroke:#000000;stroke-linecap:round;stroke-linejoin:round;stroke-miterlimit:10;}
	.st7{fill:#FFE096;stroke:#000000;stroke-linecap:round;stroke-linejoin:round;stroke-miterlimit:10;}
	.st8{fill:#FFEEBF;stroke:#000000;stroke-linecap:round;stroke-linejoin:round;stroke-miterlimit:10;}
	.st9{fill:none;stroke:#000000;stroke-linecap:round;stroke-linejoin:round;stroke-miterlimit:10;}
	.st10{clip-path:url(#SVGID_00000026848182564271065320000002222014933803888564_);}
	.st11{fill:none;stroke:#FFFFFF;stroke-miterlimit:10;}
	.st12{fill:#ACE3FF;stroke:#FFFFFF;stroke-linecap:round;stroke-linejoin:round;stroke-miterlimit:10;}
	.st13{fill:#FFEEBF;stroke:#FFFFFF;stroke-linecap:round;stroke-linejoin:round;stroke-miterlimit:10;}
	.st14{fill:#E1EBA8;stroke:#FFFFFF;stroke-linecap:round;stroke-linejoin:round;stroke-miterlimit:10;}
	.st15{fill:#FDC9DE;stroke:#FFFFFF;stroke-linecap:round;stroke-linejoin:round;stroke-miterlimit:10;}
	.st16{fill:#B7F2ED;stroke:#FFFFFF;stroke-linecap:round;stroke-linejoin:round;stroke-miterlimit:10;}
	.st17{fill:#D7A2F6;stroke:#FFFFFF;stroke-linecap:round;stroke-linejoin:round;stroke-miterlimit:10;}
	.st18{fill:#70CEFF;stroke:#FFFFFF;stroke-linecap:round;stroke-linejoin:round;stroke-miterlimit:10;}
	.st19{fill:none;stroke:#FFFFFF;stroke-width:3;stroke-linecap:round;stroke-linejoin:round;stroke-miterlimit:10;}
	.st20{fill:none;stroke:#70CEFF;stroke-linecap:round;stroke-linejoin:round;stroke-miterlimit:10;}
	.st21{fill:none;stroke:#C756B2;stroke-linecap:round;stroke-linejoin:round;stroke-miterlimit:10;}
	.st22{fill:none;stroke:#FFE096;stroke-linecap:round;stroke-linejoin:round;stroke-miterlimit:10;}
	.st23{fill:#FF87EB;stroke:#FFFFFF;stroke-linecap:round;stroke-linejoin:round;stroke-miterlimit:10;}
	.st24{fill:#FFE096;stroke:#FFFFFF;stroke-linecap:round;stroke-linejoin:round;stroke-miterlimit:10;}
</style>
<g>
	<path class="st0" d="M104.9,101.3c0-2.4,0-4.8-0.7-7.1s-2.3-4.4-4.6-5.3c-1-0.4-2.2-0.5-3.1-1.1c-0.9-0.6-1.5-1.7-1.9-2.7
		c-1.2-2.8-2.3-5.8-4.3-8.1s-5.7-3.6-8.4-2.1c-0.1-3.2-3.2-5.7-6.4-5.9c-3.2-0.1-6.3,1.8-8.1,4.4c-1.8,2.6-2.4,5.9-2.4,9
		c-4.9-0.9-9.9-1.8-14.8-1c-4.9,0.8-9.7,3.8-11.3,8.4c-3.7,1.1-7.3,2.3-10.8,3.8c-2,0.8-4.1,1.7-5.5,3.3c-2.5,2.8-2.5,7-1.1,10.4
		s4.1,6.1,6.7,8.8c-6.2,2.5-11.3,7.4-13.8,13.4c-0.4,1-0.7,2.3,0.1,3c-1.7,0.7-3.5,1.3-4.9,2.5c-1.4,1.2-2.3,3-1.9,4.8
		c0.5,2.2,2.8,3.5,4.9,4.3c8.9,3.1,18.7,1.2,28,3c5.7,1.1,11,3.7,16.8,4.3c4.7,0.5,9.5-0.4,14.2-0.8c5.9-0.4,11.8-0.1,17.6,1.1
		c5.6,1.2,12.1,2.9,16.4-0.8c1.5-1.3,2.5-3.1,4.2-4c1.7-1,3.7-0.9,5.6-1.5c4.8-1.4,7.7-6.5,8.1-11.4c0.3-3.4-0.3-6.9,0.7-10.2
		c1.9-6.2,1.6-10.5-3.3-15.4C116.5,104.6,111.2,100.2,104.9,101.3z"/>
	<path class="st1" d="M150.3,136.3c0.4-1.4,0.9-2.6,0.3-4c-0.3-0.7-0.6-1.4-0.9-2c-0.8-1.6-1.9-3.1-3.5-3.9c-2.5-1.3-5.4-2-8.2-1.6
		c0.9-0.6,1.4-1.4,1.6-2.5c0.6-2.7,0-5.4-1.8-7.6c-0.8-0.9-1.9-2.1-3-2.7c-1.1-0.6-2.3-0.7-3.4-0.8c-0.5,0-1-0.1-1.6-0.1
		c0,0-0.8,0.1-0.9,0c-0.2-0.1-0.2-0.2-0.2-0.5c-0.1-1.6-0.5-2.9-1.5-4.2c-1-1.2-2.7-2-4.1-2.6c-1.5-0.7-3.4-1.4-5-1.9
		c-1.3-0.4-2.7-0.2-4,0c-1.4,0.3-2.6,0.6-3.8,1.4c-0.9,0.6-1.3,1.4-1.9,2.3c-0.3,0.5-0.7,1-0.9,1.5c-0.3-0.4-0.5-1-0.9-1.4
		c-0.9-0.8-2.3-1.5-3.5-1.7c-1.5-0.2-3,0.5-4.4,1c-1.7,0.7-3.5,1.7-4.8,3c-1.5,1.5-4.1,3.8-3.1,6.2c0.6,1.5,1.9,2.9,2.8,4.3
		c-0.5-0.4-1-0.6-1.6-0.4c-1.6,0.5-2,2.1-2.4,3.6c-0.6,2.2-0.5,4.3-0.2,6.6c0.1,0.9,0.3,1.7,0.5,2.6c0.1,0.3,0.3,0.7,0.1,1
		c-0.5-0.1-1.1-0.5-1.6-0.8c-0.9-0.6-1.7-1.1-2.8-1.4c-1.4-0.3-2.7,0-4,0.3c-1.1,0.3-2.4,0.8-3.3,1.6c-0.8,0.7-1.1,1.6-1.4,2.6
		c-0.2,0.9-0.6,2-0.3,2.9c0.3,1.1,1.1,2.1,2.1,2.8c-1.7-0.2-3.9,0.2-5.2,1.3c-0.7,0.6-1.3,1.5-1.3,2.4c0,0.4,0.1,0.8-0.1,1.2
		c-0.3-0.2-0.6-0.6-1-0.7c-0.9-0.4-2.4-0.6-3.3-0.4c-0.8,0.2-1.7,0.9-1.8,1.7c-0.3,1.5,1.1,2.6,2.4,3.2c1.2,0.6,2.5,0.7,3.7,0.7
		c0.6,0,1.4,0.2,2-0.2c-0.4,0.6,0.2,1.6,0.5,2.1c0.7,0.9,1.9,1.1,2.9,1.3c1.1,0.2,2.5,0.3,3.6,0.2c0.8-0.1,1.5-0.3,2.2-0.4
		c0.5-0.1,1.3-0.3,1.8-0.1c0.6,0.3,0.1,0.6,0.2,1.2c0.3,1.2,1.8,1.6,2.8,1.9c1.4,0.4,2.9,1.1,4.4,1.3c0.9,0.1,1.8,0,2.7-0.1
		c1.2-0.2,2.4-0.1,3.7-0.2c2.4-0.2,4.8-0.6,7.2-1.1c1.4-0.3,2.7-0.5,4.1-0.8c1.6-0.3,3.2-0.3,4.9-0.4c2.4-0.2,4.7-0.6,7.1-0.6
		c2.3-0.1,4.7-0.2,7-0.6c2.1-0.4,4.3-0.3,6.3-0.9c1.3-0.4,2.6-0.8,3.8-1.5c1.1-0.6,2.1-1.3,3.1-2.2c1.2-1.1,2.1-2.5,3.1-3.8
		c0.8-1.1,1.6-2.2,2.3-3.4c0.5-0.8,1-1.7,1.3-2.6C149.4,137.2,149.4,135.4,150.3,136.3z"/>
	<path class="st2" d="M223.9,69.3c-1.8-0.3-3.5-0.6-5.3-0.3c-0.6,0.1-1.2,0.2-1.8,0.2c-1.3,0-2.7-0.1-4-0.1c-2.3,0-4.7,0-6.9-1
		c-0.8-0.4-2.1-1.2-2.5-2.1c-0.5-1.1,0.2-2.4,0.5-3.4c0.6-2.4-0.9-5.1-3.3-5.8c-1.9-0.5-3.6-0.4-5.5-0.2c-1,0.1-2-0.1-3-0.2
		c-0.9-0.1-1.9,0-2.8-0.1c-1.6-0.2-2.6-1.5-3.9-2.3c-0.6-0.4-1.3-0.6-1.9-0.7c-0.3,0-1.3-0.4-1.4-0.2c0.5,0.6,1,1.3,1.5,1.9
		c0.4,0.4,1.1,0.8,1.4,1.2c-0.2,0.3-1.2,0.2-1.5,0.2c-0.5,0.1-1.3,0-1.7,0.2c0.8,1,2,1.8,2.7,2.9c-0.2,0.5-1.6,0.3-2,0.3
		c-0.9,0.1-1.9-0.1-2.7,0.3c0.5,0.7,1.3,1.2,1.8,1.9c-0.6,0.4-1.7,0.1-2.2,0.6c1,1.4,3.2,1.3,4.7,1.2c0.7,0,1.3,0,2,0.1
		c0.6,0,1.3,0.3,1.9,0.3c0.7,0,1.4-0.2,2.1,0c0.9,0.2,1.7,0.5,2.6,0.8c1.4,0.6,3.3,1.2,3.9,2.7c0.7,1.6-0.4,3.1,0,4.7
		c0.2,0.7,0.7,1.3,1.2,1.9c0.6,0.7,1.1,1.5,1.9,2.1c1,0.9,2.4,1.5,3.8,1.6c0.7,0.1,1.4,0,2,0.1c0.8,0.1,1.7,0.1,2.5,0.1
		c1.5-0.1,3-0.4,4.5-0.1c2,0.4,3.8,1.7,5.9,1.9c0.7,0,1.4,0.1,2-0.2c0.5-0.3,0.9-0.8,1.3-1.2c1.2-1.2,1.9-2.6,2.4-4.2
		c0.4-1,0.4-2.2,0.4-3.3C224.6,70.4,223.8,69.2,223.9,69.3z"/>
	<path class="st1" d="M242.9,55.8c-2.4-0.3-4.7-0.6-6.9-1.6c-1.3-0.6-2.7-0.9-3.9-1.6c-0.6-0.3-1.2-0.7-1.7-1.2
		c-0.5-0.4-0.8-0.9-1.2-1.4c-0.7-0.8-1.4-1.5-1.9-2.5c-0.2-0.4-0.3-0.8-0.5-1.2c-0.3-0.5-0.7-0.9-1-1.4c-0.3-0.7-0.4-1.5-0.8-2.2
		c-0.3-0.4-0.5-0.8-0.7-1.3c-0.3-0.5-0.6-0.8-1.1-1.1c0.4-0.1,0.9-0.1,1.3-0.1c1,0,2-0.1,2.9-0.2c1.3-0.1,2.5-0.5,3.8-0.7
		c2.3-0.3,4.6-0.8,6.9-1.2c0.8-0.1,1.7-0.2,2.5-0.5c0.4-0.2,0.7-0.3,1.2-0.4c0.7-0.2,1.4-0.2,2.1-0.3c0.7-0.1,1.4-0.3,2.1-0.5
		c0.9-0.3,1.8-0.5,2.7-0.7c0.9-0.2,1.8-0.5,2.7-0.6c0,0.3,1,0.4,1.3,0.5c0.7,0.2,1.4,0.4,2,0.7c0.9,0.3,1.7,0.4,2.6,0.6
		c1.1,0.2,2,0.9,3,1.2c0.3,0.1,0.7,0.1,1,0.1c0.8,0.1,1.5,0.5,2.3,0.7c1.1,0.3,2.3,0.4,3.4,0.8c0.8,0.2,1.5,0.6,2.3,0.8
		c0.8,0.2,1.6,0.3,2.4,0.5c2.4,0.6,4.7,1.3,7.1,1.9c2.5,0.6,5,1.5,7.4,2.4c0.9,0.4,1.9,0.7,2.8,1.1c1,0.5,2.1,0.9,3.2,1.1
		c-1.2,2.2-2.9,4-4.7,5.7c-2.1,2-4.1,3.7-6.6,5.2c-2,1.2-4.1,1.8-6.4,2.4c-1.7,0.4-3.4,0.5-5.1,0.6c-0.6,0-1.3,0-1.9,0
		c-0.9,0-1.8-0.2-2.7-0.3c-1.9-0.2-3.8-0.5-5.7-0.9c-2.1-0.5-4.1-1-6.1-1.7c-1.2-0.4-2.3-1-3.6-1.3c-1.2-0.3-2.2-1-3.5-1.2
		c-0.6-0.1-1.2-0.2-1.7-0.2C243.8,55.8,243,56.1,242.9,55.8z"/>
	<path class="st3" d="M259.3,58.5c-1.4-1.5-2.7-3.2-4.3-4.4c-0.7-0.5-1.5-0.9-2.3-1.3c-1.5-0.8-3-1.7-4.5-2.5
		c-0.9-0.5-1.9-0.8-2.8-1.3c-1-0.5-2-0.9-3.1-1.3c-0.9-0.4-1.7-1-2.6-1.3c-1.6-0.6-3.1-1.2-4.7-1.8c-1.8-0.7-3.7-1.5-5.6-2
		c-1.3-0.3-2.6-0.7-3.8-1.2c-0.4-0.2-2-1-2.4-0.7c-0.1,0.1-0.2,0.4-0.2,0.6c-0.2,0.7-0.5,1.4-0.8,2.1c-0.5,1.3-0.9,2.6-1.4,3.9
		c-0.4,1.2-1,2.3-1.5,3.4c-0.6,1.2-1.1,2.5-1.7,3.8c-1.3,2.7-2.7,5.2-3.7,8c-0.8,2.3-1.4,4.7-2.1,7c-0.4,1.2-0.9,2.4-1.3,3.7
		c-0.5,1.6-0.9,3.2-1.3,4.8c-0.9,3.2-2.4,6.1-3.6,9.1c-2.2,5.5-4.7,10.9-7,16.4c-0.6,1.4-1.1,2.7-1.7,4.1c-0.6,1.5-1.2,3-1.9,4.4
		c-0.7,1.2-1.2,2.5-1.9,3.7c-0.7,1.3-1.3,2.7-1.9,4.1c-0.8,1.9-1.6,3.7-2.6,5.5c-0.6,1-1.1,2-1.7,3c-0.4,0.6-1.2,1.4-1.3,2.2
		c0.6,0.1,1.5,0.8,2,1.1c1.5,0.9,3,2.1,4.5,3c1.5,0.9,2.9,1.8,4.4,2.7c1.4,0.8,2.7,1.8,4.1,2.6c1.2,0.7,2.2,1.7,3.4,2.4
		c0.8,0.5,1.6,1.2,2.5,1.7c0.6,0.4,1.2,0.7,1.8,1.2c0.8,0.6,1.6,1.2,2.6,1.6c0.4,0.2,0.8,0.3,1.2,0.5c0.8,0.5,1.6,1,2.3,1.5
		c0.5,0.4,1.1,0.6,1.5,1c0.3-0.4,1.1-0.6,1.6-0.9c1.2-0.6,2.4-1.3,3.5-2.1c3.3-2.6,6-5.8,8.6-9.1c1.1-1.4,2.2-2.8,3.1-4.2
		c2.2-3.3,4.4-6.5,6.4-9.8c2.5-4.2,5.2-8.5,7.3-13c0.9-1.8,1.6-3.8,2.3-5.7c1-2.7,2-5.4,2.9-8.1c1-3.1,2-6.3,3-9.4
		c0.7-2.5,1.2-5,1.9-7.5c0.9-3.1,1.5-6.2,2-9.3c0.4-2.2,0.8-4.4,0.6-6.6c-0.1-0.7,0.1-1.3,0-2c0-0.4-0.1-0.9-0.1-1.3
		c0-0.6-0.1-1.1-0.2-1.7C258.8,58.4,258.8,57.9,259.3,58.5z"/>
	<path class="st4" d="M292.3,47.5c-2.2,0.5-4.4,1.1-6.6,1.3c-1.2,0.1-2.3,0.2-3.5,0.4c-1.9,0.4-3.7,0.6-5.6,0.9
		c-1.4,0.2-2.8,0.3-4.2,0.5c-1.1,0.1-2.2,0.5-3.3,0.6c-0.7,0.1-1.3,0.1-2,0.2c-0.8,0.1-1.6,0.4-2.4,0.6c-1.1,0.3-2.3,0.4-3.4,0.6
		c-1.4,0.3-2.7,0.7-4.1,0.9c-1.2,0.2-2.3,0.3-3.5,0.5c0.3,2.3-0.3,5-1.1,7c-0.9,2.2-1.7,4.4-2.4,6.6c-0.2,0.7-0.4,1.3-0.5,2
		c-0.2,1.3-0.6,2.5-1,3.8c-0.4,1.5-1,2.9-1.4,4.4c-0.3,1.3-0.8,2.5-1.2,3.7c-1.2,3.6-3,7-4,10.6c-1.1,4.1-3.1,7.7-4.6,11.6
		c-1.8,4.6-3.8,9-5.8,13.4c-1.7,3.9-3.5,7.8-5.4,11.6c-1.4,3-2.8,5.9-4.3,8.8c-1.3,2.5-2.4,4.9-3.6,7.5c-0.4,1-0.9,2-1.3,3
		c-0.2,0.4-0.4,0.8-0.6,1.2c-0.1,0.2-0.3,0.4-0.3,0.6c0.4-0.3,1.3,0,1.8,0c1.3-0.1,2.7-0.2,4-0.3c1.4-0.1,2.8-0.3,4.2-0.3
		c1.2,0,2.4-0.4,3.6-0.6c0.8-0.1,1.5-0.2,2.3-0.3c0.7-0.1,1.4-0.3,2.1-0.5c1-0.3,2-0.5,3-0.6c1.2-0.2,2.3-0.5,3.5-0.8
		c1.3-0.4,2.6-0.4,3.9-0.6c1.4-0.3,2.7-0.8,4.2-1c1.1-0.2,2.3-0.4,3.2-0.9c0.3-0.2,0.8-0.3,1-0.6c0.4-0.4,0.7-1,0.9-1.6
		c0.6-1.3,1.4-2.4,2.1-3.6c0.7-1.1,1.3-2.3,1.9-3.5c0.7-1.4,1.4-2.8,2.2-4.2c0.4-0.7,0.6-1.3,0.9-2.1c0.4-1.1,1-2,1.5-3
		c1.3-2.6,2.5-5.3,3.7-8c0.4-0.8,0.6-1.7,0.9-2.5c0.2-0.5,0.5-1,0.7-1.5c0.6-1.5,1.1-3,1.8-4.4c0.5-1,0.9-2,1.3-2.9
		c0.6-1.4,1.5-2.7,2.1-4c0.7-1.6,1.2-3.4,2.2-4.9c0.7-1,1.1-2.3,1.4-3.5c0.6-2.1,1.4-4.2,2.2-6.3c0.3-0.9,0.6-1.7,0.9-2.6
		c0.6-1.6,1-3.3,1.5-4.8c0.4-1,0.8-2.1,1.1-3.2c0.3-0.8,0.8-1.6,1.1-2.4c0.2-0.6,0.3-1.2,0.5-1.7c0.9-3,2-6,3.2-8.8
		c0.4-1,0.8-2.1,1.1-3.2c0.5-1.6,1.2-3.2,1.8-4.8c0.7-1.7,1-3.5,1.7-5.2C292.2,49.6,292.5,48.6,292.3,47.5z"/>
	<path class="st5" d="M55.2,123.4c-4.1-1.1-8.2-2.2-12.3-3.4c-0.9-0.3-1.7-0.5-2.6-0.7c-0.5-0.1-1-0.3-1.4-0.5
		c-0.5-0.2-1-0.3-1.5-0.4c-1.1-0.3-2.1-0.8-3.1-1.1c-0.9-0.3-1.7-0.5-2.6-0.8c-1.7-0.7-3.5-1-5.2-1.6c-0.7-0.3-1.5-0.4-2.3-0.6
		c-0.8-0.2-1.6-0.5-2.4-0.7c-0.7-0.1-1.3-0.2-2-0.4c-0.7-0.2-1.4-0.5-2.1-0.6c-0.9-0.2-1.9-0.3-2.7-0.7c0.1,0.4,0.3,0.7,0.5,1
		c0.4,0.7,1,1.3,1.4,1.9c1,1.5,1.5,3.4,2.3,5c1,2,2.3,3.9,3.4,5.8c0.6,1.1,1.4,2.1,2.1,3.1c0.9,1.3,1.9,2.5,3,3.6
		c0.6,0.6,1.3,1,1.9,1.5c0.7,0.5,1.3,1,2,1.5c0.8,0.5,1.6,1,2.4,1.3c0.4,0.2,0.9,0.3,1.3,0.5c0.7,0.2,1.4,0.6,2.1,0.8
		c1.9,0.6,3.7,1.2,5.6,1.6c0.9,0.2,1.8,0.6,2.8,0.7c0.9,0.2,1.9,0.2,2.8,0.3c2.5,0.3,5.1,0.1,7.6-0.2c1.9-0.2,3.8-0.6,5.6-1
		c0.9-0.2,1.8-0.4,2.7-0.5c0.7-0.1,1.3-0.3,1.9-0.5c0.5-0.1,1-0.2,1.5-0.3c0.3-0.1,0.7-0.2,1-0.2c-0.3-0.4-0.6-0.7-1-1.1
		c-0.6-0.7-1.1-1.4-1.8-2.1c-0.9-0.9-1.8-1.9-2.8-2.8c-1-1-2.1-1.9-3.1-2.9c-1.4-1.3-2.6-2.8-3.8-4.2
		C55.8,124.2,55.1,123.5,55.2,123.4z"/>
	<path class="st6" d="M38.9,134.3c-0.3-0.8-0.6-1.9-1.2-2.5c-0.2-0.2-0.5-0.4-0.7-0.6c-0.6-0.4-1.2-0.9-1.8-1.3
		c-0.5-0.3-0.9-0.7-1.4-1.1c-0.5-0.4-1-0.6-1.5-0.9c-1-0.6-2-1.4-3.1-2c-1-0.6-2-1.4-3-2.1c-0.4-0.3-0.8-0.7-1.2-1
		c-0.4-0.4-0.8-0.9-1.3-1.3c-0.4-0.4-0.9-0.7-1.2-1.2c-0.5-0.6-0.9-1.1-1.4-1.6c-0.9-0.9-1.7-1.9-2.6-2.8c-0.9-0.9-1.8-1.6-2.7-2.5
		c-0.3-0.3-0.6-0.6-0.9-0.9c-0.2-0.2-0.4-0.4-0.5-0.6c-0.2,0.2-0.2,0.6-0.4,0.9c-0.3,0.5-0.5,1.1-0.8,1.6c-0.5,0.8-0.6,1.7-1.1,2.5
		c-0.5,1-1,2-1.4,3c-0.2,0.5-0.4,0.9-0.6,1.4c-0.2,0.5-0.3,1-0.4,1.5c-0.1,0.6-0.3,1.2-0.3,1.9c0,0.4,0,0.7-0.1,1.1
		c0,0.2-0.1,0.6,0,0.9c0.1,0.2,0.3,0.4,0.5,0.6c0.6,0.6,1.2,1.1,1.8,1.7c1.2,1.1,2.3,2.3,3.5,3.4c0.7,0.7,1.4,1.3,2.1,2
		c0.6,0.6,1.2,1.2,1.8,1.8c0.6,0.6,1.4,1.1,2,1.7c0.6,0.6,1.3,1.1,2,1.7c0.6,0.5,1.2,0.9,1.9,1.4c0.5,0.3,0.9,0.8,1.4,1.2
		c0.8,0.6,1.6,1.1,2.3,1.7c0.4,0.3,0.8,0.7,1.2,0.9c0.6,0.3,1.2,0.4,1.9,0.5c1.2,0.1,2.3-0.2,3.3-0.7c0.5-0.2,1-0.4,1.5-0.8
		c0.4-0.3,0.8-0.7,1.1-1.2c0.6-0.9,1.2-1.8,1.5-2.8c0.2-0.6,0.2-1.2,0.4-1.7c0.1-0.5,0.2-1,0.2-1.5c0-0.6-0.2-1.3-0.5-1.8
		c-0.1-0.2-0.3-0.4-0.5-0.6C38.6,133.9,38.5,133.5,38.9,134.3z"/>
	<path class="st5" d="M68.7,137.7c-0.8-0.4-1.5-0.6-2.4-0.8c-0.6-0.1-1.2-0.1-1.8-0.2c-1.6-0.2-3.1-0.5-4.6-0.9
		c-0.8-0.2-1.7-0.3-2.6-0.4c-0.9-0.2-1.8-0.5-2.7-0.6c-0.8-0.2-1.7-0.3-2.5-0.4c-0.8-0.1-1.6-0.4-2.4-0.5c-1.5-0.2-2.9-0.7-4.3-1
		c-1.3-0.3-2.5-0.7-3.8-1.1c-1-0.4-2.1-0.4-3.2-0.8c-0.5-0.2-1.1-0.4-1.5-0.5c-0.3-0.1-0.7-0.3-0.9-0.4c-0.2-0.1-0.4-0.2-0.6-0.3
		c-0.5,2.4-1.4,4.6-2,6.9c-0.3,1.1-0.6,2.2-1,3.3c-0.2,0.8-0.6,1.6-0.8,2.4c-0.2,1-0.4,1.9-0.7,2.9c-0.1,0.2-0.1,0.2,0.1,0.3
		c0.1,0.1,0.4,0.1,0.5,0.1c0.4,0.2,0.8,0.2,1.2,0.4c0.4,0.1,0.8,0.2,1.2,0.3c0.4,0.1,0.7,0.3,1,0.4c0.7,0.3,1.5,0.4,2.3,0.6
		c0.8,0.2,1.7,0.2,2.5,0.4c1.2,0.3,2.4,0.5,3.6,0.9c1.1,0.3,2.1,0.5,3.2,0.7c1,0.2,2.1,0.5,3.1,0.7c1,0.2,2,0.3,3,0.5
		c0.9,0.2,1.7,0.3,2.6,0.4c1.1,0.1,2.1-0.1,3.1-0.2c0.8-0.1,1.7-0.1,2.5-0.1c0.7-0.1,1.4-0.3,2.2-0.4c0.5-0.1,1-0.1,1.5-0.2
		c0.4-0.1,0.9-0.1,1.3-0.2c0.3-0.1,0.2-0.2,0.3-0.4c0.1-0.4,0.3-0.8,0.4-1.2c0.4-1,0.6-2.1,0.9-3.1c0.2-1,0.6-2.1,0.8-3.1
		c0.1-0.5,0.1-1,0.3-1.4c0.1-0.4,0.3-0.8,0.4-1.2C68.8,138.7,69,138.2,68.7,137.7z"/>
	<path class="st7" d="M58.8,141.9c-0.1-0.4-0.3-1.3-0.7-1.6c-0.1-0.1-0.3,0-0.4-0.1c-0.3-0.1-0.5-0.2-0.8-0.2
		c-0.5-0.1-1-0.2-1.5-0.2c-0.6,0-1.2,0-1.9-0.1c-0.5-0.1-1.1-0.2-1.6-0.4c-1.1-0.3-2.3-0.4-3.4-0.7c-1-0.3-1.9-0.6-2.9-0.8
		c-1.1-0.2-2.2-0.5-3.3-0.8c-0.7-0.2-1.4-0.4-2-0.6c-0.5-0.2-1.1-0.4-1.7-0.3c-0.5,0.1-0.8,0.4-1.2,0.7c-0.7,0.6-1.3,1.5-0.8,2.4
		c0.7,1.1,1.8,1.5,3,2c0.8,0.4,1.6,0.7,2.4,0.9c1.3,0.3,2.6,0.8,3.9,1c1.1,0.1,2.2,0.2,3.3,0.4c1,0.2,2.1,0.2,3.2,0.2
		c0.9,0.1,1.9,0,2.8,0.1c0.6,0.1,1.3,0,1.9-0.2C58.3,143.2,59.2,142.9,58.8,141.9z"/>
	<path class="st2" d="M66,143.1c-0.3-0.5-0.6-1-1.1-0.7c-0.1,0.1-0.3,0.2-0.3,0.3c-0.2,0.2-0.3,0.6-0.3,0.9c0,0.5,0.3,0.8,0.8,0.9
		c0.4,0,0.8-0.1,1-0.3C66.3,143.8,66.3,143.2,66,143.1z"/>
	<path class="st2" d="M62.6,142.1c-0.5-0.1-1-0.1-1.4,0.1c-0.1,0.5,0,1,0.5,1.2c0.3,0.1,0.6,0.2,0.9,0c0.2-0.2,0.5-0.6,0.5-0.8
		C63.1,142.3,63,142,62.6,142.1z"/>
	<path class="st3" d="M57.2,129.5c-0.1-0.8,0-1.5-0.6-2.1c-0.3-0.3-0.7-0.4-1.1-0.5c-1-0.4-2.1-0.6-3.1-0.9
		c-0.7-0.2-1.4-0.5-2.2-0.7c-0.7-0.2-1.5-0.3-2.2-0.5c-0.8-0.2-1.6-0.4-2.4-0.6c-0.8-0.2-1.6-0.3-2.4-0.6c-1.5-0.5-3.1-0.8-4.6-1.4
		c-1.3-0.5-2.7-0.6-3.9-1.1c-0.9-0.3-1.8-0.6-2.7-0.7c-0.5,0-0.7-0.1-1.1,0.1c-0.4,0.2-0.8,0.4-1,0.9c-0.2,0.6,0,1,0.4,1.4
		c0.6,0.6,1.2,1.1,2,1.5c0.5,0.2,0.8,0.6,1.3,0.8c0.7,0.4,1.5,0.6,2.2,0.8c0.5,0.1,0.9,0.3,1.4,0.4c0.5,0.1,1.1,0.1,1.6,0.2
		c1.4,0.2,2.7,0.6,4,0.9c0.6,0.1,1.3,0.2,1.9,0.3c0.7,0.1,1.4,0.3,2,0.5c0.7,0.2,1.3,0.3,2,0.5c0.6,0.2,1.1,0.4,1.6,0.6
		c1.1,0.4,2.4,0.5,3.5,1c0.6,0.2,1.2,0.3,1.9,0.2c0.3,0,1-0.2,1.2-0.5C57.1,129.8,56.9,128.9,57.2,129.5z"/>
	<path class="st3" d="M59.2,99.3c-1.4-0.3-2.7-0.5-4.1-0.5c-0.8,0.1-1.6,0.1-2.4,0.3c-1.3,0.3-2.5,1.4-3.3,2.4
		c-0.4,0.6-0.9,1.1-1.3,1.7c-0.5,0.7-0.6,1.4-0.8,2.1c-0.2,0.6-0.5,1.2-0.6,1.8c-0.1,0.6,0,1.3,0.1,1.9c0.1,0.7,0.2,1.3,0.4,1.9
		c0.2,0.7,0.4,1.3,0.6,2c0.3,1.2,0.8,2.3,1.1,3.5c0.2,0.9,0.6,1.8,0.7,2.6c0.1,0.3,0.1,0.7,0.3,1c0.1,0.4,0.3,0.6,0.2,1
		c0,0.5,0,1.1-0.1,1.6c0,0.4-0.1,0.8-0.3,1.1c-0.2,0.3-0.3,0.6-0.6,0.8c-0.3,0.3-0.7,0.4-1.1,0.6c-0.4,0.2-0.9,0.2-1.3,0.4
		c-0.4,0.1-0.9,0.3-1.3,0.3c-1.2,0.2-2.3,0.3-3.5,0c-0.2-0.1-0.4-0.1-0.6-0.2c-0.2,0-0.3,0-0.5,0c-0.3,0-0.5-0.1-0.6-0.4
		c0-0.2,0.1-0.4,0.2-0.6c0.2-0.3,0.3-0.7,0.4-1.1c0.1-0.6,0.4-1.2,0.5-1.8c0.1-0.8-0.1-1.7-0.2-2.4c-0.1-1-0.3-2-0.6-3
		c-0.3-1.4-0.4-2.9-0.8-4.3c-0.2-0.8-0.3-1.6-0.5-2.4c-0.1-0.8-0.3-1.5-0.4-2.3c0-0.4-0.1-0.7-0.1-1.1c0-0.3,0-0.7,0.1-1
		c0-0.7-0.1-1.4,0-2.1c0.1-0.6,0.1-1.3,0.2-1.9c0.2-1,0.5-2,0.9-3c0.3-1.1,1.2-2,2-2.7c0.9-0.8,2-1.4,3.2-1.6c1.3-0.2,2.7-0.4,4-0.7
		c1.2-0.2,2.3-0.6,3.6-0.6c0.7,0,1.3,0.1,1.9,0.4c0.7,0.2,1.5,0.4,2.2,0.7c0.5,0.2,0.8,0.5,1.2,0.9c0.3,0.4,0.7,0.7,1.1,1
		c0.5,0.5,0.7,1.2,0.7,1.9c0,0.5-0.3,0.7-0.5,1.1C59.5,99.2,59.4,99.5,59.2,99.3z"/>
	<path class="st6" d="M57.1,94c-0.9-0.2-1.6-0.6-2.4-0.9c-0.7-0.3-1.4-0.4-2.1-0.5c-1.4-0.2-2.7-0.3-4.1-0.1c-1.4,0.2-2.9,0.4-4.2,1
		c-1,0.4-2,0.7-2.9,1.4c-0.4,0.3-0.7,0.7-1.1,1c-0.4,0.5-0.9,1-1.2,1.6c-0.2,0.4-0.5,0.8-0.7,1.1c-0.3,0.5-0.3,1-0.4,1.6
		c-0.1,0.5-0.3,0.9-0.4,1.4c-0.2,0.7-0.1,1.4-0.2,2c0,0.6-0.1,1.1-0.1,1.7c0,0.6,0,1.2,0.1,1.9c0,1.2,0.2,2.5,0.4,3.7
		c0.2,1,0.3,2,0.7,2.9c0.3,0.8,0.5,1.6,0.8,2.3c0.3,0.7,0.5,1.4,0.7,2.1c0.2,0.6,0.2,1.2,0.2,1.8c0,0.5-0.2,1-0.2,1.5
		c0,0.6-0.4,1-0.9,1.4c-0.2,0.2-0.5,0.3-0.7,0.5c-0.3,0.3-0.1,0.5,0,0.8c0.2,0.6,0.4,1.1,1,1.4c0.5,0.2,1.2-0.1,1.6-0.2
		c0.5-0.2,0.8-0.5,1.1-0.9c0.2-0.4,0.2-0.9,0.3-1.3c0.1-0.5,0.2-1.1,0.1-1.6c-0.1-0.6-0.2-1.1-0.4-1.7c-0.1-0.6-0.2-1.2-0.3-1.7
		c-0.3-1.4-0.5-2.9-0.9-4.3c-0.2-0.9-0.4-1.7-0.6-2.6c-0.1-0.4-0.1-0.8-0.1-1.2c0-0.4-0.2-0.9-0.2-1.3c0-0.3,0.1-0.6,0-1
		c-0.1-0.5-0.1-0.9,0-1.4c0.1-0.5,0.1-0.9,0.2-1.4c0.1-0.6,0.1-1.1,0.2-1.7c0.1-0.5,0.2-0.9,0.4-1.4c0.2-0.6,0.4-1.1,0.7-1.6
		c0.3-0.5,0.6-0.9,0.9-1.3c0.3-0.4,0.4-0.9,0.8-1.4c1.3-1.7,3.1-2.3,5.1-2.5c1.1-0.1,2.2,0.1,3.3,0c0.8,0,1.7,0,2.5,0.1
		c0.6,0.1,1.5,0.4,2.2,0.2c0.4-0.1,1.2-0.2,1.4-0.6c0.1-0.2,0.1-0.4,0.1-0.6C57.6,93.7,57.3,93.6,57.1,94z"/>
	<path class="st6" d="M94.5,96.1c-0.5-0.8-0.9-1.4-1.4-2c-0.2-0.2-0.3-0.4-0.4-0.6c-0.1-0.2-0.2-0.3-0.4-0.4
		c-0.4-0.2-0.9-0.3-1.4-0.5c-1-0.4-1.9-0.9-2.9-1.3c-0.4-0.2-0.9-0.2-1.3-0.4c-0.4-0.2-0.8-0.4-1.2-0.6c-0.8-0.4-1.7-0.5-2.5-0.9
		c-0.7-0.3-1.4-0.7-2.1-1.1c-0.4-0.2-0.9-0.3-1.3-0.5c-0.5-0.2-0.9-0.5-1.4-0.8c-0.9-0.5-1.9-0.8-2.8-1.3c-1-0.5-2-0.8-3-1.3
		c-0.9-0.4-1.7-0.8-2.7-1.1c-1-0.3-1.8-0.8-2.8-1.1c-0.7-0.2-1.4-0.4-2-0.6c-0.8-0.3-1.5-0.6-2.3-0.9c-1.3-0.4-2.4-1.1-3.7-1.4
		c-0.9-0.2-1.6-0.6-2.5-1c-0.2-0.1-0.5-0.1-0.7-0.3c-0.2-0.1-0.4-0.3-0.6-0.2c0.1,0.9-0.1,1.9-0.4,2.7c-0.2,0.5-0.5,0.9-0.7,1.3
		c-0.3,0.5-0.6,1.1-0.9,1.7c-0.5,1-1.4,1.9-1.8,3c-0.5,1.3-1.4,2.3-2,3.5c-0.3,0.6-0.6,1.3-0.9,2c-0.3,0.5-0.6,1-0.8,1.6
		c-0.2,0.6-0.5,1.1-0.7,1.7c-0.2,0.7-0.6,1.3-0.8,2c-0.2,0.7-0.4,1.4-0.8,2.1c-0.3,0.6-0.5,1.3-0.7,2c-0.4,1.1-0.9,2.2-1.4,3.2
		c-0.4,0.8-0.9,1.5-1.2,2.3c-0.1,0.3-0.3,0.6-0.4,1c-0.1,0.3-0.2,0.8-0.4,1.1c0.6,0.8,1,1.9,1,2.9c0.5-0.1,1-0.4,1.4-0.6
		c1-0.4,2-0.5,3-0.6c1.1-0.2,2.2-0.3,3.3-0.5c1.5-0.3,3-0.4,4.5-0.6c1.3-0.2,2.5-0.4,3.7-0.9c1.6-0.5,3.2-0.9,4.8-1.4
		c3.1-0.9,6.2-1.5,9.2-2.5c2.7-0.8,5.4-1.5,8.1-2.5c1.9-0.8,3.9-1.2,5.8-1.9c1.9-0.8,3.9-1.5,5.7-2.5c0.6-0.3,1.2-0.8,1.8-1.2
		C93.5,96.4,93.9,96.2,94.5,96.1z"/>
	<path class="st5" d="M94.4,96c-1.5-0.6-3.1-1.2-4.6-1.8c-0.7-0.2-1.4-0.5-2.1-0.8c-0.8-0.3-1.6-0.6-2.3-0.9c-0.8-0.4-1.6-0.7-2.4-1
		c-0.9-0.4-1.8-1-2.7-1.4c-0.4-0.2-0.8-0.3-1.2-0.5c-0.5-0.2-1-0.6-1.5-0.8c-1-0.4-1.9-0.7-2.9-1.2c-1-0.5-2-0.8-2.9-1.2
		c-1-0.5-2.2-0.7-3.2-1.1c-0.8-0.4-1.6-0.9-2.5-1.1c-0.9-0.3-1.8-0.8-2.7-1.1c-1.1-0.4-2.2-0.8-3.2-1.2c-0.9-0.4-1.8-0.6-2.7-0.9
		c-0.2-0.1-0.4-0.3-0.6-0.3c-0.2,0-0.2,0-0.3,0.2c-0.6,1.1-1.1,2.2-1.5,3.4c-0.3,0.6-0.5,1.2-0.8,1.8c-0.3,0.6-0.7,1.2-1.1,1.8
		c-0.4,0.7-0.8,1.5-1.4,2.2c-0.5,0.6-0.8,1.4-1.2,2.1c-0.4,0.7-0.7,1.4-1.1,2c-0.4,0.7-0.7,1.5-1.1,2.3c-0.3,0.6-0.6,1.1-0.8,1.7
		c-0.3,0.7-0.6,1.5-0.9,2.2c-1,2.3-2.1,4.6-3.1,6.9c-0.3,0.8-0.8,1.5-1.1,2.4c-0.2,0.5-0.4,1.1-0.6,1.6c-0.1,0.3-0.1,0.5,0.1,0.7
		c0.3,0.3,0.7,0.4,1.1,0.6c0.8,0.4,1.7,0.6,2.5,0.9c0.8,0.3,1.5,0.7,2.3,1c0.8,0.2,1.6,0.5,2.4,0.9c1.4,0.6,2.8,1,4.2,1.7
		c0.8,0.4,1.6,0.6,2.3,0.9c0.9,0.4,1.8,0.8,2.7,1.1c0.7,0.2,1.4,0.5,2.2,0.7c0.8,0.2,1.6,0.4,2.4,0.6c0.7,0.2,1.4,0.5,2.1,0.7
		c0.8,0.2,1.6,0.3,2.3,0.6c0.4,0.1,0.7,0.4,1.1,0.5c0.4,0.1,0.7,0.2,1.1,0.3c0.8,0.2,1.5,0.3,2.3,0.6c1,0.4,2.1,0.6,3.2,0.7
		c0.4,0,0.9,0.2,1.4,0.1c0.5-0.1,0.8-0.5,1.2-0.8c0.4-0.3,1-0.6,1.4-0.9c0.6-0.5,1.2-0.9,1.8-1.3c0.5-0.4,1-0.8,1.5-1.2
		c0.4-0.5,0.8-1,1.2-1.6c0.4-0.5,0.8-0.8,1.2-1.3c0.4-0.4,0.6-0.9,0.9-1.4c0.6-0.9,1.2-1.9,1.7-2.8c0.2-0.5,0.5-0.9,0.7-1.4
		c0.2-0.5,0.5-1.1,0.8-1.5c0.6-0.8,1-1.8,1.5-2.7c0.3-0.7,0.8-1.4,1.1-2.2c0.3-0.6,0.5-1.3,0.8-2c0.3-0.7,0.7-1.5,0.8-2.2
		c0.2-1.2,0.7-2.3,0.6-3.5C94.7,96.3,94.5,96,94.4,96z"/>
	<path class="st8" d="M91.6,98c-0.8-0.5-1.4-0.8-2.2-1.1c-0.5-0.2-1.1-0.6-1.6-0.7c-0.6-0.2-1.3-0.4-1.9-0.7c-0.8-0.3-1.6-0.8-2.5-1
		c-0.7-0.2-1.4-0.6-2.1-0.9c-0.8-0.4-1.7-0.6-2.5-1c-0.8-0.3-1.5-0.7-2.3-0.9c-1-0.3-1.9-0.8-2.8-1.1c-0.8-0.3-1.7-0.6-2.5-1
		c-0.9-0.5-2-0.7-2.9-1.1c-0.8-0.3-1.5-0.8-2.4-1c-0.8-0.2-1.5-0.5-2.2-0.8c-0.9-0.5-1.9-0.7-2.8-1.1c-0.5-0.3-1.1-0.5-1.6-0.8
		c-0.2-0.1-0.6-0.3-0.8-0.2c-0.2,0-0.2,0.1-0.3,0.4c-0.2,0.5-0.4,1.1-0.5,1.6c-0.1,0.6-0.3,1.1-0.6,1.6c-0.4,0.6-0.7,1.3-1,1.9
		c-0.7,1.2-1.4,2.3-2.1,3.5c-0.5,0.9-0.9,1.8-1.5,2.7c-0.3,0.5-0.6,1.2-0.8,1.8c-0.2,0.6-0.6,1.1-0.8,1.7c-0.3,0.6-0.4,1.2-0.7,1.8
		c-0.2,0.5-0.6,0.9-0.8,1.4c-0.5,0.8-0.6,1.7-1,2.6c-0.3,0.7-0.7,1.3-0.9,2c-0.1,0.3-0.1,0.7-0.3,1c-0.1,0.3-0.3,0.5-0.4,0.8
		c-0.1,0.1-0.2,0.3-0.2,0.4c-0.1,0.3,0.1,0.3,0.3,0.4c0.7,0.3,1.3,0.6,2,0.8c0.8,0.3,1.6,0.5,2.4,0.8c0.7,0.3,1.4,0.6,2.2,0.7
		c0.8,0.2,1.5,0.5,2.2,0.8c0.7,0.3,1.5,0.4,2.2,0.7c0.8,0.3,1.7,0.7,2.5,1c1.4,0.5,2.8,0.9,4.2,1.3c1.3,0.3,2.6,0.8,4,1.2
		c0.5,0.2,1.1,0.2,1.6,0.4c0.6,0.1,1.1,0.4,1.6,0.6c0.7,0.3,1.6,0.4,2.3,0.6c0.4,0.1,0.9,0.1,1.3,0.2c0.5,0.1,1,0.3,1.5,0.3
		c0.4,0.1,0.7,0.2,1-0.1c0.4-0.3,0.8-0.6,1.2-0.9c0.3-0.2,0.7-0.5,0.9-0.8c0.3-0.3,0.6-0.5,0.9-0.8c0.4-0.5,0.9-1,1.3-1.5
		c0.5-0.6,1-1.1,1.4-1.8c0.5-0.8,1-1.6,1.5-2.4c0.6-0.8,1-1.6,1.4-2.6c0.3-0.8,0.9-1.4,1.2-2.2c0.3-0.6,0.4-1.2,0.7-1.7
		c0.3-0.7,0.8-1.2,1.1-1.8c0.3-0.6,0.5-1.2,0.8-1.8c0.3-0.6,0.7-1.1,1-1.8C91.1,99,91.5,97.8,91.6,98z"/>
	<path class="st9" d="M81,101.8c-2.4,0.6-4.5,1.7-6.8,2.6c-0.5,0.2-1,0.5-1.6,0.7c-0.2,0.1-0.4,0.3-0.6,0.3"/>
	<path class="st9" d="M75.9,99.8c0.4,1.4,1,2.7,1.5,4.1c0.2,0.6,0.3,1.2,0.4,1.8c0,0.6,0,1.4,0.3,1.9"/>
	<path class="st5" d="M68.4,98.1c-2.5,0.4-5.1,1.2-7.5,2.1c-0.7,0.3-1.4,0.6-2.1,0.9c0.1,0,0.1,0,0.2-0.1"/>
	<path class="st5" d="M61.5,95.1c0.4,0.9,0.8,1.8,1.3,2.6c0.2,0.4,0.5,0.7,0.7,1.1c0.4,0.6,0.6,1.1,0.8,1.7c0.1,0.4,0.3,0.8,0.3,1.1
		c0,0.1,0,0.3,0,0.4"/>
	<path class="st5" d="M71.6,112.1c-0.4-0.7-0.9-1.9-1.7-2.2c-0.3-0.1-0.7-0.1-1-0.3c-0.3-0.1-0.5-0.3-0.7-0.5
		c-0.3-0.2-0.8-0.2-1.2-0.2c-0.7,0-1.3,0-1.8-0.6c-0.2-0.2-0.2-0.5-0.4-0.7c-0.2-0.3-0.6-0.4-0.9-0.6c-0.4-0.3-0.8-0.5-1.3-0.6
		c-0.4-0.1-0.9,0-1.3,0c-0.5,0-0.6-0.3-0.9-0.6c-0.3-0.4-0.9-1-1.5-1.1c-0.5-0.1-1.2,0.1-1.7-0.1"/>
	<path class="st1" d="M188.6,152.8c-0.3-1.6-0.4-3.5-1.7-4.6c-0.5-0.4-1-0.7-1.6-1c-1.4-0.6-2.9-0.7-4.3-0.5
		c-1.1,0.1-2.3,0.3-3.3,0.8c-0.2,0.1-0.9,0.4-0.9,0.6c0.3-0.3,0.4-1.2,0.5-1.7c0.2-1.7-1-3.5-2-4.7c-1.1-1.3-3.2-2.5-5-2.5
		c-0.9,0-2.3,0.1-3.1,0.6c1.6-0.8,2.3-3.1,2.6-4.8c0.3-1.9-0.2-3.9-0.9-5.7c-0.8-1.9-1.9-3.8-3.5-5.1c-1.7-1.5-3.6-2.3-5.8-2.7
		c-2.1-0.3-3.9,0-5.9,0.7c-3.2,1.2-7.1,2.9-8.2,6.4c-0.3,0.9-0.4,2-0.9,2.9c-0.1,0.2-0.4,0.7-0.7,0.8c-0.4,0.1-0.9-0.4-1.2-0.7
		c-1-0.7-2-1.2-3.2-1.4c-2.5-0.4-5.3,0.8-6.9,2.8c-0.6,0.9-1.1,1.8-1.4,2.9c-0.1,0.4-0.3,1.5-0.7,1.7c-0.4-0.5-0.7-1.1-1-1.6
		c-0.8-1.4-1.6-2.4-3.1-3c-3.2-1.3-7-1.3-9.9,0.6c-2.2,1.5-4,4.4-4.5,7c-0.3,1.6-0.6,3.6,0.2,5.1c-0.3,0.1-0.7-0.1-1-0.3
		c-0.8-0.4-1.4-0.8-2.4-0.8c-2.6,0-5.3,1.1-6.9,3.2c-1,1.3-1.5,3.4-0.7,4.9c0.4,0.6,0.7,1.3,1.1,1.9c0.3,0.4,0.6,0.7,0.7,1.1
		c-0.7-0.4-1.7-0.5-2.5-0.6c-1.5-0.2-3.2,0-4.5,0.8c-0.7,0.4-1.8,1.7-1.5,2.6c0.3,0.9,1.5,1.5,2.3,1.7c1.3,0.4,2.8,0.4,4.1,0.6
		c1.8,0.2,3.6,0.6,5.4,0.5c1.3,0,2.5-0.4,3.7-0.6c0.7-0.1,1.4-0.1,2.1-0.1c0.8,0,1.9,0.1,2.6-0.3c-0.2,0.2-0.3,0.5-0.3,0.8
		c0.1,0.8,1.4,0.9,2,1.1c1.7,0.4,3.4,0.1,5.1-0.3c0.6-0.2,1.3-0.3,1.9-0.4c0.4-0.1,1-0.4,1.4-0.3c-1.1,0.7-0.3,2.5,0.6,3.1
		c1,0.6,2.4,0.3,3.5,0.3c1.2,0,2.5,0.1,3.7,0c1.2-0.1,2.3-0.5,3.4-0.7c1.1-0.2,2.3-0.5,3.4-0.8c2.8-0.6,5.7-0.7,8.5-0.9
		c1.5-0.1,3-0.5,4.6-0.6c1.6,0,3.2,0.1,4.8,0.1c1.6-0.1,3.2-0.2,4.8-0.1c1.4,0,2.8,0.3,4.2,0.3c1.2,0,2.4-0.1,3.5,0
		c0.6,0,1.3,0,1.9-0.2c0.6-0.2,1.3-0.6,1.8-1c0.4-0.4,0.4-0.9,0.7-1.2c1.5,0.6,3.3,0.9,5,0.8c1.5-0.1,2.8-1.2,3.8-2.2
		c0.4,0.9,2.8,0.5,3.5,0.2c0.9-0.3,1.6-1.2,2-2.1c0.3-0.6,0.5-1.7,0.4-2.4C189.1,152.7,187.9,152.2,188.6,152.8z"/>
	<path class="st9" d="M184,116.9c-2.2-1.5-4.5-3.3-7.3-3.1c-1.5,0.1-3,0.7-4.3,1.5c-1.2,0.7-2.8,2-3.5,3.3c-0.8-1-1.2-2.2-2.2-3
		c-0.9-0.8-2-1.1-3.1-1.5c-1-0.3-1.8-0.7-2.8-0.4c-1.7,0.5-3,1.5-4.2,2.8c-0.5,0.6-0.9,1.3-1.4,1.9"/>
	<path class="st9" d="M87.6,74.5c1.8,0,3.4,0.6,4.9,1.7c0.6,0.4,1.1,1,1.4,1.6c0.5,0.8,1.2,1.6,1.5,2.5c0.4,1.2,0.1,2.6-0.1,3.9
		c-0.2,1.2-0.6,2.3-1.2,3.3c-0.1,0.2-0.5,0.6-0.3,0.9c0.1,0.2,0.7,0.1,0.8,0.1c0.5,0.1,1.1,0.3,1.6,0.4c1.5,0.5,2.7,1.7,3.6,3
		c1,1.4,1.9,2.8,2.5,4.4c0.2,0.5,0.7,1.8,0.2,2.3c0.6-1.2,2.6-1.7,3.8-1.7c0.8,0,1.9,0.3,2.6,0.7c0.3,0.2,1,0.6,1.2,0.9"/>
	<path class="st9" d="M127.2,113c-1.1-0.4-2.1-0.3-3.1,0.2c-0.6,0.3-1.1,0.8-1.6,1.3c-0.3,0.4-0.5,0.8-0.7,1.2
		c-0.3,0.4-0.6,0.8-0.9,1.3c-0.3,0.5-0.6,1.1-0.8,1.6c-0.5,1-0.9,2.1-1.2,3.2c-0.1,0.7-0.1,1.5-0.3,2.2c0,0.2-0.1,1-0.3,1
		c-0.1,0-0.3-0.1-0.4-0.1c-0.3-0.1-0.6-0.1-0.9-0.1c-2.1-0.3-4.2,0.2-6.1,1.3c-1.5,0.8-2.6,2.1-3.8,3.2c-0.2,0.2-0.4,0.6-0.8,0.4
		c-0.2-0.1-0.4-0.5-0.6-0.7c-0.5-0.6-1-1.2-1.5-1.7c-0.7-0.6-1.2-1.4-2.2-1.7c-0.9-0.3-1.8-0.3-2.6-0.7c-0.4-0.2-1.1-0.6-1.5-0.4"/>
	<path class="st9" d="M115.9,96.3c-0.7,0.2-1.2,0.7-1.3,1.4c0.6,0.4,1.3,0.2,1.9,0c0.3-0.1,0.6-0.3,0.5-0.6
		C116.9,96.6,116.2,96.4,115.9,96.3z"/>
	<path class="st9" d="M139.6,103.3c-0.7,0.6-1.1,1.3-1.3,2.2c0.7,0.5,2.2,0.3,2.2-0.8C140.6,104.1,140.3,103.7,139.6,103.3z"/>
	<path class="st9" d="M107.7,83.1c-0.8,0.4-2,0.7-1.9,1.7c0,0.4,0.2,0.6,0.6,0.8c0.6,0.2,1.5,0,1.9-0.4
		C108.9,84.5,107.7,82.8,107.7,83.1z"/>
	<path class="st9" d="M99.6,114.6c-0.6,0.2-2.1,0.6-1.9,1.5c0.1,0.5,0.3,0.5,0.8,0.6c0.5,0.1,1.3,0.2,1.5-0.3
		C100.3,115.8,99.8,114.2,99.6,114.6z"/>
	<path class="st9" d="M70.7,128.3c-0.8,0.2-1.6,0.5-1.5,1.5c0,0.4,0.2,0.7,0.6,0.8c0.4,0.2,1.2,0.1,1.6-0.2
		C71.9,129.7,72.1,127.8,70.7,128.3z"/>
	<path class="st9" d="M92.4,144.5c-0.6-0.2-1.6-0.8-2.1-0.3c-0.1,0.1-0.2,0.3-0.3,0.4c-0.2,0.5-0.2,1.1,0.2,1.5
		c0.5,0.5,1.3,0.8,2,0.5c0.4-0.2,0.6-0.7,0.6-1C93,145.1,92.6,144.6,92.4,144.5z"/>
	<path class="st9" d="M87.6,137.3c-0.5,0.2-2.1,0.6-1.6,1.5c0.1,0.3,0.5,0.5,0.8,0.6c0.3,0.1,0.9-0.1,1.1-0.4
		C88.1,138.5,88,137.1,87.6,137.3z"/>
	<path class="st9" d="M132.2,142c-0.6,0-2-0.2-2.2,0.7c-0.1,0.3,0,0.4,0.2,0.7c0.2,0.3,0.4,0.5,0.8,0.6c0.4,0.1,0.8,0,1.1-0.3
		c0.3-0.3,0.5-0.6,0.5-1.1C132.5,142.3,132.1,141.3,132.2,142z"/>
	<path class="st9" d="M120.2,138.6c-0.8,0.1-2,0-1.9,1.1c0,0.4,0.3,0.9,0.7,1c0.4,0.1,0.8,0,1-0.3
		C120.3,140.1,120.8,138.6,120.2,138.6z"/>
	<path class="st9" d="M72.7,158.2c-0.5-0.1-1.4-0.6-1.9-0.2c-0.2,0.1-0.3,0.5-0.3,0.7c-0.1,0.3-0.1,0.8,0.1,1.1
		c0.3,0.4,1.3,0.8,1.7,0.6C72.9,160.2,73.1,158.2,72.7,158.2z"/>
	<g>
		<defs>
			<path id="SVGID_1_" d="M292.4,47.5c-1.1-0.2-2.2-0.6-3.2-1.1c-0.9-0.4-1.9-0.8-2.8-1.1c-2.5-0.9-4.9-1.7-7.4-2.4
				c-2.4-0.6-4.7-1.3-7.1-1.9c-0.8-0.2-1.6-0.3-2.4-0.5c-0.8-0.2-1.5-0.5-2.3-0.8c-1.1-0.3-2.3-0.5-3.4-0.8
				c-0.8-0.2-1.5-0.5-2.3-0.7c-0.3-0.1-0.7-0.1-1-0.1c-1-0.3-1.9-0.9-3-1.2c-0.9-0.2-1.7-0.3-2.6-0.6c-0.7-0.2-1.3-0.5-2-0.7
				c-0.3-0.1-1.2-0.2-1.3-0.5c-0.9,0.1-1.9,0.4-2.7,0.6c-0.9,0.2-1.9,0.4-2.7,0.7c-0.7,0.2-1.4,0.4-2.1,0.5
				c-0.7,0.1-1.4,0.1-2.1,0.3c-0.4,0.1-0.8,0.3-1.2,0.4c-0.8,0.3-1.7,0.4-2.5,0.5c-2.3,0.4-4.6,0.8-6.9,1.2
				c-1.3,0.2-2.5,0.6-3.8,0.7c-1,0.1-2,0.1-2.9,0.2c-0.4,0-0.9,0-1.3,0.1c0.1,0,0.1,0.1,0.2,0.1c-0.1,0-0.2,0-0.2,0.1
				c-0.1,0.1-0.2,0.4-0.2,0.6c-0.2,0.7-0.5,1.4-0.8,2.1c-0.5,1.3-0.9,2.6-1.4,3.9c-0.4,1.2-1,2.3-1.5,3.4c-0.6,1.2-1.1,2.5-1.7,3.8
				c-1.3,2.7-2.7,5.2-3.7,8c-0.8,2.3-1.4,4.7-2.1,7c-0.4,1.2-0.9,2.4-1.3,3.7c-0.5,1.6-0.9,3.2-1.3,4.8c-0.9,3.2-2.4,6.1-3.6,9.1
				c-2.2,5.5-4.7,10.9-7,16.4c-0.6,1.4-1.1,2.7-1.7,4.1c-0.6,1.5-1.2,3-1.9,4.4c-0.7,1.2-1.2,2.5-1.9,3.7c-0.7,1.3-1.3,2.7-1.9,4.1
				c-0.8,1.9-1.6,3.7-2.6,5.5c-0.6,1-1.1,2-1.7,3c-0.4,0.6-1.2,1.4-1.3,2.2c0.6,0.1,1.5,0.8,2,1.1c1.5,0.9,3,2.1,4.5,3
				c1.5,0.9,2.9,1.8,4.4,2.7c1.4,0.8,2.7,1.8,4.1,2.6c1.2,0.7,2.2,1.7,3.4,2.4c0.8,0.5,1.6,1.2,2.5,1.7c0.6,0.4,1.2,0.7,1.8,1.2
				c0.8,0.6,1.6,1.2,2.6,1.6c0.4,0.2,0.8,0.3,1.2,0.5c0.8,0.5,1.6,1,2.3,1.5c0.5,0.4,1.1,0.6,1.5,1c0.2-0.2,0.5-0.4,0.8-0.5
				c0,0.1-0.1,0.1-0.1,0.2c-0.1,0.2-0.3,0.4-0.3,0.6c0.4-0.3,1.3,0,1.8,0c1.3-0.1,2.7-0.2,4-0.3c1.4-0.1,2.8-0.3,4.2-0.3
				c1.2,0,2.4-0.4,3.6-0.6c0.8-0.1,1.5-0.2,2.3-0.3c0.7-0.1,1.4-0.3,2.1-0.5c1-0.3,2-0.5,3-0.6c1.2-0.2,2.3-0.5,3.5-0.8
				c1.3-0.4,2.6-0.4,3.9-0.6c1.4-0.3,2.7-0.8,4.2-1c1.1-0.2,2.3-0.4,3.2-0.9c0.3-0.2,0.8-0.3,1-0.6c0.4-0.4,0.7-1,0.9-1.6
				c0.6-1.3,1.4-2.4,2.1-3.6c0.7-1.1,1.3-2.3,1.9-3.5c0.7-1.4,1.4-2.8,2.2-4.2c0.4-0.7,0.6-1.3,0.9-2.1c0.4-1.1,1-2,1.5-3
				c1.3-2.6,2.5-5.3,3.7-8c0.4-0.8,0.6-1.7,0.9-2.5c0.2-0.5,0.5-1,0.7-1.5c0.6-1.5,1.1-3,1.8-4.4c0.5-1,0.9-2,1.3-2.9
				c0.6-1.4,1.5-2.7,2.1-4c0.7-1.6,1.2-3.4,2.2-4.9c0.7-1,1.1-2.3,1.4-3.5c0.6-2.1,1.4-4.2,2.2-6.3c0.3-0.9,0.6-1.7,0.9-2.6
				c0.6-1.6,1-3.3,1.5-4.8c0.4-1,0.8-2.1,1.1-3.2c0.3-0.8,0.8-1.6,1.1-2.4c0.2-0.6,0.3-1.2,0.5-1.7c0.9-3,2-6,3.2-8.8
				c0.4-1,0.8-2.1,1.1-3.2c0.5-1.6,1.2-3.2,1.8-4.8c0.7-1.7,1-3.5,1.7-5.2c0.4-0.9,0.7-1.9,0.5-2.9
				C292.4,47.6,292.4,47.6,292.4,47.5z"/>
		</defs>
		<clipPath id="SVGID_00000077320490659557117350000013865570565466199192_">
			<use xlink:href="#SVGID_1_"  style="overflow:visible;"/>
		</clipPath>
		<g style="clip-path:url(#SVGID_00000077320490659557117350000013865570565466199192_);">
			<g>
				<path class="st11" d="M233.6,130.7c-0.3-0.5-0.4-1.1-0.5-1.7c-0.3-0.9-0.8-1.8-1.1-2.7c-0.4-1.1-0.7-2.1-1.4-3.1
					c-0.9-1.5-1.7-3.1-3-4.4c-1.4-1.3-2.7-2.2-4.6-2.6c-1-0.2-2.1-0.4-3.1-0.2c-1.1,0.2-2.3,1-3.3,1.5c-0.9,0.5-1.7,1.2-2.4,2
					c0.3,1.1,0.6,2.2,0.9,3.2c0.5,1.6,1,3.1,1.7,4.6c0.7,1.6,1.8,3.1,3,4.3c2.7,2.6,7,2.9,10.6,2.4c1.4-0.2,2.9-0.4,4.3-0.6
					c-0.2-0.5-0.3-1-0.5-1.5C234.1,131.6,233.9,131.1,233.6,130.7z"/>
				<path class="st11" d="M254.3,73c-0.9-1.1-1.9-2-3.1-2.9c-1.1-0.8-2.4-1.2-3.7-1.7c-1-0.3-2-0.8-3.1-0.7c-1,0.1-1.8,0.7-2.4,1.5
					c-0.8,1-1.1,2.1-1.4,3.3c-0.4,1.8-0.4,3.4-0.2,5.2c0.2,1.8,0.4,3.6,0.9,5.4c0.1,0.3,0.2,0.6,0.3,0.9c0,0,0,0,0.1,0
					c1.9-0.1,3.7,0.1,5.6,0.3c2.1,0.3,4.2,0.6,6.3,1c1.9,0.4,3.7,0.6,5.6,0.6c0.7,0,1.3-0.1,1.9-0.3c-0.6-1.5-1.2-3.1-1.8-4.6
					C258.2,78.2,256.4,75.4,254.3,73z"/>
				<path class="st12" d="M288.8,71.5c-0.1-1.1-0.3-2.1-0.5-3.1c-0.3-1.6-0.4-3.2-0.8-4.8c-0.2-0.9-0.6-1.7-0.8-2.6
					c-0.2-0.8-0.4-1.6-0.7-2.4c-0.4-1.3-0.9-2.6-1.5-3.7c-0.8-1.5-1.9-2.9-2.9-4.3c-0.6-0.8-1.3-1.6-2-2.3c-0.7-0.8-1.3-1.6-1.5-2.7
					c-0.4-2.4,1.4-4.1,3-5.6l-11.5-4.2c-1.2-0.1-2.2-0.3-3.3,0.2c-0.8,0.3-1.5,0.7-2.2,1.2c-1.1,0.8-1.7,2-2.1,3.3
					c-0.4,1.4-0.6,3-0.6,4.5c0,1,0.1,1.9,0.3,2.8c0.3,1.3,0.8,2.3,1.4,3.5c0.4,0.8,0.8,1.7,1.1,2.6c0.1,0.1,0.3,0.2,0.4,0.2
					c1,0.6,2,1.2,3,1.8c2.1,1.3,4.2,2.5,6.1,4.1c3.1,2.6,5.9,5.7,7.3,9.6c0.4,1.1,0.7,2.2,0.7,3.4c0,1.2-0.2,2.3-0.4,3.5
					c-0.2,1.3-0.5,2.5-0.7,3.8c-0.3,1.4-0.8,2.7-1.3,4.1c-0.9,2.5-2.3,5-3.9,7.2c-1.3,1.7-3.8,2.5-5.9,2c-2.2-0.6-4.5-1.7-6-3.5
					c-1-1.2-1.7-2.7-2.4-4.2c-0.6,0.2-1.2,0.3-1.9,0.3c-1.9,0-3.7-0.2-5.6-0.6c-2.1-0.5-4.2-0.8-6.3-1c-1.9-0.2-3.7-0.4-5.6-0.3
					c0,0,0,0-0.1,0c0.4,1.3,0.7,2.5,1.3,3.7c0.7,1.5,1.1,3.1,1.8,4.6c0.3,0.8,0.6,1.7,0.9,2.6c0.3,0.9,0.7,1.8,1.1,2.8
					c1.2,3.5,2.4,7,3.7,10.4c0.6,1.6,1.2,3.1,1.8,4.7c0.3,0.8,0.6,1.5,0.9,2.3c0.3,0.7,0.4,1.4,0.7,2.1c0.4,1.2,1,2.3,1.2,3.6
					c0.2,1,0.2,2.1,0.1,3.1c-0.2,2.4-1,4.8-2,7c-1,2.2-2.3,4.3-3.5,6.4c-1.1,1.8-2.2,3.3-4.2,4.2c-0.8,0.4-1.6,0.6-2.5,0.5
					c-0.9-0.1-1.7-0.6-2.5-1c-2-1.2-3.5-3.1-4.7-5.1c-0.4-0.7-0.7-1.5-0.9-2.2c-1.4,0.3-2.9,0.4-4.3,0.6c-3.6,0.5-7.8,0.2-10.6-2.4
					c-1.3-1.2-2.3-2.7-3-4.3c-0.7-1.5-1.2-3.1-1.7-4.6c-0.4-1.1-0.6-2.1-0.9-3.2c-0.2,0.2-0.4,0.5-0.6,0.7c-1,1.2-2,2.6-2.8,4
					c-0.7,1.3-1.4,2.6-2.1,3.9c-0.5,1.1-0.9,2.3-1.5,3.4c-0.5,0.9-1,1.9-1.5,2.8c-0.5,0.9-1,1.8-1.7,2.6c-0.6,0.7-1.4,1.3-2.2,1.8
					c-0.7,0.4-1.3,0.8-2,1.1c-0.7,0.2-1.5,0.4-2.2,0.7c-0.4,0.2-0.8,0.3-1.3,0.3c-1.3-0.1-2-1-2.9-1.8c-1.6-1.5-5.1-1.8-7.1-2.7
					c-2.5,0.7-5.2,0.6-7.7-0.2c2.1,3.7,5.9,6.2,9.5,8.6c6,3.9,13.5,5,20,8.1c0.3,0.2,0.7,0.1,1.1,0.2c0.6,0,1.2,0.1,1.7,0.1
					c1-0.1,2.2-0.5,3-1c0.8-0.6,1.1-1.6,1.3-2.5c0.3-1.2,0.5-2.4,0.7-3.7c0.2-1.4,0.6-2.9,1.7-3.9c0.9-0.8,2.1-1.2,3.3-1.3
					c3.4-0.2,6.4,1.9,9.3,3.4c1.9,1,3.7,2,5.7,2.7c1.3,0.5,2.7,0.7,4.1,0.9c3.4,0.3,6.6-1,9.8-1.8c1.8-0.5,3.5-1.2,5.1-2.1
					c0.7-0.4,1.4-0.9,2.1-1.3c0.6-0.4,1.2-0.6,1.8-1.1c2.3-1.8,3.4-4.5,4-7.3c0.4-1.7,0.6-3.4,0.7-5.1c0.1-1.6-0.1-3.3-0.4-4.9
					c-0.2-1.3-0.6-2.5-0.8-3.8c-0.1-0.8-0.2-1.6-0.3-2.3c-0.1-0.7-0.4-1.4-0.6-2.1c-0.4-1.3-0.5-2.7-0.6-4c-0.1-1.1-0.2-2.3,0.2-3.3
					c0.9-1.9,3.2-1.8,5-1.3c2.9,0.8,5.6,2.5,8.7,2.6c1.6,0,3-0.3,4.3-1.1c1.5-0.9,2.6-2.1,3.6-3.5c2.9-4.2,4.3-9.3,5.1-14.3
					c0.4-2.7,0.6-5.4,0.9-8.1c0.2-2.3,0.5-4.6,0.4-6.9C289.1,74.5,288.9,73,288.8,71.5z"/>
				<path class="st13" d="M176.3,127.1c-0.2-2.5-0.3-5.2,0.7-7.5c1-2.4,3.2-4.8,5.7-4.7c0.9,1.6,2.1,3.1,3.7,3.9
					c1.5,0.7,3.1,0.8,4.7,0.4c1.4-0.4,2.6-1.3,3.7-2.1c1.5-1,2.6-2.5,4-3.7c0.6-0.5,1.4-1,1.9-1.6c0.3-0.4,0.6-0.8,0.9-1.1
					c1-1.1,2.6-2,4.1-2.1c1.2-0.1,2.6,0.5,3.7,1.1c1.1,0.7,1.8,1.6,2.4,2.8c0.6,1,0.8,2.1,1.1,3.2c0.3,0.8,0.6,1.7,0.9,2.5
					c0.2,0.5,0.3,1,0.5,1.5c0.7-0.8,1.4-1.5,2.4-2c1-0.5,2.1-1.3,3.3-1.5c1-0.2,2.1-0.1,3.1,0.2c1.9,0.5,3.2,1.3,4.6,2.6
					c1.3,1.3,2.1,2.8,3,4.4c0.6,1,0.9,2,1.4,3.1c0.4,0.9,0.9,1.7,1.1,2.7c0.2,0.6,0.3,1.1,0.5,1.7c0.2,0.5,0.5,0.9,0.7,1.4
					c0.2,0.5,0.4,1,0.5,1.5c0.5-0.1,1.1-0.2,1.6-0.4c1.5-0.4,2.9-1.2,4.1-2.1c3.1-2.3,4.5-6.3,4.4-10.1c-0.1-4.3-1.8-8.2-3.7-12
					c-0.7-1.3-1.4-2.6-2.1-3.9c-0.4-0.7-0.7-1.2-1.1-1.8c-1-1.5-2.1-3.1-3-4.7c-0.8-1.4-1.6-2.8-1.8-4.4c-0.2-1.4-0.3-2.8,0.1-4.2
					c0.5-1.8,1.5-3.3,3.1-4.3c1.7-1.1,3.6-1.3,5.5-1.4c-0.1-0.3-0.2-0.6-0.3-0.9c-0.6-1.8-0.7-3.6-0.9-5.4c-0.2-1.8-0.3-3.5,0.2-5.2
					c0.3-1.2,0.6-2.3,1.4-3.3c0.6-0.8,1.4-1.4,2.4-1.5c1.1-0.1,2.1,0.4,3.1,0.7c1.3,0.5,2.6,0.9,3.7,1.7c1.2,0.8,2.2,1.8,3.1,2.9
					c2.1,2.4,3.9,5.2,5.1,8.2c0.6,1.5,1.1,3,1.8,4.6c0.7-0.2,1.3-0.5,2-1c1.6-1.1,2.7-2.9,3.6-4.6c0.9-1.7,1.4-3.5,1.8-5.4
					c0.5-2.1,0.7-4.1,0.5-6.2c-0.1-0.9-0.3-1.9-0.4-2.8c-0.2-1.1-0.5-2-0.8-3c-0.3-1-0.6-2.1-1.1-3.1c-0.3-0.7-0.7-1.4-1-2.2
					c-0.5-1.2-1-2.4-1.5-3.7c-1.1-0.6-2.3-1.3-3.2-2.1c-3.2-2.7-6.4-5.5-8.9-9c-0.3-0.4-0.5-0.7-0.7-1.1c-0.9,0.3-1.8,0.4-2.7,0.6
					c-1.4,0.2-2.9,0.3-4.4,0.1c0.1,0.3,0.2,0.7,0.3,1.1c0.3,1.3,0.3,2.7,0.3,4.1c0,1.3-0.1,2.6-0.5,3.8c-0.6,1.7-1.6,3.4-3.2,4.5
					c-0.7,0.4-1.4,0.8-2.3,0.7c-0.9-0.1-1.7-0.5-2.4-1c-1.8-1.5-2.9-3.7-3.9-5.7c-1.1-2.2-2-4.7-3.8-6.5c-1.5-1.6-3.3-2.6-5.5-2.8
					c-2.1-0.2-4.5,0.4-6,2c-1.7,1.8-2.4,4.5-1.8,6.9c0.3,1.2,0.7,2.5,1.2,3.6c0.4,0.8,0.9,1.6,1.3,2.4c0.3,0.6,0.5,1.2,0.8,1.8
					c1,2.1,1.8,4.3,2.6,6.4c0.7,2,1.4,4,2.1,5.9c1.1,3,2,6.1,3,9.1c0.6,1.7,1,3.3,1.4,5.1c0.2,1.2,0.5,2.4,0.4,3.6
					c-0.2,2.9-1.5,5.9-4,7.5c-2.2,1.4-5.6,3-7.7,0.7c-1.3-1.4-2.1-3.2-2.6-5c-0.7,0.5-1.5,0.9-2.3,1.1c-1.4,0.3-3,0.1-4.3-0.1
					c-2.1-0.4-3.8-1.2-5.4-2.5c-1.2-0.9-2.3-1.8-3.5-2.7c-0.4-0.3-0.8-0.7-1.2-0.9l8.5-11.9c-0.4-0.1-0.8-0.2-1.2-0.3
					c-9.2-2.5-19.7,0.9-26.1,8c-3.4,3.8-5.2,8.7-6.6,13.6c-1.6,5.6-2.8,11.3-3.6,17.1c-0.9,7-1,14.8,3.5,20.2
					c1.8,2.1,4.2,3.6,6.9,4.4c0-0.1-0.1-0.2-0.2-0.2C177,133.3,176.5,130.2,176.3,127.1z"/>
				<path class="st13" d="M249.7,31.8c0.1-0.2,0.3-0.4,0.5-0.6c0.1-0.1,0.4-0.4,0.5-0.5l-14.9,0.2c0.3-0.1,1,0.4,1.3,0.5
					c0.6,0.3,1.3,0.5,1.8,1c0.1,0.1,0.2,0.2,0.4,0.3L249.7,31.8C249.7,31.8,249.7,31.8,249.7,31.8z"/>
				<path class="st14" d="M233.2,89.8c-0.4,1.4-0.3,2.7-0.1,4.2c0.2,1.6,1.1,3,1.8,4.4c0.9,1.6,2,3.2,3,4.7c0.4,0.6,0.8,1.2,1.1,1.8
					c0.7,1.3,1.5,2.5,2.1,3.9c1.9,3.8,3.6,7.7,3.7,12c0.1,3.8-1.2,7.8-4.4,10.1c-1.2,0.9-2.6,1.7-4.1,2.1c-0.5,0.1-1.1,0.3-1.6,0.4
					c0.3,0.8,0.5,1.5,0.9,2.2c1.2,1.9,2.7,3.9,4.7,5.1c0.8,0.5,1.6,0.9,2.5,1c0.9,0.1,1.7-0.1,2.5-0.5c1.9-0.9,3.1-2.4,4.2-4.2
					c1.3-2.1,2.5-4.1,3.5-6.4c1-2.2,1.8-4.6,2-7c0.1-1,0-2.1-0.1-3.1c-0.2-1.3-0.8-2.4-1.2-3.6c-0.3-0.7-0.4-1.4-0.7-2.1
					c-0.3-0.8-0.7-1.5-0.9-2.3c-0.6-1.6-1.2-3.1-1.8-4.7c-1.3-3.5-2.4-7-3.7-10.4c-0.3-0.9-0.7-1.8-1.1-2.8
					c-0.3-0.9-0.6-1.7-0.9-2.6c-0.6-1.5-1.1-3.1-1.8-4.6c-0.5-1.2-0.9-2.5-1.3-3.7c-1.9,0.1-3.8,0.3-5.5,1.4
					C234.7,86.6,233.7,88.1,233.2,89.8z"/>
				<path class="st15" d="M266.7,59.6c0.5,1,0.7,2,1.1,3.1c0.3,1,0.6,2,0.8,3c0.2,0.9,0.3,1.9,0.4,2.8c0.3,2.1,0,4.2-0.5,6.2
					c-0.4,1.9-1,3.7-1.8,5.4c-0.9,1.7-2,3.5-3.6,4.6c-0.6,0.4-1.3,0.7-2,1c0.6,1.5,1.4,2.9,2.4,4.2c1.5,1.8,3.8,2.9,6,3.5
					c2.1,0.6,4.6-0.2,5.9-2c1.6-2.2,2.9-4.7,3.9-7.2c0.5-1.4,0.9-2.7,1.3-4.1c0.3-1.3,0.5-2.5,0.7-3.8c0.2-1.1,0.4-2.3,0.4-3.5
					c0-1.2-0.3-2.3-0.7-3.4c-1.4-3.9-4.1-7-7.3-9.6c-1.9-1.5-4-2.8-6.1-4.1c-1-0.6-2-1.2-3-1.8c-0.1-0.1-0.3-0.2-0.4-0.2
					c0.5,1.2,1,2.5,1.5,3.7C266,58.2,266.4,58.9,266.7,59.6z"/>
				<path class="st16" d="M186.4,136.4c2,1,5.5,1.2,7.1,2.7c0.8,0.8,1.6,1.8,2.9,1.8c0.5,0,0.8-0.1,1.3-0.3c0.7-0.3,1.5-0.5,2.2-0.7
					c0.8-0.2,1.4-0.7,2-1.1c0.8-0.5,1.6-1,2.2-1.8c0.6-0.7,1.2-1.7,1.7-2.6c0.5-0.9,1-1.9,1.5-2.8c0.6-1.1,1-2.3,1.5-3.4
					c0.6-1.3,1.3-2.7,2.1-3.9c0.8-1.4,1.7-2.8,2.8-4c0.2-0.2,0.4-0.5,0.6-0.7c-0.1-0.5-0.3-1-0.5-1.5c-0.3-0.8-0.6-1.6-0.9-2.5
					c-0.3-1.1-0.5-2.2-1.1-3.2c-0.7-1.1-1.3-2.1-2.4-2.8c-1-0.6-2.5-1.2-3.7-1.1c-1.5,0.1-3.1,1-4.1,2.1c-0.3,0.4-0.6,0.8-0.9,1.1
					c-0.6,0.6-1.3,1.1-1.9,1.6c-1.4,1.2-2.5,2.6-4,3.7c-1.1,0.8-2.4,1.7-3.7,2.1c-1.6,0.5-3.2,0.4-4.7-0.4c-1.7-0.8-2.9-2.4-3.7-3.9
					c-2.5-0.1-4.7,2.4-5.7,4.7c-1,2.4-0.9,5-0.7,7.5c0.3,3.1,0.8,6.2,2.2,8.9c0,0.1,0.1,0.2,0.2,0.2
					C181.2,137,183.9,137.1,186.4,136.4z"/>
				<path class="st14" d="M208,74.5c0.3,0.4,0.7,0.9,0.9,1.3c0.8,1.2,1.4,2.5,2,3.9c0.5,1.3,1,2.5,1.4,3.9c0.2,0.5,0.3,1.1,0.5,1.6
					c0.3,1,0.5,1.9,0.7,2.9c0.2,0.8,0.4,1.6,0.6,2.4c2-1.5,3.2-4.3,3.3-6.7c0.1-1.1-0.1-2.2-0.2-3.3c-0.1-1.2-0.2-2.4-0.4-3.6
					c-0.2-1.3-0.8-2.5-1.1-3.8c-0.8-3.1-2.3-6-3.5-8.9l-6.4,9.1C206.6,73.5,207.4,73.8,208,74.5z"/>
				<path class="st17" d="M198.5,86.1c1.2,0.9,2.4,1.8,3.5,2.7c1.6,1.3,3.3,2.2,5.4,2.5c1.4,0.2,3,0.4,4.3,0.1
					c0.9-0.2,1.6-0.5,2.3-1.1c-0.2-0.8-0.4-1.6-0.6-2.4c-0.2-1-0.4-2-0.7-2.9c-0.2-0.5-0.3-1.1-0.5-1.6c-0.4-1.3-0.9-2.6-1.4-3.9
					c-0.6-1.4-1.2-2.6-2-3.9c-0.3-0.4-0.6-0.9-0.9-1.3c-0.6-0.7-1.4-1-2.2-1.2l-8.5,11.9C197.8,85.3,198.1,85.8,198.5,86.1z"/>
				<path class="st17" d="M249.1,34.6c0.3,2.5,1,4.9,2.3,7.1c0.2-0.1,0.5-0.1,0.7-0.2c0.7-0.3,1.5-0.5,2.2-0.9
					c1.1-0.6,1.7-1.7,2.2-2.8c0.4-1.1,0.7-2.1,0.8-3.2c0.1-1,0.3-2.4-0.3-3.3l-7.3,0.7C249.3,32.6,249,33.7,249.1,34.6z"/>
				<path class="st17" d="M242.3,36.5c-0.4-0.8-0.9-1.7-1.6-2.4c-0.4-0.5-0.9-0.9-1.4-1.3l-6,0.6c0.8,2.1,1.5,4.4,3.4,5.8
					c0.6,0.4,1.2,0.8,1.9,1.2c1.5,0.9,3.3,1.7,5,2c0.3,0,0.5,0.1,0.8,0.1c-0.2-0.7-0.5-1.4-0.7-2C243.2,39,242.9,37.7,242.3,36.5z"
					/>
				<path class="st16" d="M248.7,42.2c0.9-0.1,1.8-0.3,2.7-0.6c-1.3-2.1-2.1-4.6-2.3-7.1c-0.1-0.9,0.1-2,0.6-2.7l-10.4,1
					c0.5,0.4,1,0.8,1.4,1.3c0.7,0.7,1.1,1.5,1.6,2.4c0.6,1.2,0.9,2.6,1.4,3.8c0.2,0.7,0.5,1.4,0.7,2
					C245.8,42.5,247.3,42.4,248.7,42.2z"/>
			</g>
			<g>
				<g>
					<path class="st18" d="M232.1,62.4c-1.2,0.1-2.7-0.1-3.2,1.2c-0.2,0.4-0.3,0.8-0.4,1.3c-0.1,0.5,0,1.2,0.1,1.7
						c0.1,0.5,0.3,0.6,0.7,0.8c0.8,0.6,1.8,1.1,2.8,1.2c0.5,0,0.8,0,1.2-0.4c0.3-0.3,0.7-0.5,1-0.8c1-1,1.1-2.6,0.4-3.9
						c-0.2-0.4-0.5-0.8-0.9-1c-0.3-0.1-0.6-0.3-0.9-0.4C232.3,62,231.8,62.3,232.1,62.4z"/>
					<path class="st18" d="M253.8,112.7c-0.6-0.3-0.8-0.5-1.3-0.3c-0.3,0.1-0.7,0.3-1,0.5c-0.6,0.4-1,0.8-1.3,1.4
						c-0.5,1-0.3,2.1,0.3,3c0.9,1.4,3.4,2.2,4.8,1.1c1.1-0.8,1.5-2.5,1.1-3.8c-0.1-0.4-0.4-0.7-0.6-1c-0.3-0.3-0.6-0.7-0.9-1
						C254.5,112.4,253.8,111.8,253.8,112.7z"/>
					<path class="st18" d="M205.4,118.9c-0.6,0.4-1.1,0.9-1.5,1.5c0,0.1,0.1,0.3,0.2,0.4c0.1,0.2,0.2,0.3,0.4,0.5
						c0.4,0.3,0.8,0.5,1.2,0.4c0.6-0.1,1.4-0.4,1.4-1.1c0-0.5-0.3-1.1-0.7-1.4C206.2,118.9,204.8,118.1,205.4,118.9z"/>
					<path class="st18" d="M257.4,73.3c-1.3,0.2-3.1,0.2-3.6,1.7c-0.2,0.5-0.3,0.9-0.3,1.4c0.1,0.9,0.3,1.8,1,2.4
						c0.6,0.4,1.6,0.7,2.3,0.6c0.8-0.2,1.4-0.6,1.9-1.2c0.8-0.9,1.1-2.2,0.6-3.4c-0.2-0.6-0.8-0.9-1.3-1.1c-0.4-0.2-0.8-0.4-1.2-0.6
						C256.6,72.9,256.3,72.7,257.4,73.3z"/>
					<path class="st18" d="M285.5,52.3c-1-0.3-1.6-0.6-2.5-0.2c-0.4,0.2-0.8,0.5-1,0.8c-0.6,0.8-0.8,1.8-0.6,2.7
						c0.1,0.8,0.5,1.5,1.3,1.8c0.8,0.4,1.7,0,2.5-0.4c1.1-0.6,1.9-2,1.7-3.2c-0.1-0.6-0.6-1.3-1.1-1.6
						C285.1,51.9,284.1,51.5,285.5,52.3z"/>
					<path class="st18" d="M254.7,88.5c-0.5,0.5-1.9,1.2-1.4,2.1c0.2,0.3,0.7,0.6,1,0.6c0.6,0.1,1.7-0.1,1.9-0.7
						c0.2-0.6-0.2-1.1-0.6-1.5C255.2,88.4,254.8,88,254.7,88.5z"/>
					<path class="st18" d="M230,53.8c-0.7,0.4-1.3,0.6-1.2,1.4c0,0.2,0,0.4,0.2,0.5c0.2,0.2,0.6,0.4,0.9,0.4
						c0.4,0.1,1.1-0.2,1.2-0.6C231.3,55,231.2,53.2,230,53.8z"/>
					<path class="st18" d="M245.4,60.9c-0.6,0.2-1.5,0.2-1.4,1c0,0.2,0.1,0.5,0.2,0.8c0.1,0.4,0.4,0.6,0.8,0.7
						c0.7,0.2,1.7,0.1,1.9-0.6c0.2-0.6-0.1-1-0.3-1.6C246.2,60.6,245.3,60.1,245.4,60.9z"/>
					<path class="st18" d="M211.8,138.4c-0.6,0.2-1.4,0.2-1.5,1c0,0.2,0,0.3,0.1,0.5c0.2,0.5,0.3,0.7,0.8,0.8
						c0.2,0.1,0.6,0.3,0.8,0.2c0.3-0.1,0.5-0.4,0.7-0.6c0.3-0.4,0.6-1,0.5-1.4C213,138.3,212.1,138.3,211.8,138.4z"/>
					<path class="st18" d="M247,131.7c-0.3,0.2-1.2,0.6-1.1,1.1c0,0.1,0.2,0.2,0.2,0.3c0.1,0.1,0.2,0.3,0.4,0.4
						c0.2,0.1,0.5,0.2,0.8,0.2c0.4,0,0.9-0.5,1-1C248.4,131.8,247.4,131.3,247,131.7z"/>
					<path class="st18" d="M226.2,97.3c-0.5,0.3-0.9,0.7-1.2,1.2c0.2,0.3,0.2,0.7,0.5,1c0.2,0.1,0.6,0.3,0.8,0.3
						c0.6,0.1,1.2-0.2,1.3-0.8c0.1-0.5,0-1.2-0.5-1.5C226.7,97.2,225.9,96.8,226.2,97.3z"/>
					<path class="st18" d="M269.1,45.6c-0.3,0.3-1,0.7-1,1.1c0,0.1,0,0.2,0.1,0.3c0.1,0.2,0.1,0.4,0.2,0.6c0.2,0.3,0.4,0.4,0.8,0.5
						c0.5,0.1,1.1-0.2,1.3-0.7c0.2-0.5,0.1-1-0.3-1.4C270,45.7,269.5,45.2,269.1,45.6z"/>
				</g>
			</g>
		</g>
		<use xlink:href="#SVGID_1_"  style="overflow:visible;fill:none;stroke:#FFFFFF;stroke-miterlimit:10;"/>
	</g>
	<g>
		<path class="st9" d="M225.6,41.4c1.2,0.5,2.5,0.9,3.8,1.2c1.9,0.5,3.8,1.2,5.6,2c1.6,0.6,3.1,1.2,4.7,1.8c0.9,0.3,1.7,0.9,2.6,1.3
			c1,0.5,2.1,0.8,3.1,1.3c0.9,0.5,1.9,0.8,2.8,1.3c1.6,0.8,3,1.7,4.5,2.5c0.6,0.4,1.3,0.7,1.9,1.1c0.9-0.1,1.8-0.2,2.6-0.4
			c1.4-0.2,2.7-0.6,4.1-0.9c1.1-0.2,2.3-0.4,3.4-0.6c0.8-0.2,1.6-0.4,2.4-0.6c0.7-0.1,1.3-0.1,2-0.2c1.1-0.1,2.2-0.5,3.3-0.6
			c1.4-0.2,2.8-0.3,4.2-0.5c1.9-0.3,3.7-0.5,5.6-0.9c1.2-0.2,2.3-0.3,3.5-0.4c2.2-0.2,4.4-0.8,6.6-1.3c0,0,0,0.1,0,0.1
			c0,0,0.1-0.1,0.1-0.1c-1.1-0.2-2.2-0.6-3.2-1.1c-0.9-0.4-1.9-0.8-2.8-1.1c-2.5-0.9-4.9-1.7-7.4-2.4c-2.4-0.6-4.7-1.3-7.1-1.9
			c-0.8-0.2-1.6-0.3-2.4-0.5c-0.8-0.2-1.5-0.5-2.3-0.8c-1.1-0.3-2.3-0.5-3.4-0.8c-0.8-0.2-1.5-0.5-2.3-0.7c-0.3-0.1-0.7-0.1-1-0.1
			c-1-0.3-1.9-0.9-3-1.2c-0.9-0.2-1.7-0.3-2.6-0.6c-0.7-0.2-1.3-0.5-2-0.7c-0.3-0.1-1.2-0.2-1.3-0.5c-0.9,0.1-1.9,0.4-2.7,0.6
			c-0.9,0.2-1.9,0.4-2.7,0.7c-0.7,0.2-1.4,0.4-2.1,0.5c-0.7,0.1-1.4,0.1-2.1,0.3c-0.4,0.1-0.8,0.3-1.2,0.4c-0.8,0.3-1.7,0.4-2.5,0.5
			c-2.3,0.4-4.6,0.8-6.9,1.2c-1.3,0.2-2.5,0.6-3.8,0.7c-1,0.1-2,0.1-2.9,0.2c-0.4,0-0.9,0-1.3,0.1c0.1,0,0.1,0.1,0.2,0.1
			C224,40.6,225.3,41.2,225.6,41.4z"/>
		<path class="st9" d="M218.5,145c1.1-2.5,2.3-5,3.6-7.5c1.5-2.9,2.9-5.8,4.3-8.8c1.8-3.8,3.6-7.7,5.4-11.6c2-4.5,4.1-8.9,5.8-13.4
			c1.5-3.9,3.5-7.6,4.6-11.6c1-3.6,2.9-7,4-10.6c0.4-1.2,0.9-2.5,1.2-3.7c0.4-1.5,1-2.9,1.4-4.4c0.3-1.3,0.7-2.5,1-3.8
			c0.1-0.7,0.3-1.3,0.5-2c0.7-2.2,1.5-4.4,2.4-6.6c0.8-2.1,1.5-4.7,1.1-7c0.3-0.1,0.6-0.1,0.9-0.1c-0.6-0.4-1.3-0.7-1.9-1.1
			c-1.5-0.8-3-1.7-4.5-2.5c-0.9-0.5-1.9-0.8-2.8-1.3c-1-0.5-2-0.9-3.1-1.3c-0.9-0.4-1.7-1-2.6-1.3c-1.6-0.6-3.1-1.2-4.7-1.8
			c-1.8-0.7-3.7-1.5-5.6-2c-1.3-0.3-2.6-0.7-3.8-1.2c-0.3-0.1-1.6-0.8-2.2-0.7c-0.1,0-0.2,0-0.2,0.1c-0.1,0.1-0.2,0.4-0.2,0.6
			c-0.2,0.7-0.5,1.4-0.8,2.1c-0.5,1.3-0.9,2.6-1.4,3.9c-0.4,1.2-1,2.3-1.5,3.4c-0.6,1.2-1.1,2.5-1.7,3.8c-1.3,2.7-2.7,5.2-3.7,8
			c-0.8,2.3-1.4,4.7-2.1,7c-0.4,1.2-0.9,2.4-1.3,3.7c-0.5,1.6-0.9,3.2-1.3,4.8c-0.9,3.2-2.4,6.1-3.6,9.1c-2.2,5.5-4.7,10.9-7,16.4
			c-0.6,1.4-1.1,2.7-1.7,4.1c-0.6,1.5-1.2,3-1.9,4.4c-0.7,1.2-1.2,2.5-1.9,3.7c-0.7,1.3-1.3,2.7-1.9,4.1c-0.8,1.9-1.6,3.7-2.6,5.5
			c-0.6,1-1.1,2-1.7,3c-0.4,0.6-1.2,1.4-1.3,2.2c0.6,0.1,1.5,0.8,2,1.1c1.5,0.9,3,2.1,4.5,3c1.5,0.9,2.9,1.8,4.4,2.7
			c1.4,0.8,2.7,1.8,4.1,2.6c1.2,0.7,2.2,1.7,3.4,2.4c0.8,0.5,1.6,1.2,2.5,1.7c0.6,0.4,1.2,0.7,1.8,1.2c0.8,0.6,1.6,1.2,2.6,1.6
			c0.4,0.2,0.8,0.3,1.2,0.5c0.8,0.5,1.6,1,2.3,1.5c0.5,0.4,1.1,0.6,1.5,1c0.2-0.2,0.5-0.4,0.8-0.5c0.2-0.3,0.4-0.7,0.5-1.1
			C217.6,147,218,146,218.5,145z"/>
		<path class="st9" d="M292.3,47.5c-2.2,0.5-4.4,1.1-6.6,1.3c-1.2,0.1-2.3,0.2-3.5,0.4c-1.9,0.4-3.7,0.6-5.6,0.9
			c-1.4,0.2-2.8,0.3-4.2,0.5c-1.1,0.1-2.2,0.5-3.3,0.6c-0.7,0.1-1.3,0.1-2,0.2c-0.8,0.1-1.6,0.4-2.4,0.6c-1.1,0.3-2.3,0.4-3.4,0.6
			c-1.4,0.3-2.7,0.7-4.1,0.9c-0.9,0.1-1.8,0.2-2.6,0.4c-0.3,0-0.6,0.1-0.9,0.1c0.3,2.3-0.3,5-1.1,7c-0.9,2.2-1.7,4.4-2.4,6.6
			c-0.2,0.7-0.4,1.3-0.5,2c-0.2,1.3-0.6,2.5-1,3.8c-0.4,1.5-1,2.9-1.4,4.4c-0.3,1.3-0.8,2.5-1.2,3.7c-1.2,3.6-3,7-4,10.6
			c-1.1,4.1-3.1,7.7-4.6,11.6c-1.8,4.6-3.8,9-5.8,13.4c-1.7,3.9-3.5,7.8-5.4,11.6c-1.4,3-2.8,5.9-4.3,8.8c-1.3,2.5-2.4,4.9-3.6,7.5
			c-0.4,1-0.9,2-1.3,3c-0.2,0.4-0.3,0.7-0.5,1.1c0,0.1-0.1,0.1-0.1,0.2c-0.1,0.2-0.3,0.4-0.3,0.6c0.4-0.3,1.3,0,1.8,0
			c1.3-0.1,2.7-0.2,4-0.3c1.4-0.1,2.8-0.3,4.2-0.3c1.2,0,2.4-0.4,3.6-0.6c0.8-0.1,1.5-0.2,2.3-0.3c0.7-0.1,1.4-0.3,2.1-0.5
			c1-0.3,2-0.5,3-0.6c1.2-0.2,2.3-0.5,3.5-0.8c1.3-0.4,2.6-0.4,3.9-0.6c1.4-0.3,2.7-0.8,4.2-1c1.1-0.2,2.3-0.4,3.2-0.9
			c0.3-0.2,0.8-0.3,1-0.6c0.4-0.4,0.7-1,0.9-1.6c0.6-1.3,1.4-2.4,2.1-3.6c0.7-1.1,1.3-2.3,1.9-3.5c0.7-1.4,1.4-2.8,2.2-4.2
			c0.4-0.7,0.6-1.3,0.9-2.1c0.4-1.1,1-2,1.5-3c1.3-2.6,2.5-5.3,3.7-8c0.4-0.8,0.6-1.7,0.9-2.5c0.2-0.5,0.5-1,0.7-1.5
			c0.6-1.5,1.1-3,1.8-4.4c0.5-1,0.9-2,1.3-2.9c0.6-1.4,1.5-2.7,2.1-4c0.7-1.6,1.2-3.4,2.2-4.9c0.7-1,1.1-2.3,1.4-3.5
			c0.6-2.1,1.4-4.2,2.2-6.3c0.3-0.9,0.6-1.7,0.9-2.6c0.6-1.6,1-3.3,1.5-4.8c0.4-1,0.8-2.1,1.1-3.2c0.3-0.8,0.8-1.6,1.1-2.4
			c0.2-0.6,0.3-1.2,0.5-1.7c0.9-3,2-6,3.2-8.8c0.4-1,0.8-2.1,1.1-3.2c0.5-1.6,1.2-3.2,1.8-4.8c0.7-1.7,1-3.5,1.7-5.2
			c0.4-0.9,0.7-1.9,0.5-2.9C292.3,47.6,292.3,47.6,292.3,47.5z"/>
	</g>
	<g>
		<path class="st19" d="M206.8,127.5c-1.5-0.2-2.6-0.4-4-0.2c-0.4,0.1-0.8,0-1.3,0c-1.2,0-2.4,0-3.6,0c-1.5,0-3,0.1-4.4,0.2
			c-2,0.1-3.9-0.1-5.9,0c-1.8,0.1-3.5,0.1-5.3,0.1c-1.7,0-3.4,0.3-5.1,0.4c-1.9,0.1-3.8,0-5.7,0.2"/>
		<path class="st19" d="M207.9,135.8c-5.2-0.5-10.4-1.3-15.5-1.1c-1.4,0.1-2.9,0.2-4.3,0.3c-1.1,0-2.2-0.1-3.3,0
			c-1.4,0.1-2.7,0.3-4.1,0.3c-1.2,0-2.3,0.1-3.5,0.2c-2.2,0.3-4.4,0.6-6.6,0.6c-2,0-3.9,0.4-5.9,0.5c-1.7,0.1-3.3,0-5,0.1
			c-0.7,0-1.4,0.1-2.1,0.1c-0.6,0-1.1-0.1-1.7,0"/>
		<path class="st19" d="M215,144.3c-1.8-0.4-3.5-0.9-5.4-0.8c-1,0.1-2,0-3-0.1c-2.7-0.1-5.4,0.3-8.2,0.2c-2.9-0.1-5.9,0.3-8.8,0.4
			c-1.4,0.1-2.8,0.2-4.2,0.3c-1.4,0.1-2.7,0-4,0c-1.3,0-2.6,0.2-3.8,0.3c-1.3,0.1-2.6,0.1-3.9,0.2c-2.4,0-4.8,0.4-7.2,0.6
			c-2.3,0.2-4.6,0.7-6.8,1.2c-0.9,0.2-1.8,0.3-2.8,0.5c-0.5,0.1-1.1,0.1-1.5,0.3"/>
		<path class="st19" d="M220.3,86.5c-3.6-0.9-7.3-1.3-11.1-1.5c-1.5-0.1-3.1-0.2-4.6-0.3c-1.6-0.2-3.2,0.1-4.9,0
			c-1.5-0.1-2.8-0.3-4.3-0.2c-1.3,0.1-2.6,0.2-3.9,0.1c-1.9,0-3.9-0.2-5.8,0.1c0.1,0,0.1,0,0.2,0"/>
		<path class="st19" d="M229.2,75.7c-3.1-0.1-6.2-0.2-9.2-0.7c-1.4-0.2-2.8-0.3-4.3-0.4c-1.7-0.1-3.3-0.5-5-0.6
			c-1.8-0.2-3.6-0.2-5.4-0.3c-1.8-0.1-3.6,0-5.4-0.1c-1.8-0.1-3.5-0.2-5.3-0.2c-1.9,0-3.9-0.2-5.8-0.1c-1.6,0-3.2,0-4.7-0.1
			c-1.5-0.1-3.1,0-4.6-0.1c-3-0.2-6,0-9-0.3c-2.7-0.2-5.3-0.1-7.9-0.2c-1.3-0.1-2.9-0.2-4.1,0.2"/>
		<path class="st19" d="M229.4,48.8c-3.8-0.6-7.8-0.6-11.6-0.5c-1.7,0-3.3,0.1-5,0c-1.4-0.1-2.7-0.3-4.1-0.2
			c-1.4,0.1-2.8-0.2-4.2-0.4c-1.4-0.2-2.7-0.1-4.1,0c-1.5,0.1-3.1-0.1-4.7,0.1"/>
		<path class="st19" d="M229.1,54.2c-3.1-0.1-6.2-0.5-9.3-0.5c-1.8,0-3.6-0.6-5.3-0.5c-0.8,0-1.7,0.2-2.5,0.2
			c-0.8,0-1.6-0.2-2.5-0.3c-1.1-0.1-2.2-0.1-3.2-0.1"/>
	</g>
	<path class="st9" d="M206.8,127.5c-1.5-0.2-2.6-0.4-4-0.2c-0.4,0.1-0.8,0-1.3,0c-1.2,0-2.4,0-3.6,0c-1.5,0-3,0.1-4.4,0.2
		c-2,0.1-3.9-0.1-5.9,0c-1.8,0.1-3.5,0.1-5.3,0.1c-1.7,0-3.4,0.3-5.1,0.4c-1.9,0.1-3.8,0-5.7,0.2"/>
	<path class="st9" d="M207.9,135.8c-5.2-0.5-10.4-1.3-15.5-1.1c-1.4,0.1-2.9,0.2-4.3,0.3c-1.1,0-2.2-0.1-3.3,0
		c-1.4,0.1-2.7,0.3-4.1,0.3c-1.2,0-2.3,0.1-3.5,0.2c-2.2,0.3-4.4,0.6-6.6,0.6c-2,0-3.9,0.4-5.9,0.5c-1.7,0.1-3.3,0-5,0.1
		c-0.7,0-1.4,0.1-2.1,0.1c-0.6,0-1.1-0.1-1.7,0"/>
	<path class="st9" d="M215,144.3c-1.8-0.4-3.5-0.9-5.4-0.8c-1,0.1-2,0-3-0.1c-2.7-0.1-5.4,0.3-8.2,0.2c-2.9-0.1-5.9,0.3-8.8,0.4
		c-1.4,0.1-2.8,0.2-4.2,0.3c-1.4,0.1-2.7,0-4,0c-1.3,0-2.6,0.2-3.8,0.3c-1.3,0.1-2.6,0.1-3.9,0.2c-2.4,0-4.8,0.4-7.2,0.6
		c-2.3,0.2-4.6,0.7-6.8,1.2c-0.9,0.2-1.8,0.3-2.8,0.5c-0.5,0.1-1.1,0.1-1.5,0.3"/>
	<path class="st9" d="M220.3,86.5c-3.6-0.9-7.3-1.3-11.1-1.5c-1.5-0.1-3.1-0.2-4.6-0.3c-1.6-0.2-3.2,0.1-4.9,0
		c-1.5-0.1-2.8-0.3-4.3-0.2c-1.3,0.1-2.6,0.2-3.9,0.1c-1.9,0-3.9-0.2-5.8,0.1c0.1,0,0.1,0,0.2,0"/>
	<path class="st9" d="M229.2,75.7c-3.1-0.1-6.2-0.2-9.2-0.7c-1.4-0.2-2.8-0.3-4.3-0.4c-1.7-0.1-3.3-0.5-5-0.6
		c-1.8-0.2-3.6-0.2-5.4-0.3c-1.8-0.1-3.6,0-5.4-0.1c-1.8-0.1-3.5-0.2-5.3-0.2c-1.9,0-3.9-0.2-5.8-0.1c-1.6,0-3.2,0-4.7-0.1
		c-1.5-0.1-3.1,0-4.6-0.1c-3-0.2-6,0-9-0.3c-2.7-0.2-5.3-0.1-7.9-0.2c-1.3-0.1-2.9-0.2-4.1,0.2"/>
	<path class="st9" d="M229.4,48.8c-3.8-0.6-7.8-0.6-11.6-0.5c-1.7,0-3.3,0.1-5,0c-1.4-0.1-2.7-0.3-4.1-0.2c-1.4,0.1-2.8-0.2-4.2-0.4
		c-1.4-0.2-2.7-0.1-4.1,0c-1.5,0.1-3.1-0.1-4.7,0.1"/>
	<path class="st9" d="M229.1,54.2c-3.1-0.1-6.2-0.5-9.3-0.5c-1.8,0-3.6-0.6-5.3-0.5c-0.8,0-1.7,0.2-2.5,0.2c-0.8,0-1.6-0.2-2.5-0.3
		c-1.1-0.1-2.2-0.1-3.2-0.1"/>
	<g>
		<g>
			<path class="st20" d="M260.6,61.2c-0.3,0.5-0.5,1-0.6,1.5c-0.1,0.4-0.2,0.8-0.3,1.2c-0.1,0.3-0.1,0.6-0.2,0.9
				c-0.2,0.6-0.4,1.3-0.6,1.9c-0.2,0.7-0.4,1.5-0.7,2.2c-0.2,0.6-0.4,1.1-0.6,1.7c0,0.1-0.1,0.2-0.1,0.3c0,0.1-0.1,0.3-0.1,0.4
				c0,0.1-0.1,0.2-0.1,0.3"/>
			<path class="st20" d="M265,60.5c-0.5,1.3-0.9,2.7-1.3,4c-0.2,0.6-0.4,1.2-0.5,1.8c-0.1,0.7-0.4,1.3-0.7,2
				c-0.1,0.3-0.2,0.5-0.3,0.8c-0.1,0.2-0.1,0.4-0.2,0.6c-0.1,0.2-0.1,0.3-0.2,0.5c-0.1,0.1-0.2,0.3-0.2,0.5"/>
			<path class="st20" d="M269.5,59.6c-0.3,1-0.6,2-1,3c-0.2,0.6-0.4,1.2-0.6,1.9c-0.1,0.5-0.3,1.1-0.5,1.6c-0.2,0.5-0.4,1.1-0.6,1.6
				c-0.1,0.4-0.3,0.7-0.4,1.1c-0.1,0.3-0.2,0.7-0.3,1.1"/>
			<path class="st20" d="M274.1,58.8c-0.4,1-0.8,2.1-1.2,3.1c-0.1,0.5-0.3,1-0.4,1.5c-0.2,0.9-0.6,1.8-0.8,2.8
				c-0.2,0.6-0.3,1.2-0.5,1.8c-0.1,0.3-0.4,0.7-0.4,1"/>
			<path class="st20" d="M278,57.8c-0.3,1.1-0.6,2.2-0.9,3.4c-0.2,0.8-0.4,1.6-0.6,2.4c-0.2,0.6-0.4,1.2-0.6,1.8
				c-0.1,0.2-0.1,0.4-0.2,0.6c-0.2,0.5-0.3,1-0.6,1.5c-0.1,0.2-0.1,0.6-0.3,0.8c0,0,0,0,0,0"/>
			<path class="st20" d="M282.6,57.1c-0.3,1-0.6,2-0.9,2.9c-0.2,0.6-0.5,1.2-0.7,1.8c-0.2,0.5-0.3,1-0.5,1.4
				c-0.1,0.4-0.2,0.7-0.4,1.1c-0.2,0.4-0.4,0.9-0.5,1.4c-0.1,0.5-0.3,0.9-0.4,1.3c-0.1,0.3-0.2,0.5-0.3,0.7c0,0.1-0.1,0.2-0.1,0.3"
				/>
		</g>
	</g>
	<g>
		<g>
			<path class="st21" d="M277,74c-0.6,1.9-1.4,3.7-2.1,5.6c-0.3,0.7-0.5,1.5-0.9,2.2c-0.2,0.4-0.4,0.8-0.6,1.2"/>
			<path class="st21" d="M273.6,74.9c-0.8,1.5-1.4,3.1-2,4.7c-0.4,0.9-0.7,1.9-1.2,2.8c-0.3,0.5-0.6,1.1-0.9,1.6"/>
			<path class="st21" d="M269.6,75.7c-1.3,2.3-1.8,5.1-3.1,7.4c-0.3,0.5-0.6,1.1-0.9,1.6"/>
			<path class="st21" d="M265.1,76c-0.5,1.3-0.9,2.5-1.3,3.8c-0.2,0.7-0.4,1.5-0.7,2.2c-0.2,0.5-0.4,1.1-0.6,1.6
				c-0.1,0.2-0.3,0.4-0.4,0.7c-0.2,0.3-0.3,0.6-0.4,0.9"/>
			<path class="st21" d="M260.8,76.6c-0.5,1.1-0.9,2.3-1.3,3.5c-0.1,0.5-0.3,0.9-0.4,1.4c-0.3,0.9-0.7,1.7-1.1,2.5
				c-0.3,0.5-0.6,1-0.8,1.6"/>
			<path class="st21" d="M256.8,76.5c-0.4,1-0.7,2-1.1,2.9c-0.3,0.8-0.7,1.5-1,2.3c-0.2,0.4-0.3,0.9-0.5,1.3c-0.1,0.3-0.3,0.6-0.4,1
				c-0.2,0.4-0.4,0.9-0.6,1.3c0,0.1-0.2,0.4-0.1,0.5"/>
		</g>
	</g>
	<path class="st20" d="M286.6,56.4c-1.4,0.2-2.7,0.4-4.1,0.7c-0.3,0.1-0.6,0.1-0.9,0.1c-0.3,0-0.5,0.1-0.8,0.2
		c-0.4,0.1-0.8,0.1-1.2,0.1c-0.3,0-0.5,0.1-0.8,0.2c-0.6,0.1-1.2,0.1-1.7,0.3c-0.4,0.1-0.9,0.2-1.3,0.3c-0.4,0.1-0.8,0.2-1.1,0.3
		c-0.5,0.1-1,0.2-1.5,0.3c-0.4,0.1-0.7,0.2-1.1,0.2c-0.3,0-0.7,0.1-1,0.2c-0.6,0.1-1.3,0.2-1.9,0.3c-0.9,0.2-1.9,0.4-2.8,0.5
		c-0.4,0.1-0.9,0.1-1.3,0.2c-0.4,0.1-0.7,0.2-1.1,0.2c-1.7,0.3-3.3,0.4-5,0.8c-0.4,0.1-0.8,0.2-1.2,0.3c-0.2,0-0.4,0.1-0.6,0.1
		c-0.2,0-0.4,0-0.6,0c-0.1,0-0.1,0.1-0.2,0.2c-0.1,0.3-0.2,0.6-0.3,0.9c-0.1,0.3-0.2,0.7-0.4,1c-0.2,0.6-0.4,1.2-0.6,1.8
		c-0.1,0.3-0.3,0.6-0.4,0.9c-0.2,0.5-0.4,1.1-0.5,1.6c-0.1,0.3-0.1,0.5-0.2,0.8c-0.2,0.6-0.4,1.2-0.6,1.8c-0.1,0.3-0.2,0.6-0.3,0.8
		c0,0.1-0.2,0.2-0.1,0.3c0.3-0.1,0.5-0.2,0.8-0.2c0.8-0.1,1.6,0,2.3-0.1c1.1-0.1,2.3-0.3,3.4-0.4c1.1,0,2.3-0.4,3.4-0.5
		c1.3-0.2,2.6-0.3,3.8-0.5c0.4-0.1,0.8-0.1,1.2-0.2c0.6-0.1,1.3-0.2,1.9-0.4c0.4-0.1,0.8-0.2,1.3-0.3c0.6-0.1,1.2-0.2,1.8-0.3
		c0.4-0.1,0.8-0.1,1.1-0.2c0.6-0.1,1.3-0.2,2-0.3c0.4-0.1,0.9-0.2,1.3-0.2c0.3,0,0.5,0,0.8-0.1c0.6-0.1,1.3-0.1,1.9-0.3
		c0.4-0.1,0.8-0.2,1.3-0.2c0.4,0,0.9-0.1,1.2-0.3c0.1-0.1,0.1,0,0.1-0.1c0.1-0.2,0.2-0.3,0.3-0.5c0.3-0.6,0.6-1.1,0.8-1.7
		c0.3-0.7,0.5-1.3,0.8-2c0.1-0.3,0.3-0.6,0.5-1c0.2-0.4,0.3-0.8,0.5-1.2c0.2-0.5,0.4-1.1,0.5-1.6c0.1-0.5,0.2-1.1,0.4-1.6
		c0.1-0.3,0.2-0.6,0.2-0.9c0-0.1,0-0.2,0.1-0.2C286.9,56.6,286.9,56.5,286.6,56.4z"/>
	<path class="st21" d="M280.1,73c-1.2,0.5-2.4,1.1-3.7,1.3c-0.6,0.1-1.3,0.2-1.9,0.4c-1,0.2-2.1,0.3-3.2,0.4
		c-0.6,0.1-1.3,0.2-1.9,0.2c-0.4,0-0.8,0.1-1.2,0.1c-1.2,0.2-2.5,0.2-3.7,0.3c-0.7,0.1-1.4,0.1-2.1,0.1c-0.5,0-0.9,0.1-1.4,0.1
		c-1.3,0-2.7,0.2-4,0.3c-1,0.1-2.1,0.1-3.1,0.2c-0.4,0.1-0.8,0-1.2,0c-0.1,0-0.2,0-0.3,0c-0.1,0.2-0.2,0.5-0.3,0.7
		c-0.2,0.4-0.3,0.8-0.4,1.2c-0.2,0.6-0.5,1.1-0.7,1.7c-0.2,0.4-0.3,0.9-0.5,1.3c-0.2,0.5-0.5,1-0.7,1.5c-0.2,0.3-0.3,0.7-0.4,1
		c-0.2,0.4-0.4,0.8-0.5,1.2c-0.1,0.2-0.3,0.6-0.3,0.8c0,0.1-0.1,0.1,0,0.2c0.1,0.1,0.5,0,0.6,0c1,0,1.9,0,2.9,0c0.3,0,0.6,0,0.9,0
		c0.3,0,0.5-0.1,0.8-0.1c0.3,0,0.6,0,0.9,0c0.6,0,1.2-0.2,1.8-0.2c0.4,0,0.8,0,1.2-0.1c0.5-0.1,1.1,0,1.6-0.1c0.3-0.1,0.7-0.2,1-0.2
		c0.2,0,0.4,0,0.5,0c0.3,0,0.6-0.1,0.9-0.2c0.6-0.1,1.2,0.1,1.8,0c1-0.1,2-0.2,3-0.3c1.3-0.1,2.6-0.4,3.9-0.5
		c0.9-0.1,1.8-0.3,2.6-0.4c0.6-0.1,1.1-0.3,1.6-0.5c0.4-0.1,0.7-0.2,1.1-0.2c0.2,0,0.6,0,0.7-0.2c0.1-0.1,0.1-0.2,0.2-0.3
		c0.3-0.7,0.7-1.4,1-2.2c0.3-0.6,0.6-1.2,0.9-1.9c0.2-0.5,0.4-1.1,0.6-1.6c0.1-0.3,0.2-0.6,0.3-0.9c0.2-0.4,0.4-0.9,0.5-1.3
		c0.1-0.3,0.1-0.6,0.2-0.9C280.4,73.7,280.5,73.4,280.1,73z"/>
	<g>
		<g>
			<path class="st22" d="M271,90.7c-0.6,2.6-1.7,5-2.6,7.5c-0.2,0.6-0.4,1.2-0.7,1.8c-0.2,0.4-0.4,0.8-0.7,1.2"/>
			<path class="st22" d="M266.4,91.2c-0.1,1-0.2,1.9-0.5,2.9c-0.2,0.7-0.5,1.4-0.7,2.2c-0.3,0.9-0.6,1.9-1.1,2.8
				c-0.3,0.7-0.6,1.4-1,2.1"/>
			<path class="st22" d="M261.4,91.8c-0.5,1.8-0.8,3.6-1.4,5.4c-0.3,0.9-0.6,1.7-1,2.5c-0.2,0.4-0.4,0.8-0.6,1.3
				c-0.2,0.3-0.3,0.8-0.5,1.1"/>
			<path class="st22" d="M257.2,92.4c-0.3,0.6-0.6,1.1-0.7,1.8c-0.1,0.5-0.3,1-0.4,1.5c-0.2,0.5-0.3,0.9-0.5,1.4
				c-0.3,0.8-0.7,1.7-1,2.5c-0.4,0.9-0.8,1.8-1.3,2.7"/>
			<path class="st22" d="M252.7,92.3c-0.3,0.2-0.5,0.5-0.6,0.9c-0.1,0.3-0.2,0.7-0.3,1c-0.1,0.4-0.2,0.7-0.3,1.1
				c-0.3,0.8-0.6,1.6-0.9,2.4c-0.2,0.5-0.3,1-0.5,1.4c-0.2,0.4-0.4,0.8-0.6,1.2c-0.2,0.5-0.4,1-0.5,1.4c-0.1,0.3-0.4,0.6-0.4,0.8
				c0,0,0,0,0,0"/>
		</g>
	</g>
	<path class="st21" d="M259.4,124.5c-0.4,1-1,1.9-1.4,2.9c-0.2,0.5-0.3,0.9-0.5,1.4c-0.2,0.6-0.6,1.1-0.8,1.7
		c-0.4,0.8-0.5,1.6-0.9,2.3c-0.2,0.4-0.4,0.8-0.5,1.2c-0.3,0.8-0.6,1.6-1,2.4c-0.7,1.3-1.2,2.6-1.9,3.9c-0.1,0.2-0.2,0.5-0.3,0.7
		c-0.1,0.2-0.6,0.3-0.8,0.3c-0.3,0.1-0.7,0.2-1,0.3c-0.3,0.1-0.6,0.3-1,0.4c-0.8,0.2-1.6,0.2-2.3,0.4c-1.6,0.5-3.3,0.9-5,1.2
		c-0.8,0.2-1.6,0.4-2.5,0.5c-0.7,0.1-1.4,0.2-2.1,0.3c-0.8,0.1-1.5,0.3-2.3,0.3c-0.5,0-1,0-1.5,0c-0.4,0-0.9,0.1-1.3,0.1
		c-0.6,0-1.2,0.1-1.7,0.2c-0.5,0.1-1,0.2-1.5,0.2c-0.9,0.1-1.7,0.5-2.5,0.6c-0.3,0-0.7,0-1,0.1c-0.2,0-0.5,0.1-0.7,0.2
		c-0.4,0.1-0.8,0.1-1.3,0.2c0.1-0.2,0.2-0.5,0.3-0.7c0.3-0.5,0.5-1,0.7-1.5c0.5-1.1,0.9-2.2,1.4-3.3c0.3-0.6,0.5-1.2,0.7-1.8
		c0.3-0.7,0.7-1.4,1-2.1c0.2-0.5,0.5-1.1,0.7-1.6c0.3-0.6,0.6-1.2,0.9-1.8c0.4-1,1-1.9,1.4-2.8c0.2-0.4,0.3-0.8,0.5-1.1
		c0.2-0.4,0.4-0.8,0.6-1.1c0.2-0.3,0.2-0.7,0.4-1c0.2-0.4,0.4-0.8,0.6-1.3c0.1-0.4,0.3-0.8,0.4-1.2c0.1-0.2,0.1-0.5,0.3-0.7
		c0.3,0.1,0.6,0.3,0.9,0.2c0.7,0,1.4-0.2,2.1-0.2c0.8,0,1.6-0.1,2.4,0c0.6,0.1,1.2,0.1,1.8,0.1c1.3,0,2.6,0.2,3.9,0.2
		c0.6,0,1.3,0.1,1.9,0.1c0.8,0,1.5,0,2.3,0c1.3,0,2.6-0.1,3.9-0.3c0.6-0.1,1.3-0.1,1.9-0.3c0.6-0.1,1.1-0.1,1.7-0.1
		C257.3,124.2,258.4,123.7,259.4,124.5z"/>
	<path class="st18" d="M234,128.6c0.5,0,1.5-0.1,2,0.1c0.1,0.1,0.3,0.2,0.4,0.3c0.2,0.3,0.3,0.8,0.3,1.2c0,1.1-0.4,2-0.8,3
		c-0.5,1.3-1.1,2.6-1.7,3.8c-0.4,0.9-0.8,1.9-1.4,2.7c-0.3,0.5-0.6,1-1,1.4c-0.3,0.3-0.7,0.7-1.2,0.7c-0.3,0-0.5,0-0.8,0
		c-0.3,0-0.5-0.1-0.8-0.2c-0.5-0.2-0.1-0.8,0.1-1.2c0.1-0.1,0.2-0.5,0.4-0.6c0.2-0.1,0.2,0,0.4,0.1c0.1,0,0.3,0,0.4,0
		c0.2,0,0.3,0,0.4,0c0.4-0.2,0.7-0.6,0.9-1c0.3-0.6,0.5-1.3,0.8-1.9c0.2-0.4,0.4-0.8,0.6-1.2c0.2-0.4,0.4-0.7,0.6-1.1
		c0.2-0.5,0.5-1.1,0.7-1.6c0.2-0.4,0.4-0.8,0.5-1.2c0.1-0.3,0.2-0.7,0-1c-0.2-0.4-0.6-0.3-0.9-0.2c-0.4,0-0.6-0.1-0.5-0.5
		C233.4,129.5,234,129,234,128.6z"/>
	<path class="st14" d="M254.5,128.2c-0.3,0.1-1.2,0.4-1.3,0.9c0,0.1,0,0.3,0.1,0.4c0.1,0.2,0.2,0.4,0.4,0.5c0.3,0.1,0.7-0.1,0.9-0.3
		c0.3-0.2,0.4-0.6,0.5-0.9C255.2,128.5,255.2,127.9,254.5,128.2z"/>
	<path class="st23" d="M253,131.8c-0.6,0.2-1.7,0.6-1.5,1.5c0.1,0.2,0.2,0.5,0.4,0.6c0.4,0.3,0.8,0.1,1.1-0.1
		C253.7,133.2,253.9,132.1,253,131.8z"/>
	<path class="st24" d="M250.9,136.3c-0.6,0.4-1.4,0.8-1.3,1.7c0,0.3,0.1,0.4,0.4,0.5c0.4,0.2,1.1,0,1.4-0.3c0.2-0.2,0.6-0.7,0.5-1
		C251.7,136.9,251.2,136.4,250.9,136.3z"/>
	<path class="st22" d="M273.7,90.3c-1,0.1-2.2,0.4-3.2,0.4c-0.3,0-0.6,0-1,0c-0.7,0.1-1.4,0.2-2.2,0.2c-1.6,0.1-3.2,0.3-4.8,0.6
		c-1.4,0.2-2.8,0.1-4.1,0.3c-0.7,0.1-1.4,0-2.1,0c-0.6,0-1.1,0-1.7,0c-1,0-1.9,0.2-2.9,0.1c-0.7-0.1-1.4,0-2.1,0c-0.5,0-1,0-1.4-0.1
		c-0.3-0.1-0.5-0.2-0.8-0.3c-0.2,0.2-0.2,0.4-0.2,0.7c-0.1,0.7-0.3,1.4-0.5,2.1c-0.4,1.1-1,2.2-1.4,3.3c-0.2,0.4-0.3,0.9-0.5,1.3
		c-0.2,0.5-0.4,0.9-0.6,1.4c-0.3,0.6-0.7,1.3-1,1.9c0.2-0.1,0.5-0.1,0.8-0.2c0.5-0.1,1.1-0.2,1.7-0.1c0.5,0.1,1.1,0.2,1.6,0.3
		c0.7,0.1,1.5,0.2,2.2,0.2c0.9,0.1,1.7-0.1,2.6-0.1c0.7,0,1.3,0,2,0.1c0.7,0,1.4-0.2,2.1-0.2c0.8,0,1.6,0,2.5-0.1
		c0.8-0.1,1.6-0.1,2.4-0.1c0.7,0,1.3,0,2-0.2c0.5-0.1,0.9-0.2,1.4-0.2c0.4,0,0.8-0.1,1.2-0.2c0.4-0.1,0.8-0.1,1.2-0.2
		c0.5,0,0.9-0.1,1.4-0.2c0.4-0.1,0.8-0.2,1.2-0.2c0.2,0,0.5-0.2,0.7-0.1c0.5-0.8,0.8-1.7,1.2-2.6c0.3-0.7,0.6-1.3,0.9-1.9
		c0.2-0.5,0.3-1,0.5-1.5c0.3-0.7,0.5-1.5,0.7-2.2c0.1-0.3,0.2-0.7,0.3-1C273.6,91.2,273.8,90.9,273.7,90.3z"/>
	<g>
		<g>
			<path class="st20" d="M243.7,110.4c-0.4,1.8-0.8,3.5-1.4,5.2c-0.3,0.7-0.6,1.4-0.7,2.2c-0.1,0.4-0.2,0.7-0.3,1
				c-0.1,0.3-0.2,0.6-0.3,0.9"/>
			<path class="st20" d="M247.7,111c-0.2,1.3-0.4,2.4-0.8,3.6c-0.2,0.5-0.3,1-0.5,1.6c-0.2,0.7-0.4,1.5-0.8,2.1
				c-0.2,0.3-0.3,0.7-0.5,1c-0.2,0.3-0.3,0.7-0.5,1"/>
			<path class="st20" d="M251.9,111.5c-0.6,1.9-1.1,3.8-1.7,5.6c-0.2,0.5-0.4,1.1-0.6,1.6c-0.1,0.4-0.2,0.7-0.4,1.1
				c-0.1,0.1-0.3,0.5-0.2,0.6"/>
			<path class="st20" d="M256.8,111.5c-0.6,2.2-1.3,4.4-2,6.6c-0.2,0.6-0.4,1.4-0.7,1.9"/>
			<path class="st20" d="M261.1,111.3c-0.2,1.4-0.5,2.7-1,4c-0.2,0.4-0.3,0.9-0.5,1.3c-0.2,0.6-0.5,1.3-0.8,1.9
				c-0.1,0.3-0.3,0.8-0.5,1.1c-0.1,0.1-0.2,0.1-0.2,0.3"/>
			<path class="st20" d="M265.4,110.7c-0.3,1.2-0.7,2.4-1.2,3.4c-0.3,0.5-0.5,1-0.8,1.6c-0.4,0.9-0.7,1.9-1.2,2.8
				c-0.3,0.5-0.3,0.8-0.8,0.8c-0.8,0-1.6,0.3-2.4,0.4c-0.6,0.1-1.3,0.3-1.9,0.4c-0.8,0.1-1.6,0-2.3,0.1c-1.5,0.2-3.1,0.1-4.6,0.2
				c-0.8,0-1.6,0.1-2.4,0c-0.3,0-0.6,0-1,0c-0.4,0-0.9,0-1.3,0c-0.7,0-1.5,0-2.2-0.1c-0.8-0.1-1.6,0-2.4-0.1
				c-0.6-0.1-1.2-0.1-1.9-0.2c-0.5-0.1-1.1-0.1-1.6-0.1c-0.6,0-1.2,0-1.7-0.2c0.6-1.2,1.2-2.4,1.7-3.6c0.5-1.1,0.8-2.2,1.2-3.3
				c0.3-0.8,0.6-1.6,0.9-2.4c0.1-0.3,0.2-0.7,0.3-1.1c0.1-0.3,0.4-0.1,0.7,0c0.5,0.2,1,0.4,1.6,0.6c0.6,0.2,1.2,0.2,1.9,0.4
				c0.7,0.2,1.5,0.1,2.3,0.2c0.9,0.1,1.8,0.1,2.7,0.3c0.8,0.1,1.5,0.1,2.3,0.2c1,0.2,1.9,0.1,2.9,0.2c0.5,0.1,0.9,0,1.4,0
				c0.5,0,1,0.1,1.5,0.1c0.4,0,0.8-0.1,1.2-0.1c0.5,0,1,0,1.5-0.1c0.3-0.1,0.7-0.1,1-0.1c0.3,0,0.6,0,0.8,0c0.5-0.1,1.1-0.2,1.6-0.3
				c0.5-0.1,0.9-0.1,1.4-0.2c0.2,0,0.4,0,0.6-0.1C265.4,110.5,265.5,110.4,265.4,110.7z"/>
		</g>
	</g>
	<path class="st2" d="M276.9,92.3c0.9,0.3,1.7,0.6,2.5,1.1c-0.1,1-0.3,1.9-0.6,2.9c-0.3,1,0,2.1-0.2,3.1c-0.4,2.2-2.1,4.2-3.6,5.7
		c-1.6,1.7-3.3,3-5.7,3.4c-1.2,0.2-2.5,0.2-3.7,0.3c-1.4,0.1-2.8,0.3-4.3,0.2c-1.9-0.1-3.8-0.2-5.8-0.3c-1.2-0.1-2.5-0.2-3.7-0.4
		c-1-0.2-1.8,0-2.8,0c-1.8,0-4-0.5-5.6,0.5c-1.5,0.9-2.7,2.3-4.2,3.4c-2.9,2.1-6.6,3.3-10.2,3.4c-1.1,0.1-2,0-3.1-0.2
		c-1.4-0.3-2.8-0.5-4-1.1c-1.3-0.5-2.5-1.5-3.7-2.2c-1.5-1-2.7-2.3-4.2-3.2c-1.7-1-3.1-2.2-5-2.9c-1.1-0.4-2.2-0.9-3.3-1.2
		c-1.1-0.3-2.3-0.3-3.5-0.5c-1.6-0.3-3.5-0.4-5,0.3c-1.1,0.5-1.5,1.8-2.4,2.4c-1.4,0.9-3.4,1.3-5,1.4c-1.1,0.1-2.2,0.1-3.3,0.2
		c-1.5,0.1-2.8,0.1-4.2-0.2c-1.3-0.2-2.4-0.1-3.7-0.2c-1.1-0.1-2.2-0.3-3.3-0.5c-2.3-0.5-4.8-0.4-6.9-1.4c-1.3-0.7-2-1.8-2.3-3.2
		c-0.3-1.4-0.5-2.6-1.5-3.7c-1.2-1.2-2.5-1.6-4.1-2c-0.9-0.2-1.8-0.5-2.7-0.4c-1,0.1-2,0.5-3,0.6c-1.2,0.2-2.4,0.2-3.6,0.3
		c-1.2,0.1-2.3,0.4-3.5,0.5c-2,0.3-4.1-0.1-6.1-0.3c-2-0.3-3.4-2-4.8-3.3c1.1,0.4,3,0.9,4,0c-0.8-0.3-1.8-1-2.2-1.7
		c0.7,0,2.2,0.1,2.8-0.4c-0.3-0.4-0.6-0.9-1-1.3c-0.3-0.4-0.7-1-1-1.2c0.6,0.6,2.4,0.4,3.1,0c-0.2-0.4-0.9-0.6-1.2-0.9
		c-0.7-0.6-1.4-1.4-2.1-2.1c0.4,0.4,0.8,0.6,1.3,0.8c0.5,0.2,1.1,0.7,1.7,0.5c0-0.5-0.8-1.2-1.1-1.6c-0.4-0.5-1.2-1.1-1.4-1.6
		c0.9-0.1,2.1,0.6,2.9,0.9c0.9,0.4,2,0.6,3,0.7c2.5,0.1,5.5,0.5,7.8-0.8c1-0.6,1.7-1.4,2.9-1.6c1.5-0.3,3,0.3,4.5,0.4
		c1.7,0.1,3.2,0.6,4.8,1.4c1.6,0.8,2.8,1.9,4,3.2c0.7,0.8,0.9,1.8,1.3,2.7c0.5,1.2,1.4,2.5,2.5,3.3c0.5,0.4,1.3,0.7,1.9,0.9
		c0.7,0.3,1.6,0.5,2.3,0.6c0.6,0.1,1.2,0.1,1.7,0.2c0.7,0.1,1.4,0.4,2,0.5c1.1,0.2,2.2,0.1,3.3,0.1c1.2,0,2.4,0.3,3.6,0.3
		c1.9,0,3.8-0.3,5.6-0.8c2.2-0.6,2.5-3.3,4.4-4.3c0.7-0.4,1.7-0.2,2.4-0.1c1,0.1,2,0.1,3,0.2c1,0.2,2,0.7,2.9,1.1c1,0.4,2,0.6,3,1
		c1,0.3,1.8,0.9,2.7,1.4c0.6,0.3,1.3,0.5,1.9,0.9c1.2,0.8,2.6,1.3,3.9,2.1c1.3,0.8,2.4,1.8,3.7,2.5c0.5,0.3,1.1,0.4,1.7,0.6
		c0.7,0.2,1.3,0.6,2,0.6c2,0.2,4.3,0.3,6.1-0.8c2.7-1.6,5.3-3.1,8.4-3.6c0.7-0.1,1.4-0.2,2.1-0.1c0.8,0.1,1.6,0.3,2.4,0.4
		c1.6,0.2,3.1,0.1,4.7,0.4c2.9,0.5,5.9,1,8.9,1c2.6,0,5.1,0,7.7-0.6c1.7-0.4,3.5-0.9,5.2-1.4c0.8-0.3,1.4-0.5,2.1-0.9
		c0.6-0.3,1.3-0.4,1.9-0.7c0.7-0.3,1.2-0.6,1.3-1.4c0.1-0.6,0.2-1.2,0.4-1.8C276.7,93.2,276.7,92.3,276.9,92.3z"/>
	<path class="st9" d="M168.3,98.2c0.1-2.6,0.3-5.4,1.6-7.6"/>
	<path class="st9" d="M200.2,68.6c0.6-1.9,1.7-3.6,3.2-4.8"/>
	<path class="st9" d="M196.2,101.9c0.1-2.7,0.6-5.4,1.2-8.1"/>
	<path class="st9" d="M244.5,104.1c-1,1.9-1.8,3.9-2.4,5.9"/>
</g>
</svg>
