<?xml version="1.0" encoding="UTF-8" standalone="no"?>
<!-- Created with Inkscape (http://www.inkscape.org/) -->

<svg
   xmlns:dc="http://purl.org/dc/elements/1.1/"
   xmlns:cc="http://creativecommons.org/ns#"
   xmlns:rdf="http://www.w3.org/1999/02/22-rdf-syntax-ns#"
   xmlns:svg="http://www.w3.org/2000/svg"
   xmlns="http://www.w3.org/2000/svg"
   xmlns:sodipodi="http://sodipodi.sourceforge.net/DTD/sodipodi-0.dtd"
   xmlns:inkscape="http://www.inkscape.org/namespaces/inkscape"
   width="58.363041mm"
   height="31.745161mm"
   viewBox="0 0 58.363041 31.745161"
   version="1.1"
   id="svg8952"
   inkscape:version="0.92.5 (2060ec1f9f, 2020-04-08)"
   sodipodi:docname="su2_haar.svg">
  <defs
     id="defs8946" />
  <sodipodi:namedview
     id="base"
     pagecolor="#ffffff"
     bordercolor="#666666"
     borderopacity="1.0"
     inkscape:pageopacity="0.0"
     inkscape:pageshadow="2"
     inkscape:zoom="1.979899"
     inkscape:cx="28.016558"
     inkscape:cy="37.402361"
     inkscape:document-units="mm"
     inkscape:current-layer="layer1"
     showgrid="false"
     inkscape:window-width="1916"
     inkscape:window-height="1036"
     inkscape:window-x="0"
     inkscape:window-y="20"
     inkscape:window-maximized="0" />
  <metadata
     id="metadata8949">
    <rdf:RDF>
      <cc:Work
         rdf:about="">
        <dc:format>image/svg+xml</dc:format>
        <dc:type
           rdf:resource="http://purl.org/dc/dcmitype/StillImage" />
        <dc:title></dc:title>
      </cc:Work>
    </rdf:RDF>
  </metadata>
  <g
     inkscape:label="Layer 1"
     inkscape:groupmode="layer"
     id="layer1"
     transform="translate(-45.227812,-112.06919)">
    <g
       id="g9829"
       transform="matrix(1.3859642,0,0,1.3859642,-17.456315,-55.507187)">
      <g
         id="g3317"
         transform="matrix(0.19242426,0,0,0.19242426,15.376726,103.37256)">
        <path
           d="m 253.8512,112.7962 c 0.0787,1.5424 0.0574,2.7663 -0.0639,3.6715 -0.0828,0.6182 -0.1997,1.17 -0.3509,1.6555 -0.1512,0.4854 -0.3146,0.8814 -0.4904,1.1879 -0.1757,0.3064 -0.3522,0.5203 -0.5294,0.6416 -0.1772,0.1214 -0.3654,0.1496 -0.5647,0.0848 -0.1992,-0.0648 -0.3438,-0.2007 -0.4336,-0.4078 -0.0899,-0.2071 -0.1762,-0.548 -0.2591,-1.0229 -0.0828,-0.4749 -0.1209,-1.1625 -0.1142,-2.063 0.007,-0.9005 0.0482,-1.4969 0.1244,-1.7894 0.0763,-0.2925 0.1179,-0.3955 0.1247,-0.309 0.007,0.0865 0.0239,0.3027 0.0513,0.6486 0.0273,0.3459 0.0316,0.6577 0.0128,0.9354 -0.0187,0.2778 -0.0642,0.565 -0.1364,0.8619 -0.0723,0.2968 -0.217,0.6815 -0.4341,1.154 -0.2172,0.4726 -0.4416,0.8413 -0.6734,1.1064 -0.2318,0.265 -0.4475,0.4251 -0.647,0.4803 -0.1996,0.0552 -0.3838,-0.0539 -0.5528,-0.3274 -0.169,-0.2735 -0.3216,-0.6753 -0.458,-1.2052 -0.1363,-0.5299 -0.262,-1.1037 -0.3771,-1.7214 -0.1151,-0.6178 -0.2323,-1.1859 -0.3517,-1.7045 -0.1194,-0.5185 -0.2402,-0.993 -0.3623,-1.4234 -0.1222,-0.4304 -0.2539,-0.8361 -0.3951,-1.217 -0.1412,-0.381 -0.3405,-0.7665 -0.5978,-1.1566 -0.2574,-0.3901 -0.5078,-0.6268 -0.7514,-0.7101 -0.2436,-0.0833 -0.3716,-0.4215 -0.3841,-1.0148 -0.0125,-0.5933 -0.0964,-0.9627 -0.2517,-1.1084 -0.1553,-0.1457 -0.1608,-0.21 -0.0166,-0.1929 0.1443,0.0171 0.5048,0.0597 1.0818,0.1279 0.5769,0.0682 1.5136,0.1041 2.8101,0.1077 1.2965,0.004 2.3271,0.0319 3.0917,0.0849 0.7647,0.053 1.4174,0.1124 1.9582,0.1782 0.5408,0.0658 1.3089,0.1106 2.3042,0.1343 0.9954,0.0237 2.0471,0.004 3.1551,-0.0598 1.1081,-0.0636 2.0889,-0.0966 2.9426,-0.0991 0.8537,-0.002 1.6189,0.0453 2.2956,0.1433 0.6766,0.0979 1.2935,0.1586 1.8506,0.1821 0.557,0.0235 1.392,0.0354 2.505,0.0356 1.1129,3e-4 2.0387,0.0698 2.7772,0.2087 0.7386,0.139 1.347,0.2224 1.8252,0.2503 0.4782,0.0279 0.9654,-0.0119 1.4617,-0.1194 0.4963,-0.1075 1.1813,-0.1735 2.0549,-0.1981 0.8736,-0.0245 1.5334,-0.0536 1.9792,-0.0872 0.4459,-0.0336 0.8115,-0.051 1.0969,-0.0522 0.2854,-0.001 0.7865,-0.1337 1.5032,-0.3978 0.7168,-0.264 1.1224,-0.4134 1.2168,-0.4482 0.0945,-0.0348 0.1333,-0.0457 0.1165,-0.0327 -0.0167,0.013 -0.0887,0.0688 -0.216,0.1673 -0.1273,0.0986 -0.2806,0.3859 -0.46,0.862 -0.1794,0.4761 -0.3041,0.9323 -0.3742,1.3688 -0.07,0.4365 -0.1639,1.1649 -0.2816,2.1852 -0.1178,1.0204 -0.3205,2.4495 -0.6081,4.2875 -0.2877,1.8379 -0.4549,2.9683 -0.5015,3.391 -0.0467,0.4228 -0.0778,1.6741 -0.0934,3.754 -0.0156,2.0799 -0.0699,3.5122 -0.163,4.2969 -0.0931,0.7847 -0.1641,1.4974 -0.2129,2.1382 -0.0487,0.6407 -0.0738,1.2655 -0.0753,1.8742 -0.001,0.6087 0.0147,1.1422 0.0484,1.6004 0.0338,0.4582 0.0507,1.3085 0.0509,2.5507 1e-4,1.2423 0.0269,2.0507 0.0805,2.4252 0.0535,0.3745 0.1057,0.5958 0.1565,0.6638 0.0508,0.068 0.0782,0.1046 0.0821,0.1099 0.004,0.005 0.001,0.005 -0.009,-0.002 -0.01,-0.007 -0.0786,-0.0542 -0.2061,-0.1423 -0.1274,-0.088 -0.391,-0.1384 -0.7906,-0.1512 -0.3996,-0.0127 -0.607,0.051 -0.6224,0.1911 -0.0154,0.1402 0.0357,0.3007 0.1533,0.4816 0.1175,0.181 0.2379,0.4744 0.3613,0.8805 0.1234,0.4061 0.2084,0.6684 0.2549,0.787 0.0466,0.1185 -0.2532,0.2161 -0.8994,0.2928 -0.6461,0.0766 -1.3174,0.123 -2.0138,0.1391 -0.6963,0.0161 -2.0407,0.0242 -4.0332,0.0243 -1.9924,2e-4 -3.5536,0.0597 -4.6836,0.1786 -1.1299,0.1189 -2.0122,0.1797 -2.647,0.1825 -0.6347,0.003 -1.3827,-0.0669 -2.2439,-0.2089 -0.8612,-0.142 -1.6555,-0.2421 -2.3829,-0.3001 -0.7274,-0.0581 -1.6409,-0.0879 -2.7405,-0.0894 -1.0996,-0.002 -2.2164,0.1018 -3.3506,0.31 -1.1341,0.2082 -1.9722,0.3513 -2.5141,0.4291 -0.5419,0.0779 -1.1314,0.1232 -1.7685,0.1361 -0.6371,0.0129 -1.2885,-0.0355 -1.9541,-0.1451 -0.6656,-0.1096 -1.2253,-0.1589 -1.6789,-0.1481 -0.4536,0.0109 -0.8121,0.1027 -1.0754,0.2753 -0.2634,0.1726 -0.4547,0.4106 -0.5739,0.7141 -0.1192,0.3035 -0.1871,0.4763 -0.2036,0.5184 -0.0166,0.042 -0.0209,0.0385 -0.0131,-0.0107 0.008,-0.0492 0.0397,-0.2512 0.0959,-0.606 0.0563,-0.3547 0.2026,-0.9479 0.439,-1.7794 0.2364,-0.8315 0.4635,-1.6848 0.6815,-2.5598 0.218,-0.875 0.4492,-1.875 0.6936,-3 0.2445,-1.1251 0.4722,-2.2584 0.6831,-3.4 0.211,-1.1416 0.3613,-1.9932 0.4511,-2.5548 0.0897,-0.5616 0.1649,-1.1035 0.2255,-1.6259 0.0605,-0.5223 0.1155,-1.307 0.1649,-2.354 0.0493,-1.047 0.0748,-2.6939 0.0765,-4.9406 0.002,-2.2467 0.0124,-3.5684 0.0321,-3.9652 0.0197,-0.3967 0.0731,-0.9028 0.1602,-1.5181 0.0872,-0.6153 0.1321,-1.1277 0.1347,-1.5372 0.003,-0.4095 -0.0324,-0.7225 -0.1049,-0.9389 -0.0724,-0.2165 -0.1481,-0.3512 -0.227,-0.4042 -0.079,-0.053 -0.1673,0.353 -0.2651,1.218 -0.0978,0.865 -0.1635,1.7033 -0.1972,2.5149 -0.0338,0.8117 -0.0478,2.0304 -0.0421,3.6561 0.006,1.6258 0.064,2.8458 0.1752,3.66 0.1111,0.8143 0.2414,1.5312 0.3909,2.1508 0.1495,0.6195 0.3161,1.1777 0.4999,1.6746 0.1839,0.4968 0.3799,0.9547 0.5883,1.3735 0.2084,0.4189 0.4226,0.7932 0.6428,1.1229 0.2202,0.3297 0.4457,0.6158 0.6764,0.8584 0.2308,0.2426 0.462,0.4402 0.6939,0.5927 0.2318,0.1525 0.4636,0.2615 0.6955,0.3268 0.232,0.0653 0.4791,0.1012 0.7415,0.1077 0.2624,0.007 0.5217,-0.0743 0.7778,-0.2426 0.2561,-0.1683 0.506,-0.4048 0.7497,-0.7094 0.2437,-0.3047 0.4927,-0.6819 0.7469,-1.1316 0.2542,-0.4497 0.4937,-0.9442 0.7185,-1.4834 0.2247,-0.5393 0.641,-1.6135 1.2488,-3.2224 0.6077,-1.6089 1.1126,-2.8942 1.5145,-3.856 0.4018,-0.9617 0.807,-1.8646 1.2154,-2.7085 0.4084,-0.8439 0.8124,-1.5708 1.2121,-2.1808 0.3997,-0.61 0.7684,-1.0801 1.1062,-1.4101 0.3379,-0.3301 0.6339,-0.5304 0.8881,-0.6009 0.2543,-0.0706 0.4785,-0.0452 0.6728,0.076 0.1943,0.1212 0.3457,0.3959 0.4543,0.8241 0.1085,0.4283 0.1882,0.9172 0.2389,1.4669 0.0507,0.5496 0.0841,1.6966 0.1002,3.4409 0.016,1.7442 0.0399,3.1901 0.0715,4.3376 0.0317,1.1475 0.0732,2.0384 0.1244,2.6725 0.0513,0.6342 0.1146,1.2614 0.1901,1.8817 0.0755,0.6203 0.1616,1.2149 0.2583,1.7838 0.0966,0.5689 0.2049,1.0757 0.3248,1.5206 0.1199,0.4448 0.2456,0.8521 0.3772,1.222 0.1316,0.3699 0.3099,0.7546 0.5347,1.1541 0.2249,0.3995 0.3951,0.6348 0.5106,0.7057 0.1155,0.071 0.202,-0.0235 0.2594,-0.2834 0.0575,-0.2599 0.0874,-0.8144 0.0898,-1.6635 0.002,-0.849 0.004,-1.2959 0.004,-1.3406 v -0.0418 l -5e-4,0.0151 c -4e-4,0.0269 -0.005,0.2959 -0.0141,0.8069 -0.009,0.511 -0.009,0.9505 -6e-4,1.3184 0.0121,0.5302 0.4413,1.3356 1.2876,2.4162"
           style="fill:none;stroke:#c6e9f1;stroke-width:24;stroke-linecap:round;stroke-linejoin:round;stroke-miterlimit:10;stroke-dasharray:none;stroke-opacity:0.5"
           id="path3319"
           inkscape:connector-curvature="0" />
      </g>
      <g
         id="g4685"
         transform="matrix(0.19242426,0,0,0.19242426,15.376726,103.37256)">
        <path
           d="m 188.3466,190.1848 c 3.1789,0 6.3578,0 9.5366,0 3.1789,0 6.3578,0 9.5366,0 3.1789,0 6.3578,0 9.5367,0 3.1788,0 6.3577,0 9.5366,0 3.1788,0 6.3577,0 9.5366,0 3.1789,0 6.3577,0 9.5366,0 3.1789,0 6.3577,0 9.5366,0 3.1789,0 6.3578,0 9.5366,0 3.1789,0 6.3578,0 9.5366,0 3.1789,0 6.3578,0 9.5367,0 3.1788,0 6.3577,0 9.5366,0 3.1789,0 6.3577,0 9.5366,0 3.1789,0 6.3578,0 9.5366,0 3.1789,0 6.3578,0 9.5367,0 3.1788,0 6.3577,0 9.5365,0 3.1789,0 6.3578,0 9.5367,0"
           style="fill:none;stroke:#c6e9f1;stroke-width:24;stroke-linecap:round;stroke-linejoin:round;stroke-miterlimit:10;stroke-dasharray:none;stroke-opacity:0.5"
           id="path4687"
           inkscape:connector-curvature="0" />
      </g>
      <g
         id="g3297"
         transform="matrix(0.19242426,0,0,0.19242426,15.376726,103.37256)">
        <path
           d="m 231.6811,93.50925 h 63.5332 V 157.0424 H 231.6811 V 93.50925"
           style="fill:none;stroke:#000000;stroke-width:4.67716503;stroke-linecap:round;stroke-linejoin:round;stroke-miterlimit:10;stroke-dasharray:none;stroke-opacity:1"
           id="path3299"
           inkscape:connector-curvature="0" />
      </g>
      <g
         id="g3301"
         transform="matrix(0.19242426,0,0,0.19242426,15.376726,103.37256)">
        <path
           d="m 157.5035,105.2704 h 70.1796"
           style="fill:none;stroke:#000000;stroke-width:4.67716503;stroke-linecap:round;stroke-linejoin:round;stroke-miterlimit:10;stroke-dasharray:none;stroke-opacity:1"
           id="path3303"
           inkscape:connector-curvature="0" />
      </g>
      <g
         id="g3305"
         transform="matrix(0.19242426,0,0,0.19242426,15.376726,103.37256)">
        <path
           d="m 297.4327,104.2484 h 71.7432"
           style="fill:none;stroke:#000000;stroke-width:4.67716503;stroke-linecap:round;stroke-linejoin:round;stroke-miterlimit:10;stroke-dasharray:none;stroke-opacity:1"
           id="path3307"
           inkscape:connector-curvature="0" />
      </g>
      <g
         id="g3309"
         transform="matrix(0.19242426,0,0,0.19242426,15.376726,103.37256)">
        <path
           d="m 160.1302,142.9441 h 68.8506"
           style="fill:none;stroke:#000000;stroke-width:4.67716503;stroke-linecap:round;stroke-linejoin:round;stroke-miterlimit:10;stroke-dasharray:none;stroke-opacity:1"
           id="path3311"
           inkscape:connector-curvature="0" />
      </g>
      <g
         id="g3313"
         transform="matrix(0.19242426,0,0,0.19242426,15.376726,103.37256)">
        <path
           d="m 297.0731,145.0663 h 74.5263"
           style="fill:none;stroke:#000000;stroke-width:4.67716503;stroke-linecap:round;stroke-linejoin:round;stroke-miterlimit:10;stroke-dasharray:none;stroke-opacity:1"
           id="path3315"
           inkscape:connector-curvature="0" />
      </g>
      <g
         id="g3321"
         transform="matrix(0.19242426,0,0,0.19242426,15.376726,103.37256)">
        <path
           d="m 245.3287,114.3709 c -0.0312,-0.241 -0.1298,-0.4594 -0.2958,-0.6553 -0.1113,-0.1314 -0.2366,-0.2225 -0.3756,-0.2733 -0.1391,-0.0508 -0.3518,-0.0824 -0.6383,-0.0948 -0.2865,-0.0123 -0.5232,-0.0161 -0.7101,-0.0112 -0.1868,0.005 -0.3887,0.029 -0.6055,0.0722 -0.2168,0.0432 -0.4245,0.1005 -0.6231,0.1721 -0.1986,0.0715 -0.3915,0.1494 -0.5786,0.2336 -0.1871,0.0843 -0.3632,0.1749 -0.5283,0.2719 -0.165,0.097 -0.3105,0.1947 -0.4364,0.293 -0.126,0.0983 -0.2346,0.1999 -0.3259,0.3049 -0.0913,0.1049 -0.1649,0.2119 -0.2208,0.3208 -0.0558,0.1089 -0.0956,0.2787 -0.1193,0.5094 -0.0238,0.2306 -0.0333,0.4043 -0.0286,0.5209 0.005,0.1166 0.0592,0.2847 0.1635,0.5042 0.1043,0.2196 0.2582,0.4448 0.4615,0.6756 0.2033,0.2309 0.4588,0.4817 0.7664,0.7524 0.3077,0.2706 0.5932,0.5134 0.8566,0.7282 0.2634,0.2148 0.5033,0.4262 0.7198,0.634 0.2165,0.2079 0.3757,0.3861 0.4776,0.5348 0.1019,0.1486 0.2046,0.3679 0.3079,0.6579 0.1033,0.29 0.166,0.5581 0.188,0.8045 0.0221,0.2463 0.0335,0.5763 0.0342,0.9898 7e-4,0.4136 -0.009,0.6876 -0.0303,0.822 -0.0209,0.1344 -0.0736,0.3149 -0.1581,0.5416 -0.0845,0.2267 -0.1912,0.4564 -0.3201,0.689 -0.129,0.2327 -0.272,0.4408 -0.4289,0.6246 -0.157,0.1837 -0.3769,0.3688 -0.6597,0.5554 -0.2828,0.1866 -0.5408,0.3176 -0.774,0.3931 -0.2332,0.0755 -0.474,0.1244 -0.7223,0.1467 -0.2484,0.0224 -0.5073,0.0346 -0.7769,0.0369 -0.2696,0.002 -0.5457,-0.0327 -0.8284,-0.1046 -0.2828,-0.072 -0.5065,-0.1378 -0.6713,-0.1975 -0.1648,-0.0597 -0.4572,-0.1986 -0.8772,-0.4168 -0.42,-0.2182 -0.7635,-0.413 -1.0304,-0.5845 -0.267,-0.1715 -0.4416,-0.2876 -0.5237,-0.3484 -0.1141,-0.0844 0.0149,-0.1346 0.387,-0.1505"
           style="fill:none;stroke:#000000;stroke-width:2.07873988;stroke-linecap:round;stroke-linejoin:round;stroke-miterlimit:10;stroke-dasharray:none;stroke-opacity:1"
           id="path3323"
           inkscape:connector-curvature="0" />
      </g>
      <g
         id="g3325"
         transform="matrix(0.19242426,0,0,0.19242426,15.376726,103.37256)">
        <path
           d="m 250.6276,115.6365 c -0.01,-0.1524 -0.015,-0.2338 -0.0157,-0.2441 -5e-4,-0.007 -0.002,-5e-4 -0.005,0.0202 -0.003,0.0206 -0.022,0.1416 -0.0563,0.3629 -0.0343,0.2212 -0.0739,0.527 -0.1189,0.9172 -0.0449,0.3903 -0.0776,0.8452 -0.0981,1.3649 -0.0205,0.5197 -0.0317,1.045 -0.0338,1.576 -0.002,0.5309 0.002,1.0362 0.0132,1.5159 0.0109,0.4796 0.0556,0.9336 0.1342,1.3622 0.0785,0.4285 0.1666,0.7922 0.2643,1.091 0.0976,0.2987 0.2134,0.5647 0.3473,0.798 0.134,0.2333 0.2735,0.4322 0.4184,0.5966 0.145,0.1644 0.29,0.2934 0.4348,0.3869 0.1448,0.0936 0.3001,0.1581 0.4659,0.1937 0.1657,0.0356 0.338,0.0527 0.5169,0.0514 0.1789,-0.001 0.3579,-0.0595 0.5369,-0.1745 0.179,-0.115 0.369,-0.2824 0.5701,-0.5022 0.2012,-0.2198 0.4028,-0.4892 0.6049,-0.8081 0.2021,-0.3189 0.3895,-0.6534 0.5622,-1.0036 0.1727,-0.3501 0.3329,-0.7404 0.4805,-1.1707 0.1476,-0.4304 0.2626,-0.8549 0.345,-1.2736 0.0824,-0.4187 0.1336,-0.918 0.1534,-1.4978 0.0199,-0.5799 0.0171,-1.0391 -0.009,-1.3777 -0.0256,-0.3386 -0.0694,-0.6639 -0.1314,-0.9759 -0.062,-0.312 -0.1343,-0.6045 -0.2171,-0.8775 -0.0828,-0.2729 -0.15,-0.4654 -0.2018,-0.5774 -0.0517,-0.112 -0.0704,-0.1638 -0.0561,-0.1554 0.0205,0.0121 0.0848,0.05 0.193,0.1138"
           style="fill:none;stroke:#000000;stroke-width:2.07873988;stroke-linecap:round;stroke-linejoin:round;stroke-miterlimit:10;stroke-dasharray:none;stroke-opacity:1"
           id="path3327"
           inkscape:connector-curvature="0" />
      </g>
      <g
         id="g3329"
         transform="matrix(0.19242426,0,0,0.19242426,15.376726,103.37256)">
        <path
           d="m 265.4258,111.9783 c -0.2238,-0.1997 -0.4624,-0.1439 -0.7157,0.1674 -0.1799,0.221 -0.3157,0.41 -0.4075,0.5671 -0.0919,0.1571 -0.2365,0.4437 -0.4338,0.8596 -0.1974,0.416 -0.4056,0.9252 -0.6248,1.5275 -0.2192,0.6024 -0.3833,1.0962 -0.4923,1.4816 -0.109,0.3853 -0.2421,0.9253 -0.3993,1.62 -0.1573,0.6947 -0.2831,1.3795 -0.3775,2.0542 -0.0945,0.6748 -0.1593,1.3454 -0.1946,2.0116 -0.0352,0.6662 -0.0546,1.3066 -0.0582,1.9212 -0.004,0.6145 0.0179,1.1502 0.0643,1.607 0.0464,0.4568 0.1241,0.8827 0.2333,1.2778 0.1092,0.3951 0.2295,0.7428 0.3609,1.0432 0.1314,0.3003 0.2609,0.559 0.3884,0.776 0.1275,0.2171 0.2555,0.3996 0.3838,0.5476 0.1284,0.148 0.2586,0.2705 0.3907,0.3673 0.1321,0.0968 0.2675,0.1714 0.4061,0.2237 0.1387,0.0524 0.2961,0.0836 0.4723,0.0938 0.2535,0.0146 0.6777,-0.1773 1.2727,-0.5755"
           style="fill:none;stroke:#000000;stroke-width:2.07873988;stroke-linecap:round;stroke-linejoin:round;stroke-miterlimit:10;stroke-dasharray:none;stroke-opacity:1"
           id="path3331"
           inkscape:connector-curvature="0" />
      </g>
      <g
         id="g3333"
         transform="matrix(0.19242426,0,0,0.19242426,15.376726,103.37256)">
        <path
           d="m 271.2114,118.0509 c -0.0483,-0.5032 -0.008,-0.8911 0.1197,-1.1639 0.0879,-0.187 0.1921,-0.3554 0.3128,-0.5054 0.1206,-0.1499 0.2232,-0.2635 0.3079,-0.3409 0.0846,-0.0773 0.2043,-0.1559 0.3591,-0.2358 0.1548,-0.0799 0.3601,-0.1334 0.616,-0.1604 0.2558,-0.0271 0.4614,-0.025 0.6168,0.006 0.1554,0.0311 0.3074,0.092 0.4562,0.1826 0.1488,0.0907 0.2766,0.1985 0.3832,0.3234 0.1067,0.1249 0.1943,0.2642 0.2627,0.4177 0.0685,0.1536 0.1135,0.3365 0.1351,0.5487 0.0216,0.2122 0.0181,0.452 -0.0105,0.7193 -0.0285,0.2672 -0.1094,0.5603 -0.2426,0.879 -0.1332,0.3187 -0.2877,0.6367 -0.4633,0.954 -0.1757,0.3173 -0.3663,0.6379 -0.5721,0.9616 -0.2057,0.3237 -0.4178,0.6429 -0.6364,0.9574 -0.2185,0.3145 -0.4328,0.6048 -0.6428,0.8708 -0.21,0.2661 -0.4196,0.5166 -0.6287,0.7515 -0.2092,0.2349 -0.4442,0.4762 -0.705,0.7238 -0.2609,0.2477 -0.4306,0.3966 -0.5092,0.4467 -0.0787,0.0502 -0.121,0.0772 -0.127,0.081 -0.006,0.004 -10e-5,0.003 0.0176,-0.003 0.0178,-0.006 0.143,-0.0458 0.3758,-0.1204 0.2328,-0.0746 0.4689,-0.1223 0.7082,-0.143 0.2393,-0.0207 0.7471,-0.0317 1.5231,-0.0331 0.7761,-10e-4 1.3911,0.0147 1.8451,0.0481 0.454,0.0334 0.9681,0.0935 1.5425,0.1801 0.5744,0.0866 0.9692,0.1364 1.1842,0.1493 0.3155,0.0188 0.6271,-0.0906 0.9349,-0.3283"
           style="fill:none;stroke:#000000;stroke-width:2.07873988;stroke-linecap:round;stroke-linejoin:round;stroke-miterlimit:10;stroke-dasharray:none;stroke-opacity:1"
           id="path3335"
           inkscape:connector-curvature="0" />
      </g>
      <g
         id="g3337"
         transform="matrix(0.19242426,0,0,0.19242426,15.376726,103.37256)">
        <path
           d="m 281.5784,112.5445 c -0.1776,-0.1786 -0.247,-0.262 -0.2083,-0.2502 0.0276,0.008 0.0966,0.0295 0.207,0.0632 0.1104,0.0337 0.3576,0.2479 0.7415,0.6427 0.384,0.3948 0.7176,0.7561 1.0008,1.0839 0.2832,0.3278 0.5668,0.6746 0.8509,1.0403 0.2841,0.3658 0.5529,0.7491 0.8064,1.1499 0.2534,0.4007 0.4734,0.8114 0.6598,1.2321 0.1864,0.4206 0.3283,0.8579 0.4257,1.3117 0.0973,0.4538 0.1533,0.92 0.168,1.3984 0.0146,0.4785 -7e-4,0.9631 -0.046,1.4539 -0.0452,0.4907 -0.1328,0.9796 -0.2628,1.4667 -0.13,0.4871 -0.2795,0.9682 -0.4487,1.4435 -0.1692,0.4752 -0.3434,0.9293 -0.5226,1.3623 -0.1792,0.4331 -0.3534,0.8254 -0.5226,1.1771 -0.1692,0.3517 -0.3274,0.6699 -0.4747,0.9544 -0.1473,0.2845 -0.3315,0.6131 -0.5527,0.9857 -0.2212,0.3726 -0.2751,0.7289 -0.1618,1.069"
           style="fill:none;stroke:#000000;stroke-width:2.07873988;stroke-linecap:round;stroke-linejoin:round;stroke-miterlimit:10;stroke-dasharray:none;stroke-opacity:1"
           id="path3339"
           inkscape:connector-curvature="0" />
      </g>
      <g
         id="g3521"
         transform="matrix(0.19242426,0,0,0.19242426,15.376726,103.37256)">
        <path
           d="m 241.6835,137.0725 c -0.003,-0.1154 -0.0736,-0.1897 -0.2116,-0.223 -0.0957,-0.0231 -0.2165,-0.0324 -0.3625,-0.0279 -0.1459,0.004 -0.2817,0.0359 -0.4073,0.0944 -0.1256,0.0585 -0.256,0.1424 -0.3912,0.2517 -0.1351,0.1093 -0.2385,0.2077 -0.3102,0.2953 -0.0717,0.0875 -0.175,0.2544 -0.3101,0.5007 -0.1351,0.2463 -0.2347,0.445 -0.2987,0.5962 -0.0641,0.1512 -0.1236,0.3088 -0.1787,0.4729 -0.0551,0.164 -0.1218,0.4147 -0.2002,0.752 -0.0784,0.3373 -0.1283,0.685 -0.1497,1.0429 -0.0214,0.3579 -0.0324,0.637 -0.033,0.8373 -6e-4,0.2004 0.01,0.4054 0.0304,0.6151 0.021,0.2097 0.0506,0.418 0.089,0.6248 0.0383,0.2068 0.0876,0.4199 0.1477,0.6392 0.0602,0.2192 0.1257,0.4124 0.1966,0.5794 0.0709,0.1671 0.1524,0.3175 0.2444,0.4513 0.092,0.1339 0.1975,0.2501 0.3164,0.3488 0.119,0.0987 0.2431,0.1854 0.3724,0.2602 0.1292,0.0748 0.3328,0.1673 0.6106,0.2774 0.2777,0.1102 0.5542,0.2005 0.8292,0.2709 0.275,0.0703 0.5411,0.1113 0.7983,0.1228 0.2571,0.0115 0.4514,0.005 0.5827,-0.0188 0.1314,-0.0241 0.2623,-0.0717 0.3928,-0.1429 0.1305,-0.0712 0.261,-0.1548 0.3914,-0.2511 0.1305,-0.0962 0.2547,-0.2038 0.3727,-0.3229 0.118,-0.1191 0.2316,-0.247 0.3407,-0.3837 0.1092,-0.1367 0.2098,-0.2787 0.3018,-0.426 0.092,-0.1473 0.1751,-0.3009 0.2492,-0.4608 0.0741,-0.1598 0.1391,-0.3248 0.1952,-0.4948 0.0561,-0.17 0.1012,-0.3463 0.1355,-0.5287 0.0342,-0.1825 0.062,-0.4667 0.0832,-0.8525 0.0212,-0.3858 0.0321,-0.679 0.0326,-0.8796 6e-4,-0.2006 -0.007,-0.3917 -0.0234,-0.5735 -0.0162,-0.1817 -0.0432,-0.3587 -0.0811,-0.5309 -0.0379,-0.1722 -0.083,-0.3401 -0.1355,-0.5037 -0.0524,-0.1636 -0.1137,-0.316 -0.1839,-0.4571 -0.0701,-0.1411 -0.1492,-0.2735 -0.2374,-0.3971 -0.0881,-0.1236 -0.1833,-0.2399 -0.2857,-0.349 -0.1023,-0.1091 -0.2154,-0.2137 -0.3391,-0.3137 -0.1238,-0.1 -0.2568,-0.1951 -0.399,-0.2853 -0.1421,-0.0902 -0.289,-0.1723 -0.4407,-0.2463 -0.1516,-0.0739 -0.4218,-0.181 -0.8104,-0.3212 -0.3887,-0.1403 -0.6486,-0.2272 -0.7799,-0.2609 -0.1933,-0.0495 -0.3343,-0.0235 -0.4233,0.078"
           style="fill:none;stroke:#000000;stroke-width:2.07873988;stroke-linecap:round;stroke-linejoin:round;stroke-miterlimit:10;stroke-dasharray:none;stroke-opacity:1"
           id="path3523"
           inkscape:connector-curvature="0" />
      </g>
      <g
         id="g3525"
         transform="matrix(0.19242426,0,0,0.19242426,15.376726,103.37256)">
        <path
           d="m 239.4113,140.2119 c -0.0293,0.1623 0.0345,0.2857 0.1912,0.3704 0.1568,0.0847 0.2948,0.1491 0.414,0.1934 0.1193,0.0443 0.3274,0.0952 0.6246,0.1526 0.2971,0.0574 0.6243,0.0896 0.9817,0.0964 0.3574,0.007 0.7105,-0.0177 1.0593,-0.0735 0.3489,-0.0558 0.639,-0.0918 0.8704,-0.1079 0.2313,-0.0161 0.3871,-0.0223 0.4673,-0.0186 0.1144,0.005 0.3279,0.2049 0.6403,0.5991"
           style="fill:none;stroke:#000000;stroke-width:2.07873988;stroke-linecap:round;stroke-linejoin:round;stroke-miterlimit:10;stroke-dasharray:none;stroke-opacity:1"
           id="path3527"
           inkscape:connector-curvature="0" />
      </g>
      <g
         id="g3529"
         transform="matrix(0.19242426,0,0,0.19242426,15.376726,103.37256)">
        <path
           d="m 248.8523,144.7268 c 0.054,0.1113 0.0834,0.2646 0.0882,0.4599 0.005,0.1954 0.003,0.3462 -0.006,0.4526 -0.009,0.1064 -0.0304,0.2225 -0.0654,0.3484 -0.035,0.1259 -0.0986,0.2916 -0.1908,0.497 -0.0921,0.2055 -0.1783,0.3783 -0.2584,0.5184 -0.1161,0.2031 -0.3003,0.5697 -0.5527,1.0999"
           style="fill:none;stroke:#000000;stroke-width:2.07873988;stroke-linecap:round;stroke-linejoin:round;stroke-miterlimit:10;stroke-dasharray:none;stroke-opacity:1"
           id="path3531"
           inkscape:connector-curvature="0" />
      </g>
      <g
         id="g3533"
         transform="matrix(0.19242426,0,0,0.19242426,15.376726,103.37256)">
        <path
           d="m 257.9435,139.9404 c 0.0532,-0.136 0.0826,-0.211 0.0881,-0.2252 0.004,-0.01 0.005,-0.005 0.004,0.0141 -10e-4,0.0195 -0.007,0.0974 -0.0179,0.2339 -0.0104,0.1364 -0.0483,0.4542 -0.1136,0.9532 -0.0653,0.4991 -0.1035,0.8947 -0.1147,1.1869 -0.0112,0.2923 -0.0155,0.6587 -0.0129,1.0994 0.003,0.4406 0.0327,0.7382 0.0904,0.8928 0.0576,0.1546 0.1237,0.2778 0.1981,0.3696 0.0745,0.0918 0.1598,0.1602 0.256,0.205 0.0962,0.0448 0.2021,0.072 0.3176,0.0816 0.1156,0.01 0.2297,0.008 0.3424,-0.003 0.1127,-0.0118 0.2334,-0.0564 0.3621,-0.134 0.1286,-0.0775 0.2561,-0.1667 0.3826,-0.2674 0.1264,-0.1006 0.2465,-0.2108 0.3603,-0.3303 0.1138,-0.1196 0.2207,-0.2458 0.3209,-0.3787 0.1001,-0.1329 0.19,-0.2651 0.2696,-0.3968 0.0797,-0.1317 0.1839,-0.3448 0.3125,-0.6394 0.1286,-0.2946 0.1947,-0.4092 0.1984,-0.3437 0.004,0.0655 0.0128,0.2292 0.0274,0.4911 0.0147,0.2619 0.0348,0.467 0.0604,0.6153 0.0256,0.1482 0.0597,0.2801 0.1023,0.3954 0.0426,0.1154 0.0966,0.2152 0.162,0.2993 0.0653,0.0841 0.1418,0.1488 0.2295,0.1941 0.0876,0.0454 0.1902,0.0722 0.3078,0.0806 0.1175,0.008 0.2451,0.003 0.3828,-0.0168 0.1378,-0.0195 0.2722,-0.0647 0.4033,-0.1354 0.1312,-0.0707 0.2563,-0.1579 0.3754,-0.2617 0.119,-0.1038 0.2307,-0.2176 0.3352,-0.3413 0.1045,-0.1237 0.2044,-0.2585 0.2998,-0.4045 0.0953,-0.1461 0.1826,-0.297 0.2618,-0.4529 0.0792,-0.156 0.1409,-0.3187 0.1851,-0.4883 0.0442,-0.1697 0.0704,-0.3495 0.0786,-0.5396 0.008,-0.1901 0.005,-0.3799 -0.0107,-0.5695 -0.0154,-0.1896 -0.0625,-0.3786 -0.1414,-0.5668 -0.0788,-0.1883 -0.1646,-0.3504 -0.2574,-0.4863 -0.0929,-0.136 -0.1845,-0.2451 -0.2748,-0.3275 -0.0904,-0.0823 -0.1745,-0.1378 -0.2522,-0.1664 -0.1113,-0.0409 -0.218,0.008 -0.32,0.1455"
           style="fill:none;stroke:#000000;stroke-width:2.07873988;stroke-linecap:round;stroke-linejoin:round;stroke-miterlimit:10;stroke-dasharray:none;stroke-opacity:1"
           id="path3535"
           inkscape:connector-curvature="0" />
      </g>
      <g
         id="g3537"
         transform="matrix(0.19242426,0,0,0.19242426,15.376726,103.37256)">
        <path
           d="m 268.5952,143.6249 c 0.0483,0.087 0.0173,0.3412 -0.093,0.7626 -0.0669,0.2555 -0.1393,0.4715 -0.2174,0.648 -0.0781,0.1765 -0.1778,0.3544 -0.2992,0.5337 -0.1214,0.1794 -0.263,0.3633 -0.425,0.5518 -0.162,0.1885 -0.4204,0.4573 -0.7753,0.8065 -0.5617,0.5528 -0.9608,0.9753 -1.1973,1.2676"
           style="fill:none;stroke:#000000;stroke-width:2.07873988;stroke-linecap:round;stroke-linejoin:round;stroke-miterlimit:10;stroke-dasharray:none;stroke-opacity:1"
           id="path3539"
           inkscape:connector-curvature="0" />
      </g>
      <g
         id="g3541"
         transform="matrix(0.19242426,0,0,0.19242426,15.376726,103.37256)">
        <path
           d="m 279.4933,140.0579 c -0.2372,-0.2473 -0.4346,-0.4101 -0.5921,-0.4885 -0.1082,-0.0538 -0.244,-0.0775 -0.4075,-0.0712 -0.1635,0.006 -0.2941,0.0521 -0.3917,0.1374 -0.0976,0.0852 -0.1961,0.2072 -0.2956,0.3659 -0.0995,0.1587 -0.1947,0.3352 -0.2858,0.5293 -0.091,0.1941 -0.1712,0.3976 -0.2404,0.6105 -0.0693,0.2129 -0.1259,0.4293 -0.1701,0.6491 -0.0441,0.2199 -0.0741,0.4274 -0.09,0.6225 -0.0159,0.1952 -0.0246,0.3878 -0.0262,0.5779 -0.002,0.19 0.006,0.3633 0.0217,0.5198 0.0161,0.1565 0.0593,0.2929 0.1296,0.4091 0.0703,0.1162 0.1634,0.217 0.2792,0.3025 0.1159,0.0855 0.2487,0.1522 0.3987,0.2002 0.1499,0.048 0.3092,0.0808 0.4779,0.0983 0.1686,0.0175 0.3525,0.0272 0.5516,0.0289 0.1992,0.002 0.3941,-0.0233 0.5848,-0.0754 0.1908,-0.052 0.3682,-0.1213 0.5323,-0.208 0.1641,-0.0867 0.3236,-0.1948 0.4784,-0.3244 0.1547,-0.1296 0.2905,-0.2741 0.4071,-0.4335 0.1166,-0.1593 0.2213,-0.3233 0.3141,-0.492 0.0928,-0.1687 0.172,-0.3449 0.2376,-0.5285 0.0655,-0.1836 0.1159,-0.3655 0.1511,-0.5455 0.0352,-0.1801 0.0564,-0.3599 0.0638,-0.5396 0.007,-0.1797 -6e-4,-0.3549 -0.0237,-0.5256 -0.0231,-0.1707 -0.0745,-0.3359 -0.1541,-0.4956 -0.0796,-0.1596 -0.174,-0.306 -0.2831,-0.4391 -0.1091,-0.133 -0.2259,-0.2444 -0.3504,-0.3341 -0.1244,-0.0897 -0.2578,-0.153 -0.4,-0.19 -0.1422,-0.037 -0.2811,-0.0573 -0.4165,-0.061 -0.1354,-0.004 -0.2629,0.002 -0.3823,0.0168 -0.1725,0.0215 -0.3899,0.1736 -0.6521,0.4563"
           style="fill:none;stroke:#000000;stroke-width:2.07873988;stroke-linecap:round;stroke-linejoin:round;stroke-miterlimit:10;stroke-dasharray:none;stroke-opacity:1"
           id="path3543"
           inkscape:connector-curvature="0" />
      </g>
      <g
         id="g3545"
         transform="matrix(0.19242426,0,0,0.19242426,15.376726,103.37256)">
        <path
           d="m 281.473,134.929 c -0.1473,0.2998 -0.3028,0.837 -0.4666,1.6116 -0.1638,0.7746 -0.3049,1.4091 -0.4233,1.9035 -0.1184,0.4944 -0.246,1.0107 -0.3829,1.549 -0.1368,0.5383 -0.3433,1.3202 -0.6195,2.3457 -0.2761,1.0256 -0.4921,1.8813 -0.648,2.5671 -0.1558,0.6859 -0.2692,1.2481 -0.3402,1.6868 -0.1105,0.6822 -0.1853,1.2258 -0.2245,1.6307"
           style="fill:none;stroke:#000000;stroke-width:2.07873988;stroke-linecap:round;stroke-linejoin:round;stroke-miterlimit:10;stroke-dasharray:none;stroke-opacity:1"
           id="path3547"
           inkscape:connector-curvature="0" />
      </g>
      <g
         id="g3889"
         transform="matrix(0.19242426,0,0,0.19242426,15.376726,103.37256)">
        <path
           d="m 192.7559,189.9571 c -0.3637,-0.4985 -0.7037,-0.8351 -1.0201,-1.01 -0.2167,-0.1197 -0.5509,-0.2007 -1.0026,-0.2428 -0.4518,-0.0422 -0.7652,-0.0319 -0.9402,0.0308 -0.1751,0.0627 -0.3544,0.208 -0.538,0.4358 -0.1836,0.2278 -0.354,0.5053 -0.5111,0.8323 -0.1572,0.327 -0.3007,0.697 -0.4305,1.1101 -0.1297,0.413 -0.2383,0.8336 -0.3256,1.2618 -0.0873,0.4282 -0.1481,0.9825 -0.1822,1.6629 -0.0342,0.6804 -0.0142,1.1459 0.0598,1.3965 0.0741,0.2506 0.178,0.4678 0.3118,0.6516 0.1339,0.1838 0.3681,0.3582 0.7026,0.5233 0.3345,0.165 0.6882,0.256 1.0612,0.2729 0.373,0.0168 0.7413,-0.1326 1.105,-0.4482 0.3637,-0.3157 0.721,-0.803 1.072,-1.4619 0.3509,-0.6589 0.6805,-1.4644 0.9886,-2.4165 0.3082,-0.952 0.5972,-1.976 0.867,-3.0718 0.2699,-1.0959 0.5127,-2.1442 0.7286,-3.145 0.2159,-1.0007 0.3912,-1.9007 0.5259,-2.7 0.1346,-0.7992 0.2032,-1.3459 0.2058,-1.6401 0.003,-0.2941 0.004,-0.4505 0.004,-0.4691 2e-4,-0.0186 -0.009,0.0149 -0.0263,0.1006 -0.0177,0.0857 -0.1665,0.8059 -0.4463,2.1605 -0.2798,1.3547 -0.4854,2.3819 -0.6167,3.0817 -0.1314,0.6999 -0.2346,1.3742 -0.3097,2.0229 -0.0751,0.6487 -0.1326,1.2303 -0.1723,1.745 -0.0397,0.5146 -0.0618,1.2763 -0.0662,2.2851 -0.004,1.0088 0.0371,1.7059 0.1246,2.0912 0.0875,0.3853 0.2377,0.7148 0.4505,0.9885 0.3118,0.401 0.8115,0.8153 1.499,1.243"
           style="fill:none;stroke:#000000;stroke-width:2.07873988;stroke-linecap:round;stroke-linejoin:round;stroke-miterlimit:10;stroke-dasharray:none;stroke-opacity:1"
           id="path3891"
           inkscape:connector-curvature="0" />
      </g>
      <g
         id="g3893"
         transform="matrix(0.19242426,0,0,0.19242426,15.376726,103.37256)">
        <path
           d="m 196.8225,209.1184 c 0.3271,-0.4653 0.6313,-1.0327 0.9126,-1.7024 0.185,-0.4404 0.3746,-0.9936 0.5687,-1.6594 0.1942,-0.6659 0.3755,-1.3776 0.544,-2.1353 0.1686,-0.7576 0.3463,-1.6381 0.5331,-2.6414 0.1869,-1.0034 0.3732,-1.9479 0.5591,-2.8337 0.1858,-0.8858 0.4547,-2.0453 0.8066,-3.4785 0.352,-1.4332 0.56,-2.3992 0.6242,-2.898 0.0642,-0.4988 0.0982,-0.7634 0.1021,-0.7938 0.004,-0.0304 0.006,-0.006 0.006,0.0723 0,0.0787 0,0.7634 0,2.0541 0,1.2908 0.0149,2.048 0.0447,2.2715 0.0297,0.2236 0.1243,0.4928 0.2838,0.8078 0.1594,0.3149 0.3647,0.5633 0.616,0.745 0.2512,0.1817 0.5234,0.3213 0.8164,0.4187 0.2931,0.0974 0.5733,0.1535 0.8408,0.1684 0.2674,0.0148 0.5105,-0.0666 0.7294,-0.2444 0.2188,-0.1778 0.4348,-0.4545 0.648,-0.8304 0.2131,-0.3758 0.4599,-0.9655 0.7401,-1.7692 0.2803,-0.8037 0.4902,-1.4983 0.6296,-2.0838 0.1394,-0.5854 0.2342,-1.0506 0.2844,-1.3955 0.0503,-0.345 0.077,-0.5285 0.0803,-0.5506 0.003,-0.022 0.005,-0.01 0.005,0.0364 0,0.0463 0,0.4313 0,1.1551 0,0.7239 0.032,1.2744 0.096,1.6515 0.0639,0.3772 0.1465,0.669 0.2475,0.8754 0.1011,0.2063 0.2889,0.3928 0.5633,0.5593 0.2744,0.1666 0.5802,0.2869 0.9173,0.361 0.5019,0.1103 1.0438,0.1671 1.6256,0.1706"
           style="fill:none;stroke:#000000;stroke-width:2.07873988;stroke-linecap:round;stroke-linejoin:round;stroke-miterlimit:10;stroke-dasharray:none;stroke-opacity:1"
           id="path3895"
           inkscape:connector-curvature="0" />
      </g>
      <g
         id="g3897"
         transform="matrix(0.19242426,0,0,0.19242426,15.376726,103.37256)">
        <path
           d="m 214.2872,193.9648 c -0.3627,0.2768 -0.5523,0.4215 -0.5689,0.4342 -0.0117,0.009 -0.007,0.0117 0.0151,0.008 0.0218,-0.003 0.2035,-0.03 0.5452,-0.0804 0.3417,-0.0504 0.5733,-0.0392 0.6948,0.0335 0.1215,0.0728 0.2343,0.2571 0.3384,0.5532 0.1041,0.296 0.1631,0.6993 0.1772,1.2099 0.0141,0.5105 0,0.8942 -0.0421,1.1511 -0.0421,0.2569 -0.2026,0.6201 -0.4814,1.0895 -0.2788,0.4694 -0.6069,0.8645 -0.9844,1.1854 -0.3774,0.3208 -0.7367,0.5155 -1.078,0.5843 -0.3413,0.0687 -0.4849,0.1129 -0.4307,0.1325 0.0543,0.0196 0.1899,0.0687 0.4068,0.1472 0.217,0.0784 0.6572,0.1201 1.3207,0.1249 0.6636,0.005 1.2915,-0.0379 1.8838,-0.1281 0.9005,-0.137 1.6499,-0.3718 2.2481,-0.7041"
           style="fill:none;stroke:#000000;stroke-width:2.07873988;stroke-linecap:round;stroke-linejoin:round;stroke-miterlimit:10;stroke-dasharray:none;stroke-opacity:1"
           id="path3899"
           inkscape:connector-curvature="0" />
      </g>
      <g
         id="g3901"
         transform="matrix(0.19242426,0,0,0.19242426,15.376726,103.37256)">
        <path
           d="m 225.1943,191.0522 c 0.6343,-0.0265 1.213,-0.0906 1.7359,-0.1924 0.5068,-0.0986 1.5801,-0.4052 3.2199,-0.92"
           style="fill:none;stroke:#000000;stroke-width:2.07873988;stroke-linecap:round;stroke-linejoin:round;stroke-miterlimit:10;stroke-dasharray:none;stroke-opacity:1"
           id="path3903"
           inkscape:connector-curvature="0" />
      </g>
      <g
         id="g3905"
         transform="matrix(0.19242426,0,0,0.19242426,15.376726,103.37256)">
        <path
           d="m 227.269,192.8515 c -0.3679,0.0204 -0.559,0.0311 -0.5734,0.0319 l -0.002,1e-4 0.0806,-0.005 c 0.0886,-0.006 1.267,-0.0796 3.5351,-0.222"
           style="fill:none;stroke:#000000;stroke-width:2.07873988;stroke-linecap:round;stroke-linejoin:round;stroke-miterlimit:10;stroke-dasharray:none;stroke-opacity:1"
           id="path3907"
           inkscape:connector-curvature="0" />
      </g>
      <g
         id="g3909"
         transform="matrix(0.19242426,0,0,0.19242426,15.376726,103.37256)">
        <path
           d="m 244.8826,187.4659 c 0.0503,-0.2043 -0.1095,-0.495 -0.4794,-0.8723 -0.2424,-0.2472 -0.5394,-0.4043 -0.8911,-0.4712 -0.3516,-0.0669 -0.6537,-0.0911 -0.9061,-0.0728 -0.2525,0.0183 -0.6347,0.215 -1.1466,0.5901 -0.5119,0.375 -0.86,0.6791 -1.0443,0.9122 -0.1842,0.2331 -0.3439,0.477 -0.4788,0.7318 -0.1349,0.2548 -0.2207,0.6497 -0.2574,1.1847 -0.0366,0.535 -0.008,0.9415 0.0858,1.2197 0.0939,0.2781 0.3053,0.6481 0.6341,1.1099 0.3289,0.4619 0.7751,0.9489 1.3387,1.461 0.5635,0.5122 0.9269,0.875 1.0903,1.0886 0.1633,0.2135 0.2488,0.4245 0.2567,0.633 0.008,0.2085 -0.1696,0.4236 -0.5322,0.6453 -0.3626,0.2216 -0.7936,0.3843 -1.293,0.4881 -0.4995,0.1037 -1.0074,0.1523 -1.5238,0.1458 -0.5165,-0.007 -0.8113,-0.1101 -0.8847,-0.3106 -0.1043,-0.2852 0.2243,-0.7273 0.9858,-1.3263"
           style="fill:none;stroke:#000000;stroke-width:2.07873988;stroke-linecap:round;stroke-linejoin:round;stroke-miterlimit:10;stroke-dasharray:none;stroke-opacity:1"
           id="path3911"
           inkscape:connector-curvature="0" />
      </g>
      <g
         id="g3913"
         transform="matrix(0.19242426,0,0,0.19242426,15.376726,103.37256)">
        <path
           d="m 248.0102,189.4122 c -0.2216,0.172 -0.3471,0.5349 -0.3765,1.0887 -0.0294,0.5537 -0.0392,1.3559 -0.0296,2.4066 0.01,1.0506 0.0409,1.6982 0.094,1.9428 0.053,0.2445 0.1355,0.4419 0.2474,0.592 0.1119,0.1501 0.3814,0.2345 0.8084,0.253 0.6169,0.0267 1.2738,-0.3715 1.9706,-1.1945"
           style="fill:none;stroke:#000000;stroke-width:2.07873988;stroke-linecap:round;stroke-linejoin:round;stroke-miterlimit:10;stroke-dasharray:none;stroke-opacity:1"
           id="path3915"
           inkscape:connector-curvature="0" />
      </g>
      <g
         id="g3917"
         transform="matrix(0.19242426,0,0,0.19242426,15.376726,103.37256)">
        <path
           d="m 252.896,182.5813 c -0.2744,-0.2442 -0.4703,-0.2932 -0.5876,-0.147 -0.1176,0.1465 0.1247,0.4909 0.7269,1.033"
           style="fill:none;stroke:#000000;stroke-width:2.07873988;stroke-linecap:round;stroke-linejoin:round;stroke-miterlimit:10;stroke-dasharray:none;stroke-opacity:1"
           id="path3919"
           inkscape:connector-curvature="0" />
      </g>
      <g
         id="g3921"
         transform="matrix(0.19242426,0,0,0.19242426,15.376726,103.37256)">
        <path
           d="m 254.6044,189.5225 c -0.2037,0.0198 -0.3642,0.6766 -0.4815,1.9703 -0.1173,1.2938 -0.2466,2.4315 -0.3879,3.4131 -0.1414,0.9817 -0.2287,1.5534 -0.262,1.7153 -0.0334,0.1619 -0.0514,0.2493 -0.0541,0.2624 l -0.001,0.006 0.004,-0.0297 c 0.005,-0.0288 0.0356,-0.2213 0.0928,-0.5775 0.0572,-0.3562 0.1571,-0.7274 0.2996,-1.1137 0.1426,-0.3862 0.3164,-0.7937 0.5215,-1.2225 0.2052,-0.4289 0.4333,-0.8532 0.6844,-1.2731 0.251,-0.4199 0.5106,-0.8145 0.7786,-1.1839 0.2681,-0.3694 0.5258,-0.6817 0.7732,-0.9369 0.2475,-0.2552 0.484,-0.465 0.7095,-0.6294 0.2255,-0.1644 0.4944,-0.2616 0.8066,-0.2916 0.3121,-0.03 0.538,0.1864 0.6777,0.649 0.1397,0.4627 0.2179,1.1712 0.2346,2.1256 0.0166,0.9544 0.0565,1.6185 0.1195,1.9926 0.0889,0.528 0.5651,0.699 1.4287,0.513"
           style="fill:none;stroke:#000000;stroke-width:2.07873988;stroke-linecap:round;stroke-linejoin:round;stroke-miterlimit:10;stroke-dasharray:none;stroke-opacity:1"
           id="path3923"
           inkscape:connector-curvature="0" />
      </g>
      <g
         id="g3925"
         transform="matrix(0.19242426,0,0,0.19242426,15.376726,103.37256)">
        <path
           d="m 267.8341,186.0171 c -0.5101,0.0198 -0.9306,0.8188 -1.2617,2.3971 -0.331,1.5782 -0.5377,2.6298 -0.6201,3.1549 -0.0823,0.5251 -0.1437,0.9975 -0.1842,1.4171 -0.0405,0.4196 -0.053,0.9581 -0.0376,1.6158 0.0154,0.6576 0.0823,1.1 0.2007,1.3273 0.1185,0.2272 0.2568,0.4316 0.4149,0.613 0.1581,0.1815 0.3355,0.3342 0.5323,0.4582 0.1968,0.1239 0.4104,0.2186 0.6408,0.2839 0.2304,0.0653 0.4723,0.1012 0.7259,0.1077 0.2536,0.007 0.5196,-0.0279 0.7978,-0.1033 0.2782,-0.0754 0.5465,-0.221 0.8049,-0.4369 0.2583,-0.2159 0.5108,-0.4768 0.7572,-0.7828 0.2465,-0.306 0.4825,-0.6529 0.7079,-1.0406 0.2254,-0.3878 0.4498,-0.816 0.6732,-1.2847 0.2233,-0.4687 0.4144,-0.9629 0.573,-1.4826 0.1587,-0.5198 0.2931,-1.0851 0.4032,-1.696 0.11,-0.6108 0.1917,-1.2511 0.2448,-1.9206 0.0531,-0.6696 0.0886,-1.3206 0.1063,-1.9531 0.0177,-0.6324 0.0213,-1.2283 0.0106,-1.7876 -0.0106,-0.5593 -0.0846,-1.0868 -0.222,-1.5825 -0.1375,-0.4958 -0.3023,-0.9421 -0.4945,-1.3389 -0.1922,-0.3968 -0.3984,-0.7259 -0.6184,-0.9871 -0.22,-0.2612 -0.4612,-0.4628 -0.7237,-0.6047 -0.2625,-0.1418 -0.5444,-0.2199 -0.8458,-0.2341 -0.3015,-0.0141 -0.5887,0.0624 -0.8618,0.2296 -0.2731,0.1673 -0.5336,0.4428 -0.7816,0.8266 -0.2479,0.3838 -0.4686,0.8214 -0.6619,1.3128 -0.1934,0.4915 -0.3568,0.9883 -0.4901,1.4905 -0.1334,0.5022 -0.234,1.0082 -0.3019,1.5181 -0.0679,0.5099 -0.1052,0.9855 -0.112,1.4267 -0.007,0.4412 0.0378,0.8194 0.1338,1.1347 0.096,0.3153 0.2753,0.5946 0.5377,0.8377 0.2625,0.2432 0.5804,0.4348 0.9537,0.5749 0.5371,0.2015 1.7744,0.3993 3.7119,0.5934"
           style="fill:none;stroke:#000000;stroke-width:2.07873988;stroke-linecap:round;stroke-linejoin:round;stroke-miterlimit:10;stroke-dasharray:none;stroke-opacity:1"
           id="path3927"
           inkscape:connector-curvature="0" />
      </g>
      <g
         id="g3929"
         transform="matrix(0.19242426,0,0,0.19242426,15.376726,103.37256)">
        <path
           d="m 282.0074,189.6299 c 0.1012,-0.2972 -0.0475,-0.5166 -0.4462,-0.6583 -0.2817,-0.1001 -0.5019,-0.1508 -0.6607,-0.1521 -0.1588,-0.001 -0.3304,0.0458 -0.5148,0.1416 -0.1845,0.0958 -0.3702,0.2526 -0.5573,0.4705 -0.187,0.2179 -0.3692,0.48 -0.5465,0.7862 -0.1774,0.3062 -0.3332,0.6432 -0.4674,1.0112 -0.1343,0.3679 -0.2441,0.7439 -0.3294,1.1279 -0.0853,0.384 -0.1395,0.9436 -0.1625,1.6786 -0.023,0.7351 -0.009,1.2474 0.0432,1.537 0.0519,0.2895 0.1498,0.5331 0.2939,0.7308 0.144,0.1976 0.3124,0.3426 0.5053,0.4352 0.1929,0.0925 0.3932,0.1483 0.6009,0.1675 0.2077,0.0192 0.4223,-0.0116 0.6439,-0.0924 0.2215,-0.0808 0.4438,-0.231 0.6668,-0.4507 0.2229,-0.2197 0.4398,-0.4762 0.6505,-0.7693 0.2107,-0.2932 0.4059,-0.6181 0.5856,-0.9748 0.1797,-0.3567 0.3517,-0.7464 0.516,-1.1689 0.1642,-0.4226 0.3177,-0.8915 0.4606,-1.4067 0.1428,-0.5151 0.3494,-1.3701 0.6197,-2.5651 0.2703,-1.1949 0.5724,-2.4652 0.9062,-3.8109 0.3338,-1.3456 0.5321,-2.2081 0.5949,-2.5875 0.0627,-0.3793 0.0963,-0.5823 0.1007,-0.6089 0.004,-0.0266 2e-4,-0.0169 -0.0127,0.0289 -0.0129,0.0459 -0.1112,0.3961 -0.295,1.0505 -0.1838,0.6544 -0.3508,1.2937 -0.5009,1.9179 -0.15,0.6241 -0.3716,1.6617 -0.6645,3.1126 -0.2929,1.451 -0.4935,2.5155 -0.6018,3.1933 -0.1084,0.6779 -0.174,1.4274 -0.1968,2.2483 -0.0229,0.821 0.0288,1.3374 0.155,1.5493 0.1263,0.2119 0.306,0.3499 0.5392,0.4141 0.2333,0.0642 0.5091,0.0995 0.8274,0.1059 0.3184,0.006 0.6509,-0.0645 0.9975,-0.2126 0.5003,-0.2139 1.3589,-0.8148 2.5759,-1.8027"
           style="fill:none;stroke:#000000;stroke-width:2.07873988;stroke-linecap:round;stroke-linejoin:round;stroke-miterlimit:10;stroke-dasharray:none;stroke-opacity:1"
           id="path3931"
           inkscape:connector-curvature="0" />
      </g>
      <g
         id="g3933"
         transform="matrix(0.19242426,0,0,0.19242426,15.376726,103.37256)">
        <path
           d="m 292.0659,188.4784 c -0.595,0.8337 -0.9574,1.4604 -1.0871,1.8801 -0.0895,0.2896 -0.1598,0.6208 -0.2109,0.9937 -0.0511,0.3728 -0.0792,0.7466 -0.0843,1.1212 -0.005,0.3746 0.0132,0.7327 0.0548,1.0745 0.0416,0.3416 0.1327,0.6767 0.2732,1.0052 0.1405,0.3285 0.2872,0.6034 0.4401,0.8248 0.1529,0.2213 0.315,0.4059 0.4865,0.5537 0.1715,0.1478 0.4436,0.2535 0.8165,0.317 0.3729,0.0636 0.6641,0.0279 0.8737,-0.1072 0.2096,-0.135 0.4302,-0.3514 0.6619,-0.6493 0.2317,-0.2979 0.4694,-0.6503 0.7132,-1.0571 0.2438,-0.4067 0.4672,-0.8355 0.67,-1.2863 0.2029,-0.4507 0.3938,-0.9565 0.5728,-1.5175 0.1789,-0.561 0.3133,-1.1523 0.4031,-1.7738 0.0897,-0.6216 0.1464,-1.6452 0.1699,-3.0708 0.0235,-1.4255 0.008,-2.4687 -0.0462,-3.1296 -0.0543,-0.6608 -0.1313,-1.2392 -0.231,-1.7352 -0.0996,-0.496 -0.2064,-0.9159 -0.3205,-1.2599 -0.1141,-0.3439 -0.245,-0.6223 -0.3928,-0.8353 -0.1477,-0.213 -0.3133,-0.3516 -0.4966,-0.4159 -0.1834,-0.0643 -0.3958,-0.0831 -0.6372,-0.0565 -0.2415,0.0267 -0.4945,0.167 -0.7591,0.421 -0.2646,0.254 -0.5205,0.5772 -0.7676,0.9697 -0.2471,0.3925 -0.4784,0.8349 -0.694,1.3272 -0.2156,0.4923 -0.3924,0.9929 -0.5305,1.5018 -0.1381,0.5089 -0.2289,1.0104 -0.2725,1.5044 -0.0435,0.494 -0.0675,0.9807 -0.0718,1.46 -0.004,0.4793 0.008,0.9215 0.0374,1.3266 0.0293,0.4051 0.1198,0.7535 0.2715,1.0454 0.1517,0.2918 0.3454,0.5416 0.5812,0.7494 0.2358,0.2077 0.4969,0.37 0.7832,0.4866 0.2864,0.1167 0.6025,0.1908 0.9485,0.2223 0.4976,0.0453 1.5667,-0.1354 3.2075,-0.5422"
           style="fill:none;stroke:#000000;stroke-width:2.07873988;stroke-linecap:round;stroke-linejoin:round;stroke-miterlimit:10;stroke-dasharray:none;stroke-opacity:1"
           id="path3935"
           inkscape:connector-curvature="0" />
      </g>
      <g
         id="g3937"
         transform="matrix(0.19242426,0,0,0.19242426,15.376726,103.37256)">
        <path
           d="m 309.0873,191.4909 c -0.3557,-0.8192 -0.6758,-1.443 -0.9601,-1.8713 -0.1943,-0.2926 -0.3544,-0.4886 -0.4803,-0.5877 -0.126,-0.0992 -0.3773,-0.1652 -0.7541,-0.1979 -0.3768,-0.0327 -0.7568,0.0962 -1.14,0.3869 -0.3832,0.2906 -0.6876,0.5973 -0.9131,0.92 -0.2256,0.3228 -0.452,0.7558 -0.6791,1.299 -0.2271,0.5433 -0.359,0.9937 -0.3958,1.3513 -0.0367,0.3576 -0.052,0.7576 -0.0457,1.2001 0.006,0.4426 0.0778,0.7818 0.2147,1.0179 0.137,0.2361 0.397,0.438 0.7799,0.6058 0.383,0.1679 0.7783,0.1934 1.186,0.0767 0.4076,-0.1167 0.7261,-0.307 0.9554,-0.5708 0.2293,-0.2638 0.5489,-0.7629 0.9589,-1.4973 0.41,-0.7344 0.6737,-1.2374 0.7913,-1.5089 0.1175,-0.2715 0.2924,-0.7979 0.5248,-1.579 0.2324,-0.7812 0.4235,-1.5051 0.5731,-2.1719 0.1497,-0.6667 0.3321,-1.6355 0.5474,-2.9063 0.2153,-1.2708 0.3978,-2.2982 0.5474,-3.0823 0.1497,-0.784 0.2301,-1.2053 0.2412,-1.2638 0.0112,-0.0586 0.0158,-0.0761 0.0138,-0.0527 -0.002,0.0234 -0.0161,0.1921 -0.0425,0.5059 -0.0264,0.3138 -0.0944,0.6844 -0.204,1.1117 -0.1096,0.4273 -0.2169,0.8988 -0.3221,1.4144 -0.1051,0.5156 -0.2262,1.2043 -0.3631,2.0661 -0.137,0.8617 -0.2495,1.6135 -0.3375,2.2553 -0.0881,0.6417 -0.1576,1.2361 -0.2086,1.7831 -0.0509,0.547 -0.0847,1.2514 -0.1012,2.1131 -0.0165,0.8618 0.0223,1.4151 0.1163,1.6598 0.0941,0.2448 0.2152,0.4538 0.3635,0.6271 0.1482,0.1733 0.384,0.3089 0.7075,0.407 0.3235,0.0981 0.5565,0.1481 0.6992,0.1499 0.2032,0.002 0.6357,-0.4055 1.2975,-1.224"
           style="fill:none;stroke:#000000;stroke-width:2.07873988;stroke-linecap:round;stroke-linejoin:round;stroke-miterlimit:10;stroke-dasharray:none;stroke-opacity:1"
           id="path3939"
           inkscape:connector-curvature="0" />
      </g>
      <g
         id="g3941"
         transform="matrix(0.19242426,0,0,0.19242426,15.376726,103.37256)">
        <path
           d="m 314.9274,190.9555 c -0.2415,0.2335 -0.4162,0.5705 -0.5243,1.0112 -0.108,0.4407 -0.1771,1.126 -0.2072,2.056 -0.0302,0.9299 0.025,1.4768 0.1656,1.6406 0.1406,0.1638 0.2852,0.2484 0.4338,0.2538 0.1487,0.005 0.3135,-0.0594 0.4944,-0.1945 0.181,-0.135 0.5367,-0.5645 1.0671,-1.2883 0.5303,-0.7238 0.918,-1.2694 1.163,-1.6367 0.2449,-0.3674 0.416,-0.2269 0.5132,0.4215 0.0972,0.6484 0.2048,1.2015 0.3226,1.6593 0.1178,0.4577 0.2569,0.8202 0.4175,1.0876 0.1605,0.2673 0.3591,0.4772 0.5958,0.6296 0.2367,0.1524 0.5082,0.2412 0.8144,0.2663 0.3063,0.0252 0.6335,-0.0337 0.9814,-0.1767 0.3479,-0.143 0.7178,-0.3903 1.1096,-0.7419 0.3918,-0.3516 0.7659,-0.7335 1.1224,-1.1457 0.3565,-0.4121 0.679,-0.8174 0.9675,-1.2158 0.2885,-0.3983 0.6162,-1.0027 0.9831,-1.8131 0.3669,-0.8104 0.5782,-1.4231 0.6338,-1.8381 0.0556,-0.415 0.0862,-0.8004 0.0917,-1.156 0.006,-0.3557 -0.0707,-0.6621 -0.2288,-0.9192 -0.1581,-0.2572 -0.3653,-0.4465 -0.6215,-0.5682 -0.2563,-0.1216 -0.5448,-0.1885 -0.8654,-0.2006 -0.4638,-0.0176 -0.9358,0.265 -1.4161,0.8477"
           style="fill:none;stroke:#000000;stroke-width:2.07873988;stroke-linecap:round;stroke-linejoin:round;stroke-miterlimit:10;stroke-dasharray:none;stroke-opacity:1"
           id="path3943"
           inkscape:connector-curvature="0" />
      </g>
      <g
         id="g3945"
         transform="matrix(0.19242426,0,0,0.19242426,15.376726,103.37256)">
        <path
           d="m 335.1129,189.918 c -0.0676,-0.4151 -0.2877,-0.693 -0.6605,-0.8337 -0.2563,-0.0968 -0.4876,-0.1469 -0.6942,-0.1505 -0.2065,-0.004 -0.4353,0.0407 -0.6865,0.133 -0.2512,0.0922 -0.4947,0.2636 -0.7306,0.5143 -0.2358,0.2506 -0.4758,0.5786 -0.7201,0.984 -0.2442,0.4053 -0.4479,0.8267 -0.6112,1.2641 -0.1632,0.4373 -0.284,0.8565 -0.3623,1.2574 -0.0783,0.4009 -0.1214,0.795 -0.1292,1.1823 -0.008,0.3873 0.0139,0.7012 0.0652,0.9417 0.0513,0.2404 0.1799,0.4306 0.3858,0.5703 0.2059,0.1398 0.601,0.17 1.1851,0.0904 0.5842,-0.0795 1.034,-0.2617 1.3494,-0.5465 0.3154,-0.2848 0.6103,-0.6085 0.8848,-0.971 0.2745,-0.3625 0.5308,-0.7669 0.769,-1.2132 0.2382,-0.4463 0.4535,-0.8803 0.6459,-1.3019 0.1923,-0.4216 0.3663,-0.885 0.5219,-1.3901 0.1556,-0.5052 0.2932,-1.0244 0.4129,-1.5577 0.1197,-0.5334 0.2525,-1.3469 0.3986,-2.4407 0.146,-1.0937 0.2517,-2.0396 0.3171,-2.8376 0.0655,-0.798 0.0996,-1.3545 0.1026,-1.6693 0.003,-0.3149 -0.007,-0.459 -0.0286,-0.4323 -0.022,0.0267 -0.0769,0.0934 -0.1647,0.2002 -0.0879,0.1067 -0.2296,0.5065 -0.425,1.1993 -0.1955,0.6928 -0.3455,1.3014 -0.45,1.8257 -0.1046,0.5243 -0.2511,1.4494 -0.4396,2.7753 -0.1885,1.3259 -0.3085,2.3328 -0.36,3.0207 -0.0515,0.6878 -0.0752,1.5028 -0.0709,2.4449 0.004,0.9421 0.07,1.5395 0.1974,1.7922 0.1274,0.2527 0.2917,0.4545 0.4928,0.6054 0.2011,0.1509 0.5668,0.2511 1.0972,0.3004 0.5303,0.0494 0.9251,0.0213 1.1844,-0.084 0.3788,-0.154 0.783,-0.486 1.2128,-0.9961"
           style="fill:none;stroke:#000000;stroke-width:2.07873988;stroke-linecap:round;stroke-linejoin:round;stroke-miterlimit:10;stroke-dasharray:none;stroke-opacity:1"
           id="path3947"
           inkscape:connector-curvature="0" />
      </g>
      <g
         id="g3949"
         transform="matrix(0.19242426,0,0,0.19242426,15.376726,103.37256)">
        <path
           d="m 342.6534,192.7775 c -0.2257,0.7505 -0.342,1.2441 -0.3488,1.481 -0.005,0.1645 0.0298,0.3178 0.1037,0.4599 0.0739,0.1422 0.2137,0.2732 0.4194,0.3933 0.2057,0.12 0.4564,0.2125 0.7522,0.2774 0.2958,0.0649 0.7363,0.1064 1.3217,0.1244 0.5853,0.0181 1.0024,-0.0257 1.2514,-0.1314 0.2489,-0.1056 0.4813,-0.2365 0.6971,-0.3926 0.2157,-0.156 0.4026,-0.3312 0.5605,-0.5253 0.158,-0.1942 0.287,-0.4002 0.387,-0.6181 0.1001,-0.2178 0.1942,-0.6198 0.2823,-1.206 0.0881,-0.5861 0.1187,-1.2323 0.0919,-1.9386 -0.0269,-0.7063 -0.1051,-1.2196 -0.2345,-1.5398 -0.1293,-0.3203 -0.2476,-0.5494 -0.3547,-0.6872 -0.1072,-0.1379 -0.3458,-0.308 -0.716,-0.5103 -0.3702,-0.2022 -0.7151,-0.3135 -1.0347,-0.3337 -0.3196,-0.0202 -0.6219,0.005 -0.9067,0.0757 -0.2848,0.0708 -0.558,0.2205 -0.8195,0.4491 -0.2615,0.2286 -0.5172,0.5045 -0.7671,0.8276 -0.2499,0.3231 -0.4589,0.65 -0.6271,0.9806 -0.1681,0.3307 -0.3361,0.7845 -0.5041,1.3616 -0.168,0.577 -0.2592,1.0689 -0.2736,1.4754 -0.0143,0.4066 0.015,0.7245 0.0879,0.9537 0.1053,0.3308 0.4851,0.6826 1.1396,1.0557"
           style="fill:none;stroke:#000000;stroke-width:2.07873988;stroke-linecap:round;stroke-linejoin:round;stroke-miterlimit:10;stroke-dasharray:none;stroke-opacity:1"
           id="path3951"
           inkscape:connector-curvature="0" />
      </g>
      <g
         id="g3953"
         transform="matrix(0.19242426,0,0,0.19242426,15.376726,103.37256)">
        <path
           d="m 349.1711,185.6974 c -0.2702,0 -0.4953,0.172 -0.6754,0.5159 -0.1802,0.3439 -0.3701,0.7976 -0.5699,1.3611 -0.1997,0.5635 -0.6182,1.6662 -1.2555,3.3079 -0.6372,1.6417 -1.1476,2.9293 -1.5311,3.8626 -0.3835,0.9334 -0.7581,1.8618 -1.1236,2.7852 -0.3656,0.9234 -0.6981,1.7504 -0.9974,2.4809 -0.2993,0.7306 -0.5433,1.3805 -0.7319,1.9496 -0.1886,0.5691 -0.3345,1.0491 -0.4376,1.44 -0.1032,0.3909 -0.1659,0.7736 -0.1881,1.1479 -0.0314,0.5278 0.1581,0.7953 0.5686,0.8028"
           style="fill:none;stroke:#000000;stroke-width:2.07873988;stroke-linecap:round;stroke-linejoin:round;stroke-miterlimit:10;stroke-dasharray:none;stroke-opacity:1"
           id="path3955"
           inkscape:connector-curvature="0" />
      </g>
    </g>
  </g>
</svg>
