<?xml version="1.0" encoding="UTF-8" standalone="no"?>
<!-- Created with Inkscape (http://www.inkscape.org/) -->

<svg
   xmlns:dc="http://purl.org/dc/elements/1.1/"
   xmlns:cc="http://creativecommons.org/ns#"
   xmlns:rdf="http://www.w3.org/1999/02/22-rdf-syntax-ns#"
   xmlns:svg="http://www.w3.org/2000/svg"
   xmlns="http://www.w3.org/2000/svg"
   xmlns:sodipodi="http://sodipodi.sourceforge.net/DTD/sodipodi-0.dtd"
   xmlns:inkscape="http://www.inkscape.org/namespaces/inkscape"
   version="1.1"
   id="svg869"
   xml:space="preserve"
   width="484.33554"
   height="131.39578"
   viewBox="0 0 484.33554 131.39578"
   sodipodi:docname="sun.svg"
   inkscape:version="0.92.5 (2060ec1f9f, 2020-04-08)"><metadata
     id="metadata875"><rdf:RDF><cc:Work
         rdf:about=""><dc:format>image/svg+xml</dc:format><dc:type
           rdf:resource="http://purl.org/dc/dcmitype/StillImage" /><dc:title></dc:title></cc:Work></rdf:RDF></metadata><defs
     id="defs873"><clipPath
       clipPathUnits="userSpaceOnUse"
       id="clipPath887"><path
         d="M 0,-4.076958e-5 H 612 V 791.99996 H 0 Z"
         id="path885"
         inkscape:connector-curvature="0" /></clipPath></defs><sodipodi:namedview
     pagecolor="#ffffff"
     bordercolor="#666666"
     borderopacity="1"
     objecttolerance="10"
     gridtolerance="10"
     guidetolerance="10"
     inkscape:pageopacity="0"
     inkscape:pageshadow="2"
     inkscape:window-width="1916"
     inkscape:window-height="1036"
     id="namedview871"
     showgrid="false"
     inkscape:zoom="1.6136364"
     inkscape:cx="188.36689"
     inkscape:cy="207.09401"
     inkscape:window-x="0"
     inkscape:window-y="20"
     inkscape:window-maximized="0"
     inkscape:current-layer="g877" /><g
     id="g877"
     inkscape:groupmode="layer"
     inkscape:label="Haar measure "
     transform="matrix(1.3333333,0,0,-1.3333333,-73.400813,542.19593)"><g
       transform="matrix(0.5454546,0,0,-0.5454546,0,792)"
       id="g2549"><path
         inkscape:connector-curvature="0"
         id="path2551"
         style="fill:none;stroke:#ffff00;stroke-width:24;stroke-linecap:round;stroke-linejoin:round;stroke-miterlimit:10;stroke-dasharray:none;stroke-opacity:0.5"
         d="m 210.4947,748.0497 c -0.7788,0.4103 -1.2026,0.227 -1.2715,-0.5501 -0.0497,-0.5609 -0.068,-0.975 -0.055,-1.2423 0.013,-0.2673 0.1044,-0.8142 0.2742,-1.6405 0.1698,-0.8264 0.256,-1.5116 0.2586,-2.0555 0.003,-0.5439 -0.0828,-0.8963 -0.2562,-1.0574 -0.1734,-0.1611 -0.4388,-0.3031 -0.7963,-0.4261 -0.3574,-0.1231 -1.0968,-0.2663 -2.2181,-0.4297 -1.1213,-0.1635 -2.0001,-0.2929 -2.6364,-0.3884 -0.6363,-0.0955 -1.2351,-0.2153 -1.7964,-0.3596 -0.5613,-0.1443 -1.0662,-0.3431 -1.5146,-0.5964 -0.4485,-0.2533 -0.859,-0.5778 -1.2317,-0.9734 -0.3727,-0.3957 -0.8165,-1.0308 -1.3313,-1.9055 -0.5148,-0.8747 -0.8824,-1.4707 -1.1026,-1.788 -0.2202,-0.3172 -0.4678,-0.6239 -0.7428,-0.92 -0.275,-0.2961 -0.5866,-0.5599 -0.9349,-0.7913 -0.3482,-0.2313 -0.7288,-0.4247 -1.1418,-0.58 -0.413,-0.1554 -0.8448,-0.2791 -1.2955,-0.3711 -0.4508,-0.0921 -1.7057,-0.1433 -3.7649,-0.1535 -2.0592,-0.0102 -3.2252,-0.0258 -3.498,-0.0467 -0.2729,-0.0208 -0.5936,-0.1251 -0.9621,-0.3128 -0.3686,-0.1877 -0.6626,-0.4205 -0.8822,-0.6982 -0.2196,-0.2778 -0.4068,-0.64 -0.5615,-1.0867 -0.1547,-0.4466 -0.2272,-0.8371 -0.2173,-1.1714 0.01,-0.3342 0.0878,-0.6671 0.2339,-0.9984 0.1461,-0.3314 0.2213,-0.6041 0.2256,-0.8181 0.004,-0.214 -0.1392,-0.365 -0.4304,-0.4528 -0.2912,-0.0878 -0.5984,-0.3758 -0.9214,-0.8639 -0.3231,-0.4882 -0.5877,-0.9555 -0.7937,-1.4019 -0.2061,-0.4464 -0.3951,-0.8081 -0.5671,-1.0851 -0.172,-0.277 -0.2971,-0.2971 -0.3753,-0.0601 -0.0782,0.2369 -0.1187,0.4966 -0.1214,0.7789 -0.003,0.2823 0.3923,0.5549 1.185,0.8176 0.7927,0.2627 1.5521,0.4746 2.2783,0.6356 0.7262,0.161 1.5413,0.2751 2.4451,0.3421 0.9038,0.067 1.8748,0.1021 2.9129,0.1052 1.0381,0.003 2.0853,-0.0349 3.1417,-0.1138 1.0564,-0.079 2.0975,-0.1933 3.1233,-0.3429 1.0258,-0.1497 2.0444,-0.2632 3.0558,-0.3406 1.0114,-0.0773 2.3878,-0.1176 4.1292,-0.1208 1.7413,-0.003 2.8154,-0.0101 3.2223,-0.0205 0.4068,-0.0105 1.0174,-0.1018 1.8317,-0.2742 0.8144,-0.1723 1.6097,-0.3517 2.3861,-0.5381 0.7765,-0.1864 1.5244,-0.3324 2.2438,-0.438 0.7195,-0.1055 2.0744,-0.1606 4.0649,-0.1652 1.9905,-0.005 3.2262,-0.0334 3.7071,-0.0866 0.481,-0.0532 1.0214,-0.131 1.6212,-0.2333 0.5998,-0.1023 1.1258,-0.1607 1.578,-0.1753 0.4521,-0.0146 0.9433,0.0812 1.4734,0.2874 0.5302,0.2061 1.0209,0.3516 1.4723,0.4367 0.4513,0.0852 0.844,0.129 1.178,0.1315 0.3341,0.003 0.7264,-0.1049 1.177,-0.3223 0.4506,-0.2174 0.9471,-0.553 1.4897,-1.0067 0.5425,-0.4536 0.8146,-0.5643 0.8164,-0.332 0.002,0.2323 -0.1482,0.8974 -0.4499,1.9951 -0.3017,1.0978 -0.5103,1.9646 -0.6259,2.6005 -0.1155,0.6359 -0.2575,1.8557 -0.4259,3.6595 -0.1684,1.8037 -0.3252,3.3476 -0.4704,4.6316 -0.1452,1.2841 -0.2974,2.5737 -0.4566,3.8688 -0.1592,1.2951 -0.2712,2.2508 -0.336,2.8669 -0.0647,0.6162 -0.1348,1.4613 -0.2103,2.5355 -0.0754,1.0742 -0.1503,2.2538 -0.2246,3.5389 -0.0743,1.285 -0.1767,2.7201 -0.3074,4.3054 -0.1306,1.5853 -0.2929,3.1773 -0.4869,4.776 -0.194,1.5987 -0.3953,3.1846 -0.6038,4.7577 -0.2084,1.5732 -0.4367,3.5241 -0.6848,5.8528 -0.2481,2.3287 -0.4894,4.9703 -0.7239,7.9247 -0.2344,2.9544 -0.4495,5.5869 -0.6451,7.8973 -0.1956,2.3104 -0.3374,4.0155 -0.4255,5.1152 -0.0881,1.0998 -0.1522,2.1413 -0.1923,3.1244 -0.0401,0.9832 -0.0686,1.9553 -0.0857,2.9164 -0.017,0.961 -0.0265,2.854 -0.0284,5.6789 -0.002,2.825 0.0205,5.2815 0.0672,7.3693 0.0467,2.0879 0.0713,5.1436 0.0739,9.1672 0.003,4.0237 0.0401,7.3174 0.1125,9.8811 0.0725,2.5638 0.206,5.3505 0.4004,8.3604 0.1944,3.0098 0.3518,5.3466 0.4723,7.0102 0.1204,1.6637 0.2442,3.6505 0.3713,5.9605 0.1272,2.31 0.264,4.4184 0.4105,6.3251 0.1465,1.9066 0.2742,3.316 0.3832,4.2282 0.1089,0.9121 0.2307,1.7349 0.3653,2.4683 0.1346,0.7334 0.264,1.3362 0.3882,1.8084 0.1242,0.472 0.2322,0.7737 0.324,0.9049 0.0919,0.1311 0.1549,0.2211 0.1891,0.2699 0.0341,0.0487 0.0514,-0.0154 0.0518,-0.1924 4e-4,-0.1769 0.001,-0.5034 0.002,-0.9793 0.001,-0.4759 -0.031,-1.0827 -0.0962,-1.8204 -0.0652,-0.7376 -0.1589,-2.0553 -0.2811,-3.9531 -0.1222,-1.8978 -0.2033,-3.4507 -0.2433,-4.6587 -0.0399,-1.2079 -0.0737,-2.4567 -0.1012,-3.7464 -0.0274,-1.2897 -0.0477,-2.6843 -0.0609,-4.1839 -0.0132,-1.4997 -0.0205,-5.1175 -0.022,-10.8535 -0.002,-5.7361 0.01,-9.6567 0.033,-11.7619 0.0235,-2.1052 0.0964,-4.164 0.2187,-6.1766 0.1223,-2.0125 0.2678,-3.8656 0.4365,-5.5593 0.1687,-1.6936 0.3554,-3.2878 0.56,-4.7826 0.2047,-1.4948 0.505,-3.4864 0.9009,-5.9746 0.396,-2.4884 0.7671,-4.9302 1.1135,-7.3255 0.3463,-2.3954 0.5999,-4.2167 0.7607,-5.464 0.1608,-1.2472 0.3158,-2.5194 0.4649,-3.8165 0.149,-1.2971 0.3695,-3.796 0.6614,-7.4966 0.2919,-3.7007 0.4886,-6.3901 0.5903,-8.0682 0.1016,-1.6782 0.1888,-2.8358 0.2616,-3.4728 0.0727,-0.637 0.1919,-1.2739 0.3574,-1.9106 0.1656,-0.6367 0.37,-1.2341 0.6134,-1.7923 0.2434,-0.5581 0.4726,-1.0116 0.6876,-1.3606 0.215,-0.3489 0.381,-0.5442 0.4982,-0.5859 0.1172,-0.0417 0.1823,0.1605 0.1955,0.6067 0.0131,0.4461 0.01,1.1228 -0.01,2.0302 -0.0196,0.9073 -0.119,1.9369 -0.2983,3.0887 -0.1793,1.1518 -0.5006,3.0195 -0.9639,5.6033 -0.4633,2.5838 -0.8058,4.5378 -1.0274,5.8621 -0.2216,1.3242 -0.4439,2.6892 -0.6668,4.0949 -0.223,1.4056 -0.7006,4.7062 -1.4329,9.9017 -0.7322,5.1955 -1.2168,8.6635 -1.4537,10.4038 -0.2369,1.7404 -0.478,3.4821 -0.7234,5.2251 -0.2453,1.743 -0.4468,3.3052 -0.6043,4.6867 -0.1575,1.3814 -0.2833,2.6543 -0.3773,3.8187 -0.094,1.1644 -0.1626,2.3128 -0.2059,3.445 -0.0433,1.1322 -0.0674,3.5077 -0.0722,7.1265 -0.005,3.6187 -0.0281,6.0618 -0.0698,7.3294 -0.0417,1.2675 -0.1038,2.4829 -0.1862,3.6463 -0.0824,1.1635 -0.216,2.8099 -0.4008,4.9392 -0.1849,2.1294 -0.3143,3.6438 -0.3883,4.5433 -0.074,0.8994 -0.1564,2.1186 -0.2472,3.6574 -0.0908,1.5389 -0.1442,3.4828 -0.1601,5.8318 -0.0159,2.3491 -0.0187,3.7585 -0.008,4.2282 0.0105,0.4698 0.088,1.241 0.2326,2.3136 0.1446,1.0727 0.3084,2.4297 0.4913,4.0712 0.1828,1.6416 0.3048,2.8056 0.3657,3.4921 0.061,0.6864 0.105,1.3788 0.1319,2.077 0.027,0.6984 0.0492,1.6606 0.0667,2.8868 l 0.0314,1.6414 0.002,-0.0238 c 0.005,-0.1476 0.0163,-0.5167 0.0348,-1.1073 0.0186,-0.5906 -0.0595,-1.1274 -0.2342,-1.6104 -0.1748,-0.4831 -0.3767,-0.8829 -0.6059,-1.1995 -0.2291,-0.3165 -0.5406,-0.6367 -0.9343,-0.9605 -0.3938,-0.3238 -0.7262,-0.5206 -0.9971,-0.5904 -0.2709,-0.0698 -0.6501,-0.0899 -1.1375,-0.0604 -0.4874,0.0296 -0.9435,0.0998 -1.3684,0.2108 -0.4248,0.1109 -1.0046,0.1745 -1.7392,0.1907 -0.7347,0.0162 -1.4888,-0.0117 -2.2624,-0.0837 -0.7735,-0.072 -1.8492,-0.1087 -3.2271,-0.1101 -1.378,-10e-4 -2.2082,-0.03 -2.4908,-0.0857 -0.2825,-0.0556 -0.7057,-0.1907 -1.2696,-0.4052 -0.5638,-0.2145 -1.0051,-0.3724 -1.3239,-0.4737 -0.3188,-0.1012 -0.8035,-0.1925 -1.454,-0.2739 -0.6505,-0.0814 -1.5906,-0.1238 -2.8202,-0.1271 -1.2297,-0.003 -2.0823,0.007 -2.5578,0.0316 -0.4756,0.0244 -1.206,0.1125 -2.1914,0.2645 -0.9854,0.1519 -2.4563,0.4468 -4.4127,0.8846 -1.9564,0.4379 -3.3676,0.7398 -4.2336,0.9059 -0.866,0.166 -1.6316,0.293 -2.2966,0.381 -0.6651,0.0879 -1.2254,0.1699 -1.6808,0.2459 -0.4555,0.076 -0.9536,0.1213 -1.4945,0.1358 -0.5409,0.0144 -1.1184,-0.0453 -1.7326,-0.1791 -0.6142,-0.1338 -1.2111,-0.3095 -1.7907,-0.527 -0.5797,-0.2176 -1.1415,-0.3645 -1.6854,-0.441 -0.5439,-0.0764 -0.8337,-0.2254 -0.8694,-0.4472 -0.0357,-0.2217 0.1087,-0.6219 0.4331,-1.2005 0.3245,-0.5785 0.5653,-1.1479 0.7224,-1.7082 0.1571,-0.5602 0.23,-1.6874 0.2187,-3.3815 -0.0112,-1.6941 0.006,-3.2142 0.0515,-4.5605 0.0457,-1.3462 0.159,-3.5309 0.3402,-6.5541 0.1811,-3.0232 0.3144,-5.1848 0.3997,-6.4847 0.0854,-1.2998 0.1871,-2.6549 0.3052,-4.0651 0.1181,-1.4101 0.2547,-2.9093 0.41,-4.4975 0.1552,-1.5882 0.3188,-3.1088 0.4908,-4.5618 0.172,-1.4529 0.4594,-3.5438 0.8622,-6.2728 0.4028,-2.7289 0.6975,-4.6844 0.8842,-5.8663 0.1867,-1.182 0.3559,-2.3348 0.5075,-3.4584 0.1517,-1.1236 0.2899,-2.2338 0.4146,-3.3307 0.1247,-1.0968 0.2324,-2.1976 0.3231,-3.3022 0.0907,-1.1046 0.1732,-2.2809 0.2474,-3.529 0.0743,-1.248 0.1569,-3.1016 0.2477,-5.5606 0.0908,-2.4591 0.1604,-4.2516 0.2086,-5.3777 0.0483,-1.1261 0.152,-3.053 0.3113,-5.7808 0.1592,-2.7278 0.253,-4.512 0.2814,-5.3528 0.0284,-0.8407 0.0442,-3.5928 0.0473,-8.2563 0.003,-4.6636 0.0152,-7.5862 0.0361,-8.7678 0.0208,-1.1817 0.0738,-2.8427 0.1587,-4.9831 0.085,-2.1404 0.1587,-3.9142 0.2211,-5.3216 0.0624,-1.4074 0.0949,-2.9748 0.0977,-4.7022 0.003,-1.7274 -0.0134,-3.1959 -0.0484,-4.4057 -0.0349,-1.2098 -0.0827,-2.4343 -0.1433,-3.6734 -0.0605,-1.2391 -0.1318,-2.3633 -0.2138,-3.3727 -0.082,-1.0094 -0.1966,-2.0634 -0.344,-3.162 -0.1473,-1.0985 -0.2879,-1.956 -0.4216,-2.5723 -0.1337,-0.6164 -0.2744,-1.1851 -0.422,-1.7061 -0.1477,-0.521 -0.2954,-0.9929 -0.4431,-1.4155 -0.1478,-0.4227 -0.3695,-0.9396 -0.665,-1.5508 -0.2956,-0.6112 -0.5506,-1.0165 -0.7649,-1.2161 -0.2144,-0.1996 -0.3967,0.0157 -0.5468,0.6457 -0.1502,0.63 -0.3417,1.5795 -0.5745,2.8487 -0.2328,1.2691 -0.4114,2.3536 -0.5356,3.2534 -0.1242,0.8999 -0.3147,2.5801 -0.5714,5.0406 -0.2567,2.4604 -0.593,5.9938 -1.0089,10.6003 -0.416,4.6065 -0.703,7.7144 -0.8611,9.3237 -0.1581,1.6093 -0.3855,4.1227 -0.6822,7.5402 -0.2966,3.4176 -0.5189,6.0015 -0.6667,7.7517 -0.1478,1.7502 -0.2682,3.5738 -0.3612,5.4709 -0.093,1.897 -0.1494,3.8866 -0.1691,5.9688 -0.0197,2.0822 -0.0306,4.1823 -0.0326,6.3004 -0.002,2.1181 -0.008,4.1127 -0.0189,5.984 -0.0106,1.8712 -0.0165,5.0275 -0.0177,9.4688 -0.001,4.4414 0.068,8.0076 0.2075,10.6986 0.1395,2.691 0.2993,5.3262 0.4794,7.9055 0.18,2.5793 0.3088,4.5096 0.3863,5.7908 0.0775,1.2812 0.1579,2.5268 0.2413,3.7369 0.0834,1.21 0.1801,2.4513 0.2901,3.7238 0.1101,1.2724 0.2201,2.4524 0.3302,3.5398 0.1101,1.0873 0.2255,2.1446 0.346,3.1717 0.1205,1.0272 0.2753,2.4527 0.4643,4.2766 0.1891,1.8239 0.3271,3.1092 0.4142,3.856 0.087,0.7468 0.1845,1.4898 0.2923,2.2289 0.1078,0.7392 0.244,1.4327 0.4087,2.0806 0.1646,0.6479 0.3386,1.2147 0.522,1.7005 0.1833,0.4857 0.3624,0.8955 0.5372,1.2294 0.1748,0.3338 0.3531,0.5783 0.5349,0.7334 0.1818,0.1552 0.36,0.2475 0.5346,0.2769 0.1747,0.0294 0.3425,-0.0553 0.5034,-0.2541 0.1609,-0.1989 0.3106,-0.557 0.4493,-1.0744 0.1386,-0.5173 0.2644,-1.1549 0.3774,-1.9129 0.113,-0.7579 0.2247,-1.627 0.3351,-2.6073 0.1103,-0.9803 0.2428,-2.0621 0.3972,-3.2455 0.1545,-1.1834 0.4604,-3.3673 0.9175,-6.5515 0.4572,-3.1843 0.8373,-5.9109 1.1402,-8.1798 0.3028,-2.269 0.6128,-4.7206 0.93,-7.3548 0.3171,-2.6343 0.652,-5.5477 1.0044,-8.7403 0.3525,-3.1926 0.7081,-6.5192 1.0667,-9.9798 0.3586,-3.4606 0.7214,-6.9103 1.0885,-10.3491 0.367,-3.4387 0.7906,-6.932 1.2706,-10.4798 0.4801,-3.5479 0.9436,-6.7708 1.3906,-9.6685 0.447,-2.8978 0.8806,-5.5683 1.3008,-8.0115 0.4203,-2.4432 0.8392,-4.6218 1.2567,-6.536 0.4176,-1.9141 0.8089,-3.52 1.174,-4.8177 0.3652,-1.2977 0.6925,-2.375 0.9819,-3.2318 0.2895,-0.8568 0.5595,-1.5716 0.8102,-2.1443 0.2506,-0.5727 0.4719,-1.0199 0.6638,-1.3416 0.192,-0.3216 0.3693,-0.5438 0.5319,-0.6664 0.1626,-0.1226 0.3303,-0.1901 0.5031,-0.2023 0.1727,-0.0123 0.372,0.2297 0.5979,0.726 0.2259,0.4962 0.4558,1.4823 0.6896,2.9583 0.2338,1.4759 0.4237,3.5087 0.5697,6.0984 0.1459,2.5897 0.3252,7.6405 0.5379,15.1522 0.2127,7.5118 0.4184,13.449 0.6171,17.8118 0.1987,4.3627 0.4293,8.6182 0.6917,12.7663 0.2624,4.1482 0.5175,7.9882 0.7654,11.52 0.2479,3.5319 0.4351,6.6189 0.5616,9.2611 0.1265,2.6423 0.2065,4.9618 0.24,6.9584 0.0335,1.9967 0.0521,4.3897 0.0558,7.1792 0.004,2.7894 0.0108,4.6203 0.0212,5.4926 0.0105,0.8722 0.0397,1.6239 0.0875,2.2549 0.0478,0.631 0.085,0.8857 0.1113,0.764 0.0264,-0.1217 0.0924,-0.4259 0.1979,-0.9126 0.1055,-0.4867 0.1783,-1.2481 0.2184,-2.2839 0.0401,-1.0359 0.0623,-3.6432 0.0667,-7.8218 0.004,-4.1786 0.0119,-7.8886 0.0224,-11.1299 0.0104,-3.2413 0.0996,-6.8139 0.2676,-10.7178 0.1679,-3.9038 0.4481,-8.2773 0.8404,-13.1206 0.3923,-4.8432 0.9289,-9.7561 1.6096,-14.7385 0.6808,-4.9825 1.5207,-9.624 2.5198,-13.9246 0.9991,-4.3006 2.1079,-8.1914 3.3266,-11.6723 1.2187,-3.481 2.3597,-6.3957 3.4229,-8.7441 1.0633,-2.3484 2.0185,-4.3306 2.8654,-5.9465 0.847,-1.616 1.601,-2.9796 2.262,-4.0909 0.661,-1.1114 1.1798,-1.9539 1.5562,-2.5277 0.3764,-0.5738 0.6469,-0.9527 0.8113,-1.1368 0.1644,-0.184 0.27,-0.3022 0.3168,-0.3546 0.0467,-0.0523 10e-4,0.2509 -0.1369,0.9096 -0.138,0.6586 -0.4498,2.1465 -0.9353,4.4637 -0.4855,2.3172 -1.0559,5.2479 -1.7111,8.792 -0.6553,3.5442 -1.3417,7.4485 -2.0591,11.7131 -0.7175,4.2647 -1.4277,8.7218 -2.1305,13.3716 -0.7029,4.6497 -1.3437,9.2839 -1.9225,13.9026 -0.5788,4.6187 -1.0693,9.0497 -1.4714,13.293 -0.4021,4.2434 -0.6794,8.1288 -0.8317,11.6562 -0.1524,3.5275 -0.2362,6.7878 -0.2514,9.7809 -0.0152,2.9931 0.0598,5.5682 0.2252,7.7252 0.2449,3.1944 0.9847,6.7097 2.2194,10.5459" /></g><g
       transform="matrix(0.5454546,0,0,-0.5454546,-22.5,795)"
       id="g2561"><path
         inkscape:connector-curvature="0"
         id="path2563"
         style="fill:none;stroke:#ff8a89;stroke-width:24;stroke-linecap:round;stroke-linejoin:round;stroke-miterlimit:10;stroke-dasharray:none;stroke-opacity:0.5"
         d="m 617.1205,752.5509 c -0.568,-1.1444 -1.2036,-1.7637 -1.9066,-1.8581 -0.4879,-0.0655 -0.8712,-0.149 -1.1498,-0.2507 -0.2786,-0.1016 -0.5428,-0.2831 -0.7926,-0.5444 -0.2497,-0.2612 -0.4517,-0.6027 -0.606,-1.0245 -0.1542,-0.4218 -0.2344,-0.9882 -0.2405,-1.6991 -0.006,-0.711 0.0682,-1.3832 0.2226,-2.0166 0.1544,-0.6335 0.2528,-1.1783 0.2953,-1.6342 0.0425,-0.4559 0.0573,-1.1037 0.0444,-1.9435 -0.0129,-0.8398 -0.097,-1.5047 -0.2523,-1.9946 -0.1554,-0.4899 -0.3568,-0.9238 -0.6044,-1.3018 -0.2476,-0.3778 -0.4629,-0.8411 -0.6459,-1.3896 -0.1829,-0.5485 -0.4154,-1.0142 -0.6976,-1.3971 -0.2821,-0.3829 -0.5224,-0.6499 -0.7207,-0.8011 -0.1983,-0.1511 -0.194,-0.227 0.0128,-0.2275 0.2069,-6e-4 0.7239,-0.002 1.5513,-0.004 0.8273,-0.002 1.5404,0.0194 2.1392,0.0644 0.5987,0.0449 1.4124,0.0681 2.4411,0.0695 1.0287,0.001 1.919,-0.009 2.6709,-0.0325 0.7519,-0.0231 1.6787,-0.0404 2.7802,-0.052 1.1016,-0.0116 2.5741,-0.0174 4.4174,-0.0176 1.8435,-10e-5 2.9455,0.023 3.3062,0.0692 0.3607,0.0463 0.8582,0.1737 1.4923,0.3821 0.6342,0.2084 1.1366,0.3148 1.5073,0.319 0.3707,0.004 0.8939,-0.0939 1.5698,-0.2943 0.6759,-0.2005 1.2682,-0.3903 1.777,-0.5695 0.5088,-0.1792 0.8576,-0.2761 1.0464,-0.2907 0.1887,-0.0146 0.3271,0.1172 0.415,0.3954 0.0879,0.2782 0.1384,0.665 0.1513,1.1605 0.0129,0.4955 0.009,0.9918 -0.0118,1.4887 -0.0208,0.4969 -0.1706,1.51 -0.4496,3.0392 -0.279,1.5291 -0.4943,2.8007 -0.646,3.8148 -0.1517,1.0141 -0.235,2.1129 -0.25,3.2964 -0.0149,1.1836 0.0125,2.1981 0.0823,3.0437 0.0698,0.8455 0.1779,1.6812 0.3243,2.5069 0.1464,0.8257 0.3146,1.5354 0.5048,2.129 0.1902,0.5936 0.3987,1.1909 0.6254,1.792 0.2269,0.6011 0.3846,1.1718 0.4732,1.712 0.0886,0.5401 0.153,1.098 0.1934,1.6737 0.0402,0.5757 0.0546,1.0149 0.043,1.3175 -0.0116,0.3026 0.0849,0.503 0.2895,0.6012 0.2046,0.0981 0.3879,0.1478 0.55,0.149 0.1622,10e-4 0.2156,-0.009 0.1604,-0.031 -0.0552,-0.0218 -0.1934,-0.0764 -0.4143,-0.1637 -0.221,-0.0873 -0.8855,-0.1858 -1.9935,-0.2956 -1.1079,-0.1098 -2.1038,-0.2415 -2.9877,-0.3953 -0.8839,-0.1538 -1.6403,-0.2885 -2.2693,-0.4041 -0.629,-0.1156 -1.519,-0.2218 -2.67,-0.3186 -1.1509,-0.0967 -2.2927,-0.1541 -3.4254,-0.172 -1.1327,-0.0179 -2.1195,-0.0268 -2.9605,-0.0268 -0.841,-1e-4 -1.8376,0.0611 -2.9897,0.1833 -1.1522,0.1223 -1.9097,0.1841 -2.2724,0.1855 -0.3628,10e-4 -0.6604,-0.0455 -0.893,-0.1409 -0.2327,-0.0953 -0.6359,-0.1739 -1.2096,-0.2357 -0.5738,-0.0619 -1.2154,-0.0935 -1.9248,-0.0948 -0.7094,-10e-4 -1.1302,0.1351 -1.2624,0.409 -0.1321,0.2739 -0.2986,0.5069 -0.4994,0.6992 -0.2008,0.1923 -0.2344,0.2773 -0.101,0.255 0.1908,-0.0318 0.7911,-0.1318 1.8008,-0.3" /></g><g
       transform="matrix(0.5454546,0,0,-0.5454546,-22.5,795)"
       id="g2557"><path
         inkscape:connector-curvature="0"
         id="path2559"
         style="fill:none;stroke:#c6e9f1;stroke-width:24;stroke-linecap:round;stroke-linejoin:round;stroke-miterlimit:10;stroke-dasharray:none;stroke-opacity:0.5"
         d="m 697.8314,769.7826 c -0.2561,-0.3808 -0.5616,-0.7341 -0.9165,-1.0599 -0.3549,-0.3259 -0.6432,-0.6131 -0.8649,-0.8616 -0.2217,-0.2486 -0.5023,-0.5104 -0.8417,-0.7854 -0.3395,-0.2751 -0.5775,-0.468 -0.7142,-0.5788 -0.1366,-0.1107 -0.1594,-0.1441 -0.0684,-0.1003 0.091,0.0438 0.2495,0.1202 0.4755,0.229 0.2261,0.1089 0.5262,0.1713 0.9004,0.1873 0.3741,0.0159 0.8158,-0.0497 1.3249,-0.1967 0.5092,-0.147 1.1204,-0.4077 1.8337,-0.7822 0.7133,-0.3745 1.0207,-0.5623 0.9221,-0.5634 -0.0985,-10e-4 -0.3449,-0.004 -0.7391,-0.008 -0.3941,-0.005 -0.9586,0.0654 -1.6934,0.2095 -0.7349,0.1441 -1.2227,0.2242 -1.4636,0.24 -0.2409,0.0159 -0.3409,-0.0578 -0.2999,-0.221 0.041,-0.1633 0.2711,-0.3916 0.6903,-0.6849 0.4192,-0.2933 0.9722,-0.6049 1.6588,-0.9349 0.6867,-0.3299 1.2152,-0.555 1.5856,-0.675 0.3704,-0.1201 1.0295,-0.2748 1.9773,-0.464 0.9477,-0.1892 1.706,-0.316 2.2749,-0.3803 0.5688,-0.0644 1.4152,-0.1116 2.5392,-0.1416 1.1239,-0.0301 2.2458,-0.0452 3.3657,-0.0456 1.1198,-3e-4 2.4365,0.0408 3.9499,0.1231 1.5135,0.0823 2.8043,0.1248 3.8726,0.1275 1.0683,0.003 1.8743,-0.006 2.4178,-0.0272 0.5437,-0.0209 1.5109,-0.0981 2.9018,-0.2317 1.3908,-0.1336 2.527,-0.2024 3.4085,-0.2064 0.8816,-0.004 1.6843,0.041 2.4082,0.135 0.724,0.094 1.2602,0.1732 1.6087,0.2377 0.3485,0.0645 0.5234,0.333 0.5249,0.8055 10e-4,0.4726 -0.1527,1.7282 -0.4624,3.7669 -0.3097,2.0387 -0.6938,4.5014 -1.1524,7.388 -0.4585,2.8867 -0.8781,5.5632 -1.2588,8.0296 -0.3806,2.4664 -0.6693,4.3543 -0.8662,5.6639 -0.1969,1.3096 -0.3769,2.6213 -0.5401,3.935 -0.1631,1.3138 -0.3024,2.6434 -0.4177,3.9888 -0.1155,1.3455 -0.2129,2.7274 -0.2922,4.1457 -0.0794,1.4182 -0.1452,2.8505 -0.1975,4.2969 -0.0522,1.4463 -0.0966,2.8993 -0.1332,4.359 -0.0365,1.4596 -0.0981,3.4958 -0.1848,6.1086 -0.0866,2.6128 -0.1741,5.6123 -0.2623,8.9984 -0.0882,3.3861 -0.1518,6.1611 -0.1908,8.3248 -0.0389,2.1638 -0.0593,5.0992 -0.061,8.8062 -0.002,3.707 0.0196,6.0548 0.0639,7.0433 0.0444,0.9886 0.1196,1.9967 0.2257,3.0244 0.1062,1.0277 0.2142,1.986 0.3239,2.875 0.1097,0.889 0.2804,2.0814 0.512,3.5774 0.2317,1.4959 0.4559,3.0515 0.6726,4.6667 0.2166,1.6152 0.3881,3.2614 0.5144,4.9386 0.1262,1.6771 0.2192,2.7158 0.2789,3.1161 0.0597,0.4003 0.1206,0.6611 0.1827,0.7825 0.0622,0.1214 0.1003,0.1958 0.1144,0.2234 0.0141,0.0275 0.0214,-0.0967 0.0219,-0.3726 6e-4,-0.276 0.002,-1.0219 0.004,-2.2376 0.002,-1.2157 -0.008,-2.1947 -0.0318,-2.9371 -0.0234,-0.7424 -0.0689,-1.5542 -0.1364,-2.4355 -0.0676,-0.8813 -0.1608,-1.8635 -0.2797,-2.9466 -0.1189,-1.0831 -0.3298,-2.8643 -0.6326,-5.3439 -0.3028,-2.4795 -0.5338,-4.4371 -0.693,-5.8727 -0.1592,-1.4355 -0.2964,-2.9052 -0.4113,-4.4089 -0.1151,-1.5038 -0.2227,-3.0719 -0.3229,-4.7042 -0.1001,-1.6323 -0.1826,-3.2416 -0.2474,-4.8277 -0.0648,-1.586 -0.1174,-3.2098 -0.1578,-4.8712 -0.0403,-1.6615 -0.0678,-3.3389 -0.0822,-5.0322 -0.0145,-1.6934 -0.0224,-3.3988 -0.0239,-5.1162 -10e-4,-1.7174 0.0304,-3.4395 0.0954,-5.1663 0.0651,-1.7267 0.1622,-3.44 0.2912,-5.1399 0.1291,-1.6998 0.2666,-3.3966 0.4125,-5.0904 0.1459,-1.6937 0.3031,-3.3436 0.4715,-4.9497 0.1685,-1.6061 0.3498,-3.1087 0.544,-4.5078 0.1942,-1.3991 0.3897,-2.6817 0.5864,-3.8478 0.1967,-1.1662 0.4585,-2.5502 0.7852,-4.1521 0.3267,-1.6019 0.6815,-3.1765 1.0643,-4.7238 0.3827,-1.5473 0.6363,-2.5484 0.7607,-3.0034 0.1243,-0.4551 0.3,-1.2136 0.5271,-2.2756 0.2271,-1.062 0.4082,-1.7808 0.5434,-2.1564 0.1351,-0.3756 0.2118,-0.5885 0.2299,-0.6388 0.018,-0.0502 0.0272,-0.0545 0.0273,-0.0127 2e-4,0.0418 8e-4,0.2189 0.002,0.5314 10e-4,0.3125 -0.0425,0.9178 -0.131,1.816 -0.0886,0.8982 -0.2207,1.9714 -0.3965,3.2197 -0.1757,1.2482 -0.3663,2.6758 -0.5717,4.2826 -0.2053,1.6068 -0.3951,3.3081 -0.5695,5.1038 -0.1744,1.7957 -0.3095,3.7226 -0.4051,5.7808 -0.0957,2.0581 -0.1535,4.312 -0.1735,6.7616 -0.02,2.4497 -0.0154,4.9067 0.0139,7.3712 0.0293,2.4644 0.1289,4.8478 0.2987,7.1502 0.1698,2.3025 0.3689,4.6421 0.5971,7.0187 0.2282,2.3767 0.4307,4.5449 0.6073,6.5045 0.1767,1.9598 0.33,3.8221 0.4598,5.587 0.1298,1.7648 0.2455,3.52 0.3471,5.2655 0.1017,1.7454 0.185,3.342 0.2499,4.7898 0.0649,1.4478 0.1176,2.7955 0.158,4.043 0.0404,1.2476 0.0848,2.4104 0.1331,3.4883 0.0484,1.078 0.1024,2.057 0.162,2.9371 0.0596,0.8801 0.1962,2.1662 0.4098,3.8585 0.2136,1.6921 0.3683,3.2054 0.4641,4.5398 0.0958,1.3343 0.1458,2.7214 0.1502,4.1614 0.004,1.44 0.0675,1.9613 0.1892,1.564 0.1217,-0.3972 0.1898,-1.4736 0.2042,-3.2291 0.0145,-1.7555 -0.0493,-2.5049 -0.1915,-2.2483 -0.1422,0.2566 -0.2574,0.5531 -0.3456,0.8893 -0.0882,0.3362 -0.1525,0.6937 -0.1929,1.0722 -0.0404,0.3786 -0.0614,1.3156 -0.063,2.8111 -10e-4,1.4954 -0.0185,2.7007 -0.0509,3.6158 -0.0323,0.9151 -0.0496,1.7515 -0.0519,2.5089 -0.002,0.7575 -0.004,1.1561 -0.004,1.196 -10e-5,0.0399 -7e-4,0.0563 -0.002,0.0493 -10e-4,-0.007 -0.0129,-0.0777 -0.0352,-0.2118 -0.0223,-0.134 -0.1409,-0.2391 -0.3559,-0.3151 -0.2149,-0.0761 -0.5121,-0.1096 -0.8915,-0.1004 -0.3794,0.009 -0.7152,0.0394 -1.0074,0.0908 -0.2922,0.0514 -0.5238,-0.003 -0.6949,-0.1639 -0.1711,-0.1607 -0.4108,-0.2649 -0.719,-0.3127 -0.3083,-0.0479 -1.0385,-0.0719 -2.1908,-0.0721 -1.1522,-3e-4 -2.0167,-0.0399 -2.5934,-0.1189 -0.5768,-0.0789 -1.2559,-0.2462 -2.0373,-0.5018 -0.7815,-0.2556 -1.4193,-0.4374 -1.9135,-0.5453 -0.4943,-0.1081 -0.8299,-0.1629 -1.0067,-0.1646 -0.1769,-0.002 -0.2811,-0.003 -0.3128,-0.003 -0.0316,-3e-4 -0.006,-0.0105 0.0753,-0.0305 0.0819,-0.0201 0.3516,-0.0863 0.8091,-0.1985 0.4575,-0.1122 0.9357,-0.1808 1.4347,-0.2057 0.499,-0.0249 1.1454,-0.0834 1.939,-0.1756 0.7936,-0.0922 1.2145,-0.1411 1.2628,-0.1467 0.0482,-0.006 0.0605,-0.0102 0.037,-0.0137 -0.0236,-0.003 -0.2294,-0.0337 -0.6174,-0.0908 -0.388,-0.0571 -0.9608,-0.0863 -1.7186,-0.0877 -0.7577,-0.001 -1.5428,0.0392 -2.3553,0.1218 -0.8125,0.0825 -1.5183,0.1495 -2.1174,0.2009 -0.5992,0.0514 -1.2477,0.0778 -1.9456,0.0791 -0.6979,10e-4 -1.4244,0.0373 -2.1794,0.1079 -0.7551,0.0706 -1.6491,0.1073 -2.6822,0.1101 -1.033,0.003 -1.9316,-0.015 -2.6955,-0.0535 -0.7639,-0.0385 -1.6152,-0.0695 -2.5537,-0.0928 -0.9385,-0.0233 -1.827,-0.0465 -2.6654,-0.0697 -0.8385,-0.0232 -1.4004,-0.071 -1.6858,-0.1432 -0.2854,-0.0723 -0.5518,-0.1644 -0.7993,-0.2764 -0.2475,-0.112 -0.5631,-0.188 -0.9468,-0.2279 -0.3837,-0.04 -0.5699,-0.1679 -0.5586,-0.3838 0.0113,-0.2159 0.0591,-0.4232 0.1434,-0.6217 0.0843,-0.1986 0.127,-0.5133 0.1282,-0.9441 10e-4,-0.4309 -0.1296,-0.6469 -0.3925,-0.648 -0.2628,-10e-4 -0.4831,0.0645 -0.6607,0.1972 -0.1776,0.1326 -0.449,0.5753 -0.8141,1.3281 -0.3651,0.7528 -0.7527,1.368 -1.1628,1.8455 -0.4101,0.4776 -0.6042,0.6192 -0.5823,0.4248 0.0218,-0.1944 0.002,-0.3926 -0.0584,-0.5947 -0.0607,-0.2022 -0.0859,-0.8048 -0.0755,-1.808 0.0103,-1.0031 0.0936,-2.3571 0.25,-4.062 0.1564,-1.7049 0.2846,-3.394 0.3847,-5.0673 0.1,-1.6733 0.1817,-3.3934 0.245,-5.1603 0.0634,-1.7669 0.1068,-3.1034 0.1304,-4.0094 0.0235,-0.906 0.0366,-3.5435 0.0393,-7.9126 0.003,-4.3689 -0.0183,-7.1739 -0.0626,-8.415 -0.0443,-1.241 -0.1265,-3.0683 -0.2464,-5.4817 -0.1198,-2.4134 -0.205,-4.205 -0.2553,-5.375 -0.0505,-1.1699 -0.1483,-2.9257 -0.2936,-5.2673 -0.1454,-2.3415 -0.266,-4.1087 -0.3619,-5.3014 -0.0959,-1.1927 -0.248,-2.9397 -0.4562,-5.241 -0.2082,-2.3012 -0.3564,-4.0327 -0.4446,-5.1944 -0.0882,-1.1616 -0.1589,-2.331 -0.212,-3.5082 -0.0532,-1.1772 -0.0876,-2.35 -0.1034,-3.5183 -0.0157,-1.1683 -0.0245,-2.8024 -0.0262,-4.9022 -0.002,-2.0998 0.0143,-3.3521 0.0482,-3.7568 0.0339,-0.4048 0.164,-1.1567 0.3903,-2.2559 0.2264,-1.0992 0.451,-2.2101 0.6738,-3.3327 0.2229,-1.1225 0.4249,-2.2271 0.6062,-3.3136 0.1813,-1.0866 0.331,-2.234 0.4491,-3.4422 0.1181,-1.2083 0.1968,-2.4364 0.2361,-3.6842 0.0392,-1.2478 0.0945,-2.1189 0.1659,-2.6131 0.0713,-0.4942 0.1438,-0.8878 0.2175,-1.1808 0.0738,-0.293 0.2416,-0.489 0.5035,-0.5881 0.2618,-0.0991 0.5959,-0.1488 1.0021,-0.1489 0.4062,-10e-5 0.7433,0.0381 1.0114,0.1146 0.268,0.0765 0.5588,0.2682 0.8724,0.5751 0.3137,0.3068 0.614,0.8408 0.901,1.602 0.2869,0.7613 0.4995,1.8427 0.6377,3.2443 0.1383,1.4015 0.2195,3.3273 0.2438,5.7774 0.0242,2.4501 0.0375,5.3613 0.0399,8.7338 0.002,3.3725 -10e-4,7.0833 -0.0116,11.1325 -0.0101,4.0491 0.0729,8.2886 0.2492,12.7185 0.1763,4.4299 0.4676,8.7049 0.8738,12.825 0.4062,4.1201 0.8004,7.8351 1.1826,11.1449 0.3823,3.3099 0.7307,6.2679 1.0454,8.874 0.3146,2.6061 0.5712,4.8135 0.7695,6.6223 0.1984,1.8086 0.3858,3.3774 0.562,4.7063 0.1763,1.3288 0.362,2.5624 0.5569,3.7007 0.195,1.1383 0.4658,2.5188 0.8125,4.1417 0.3466,1.6228 0.6291,2.7965 0.8474,3.521 0.2184,0.7245 0.4023,1.1373 0.5519,1.2385 0.1495,0.1012 0.2632,-0.1321 0.3411,-0.6998 0.078,-0.5678 0.1182,-1.2098 0.1208,-1.9259 0.003,-0.7161 -0.0181,-1.6178 -0.0622,-2.7053 -0.0441,-1.0874 -0.1179,-2.3552 -0.2214,-3.8033 -0.1035,-1.4481 -0.21,-3.0446 -0.3194,-4.7897 -0.1095,-1.745 -0.1983,-3.7172 -0.2667,-5.9164 -0.0683,-2.1991 -0.1059,-4.5358 -0.1127,-7.01 -0.007,-2.4742 0.0781,-5.2039 0.2548,-8.1892 0.1766,-2.9852 0.4237,-6.1474 0.7413,-9.4864 0.3175,-3.339 0.6969,-6.8505 1.1381,-10.5344 0.4412,-3.684 0.9447,-7.4392 1.5103,-11.2655 0.5657,-3.8264 1.1872,-7.5711 1.8644,-11.2343 0.6772,-3.6632 1.3261,-6.9877 1.9467,-9.9735 0.6206,-2.9859 1.194,-5.5465 1.7203,-7.682 0.5263,-2.1354 0.9709,-3.7847 1.3338,-4.948 0.363,-1.1632 0.6492,-2.0571 0.8586,-2.6817 0.2094,-0.6246 0.3304,-0.9855 0.363,-1.0827 0.0326,-0.0972 0.0502,-0.1352 0.0528,-0.1139 0.003,0.0212 0.0123,0.1 0.029,0.2363 0.0166,0.1363 -0.0849,0.6437 -0.3047,1.5222 -0.2197,0.8786 -0.6013,2.428 -1.1449,4.6484 -0.5435,2.2204 -1.1802,5.1219 -1.9099,8.7044 -0.7298,3.5826 -1.392,7.4594 -1.9866,11.6304 -0.5945,4.171 -0.9815,8.4046 -1.1609,12.7005 -0.1794,4.296 -0.179,8.4052 10e-4,12.3275 0.1802,3.9223 0.4841,7.4381 0.9115,10.5473 0.4275,3.1092 0.8399,5.9307 1.2373,8.4646 0.3975,2.5339 0.7217,4.6998 0.9726,6.4978 0.251,1.798 0.4503,3.3626 0.5979,4.6939 0.1477,1.3313 0.2889,2.5209 0.4236,3.569 0.1958,1.5237 0.6329,3.9226 1.3114,7.1966" /></g><g
       transform="matrix(0.5454546,0,0,-0.5454546,-22.5,795)"
       id="g2553"><path
         inkscape:connector-curvature="0"
         id="path2555"
         style="fill:none;stroke:#c6e9f1;stroke-width:24;stroke-linecap:round;stroke-linejoin:round;stroke-miterlimit:10;stroke-dasharray:none;stroke-opacity:0.5"
         d="m 531.1989,781.0168 c -0.8064,0.006 -1.3715,-0.0954 -1.6951,-0.3032 -0.2234,-0.1434 -0.3995,-0.3695 -0.5282,-0.6785 -0.1287,-0.309 -0.2372,-0.7337 -0.3256,-1.2743 -0.0884,-0.5406 -0.1819,-1.296 -0.2806,-2.2662 -0.0986,-0.9702 -0.2075,-1.7043 -0.3267,-2.2022 -0.1191,-0.498 -0.2629,-0.9174 -0.4312,-1.2581 -0.1684,-0.3407 -0.3938,-0.6725 -0.6763,-0.9955 -0.2824,-0.323 -0.5843,-0.6151 -0.9057,-0.8764 -0.3213,-0.2614 -0.6311,-0.548 -0.9292,-0.8598 -0.2982,-0.3118 -0.5887,-0.5292 -0.8715,-0.6523 -0.2829,-0.1231 -0.6497,-0.2407 -1.1004,-0.3527 -0.4508,-0.1121 -1.0624,-0.1868 -1.8348,-0.2242 -0.7724,-0.0374 -1.1258,-0.1564 -1.0601,-0.3568 0.0656,-0.2005 0.1747,-0.4078 0.327,-0.6219 0.1525,-0.2141 0.1573,-0.3577 0.0146,-0.4308 -0.1428,-0.0731 -0.2211,-0.1132 -0.235,-0.1203 -0.0138,-0.007 9e-4,-0.006 0.0442,0.002 0.0434,0.008 0.2879,0.056 0.7336,0.1426 0.4458,0.0867 0.9653,0.1495 1.5586,0.1882 0.5932,0.0387 1.8207,0.0588 3.6825,0.0602 1.8617,10e-4 3.2267,-0.0192 4.0949,-0.062 0.8681,-0.0427 1.9554,-0.1368 3.2619,-0.2821 1.3065,-0.1452 2.5458,-0.2634 3.7179,-0.3543 1.1722,-0.0911 2.1231,-0.1727 2.8527,-0.245 0.7297,-0.0723 1.436,-0.122 2.1189,-0.1492 0.683,-0.0272 1.4571,-0.0409 2.3222,-0.0411 0.8652,-3e-4 1.6751,0.0401 2.4296,0.1213 0.7545,0.0811 1.4632,0.1782 2.126,0.2913 0.6629,0.113 1.4482,0.1825 2.3559,0.2087 0.9077,0.0261 1.6319,-0.052 2.1725,-0.2344 0.5406,-0.1825 0.9492,-0.3151 1.2257,-0.398 0.2765,-0.0829 0.7926,-0.3248 1.5484,-0.7257 0.7557,-0.4009 1.2962,-0.6355 1.6212,-0.7037 0.3251,-0.0681 0.4793,0.0175 0.4625,0.257 -0.0169,0.2394 -0.1578,0.6267 -0.4228,1.1617 -0.265,0.5351 -0.4902,1.0102 -0.6757,1.4251 -0.1854,0.4149 -0.3642,0.8943 -0.5364,1.438 -0.1721,0.5438 -0.3787,1.2591 -0.6198,2.1461 -0.2411,0.8869 -0.5081,1.9544 -0.8011,3.2024 -0.2929,1.2481 -0.5085,2.2083 -0.6468,2.8806 -0.1382,0.6723 -0.2638,1.3412 -0.3767,2.0068 -0.113,0.6656 -0.2025,1.3343 -0.2685,2.0063 -0.0661,0.6718 -0.1209,1.8247 -0.1644,3.4584 -0.0435,1.6338 -0.0841,4.1013 -0.1216,7.4024 -0.0376,3.3011 -0.0675,5.4832 -0.0898,6.5464 -0.0223,1.0631 -0.0347,3.4128 -0.0372,7.0491 -0.003,3.6363 0.0617,6.9354 0.1924,9.8974 0.1307,2.9619 0.2337,6.0276 0.309,9.197 0.0753,3.1694 0.1194,5.27 0.1321,6.3018 0.0128,1.0318 0.0199,5.4263 0.0213,13.1835 10e-4,7.7573 0.0197,12.2302 0.055,13.4188 0.0352,1.1886 0.0948,2.2244 0.1789,3.1074 0.084,0.883 0.2056,1.8339 0.3647,2.8528 0.1591,1.0188 0.3606,2.1016 0.6043,3.2482 0.2439,1.1465 0.4234,2.1388 0.5388,2.9769 0.1153,0.838 0.1991,1.5303 0.2512,2.0769 0.0521,0.5465 -0.0436,1.0729 -0.287,1.5792 -0.2434,0.5062 -0.3723,1.0318 -0.3868,1.5766 -0.0145,0.5447 -0.139,0.8285 -0.3735,0.8514 -0.2345,0.0228 -0.5414,0.1009 -0.9206,0.2341 -0.3793,0.1332 -0.7037,0.2257 -0.9731,0.2773 -0.2693,0.0516 -1.4983,0.079 -3.687,0.082 -2.1886,0.003 -3.6643,-0.0535 -4.427,-0.1693 -0.7627,-0.1159 -1.5199,-0.2528 -2.2715,-0.4109 -0.7517,-0.158 -1.4796,-0.2764 -2.1836,-0.3552 -0.7041,-0.0789 -1.4905,-0.1267 -2.3593,-0.1435 -0.8688,-0.0168 -1.5846,-0.0659 -2.1473,-0.1471 -0.5627,-0.0811 -1.1447,-0.1996 -1.7459,-0.3552 -0.6013,-0.1556 -1.211,-0.278 -1.829,-0.3672 -0.6181,-0.0892 -2.1847,-0.1359 -4.7,-0.1399 -2.5151,-0.004 -4.2121,0.0297 -5.0909,0.1015 -0.8788,0.0717 -1.5836,0.12 -2.1144,0.1447 -0.5308,0.0248 -0.9592,0.0681 -1.2851,0.1299 -0.3259,0.0619 -0.4895,-0.0781 -0.4908,-0.4198 -10e-4,-0.3417 -0.0423,-0.5841 -0.1229,-0.7271 -0.0805,-0.143 -0.234,-0.2175 -0.4604,-0.2234 -0.2264,-0.006 -0.5481,0.0886 -0.9653,0.2838 -0.4172,0.1953 -0.6615,0.1529 -0.733,-0.1271 -0.0714,-0.2799 -0.126,-0.6358 -0.1636,-1.0675 -0.0376,-0.4317 -0.0585,-1.2736 -0.0627,-2.5258 -0.004,-1.2522 -10e-4,-2.2322 0.009,-2.94 0.0104,-0.7078 0.0669,-1.4171 0.1697,-2.128 0.1028,-0.7109 0.231,-1.4063 0.3848,-2.0861 0.1536,-0.6799 0.3203,-1.3409 0.5,-1.9828 0.1796,-0.642 0.4662,-1.5675 0.8596,-2.7764 0.3935,-1.2089 0.666,-2.1311 0.8175,-2.7667 0.1515,-0.6356 0.2792,-1.2548 0.383,-1.8576 0.1038,-0.6027 0.1831,-1.2282 0.2378,-1.8764 0.0547,-0.6482 0.0908,-1.7825 0.1083,-3.4029 0.0175,-1.6204 -0.0115,-2.9427 -0.087,-3.967 -0.0754,-1.0242 -0.2338,-2.7883 -0.4749,-5.2924 -0.2412,-2.5039 -0.4122,-4.378 -0.513,-5.6221 -0.1008,-1.2442 -0.1784,-2.3981 -0.2328,-3.4618 -0.0545,-1.0637 -0.0961,-2.101 -0.125,-3.1119 -0.029,-1.0108 -0.056,-2.546 -0.0811,-4.6057 -0.0251,-2.0597 -0.0382,-5.4997 -0.0395,-10.3199 -10e-4,-4.8202 -0.0242,-7.9368 -0.0685,-9.3497 -0.0443,-1.4131 -0.0961,-2.8147 -0.1553,-4.2049 -0.0592,-1.3902 -0.1035,-2.7183 -0.1329,-3.9845 -0.0294,-1.2661 -0.0457,-2.797 -0.0489,-4.5925 -0.003,-1.7955 0.0291,-3.0271 0.0968,-3.6946 0.0678,-0.6675 0.2217,-1.5091 0.4618,-2.525 0.24,-1.0158 0.5227,-1.9548 0.8479,-2.8169 0.3253,-0.8622 0.7639,-1.9278 1.3159,-3.1969 0.552,-1.2691 0.9555,-2.1386 1.2105,-2.6087 0.2551,-0.47 0.4269,-0.7231 0.5155,-0.7593 0.0886,-0.0363 0.1765,0.17 0.2636,0.6186 0.0871,0.4486 0.1676,1.3198 0.2415,2.6135 0.0739,1.2938 0.1485,3.0438 0.2237,5.25 0.0752,2.2062 0.1543,4.8286 0.2375,7.867 0.0831,3.0385 0.2071,6.2629 0.3718,9.6734 0.1648,3.4104 0.382,6.9542 0.6514,10.6314 0.2695,3.6772 0.5728,7.3191 0.9101,10.9256 0.3373,3.6066 0.678,6.9886 1.022,10.1463 0.3441,3.1576 0.678,6.1379 1.0019,8.941 0.3239,2.8031 0.6063,5.2232 0.8474,7.2604 0.241,2.0371 0.4687,3.7594 0.6832,5.1667 0.2144,1.4074 0.4367,2.6459 0.6668,3.7155 0.23,1.0696 0.4791,1.9831 0.7473,2.7406 0.2681,0.7575 0.5486,1.4002 0.8414,1.9282 0.2928,0.528 0.5804,0.9402 0.8627,1.2365 0.2822,0.2963 0.5652,0.4819 0.849,0.5567 0.2838,0.0749 0.5559,0.0274 0.8164,-0.1425 0.2605,-0.17 0.5146,-0.6548 0.7623,-1.4546 0.2477,-0.7997 0.4504,-1.937 0.6082,-3.412 0.1578,-1.475 0.2993,-3.2795 0.4246,-5.4134 0.1253,-2.1339 0.2725,-4.6347 0.4415,-7.5024 0.169,-2.8677 0.3728,-5.9426 0.6113,-9.2246 0.2386,-3.2821 0.508,-6.5518 0.8083,-9.8091 0.3003,-3.2574 0.6428,-6.6892 1.0275,-10.2955 0.3847,-3.6062 0.784,-7.0699 1.198,-10.391 0.414,-3.3211 0.8138,-6.3809 1.1995,-9.1795 0.3856,-2.7986 0.7581,-5.3049 1.1174,-7.519 0.3594,-2.2141 0.6952,-3.9676 1.0076,-5.2605 0.3123,-1.2929 0.5558,-2.1866 0.7305,-2.6811 0.1747,-0.4946 0.3099,-0.6674 0.4056,-0.5186 0.0956,0.1488 0.1482,0.8342 0.1578,2.0563 0.01,1.222 -0.0295,2.7777 -0.1172,4.6672 -0.126,2.7148 -0.0834,9.2436 0.1278,19.5864" /></g><g
       id="g879" /><g
       transform="matrix(0.5454546,0,0,-0.5454546,0,792)"
       id="g2381"><path
         inkscape:connector-curvature="0"
         id="path2383"
         style="fill:none;stroke:#000000;stroke-width:4.67716503;stroke-linecap:round;stroke-linejoin:round;stroke-miterlimit:10;stroke-dasharray:none;stroke-opacity:1"
         d="m 165.7574,708.8524 h 76.5727 V 880.183 H 165.7574 V 708.8524" /></g><g
       transform="matrix(0.5454546,0,0,-0.5454546,0,792)"
       id="g2385"><path
         inkscape:connector-curvature="0"
         id="path2387"
         style="fill:none;stroke:#000000;stroke-width:4.67716503;stroke-linecap:round;stroke-linejoin:round;stroke-miterlimit:10;stroke-dasharray:none;stroke-opacity:1"
         d="m 105.9363,727.6021 h 56.4562" /></g><g
       transform="matrix(0.5454546,0,0,-0.5454546,0,792)"
       id="g2389"><path
         inkscape:connector-curvature="0"
         id="path2391"
         style="fill:none;stroke:#000000;stroke-width:4.67716503;stroke-linecap:round;stroke-linejoin:round;stroke-miterlimit:10;stroke-dasharray:none;stroke-opacity:1"
         d="m 105.8855,760.2665 h 58.1178" /></g><g
       transform="matrix(0.5454546,0,0,-0.5454546,0,792)"
       id="g2393"><path
         inkscape:connector-curvature="0"
         id="path2395"
         style="fill:none;stroke:#000000;stroke-width:4.67716503;stroke-linecap:round;stroke-linejoin:round;stroke-miterlimit:10;stroke-dasharray:none;stroke-opacity:1"
         d="m 244.9522,728.2281 h 53.4375" /></g><g
       transform="matrix(0.5454546,0,0,-0.5454546,0,792)"
       id="g2397"><path
         inkscape:connector-curvature="0"
         id="path2399"
         style="fill:none;stroke:#000000;stroke-width:4.67716503;stroke-linecap:round;stroke-linejoin:round;stroke-miterlimit:10;stroke-dasharray:none;stroke-opacity:1"
         d="m 243.5063,759.1835 h 56.3928" /></g><g
       transform="matrix(0.5454546,0,0,-0.5454546,0,792)"
       id="g2401"><path
         inkscape:connector-curvature="0"
         id="path2403"
         style="fill:none;stroke:#000000;stroke-width:4.67716503;stroke-linecap:round;stroke-linejoin:round;stroke-miterlimit:10;stroke-dasharray:none;stroke-opacity:1"
         d="m 244.6859,867.2527 h 58.9803" /></g><g
       transform="matrix(0.5454546,0,0,-0.5454546,0,792)"
       id="g2405"><path
         inkscape:connector-curvature="0"
         id="path2407"
         style="fill:none;stroke:#000000;stroke-width:4.67716503;stroke-linecap:round;stroke-linejoin:round;stroke-miterlimit:10;stroke-dasharray:none;stroke-opacity:1"
         d="m 103.298,866.8467 h 58.5998" /></g><g
       transform="matrix(0.5454546,0,0,-0.5454546,0,792)"
       id="g2409"><path
         inkscape:connector-curvature="0"
         id="path2411"
         style="fill:none;stroke:#000000;stroke-width:4.67716503;stroke-linecap:round;stroke-linejoin:round;stroke-miterlimit:10;stroke-dasharray:none;stroke-opacity:1"
         d="m 134.1072,800.2551 c -0.8125,-0.0145 -1.1618,-0.004 -1.0479,0.0323 0.1162,0.0367 0.4817,0.1523 1.0964,0.3468" /></g><g
       transform="matrix(0.5454546,0,0,-0.5454546,0,792)"
       id="g2413"><path
         inkscape:connector-curvature="0"
         id="path2415"
         style="fill:none;stroke:#000000;stroke-width:4.67716503;stroke-linecap:round;stroke-linejoin:round;stroke-miterlimit:10;stroke-dasharray:none;stroke-opacity:1"
         d="m 134.158,810.198 c -0.2174,0.0306 -0.3319,0.0468 -0.3436,0.0485 l -0.002,3e-4 0.0386,-0.006 c 0.0457,-0.007 0.4946,-0.0779 1.3465,-0.2119" /></g><g
       transform="matrix(0.5454546,0,0,-0.5454546,0,792)"
       id="g2417"><path
         inkscape:connector-curvature="0"
         id="path2419"
         style="fill:none;stroke:#000000;stroke-width:4.67716503;stroke-linecap:round;stroke-linejoin:round;stroke-miterlimit:10;stroke-dasharray:none;stroke-opacity:1"
         d="m 135.2996,818.4717 c -0.9741,0.4452 -1.5225,0.6959 -1.6452,0.7519 l -0.0808,0.0396 0.029,-0.009 c 0.0735,-0.0272 0.4022,-0.1491 0.9861,-0.3657" /></g><g
       transform="matrix(0.5454546,0,0,-0.5454546,0,792)"
       id="g2421"><path
         inkscape:connector-curvature="0"
         id="path2423"
         style="fill:none;stroke:#000000;stroke-width:4.67716503;stroke-linecap:round;stroke-linejoin:round;stroke-miterlimit:10;stroke-dasharray:none;stroke-opacity:1"
         d="m 271.0303,795.5787 c -0.3249,10e-5 -0.4973,2e-4 -0.5173,2e-4 -0.014,0 -0.007,0.009 0.0195,0.0258 0.0385,0.0244 0.3702,0.2354 0.9952,0.6329" /></g><g
       transform="matrix(0.5454546,0,0,-0.5454546,0,792)"
       id="g2425"><path
         inkscape:connector-curvature="0"
         id="path2427"
         style="fill:none;stroke:#000000;stroke-width:4.67716503;stroke-linecap:round;stroke-linejoin:round;stroke-miterlimit:10;stroke-dasharray:none;stroke-opacity:1"
         d="m 270.7006,805.1896 c -0.2922,0.0927 -0.4502,0.1428 -0.4739,0.1504 -0.0166,0.005 -0.002,0.0178 0.0438,0.0376 0.0651,0.0282 0.4995,0.2163 1.3034,0.5642" /></g><g
       transform="matrix(0.5454546,0,0,-0.5454546,0,792)"
       id="g2429"><path
         inkscape:connector-curvature="0"
         id="path2431"
         style="fill:none;stroke:#000000;stroke-width:4.67716503;stroke-linecap:round;stroke-linejoin:round;stroke-miterlimit:10;stroke-dasharray:none;stroke-opacity:1"
         d="m 271.4617,814.3432 c -1.2806,0.3372 -1.9637,0.5171 -2.0493,0.5396 -0.0603,0.0159 -0.0747,0.0248 -0.0433,0.0269 0.0446,0.003 0.4002,0.0262 1.0671,0.0699" /></g><g
       id="g3851"
       transform="rotate(-5.7177767,194.05548,397.53153)"><g
         id="g2433"
         transform="matrix(0.5454546,0,0,-0.5454546,0,792)"><path
           d="m 342.2381,783.9039 c 1.2358,-0.3041 2.6516,-0.4676 4.2474,-0.4903 1.5959,-0.0228 3.1036,-0.1103 4.523,-0.2626 1.4196,-0.1523 2.8596,-0.3513 4.3201,-0.597 1.4606,-0.2457 2.7404,-0.4268 3.8395,-0.5435 1.0991,-0.1167 1.9991,-0.1771 2.7001,-0.1814 0.701,-0.004 1.0946,0.1448 1.1809,0.4471 0.1232,0.4316 -0.2027,0.9184 -0.9776,1.4605"
           style="fill:none;stroke:#000000;stroke-width:4.67716503;stroke-linecap:round;stroke-linejoin:round;stroke-miterlimit:10;stroke-dasharray:none;stroke-opacity:1"
           id="path2435"
           inkscape:connector-curvature="0" /></g><g
         id="g2437"
         transform="matrix(0.5454546,0,0,-0.5454546,0,792)"><path
           d="m 345.574,789.4538 c -0.6936,0.0896 -1.0669,0.1377 -1.1198,0.1445 l -0.0191,0.002 0.0709,-0.0159 c 0.0718,-0.0143 0.4495,-0.0896 1.1329,-0.2258 0.6834,-0.1362 1.7225,-0.2714 3.1171,-0.4054 1.3947,-0.1342 3.0088,-0.27 4.8423,-0.4077 1.8335,-0.1376 3.4814,-0.2891 4.9438,-0.4543 2.446,-0.2763 4.0071,-0.4178 4.683,-0.4245"
           style="fill:none;stroke:#000000;stroke-width:4.67716503;stroke-linecap:round;stroke-linejoin:round;stroke-miterlimit:10;stroke-dasharray:none;stroke-opacity:1"
           id="path2439"
           inkscape:connector-curvature="0" /></g><g
         id="g2441"
         transform="matrix(0.5454546,0,0,-0.5454546,0,792)"><path
           d="m 364.1706,779.0897 c -0.2551,-0.1784 -0.4058,-0.7509 -0.4523,-1.7173 -0.0296,-0.6154 0.2917,-0.6071 0.9639,0.0248 0.6722,0.6318 1.2994,1.2475 1.8816,1.8469 0.5823,0.5995 1.2637,1.2157 2.0443,1.8486 0.7805,0.6328 1.9656,1.4731 3.5553,2.5207 1.5896,1.0476 2.5569,1.7199 2.902,2.017 0.345,0.2972 0.5428,0.5873 0.5935,0.8705 0.0506,0.2831 -0.6159,1.141 -1.9996,2.5735 -1.3837,1.4325 -2.5348,2.6073 -3.4532,3.5244 -0.9185,0.9171 -1.7282,1.7503 -2.4291,2.4997 -0.7009,0.7494 -1.0843,1.2036 -1.1502,1.3625 -0.0924,0.2229 0.3136,0.2588 1.2179,0.1078"
           style="fill:none;stroke:#000000;stroke-width:4.67716503;stroke-linecap:round;stroke-linejoin:round;stroke-miterlimit:10;stroke-dasharray:none;stroke-opacity:1"
           id="path2443"
           inkscape:connector-curvature="0" /></g></g><g
       transform="matrix(0.5454546,0,0,-0.5454546,68.13209,795.7052)"
       id="g2445"><path
         inkscape:connector-curvature="0"
         id="path2447"
         style="fill:none;stroke:#000000;stroke-width:4.67716503;stroke-linecap:round;stroke-linejoin:round;stroke-miterlimit:10;stroke-dasharray:none;stroke-opacity:1"
         d="m 580.6263,874.7659 h 58.9804" /></g><g
       transform="matrix(0.5454546,0,0,-0.5454546,-22.5,795)"
       id="g2449"><path
         inkscape:connector-curvature="0"
         id="path2451"
         style="fill:none;stroke:#000000;stroke-width:4.67716503;stroke-linecap:round;stroke-linejoin:round;stroke-miterlimit:10;stroke-dasharray:none;stroke-opacity:1"
         d="m 470.0477,807.7682 c -0.8125,-0.0144 -1.1618,-0.004 -1.0479,0.0323 0.1162,0.0367 0.4817,0.1523 1.0964,0.3468" /></g><g
       transform="matrix(0.5454546,0,0,-0.5454546,-22.5,795)"
       id="g2453"><path
         inkscape:connector-curvature="0"
         id="path2455"
         style="fill:none;stroke:#000000;stroke-width:4.67716503;stroke-linecap:round;stroke-linejoin:round;stroke-miterlimit:10;stroke-dasharray:none;stroke-opacity:1"
         d="m 470.0985,817.7111 c -0.2174,0.0306 -0.3319,0.0468 -0.3436,0.0485 l -0.002,3e-4 0.0386,-0.006 c 0.0457,-0.007 0.4945,-0.0778 1.3465,-0.2118" /></g><g
       transform="matrix(0.5454546,0,0,-0.5454546,-22.5,795)"
       id="g2457"><path
         inkscape:connector-curvature="0"
         id="path2459"
         style="fill:none;stroke:#000000;stroke-width:4.67716503;stroke-linecap:round;stroke-linejoin:round;stroke-miterlimit:10;stroke-dasharray:none;stroke-opacity:1"
         d="m 471.2401,825.9849 c -0.9741,0.4452 -1.5225,0.6958 -1.6453,0.7519 l -0.0807,0.0395 0.029,-0.009 c 0.0735,-0.0272 0.4022,-0.1491 0.986,-0.3657" /></g><g
       transform="matrix(0.5454546,0,0,-0.5454546,68.13209,795.7052)"
       id="g2461"><path
         inkscape:connector-curvature="0"
         id="path2463"
         style="fill:none;stroke:#000000;stroke-width:4.67716503;stroke-linecap:round;stroke-linejoin:round;stroke-miterlimit:10;stroke-dasharray:none;stroke-opacity:1"
         d="m 606.9708,803.0919 c -0.3248,10e-5 -0.4973,10e-5 -0.5173,10e-5 -0.0141,0 -0.008,0.009 0.0195,0.0259 0.0385,0.0244 0.3702,0.2354 0.9953,0.6329" /></g><g
       transform="matrix(0.5454546,0,0,-0.5454546,68.13209,795.7052)"
       id="g2465"><path
         inkscape:connector-curvature="0"
         id="path2467"
         style="fill:none;stroke:#000000;stroke-width:4.67716503;stroke-linecap:round;stroke-linejoin:round;stroke-miterlimit:10;stroke-dasharray:none;stroke-opacity:1"
         d="m 606.6411,812.7028 c -0.2922,0.0927 -0.4502,0.1428 -0.4739,0.1503 -0.0166,0.005 -0.002,0.0179 0.0437,0.0377 0.0651,0.0282 0.4996,0.2163 1.3035,0.5642" /></g><g
       transform="matrix(0.5454546,0,0,-0.5454546,68.13209,795.7052)"
       id="g2469"><path
         inkscape:connector-curvature="0"
         id="path2471"
         style="fill:none;stroke:#000000;stroke-width:4.67716503;stroke-linecap:round;stroke-linejoin:round;stroke-miterlimit:10;stroke-dasharray:none;stroke-opacity:1"
         d="m 607.4022,821.8564 c -1.2806,0.3372 -1.9637,0.5171 -2.0493,0.5396 -0.0603,0.0159 -0.0747,0.0248 -0.0433,0.0269 0.0446,0.003 0.4003,0.0262 1.067,0.0698" /></g><g
       transform="matrix(0.5454546,0,0,-0.5454546,-19.502916,793.7659)"
       id="g2473"><path
         inkscape:connector-curvature="0"
         id="path2475"
         style="fill:none;stroke:#000000;stroke-width:4.67716503;stroke-linecap:round;stroke-linejoin:round;stroke-miterlimit:10;stroke-dasharray:none;stroke-opacity:1"
         d="m 501.5934,751.7945 h 63.0037 V 888.0486 H 501.5934 V 751.7945" /></g><g
       transform="matrix(0.5454546,0,0,-0.5454546,-10.15906,797.6445)"
       id="g2477"><path
         inkscape:connector-curvature="0"
         id="path2479"
         style="fill:none;stroke:#000000;stroke-width:4.67716503;stroke-linecap:round;stroke-linejoin:round;stroke-miterlimit:10;stroke-dasharray:none;stroke-opacity:1"
         d="m 574.8325,726.6042 h 54.1287 v 54.1288 h -54.1287 v -54.1288" /></g><g
       transform="matrix(0.5454546,0,0,-0.5454546,75.74848,795.5012)"
       id="g2481"><path
         inkscape:connector-curvature="0"
         id="path2483"
         style="fill:none;stroke:#000000;stroke-width:4.67716503;stroke-linecap:round;stroke-linejoin:round;stroke-miterlimit:10;stroke-dasharray:none;stroke-opacity:1"
         d="m 501.5934,751.7945 h 63.0037 V 888.0486 H 501.5934 V 751.7945" /></g><g
       transform="matrix(0.5454546,0,0,-0.5454546,-22.5,795)"
       id="g2485"><path
         inkscape:connector-curvature="0"
         id="path2487"
         style="fill:none;stroke:#000000;stroke-width:4.67716503;stroke-linecap:round;stroke-linejoin:round;stroke-miterlimit:10;stroke-dasharray:none;stroke-opacity:1"
         d="m 449.4708,732.3692 h 144.972" /></g><g
       transform="matrix(0.5454546,0,0,-0.5454546,-22.5,795)"
       id="g2489"><path
         inkscape:connector-curvature="0"
         id="path2491"
         style="fill:none;stroke:#000000;stroke-width:4.67716503;stroke-linecap:round;stroke-linejoin:round;stroke-miterlimit:10;stroke-dasharray:none;stroke-opacity:1"
         d="m 653.5002,731.298 h 140.639" /></g><g
       transform="matrix(0.5454546,0,0,-0.5454546,-22.5,795)"
       id="g2493"><path
         inkscape:connector-curvature="0"
         id="path2495"
         style="fill:none;stroke:#000000;stroke-width:4.67716503;stroke-linecap:round;stroke-linejoin:round;stroke-miterlimit:10;stroke-dasharray:none;stroke-opacity:1"
         d="m 571.6259,763.2311 h 23.5037" /></g><g
       transform="matrix(0.5454546,0,0,-0.5454546,-22.5,795)"
       id="g2497"><path
         inkscape:connector-curvature="0"
         id="path2499"
         style="fill:none;stroke:#000000;stroke-width:4.67716503;stroke-linecap:round;stroke-linejoin:round;stroke-miterlimit:10;stroke-dasharray:none;stroke-opacity:1"
         d="m 744.5156,763.5343 h 56.7848" /></g><g
       transform="matrix(0.5454546,0,0,-0.5454546,-22.5,795)"
       id="g2501"><path
         inkscape:connector-curvature="0"
         id="path2503"
         style="fill:none;stroke:#000000;stroke-width:4.67716503;stroke-linecap:round;stroke-linejoin:round;stroke-miterlimit:10;stroke-dasharray:none;stroke-opacity:1"
         d="m 651.9549,763.0425 h 27.8773" /></g><g
       transform="matrix(0.5454546,0,0,-0.5454546,-22.5,795)"
       id="g2505"><path
         inkscape:connector-curvature="0"
         id="path2507"
         style="fill:none;stroke:#000000;stroke-width:4.67716503;stroke-linecap:round;stroke-linejoin:round;stroke-miterlimit:10;stroke-dasharray:none;stroke-opacity:1"
         d="m 449.8142,762.6113 h 53.4416" /></g><g
       transform="matrix(0.5454546,0,0,-0.5454546,-22.5,795)"
       id="g2509"><path
         inkscape:connector-curvature="0"
         id="path2511"
         style="fill:none;stroke:#000000;stroke-width:4.67716503;stroke-linecap:round;stroke-linejoin:round;stroke-miterlimit:10;stroke-dasharray:none;stroke-opacity:1"
         d="m 448.4406,788.4879 c -0.2692,-0.1497 -0.5689,-0.1946 -0.899,-0.1348" /></g><g
       transform="matrix(0.5454546,0,0,-0.5454546,-22.5,795)"
       id="g2513"><path
         inkscape:connector-curvature="0"
         id="path2515"
         style="fill:none;stroke:#000000;stroke-width:4.67716503;stroke-linecap:round;stroke-linejoin:round;stroke-miterlimit:10;stroke-dasharray:none;stroke-opacity:1"
         d="m 447.5416,788.3531 57.1283,0.7074" /></g><g
       transform="matrix(0.5454546,0,0,-0.5454546,-22.5,795)"
       id="g2517"><path
         inkscape:connector-curvature="0"
         id="path2519"
         style="fill:none;stroke:#000000;stroke-width:4.67716503;stroke-linecap:round;stroke-linejoin:round;stroke-miterlimit:10;stroke-dasharray:none;stroke-opacity:1"
         d="M 572.949,790.967 H 676.6606" /></g><g
       transform="matrix(0.5454546,0,0,-0.5454546,-22.5,795)"
       id="g2521"><path
         inkscape:connector-curvature="0"
         id="path2523"
         style="fill:none;stroke:#000000;stroke-width:4.67716503;stroke-linecap:round;stroke-linejoin:round;stroke-miterlimit:10;stroke-dasharray:none;stroke-opacity:1"
         d="m 748.5457,790.9468 h 53.6132" /></g><g
       transform="matrix(0.5454546,0,0,-0.5454546,-22.5,795)"
       id="g2525"><path
         inkscape:connector-curvature="0"
         id="path2527"
         style="fill:none;stroke:#000000;stroke-width:4.67716503;stroke-linecap:round;stroke-linejoin:round;stroke-miterlimit:10;stroke-dasharray:none;stroke-opacity:1"
         d="m 439.0067,875.6503 h 65.7036" /></g><g
       transform="matrix(0.5454546,0,0,-0.5454546,-22.5,795)"
       id="g2529"><path
         inkscape:connector-curvature="0"
         id="path2531"
         style="fill:none;stroke:#000000;stroke-width:4.67716503;stroke-linecap:round;stroke-linejoin:round;stroke-miterlimit:10;stroke-dasharray:none;stroke-opacity:1"
         d="M 570.5451,875.9737 H 678.509" /></g><g
       transform="matrix(0.5454546,0,0,-0.5454546,-22.5,795)"
       id="g2533"><path
         inkscape:connector-curvature="0"
         id="path2535"
         style="fill:none;stroke:#000000;stroke-width:4.67716503;stroke-linecap:round;stroke-linejoin:round;stroke-miterlimit:10;stroke-dasharray:none;stroke-opacity:1"
         d="m 621.2479,818.9871 c -0.5031,0.042 -0.8159,0.0146 -0.9383,-0.0822 -0.0855,-0.0675 0.0872,-0.1519 0.518,-0.2533 0.6365,-0.1497 1.3343,-0.1247 2.0933,0.0752" /></g><g
       transform="matrix(0.5454546,0,0,-0.5454546,-22.5,795)"
       id="g2537"><path
         inkscape:connector-curvature="0"
         id="path2539"
         style="fill:none;stroke:#000000;stroke-width:4.67716503;stroke-linecap:round;stroke-linejoin:round;stroke-miterlimit:10;stroke-dasharray:none;stroke-opacity:1"
         d="m 621.7646,827.7777 c -0.5432,0.0237 -0.8364,0.0365 -0.8797,0.0383 -0.0304,10e-4 -0.0198,0.0121 0.032,0.0321 0.0735,0.0285 0.5721,0.2216 1.4955,0.5794" /></g><g
       transform="matrix(0.5454546,0,0,-0.5454546,-22.5,795)"
       id="g2541"><path
         inkscape:connector-curvature="0"
         id="path2543"
         style="fill:none;stroke:#000000;stroke-width:4.67716503;stroke-linecap:round;stroke-linejoin:round;stroke-miterlimit:10;stroke-dasharray:none;stroke-opacity:1"
         d="m 620.8534,838.8654 c -0.1215,0.1536 -0.5205,0.2672 -1.197,0.3408 -0.421,0.0459 -0.6437,0.0701 -0.6681,0.0727 l -0.0139,0.002 0.0371,8e-4 c 0.0564,-9e-4 0.7641,-0.0122 2.1233,-0.034" /></g><g
       transform="matrix(0.5454546,0,0,-0.5454546,0,792)"
       id="g2565"><path
         inkscape:connector-curvature="0"
         id="path2567"
         style="fill:none;stroke:#000000;stroke-width:2.07873988;stroke-linecap:round;stroke-linejoin:round;stroke-miterlimit:10;stroke-dasharray:none;stroke-opacity:1"
         d="m 184.4834,780.9731 c -0.2165,0 -0.4308,-0.0816 -0.6427,-0.2446 -0.212,-0.1631 -0.4234,-0.2668 -0.6342,-0.3111 -0.2108,-0.0443 -0.4851,-0.049 -0.8229,-0.0141 -0.3379,0.0349 -0.7018,0.1488 -1.0919,0.3418 -0.39,0.1929 -0.7594,0.4083 -1.1082,0.646 -0.3488,0.2378 -0.5997,0.4351 -0.7526,0.5919 -0.1529,0.1569 -0.3556,0.4393 -0.6079,0.8472 -0.2523,0.4079 -0.48,0.8463 -0.6833,1.3152 -0.2032,0.4689 -0.3272,0.7976 -0.3719,0.9859 -0.0447,0.1885 -0.0619,0.4557 -0.0516,0.8016 0.0104,0.346 0.1587,0.6828 0.4451,1.0106 0.2863,0.3278 0.6538,0.6744 1.1025,1.0398 0.4487,0.3653 0.8037,0.6398 1.0648,0.8233 0.2612,0.1836 0.8001,0.5017 1.6166,0.9545 0.8165,0.4527 1.3319,0.7437 1.546,0.8728 0.2142,0.1292 0.3931,0.2647 0.5367,0.4066 0.1435,0.142 0.2624,0.2924 0.3565,0.4514 0.0941,0.1591 0.1617,0.4359 0.2029,0.8304 0.0413,0.3946 0.048,0.7029 0.0203,0.925 -0.0277,0.2221 -0.1006,0.4551 -0.2187,0.6991 -0.1181,0.244 -0.2595,0.4857 -0.424,0.7251 -0.1645,0.2394 -0.3449,0.4797 -0.5411,0.721 -0.1963,0.2411 -0.4052,0.47 -0.6267,0.6865 -0.2216,0.2165 -0.4477,0.4079 -0.6786,0.5744 -0.2308,0.1665 -0.4731,0.3011 -0.7269,0.4037 -0.2538,0.1026 -0.5122,0.1772 -0.7751,0.2237 -0.2629,0.0465 -0.5373,0.0721 -0.8231,0.0767 -0.2859,0.005 -0.5729,-0.0177 -0.8611,-0.067 -0.2881,-0.0493 -0.5756,-0.1376 -0.8622,-0.2647 -0.2867,-0.1272 -0.6889,-0.3487 -1.2065,-0.6646 -0.5176,-0.3159 -0.9203,-0.5751 -1.2081,-0.7776 -0.2878,-0.2026 -0.4377,-0.4396 -0.4496,-0.7112" /></g><g
       transform="matrix(0.5454546,0,0,-0.5454546,0,792)"
       id="g2569"><path
         inkscape:connector-curvature="0"
         id="path2571"
         style="fill:none;stroke:#000000;stroke-width:2.07873988;stroke-linecap:round;stroke-linejoin:round;stroke-miterlimit:10;stroke-dasharray:none;stroke-opacity:1"
         d="m 189.2761,784.3739 c -0.0319,-0.3009 -0.01,-0.4616 0.0666,-0.482 0.0537,-0.0144 0.1008,0.1751 0.1412,0.5682 0.0405,0.3932 0.0616,1.0451 0.0636,1.9557 0.002,0.9106 0.01,1.621 0.0232,2.1313 0.0136,0.5103 0.0465,1.0059 0.0988,1.487 0.0522,0.481 0.1242,0.9436 0.216,1.3878 0.0918,0.4441 0.1923,0.84 0.3015,1.1877 0.1093,0.3477 0.2381,0.6645 0.3865,0.9505 0.1483,0.286 0.302,0.5474 0.461,0.7842 0.1591,0.2368 0.3221,0.4463 0.489,0.6284 0.1669,0.1821 0.3341,0.3434 0.5018,0.4838 0.1677,0.1404 0.332,0.2606 0.493,0.3606 0.161,0.1001 0.3293,0.18 0.5048,0.2398 0.1756,0.0598 0.3545,0.0961 0.5366,0.1089 0.1821,0.0127 0.3764,0.006 0.583,-0.0197 0.2065,-0.0259 0.4134,-0.1228 0.6207,-0.2906 0.2072,-0.1678 0.4188,-0.4004 0.6346,-0.6978 0.2159,-0.2974 0.4279,-0.6409 0.6361,-1.0304 0.2082,-0.3896 0.4024,-0.8087 0.5827,-1.2573 0.1803,-0.4486 0.3329,-0.9081 0.4578,-1.3784 0.125,-0.4704 0.2225,-0.9407 0.2927,-1.4109 0.0701,-0.4703 0.113,-0.9303 0.1285,-1.3801 0.0155,-0.4499 0.0198,-0.9056 0.0128,-1.367 -0.007,-0.4614 -0.0574,-0.9245 -0.1514,-1.3894 -0.094,-0.4648 -0.2486,-1.0424 -0.4639,-1.7329 -0.2153,-0.6905 -0.4372,-1.3483 -0.6658,-1.9734" /></g><g
       transform="matrix(0.5454546,0,0,-0.5454546,0,792)"
       id="g2573"><path
         inkscape:connector-curvature="0"
         id="path2575"
         style="fill:none;stroke:#000000;stroke-width:2.07873988;stroke-linecap:round;stroke-linejoin:round;stroke-miterlimit:10;stroke-dasharray:none;stroke-opacity:1"
         d="m 209.5046,779.09 c -0.3817,-0.1034 -0.6772,-0.1508 -0.8864,-0.1422 -0.1435,0.006 -0.3063,0.1433 -0.4884,0.4122 -0.1821,0.2689 -0.336,0.5634 -0.4617,0.8833 -0.1257,0.3199 -0.2592,0.7187 -0.4007,1.1965 -0.1415,0.4779 -0.2881,1.01 -0.4397,1.5965 -0.1515,0.5863 -0.3028,1.211 -0.4536,1.8739 -0.1509,0.6629 -0.2992,1.3399 -0.4449,2.0308 -0.1458,0.691 -0.2726,1.3731 -0.3804,2.0464 -0.1079,0.6734 -0.1927,1.3425 -0.2544,2.0073 -0.0617,0.6648 -0.1058,1.3111 -0.1323,1.9388 -0.0266,0.6278 -0.0411,1.239 -0.0438,1.8336 -0.003,0.5946 0.006,1.1661 0.0262,1.7144 0.0201,0.5483 0.071,1.0513 0.1527,1.509 0.0818,0.4577 0.1768,0.878 0.2851,1.261 0.1082,0.3829 0.2297,0.7192 0.3644,1.0087 0.1347,0.2895 0.2842,0.5359 0.4487,0.7391 0.1645,0.2032 0.3448,0.3579 0.5411,0.4643 0.1963,0.1063 0.3976,0.1783 0.6038,0.2161 0.2062,0.0378 0.4028,0.0586 0.5897,0.0624 0.2715,0.005 0.6268,-0.1267 1.066,-0.3966" /></g><g
       transform="matrix(0.5454546,0,0,-0.5454546,0,792)"
       id="g2577"><path
         inkscape:connector-curvature="0"
         id="path2579"
         style="fill:none;stroke:#000000;stroke-width:2.07873988;stroke-linecap:round;stroke-linejoin:round;stroke-miterlimit:10;stroke-dasharray:none;stroke-opacity:1"
         d="m 212.6009,798.0148 c -0.1588,-0.1448 -0.2418,-0.5267 -0.2492,-1.1455 -0.007,-0.6188 0.0422,-1.5271 0.1483,-2.725 0.1062,-1.1978 0.1886,-2.2839 0.2474,-3.2583 0.0588,-0.9744 0.1047,-1.7366 0.1377,-2.2866 0.033,-0.5499 0.0621,-0.8976 0.0874,-1.043 0.0253,-0.1453 0.1151,-0.224 0.2694,-0.236 0.1544,-0.012 0.2703,-0.004 0.3479,0.0227 0.0775,0.0272 0.2258,0.2288 0.4449,0.6048 0.2191,0.3759 0.4634,0.9194 0.733,1.6303 0.2695,0.7111 0.545,1.4557 0.8265,2.2338 0.2814,0.7782 0.49,1.3116 0.6259,1.6001 0.1358,0.2885 0.2758,0.5434 0.42,0.7647 0.1442,0.2212 0.2846,0.4085 0.4212,0.5618 0.1366,0.1534 0.2762,0.2808 0.4188,0.3821 0.1425,0.1013 0.3512,0.1997 0.626,0.2951 0.2747,0.0953 0.5872,0.1525 0.9374,0.1715 0.3502,0.019 0.5827,0.006 0.6975,-0.038 0.1148,-0.0444 0.209,-0.1474 0.2826,-0.3089 0.0736,-0.1616 0.1311,-0.4266 0.1725,-0.7951 0.0415,-0.3685 0.0631,-0.9181 0.0649,-1.649 0.002,-0.7308 -0.0499,-1.6352 -0.1551,-2.7133 -0.1052,-1.078 -0.1791,-1.8492 -0.2219,-2.3137 -0.0428,-0.4645 -0.0863,-1.1336 -0.1305,-2.0071 -0.0442,-0.8736 -0.0342,-1.3533 0.0301,-1.4392 0.0919,-0.1228 0.4471,-0.2244 1.0656,-0.3048" /></g><g
       transform="matrix(0.5454546,0,0,-0.5454546,0,792)"
       id="g2581"><path
         inkscape:connector-curvature="0"
         id="path2583"
         style="fill:none;stroke:#000000;stroke-width:2.07873988;stroke-linecap:round;stroke-linejoin:round;stroke-miterlimit:10;stroke-dasharray:none;stroke-opacity:1"
         d="m 224.9688,778.1212 c -0.2158,-0.0385 -0.3295,-0.0587 -0.341,-0.0607 -0.008,-0.001 -0.005,-0.002 0.01,-0.002 0.0146,4e-4 0.1208,0.003 0.3186,0.008 0.1978,0.005 0.4016,0.0902 0.6116,0.256 0.21,0.1659 0.4485,0.4189 0.7155,0.7591 0.267,0.3403 0.5292,0.7424 0.7866,1.2064 0.2575,0.4641 0.5034,1.0033 0.7378,1.6178 0.2345,0.6144 0.4389,1.2941 0.6133,2.0391 0.1744,0.7449 0.3069,1.4816 0.3973,2.2102 0.0903,0.7285 0.1502,1.4924 0.1797,2.2917 0.0294,0.7994 0.0455,1.5774 0.0485,2.334 0.003,0.7567 -0.0243,1.4998 -0.0817,2.2295 -0.0574,0.7298 -0.1322,1.4649 -0.2245,2.2055 -0.0923,0.7406 -0.2418,1.7131 -0.4486,2.9173 -0.2067,1.2042 -0.3583,2.0348 -0.4545,2.4915 -0.0963,0.4568 -0.1891,0.8597 -0.2785,1.2086 -0.0894,0.349 -0.1741,0.6484 -0.2543,0.8983 -0.0802,0.2499 -0.1822,0.4961 -0.3061,0.7385 -0.1238,0.2425 -0.1658,0.3389 -0.1259,0.2892" /></g><g
       transform="matrix(0.5454546,0,0,-0.5454546,-22.5,795)"
       id="g2585"><path
         inkscape:connector-curvature="0"
         id="path2587"
         style="fill:none;stroke:#000000;stroke-width:2.07873988;stroke-linecap:round;stroke-linejoin:round;stroke-miterlimit:10;stroke-dasharray:none;stroke-opacity:1"
         d="m 516.3778,801.0452 c 0.1164,-0.1648 0.1534,-0.2987 0.111,-0.4018 -0.0296,-0.0716 -0.1747,-0.1324 -0.4353,-0.1823 -0.2606,-0.0499 -0.5049,-0.0753 -0.7329,-0.0762 -0.228,-9e-4 -0.5358,0.0934 -0.9234,0.2827 -0.3876,0.1893 -0.7856,0.437 -1.1941,0.7429 -0.4085,0.3059 -0.7413,0.614 -0.9985,0.9242 -0.2572,0.3101 -0.4133,0.5384 -0.4682,0.6848 -0.055,0.1465 -0.0778,0.3516 -0.0686,0.6153 0.009,0.2636 0.1641,0.5387 0.4646,0.8252 0.3006,0.2864 0.8532,0.7322 1.6576,1.3374 0.8045,0.6052 1.4158,1.0945 1.8339,1.468 0.4181,0.3735 0.7169,0.666 0.8965,0.8777 0.1796,0.2116 0.3251,0.4366 0.4364,0.675 0.1112,0.2385 0.1902,0.4918 0.237,0.7601 0.0467,0.2683 0.0725,0.5561 0.0771,0.8636 0.005,0.3074 -0.0326,0.6055 -0.1118,0.8943 -0.0793,0.2887 -0.195,0.5697 -0.3471,0.843 -0.1522,0.2733 -0.3258,0.5277 -0.5209,0.7633 -0.195,0.2355 -0.3888,0.4296 -0.5813,0.5821 -0.1926,0.1526 -0.4028,0.2762 -0.6308,0.3706 -0.2279,0.0945 -0.547,0.1556 -0.9572,0.1834 -0.4101,0.0278 -0.7118,0.0339 -0.9049,0.0184 -0.1931,-0.0156 -0.5116,-0.1016 -0.9552,-0.258 -0.6041,-0.213 -0.7098,-0.485 -0.3169,-0.8161" /></g><g
       transform="matrix(0.5454546,0,0,-0.5454546,-22.5,795)"
       id="g2589"><path
         inkscape:connector-curvature="0"
         id="path2591"
         style="fill:none;stroke:#000000;stroke-width:2.07873988;stroke-linecap:round;stroke-linejoin:round;stroke-miterlimit:10;stroke-dasharray:none;stroke-opacity:1"
         d="m 520.831,803.4087 c -0.2492,0.0272 -0.4053,0.2248 -0.4685,0.5929 -0.0631,0.3682 -0.1079,0.849 -0.1342,1.4426 -0.0264,0.5936 -0.0399,1.3388 -0.0408,2.2354 -8e-4,0.8965 0.0242,1.5661 0.0751,2.0088 0.0509,0.4427 0.1256,0.8548 0.224,1.2363 0.0984,0.3815 0.2136,0.7135 0.3456,0.9961 0.132,0.2825 0.28,0.5319 0.4442,0.748 0.1642,0.2161 0.3342,0.396 0.5101,0.5398 0.1759,0.1439 0.3515,0.2547 0.5269,0.3324 0.1754,0.0777 0.4578,0.1333 0.8473,0.1668 0.3895,0.0334 0.6773,-6e-4 0.8635,-0.1021 0.1861,-0.1016 0.3708,-0.2502 0.554,-0.4459 0.1832,-0.1958 0.3704,-0.4336 0.5618,-0.7134 0.1914,-0.2799 0.3653,-0.5696 0.5219,-0.8691 0.1565,-0.2996 0.3147,-0.6341 0.4746,-1.0035 0.1598,-0.3694 0.3587,-0.9067 0.5965,-1.6118 0.2378,-0.7051 0.3909,-1.2296 0.4592,-1.5735 0.0683,-0.3437 0.1169,-0.6732 0.1458,-0.9882 0.0289,-0.3151 0.0448,-0.6105 0.0477,-0.8864 0.003,-0.276 -0.0133,-0.5454 -0.0487,-0.8083 -0.0353,-0.263 -0.1202,-0.5625 -0.2545,-0.8986 -0.1344,-0.336 -0.2262,-0.5464 -0.2754,-0.6311 -0.0492,-0.0847 -0.0776,-0.1337 -0.0854,-0.1471" /></g><g
       transform="matrix(0.5454546,0,0,-0.5454546,-22.5,795)"
       id="g2593"><path
         inkscape:connector-curvature="0"
         id="path2595"
         style="fill:none;stroke:#000000;stroke-width:2.07873988;stroke-linecap:round;stroke-linejoin:round;stroke-miterlimit:10;stroke-dasharray:none;stroke-opacity:1"
         d="m 534.4713,797.8187 c -0.2291,0.0859 -0.4355,0.2921 -0.6191,0.6184 -0.1837,0.3264 -0.3611,0.6583 -0.5321,0.9958 -0.171,0.3375 -0.3618,0.7562 -0.5723,1.2562 -0.2105,0.5 -0.4306,1.0884 -0.6603,1.7653 -0.2297,0.6769 -0.4502,1.3898 -0.6615,2.1387 -0.2113,0.7489 -0.4098,1.5275 -0.5956,2.3356 -0.1857,0.8082 -0.3497,1.6238 -0.4921,2.4469 -0.1424,0.8232 -0.2496,1.5882 -0.3215,2.2952 -0.072,0.7069 -0.1115,1.3651 -0.1187,1.9744 -0.007,0.6093 0.0109,1.1425 0.0543,1.5995 0.0434,0.457 0.1359,0.8882 0.2777,1.2938 0.1418,0.4055 0.2986,0.7825 0.4706,1.1308 0.1719,0.3484 0.3598,0.6735 0.5636,0.9754 0.2039,0.3018 0.4135,0.5686 0.629,0.8002 0.3134,0.3369 0.8874,0.7046 1.7219,1.1032" /></g><g
       transform="matrix(0.5454546,0,0,-0.5454546,-22.5,795)"
       id="g2597"><path
         inkscape:connector-curvature="0"
         id="path2599"
         style="fill:none;stroke:#000000;stroke-width:2.07873988;stroke-linecap:round;stroke-linejoin:round;stroke-miterlimit:10;stroke-dasharray:none;stroke-opacity:1"
         d="m 536.8295,815.4337 c -0.1099,-0.5898 -0.1935,-1.4563 -0.2508,-2.5993 -0.0573,-1.1432 -0.0864,-2.1487 -0.0872,-3.0168 -9e-4,-0.8681 0.002,-1.5114 0.009,-1.9299 0.007,-0.4186 0.0621,-1.0077 0.1662,-1.7672 0.1042,-0.7596 0.18,-1.2507 0.2274,-1.4734 0.0475,-0.2226 0.0915,-0.3652 0.1321,-0.4276 0.0405,-0.0625 0.1177,0.0185 0.2316,0.2431 0.1139,0.2247 0.255,0.5892 0.4235,1.0936 0.1683,0.5044 0.3672,1.0585 0.5966,1.6622 0.2294,0.6037 0.5206,1.2799 0.8736,2.0287 0.3531,0.7487 0.6574,1.3313 0.9132,1.7475 0.2558,0.4162 0.4933,0.7427 0.7127,0.9793 0.2194,0.2365 0.4241,0.408 0.6141,0.5142 0.19,0.1062 0.3315,0.161 0.4245,0.1644 0.093,0.003 0.1645,-0.1116 0.2147,-0.3446 0.0501,-0.2331 0.0727,-0.5934 0.0678,-1.0811 -0.005,-0.4877 -0.0581,-1.0226 -0.1596,-1.6047 -0.1015,-0.5821 -0.1994,-1.2116 -0.2935,-1.8885 -0.0942,-0.6768 -0.1555,-1.2223 -0.1839,-1.6364 -0.0284,-0.4142 -0.0431,-1.0413 -0.0441,-1.8813 -0.001,-0.84 0.0345,-1.3406 0.1064,-1.5019 0.1025,-0.2299 0.5888,-0.3541 1.4589,-0.3725" /></g><g
       transform="matrix(0.5454546,0,0,-0.5454546,-22.5,795)"
       id="g2601"><path
         inkscape:connector-curvature="0"
         id="path2603"
         style="fill:none;stroke:#000000;stroke-width:2.07873988;stroke-linecap:round;stroke-linejoin:round;stroke-miterlimit:10;stroke-dasharray:none;stroke-opacity:1"
         d="m 546.7713,807.2637 c -0.198,0.096 -0.3109,0.1507 -0.3387,0.1643 -0.0195,0.01 -0.0173,0.0134 0.007,0.0118 0.0239,-0.002 0.0991,-0.007 0.2256,-0.0154 0.1265,-0.009 0.3648,-0.0739 0.715,-0.1958 0.3501,-0.1218 0.7097,-0.225 1.0787,-0.3095 0.3689,-0.0845 0.803,-0.1362 1.3022,-0.1551 0.7622,-0.0288 1.3603,0.0751 1.7942,0.3117" /></g><g
       transform="matrix(0.5454546,0,0,-0.5454546,-22.5,795)"
       id="g2605"><path
         inkscape:connector-curvature="0"
         id="path2607"
         style="fill:none;stroke:#000000;stroke-width:2.07873988;stroke-linecap:round;stroke-linejoin:round;stroke-miterlimit:10;stroke-dasharray:none;stroke-opacity:1"
         d="m 557.4087,804.2461 c -0.2001,-0.0352 -0.3286,0.3337 -0.3854,1.1066 -0.0568,0.7728 -0.1403,1.5657 -0.2505,2.3787 -0.1103,0.8129 -0.2096,1.5714 -0.2981,2.2754 -0.0884,0.7041 -0.1457,1.1912 -0.1718,1.4613 -0.0261,0.2702 -0.0406,0.6723 -0.0435,1.2063 -0.003,0.534 0.007,0.8469 0.0287,0.9388 0.0313,0.1302 0.3416,0.1838 0.9309,0.1607" /></g><g
       transform="matrix(0.5454546,0,0,-0.5454546,-22.5,795)"
       id="g2609"><path
         inkscape:connector-curvature="0"
         id="path2611"
         style="fill:none;stroke:#000000;stroke-width:2.07873988;stroke-linecap:round;stroke-linejoin:round;stroke-miterlimit:10;stroke-dasharray:none;stroke-opacity:1"
         d="m 560.4579,799.1608 c -0.1549,-0.2653 -0.2198,-0.383 -0.1948,-0.3532 0.0178,0.0212 0.0623,0.0741 0.1334,0.1588 0.0712,0.0847 0.1719,0.2844 0.3022,0.599 0.1303,0.3146 0.263,0.7038 0.3982,1.1675 0.1351,0.4637 0.2638,0.9598 0.3859,1.4882 0.1221,0.5285 0.2325,1.0737 0.3312,1.6358 0.0988,0.562 0.1819,1.1269 0.2495,1.6946 0.0675,0.5677 0.1115,1.1356 0.1318,1.7039 0.0203,0.5682 0.0315,1.1467 0.0335,1.7354 0.002,0.5886 -0.0291,1.1964 -0.0933,1.8233 -0.0643,0.627 -0.1607,1.2728 -0.2893,1.9375 -0.1286,0.6647 -0.2858,1.329 -0.4717,1.993 -0.186,0.6639 -0.3925,1.3165 -0.6198,1.9577 -0.2273,0.6413 -0.4532,1.2316 -0.6778,1.771 -0.2246,0.5394 -0.5025,1.1822 -0.8336,1.9284 -0.331,0.7462 -0.541,1.4339 -0.6297,2.063" /></g><g
       transform="matrix(0.5454546,0,0,-0.5454546,-22.5,795)"
       id="g2613"><path
         inkscape:connector-curvature="0"
         id="path2615"
         style="fill:none;stroke:#000000;stroke-width:2.07873988;stroke-linecap:round;stroke-linejoin:round;stroke-miterlimit:10;stroke-dasharray:none;stroke-opacity:1"
         d="m 694.0569,799.6174 c 0.0149,-0.2322 -0.1585,-0.3693 -0.5203,-0.4112 -0.2545,-0.0296 -0.464,-0.005 -0.6283,0.0743 -0.1643,0.0791 -0.4473,0.2732 -0.8489,0.5822 -0.4017,0.309 -0.7141,0.5627 -0.9375,0.761 -0.2232,0.1982 -0.4359,0.4 -0.6381,0.6054 -0.2022,0.2054 -0.3855,0.4157 -0.5498,0.6309 -0.1645,0.2152 -0.2982,0.4343 -0.4012,0.6572 -0.1029,0.2229 -0.174,0.4428 -0.2131,0.6597 -0.0391,0.217 -0.0607,0.4291 -0.0646,0.6363 -0.004,0.2073 0.0151,0.4255 0.0572,0.6545 0.042,0.2289 0.1228,0.4555 0.2424,0.6798 0.1195,0.2243 0.3601,0.5415 0.7217,0.9516 0.3616,0.4101 0.7497,0.8185 1.1643,1.2252 0.4145,0.4067 0.7179,0.7177 0.9101,0.9329 0.1923,0.2152 0.3743,0.4422 0.5462,0.681 0.1719,0.2388 0.3165,0.481 0.4338,0.7267 0.1173,0.2456 0.2039,0.4962 0.2598,0.7516 0.0558,0.2554 0.0865,0.5147 0.0921,0.7778 0.006,0.2632 -0.0279,0.5155 -0.1002,0.7567 -0.0724,0.2414 -0.1877,0.4714 -0.346,0.6902 -0.1582,0.2188 -0.3462,0.4285 -0.5639,0.6292 -0.2177,0.2006 -0.4418,0.3755 -0.6722,0.5246 -0.2305,0.1491 -0.4726,0.2673 -0.7264,0.3546 -0.2537,0.0873 -0.614,0.1432 -1.0809,0.1678 -0.4668,0.0245 -0.8022,-0.01 -1.0063,-0.1021 -0.2042,-0.0925 -0.3843,-0.1932 -0.5404,-0.302 -0.1562,-0.1089 -0.2963,-0.2265 -0.4206,-0.3528 -0.1779,-0.1809 -0.2012,-0.6012 -0.07,-1.2609" /></g><g
       transform="matrix(0.5454546,0,0,-0.5454546,-22.5,795)"
       id="g2617"><path
         inkscape:connector-curvature="0"
         id="path2619"
         style="fill:none;stroke:#000000;stroke-width:2.07873988;stroke-linecap:round;stroke-linejoin:round;stroke-miterlimit:10;stroke-dasharray:none;stroke-opacity:1"
         d="m 697.3364,803.9291 c -0.003,1.3813 -0.0169,2.4836 -0.0416,3.3069 -0.0168,0.5616 -0.0257,1.3559 -0.0266,2.3827 -8e-4,1.0268 0.0367,1.7236 0.1125,2.0902 0.0759,0.3667 0.184,0.6777 0.3244,0.9331 0.1405,0.2553 0.3135,0.4735 0.5191,0.6543 0.2057,0.1809 0.4138,0.3034 0.6245,0.3676 0.2107,0.0642 0.445,0.1036 0.7031,0.1181 0.2579,0.0145 0.5121,-0.003 0.7624,-0.0527 0.2504,-0.0497 0.5758,-0.2396 0.9762,-0.5699 0.4005,-0.3302 0.718,-0.6547 0.9527,-0.9735 0.2347,-0.3188 0.446,-0.6446 0.6341,-0.9775 0.188,-0.3329 0.3601,-0.7072 0.5164,-1.123 0.1562,-0.4158 0.282,-0.8278 0.3773,-1.236 0.0954,-0.4082 0.1672,-0.8765 0.2156,-1.4048 0.0483,-0.5283 0.0733,-0.9383 0.075,-1.2301 0.002,-0.2919 -0.0193,-0.5482 -0.0629,-0.7691 -0.0436,-0.2208 -0.1308,-0.4339 -0.2617,-0.6391 -0.1309,-0.2052 -0.2932,-0.3681 -0.4869,-0.4889 -0.1937,-0.1207 -0.3451,-0.1779 -0.4542,-0.1715" /></g><g
       transform="matrix(0.5454546,0,0,-0.5454546,-22.5,795)"
       id="g2621"><path
         inkscape:connector-curvature="0"
         id="path2623"
         style="fill:none;stroke:#000000;stroke-width:2.07873988;stroke-linecap:round;stroke-linejoin:round;stroke-miterlimit:10;stroke-dasharray:none;stroke-opacity:1"
         d="m 710.6724,800.0179 c -0.1964,0.007 -0.4945,0.2411 -0.8943,0.701 -0.2522,0.29 -0.4652,0.6069 -0.6389,0.9507 -0.1738,0.3437 -0.3593,0.767 -0.5566,1.2699 -0.1972,0.5028 -0.3854,1.0555 -0.5645,1.658 -0.1792,0.6025 -0.3423,1.2756 -0.4892,2.0193 -0.1468,0.7438 -0.2785,1.4979 -0.395,2.2626 -0.1164,0.7646 -0.2093,1.4873 -0.2787,2.1681 -0.0693,0.6807 -0.1142,1.3029 -0.1347,1.8666 -0.0205,0.5637 -0.0284,1.0831 -0.0237,1.5581 0.005,0.4751 0.054,0.8937 0.1478,1.2558 0.0938,0.3621 0.203,0.6947 0.3278,0.998 0.1247,0.3033 0.3154,0.6687 0.5721,1.0963 0.2567,0.4276 0.4488,0.7233 0.5764,0.8871 0.1275,0.1637 0.2664,0.3035 0.4166,0.4195 0.216,0.1668 0.7509,0.3225 1.6049,0.4673" /></g><g
       transform="matrix(0.5454546,0,0,-0.5454546,-22.5,795)"
       id="g2625"><path
         inkscape:connector-curvature="0"
         id="path2627"
         style="fill:none;stroke:#000000;stroke-width:2.07873988;stroke-linecap:round;stroke-linejoin:round;stroke-miterlimit:10;stroke-dasharray:none;stroke-opacity:1"
         d="m 714.2438,814.1663 c -0.0997,0.063 -0.1452,-0.002 -0.1364,-0.1954 0.009,-0.1931 0.0858,-0.5001 0.2312,-0.9207 0.1454,-0.4206 0.2543,-0.7785 0.3267,-1.0736 0.0724,-0.2952 0.1411,-0.6341 0.206,-1.0166 0.0649,-0.3826 0.1184,-0.8125 0.1606,-1.2898 0.0421,-0.4774 0.0849,-1.268 0.1284,-2.372 0.0435,-1.104 0.0842,-1.8982 0.1223,-2.3827 0.038,-0.4845 0.0968,-0.9492 0.1765,-1.3943 0.0797,-0.445 0.1627,-0.6736 0.249,-0.6858 0.0863,-0.0121 0.2229,0.299 0.4099,0.9335 0.187,0.6345 0.3356,1.1567 0.4459,1.5665 0.1103,0.4099 0.2329,0.8231 0.3677,1.2398 0.1349,0.4167 0.2735,0.8212 0.4159,1.2137 0.1425,0.3925 0.304,0.7634 0.4845,1.1127 0.1805,0.3492 0.3586,0.6602 0.5345,0.9328 0.1758,0.2725 0.3625,0.5265 0.5599,0.762 0.1974,0.2354 0.3891,0.4397 0.5751,0.6126 0.186,0.1729 0.4182,0.3461 0.6967,0.5194 0.2785,0.1734 0.5028,0.2681 0.6729,0.2842 0.1701,0.016 0.2759,-0.1482 0.3175,-0.4925 0.0415,-0.3444 0.0868,-1.1612 0.1357,-2.4504 0.049,-1.2892 0.0853,-2.2168 0.109,-2.7827 0.0237,-0.5659 0.0656,-1.0707 0.1257,-1.5143 0.0601,-0.4436 0.1219,-0.7996 0.1856,-1.068 0.0637,-0.2684 0.131,-0.4874 0.2018,-0.6568 0.0709,-0.1694 0.1454,-0.292 0.2238,-0.3678 0.1114,-0.1079 0.5678,-0.0674 1.3692,0.1214" /></g><g
       transform="matrix(0.5454546,0,0,-0.5454546,-22.5,795)"
       id="g2629"><path
         inkscape:connector-curvature="0"
         id="path2631"
         style="fill:none;stroke:#000000;stroke-width:2.07873988;stroke-linecap:round;stroke-linejoin:round;stroke-miterlimit:10;stroke-dasharray:none;stroke-opacity:1"
         d="m 725.5956,807.1616 c 0.335,-0.235 0.7307,-0.4277 1.1869,-0.5782 0.445,-0.1468 1.0034,-0.2857 1.6753,-0.417" /></g><g
       transform="matrix(0.5454546,0,0,-0.5454546,-22.5,795)"
       id="g2633"><path
         inkscape:connector-curvature="0"
         id="path2635"
         style="fill:none;stroke:#000000;stroke-width:2.07873988;stroke-linecap:round;stroke-linejoin:round;stroke-miterlimit:10;stroke-dasharray:none;stroke-opacity:1"
         d="m 731.8372,802.8232 c -0.1205,0.2271 -0.1808,0.6155 -0.181,1.1653 0,0.3504 -0.0185,0.7893 -0.0555,1.3169 -0.037,0.5276 -0.0855,1.0559 -0.1455,1.5847 -0.0601,0.5288 -0.1354,1.2811 -0.226,2.2568 -0.0905,0.9756 -0.1419,1.8211 -0.1541,2.5364 -0.0123,0.7154 0.008,1.167 0.0603,1.3548 0.0524,0.1879 0.1344,0.3109 0.2461,0.3691 0.1565,0.0816 0.265,-0.0402 0.3256,-0.3653" /></g><g
       transform="matrix(0.5454546,0,0,-0.5454546,-22.5,795)"
       id="g2637"><path
         inkscape:connector-curvature="0"
         id="path2639"
         style="fill:none;stroke:#000000;stroke-width:2.07873988;stroke-linecap:round;stroke-linejoin:round;stroke-miterlimit:10;stroke-dasharray:none;stroke-opacity:1"
         d="m 735.3576,800.5129 c 0.0862,-0.2551 0.2092,-0.3846 0.3691,-0.3884 0.1117,-0.003 0.2528,0.0709 0.4234,0.2206 0.1706,0.1497 0.3501,0.3766 0.5386,0.6807 0.1885,0.304 0.3397,0.5787 0.4535,0.8241 0.1139,0.2454 0.2087,0.5025 0.2846,0.7715 0.0758,0.269 0.1676,0.6941 0.2752,1.2755 0.1077,0.5814 0.2058,1.2175 0.2941,1.9083 0.0884,0.6909 0.1491,1.3441 0.1821,1.9596 0.0331,0.6154 0.0512,1.2312 0.0545,1.8473 0.003,0.616 -0.003,1.077 -0.0174,1.383 -0.015,0.306 -0.0987,0.7403 -0.2512,1.3028 -0.1525,0.5624 -0.3354,1.0904 -0.5488,1.5841 -0.2134,0.4937 -0.5472,1.1169 -1.0015,1.8696 -0.7333,1.2151 -1.2097,2.0749 -1.4293,2.5796" /></g><g
       transform="matrix(0.5454546,0,0,-0.5454546,-22.5,795)"
       id="g2641"><path
         inkscape:connector-curvature="0"
         id="path2643"
         style="fill:none;stroke:#000000;stroke-width:2.07873988;stroke-linecap:round;stroke-linejoin:round;stroke-miterlimit:10;stroke-dasharray:none;stroke-opacity:1"
         d="m 611.1046,741.3146 c -0.111,-0.1389 -0.194,-0.3424 -0.2489,-0.6103 -0.055,-0.268 -0.1393,-0.4509 -0.253,-0.5489 -0.1138,-0.098 -0.3025,-0.1567 -0.5663,-0.1763 -0.2638,-0.0195 -0.4967,-0.005 -0.6989,0.0451 -0.2021,0.0496 -0.4142,0.1301 -0.6363,0.2414 -0.2221,0.1114 -0.4486,0.2416 -0.6795,0.3908 -0.2308,0.1492 -0.4511,0.3105 -0.6609,0.4838 -0.2097,0.1733 -0.3971,0.3581 -0.5623,0.5542 -0.1652,0.1961 -0.2959,0.4013 -0.3921,0.6155 -0.0963,0.2143 -0.1501,0.5447 -0.1613,0.9912 -0.0113,0.4466 0.041,0.7784 0.1569,0.9954 0.1159,0.217 0.2661,0.419 0.4508,0.6058 0.1846,0.187 0.3828,0.3611 0.5947,0.5224 0.2119,0.1612 0.5646,0.3907 1.0582,0.6884 0.4936,0.2977 0.8461,0.5288 1.0576,0.6935 0.2115,0.1646 0.3999,0.3423 0.5652,0.533 0.1654,0.1907 0.2996,0.3918 0.4026,0.6033 0.1031,0.2114 0.1708,0.4431 0.2032,0.6951 0.0323,0.252 0.0501,0.5094 0.0533,0.7723 0.003,0.2628 -0.0272,0.5296 -0.0913,0.8003 -0.0641,0.2707 -0.1613,0.5384 -0.2916,0.8031 -0.1303,0.2647 -0.2884,0.5178 -0.4745,0.7592 -0.1861,0.2415 -0.3852,0.4637 -0.5972,0.6667 -0.212,0.2029 -0.4329,0.3801 -0.6628,0.5317 -0.2299,0.1515 -0.4649,0.2632 -0.705,0.3349 -0.2401,0.0718 -0.4766,0.1112 -0.7092,0.1184 -0.2327,0.007 -0.4616,-0.0217 -0.6868,-0.0866 -0.2252,-0.0649 -0.439,-0.1901 -0.6413,-0.3754 -0.2024,-0.1852 -0.3892,-0.3946 -0.5604,-0.6281 -0.1712,-0.2336 -0.3197,-0.4661 -0.4454,-0.6977 -0.1257,-0.2315 -0.223,-0.4827 -0.292,-0.7535 -0.0972,-0.3819 -0.009,-0.603 0.2647,-0.6632" /></g><g
       transform="matrix(0.5454546,0,0,-0.5454546,-22.5,795)"
       id="g2645"><path
         inkscape:connector-curvature="0"
         id="path2647"
         style="fill:none;stroke:#000000;stroke-width:2.07873988;stroke-linecap:round;stroke-linejoin:round;stroke-miterlimit:10;stroke-dasharray:none;stroke-opacity:1"
         d="m 614.5374,743.6382 c -0.1105,0.4795 -0.1701,1 -0.1789,1.5616 -0.009,0.5615 -0.01,1.0419 -0.003,1.4409 0.007,0.3991 0.0435,0.7918 0.1104,1.178 0.0669,0.3862 0.1469,0.7604 0.2401,1.1226 0.0932,0.3622 0.1979,0.7086 0.3141,1.039 0.1162,0.3305 0.2488,0.631 0.3978,0.9017 0.1491,0.2707 0.2997,0.4988 0.4521,0.6843 0.1523,0.1854 0.3226,0.3406 0.5109,0.4656 0.1883,0.1249 0.3852,0.2197 0.5906,0.2842 0.2055,0.0645 0.405,0.1034 0.5986,0.1166 0.1936,0.0133 0.39,0.006 0.5892,-0.0222 0.1991,-0.0282 0.3918,-0.1149 0.578,-0.2602 0.1862,-0.1454 0.3641,-0.3476 0.5337,-0.6066 0.1696,-0.259 0.324,-0.553 0.4631,-0.8822 0.1391,-0.3291 0.2665,-0.6822 0.3822,-1.0591 0.1157,-0.3769 0.2116,-0.7755 0.2876,-1.1957 0.0761,-0.4201 0.1324,-0.8266 0.1688,-1.2194 0.0364,-0.3928 0.0604,-0.91 0.0718,-1.5516 0.0115,-0.6416 0.003,-1.0712 -0.0259,-1.289 -0.0287,-0.2178 -0.07,-0.3918 -0.1237,-0.5222 -0.0799,-0.194 -0.1987,-0.3194 -0.3563,-0.3762" /></g><g
       transform="matrix(0.5454546,0,0,-0.5454546,-22.5,795)"
       id="g2649"><path
         inkscape:connector-curvature="0"
         id="path2651"
         style="fill:none;stroke:#000000;stroke-width:2.07873988;stroke-linecap:round;stroke-linejoin:round;stroke-miterlimit:10;stroke-dasharray:none;stroke-opacity:1"
         d="m 626.7424,740.4339 c -0.1205,-0.2776 -0.2461,-0.4036 -0.3768,-0.3779 -0.0918,0.018 -0.1871,0.1213 -0.2859,0.3097 -0.0988,0.1884 -0.2142,0.4505 -0.3462,0.7862 -0.1321,0.3356 -0.27,0.7183 -0.4139,1.1479 -0.1438,0.4297 -0.2916,0.9206 -0.4434,1.4727 -0.1518,0.5522 -0.2887,1.1297 -0.4107,1.7326 -0.1221,0.6029 -0.2257,1.2254 -0.3109,1.8673 -0.0852,0.642 -0.1498,1.2892 -0.194,1.9418 -0.0441,0.6526 -0.0718,1.2787 -0.083,1.8781 -0.0112,0.5993 -0.014,1.144 -0.008,1.6339 0.006,0.4899 0.0588,0.9427 0.1595,1.3584 0.1007,0.4156 0.2358,0.7743 0.4053,1.0761 0.1695,0.3019 0.3603,0.5641 0.5724,0.7867 0.212,0.2225 0.433,0.4094 0.6629,0.5606 0.2299,0.1513 0.4607,0.2707 0.6924,0.3582 0.3385,0.128 0.8166,0.1914 1.4342,0.1902" /></g><g
       transform="matrix(0.5454546,0,0,-0.5454546,-22.5,795)"
       id="g2653"><path
         inkscape:connector-curvature="0"
         id="path2655"
         style="fill:none;stroke:#000000;stroke-width:2.07873988;stroke-linecap:round;stroke-linejoin:round;stroke-miterlimit:10;stroke-dasharray:none;stroke-opacity:1"
         d="m 630.0494,745.3327 c -0.0349,-0.2753 -0.002,-0.5611 0.0981,-0.8574 0.0668,-0.1973 0.2217,-0.4473 0.4645,-0.7499 0.2428,-0.3026 0.4911,-0.5407 0.7448,-0.7144 0.2537,-0.1736 0.5133,-0.3072 0.7789,-0.4008 0.2656,-0.0935 0.5921,-0.1574 0.9797,-0.1917 0.3875,-0.0343 0.6755,-0.0407 0.864,-0.0192 0.1884,0.0215 0.3574,0.1012 0.5068,0.2392 0.1495,0.1379 0.2529,0.3111 0.3103,0.5195 0.0574,0.2084 0.0923,0.4668 0.1049,0.775 0.0125,0.3083 -0.0273,0.6295 -0.1194,0.9636 -0.0921,0.3341 -0.2182,0.6683 -0.3784,1.0028 -0.1602,0.3344 -0.3416,0.662 -0.5442,0.9829 -0.2027,0.3209 -0.4193,0.6308 -0.6499,0.93 -0.2307,0.2991 -0.4652,0.5859 -0.7038,0.8602 -0.2385,0.2743 -0.579,0.6116 -1.0214,1.0118 -0.4424,0.4002 -0.8543,0.7571 -1.2355,1.0707 -0.3813,0.3136 -0.5226,0.5055 -0.4239,0.5758 0.0987,0.0703 0.4092,0.1302 0.9316,0.1796 0.5224,0.0493 1.0001,0.0832 1.433,0.1017 0.4328,0.0184 0.8537,0.0728 1.2627,0.1633 0.409,0.0905 0.8777,0.2637 1.4062,0.5196 0.7886,0.382 1.4285,0.4383 1.9197,0.169" /></g><g
       transform="matrix(0.5454546,0,0,-0.5454546,-22.5,795)"
       id="g2657"><path
         inkscape:connector-curvature="0"
         id="path2659"
         style="fill:none;stroke:#000000;stroke-width:2.07873988;stroke-linecap:round;stroke-linejoin:round;stroke-miterlimit:10;stroke-dasharray:none;stroke-opacity:1"
         d="m 639.6068,740.4697 c 0,0.249 0.1355,0.5659 0.4066,0.9508 0.2711,0.3848 0.4865,0.7588 0.6463,1.122 0.1598,0.3631 0.3232,0.8072 0.4902,1.3324 0.167,0.5252 0.3097,1.0833 0.4282,1.6745 0.1185,0.5911 0.2048,1.2037 0.2591,1.8377 0.0543,0.6339 0.0841,1.2768 0.0896,1.9286 0.005,0.6518 -0.0349,1.3022 -0.1209,1.9513 -0.086,0.6491 -0.2088,1.2754 -0.3683,1.879 -0.1596,0.6036 -0.4112,1.3904 -0.7549,2.3605 -0.3436,0.97 -0.6144,1.6943 -0.8124,2.1729 -0.198,0.4786 -0.2941,0.7948 -0.2885,0.9487" /></g><g
       transform="matrix(0.6088492,0,0,-0.5454546,128.0761,731.6513)"
       id="g2661" /><g
       transform="matrix(0.5651594,0,0,-0.6717261,272.1845,730.2402)"
       id="g2663" /><g
       transform="matrix(0.5710113,0,0,-0.7242589,292.7326,730.4408)"
       id="g2665" /><g
       transform="matrix(3.976438,0,0,0.5454546,347.9318,722.5419)"
       id="g2667" /><g
       transform="matrix(0.5945392,0,0,-0.7979257,441.5655,736.7675)"
       id="g2669" /><g
       transform="matrix(0.573875,0,0,-0.8732427,461.0963,736.3221)"
       id="g2671" /><g
       transform="matrix(0.6509776,0,0,-0.5454546,129.7036,717.9596)"
       id="g2673" /><g
       transform="matrix(1.118794,0,0,0.5454546,134.6336,711.251)"
       id="g2675" /><g
       transform="matrix(0.9522831,0,0,0.5454546,140.0361,713.2778)"
       id="g2677" /><g
       transform="matrix(1.498879,0,0,0.5454546,144.2993,711.3324)"
       id="g2679" /><g
       transform="matrix(0.539185,0,0,-0.6586335,150.5194,718.9693)"
       id="g2681" /><g
       transform="matrix(4.376217,0,0,0.5454546,345.8621,716.8817)"
       id="g2683" /><g
       transform="matrix(10.81529,0,0,0.5454546,371.3076,716.0801)"
       id="g2685" /><g
       transform="matrix(3.711003,0,0,0.5454546,428.4927,716.6375)"
       id="g2687" /><g
       transform="matrix(6.043669,0,0,0.5454546,469.1471,716.2259)"
       id="g2689" /><g
       transform="matrix(11.02791,0,0,0.5454546,516.7623,716.7834)"
       id="g2691" /><g
       transform="matrix(0.7158261,0,0,-0.5454546,395.6084,713.0113)"
       id="g2693" /><g
       transform="matrix(0.6530782,0,0,-0.5454546,409.72,713.9114)"
       id="g2695" /><g
       transform="matrix(0.7158261,0,0,-0.5454546,483.8779,713.1572)"
       id="g2697" /><g
       transform="matrix(0.6530782,0,0,-0.5454546,497.9896,714.0573)"
       id="g2699" /><g
       transform="matrix(9.297061,0,0,0.5454546,375.0604,695.5308)"
       id="g2701" /><g
       transform="matrix(0.6032467,0,0,-0.5454546,396.8479,700.6868)"
       id="g2703" /><g
       transform="matrix(0.8745933,0,0,0.5454546,400.9607,694.4481)"
       id="g2705" /><g
       transform="matrix(0.7554721,0,0,0.5454546,406.6084,695.772)"
       id="g2707" /><g
       transform="matrix(0.886226,0,0,0.5454546,411.6609,694.2146)"
       id="g2709" /><g
       transform="matrix(0.5408427,0,0,-0.5583644,416.4455,700.6173)"
       id="g2711" /><g
       transform="matrix(0.7762282,0,0,0.5454546,420.7527,694.0133)"
       id="g2713" /><g
       transform="matrix(0.5136763,0,0,1.009589,484.9137,694.5424)"
       id="g2715" /><g
       transform="matrix(0.5291775,0,0,-0.6607512,495.8967,699.7621)"
       id="g2717" /><g
       transform="matrix(0.5154739,0,0,0.876204,505.9023,695.2844)"
       id="g2719" /><g
       transform="matrix(11.40636,0,0,0.5454546,516.5661,694.5191)"
       id="g2721" /><g
       transform="matrix(0.646673,0,0,-0.5454546,101.8445,693.566)"
       id="g2723" /><g
       transform="matrix(2.804107,0,0,0.5454546,122.2663,687.5746)"
       id="g2725" /><g
       transform="matrix(3.147606,0,0,0.5454546,123.0769,686.4778)"
       id="g2727" /><g
       transform="matrix(0.7029271,0,0,-0.5454546,129.63,693.1769)"
       id="g2729" /><g
       transform="matrix(0.5667342,0,0,-0.7658184,144.3644,694.7591)"
       id="g2731" /><g
       transform="matrix(0.5778026,0,0,-0.7445761,273.3762,671.7588)"
       id="g2733" /><g
       transform="matrix(1.424941,0,0,0.5454546,323.5679,662.5276)"
       id="g2735" /><g
       transform="matrix(0.6174907,0,0,-0.5454546,360.1359,668.3388)"
       id="g2737" /><g
       transform="matrix(0.725377,0,0,0.5454546,376.4015,658.8235)"
       id="g2739" /><g
       transform="matrix(0.6561593,0,0,-0.5454546,379.9379,666.4181)"
       id="g2741" /><g
       transform="matrix(0.5868999,0,0,-0.5454546,388.0868,667.1622)"
       id="g2743" /><g
       transform="matrix(0.690137,0,0,-0.5454546,400.6808,663.1446)"
       id="g2745" /><g
       transform="matrix(0.5339836,0,0,-0.8380973,404.6748,668.4324)"
       id="g2747" /><g
       transform="matrix(0.5794522,0,0,0.5454546,413.2702,658.9649)"
       id="g2749" /><g
       transform="matrix(0.6510367,0,0,-0.5454546,422.3758,666.4645)"
       id="g2751" /><g
       transform="matrix(0.6643168,0,0,-0.5454546,443.6008,667.6077)"
       id="g2753" /><g
       transform="matrix(1.243561,0,0,0.5454546,448.5893,666.5396)"
       id="g2755" /><g
       transform="matrix(0.5611787,0,0,-0.7154297,461.0207,669.8389)"
       id="g2757" /><g
       transform="matrix(12.13487,0,0,0.5454546,165.814,589.4215)"
       id="g2759" /><g
       transform="matrix(0.5553241,0,0,-0.5753428,323.4581,589.8289)"
       id="g2761" /><g
       transform="matrix(0.539585,0,0,-0.6206667,323.6631,578.0409)"
       id="g2763" /><g
       transform="matrix(0.5368282,0,0,-0.5882246,336.8516,576.7662)"
       id="g2765" /><g
       transform="matrix(1.36451,0,0,-0.5454546,89.69121,565.9412)"
       id="g2767" /><g
       transform="matrix(0.5568034,0,0,-1.626424,128.7138,579.9886)"
       id="g2769" /><g
       transform="matrix(1.461171,0,0,-0.5454546,196.5038,561.1646)"
       id="g2771" /><g
       transform="matrix(0.5651594,0,0,-0.6717267,272.8867,561.7972)"
       id="g2773" /><g
       transform="matrix(0.5710113,0,0,-0.7242664,293.4348,561.9978)"
       id="g2775" /><g
       transform="matrix(0.9419524,0,0,0.5454546,296.8872,561.3274)"
       id="g2777" /><g
       transform="matrix(0.5638493,0,0,-0.64611,375.8862,562.6703)"
       id="g2779" /><g
       transform="matrix(0.5710113,0,0,-0.7242589,396.4343,562.8708)"
       id="g2781" /><g
       transform="matrix(0.6497423,0,0,-0.5454546,290.9922,517.9262)"
       id="g2783" /><g
       transform="matrix(0.5772537,0,0,-0.7320046,134.488,511.9032)"
       id="g2785" /><g
       transform="matrix(1.521612,0,0,0.5454546,207.6902,505.9117)"
       id="g2787" /><g
       transform="matrix(0.578332,0,0,-0.760184,273.8802,514.6837)"
       id="g2789" /><g
       transform="matrix(0.8199062,0,0,-0.5454546,321.7854,511.7804)"
       id="g2791" /><g
       transform="matrix(0.8654073,0,0,-0.5454546,328.9435,515.3344)"
       id="g2793" /><g
       transform="matrix(1.686849,0,0,-0.5454546,333.5328,516.1982)"
       id="g2795" /><g
       transform="matrix(0.5454546,0,0,-0.8909906,345.9921,514.3509)"
       id="g2797" /><g
       transform="matrix(1.490317,0,0,-0.5454546,368.7523,509.55)"
       id="g2799" /><g
       transform="matrix(0.5605309,0,0,-0.9241344,379.2374,517.615)"
       id="g2801" /><g
       transform="matrix(3.646759,0,0,-0.5454546,256.8289,499.3022)"
       id="g2803" /><g
       transform="matrix(2.445601,0,0,-0.5454546,395.4849,501.0344)"
       id="g2805" /><g
       transform="matrix(0.5634038,0,0,-0.8488641,192.8466,481.5656)"
       id="g2807" /><g
       transform="matrix(0.5510301,0,0,-0.9996977,432.6332,482.4488)"
       id="g2809" /><g
       transform="matrix(0.5879164,0,0,-0.5454546,329.1518,388.9579)"
       id="g2811" /><g
       transform="matrix(0.5426787,0,0,-0.7954339,348.2913,388.6743)"
       id="g2813" /><g
       transform="matrix(2.261691,0,0,0.5454546,71.20904,354.5747)"
       id="g2815" /><g
       transform="matrix(0.6184744,0,0,-0.5454546,94.99996,367.6933)"
       id="g2817" /><g
       transform="matrix(0.5835095,0,0,-0.7463043,121.9507,368.1715)"
       id="g2819" /><g
       transform="matrix(2.068475,0,0,0.5454546,146.2655,357.0013)"
       id="g2821" /><g
       transform="matrix(1.158874,0,0,0.5454546,185.3997,358.8676)"
       id="g2823" /><g
       transform="matrix(2.068497,0,0,0.5454546,420.1378,353.6084)"
       id="g2825" /><g
       transform="matrix(1.577394,0,0,0.5454546,71.70737,349.3107)"
       id="g2827" /><g
       transform="matrix(1.05188,0,0,-0.5454546,145.6273,354.0812)"
       id="g2829" /><g
       transform="matrix(2.261691,0,0,0.5454546,254.4493,350.4766)"
       id="g2831" /><g
       transform="matrix(0.5605845,0,0,-0.7120918,278.3543,357.3931)"
       id="g2833" /><g
       transform="matrix(3.284498,0,0,0.5454546,297.4713,351.3187)"
       id="g2835" /><g
       transform="matrix(0.6773723,0,0,-0.5454546,302.8449,353.916)"
       id="g2837" /><g
       transform="matrix(0.56797,0,0,-0.7897827,304.1314,356.878)"
       id="g2839" /><g
       transform="matrix(0.5662226,0,0,-0.5783784,374.6834,356.6605)"
       id="g2841" /><g
       transform="matrix(2.044628,0,0,0.5454546,395.2125,351.502)"
       id="g2843" /><g
       transform="matrix(0.5593502,0,0,-0.5454546,398.1913,354.6633)"
       id="g2845" /><g
       transform="matrix(0.5605065,0,0,-0.6641266,400.3337,356.1376)"
       id="g2847" /><g
       transform="matrix(2.152617,0,0,0.5454546,419.9796,348.3254)"
       id="g2849" /><g
       transform="matrix(1.495351,0,0,0.5454546,71.55632,344.448)"
       id="g2851" /><g
       transform="matrix(1.010416,0,0,-0.5454546,254.7966,347.3436)"
       id="g2853" /><g
       transform="matrix(1.113414,0,0,-0.5454546,337.0052,346.8608)"
       id="g2855" /><g
       transform="matrix(1.631931,0,0,0.5454546,419.4997,343.383)"
       id="g2857" /><g
       transform="matrix(1.712824,0,0,0.5454546,336.3345,333.4954)"
       id="g2859" /></g></svg>