<?xml version="1.0" encoding="utf-8" standalone="no"?>
<!DOCTYPE svg PUBLIC "-//W3C//DTD SVG 1.1//EN"
  "http://www.w3.org/Graphics/SVG/1.1/DTD/svg11.dtd">
<svg xmlns:xlink="http://www.w3.org/1999/xlink" width="648pt" height="432pt" viewBox="0 0 648 432" xmlns="http://www.w3.org/2000/svg" version="1.1">
 <metadata>
  <rdf:RDF xmlns:dc="http://purl.org/dc/elements/1.1/" xmlns:cc="http://creativecommons.org/ns#" xmlns:rdf="http://www.w3.org/1999/02/22-rdf-syntax-ns#">
   <cc:Work>
    <dc:type rdf:resource="http://purl.org/dc/dcmitype/StillImage"/>
    <dc:date>2023-02-21T16:23:37.357171</dc:date>
    <dc:format>image/svg+xml</dc:format>
    <dc:creator>
     <cc:Agent>
      <dc:title>Matplotlib v3.6.2, https://matplotlib.org/</dc:title>
     </cc:Agent>
    </dc:creator>
   </cc:Work>
  </rdf:RDF>
 </metadata>
 <defs>
  <style type="text/css">*{stroke-linejoin: round; stroke-linecap: butt}</style>
 </defs>
 <g id="figure_1">
  <g id="patch_1">
   <path d="M 0 432 
L 648 432 
L 648 0 
L 0 0 
z
" style="fill: #ffffff"/>
  </g>
  <g id="axes_1">
   <g id="patch_2">
    <path d="M 48.17 196.67 
L 326.695 196.67 
L 326.695 56.4 
L 48.17 56.4 
z
" style="fill: #ffffff"/>
   </g>
   <g id="patch_3">
    <path d="M 60.830227 196.67 
L 82.548834 196.67 
L 82.548834 193.99819 
L 60.830227 193.99819 
z
" clip-path="url(#pd3236a504d)" style="fill: #1f77b4"/>
   </g>
   <g id="patch_4">
    <path d="M 82.548834 196.67 
L 104.26744 196.67 
L 104.26744 183.310952 
L 82.548834 183.310952 
z
" clip-path="url(#pd3236a504d)" style="fill: #1f77b4"/>
   </g>
   <g id="patch_5">
    <path d="M 104.26744 196.67 
L 125.986047 196.67 
L 125.986047 159.264667 
L 104.26744 159.264667 
z
" clip-path="url(#pd3236a504d)" style="fill: #1f77b4"/>
   </g>
   <g id="patch_6">
    <path d="M 125.986047 196.67 
L 147.704653 196.67 
L 147.704653 135.218381 
L 125.986047 135.218381 
z
" clip-path="url(#pd3236a504d)" style="fill: #1f77b4"/>
   </g>
   <g id="patch_7">
    <path d="M 147.704653 196.67 
L 169.42326 196.67 
L 169.42326 111.172095 
L 147.704653 111.172095 
z
" clip-path="url(#pd3236a504d)" style="fill: #1f77b4"/>
   </g>
   <g id="patch_8">
    <path d="M 169.42326 196.67 
L 191.141866 196.67 
L 191.141866 121.859333 
L 169.42326 121.859333 
z
" clip-path="url(#pd3236a504d)" style="fill: #1f77b4"/>
   </g>
   <g id="patch_9">
    <path d="M 191.141866 196.67 
L 212.860472 196.67 
L 212.860472 89.797619 
L 191.141866 89.797619 
z
" clip-path="url(#pd3236a504d)" style="fill: #1f77b4"/>
   </g>
   <g id="patch_10">
    <path d="M 212.860472 196.67 
L 234.579079 196.67 
L 234.579079 121.859333 
L 212.860472 121.859333 
z
" clip-path="url(#pd3236a504d)" style="fill: #1f77b4"/>
   </g>
   <g id="patch_11">
    <path d="M 234.579079 196.67 
L 256.297685 196.67 
L 256.297685 148.577429 
L 234.579079 148.577429 
z
" clip-path="url(#pd3236a504d)" style="fill: #1f77b4"/>
   </g>
   <g id="patch_12">
    <path d="M 256.297685 196.67 
L 278.016292 196.67 
L 278.016292 167.280095 
L 256.297685 167.280095 
z
" clip-path="url(#pd3236a504d)" style="fill: #1f77b4"/>
   </g>
   <g id="matplotlib.axis_1">
    <g id="xtick_1">
     <g id="line2d_1">
      <defs>
       <path id="m522bf15fd9" d="M 0 0 
L 0 3.5 
" style="stroke: #000000; stroke-width: 0.8"/>
      </defs>
      <g>
       <use xlink:href="#m522bf15fd9" x="100.611833" y="196.67" style="stroke: #000000; stroke-width: 0.8"/>
      </g>
     </g>
    </g>
    <g id="xtick_2">
     <g id="line2d_2">
      <g>
       <use xlink:href="#m522bf15fd9" x="154.37076" y="196.67" style="stroke: #000000; stroke-width: 0.8"/>
      </g>
     </g>
    </g>
    <g id="xtick_3">
     <g id="line2d_3">
      <g>
       <use xlink:href="#m522bf15fd9" x="208.129687" y="196.67" style="stroke: #000000; stroke-width: 0.8"/>
      </g>
     </g>
    </g>
    <g id="xtick_4">
     <g id="line2d_4">
      <g>
       <use xlink:href="#m522bf15fd9" x="261.888614" y="196.67" style="stroke: #000000; stroke-width: 0.8"/>
      </g>
     </g>
    </g>
    <g id="xtick_5">
     <g id="line2d_5">
      <g>
       <use xlink:href="#m522bf15fd9" x="315.647541" y="196.67" style="stroke: #000000; stroke-width: 0.8"/>
      </g>
     </g>
    </g>
    <g id="text_1">
     <!-- Heavy output probability -->
     <g transform="translate(100.401719 214.807812) scale(0.14 -0.14)">
      <defs>
       <path id="DejaVuSans-48" d="M 628 4666 
L 1259 4666 
L 1259 2753 
L 3553 2753 
L 3553 4666 
L 4184 4666 
L 4184 0 
L 3553 0 
L 3553 2222 
L 1259 2222 
L 1259 0 
L 628 0 
L 628 4666 
z
" transform="scale(0.015625)"/>
       <path id="DejaVuSans-65" d="M 3597 1894 
L 3597 1613 
L 953 1613 
Q 991 1019 1311 708 
Q 1631 397 2203 397 
Q 2534 397 2845 478 
Q 3156 559 3463 722 
L 3463 178 
Q 3153 47 2828 -22 
Q 2503 -91 2169 -91 
Q 1331 -91 842 396 
Q 353 884 353 1716 
Q 353 2575 817 3079 
Q 1281 3584 2069 3584 
Q 2775 3584 3186 3129 
Q 3597 2675 3597 1894 
z
M 3022 2063 
Q 3016 2534 2758 2815 
Q 2500 3097 2075 3097 
Q 1594 3097 1305 2825 
Q 1016 2553 972 2059 
L 3022 2063 
z
" transform="scale(0.015625)"/>
       <path id="DejaVuSans-61" d="M 2194 1759 
Q 1497 1759 1228 1600 
Q 959 1441 959 1056 
Q 959 750 1161 570 
Q 1363 391 1709 391 
Q 2188 391 2477 730 
Q 2766 1069 2766 1631 
L 2766 1759 
L 2194 1759 
z
M 3341 1997 
L 3341 0 
L 2766 0 
L 2766 531 
Q 2569 213 2275 61 
Q 1981 -91 1556 -91 
Q 1019 -91 701 211 
Q 384 513 384 1019 
Q 384 1609 779 1909 
Q 1175 2209 1959 2209 
L 2766 2209 
L 2766 2266 
Q 2766 2663 2505 2880 
Q 2244 3097 1772 3097 
Q 1472 3097 1187 3025 
Q 903 2953 641 2809 
L 641 3341 
Q 956 3463 1253 3523 
Q 1550 3584 1831 3584 
Q 2591 3584 2966 3190 
Q 3341 2797 3341 1997 
z
" transform="scale(0.015625)"/>
       <path id="DejaVuSans-76" d="M 191 3500 
L 800 3500 
L 1894 563 
L 2988 3500 
L 3597 3500 
L 2284 0 
L 1503 0 
L 191 3500 
z
" transform="scale(0.015625)"/>
       <path id="DejaVuSans-79" d="M 2059 -325 
Q 1816 -950 1584 -1140 
Q 1353 -1331 966 -1331 
L 506 -1331 
L 506 -850 
L 844 -850 
Q 1081 -850 1212 -737 
Q 1344 -625 1503 -206 
L 1606 56 
L 191 3500 
L 800 3500 
L 1894 763 
L 2988 3500 
L 3597 3500 
L 2059 -325 
z
" transform="scale(0.015625)"/>
       <path id="DejaVuSans-20" transform="scale(0.015625)"/>
       <path id="DejaVuSans-6f" d="M 1959 3097 
Q 1497 3097 1228 2736 
Q 959 2375 959 1747 
Q 959 1119 1226 758 
Q 1494 397 1959 397 
Q 2419 397 2687 759 
Q 2956 1122 2956 1747 
Q 2956 2369 2687 2733 
Q 2419 3097 1959 3097 
z
M 1959 3584 
Q 2709 3584 3137 3096 
Q 3566 2609 3566 1747 
Q 3566 888 3137 398 
Q 2709 -91 1959 -91 
Q 1206 -91 779 398 
Q 353 888 353 1747 
Q 353 2609 779 3096 
Q 1206 3584 1959 3584 
z
" transform="scale(0.015625)"/>
       <path id="DejaVuSans-75" d="M 544 1381 
L 544 3500 
L 1119 3500 
L 1119 1403 
Q 1119 906 1312 657 
Q 1506 409 1894 409 
Q 2359 409 2629 706 
Q 2900 1003 2900 1516 
L 2900 3500 
L 3475 3500 
L 3475 0 
L 2900 0 
L 2900 538 
Q 2691 219 2414 64 
Q 2138 -91 1772 -91 
Q 1169 -91 856 284 
Q 544 659 544 1381 
z
M 1991 3584 
L 1991 3584 
z
" transform="scale(0.015625)"/>
       <path id="DejaVuSans-74" d="M 1172 4494 
L 1172 3500 
L 2356 3500 
L 2356 3053 
L 1172 3053 
L 1172 1153 
Q 1172 725 1289 603 
Q 1406 481 1766 481 
L 2356 481 
L 2356 0 
L 1766 0 
Q 1100 0 847 248 
Q 594 497 594 1153 
L 594 3053 
L 172 3053 
L 172 3500 
L 594 3500 
L 594 4494 
L 1172 4494 
z
" transform="scale(0.015625)"/>
       <path id="DejaVuSans-70" d="M 1159 525 
L 1159 -1331 
L 581 -1331 
L 581 3500 
L 1159 3500 
L 1159 2969 
Q 1341 3281 1617 3432 
Q 1894 3584 2278 3584 
Q 2916 3584 3314 3078 
Q 3713 2572 3713 1747 
Q 3713 922 3314 415 
Q 2916 -91 2278 -91 
Q 1894 -91 1617 61 
Q 1341 213 1159 525 
z
M 3116 1747 
Q 3116 2381 2855 2742 
Q 2594 3103 2138 3103 
Q 1681 3103 1420 2742 
Q 1159 2381 1159 1747 
Q 1159 1113 1420 752 
Q 1681 391 2138 391 
Q 2594 391 2855 752 
Q 3116 1113 3116 1747 
z
" transform="scale(0.015625)"/>
       <path id="DejaVuSans-72" d="M 2631 2963 
Q 2534 3019 2420 3045 
Q 2306 3072 2169 3072 
Q 1681 3072 1420 2755 
Q 1159 2438 1159 1844 
L 1159 0 
L 581 0 
L 581 3500 
L 1159 3500 
L 1159 2956 
Q 1341 3275 1631 3429 
Q 1922 3584 2338 3584 
Q 2397 3584 2469 3576 
Q 2541 3569 2628 3553 
L 2631 2963 
z
" transform="scale(0.015625)"/>
       <path id="DejaVuSans-62" d="M 3116 1747 
Q 3116 2381 2855 2742 
Q 2594 3103 2138 3103 
Q 1681 3103 1420 2742 
Q 1159 2381 1159 1747 
Q 1159 1113 1420 752 
Q 1681 391 2138 391 
Q 2594 391 2855 752 
Q 3116 1113 3116 1747 
z
M 1159 2969 
Q 1341 3281 1617 3432 
Q 1894 3584 2278 3584 
Q 2916 3584 3314 3078 
Q 3713 2572 3713 1747 
Q 3713 922 3314 415 
Q 2916 -91 2278 -91 
Q 1894 -91 1617 61 
Q 1341 213 1159 525 
L 1159 0 
L 581 0 
L 581 4863 
L 1159 4863 
L 1159 2969 
z
" transform="scale(0.015625)"/>
       <path id="DejaVuSans-69" d="M 603 3500 
L 1178 3500 
L 1178 0 
L 603 0 
L 603 3500 
z
M 603 4863 
L 1178 4863 
L 1178 4134 
L 603 4134 
L 603 4863 
z
" transform="scale(0.015625)"/>
       <path id="DejaVuSans-6c" d="M 603 4863 
L 1178 4863 
L 1178 0 
L 603 0 
L 603 4863 
z
" transform="scale(0.015625)"/>
      </defs>
      <use xlink:href="#DejaVuSans-48"/>
      <use xlink:href="#DejaVuSans-65" x="75.195312"/>
      <use xlink:href="#DejaVuSans-61" x="136.71875"/>
      <use xlink:href="#DejaVuSans-76" x="197.998047"/>
      <use xlink:href="#DejaVuSans-79" x="257.177734"/>
      <use xlink:href="#DejaVuSans-20" x="316.357422"/>
      <use xlink:href="#DejaVuSans-6f" x="348.144531"/>
      <use xlink:href="#DejaVuSans-75" x="409.326172"/>
      <use xlink:href="#DejaVuSans-74" x="472.705078"/>
      <use xlink:href="#DejaVuSans-70" x="511.914062"/>
      <use xlink:href="#DejaVuSans-75" x="575.390625"/>
      <use xlink:href="#DejaVuSans-74" x="638.769531"/>
      <use xlink:href="#DejaVuSans-20" x="677.978516"/>
      <use xlink:href="#DejaVuSans-70" x="709.765625"/>
      <use xlink:href="#DejaVuSans-72" x="773.242188"/>
      <use xlink:href="#DejaVuSans-6f" x="812.105469"/>
      <use xlink:href="#DejaVuSans-62" x="873.287109"/>
      <use xlink:href="#DejaVuSans-61" x="936.763672"/>
      <use xlink:href="#DejaVuSans-62" x="998.042969"/>
      <use xlink:href="#DejaVuSans-69" x="1061.519531"/>
      <use xlink:href="#DejaVuSans-6c" x="1089.302734"/>
      <use xlink:href="#DejaVuSans-69" x="1117.085938"/>
      <use xlink:href="#DejaVuSans-74" x="1144.869141"/>
      <use xlink:href="#DejaVuSans-79" x="1184.078125"/>
     </g>
    </g>
   </g>
   <g id="matplotlib.axis_2">
    <g id="ytick_1">
     <g id="line2d_6">
      <defs>
       <path id="md82a92834a" d="M 0 0 
L -3.5 0 
" style="stroke: #000000; stroke-width: 0.8"/>
      </defs>
      <g>
       <use xlink:href="#md82a92834a" x="48.17" y="196.67" style="stroke: #000000; stroke-width: 0.8"/>
      </g>
     </g>
     <g id="text_2">
      <!-- 0 -->
      <g transform="translate(34.8075 200.469219) scale(0.1 -0.1)">
       <defs>
        <path id="DejaVuSans-30" d="M 2034 4250 
Q 1547 4250 1301 3770 
Q 1056 3291 1056 2328 
Q 1056 1369 1301 889 
Q 1547 409 2034 409 
Q 2525 409 2770 889 
Q 3016 1369 3016 2328 
Q 3016 3291 2770 3770 
Q 2525 4250 2034 4250 
z
M 2034 4750 
Q 2819 4750 3233 4129 
Q 3647 3509 3647 2328 
Q 3647 1150 3233 529 
Q 2819 -91 2034 -91 
Q 1250 -91 836 529 
Q 422 1150 422 2328 
Q 422 3509 836 4129 
Q 1250 4750 2034 4750 
z
" transform="scale(0.015625)"/>
       </defs>
       <use xlink:href="#DejaVuSans-30"/>
      </g>
     </g>
    </g>
    <g id="ytick_2">
     <g id="line2d_7">
      <g>
       <use xlink:href="#md82a92834a" x="48.17" y="169.951905" style="stroke: #000000; stroke-width: 0.8"/>
      </g>
     </g>
     <g id="text_3">
      <!-- 10 -->
      <g transform="translate(28.445 173.751124) scale(0.1 -0.1)">
       <defs>
        <path id="DejaVuSans-31" d="M 794 531 
L 1825 531 
L 1825 4091 
L 703 3866 
L 703 4441 
L 1819 4666 
L 2450 4666 
L 2450 531 
L 3481 531 
L 3481 0 
L 794 0 
L 794 531 
z
" transform="scale(0.015625)"/>
       </defs>
       <use xlink:href="#DejaVuSans-31"/>
       <use xlink:href="#DejaVuSans-30" x="63.623047"/>
      </g>
     </g>
    </g>
    <g id="ytick_3">
     <g id="line2d_8">
      <g>
       <use xlink:href="#md82a92834a" x="48.17" y="143.23381" style="stroke: #000000; stroke-width: 0.8"/>
      </g>
     </g>
     <g id="text_4">
      <!-- 20 -->
      <g transform="translate(28.445 147.033028) scale(0.1 -0.1)">
       <defs>
        <path id="DejaVuSans-32" d="M 1228 531 
L 3431 531 
L 3431 0 
L 469 0 
L 469 531 
Q 828 903 1448 1529 
Q 2069 2156 2228 2338 
Q 2531 2678 2651 2914 
Q 2772 3150 2772 3378 
Q 2772 3750 2511 3984 
Q 2250 4219 1831 4219 
Q 1534 4219 1204 4116 
Q 875 4013 500 3803 
L 500 4441 
Q 881 4594 1212 4672 
Q 1544 4750 1819 4750 
Q 2544 4750 2975 4387 
Q 3406 4025 3406 3419 
Q 3406 3131 3298 2873 
Q 3191 2616 2906 2266 
Q 2828 2175 2409 1742 
Q 1991 1309 1228 531 
z
" transform="scale(0.015625)"/>
       </defs>
       <use xlink:href="#DejaVuSans-32"/>
       <use xlink:href="#DejaVuSans-30" x="63.623047"/>
      </g>
     </g>
    </g>
    <g id="ytick_4">
     <g id="line2d_9">
      <g>
       <use xlink:href="#md82a92834a" x="48.17" y="116.515714" style="stroke: #000000; stroke-width: 0.8"/>
      </g>
     </g>
     <g id="text_5">
      <!-- 30 -->
      <g transform="translate(28.445 120.314933) scale(0.1 -0.1)">
       <defs>
        <path id="DejaVuSans-33" d="M 2597 2516 
Q 3050 2419 3304 2112 
Q 3559 1806 3559 1356 
Q 3559 666 3084 287 
Q 2609 -91 1734 -91 
Q 1441 -91 1130 -33 
Q 819 25 488 141 
L 488 750 
Q 750 597 1062 519 
Q 1375 441 1716 441 
Q 2309 441 2620 675 
Q 2931 909 2931 1356 
Q 2931 1769 2642 2001 
Q 2353 2234 1838 2234 
L 1294 2234 
L 1294 2753 
L 1863 2753 
Q 2328 2753 2575 2939 
Q 2822 3125 2822 3475 
Q 2822 3834 2567 4026 
Q 2313 4219 1838 4219 
Q 1578 4219 1281 4162 
Q 984 4106 628 3988 
L 628 4550 
Q 988 4650 1302 4700 
Q 1616 4750 1894 4750 
Q 2613 4750 3031 4423 
Q 3450 4097 3450 3541 
Q 3450 3153 3228 2886 
Q 3006 2619 2597 2516 
z
" transform="scale(0.015625)"/>
       </defs>
       <use xlink:href="#DejaVuSans-33"/>
       <use xlink:href="#DejaVuSans-30" x="63.623047"/>
      </g>
     </g>
    </g>
    <g id="ytick_5">
     <g id="line2d_10">
      <g>
       <use xlink:href="#md82a92834a" x="48.17" y="89.797619" style="stroke: #000000; stroke-width: 0.8"/>
      </g>
     </g>
     <g id="text_6">
      <!-- 40 -->
      <g transform="translate(28.445 93.596838) scale(0.1 -0.1)">
       <defs>
        <path id="DejaVuSans-34" d="M 2419 4116 
L 825 1625 
L 2419 1625 
L 2419 4116 
z
M 2253 4666 
L 3047 4666 
L 3047 1625 
L 3713 1625 
L 3713 1100 
L 3047 1100 
L 3047 0 
L 2419 0 
L 2419 1100 
L 313 1100 
L 313 1709 
L 2253 4666 
z
" transform="scale(0.015625)"/>
       </defs>
       <use xlink:href="#DejaVuSans-34"/>
       <use xlink:href="#DejaVuSans-30" x="63.623047"/>
      </g>
     </g>
    </g>
    <g id="ytick_6">
     <g id="line2d_11">
      <g>
       <use xlink:href="#md82a92834a" x="48.17" y="63.079524" style="stroke: #000000; stroke-width: 0.8"/>
      </g>
     </g>
     <g id="text_7">
      <!-- 50 -->
      <g transform="translate(28.445 66.878743) scale(0.1 -0.1)">
       <defs>
        <path id="DejaVuSans-35" d="M 691 4666 
L 3169 4666 
L 3169 4134 
L 1269 4134 
L 1269 2991 
Q 1406 3038 1543 3061 
Q 1681 3084 1819 3084 
Q 2600 3084 3056 2656 
Q 3513 2228 3513 1497 
Q 3513 744 3044 326 
Q 2575 -91 1722 -91 
Q 1428 -91 1123 -41 
Q 819 9 494 109 
L 494 744 
Q 775 591 1075 516 
Q 1375 441 1709 441 
Q 2250 441 2565 725 
Q 2881 1009 2881 1497 
Q 2881 1984 2565 2268 
Q 2250 2553 1709 2553 
Q 1456 2553 1204 2497 
Q 953 2441 691 2322 
L 691 4666 
z
" transform="scale(0.015625)"/>
       </defs>
       <use xlink:href="#DejaVuSans-35"/>
       <use xlink:href="#DejaVuSans-30" x="63.623047"/>
      </g>
     </g>
    </g>
    <g id="text_8">
     <!-- Occurrences -->
     <g transform="translate(21.533438 170.200781) rotate(-90) scale(0.14 -0.14)">
      <defs>
       <path id="DejaVuSans-4f" d="M 2522 4238 
Q 1834 4238 1429 3725 
Q 1025 3213 1025 2328 
Q 1025 1447 1429 934 
Q 1834 422 2522 422 
Q 3209 422 3611 934 
Q 4013 1447 4013 2328 
Q 4013 3213 3611 3725 
Q 3209 4238 2522 4238 
z
M 2522 4750 
Q 3503 4750 4090 4092 
Q 4678 3434 4678 2328 
Q 4678 1225 4090 567 
Q 3503 -91 2522 -91 
Q 1538 -91 948 565 
Q 359 1222 359 2328 
Q 359 3434 948 4092 
Q 1538 4750 2522 4750 
z
" transform="scale(0.015625)"/>
       <path id="DejaVuSans-63" d="M 3122 3366 
L 3122 2828 
Q 2878 2963 2633 3030 
Q 2388 3097 2138 3097 
Q 1578 3097 1268 2742 
Q 959 2388 959 1747 
Q 959 1106 1268 751 
Q 1578 397 2138 397 
Q 2388 397 2633 464 
Q 2878 531 3122 666 
L 3122 134 
Q 2881 22 2623 -34 
Q 2366 -91 2075 -91 
Q 1284 -91 818 406 
Q 353 903 353 1747 
Q 353 2603 823 3093 
Q 1294 3584 2113 3584 
Q 2378 3584 2631 3529 
Q 2884 3475 3122 3366 
z
" transform="scale(0.015625)"/>
       <path id="DejaVuSans-6e" d="M 3513 2113 
L 3513 0 
L 2938 0 
L 2938 2094 
Q 2938 2591 2744 2837 
Q 2550 3084 2163 3084 
Q 1697 3084 1428 2787 
Q 1159 2491 1159 1978 
L 1159 0 
L 581 0 
L 581 3500 
L 1159 3500 
L 1159 2956 
Q 1366 3272 1645 3428 
Q 1925 3584 2291 3584 
Q 2894 3584 3203 3211 
Q 3513 2838 3513 2113 
z
" transform="scale(0.015625)"/>
       <path id="DejaVuSans-73" d="M 2834 3397 
L 2834 2853 
Q 2591 2978 2328 3040 
Q 2066 3103 1784 3103 
Q 1356 3103 1142 2972 
Q 928 2841 928 2578 
Q 928 2378 1081 2264 
Q 1234 2150 1697 2047 
L 1894 2003 
Q 2506 1872 2764 1633 
Q 3022 1394 3022 966 
Q 3022 478 2636 193 
Q 2250 -91 1575 -91 
Q 1294 -91 989 -36 
Q 684 19 347 128 
L 347 722 
Q 666 556 975 473 
Q 1284 391 1588 391 
Q 1994 391 2212 530 
Q 2431 669 2431 922 
Q 2431 1156 2273 1281 
Q 2116 1406 1581 1522 
L 1381 1569 
Q 847 1681 609 1914 
Q 372 2147 372 2553 
Q 372 3047 722 3315 
Q 1072 3584 1716 3584 
Q 2034 3584 2315 3537 
Q 2597 3491 2834 3397 
z
" transform="scale(0.015625)"/>
      </defs>
      <use xlink:href="#DejaVuSans-4f"/>
      <use xlink:href="#DejaVuSans-63" x="78.710938"/>
      <use xlink:href="#DejaVuSans-63" x="133.691406"/>
      <use xlink:href="#DejaVuSans-75" x="188.671875"/>
      <use xlink:href="#DejaVuSans-72" x="252.050781"/>
      <use xlink:href="#DejaVuSans-72" x="291.414062"/>
      <use xlink:href="#DejaVuSans-65" x="330.277344"/>
      <use xlink:href="#DejaVuSans-6e" x="391.800781"/>
      <use xlink:href="#DejaVuSans-63" x="455.179688"/>
      <use xlink:href="#DejaVuSans-65" x="510.160156"/>
      <use xlink:href="#DejaVuSans-73" x="571.683594"/>
     </g>
    </g>
   </g>
   <g id="line2d_12">
    <path d="M 136.451118 196.67 
L 136.451118 56.4 
" clip-path="url(#pd3236a504d)" style="fill: none; stroke: #000000; stroke-width: 1.5; stroke-linecap: square"/>
   </g>
   <g id="line2d_13">
    <path d="M 185.843924 196.67 
L 185.843924 56.4 
" clip-path="url(#pd3236a504d)" style="fill: none; stroke: #ff0000; stroke-width: 1.5; stroke-linecap: square"/>
   </g>
   <g id="line2d_14">
    <path d="M 153.307159 196.67 
L 153.307159 56.4 
" clip-path="url(#pd3236a504d)" style="fill: none; stroke-dasharray: 5.55,2.4; stroke-dashoffset: 0; stroke: #ff0000; stroke-width: 1.5"/>
   </g>
   <g id="patch_13">
    <path d="M 48.17 196.67 
L 48.17 56.4 
" style="fill: none; stroke: #000000; stroke-width: 0.8; stroke-linejoin: miter; stroke-linecap: square"/>
   </g>
   <g id="patch_14">
    <path d="M 326.695 196.67 
L 326.695 56.4 
" style="fill: none; stroke: #000000; stroke-width: 0.8; stroke-linejoin: miter; stroke-linecap: square"/>
   </g>
   <g id="patch_15">
    <path d="M 48.17 196.67 
L 326.695 196.67 
" style="fill: none; stroke: #000000; stroke-width: 0.8; stroke-linejoin: miter; stroke-linecap: square"/>
   </g>
   <g id="patch_16">
    <path d="M 48.17 56.4 
L 326.695 56.4 
" style="fill: none; stroke: #000000; stroke-width: 0.8; stroke-linejoin: miter; stroke-linecap: square"/>
   </g>
   <g id="text_9">
    <!-- m = 2 -->
    <g transform="translate(162.76125 50.4) scale(0.16 -0.16)">
     <defs>
      <path id="DejaVuSans-6d" d="M 3328 2828 
Q 3544 3216 3844 3400 
Q 4144 3584 4550 3584 
Q 5097 3584 5394 3201 
Q 5691 2819 5691 2113 
L 5691 0 
L 5113 0 
L 5113 2094 
Q 5113 2597 4934 2840 
Q 4756 3084 4391 3084 
Q 3944 3084 3684 2787 
Q 3425 2491 3425 1978 
L 3425 0 
L 2847 0 
L 2847 2094 
Q 2847 2600 2669 2842 
Q 2491 3084 2119 3084 
Q 1678 3084 1418 2786 
Q 1159 2488 1159 1978 
L 1159 0 
L 581 0 
L 581 3500 
L 1159 3500 
L 1159 2956 
Q 1356 3278 1631 3431 
Q 1906 3584 2284 3584 
Q 2666 3584 2933 3390 
Q 3200 3197 3328 2828 
z
" transform="scale(0.015625)"/>
      <path id="DejaVuSans-3d" d="M 678 2906 
L 4684 2906 
L 4684 2381 
L 678 2381 
L 678 2906 
z
M 678 1631 
L 4684 1631 
L 4684 1100 
L 678 1100 
L 678 1631 
z
" transform="scale(0.015625)"/>
     </defs>
     <use xlink:href="#DejaVuSans-6d"/>
     <use xlink:href="#DejaVuSans-20" x="97.412109"/>
     <use xlink:href="#DejaVuSans-3d" x="129.199219"/>
     <use xlink:href="#DejaVuSans-20" x="212.988281"/>
     <use xlink:href="#DejaVuSans-32" x="244.775391"/>
    </g>
   </g>
  </g>
  <g id="axes_2">
   <g id="patch_17">
    <path d="M 358.675 196.67 
L 637.2 196.67 
L 637.2 56.4 
L 358.675 56.4 
z
" style="fill: #ffffff"/>
   </g>
   <g id="patch_18">
    <path d="M 390.150852 196.67 
L 413.589744 196.67 
L 413.589744 183.310952 
L 390.150852 183.310952 
z
" clip-path="url(#pacd6270bf7)" style="fill: #1f77b4"/>
   </g>
   <g id="patch_19">
    <path d="M 413.589744 196.67 
L 437.028636 196.67 
L 437.028636 164.608286 
L 413.589744 164.608286 
z
" clip-path="url(#pacd6270bf7)" style="fill: #1f77b4"/>
   </g>
   <g id="patch_20">
    <path d="M 437.028636 196.67 
L 460.467528 196.67 
L 460.467528 132.546571 
L 437.028636 132.546571 
z
" clip-path="url(#pacd6270bf7)" style="fill: #1f77b4"/>
   </g>
   <g id="patch_21">
    <path d="M 460.467528 196.67 
L 483.90642 196.67 
L 483.90642 81.78219 
L 460.467528 81.78219 
z
" clip-path="url(#pacd6270bf7)" style="fill: #1f77b4"/>
   </g>
   <g id="patch_22">
    <path d="M 483.90642 196.67 
L 507.345312 196.67 
L 507.345312 95.141238 
L 483.90642 95.141238 
z
" clip-path="url(#pacd6270bf7)" style="fill: #1f77b4"/>
   </g>
   <g id="patch_23">
    <path d="M 507.345312 196.67 
L 530.784204 196.67 
L 530.784204 108.500286 
L 507.345312 108.500286 
z
" clip-path="url(#pacd6270bf7)" style="fill: #1f77b4"/>
   </g>
   <g id="patch_24">
    <path d="M 530.784204 196.67 
L 554.223096 196.67 
L 554.223096 159.264667 
L 530.784204 159.264667 
z
" clip-path="url(#pacd6270bf7)" style="fill: #1f77b4"/>
   </g>
   <g id="patch_25">
    <path d="M 554.223096 196.67 
L 577.661989 196.67 
L 577.661989 177.967333 
L 554.223096 177.967333 
z
" clip-path="url(#pacd6270bf7)" style="fill: #1f77b4"/>
   </g>
   <g id="patch_26">
    <path d="M 577.661989 196.67 
L 601.100881 196.67 
L 601.100881 193.99819 
L 577.661989 193.99819 
z
" clip-path="url(#pacd6270bf7)" style="fill: #1f77b4"/>
   </g>
   <g id="patch_27">
    <path d="M 601.100881 196.67 
L 624.539773 196.67 
L 624.539773 135.218381 
L 601.100881 135.218381 
z
" clip-path="url(#pacd6270bf7)" style="fill: #1f77b4"/>
   </g>
   <g id="matplotlib.axis_3">
    <g id="xtick_6">
     <g id="line2d_15">
      <g>
       <use xlink:href="#m522bf15fd9" x="411.116833" y="196.67" style="stroke: #000000; stroke-width: 0.8"/>
      </g>
     </g>
    </g>
    <g id="xtick_7">
     <g id="line2d_16">
      <g>
       <use xlink:href="#m522bf15fd9" x="464.87576" y="196.67" style="stroke: #000000; stroke-width: 0.8"/>
      </g>
     </g>
    </g>
    <g id="xtick_8">
     <g id="line2d_17">
      <g>
       <use xlink:href="#m522bf15fd9" x="518.634687" y="196.67" style="stroke: #000000; stroke-width: 0.8"/>
      </g>
     </g>
    </g>
    <g id="xtick_9">
     <g id="line2d_18">
      <g>
       <use xlink:href="#m522bf15fd9" x="572.393614" y="196.67" style="stroke: #000000; stroke-width: 0.8"/>
      </g>
     </g>
    </g>
    <g id="xtick_10">
     <g id="line2d_19">
      <g>
       <use xlink:href="#m522bf15fd9" x="626.152541" y="196.67" style="stroke: #000000; stroke-width: 0.8"/>
      </g>
     </g>
    </g>
    <g id="text_10">
     <!-- Heavy output probability -->
     <g transform="translate(410.906719 214.807812) scale(0.14 -0.14)">
      <use xlink:href="#DejaVuSans-48"/>
      <use xlink:href="#DejaVuSans-65" x="75.195312"/>
      <use xlink:href="#DejaVuSans-61" x="136.71875"/>
      <use xlink:href="#DejaVuSans-76" x="197.998047"/>
      <use xlink:href="#DejaVuSans-79" x="257.177734"/>
      <use xlink:href="#DejaVuSans-20" x="316.357422"/>
      <use xlink:href="#DejaVuSans-6f" x="348.144531"/>
      <use xlink:href="#DejaVuSans-75" x="409.326172"/>
      <use xlink:href="#DejaVuSans-74" x="472.705078"/>
      <use xlink:href="#DejaVuSans-70" x="511.914062"/>
      <use xlink:href="#DejaVuSans-75" x="575.390625"/>
      <use xlink:href="#DejaVuSans-74" x="638.769531"/>
      <use xlink:href="#DejaVuSans-20" x="677.978516"/>
      <use xlink:href="#DejaVuSans-70" x="709.765625"/>
      <use xlink:href="#DejaVuSans-72" x="773.242188"/>
      <use xlink:href="#DejaVuSans-6f" x="812.105469"/>
      <use xlink:href="#DejaVuSans-62" x="873.287109"/>
      <use xlink:href="#DejaVuSans-61" x="936.763672"/>
      <use xlink:href="#DejaVuSans-62" x="998.042969"/>
      <use xlink:href="#DejaVuSans-69" x="1061.519531"/>
      <use xlink:href="#DejaVuSans-6c" x="1089.302734"/>
      <use xlink:href="#DejaVuSans-69" x="1117.085938"/>
      <use xlink:href="#DejaVuSans-74" x="1144.869141"/>
      <use xlink:href="#DejaVuSans-79" x="1184.078125"/>
     </g>
    </g>
   </g>
   <g id="matplotlib.axis_4">
    <g id="ytick_7">
     <g id="line2d_20">
      <g>
       <use xlink:href="#md82a92834a" x="358.675" y="196.67" style="stroke: #000000; stroke-width: 0.8"/>
      </g>
     </g>
    </g>
    <g id="ytick_8">
     <g id="line2d_21">
      <g>
       <use xlink:href="#md82a92834a" x="358.675" y="169.951905" style="stroke: #000000; stroke-width: 0.8"/>
      </g>
     </g>
    </g>
    <g id="ytick_9">
     <g id="line2d_22">
      <g>
       <use xlink:href="#md82a92834a" x="358.675" y="143.23381" style="stroke: #000000; stroke-width: 0.8"/>
      </g>
     </g>
    </g>
    <g id="ytick_10">
     <g id="line2d_23">
      <g>
       <use xlink:href="#md82a92834a" x="358.675" y="116.515714" style="stroke: #000000; stroke-width: 0.8"/>
      </g>
     </g>
    </g>
    <g id="ytick_11">
     <g id="line2d_24">
      <g>
       <use xlink:href="#md82a92834a" x="358.675" y="89.797619" style="stroke: #000000; stroke-width: 0.8"/>
      </g>
     </g>
    </g>
    <g id="ytick_12">
     <g id="line2d_25">
      <g>
       <use xlink:href="#md82a92834a" x="358.675" y="63.079524" style="stroke: #000000; stroke-width: 0.8"/>
      </g>
     </g>
    </g>
    <g id="text_11">
     <!-- Occurrences -->
     <g transform="translate(348.263437 170.200781) rotate(-90) scale(0.14 -0.14)">
      <use xlink:href="#DejaVuSans-4f"/>
      <use xlink:href="#DejaVuSans-63" x="78.710938"/>
      <use xlink:href="#DejaVuSans-63" x="133.691406"/>
      <use xlink:href="#DejaVuSans-75" x="188.671875"/>
      <use xlink:href="#DejaVuSans-72" x="252.050781"/>
      <use xlink:href="#DejaVuSans-72" x="291.414062"/>
      <use xlink:href="#DejaVuSans-65" x="330.277344"/>
      <use xlink:href="#DejaVuSans-6e" x="391.800781"/>
      <use xlink:href="#DejaVuSans-63" x="455.179688"/>
      <use xlink:href="#DejaVuSans-65" x="510.160156"/>
      <use xlink:href="#DejaVuSans-73" x="571.683594"/>
     </g>
    </g>
   </g>
   <g id="line2d_26">
    <path d="M 446.956118 196.67 
L 446.956118 56.4 
" clip-path="url(#pacd6270bf7)" style="fill: none; stroke: #000000; stroke-width: 1.5; stroke-linecap: square"/>
   </g>
   <g id="line2d_27">
    <path d="M 501.74632 196.67 
L 501.74632 56.4 
" clip-path="url(#pacd6270bf7)" style="fill: none; stroke: #ff0000; stroke-width: 1.5; stroke-linecap: square"/>
   </g>
   <g id="line2d_28">
    <path d="M 469.683088 196.67 
L 469.683088 56.4 
" clip-path="url(#pacd6270bf7)" style="fill: none; stroke-dasharray: 5.55,2.4; stroke-dashoffset: 0; stroke: #ff0000; stroke-width: 1.5"/>
   </g>
   <g id="patch_28">
    <path d="M 358.675 196.67 
L 358.675 56.4 
" style="fill: none; stroke: #000000; stroke-width: 0.8; stroke-linejoin: miter; stroke-linecap: square"/>
   </g>
   <g id="patch_29">
    <path d="M 637.2 196.67 
L 637.2 56.4 
" style="fill: none; stroke: #000000; stroke-width: 0.8; stroke-linejoin: miter; stroke-linecap: square"/>
   </g>
   <g id="patch_30">
    <path d="M 358.675 196.67 
L 637.2 196.67 
" style="fill: none; stroke: #000000; stroke-width: 0.8; stroke-linejoin: miter; stroke-linecap: square"/>
   </g>
   <g id="patch_31">
    <path d="M 358.675 56.4 
L 637.2 56.4 
" style="fill: none; stroke: #000000; stroke-width: 0.8; stroke-linejoin: miter; stroke-linecap: square"/>
   </g>
   <g id="text_12">
    <!-- m = 3 -->
    <g transform="translate(473.26625 50.4) scale(0.16 -0.16)">
     <use xlink:href="#DejaVuSans-6d"/>
     <use xlink:href="#DejaVuSans-20" x="97.412109"/>
     <use xlink:href="#DejaVuSans-3d" x="129.199219"/>
     <use xlink:href="#DejaVuSans-20" x="212.988281"/>
     <use xlink:href="#DejaVuSans-33" x="244.775391"/>
    </g>
   </g>
  </g>
  <g id="axes_3">
   <g id="patch_32">
    <path d="M 48.17 386.44 
L 326.695 386.44 
L 326.695 246.17 
L 48.17 246.17 
z
" style="fill: #ffffff"/>
   </g>
   <g id="patch_33">
    <path d="M 81.796209 386.44 
L 94.214521 386.44 
L 94.214521 375.752762 
L 81.796209 375.752762 
z
" clip-path="url(#p7d70b706c5)" style="fill: #1f77b4"/>
   </g>
   <g id="patch_34">
    <path d="M 94.214521 386.44 
L 106.632833 386.44 
L 106.632833 362.393714 
L 94.214521 362.393714 
z
" clip-path="url(#p7d70b706c5)" style="fill: #1f77b4"/>
   </g>
   <g id="patch_35">
    <path d="M 106.632833 386.44 
L 119.051145 386.44 
L 119.051145 330.332 
L 106.632833 330.332 
z
" clip-path="url(#p7d70b706c5)" style="fill: #1f77b4"/>
   </g>
   <g id="patch_36">
    <path d="M 119.051145 386.44 
L 131.469457 386.44 
L 131.469457 298.270286 
L 119.051145 298.270286 
z
" clip-path="url(#p7d70b706c5)" style="fill: #1f77b4"/>
   </g>
   <g id="patch_37">
    <path d="M 131.469457 386.44 
L 143.887769 386.44 
L 143.887769 268.880381 
L 131.469457 268.880381 
z
" clip-path="url(#p7d70b706c5)" style="fill: #1f77b4"/>
   </g>
   <g id="patch_38">
    <path d="M 143.887769 386.44 
L 156.306081 386.44 
L 156.306081 319.644762 
L 143.887769 319.644762 
z
" clip-path="url(#p7d70b706c5)" style="fill: #1f77b4"/>
   </g>
   <g id="patch_39">
    <path d="M 156.306081 386.44 
L 168.724393 386.44 
L 168.724393 292.926667 
L 156.306081 292.926667 
z
" clip-path="url(#p7d70b706c5)" style="fill: #1f77b4"/>
   </g>
   <g id="patch_40">
    <path d="M 168.724393 386.44 
L 181.142706 386.44 
L 181.142706 341.019238 
L 168.724393 341.019238 
z
" clip-path="url(#p7d70b706c5)" style="fill: #1f77b4"/>
   </g>
   <g id="patch_41">
    <path d="M 181.142706 386.44 
L 193.561018 386.44 
L 193.561018 359.721905 
L 181.142706 359.721905 
z
" clip-path="url(#p7d70b706c5)" style="fill: #1f77b4"/>
   </g>
   <g id="patch_42">
    <path d="M 193.561018 386.44 
L 205.97933 386.44 
L 205.97933 381.096381 
L 193.561018 381.096381 
z
" clip-path="url(#p7d70b706c5)" style="fill: #1f77b4"/>
   </g>
   <g id="matplotlib.axis_5">
    <g id="xtick_11">
     <g id="line2d_29">
      <g>
       <use xlink:href="#m522bf15fd9" x="100.611833" y="386.44" style="stroke: #000000; stroke-width: 0.8"/>
      </g>
     </g>
     <g id="text_13">
      <!-- 0.6 -->
      <g transform="translate(92.660271 401.038437) scale(0.1 -0.1)">
       <defs>
        <path id="DejaVuSans-2e" d="M 684 794 
L 1344 794 
L 1344 0 
L 684 0 
L 684 794 
z
" transform="scale(0.015625)"/>
        <path id="DejaVuSans-36" d="M 2113 2584 
Q 1688 2584 1439 2293 
Q 1191 2003 1191 1497 
Q 1191 994 1439 701 
Q 1688 409 2113 409 
Q 2538 409 2786 701 
Q 3034 994 3034 1497 
Q 3034 2003 2786 2293 
Q 2538 2584 2113 2584 
z
M 3366 4563 
L 3366 3988 
Q 3128 4100 2886 4159 
Q 2644 4219 2406 4219 
Q 1781 4219 1451 3797 
Q 1122 3375 1075 2522 
Q 1259 2794 1537 2939 
Q 1816 3084 2150 3084 
Q 2853 3084 3261 2657 
Q 3669 2231 3669 1497 
Q 3669 778 3244 343 
Q 2819 -91 2113 -91 
Q 1303 -91 875 529 
Q 447 1150 447 2328 
Q 447 3434 972 4092 
Q 1497 4750 2381 4750 
Q 2619 4750 2861 4703 
Q 3103 4656 3366 4563 
z
" transform="scale(0.015625)"/>
       </defs>
       <use xlink:href="#DejaVuSans-30"/>
       <use xlink:href="#DejaVuSans-2e" x="63.623047"/>
       <use xlink:href="#DejaVuSans-36" x="95.410156"/>
      </g>
     </g>
    </g>
    <g id="xtick_12">
     <g id="line2d_30">
      <g>
       <use xlink:href="#m522bf15fd9" x="154.37076" y="386.44" style="stroke: #000000; stroke-width: 0.8"/>
      </g>
     </g>
     <g id="text_14">
      <!-- 0.7 -->
      <g transform="translate(146.419197 401.038437) scale(0.1 -0.1)">
       <defs>
        <path id="DejaVuSans-37" d="M 525 4666 
L 3525 4666 
L 3525 4397 
L 1831 0 
L 1172 0 
L 2766 4134 
L 525 4134 
L 525 4666 
z
" transform="scale(0.015625)"/>
       </defs>
       <use xlink:href="#DejaVuSans-30"/>
       <use xlink:href="#DejaVuSans-2e" x="63.623047"/>
       <use xlink:href="#DejaVuSans-37" x="95.410156"/>
      </g>
     </g>
    </g>
    <g id="xtick_13">
     <g id="line2d_31">
      <g>
       <use xlink:href="#m522bf15fd9" x="208.129687" y="386.44" style="stroke: #000000; stroke-width: 0.8"/>
      </g>
     </g>
     <g id="text_15">
      <!-- 0.8 -->
      <g transform="translate(200.178124 401.038437) scale(0.1 -0.1)">
       <defs>
        <path id="DejaVuSans-38" d="M 2034 2216 
Q 1584 2216 1326 1975 
Q 1069 1734 1069 1313 
Q 1069 891 1326 650 
Q 1584 409 2034 409 
Q 2484 409 2743 651 
Q 3003 894 3003 1313 
Q 3003 1734 2745 1975 
Q 2488 2216 2034 2216 
z
M 1403 2484 
Q 997 2584 770 2862 
Q 544 3141 544 3541 
Q 544 4100 942 4425 
Q 1341 4750 2034 4750 
Q 2731 4750 3128 4425 
Q 3525 4100 3525 3541 
Q 3525 3141 3298 2862 
Q 3072 2584 2669 2484 
Q 3125 2378 3379 2068 
Q 3634 1759 3634 1313 
Q 3634 634 3220 271 
Q 2806 -91 2034 -91 
Q 1263 -91 848 271 
Q 434 634 434 1313 
Q 434 1759 690 2068 
Q 947 2378 1403 2484 
z
M 1172 3481 
Q 1172 3119 1398 2916 
Q 1625 2713 2034 2713 
Q 2441 2713 2670 2916 
Q 2900 3119 2900 3481 
Q 2900 3844 2670 4047 
Q 2441 4250 2034 4250 
Q 1625 4250 1398 4047 
Q 1172 3844 1172 3481 
z
" transform="scale(0.015625)"/>
       </defs>
       <use xlink:href="#DejaVuSans-30"/>
       <use xlink:href="#DejaVuSans-2e" x="63.623047"/>
       <use xlink:href="#DejaVuSans-38" x="95.410156"/>
      </g>
     </g>
    </g>
    <g id="xtick_14">
     <g id="line2d_32">
      <g>
       <use xlink:href="#m522bf15fd9" x="261.888614" y="386.44" style="stroke: #000000; stroke-width: 0.8"/>
      </g>
     </g>
     <g id="text_16">
      <!-- 0.9 -->
      <g transform="translate(253.937051 401.038437) scale(0.1 -0.1)">
       <defs>
        <path id="DejaVuSans-39" d="M 703 97 
L 703 672 
Q 941 559 1184 500 
Q 1428 441 1663 441 
Q 2288 441 2617 861 
Q 2947 1281 2994 2138 
Q 2813 1869 2534 1725 
Q 2256 1581 1919 1581 
Q 1219 1581 811 2004 
Q 403 2428 403 3163 
Q 403 3881 828 4315 
Q 1253 4750 1959 4750 
Q 2769 4750 3195 4129 
Q 3622 3509 3622 2328 
Q 3622 1225 3098 567 
Q 2575 -91 1691 -91 
Q 1453 -91 1209 -44 
Q 966 3 703 97 
z
M 1959 2075 
Q 2384 2075 2632 2365 
Q 2881 2656 2881 3163 
Q 2881 3666 2632 3958 
Q 2384 4250 1959 4250 
Q 1534 4250 1286 3958 
Q 1038 3666 1038 3163 
Q 1038 2656 1286 2365 
Q 1534 2075 1959 2075 
z
" transform="scale(0.015625)"/>
       </defs>
       <use xlink:href="#DejaVuSans-30"/>
       <use xlink:href="#DejaVuSans-2e" x="63.623047"/>
       <use xlink:href="#DejaVuSans-39" x="95.410156"/>
      </g>
     </g>
    </g>
    <g id="xtick_15">
     <g id="line2d_33">
      <g>
       <use xlink:href="#m522bf15fd9" x="315.647541" y="386.44" style="stroke: #000000; stroke-width: 0.8"/>
      </g>
     </g>
     <g id="text_17">
      <!-- 1.0 -->
      <g transform="translate(307.695978 401.038437) scale(0.1 -0.1)">
       <use xlink:href="#DejaVuSans-31"/>
       <use xlink:href="#DejaVuSans-2e" x="63.623047"/>
       <use xlink:href="#DejaVuSans-30" x="95.410156"/>
      </g>
     </g>
    </g>
    <g id="text_18">
     <!-- Heavy output probability -->
     <g transform="translate(100.401719 417.755938) scale(0.14 -0.14)">
      <use xlink:href="#DejaVuSans-48"/>
      <use xlink:href="#DejaVuSans-65" x="75.195312"/>
      <use xlink:href="#DejaVuSans-61" x="136.71875"/>
      <use xlink:href="#DejaVuSans-76" x="197.998047"/>
      <use xlink:href="#DejaVuSans-79" x="257.177734"/>
      <use xlink:href="#DejaVuSans-20" x="316.357422"/>
      <use xlink:href="#DejaVuSans-6f" x="348.144531"/>
      <use xlink:href="#DejaVuSans-75" x="409.326172"/>
      <use xlink:href="#DejaVuSans-74" x="472.705078"/>
      <use xlink:href="#DejaVuSans-70" x="511.914062"/>
      <use xlink:href="#DejaVuSans-75" x="575.390625"/>
      <use xlink:href="#DejaVuSans-74" x="638.769531"/>
      <use xlink:href="#DejaVuSans-20" x="677.978516"/>
      <use xlink:href="#DejaVuSans-70" x="709.765625"/>
      <use xlink:href="#DejaVuSans-72" x="773.242188"/>
      <use xlink:href="#DejaVuSans-6f" x="812.105469"/>
      <use xlink:href="#DejaVuSans-62" x="873.287109"/>
      <use xlink:href="#DejaVuSans-61" x="936.763672"/>
      <use xlink:href="#DejaVuSans-62" x="998.042969"/>
      <use xlink:href="#DejaVuSans-69" x="1061.519531"/>
      <use xlink:href="#DejaVuSans-6c" x="1089.302734"/>
      <use xlink:href="#DejaVuSans-69" x="1117.085938"/>
      <use xlink:href="#DejaVuSans-74" x="1144.869141"/>
      <use xlink:href="#DejaVuSans-79" x="1184.078125"/>
     </g>
    </g>
   </g>
   <g id="matplotlib.axis_6">
    <g id="ytick_13">
     <g id="line2d_34">
      <g>
       <use xlink:href="#md82a92834a" x="48.17" y="386.44" style="stroke: #000000; stroke-width: 0.8"/>
      </g>
     </g>
     <g id="text_19">
      <!-- 0 -->
      <g transform="translate(34.8075 390.239219) scale(0.1 -0.1)">
       <use xlink:href="#DejaVuSans-30"/>
      </g>
     </g>
    </g>
    <g id="ytick_14">
     <g id="line2d_35">
      <g>
       <use xlink:href="#md82a92834a" x="48.17" y="359.721905" style="stroke: #000000; stroke-width: 0.8"/>
      </g>
     </g>
     <g id="text_20">
      <!-- 10 -->
      <g transform="translate(28.445 363.521124) scale(0.1 -0.1)">
       <use xlink:href="#DejaVuSans-31"/>
       <use xlink:href="#DejaVuSans-30" x="63.623047"/>
      </g>
     </g>
    </g>
    <g id="ytick_15">
     <g id="line2d_36">
      <g>
       <use xlink:href="#md82a92834a" x="48.17" y="333.00381" style="stroke: #000000; stroke-width: 0.8"/>
      </g>
     </g>
     <g id="text_21">
      <!-- 20 -->
      <g transform="translate(28.445 336.803028) scale(0.1 -0.1)">
       <use xlink:href="#DejaVuSans-32"/>
       <use xlink:href="#DejaVuSans-30" x="63.623047"/>
      </g>
     </g>
    </g>
    <g id="ytick_16">
     <g id="line2d_37">
      <g>
       <use xlink:href="#md82a92834a" x="48.17" y="306.285714" style="stroke: #000000; stroke-width: 0.8"/>
      </g>
     </g>
     <g id="text_22">
      <!-- 30 -->
      <g transform="translate(28.445 310.084933) scale(0.1 -0.1)">
       <use xlink:href="#DejaVuSans-33"/>
       <use xlink:href="#DejaVuSans-30" x="63.623047"/>
      </g>
     </g>
    </g>
    <g id="ytick_17">
     <g id="line2d_38">
      <g>
       <use xlink:href="#md82a92834a" x="48.17" y="279.567619" style="stroke: #000000; stroke-width: 0.8"/>
      </g>
     </g>
     <g id="text_23">
      <!-- 40 -->
      <g transform="translate(28.445 283.366838) scale(0.1 -0.1)">
       <use xlink:href="#DejaVuSans-34"/>
       <use xlink:href="#DejaVuSans-30" x="63.623047"/>
      </g>
     </g>
    </g>
    <g id="ytick_18">
     <g id="line2d_39">
      <g>
       <use xlink:href="#md82a92834a" x="48.17" y="252.849524" style="stroke: #000000; stroke-width: 0.8"/>
      </g>
     </g>
     <g id="text_24">
      <!-- 50 -->
      <g transform="translate(28.445 256.648743) scale(0.1 -0.1)">
       <use xlink:href="#DejaVuSans-35"/>
       <use xlink:href="#DejaVuSans-30" x="63.623047"/>
      </g>
     </g>
    </g>
    <g id="text_25">
     <!-- Occurrences -->
     <g transform="translate(21.533438 359.970781) rotate(-90) scale(0.14 -0.14)">
      <use xlink:href="#DejaVuSans-4f"/>
      <use xlink:href="#DejaVuSans-63" x="78.710938"/>
      <use xlink:href="#DejaVuSans-63" x="133.691406"/>
      <use xlink:href="#DejaVuSans-75" x="188.671875"/>
      <use xlink:href="#DejaVuSans-72" x="252.050781"/>
      <use xlink:href="#DejaVuSans-72" x="291.414062"/>
      <use xlink:href="#DejaVuSans-65" x="330.277344"/>
      <use xlink:href="#DejaVuSans-6e" x="391.800781"/>
      <use xlink:href="#DejaVuSans-63" x="455.179688"/>
      <use xlink:href="#DejaVuSans-65" x="510.160156"/>
      <use xlink:href="#DejaVuSans-73" x="571.683594"/>
     </g>
    </g>
   </g>
   <g id="line2d_40">
    <path d="M 136.451118 386.44 
L 136.451118 246.17 
" clip-path="url(#p7d70b706c5)" style="fill: none; stroke: #000000; stroke-width: 1.5; stroke-linecap: square"/>
   </g>
   <g id="line2d_41">
    <path d="M 142.667442 386.44 
L 142.667442 246.17 
" clip-path="url(#p7d70b706c5)" style="fill: none; stroke: #ff0000; stroke-width: 1.5; stroke-linecap: square"/>
   </g>
   <g id="line2d_42">
    <path d="M 107.151211 386.44 
L 107.151211 246.17 
" clip-path="url(#p7d70b706c5)" style="fill: none; stroke-dasharray: 5.55,2.4; stroke-dashoffset: 0; stroke: #ff0000; stroke-width: 1.5"/>
   </g>
   <g id="patch_43">
    <path d="M 48.17 386.44 
L 48.17 246.17 
" style="fill: none; stroke: #000000; stroke-width: 0.8; stroke-linejoin: miter; stroke-linecap: square"/>
   </g>
   <g id="patch_44">
    <path d="M 326.695 386.44 
L 326.695 246.17 
" style="fill: none; stroke: #000000; stroke-width: 0.8; stroke-linejoin: miter; stroke-linecap: square"/>
   </g>
   <g id="patch_45">
    <path d="M 48.17 386.44 
L 326.695 386.44 
" style="fill: none; stroke: #000000; stroke-width: 0.8; stroke-linejoin: miter; stroke-linecap: square"/>
   </g>
   <g id="patch_46">
    <path d="M 48.17 246.17 
L 326.695 246.17 
" style="fill: none; stroke: #000000; stroke-width: 0.8; stroke-linejoin: miter; stroke-linecap: square"/>
   </g>
   <g id="text_26">
    <!-- m = 4 -->
    <g transform="translate(162.76125 240.17) scale(0.16 -0.16)">
     <use xlink:href="#DejaVuSans-6d"/>
     <use xlink:href="#DejaVuSans-20" x="97.412109"/>
     <use xlink:href="#DejaVuSans-3d" x="129.199219"/>
     <use xlink:href="#DejaVuSans-20" x="212.988281"/>
     <use xlink:href="#DejaVuSans-34" x="244.775391"/>
    </g>
   </g>
  </g>
  <g id="axes_4">
   <g id="patch_47">
    <path d="M 358.675 386.44 
L 637.2 386.44 
L 637.2 246.17 
L 358.675 246.17 
z
" style="fill: #ffffff"/>
   </g>
   <g id="patch_48">
    <path d="M 385.850138 386.44 
L 399.7737 386.44 
L 399.7737 333.00381 
L 385.850138 333.00381 
z
" clip-path="url(#p802b71befd)" style="fill: #1f77b4"/>
   </g>
   <g id="patch_49">
    <path d="M 399.7737 386.44 
L 413.697262 386.44 
L 413.697262 274.224 
L 399.7737 274.224 
z
" clip-path="url(#p802b71befd)" style="fill: #1f77b4"/>
   </g>
   <g id="patch_50">
    <path d="M 413.697262 386.44 
L 427.620824 386.44 
L 427.620824 252.849524 
L 413.697262 252.849524 
z
" clip-path="url(#p802b71befd)" style="fill: #1f77b4"/>
   </g>
   <g id="patch_51">
    <path d="M 427.620824 386.44 
L 441.544386 386.44 
L 441.544386 271.55219 
L 427.620824 271.55219 
z
" clip-path="url(#p802b71befd)" style="fill: #1f77b4"/>
   </g>
   <g id="patch_52">
    <path d="M 441.544386 386.44 
L 455.467948 386.44 
L 455.467948 322.316571 
L 441.544386 322.316571 
z
" clip-path="url(#p802b71befd)" style="fill: #1f77b4"/>
   </g>
   <g id="patch_53">
    <path d="M 455.467948 386.44 
L 469.39151 386.44 
L 469.39151 354.378286 
L 455.467948 354.378286 
z
" clip-path="url(#p802b71befd)" style="fill: #1f77b4"/>
   </g>
   <g id="patch_54">
    <path d="M 469.39151 386.44 
L 483.315072 386.44 
L 483.315072 373.080952 
L 469.39151 373.080952 
z
" clip-path="url(#p802b71befd)" style="fill: #1f77b4"/>
   </g>
   <g id="patch_55">
    <path d="M 483.315072 386.44 
L 497.238634 386.44 
L 497.238634 383.76819 
L 483.315072 383.76819 
z
" clip-path="url(#p802b71befd)" style="fill: #1f77b4"/>
   </g>
   <g id="patch_56">
    <path d="M 497.238634 386.44 
L 511.162196 386.44 
L 511.162196 383.76819 
L 497.238634 383.76819 
z
" clip-path="url(#p802b71befd)" style="fill: #1f77b4"/>
   </g>
   <g id="patch_57">
    <path d="M 511.162196 386.44 
L 525.085758 386.44 
L 525.085758 381.096381 
L 511.162196 381.096381 
z
" clip-path="url(#p802b71befd)" style="fill: #1f77b4"/>
   </g>
   <g id="matplotlib.axis_7">
    <g id="xtick_16">
     <g id="line2d_43">
      <g>
       <use xlink:href="#m522bf15fd9" x="411.116833" y="386.44" style="stroke: #000000; stroke-width: 0.8"/>
      </g>
     </g>
     <g id="text_27">
      <!-- 0.6 -->
      <g transform="translate(403.165271 401.038437) scale(0.1 -0.1)">
       <use xlink:href="#DejaVuSans-30"/>
       <use xlink:href="#DejaVuSans-2e" x="63.623047"/>
       <use xlink:href="#DejaVuSans-36" x="95.410156"/>
      </g>
     </g>
    </g>
    <g id="xtick_17">
     <g id="line2d_44">
      <g>
       <use xlink:href="#m522bf15fd9" x="464.87576" y="386.44" style="stroke: #000000; stroke-width: 0.8"/>
      </g>
     </g>
     <g id="text_28">
      <!-- 0.7 -->
      <g transform="translate(456.924197 401.038437) scale(0.1 -0.1)">
       <use xlink:href="#DejaVuSans-30"/>
       <use xlink:href="#DejaVuSans-2e" x="63.623047"/>
       <use xlink:href="#DejaVuSans-37" x="95.410156"/>
      </g>
     </g>
    </g>
    <g id="xtick_18">
     <g id="line2d_45">
      <g>
       <use xlink:href="#m522bf15fd9" x="518.634687" y="386.44" style="stroke: #000000; stroke-width: 0.8"/>
      </g>
     </g>
     <g id="text_29">
      <!-- 0.8 -->
      <g transform="translate(510.683124 401.038437) scale(0.1 -0.1)">
       <use xlink:href="#DejaVuSans-30"/>
       <use xlink:href="#DejaVuSans-2e" x="63.623047"/>
       <use xlink:href="#DejaVuSans-38" x="95.410156"/>
      </g>
     </g>
    </g>
    <g id="xtick_19">
     <g id="line2d_46">
      <g>
       <use xlink:href="#m522bf15fd9" x="572.393614" y="386.44" style="stroke: #000000; stroke-width: 0.8"/>
      </g>
     </g>
     <g id="text_30">
      <!-- 0.9 -->
      <g transform="translate(564.442051 401.038437) scale(0.1 -0.1)">
       <use xlink:href="#DejaVuSans-30"/>
       <use xlink:href="#DejaVuSans-2e" x="63.623047"/>
       <use xlink:href="#DejaVuSans-39" x="95.410156"/>
      </g>
     </g>
    </g>
    <g id="xtick_20">
     <g id="line2d_47">
      <g>
       <use xlink:href="#m522bf15fd9" x="626.152541" y="386.44" style="stroke: #000000; stroke-width: 0.8"/>
      </g>
     </g>
     <g id="text_31">
      <!-- 1.0 -->
      <g transform="translate(618.200978 401.038437) scale(0.1 -0.1)">
       <use xlink:href="#DejaVuSans-31"/>
       <use xlink:href="#DejaVuSans-2e" x="63.623047"/>
       <use xlink:href="#DejaVuSans-30" x="95.410156"/>
      </g>
     </g>
    </g>
    <g id="text_32">
     <!-- Heavy output probability -->
     <g transform="translate(410.906719 417.755938) scale(0.14 -0.14)">
      <use xlink:href="#DejaVuSans-48"/>
      <use xlink:href="#DejaVuSans-65" x="75.195312"/>
      <use xlink:href="#DejaVuSans-61" x="136.71875"/>
      <use xlink:href="#DejaVuSans-76" x="197.998047"/>
      <use xlink:href="#DejaVuSans-79" x="257.177734"/>
      <use xlink:href="#DejaVuSans-20" x="316.357422"/>
      <use xlink:href="#DejaVuSans-6f" x="348.144531"/>
      <use xlink:href="#DejaVuSans-75" x="409.326172"/>
      <use xlink:href="#DejaVuSans-74" x="472.705078"/>
      <use xlink:href="#DejaVuSans-70" x="511.914062"/>
      <use xlink:href="#DejaVuSans-75" x="575.390625"/>
      <use xlink:href="#DejaVuSans-74" x="638.769531"/>
      <use xlink:href="#DejaVuSans-20" x="677.978516"/>
      <use xlink:href="#DejaVuSans-70" x="709.765625"/>
      <use xlink:href="#DejaVuSans-72" x="773.242188"/>
      <use xlink:href="#DejaVuSans-6f" x="812.105469"/>
      <use xlink:href="#DejaVuSans-62" x="873.287109"/>
      <use xlink:href="#DejaVuSans-61" x="936.763672"/>
      <use xlink:href="#DejaVuSans-62" x="998.042969"/>
      <use xlink:href="#DejaVuSans-69" x="1061.519531"/>
      <use xlink:href="#DejaVuSans-6c" x="1089.302734"/>
      <use xlink:href="#DejaVuSans-69" x="1117.085938"/>
      <use xlink:href="#DejaVuSans-74" x="1144.869141"/>
      <use xlink:href="#DejaVuSans-79" x="1184.078125"/>
     </g>
    </g>
   </g>
   <g id="matplotlib.axis_8">
    <g id="ytick_19">
     <g id="line2d_48">
      <g>
       <use xlink:href="#md82a92834a" x="358.675" y="386.44" style="stroke: #000000; stroke-width: 0.8"/>
      </g>
     </g>
    </g>
    <g id="ytick_20">
     <g id="line2d_49">
      <g>
       <use xlink:href="#md82a92834a" x="358.675" y="359.721905" style="stroke: #000000; stroke-width: 0.8"/>
      </g>
     </g>
    </g>
    <g id="ytick_21">
     <g id="line2d_50">
      <g>
       <use xlink:href="#md82a92834a" x="358.675" y="333.00381" style="stroke: #000000; stroke-width: 0.8"/>
      </g>
     </g>
    </g>
    <g id="ytick_22">
     <g id="line2d_51">
      <g>
       <use xlink:href="#md82a92834a" x="358.675" y="306.285714" style="stroke: #000000; stroke-width: 0.8"/>
      </g>
     </g>
    </g>
    <g id="ytick_23">
     <g id="line2d_52">
      <g>
       <use xlink:href="#md82a92834a" x="358.675" y="279.567619" style="stroke: #000000; stroke-width: 0.8"/>
      </g>
     </g>
    </g>
    <g id="ytick_24">
     <g id="line2d_53">
      <g>
       <use xlink:href="#md82a92834a" x="358.675" y="252.849524" style="stroke: #000000; stroke-width: 0.8"/>
      </g>
     </g>
    </g>
    <g id="text_33">
     <!-- Occurrences -->
     <g transform="translate(348.263437 359.970781) rotate(-90) scale(0.14 -0.14)">
      <use xlink:href="#DejaVuSans-4f"/>
      <use xlink:href="#DejaVuSans-63" x="78.710938"/>
      <use xlink:href="#DejaVuSans-63" x="133.691406"/>
      <use xlink:href="#DejaVuSans-75" x="188.671875"/>
      <use xlink:href="#DejaVuSans-72" x="252.050781"/>
      <use xlink:href="#DejaVuSans-72" x="291.414062"/>
      <use xlink:href="#DejaVuSans-65" x="330.277344"/>
      <use xlink:href="#DejaVuSans-6e" x="391.800781"/>
      <use xlink:href="#DejaVuSans-63" x="455.179688"/>
      <use xlink:href="#DejaVuSans-65" x="510.160156"/>
      <use xlink:href="#DejaVuSans-73" x="571.683594"/>
     </g>
    </g>
   </g>
   <g id="line2d_54">
    <path d="M 446.956118 386.44 
L 446.956118 246.17 
" clip-path="url(#p802b71befd)" style="fill: none; stroke: #000000; stroke-width: 1.5; stroke-linecap: square"/>
   </g>
   <g id="line2d_55">
    <path d="M 426.322546 386.44 
L 426.322546 246.17 
" clip-path="url(#p802b71befd)" style="fill: none; stroke: #ff0000; stroke-width: 1.5; stroke-linecap: square"/>
   </g>
   <g id="line2d_56">
    <path d="M 389.581714 386.44 
L 389.581714 246.17 
" clip-path="url(#p802b71befd)" style="fill: none; stroke-dasharray: 5.55,2.4; stroke-dashoffset: 0; stroke: #ff0000; stroke-width: 1.5"/>
   </g>
   <g id="patch_58">
    <path d="M 358.675 386.44 
L 358.675 246.17 
" style="fill: none; stroke: #000000; stroke-width: 0.8; stroke-linejoin: miter; stroke-linecap: square"/>
   </g>
   <g id="patch_59">
    <path d="M 637.2 386.44 
L 637.2 246.17 
" style="fill: none; stroke: #000000; stroke-width: 0.8; stroke-linejoin: miter; stroke-linecap: square"/>
   </g>
   <g id="patch_60">
    <path d="M 358.675 386.44 
L 637.2 386.44 
" style="fill: none; stroke: #000000; stroke-width: 0.8; stroke-linejoin: miter; stroke-linecap: square"/>
   </g>
   <g id="patch_61">
    <path d="M 358.675 246.17 
L 637.2 246.17 
" style="fill: none; stroke: #000000; stroke-width: 0.8; stroke-linejoin: miter; stroke-linecap: square"/>
   </g>
   <g id="text_34">
    <!-- m = 5 -->
    <g transform="translate(473.26625 240.17) scale(0.16 -0.16)">
     <use xlink:href="#DejaVuSans-6d"/>
     <use xlink:href="#DejaVuSans-20" x="97.412109"/>
     <use xlink:href="#DejaVuSans-3d" x="129.199219"/>
     <use xlink:href="#DejaVuSans-20" x="212.988281"/>
     <use xlink:href="#DejaVuSans-35" x="244.775391"/>
    </g>
   </g>
   <g id="legend_1">
    <g id="patch_62">
     <path d="M 544.454375 319.018125 
L 627.4 319.018125 
Q 630.2 319.018125 630.2 316.218125 
L 630.2 255.97 
Q 630.2 253.17 627.4 253.17 
L 544.454375 253.17 
Q 541.654375 253.17 541.654375 255.97 
L 541.654375 316.218125 
Q 541.654375 319.018125 544.454375 319.018125 
z
" style="fill: #ffffff; opacity: 0.8; stroke: #cccccc; stroke-linejoin: miter"/>
    </g>
    <g id="line2d_57">
     <path d="M 547.254375 264.507812 
L 561.254375 264.507812 
L 575.254375 264.507812 
" style="fill: none; stroke: #000000; stroke-width: 1.5; stroke-linecap: square"/>
    </g>
    <g id="text_35">
     <!-- 2/3 -->
     <g transform="translate(586.454375 269.407812) scale(0.14 -0.14)">
      <defs>
       <path id="DejaVuSans-2f" d="M 1625 4666 
L 2156 4666 
L 531 -594 
L 0 -594 
L 1625 4666 
z
" transform="scale(0.015625)"/>
      </defs>
      <use xlink:href="#DejaVuSans-32"/>
      <use xlink:href="#DejaVuSans-2f" x="63.623047"/>
      <use xlink:href="#DejaVuSans-33" x="97.314453"/>
     </g>
    </g>
    <g id="line2d_58">
     <path d="M 547.254375 285.057187 
L 561.254375 285.057187 
L 575.254375 285.057187 
" style="fill: none; stroke: #ff0000; stroke-width: 1.5; stroke-linecap: square"/>
    </g>
    <g id="text_36">
     <!-- Mean -->
     <g transform="translate(586.454375 289.957187) scale(0.14 -0.14)">
      <defs>
       <path id="DejaVuSans-4d" d="M 628 4666 
L 1569 4666 
L 2759 1491 
L 3956 4666 
L 4897 4666 
L 4897 0 
L 4281 0 
L 4281 4097 
L 3078 897 
L 2444 897 
L 1241 4097 
L 1241 0 
L 628 0 
L 628 4666 
z
" transform="scale(0.015625)"/>
      </defs>
      <use xlink:href="#DejaVuSans-4d"/>
      <use xlink:href="#DejaVuSans-65" x="86.279297"/>
      <use xlink:href="#DejaVuSans-61" x="147.802734"/>
      <use xlink:href="#DejaVuSans-6e" x="209.082031"/>
     </g>
    </g>
    <g id="line2d_59">
     <path d="M 547.254375 305.606562 
L 561.254375 305.606562 
L 575.254375 305.606562 
" style="fill: none; stroke-dasharray: 5.55,2.4; stroke-dashoffset: 0; stroke: #ff0000; stroke-width: 1.5"/>
    </g>
    <g id="text_37">
     <!-- 2 -->
     <g transform="translate(586.454375 310.506562) scale(0.14 -0.14)">
      <defs>
       <path id="DejaVuSans-3c3" d="M 1959 3044 
Q 1484 3044 1228 2700 
Q 959 2341 959 1747 
Q 959 1119 1226 758 
Q 1494 397 1959 397 
Q 2419 397 2687 759 
Q 2956 1122 2956 1747 
Q 2956 2319 2688 2700 
Q 2441 3044 1959 3044 
z
M 1959 3500 
L 3869 3500 
L 3869 2925 
L 3225 2925 
Q 3566 2438 3566 1747 
Q 3566 888 3138 400 
Q 2709 -91 1959 -91 
Q 1206 -91 781 400 
Q 353 888 353 1747 
Q 353 2613 781 3097 
Q 1134 3500 1959 3500 
z
" transform="scale(0.015625)"/>
      </defs>
      <use xlink:href="#DejaVuSans-32"/>
      <use xlink:href="#DejaVuSans-3c3" x="63.623047"/>
     </g>
    </g>
   </g>
  </g>
  <g id="text_38">
   <!-- Heavy output distributions for (simulated) Lima QPU -->
   <g transform="translate(87.955313 22.317187) scale(0.18 -0.18)">
    <defs>
     <path id="DejaVuSans-64" d="M 2906 2969 
L 2906 4863 
L 3481 4863 
L 3481 0 
L 2906 0 
L 2906 525 
Q 2725 213 2448 61 
Q 2172 -91 1784 -91 
Q 1150 -91 751 415 
Q 353 922 353 1747 
Q 353 2572 751 3078 
Q 1150 3584 1784 3584 
Q 2172 3584 2448 3432 
Q 2725 3281 2906 2969 
z
M 947 1747 
Q 947 1113 1208 752 
Q 1469 391 1925 391 
Q 2381 391 2643 752 
Q 2906 1113 2906 1747 
Q 2906 2381 2643 2742 
Q 2381 3103 1925 3103 
Q 1469 3103 1208 2742 
Q 947 2381 947 1747 
z
" transform="scale(0.015625)"/>
     <path id="DejaVuSans-66" d="M 2375 4863 
L 2375 4384 
L 1825 4384 
Q 1516 4384 1395 4259 
Q 1275 4134 1275 3809 
L 1275 3500 
L 2222 3500 
L 2222 3053 
L 1275 3053 
L 1275 0 
L 697 0 
L 697 3053 
L 147 3053 
L 147 3500 
L 697 3500 
L 697 3744 
Q 697 4328 969 4595 
Q 1241 4863 1831 4863 
L 2375 4863 
z
" transform="scale(0.015625)"/>
     <path id="DejaVuSans-28" d="M 1984 4856 
Q 1566 4138 1362 3434 
Q 1159 2731 1159 2009 
Q 1159 1288 1364 580 
Q 1569 -128 1984 -844 
L 1484 -844 
Q 1016 -109 783 600 
Q 550 1309 550 2009 
Q 550 2706 781 3412 
Q 1013 4119 1484 4856 
L 1984 4856 
z
" transform="scale(0.015625)"/>
     <path id="DejaVuSans-29" d="M 513 4856 
L 1013 4856 
Q 1481 4119 1714 3412 
Q 1947 2706 1947 2009 
Q 1947 1309 1714 600 
Q 1481 -109 1013 -844 
L 513 -844 
Q 928 -128 1133 580 
Q 1338 1288 1338 2009 
Q 1338 2731 1133 3434 
Q 928 4138 513 4856 
z
" transform="scale(0.015625)"/>
     <path id="DejaVuSans-4c" d="M 628 4666 
L 1259 4666 
L 1259 531 
L 3531 531 
L 3531 0 
L 628 0 
L 628 4666 
z
" transform="scale(0.015625)"/>
     <path id="DejaVuSans-51" d="M 2522 4238 
Q 1834 4238 1429 3725 
Q 1025 3213 1025 2328 
Q 1025 1447 1429 934 
Q 1834 422 2522 422 
Q 3209 422 3611 934 
Q 4013 1447 4013 2328 
Q 4013 3213 3611 3725 
Q 3209 4238 2522 4238 
z
M 3406 84 
L 4238 -825 
L 3475 -825 
L 2784 -78 
Q 2681 -84 2626 -87 
Q 2572 -91 2522 -91 
Q 1538 -91 948 567 
Q 359 1225 359 2328 
Q 359 3434 948 4092 
Q 1538 4750 2522 4750 
Q 3503 4750 4090 4092 
Q 4678 3434 4678 2328 
Q 4678 1516 4351 937 
Q 4025 359 3406 84 
z
" transform="scale(0.015625)"/>
     <path id="DejaVuSans-50" d="M 1259 4147 
L 1259 2394 
L 2053 2394 
Q 2494 2394 2734 2622 
Q 2975 2850 2975 3272 
Q 2975 3691 2734 3919 
Q 2494 4147 2053 4147 
L 1259 4147 
z
M 628 4666 
L 2053 4666 
Q 2838 4666 3239 4311 
Q 3641 3956 3641 3272 
Q 3641 2581 3239 2228 
Q 2838 1875 2053 1875 
L 1259 1875 
L 1259 0 
L 628 0 
L 628 4666 
z
" transform="scale(0.015625)"/>
     <path id="DejaVuSans-55" d="M 556 4666 
L 1191 4666 
L 1191 1831 
Q 1191 1081 1462 751 
Q 1734 422 2344 422 
Q 2950 422 3222 751 
Q 3494 1081 3494 1831 
L 3494 4666 
L 4128 4666 
L 4128 1753 
Q 4128 841 3676 375 
Q 3225 -91 2344 -91 
Q 1459 -91 1007 375 
Q 556 841 556 1753 
L 556 4666 
z
" transform="scale(0.015625)"/>
    </defs>
    <use xlink:href="#DejaVuSans-48"/>
    <use xlink:href="#DejaVuSans-65" x="75.195312"/>
    <use xlink:href="#DejaVuSans-61" x="136.71875"/>
    <use xlink:href="#DejaVuSans-76" x="197.998047"/>
    <use xlink:href="#DejaVuSans-79" x="257.177734"/>
    <use xlink:href="#DejaVuSans-20" x="316.357422"/>
    <use xlink:href="#DejaVuSans-6f" x="348.144531"/>
    <use xlink:href="#DejaVuSans-75" x="409.326172"/>
    <use xlink:href="#DejaVuSans-74" x="472.705078"/>
    <use xlink:href="#DejaVuSans-70" x="511.914062"/>
    <use xlink:href="#DejaVuSans-75" x="575.390625"/>
    <use xlink:href="#DejaVuSans-74" x="638.769531"/>
    <use xlink:href="#DejaVuSans-20" x="677.978516"/>
    <use xlink:href="#DejaVuSans-64" x="709.765625"/>
    <use xlink:href="#DejaVuSans-69" x="773.242188"/>
    <use xlink:href="#DejaVuSans-73" x="801.025391"/>
    <use xlink:href="#DejaVuSans-74" x="853.125"/>
    <use xlink:href="#DejaVuSans-72" x="892.333984"/>
    <use xlink:href="#DejaVuSans-69" x="933.447266"/>
    <use xlink:href="#DejaVuSans-62" x="961.230469"/>
    <use xlink:href="#DejaVuSans-75" x="1024.707031"/>
    <use xlink:href="#DejaVuSans-74" x="1088.085938"/>
    <use xlink:href="#DejaVuSans-69" x="1127.294922"/>
    <use xlink:href="#DejaVuSans-6f" x="1155.078125"/>
    <use xlink:href="#DejaVuSans-6e" x="1216.259766"/>
    <use xlink:href="#DejaVuSans-73" x="1279.638672"/>
    <use xlink:href="#DejaVuSans-20" x="1331.738281"/>
    <use xlink:href="#DejaVuSans-66" x="1363.525391"/>
    <use xlink:href="#DejaVuSans-6f" x="1398.730469"/>
    <use xlink:href="#DejaVuSans-72" x="1459.912109"/>
    <use xlink:href="#DejaVuSans-20" x="1501.025391"/>
    <use xlink:href="#DejaVuSans-28" x="1532.8125"/>
    <use xlink:href="#DejaVuSans-73" x="1571.826172"/>
    <use xlink:href="#DejaVuSans-69" x="1623.925781"/>
    <use xlink:href="#DejaVuSans-6d" x="1651.708984"/>
    <use xlink:href="#DejaVuSans-75" x="1749.121094"/>
    <use xlink:href="#DejaVuSans-6c" x="1812.5"/>
    <use xlink:href="#DejaVuSans-61" x="1840.283203"/>
    <use xlink:href="#DejaVuSans-74" x="1901.5625"/>
    <use xlink:href="#DejaVuSans-65" x="1940.771484"/>
    <use xlink:href="#DejaVuSans-64" x="2002.294922"/>
    <use xlink:href="#DejaVuSans-29" x="2065.771484"/>
    <use xlink:href="#DejaVuSans-20" x="2104.785156"/>
    <use xlink:href="#DejaVuSans-4c" x="2136.572266"/>
    <use xlink:href="#DejaVuSans-69" x="2192.285156"/>
    <use xlink:href="#DejaVuSans-6d" x="2220.068359"/>
    <use xlink:href="#DejaVuSans-61" x="2317.480469"/>
    <use xlink:href="#DejaVuSans-20" x="2378.759766"/>
    <use xlink:href="#DejaVuSans-51" x="2410.546875"/>
    <use xlink:href="#DejaVuSans-50" x="2489.257812"/>
    <use xlink:href="#DejaVuSans-55" x="2549.560547"/>
   </g>
  </g>
 </g>
 <defs>
  <clipPath id="pd3236a504d">
   <rect x="48.17" y="56.4" width="278.525" height="140.27"/>
  </clipPath>
  <clipPath id="pacd6270bf7">
   <rect x="358.675" y="56.4" width="278.525" height="140.27"/>
  </clipPath>
  <clipPath id="p7d70b706c5">
   <rect x="48.17" y="246.17" width="278.525" height="140.27"/>
  </clipPath>
  <clipPath id="p802b71befd">
   <rect x="358.675" y="246.17" width="278.525" height="140.27"/>
  </clipPath>
 </defs>
</svg>
