<?xml version="1.0" encoding="utf-8" standalone="no"?>
<!DOCTYPE svg PUBLIC "-//W3C//DTD SVG 1.1//EN"
  "http://www.w3.org/Graphics/SVG/1.1/DTD/svg11.dtd">
<!-- Created with matplotlib (https://matplotlib.org/) -->
<svg height="432pt" version="1.1" viewBox="0 0 648 432" width="648pt" xmlns="http://www.w3.org/2000/svg" xmlns:xlink="http://www.w3.org/1999/xlink">
 <metadata>
  <rdf:RDF xmlns:cc="http://creativecommons.org/ns#" xmlns:dc="http://purl.org/dc/elements/1.1/" xmlns:rdf="http://www.w3.org/1999/02/22-rdf-syntax-ns#">
   <cc:Work>
    <dc:type rdf:resource="http://purl.org/dc/dcmitype/StillImage"/>
    <dc:date>2020-12-02T08:17:56.577858</dc:date>
    <dc:format>image/svg+xml</dc:format>
    <dc:creator>
     <cc:Agent>
      <dc:title>Matplotlib v3.3.1, https://matplotlib.org/</dc:title>
     </cc:Agent>
    </dc:creator>
   </cc:Work>
  </rdf:RDF>
 </metadata>
 <defs>
  <style type="text/css">*{stroke-linecap:butt;stroke-linejoin:round;}</style>
 </defs>
 <g id="figure_1">
  <g id="patch_1">
   <path d="M 0 432 
L 648 432 
L 648 0 
L 0 0 
z
" style="fill:none;"/>
  </g>
  <g id="axes_1">
   <g id="patch_2">
    <path d="M 48.425 198.5 
L 326.350585 198.5 
L 326.350585 57.6 
L 48.425 57.6 
z
" style="fill:#ffffff;"/>
   </g>
   <g id="patch_3">
    <path clip-path="url(#pa20b7e53bb)" d="M 62.884436 198.5 
L 84.55837 198.5 
L 84.55837 185.63242 
L 62.884436 185.63242 
z
" style="fill:#1f77b4;"/>
   </g>
   <g id="patch_4">
    <path clip-path="url(#pa20b7e53bb)" d="M 84.55837 198.5 
L 106.232304 198.5 
L 106.232304 170.926614 
L 84.55837 170.926614 
z
" style="fill:#1f77b4;"/>
   </g>
   <g id="patch_5">
    <path clip-path="url(#pa20b7e53bb)" d="M 106.232304 198.5 
L 127.906238 198.5 
L 127.906238 158.059035 
L 106.232304 158.059035 
z
" style="fill:#1f77b4;"/>
   </g>
   <g id="patch_6">
    <path clip-path="url(#pa20b7e53bb)" d="M 127.906238 198.5 
L 149.580172 198.5 
L 149.580172 148.867906 
L 127.906238 148.867906 
z
" style="fill:#1f77b4;"/>
   </g>
   <g id="patch_7">
    <path clip-path="url(#pa20b7e53bb)" d="M 149.580172 198.5 
L 171.254106 198.5 
L 171.254106 172.76484 
L 149.580172 172.76484 
z
" style="fill:#1f77b4;"/>
   </g>
   <g id="patch_8">
    <path clip-path="url(#pa20b7e53bb)" d="M 171.254106 198.5 
L 192.92804 198.5 
L 192.92804 147.02968 
L 171.254106 147.02968 
z
" style="fill:#1f77b4;"/>
   </g>
   <g id="patch_9">
    <path clip-path="url(#pa20b7e53bb)" d="M 192.92804 198.5 
L 214.601974 198.5 
L 214.601974 134.1621 
L 192.92804 134.1621 
z
" style="fill:#1f77b4;"/>
   </g>
   <g id="patch_10">
    <path clip-path="url(#pa20b7e53bb)" d="M 214.601974 198.5 
L 236.275907 198.5 
L 236.275907 145.191455 
L 214.601974 145.191455 
z
" style="fill:#1f77b4;"/>
   </g>
   <g id="patch_11">
    <path clip-path="url(#pa20b7e53bb)" d="M 236.275907 198.5 
L 257.949841 198.5 
L 257.949841 172.76484 
L 236.275907 172.76484 
z
" style="fill:#1f77b4;"/>
   </g>
   <g id="patch_12">
    <path clip-path="url(#pa20b7e53bb)" d="M 257.949841 198.5 
L 279.623775 198.5 
L 279.623775 181.955969 
L 257.949841 181.955969 
z
" style="fill:#1f77b4;"/>
   </g>
   <g id="matplotlib.axis_1">
    <g id="xtick_1">
     <g id="line2d_1">
      <defs>
       <path d="M 0 0 
L 0 3.5 
" id="m45a44b8542" style="stroke:#000000;stroke-width:0.8;"/>
      </defs>
      <g>
       <use style="stroke:#000000;stroke-width:0.8;" x="75.669622" xlink:href="#m45a44b8542" y="198.5"/>
      </g>
     </g>
    </g>
    <g id="xtick_2">
     <g id="line2d_2">
      <g>
       <use style="stroke:#000000;stroke-width:0.8;" x="136.551459" xlink:href="#m45a44b8542" y="198.5"/>
      </g>
     </g>
    </g>
    <g id="xtick_3">
     <g id="line2d_3">
      <g>
       <use style="stroke:#000000;stroke-width:0.8;" x="197.433296" xlink:href="#m45a44b8542" y="198.5"/>
      </g>
     </g>
    </g>
    <g id="xtick_4">
     <g id="line2d_4">
      <g>
       <use style="stroke:#000000;stroke-width:0.8;" x="258.315132" xlink:href="#m45a44b8542" y="198.5"/>
      </g>
     </g>
    </g>
    <g id="xtick_5">
     <g id="line2d_5">
      <g>
       <use style="stroke:#000000;stroke-width:0.8;" x="319.196969" xlink:href="#m45a44b8542" y="198.5"/>
      </g>
     </g>
    </g>
    <g id="text_1">
     <!-- Heavy output probability -->
     <g transform="translate(100.357011 213.137812)scale(0.14 -0.14)">
      <defs>
       <path d="M 9.8125 72.90625 
L 19.671875 72.90625 
L 19.671875 43.015625 
L 55.515625 43.015625 
L 55.515625 72.90625 
L 65.375 72.90625 
L 65.375 0 
L 55.515625 0 
L 55.515625 34.71875 
L 19.671875 34.71875 
L 19.671875 0 
L 9.8125 0 
z
" id="DejaVuSans-72"/>
       <path d="M 56.203125 29.59375 
L 56.203125 25.203125 
L 14.890625 25.203125 
Q 15.484375 15.921875 20.484375 11.0625 
Q 25.484375 6.203125 34.421875 6.203125 
Q 39.59375 6.203125 44.453125 7.46875 
Q 49.3125 8.734375 54.109375 11.28125 
L 54.109375 2.78125 
Q 49.265625 0.734375 44.1875 -0.34375 
Q 39.109375 -1.421875 33.890625 -1.421875 
Q 20.796875 -1.421875 13.15625 6.1875 
Q 5.515625 13.8125 5.515625 26.8125 
Q 5.515625 40.234375 12.765625 48.109375 
Q 20.015625 56 32.328125 56 
Q 43.359375 56 49.78125 48.890625 
Q 56.203125 41.796875 56.203125 29.59375 
z
M 47.21875 32.234375 
Q 47.125 39.59375 43.09375 43.984375 
Q 39.0625 48.390625 32.421875 48.390625 
Q 24.90625 48.390625 20.390625 44.140625 
Q 15.875 39.890625 15.1875 32.171875 
z
" id="DejaVuSans-101"/>
       <path d="M 34.28125 27.484375 
Q 23.390625 27.484375 19.1875 25 
Q 14.984375 22.515625 14.984375 16.5 
Q 14.984375 11.71875 18.140625 8.90625 
Q 21.296875 6.109375 26.703125 6.109375 
Q 34.1875 6.109375 38.703125 11.40625 
Q 43.21875 16.703125 43.21875 25.484375 
L 43.21875 27.484375 
z
M 52.203125 31.203125 
L 52.203125 0 
L 43.21875 0 
L 43.21875 8.296875 
Q 40.140625 3.328125 35.546875 0.953125 
Q 30.953125 -1.421875 24.3125 -1.421875 
Q 15.921875 -1.421875 10.953125 3.296875 
Q 6 8.015625 6 15.921875 
Q 6 25.140625 12.171875 29.828125 
Q 18.359375 34.515625 30.609375 34.515625 
L 43.21875 34.515625 
L 43.21875 35.40625 
Q 43.21875 41.609375 39.140625 45 
Q 35.0625 48.390625 27.6875 48.390625 
Q 23 48.390625 18.546875 47.265625 
Q 14.109375 46.140625 10.015625 43.890625 
L 10.015625 52.203125 
Q 14.9375 54.109375 19.578125 55.046875 
Q 24.21875 56 28.609375 56 
Q 40.484375 56 46.34375 49.84375 
Q 52.203125 43.703125 52.203125 31.203125 
z
" id="DejaVuSans-97"/>
       <path d="M 2.984375 54.6875 
L 12.5 54.6875 
L 29.59375 8.796875 
L 46.6875 54.6875 
L 56.203125 54.6875 
L 35.6875 0 
L 23.484375 0 
z
" id="DejaVuSans-118"/>
       <path d="M 32.171875 -5.078125 
Q 28.375 -14.84375 24.75 -17.8125 
Q 21.140625 -20.796875 15.09375 -20.796875 
L 7.90625 -20.796875 
L 7.90625 -13.28125 
L 13.1875 -13.28125 
Q 16.890625 -13.28125 18.9375 -11.515625 
Q 21 -9.765625 23.484375 -3.21875 
L 25.09375 0.875 
L 2.984375 54.6875 
L 12.5 54.6875 
L 29.59375 11.921875 
L 46.6875 54.6875 
L 56.203125 54.6875 
z
" id="DejaVuSans-121"/>
       <path id="DejaVuSans-32"/>
       <path d="M 30.609375 48.390625 
Q 23.390625 48.390625 19.1875 42.75 
Q 14.984375 37.109375 14.984375 27.296875 
Q 14.984375 17.484375 19.15625 11.84375 
Q 23.34375 6.203125 30.609375 6.203125 
Q 37.796875 6.203125 41.984375 11.859375 
Q 46.1875 17.53125 46.1875 27.296875 
Q 46.1875 37.015625 41.984375 42.703125 
Q 37.796875 48.390625 30.609375 48.390625 
z
M 30.609375 56 
Q 42.328125 56 49.015625 48.375 
Q 55.71875 40.765625 55.71875 27.296875 
Q 55.71875 13.875 49.015625 6.21875 
Q 42.328125 -1.421875 30.609375 -1.421875 
Q 18.84375 -1.421875 12.171875 6.21875 
Q 5.515625 13.875 5.515625 27.296875 
Q 5.515625 40.765625 12.171875 48.375 
Q 18.84375 56 30.609375 56 
z
" id="DejaVuSans-111"/>
       <path d="M 8.5 21.578125 
L 8.5 54.6875 
L 17.484375 54.6875 
L 17.484375 21.921875 
Q 17.484375 14.15625 20.5 10.265625 
Q 23.53125 6.390625 29.59375 6.390625 
Q 36.859375 6.390625 41.078125 11.03125 
Q 45.3125 15.671875 45.3125 23.6875 
L 45.3125 54.6875 
L 54.296875 54.6875 
L 54.296875 0 
L 45.3125 0 
L 45.3125 8.40625 
Q 42.046875 3.421875 37.71875 1 
Q 33.40625 -1.421875 27.6875 -1.421875 
Q 18.265625 -1.421875 13.375 4.4375 
Q 8.5 10.296875 8.5 21.578125 
z
M 31.109375 56 
z
" id="DejaVuSans-117"/>
       <path d="M 18.3125 70.21875 
L 18.3125 54.6875 
L 36.8125 54.6875 
L 36.8125 47.703125 
L 18.3125 47.703125 
L 18.3125 18.015625 
Q 18.3125 11.328125 20.140625 9.421875 
Q 21.96875 7.515625 27.59375 7.515625 
L 36.8125 7.515625 
L 36.8125 0 
L 27.59375 0 
Q 17.1875 0 13.234375 3.875 
Q 9.28125 7.765625 9.28125 18.015625 
L 9.28125 47.703125 
L 2.6875 47.703125 
L 2.6875 54.6875 
L 9.28125 54.6875 
L 9.28125 70.21875 
z
" id="DejaVuSans-116"/>
       <path d="M 18.109375 8.203125 
L 18.109375 -20.796875 
L 9.078125 -20.796875 
L 9.078125 54.6875 
L 18.109375 54.6875 
L 18.109375 46.390625 
Q 20.953125 51.265625 25.265625 53.625 
Q 29.59375 56 35.59375 56 
Q 45.5625 56 51.78125 48.09375 
Q 58.015625 40.1875 58.015625 27.296875 
Q 58.015625 14.40625 51.78125 6.484375 
Q 45.5625 -1.421875 35.59375 -1.421875 
Q 29.59375 -1.421875 25.265625 0.953125 
Q 20.953125 3.328125 18.109375 8.203125 
z
M 48.6875 27.296875 
Q 48.6875 37.203125 44.609375 42.84375 
Q 40.53125 48.484375 33.40625 48.484375 
Q 26.265625 48.484375 22.1875 42.84375 
Q 18.109375 37.203125 18.109375 27.296875 
Q 18.109375 17.390625 22.1875 11.75 
Q 26.265625 6.109375 33.40625 6.109375 
Q 40.53125 6.109375 44.609375 11.75 
Q 48.6875 17.390625 48.6875 27.296875 
z
" id="DejaVuSans-112"/>
       <path d="M 41.109375 46.296875 
Q 39.59375 47.171875 37.8125 47.578125 
Q 36.03125 48 33.890625 48 
Q 26.265625 48 22.1875 43.046875 
Q 18.109375 38.09375 18.109375 28.8125 
L 18.109375 0 
L 9.078125 0 
L 9.078125 54.6875 
L 18.109375 54.6875 
L 18.109375 46.1875 
Q 20.953125 51.171875 25.484375 53.578125 
Q 30.03125 56 36.53125 56 
Q 37.453125 56 38.578125 55.875 
Q 39.703125 55.765625 41.0625 55.515625 
z
" id="DejaVuSans-114"/>
       <path d="M 48.6875 27.296875 
Q 48.6875 37.203125 44.609375 42.84375 
Q 40.53125 48.484375 33.40625 48.484375 
Q 26.265625 48.484375 22.1875 42.84375 
Q 18.109375 37.203125 18.109375 27.296875 
Q 18.109375 17.390625 22.1875 11.75 
Q 26.265625 6.109375 33.40625 6.109375 
Q 40.53125 6.109375 44.609375 11.75 
Q 48.6875 17.390625 48.6875 27.296875 
z
M 18.109375 46.390625 
Q 20.953125 51.265625 25.265625 53.625 
Q 29.59375 56 35.59375 56 
Q 45.5625 56 51.78125 48.09375 
Q 58.015625 40.1875 58.015625 27.296875 
Q 58.015625 14.40625 51.78125 6.484375 
Q 45.5625 -1.421875 35.59375 -1.421875 
Q 29.59375 -1.421875 25.265625 0.953125 
Q 20.953125 3.328125 18.109375 8.203125 
L 18.109375 0 
L 9.078125 0 
L 9.078125 75.984375 
L 18.109375 75.984375 
z
" id="DejaVuSans-98"/>
       <path d="M 9.421875 54.6875 
L 18.40625 54.6875 
L 18.40625 0 
L 9.421875 0 
z
M 9.421875 75.984375 
L 18.40625 75.984375 
L 18.40625 64.59375 
L 9.421875 64.59375 
z
" id="DejaVuSans-105"/>
       <path d="M 9.421875 75.984375 
L 18.40625 75.984375 
L 18.40625 0 
L 9.421875 0 
z
" id="DejaVuSans-108"/>
      </defs>
      <use xlink:href="#DejaVuSans-72"/>
      <use x="75.195312" xlink:href="#DejaVuSans-101"/>
      <use x="136.71875" xlink:href="#DejaVuSans-97"/>
      <use x="197.998047" xlink:href="#DejaVuSans-118"/>
      <use x="257.177734" xlink:href="#DejaVuSans-121"/>
      <use x="316.357422" xlink:href="#DejaVuSans-32"/>
      <use x="348.144531" xlink:href="#DejaVuSans-111"/>
      <use x="409.326172" xlink:href="#DejaVuSans-117"/>
      <use x="472.705078" xlink:href="#DejaVuSans-116"/>
      <use x="511.914062" xlink:href="#DejaVuSans-112"/>
      <use x="575.390625" xlink:href="#DejaVuSans-117"/>
      <use x="638.769531" xlink:href="#DejaVuSans-116"/>
      <use x="677.978516" xlink:href="#DejaVuSans-32"/>
      <use x="709.765625" xlink:href="#DejaVuSans-112"/>
      <use x="773.242188" xlink:href="#DejaVuSans-114"/>
      <use x="812.105469" xlink:href="#DejaVuSans-111"/>
      <use x="873.287109" xlink:href="#DejaVuSans-98"/>
      <use x="936.763672" xlink:href="#DejaVuSans-97"/>
      <use x="998.042969" xlink:href="#DejaVuSans-98"/>
      <use x="1061.519531" xlink:href="#DejaVuSans-105"/>
      <use x="1089.302734" xlink:href="#DejaVuSans-108"/>
      <use x="1117.085938" xlink:href="#DejaVuSans-105"/>
      <use x="1144.869141" xlink:href="#DejaVuSans-116"/>
      <use x="1184.078125" xlink:href="#DejaVuSans-121"/>
     </g>
    </g>
   </g>
   <g id="matplotlib.axis_2">
    <g id="ytick_1">
     <g id="line2d_6">
      <defs>
       <path d="M 0 0 
L -3.5 0 
" id="m8373bcc639" style="stroke:#000000;stroke-width:0.8;"/>
      </defs>
      <g>
       <use style="stroke:#000000;stroke-width:0.8;" x="48.425" xlink:href="#m8373bcc639" y="198.5"/>
      </g>
     </g>
     <g id="text_2">
      <!-- 0 -->
      <g transform="translate(35.0625 202.299219)scale(0.1 -0.1)">
       <defs>
        <path d="M 31.78125 66.40625 
Q 24.171875 66.40625 20.328125 58.90625 
Q 16.5 51.421875 16.5 36.375 
Q 16.5 21.390625 20.328125 13.890625 
Q 24.171875 6.390625 31.78125 6.390625 
Q 39.453125 6.390625 43.28125 13.890625 
Q 47.125 21.390625 47.125 36.375 
Q 47.125 51.421875 43.28125 58.90625 
Q 39.453125 66.40625 31.78125 66.40625 
z
M 31.78125 74.21875 
Q 44.046875 74.21875 50.515625 64.515625 
Q 56.984375 54.828125 56.984375 36.375 
Q 56.984375 17.96875 50.515625 8.265625 
Q 44.046875 -1.421875 31.78125 -1.421875 
Q 19.53125 -1.421875 13.0625 8.265625 
Q 6.59375 17.96875 6.59375 36.375 
Q 6.59375 54.828125 13.0625 64.515625 
Q 19.53125 74.21875 31.78125 74.21875 
z
" id="DejaVuSans-48"/>
       </defs>
       <use xlink:href="#DejaVuSans-48"/>
      </g>
     </g>
    </g>
    <g id="ytick_2">
     <g id="line2d_7">
      <g>
       <use style="stroke:#000000;stroke-width:0.8;" x="48.425" xlink:href="#m8373bcc639" y="161.735486"/>
      </g>
     </g>
     <g id="text_3">
      <!-- 20 -->
      <g transform="translate(28.7 165.534705)scale(0.1 -0.1)">
       <defs>
        <path d="M 19.1875 8.296875 
L 53.609375 8.296875 
L 53.609375 0 
L 7.328125 0 
L 7.328125 8.296875 
Q 12.9375 14.109375 22.625 23.890625 
Q 32.328125 33.6875 34.8125 36.53125 
Q 39.546875 41.84375 41.421875 45.53125 
Q 43.3125 49.21875 43.3125 52.78125 
Q 43.3125 58.59375 39.234375 62.25 
Q 35.15625 65.921875 28.609375 65.921875 
Q 23.96875 65.921875 18.8125 64.3125 
Q 13.671875 62.703125 7.8125 59.421875 
L 7.8125 69.390625 
Q 13.765625 71.78125 18.9375 73 
Q 24.125 74.21875 28.421875 74.21875 
Q 39.75 74.21875 46.484375 68.546875 
Q 53.21875 62.890625 53.21875 53.421875 
Q 53.21875 48.921875 51.53125 44.890625 
Q 49.859375 40.875 45.40625 35.40625 
Q 44.1875 33.984375 37.640625 27.21875 
Q 31.109375 20.453125 19.1875 8.296875 
z
" id="DejaVuSans-50"/>
       </defs>
       <use xlink:href="#DejaVuSans-50"/>
       <use x="63.623047" xlink:href="#DejaVuSans-48"/>
      </g>
     </g>
    </g>
    <g id="ytick_3">
     <g id="line2d_8">
      <g>
       <use style="stroke:#000000;stroke-width:0.8;" x="48.425" xlink:href="#m8373bcc639" y="124.970972"/>
      </g>
     </g>
     <g id="text_4">
      <!-- 40 -->
      <g transform="translate(28.7 128.770191)scale(0.1 -0.1)">
       <defs>
        <path d="M 37.796875 64.3125 
L 12.890625 25.390625 
L 37.796875 25.390625 
z
M 35.203125 72.90625 
L 47.609375 72.90625 
L 47.609375 25.390625 
L 58.015625 25.390625 
L 58.015625 17.1875 
L 47.609375 17.1875 
L 47.609375 0 
L 37.796875 0 
L 37.796875 17.1875 
L 4.890625 17.1875 
L 4.890625 26.703125 
z
" id="DejaVuSans-52"/>
       </defs>
       <use xlink:href="#DejaVuSans-52"/>
       <use x="63.623047" xlink:href="#DejaVuSans-48"/>
      </g>
     </g>
    </g>
    <g id="ytick_4">
     <g id="line2d_9">
      <g>
       <use style="stroke:#000000;stroke-width:0.8;" x="48.425" xlink:href="#m8373bcc639" y="88.206458"/>
      </g>
     </g>
     <g id="text_5">
      <!-- 60 -->
      <g transform="translate(28.7 92.005677)scale(0.1 -0.1)">
       <defs>
        <path d="M 33.015625 40.375 
Q 26.375 40.375 22.484375 35.828125 
Q 18.609375 31.296875 18.609375 23.390625 
Q 18.609375 15.53125 22.484375 10.953125 
Q 26.375 6.390625 33.015625 6.390625 
Q 39.65625 6.390625 43.53125 10.953125 
Q 47.40625 15.53125 47.40625 23.390625 
Q 47.40625 31.296875 43.53125 35.828125 
Q 39.65625 40.375 33.015625 40.375 
z
M 52.59375 71.296875 
L 52.59375 62.3125 
Q 48.875 64.0625 45.09375 64.984375 
Q 41.3125 65.921875 37.59375 65.921875 
Q 27.828125 65.921875 22.671875 59.328125 
Q 17.53125 52.734375 16.796875 39.40625 
Q 19.671875 43.65625 24.015625 45.921875 
Q 28.375 48.1875 33.59375 48.1875 
Q 44.578125 48.1875 50.953125 41.515625 
Q 57.328125 34.859375 57.328125 23.390625 
Q 57.328125 12.15625 50.6875 5.359375 
Q 44.046875 -1.421875 33.015625 -1.421875 
Q 20.359375 -1.421875 13.671875 8.265625 
Q 6.984375 17.96875 6.984375 36.375 
Q 6.984375 53.65625 15.1875 63.9375 
Q 23.390625 74.21875 37.203125 74.21875 
Q 40.921875 74.21875 44.703125 73.484375 
Q 48.484375 72.75 52.59375 71.296875 
z
" id="DejaVuSans-54"/>
       </defs>
       <use xlink:href="#DejaVuSans-54"/>
       <use x="63.623047" xlink:href="#DejaVuSans-48"/>
      </g>
     </g>
    </g>
    <g id="text_6">
     <!-- Occurrences -->
     <g transform="translate(21.788438 171.715781)rotate(-90)scale(0.14 -0.14)">
      <defs>
       <path d="M 39.40625 66.21875 
Q 28.65625 66.21875 22.328125 58.203125 
Q 16.015625 50.203125 16.015625 36.375 
Q 16.015625 22.609375 22.328125 14.59375 
Q 28.65625 6.59375 39.40625 6.59375 
Q 50.140625 6.59375 56.421875 14.59375 
Q 62.703125 22.609375 62.703125 36.375 
Q 62.703125 50.203125 56.421875 58.203125 
Q 50.140625 66.21875 39.40625 66.21875 
z
M 39.40625 74.21875 
Q 54.734375 74.21875 63.90625 63.9375 
Q 73.09375 53.65625 73.09375 36.375 
Q 73.09375 19.140625 63.90625 8.859375 
Q 54.734375 -1.421875 39.40625 -1.421875 
Q 24.03125 -1.421875 14.8125 8.828125 
Q 5.609375 19.09375 5.609375 36.375 
Q 5.609375 53.65625 14.8125 63.9375 
Q 24.03125 74.21875 39.40625 74.21875 
z
" id="DejaVuSans-79"/>
       <path d="M 48.78125 52.59375 
L 48.78125 44.1875 
Q 44.96875 46.296875 41.140625 47.34375 
Q 37.3125 48.390625 33.40625 48.390625 
Q 24.65625 48.390625 19.8125 42.84375 
Q 14.984375 37.3125 14.984375 27.296875 
Q 14.984375 17.28125 19.8125 11.734375 
Q 24.65625 6.203125 33.40625 6.203125 
Q 37.3125 6.203125 41.140625 7.25 
Q 44.96875 8.296875 48.78125 10.40625 
L 48.78125 2.09375 
Q 45.015625 0.34375 40.984375 -0.53125 
Q 36.96875 -1.421875 32.421875 -1.421875 
Q 20.0625 -1.421875 12.78125 6.34375 
Q 5.515625 14.109375 5.515625 27.296875 
Q 5.515625 40.671875 12.859375 48.328125 
Q 20.21875 56 33.015625 56 
Q 37.15625 56 41.109375 55.140625 
Q 45.0625 54.296875 48.78125 52.59375 
z
" id="DejaVuSans-99"/>
       <path d="M 54.890625 33.015625 
L 54.890625 0 
L 45.90625 0 
L 45.90625 32.71875 
Q 45.90625 40.484375 42.875 44.328125 
Q 39.84375 48.1875 33.796875 48.1875 
Q 26.515625 48.1875 22.3125 43.546875 
Q 18.109375 38.921875 18.109375 30.90625 
L 18.109375 0 
L 9.078125 0 
L 9.078125 54.6875 
L 18.109375 54.6875 
L 18.109375 46.1875 
Q 21.34375 51.125 25.703125 53.5625 
Q 30.078125 56 35.796875 56 
Q 45.21875 56 50.046875 50.171875 
Q 54.890625 44.34375 54.890625 33.015625 
z
" id="DejaVuSans-110"/>
       <path d="M 44.28125 53.078125 
L 44.28125 44.578125 
Q 40.484375 46.53125 36.375 47.5 
Q 32.28125 48.484375 27.875 48.484375 
Q 21.1875 48.484375 17.84375 46.4375 
Q 14.5 44.390625 14.5 40.28125 
Q 14.5 37.15625 16.890625 35.375 
Q 19.28125 33.59375 26.515625 31.984375 
L 29.59375 31.296875 
Q 39.15625 29.25 43.1875 25.515625 
Q 47.21875 21.78125 47.21875 15.09375 
Q 47.21875 7.46875 41.1875 3.015625 
Q 35.15625 -1.421875 24.609375 -1.421875 
Q 20.21875 -1.421875 15.453125 -0.5625 
Q 10.6875 0.296875 5.421875 2 
L 5.421875 11.28125 
Q 10.40625 8.6875 15.234375 7.390625 
Q 20.0625 6.109375 24.8125 6.109375 
Q 31.15625 6.109375 34.5625 8.28125 
Q 37.984375 10.453125 37.984375 14.40625 
Q 37.984375 18.0625 35.515625 20.015625 
Q 33.0625 21.96875 24.703125 23.78125 
L 21.578125 24.515625 
Q 13.234375 26.265625 9.515625 29.90625 
Q 5.8125 33.546875 5.8125 39.890625 
Q 5.8125 47.609375 11.28125 51.796875 
Q 16.75 56 26.8125 56 
Q 31.78125 56 36.171875 55.265625 
Q 40.578125 54.546875 44.28125 53.078125 
z
" id="DejaVuSans-115"/>
      </defs>
      <use xlink:href="#DejaVuSans-79"/>
      <use x="78.710938" xlink:href="#DejaVuSans-99"/>
      <use x="133.691406" xlink:href="#DejaVuSans-99"/>
      <use x="188.671875" xlink:href="#DejaVuSans-117"/>
      <use x="252.050781" xlink:href="#DejaVuSans-114"/>
      <use x="291.414062" xlink:href="#DejaVuSans-114"/>
      <use x="330.277344" xlink:href="#DejaVuSans-101"/>
      <use x="391.800781" xlink:href="#DejaVuSans-110"/>
      <use x="455.179688" xlink:href="#DejaVuSans-99"/>
      <use x="510.160156" xlink:href="#DejaVuSans-101"/>
      <use x="571.683594" xlink:href="#DejaVuSans-115"/>
     </g>
    </g>
   </g>
   <g id="line2d_10">
    <path clip-path="url(#pa20b7e53bb)" d="M 116.257513 198.5 
L 116.257513 57.6 
" style="fill:none;stroke:#000000;stroke-linecap:square;stroke-width:1.5;"/>
   </g>
   <g id="line2d_11">
    <path clip-path="url(#pa20b7e53bb)" d="M 175.287527 198.5 
L 175.287527 57.6 
" style="fill:none;stroke:#ff0000;stroke-linecap:square;stroke-width:1.5;"/>
   </g>
   <g id="line2d_12">
    <path clip-path="url(#pa20b7e53bb)" d="M 138.707537 198.5 
L 138.707537 57.6 
" style="fill:none;stroke:#ff0000;stroke-dasharray:5.55,2.4;stroke-dashoffset:0;stroke-width:1.5;"/>
   </g>
   <g id="patch_13">
    <path d="M 48.425 198.5 
L 48.425 57.6 
" style="fill:none;stroke:#000000;stroke-linecap:square;stroke-linejoin:miter;stroke-width:0.8;"/>
   </g>
   <g id="patch_14">
    <path d="M 326.350585 198.5 
L 326.350585 57.6 
" style="fill:none;stroke:#000000;stroke-linecap:square;stroke-linejoin:miter;stroke-width:0.8;"/>
   </g>
   <g id="patch_15">
    <path d="M 48.425 198.5 
L 326.350585 198.5 
" style="fill:none;stroke:#000000;stroke-linecap:square;stroke-linejoin:miter;stroke-width:0.8;"/>
   </g>
   <g id="patch_16">
    <path d="M 48.425 57.6 
L 326.350585 57.6 
" style="fill:none;stroke:#000000;stroke-linecap:square;stroke-linejoin:miter;stroke-width:0.8;"/>
   </g>
   <g id="text_7">
    <!-- m = 2 -->
    <g transform="translate(162.716542 51.6)scale(0.16 -0.16)">
     <defs>
      <path d="M 52 44.1875 
Q 55.375 50.25 60.0625 53.125 
Q 64.75 56 71.09375 56 
Q 79.640625 56 84.28125 50.015625 
Q 88.921875 44.046875 88.921875 33.015625 
L 88.921875 0 
L 79.890625 0 
L 79.890625 32.71875 
Q 79.890625 40.578125 77.09375 44.375 
Q 74.3125 48.1875 68.609375 48.1875 
Q 61.625 48.1875 57.5625 43.546875 
Q 53.515625 38.921875 53.515625 30.90625 
L 53.515625 0 
L 44.484375 0 
L 44.484375 32.71875 
Q 44.484375 40.625 41.703125 44.40625 
Q 38.921875 48.1875 33.109375 48.1875 
Q 26.21875 48.1875 22.15625 43.53125 
Q 18.109375 38.875 18.109375 30.90625 
L 18.109375 0 
L 9.078125 0 
L 9.078125 54.6875 
L 18.109375 54.6875 
L 18.109375 46.1875 
Q 21.1875 51.21875 25.484375 53.609375 
Q 29.78125 56 35.6875 56 
Q 41.65625 56 45.828125 52.96875 
Q 50 49.953125 52 44.1875 
z
" id="DejaVuSans-109"/>
      <path d="M 10.59375 45.40625 
L 73.1875 45.40625 
L 73.1875 37.203125 
L 10.59375 37.203125 
z
M 10.59375 25.484375 
L 73.1875 25.484375 
L 73.1875 17.1875 
L 10.59375 17.1875 
z
" id="DejaVuSans-61"/>
     </defs>
     <use xlink:href="#DejaVuSans-109"/>
     <use x="97.412109" xlink:href="#DejaVuSans-32"/>
     <use x="129.199219" xlink:href="#DejaVuSans-61"/>
     <use x="212.988281" xlink:href="#DejaVuSans-32"/>
     <use x="244.775391" xlink:href="#DejaVuSans-50"/>
    </g>
   </g>
  </g>
  <g id="axes_2">
   <g id="patch_17">
    <path d="M 357.2125 198.5 
L 635.138085 198.5 
L 635.138085 57.6 
L 357.2125 57.6 
z
" style="fill:#ffffff;"/>
   </g>
   <g id="patch_18">
    <path clip-path="url(#p082b9e9c74)" d="M 382.021848 198.5 
L 406.070174 198.5 
L 406.070174 191.147097 
L 382.021848 191.147097 
z
" style="fill:#1f77b4;"/>
   </g>
   <g id="patch_19">
    <path clip-path="url(#p082b9e9c74)" d="M 406.070174 198.5 
L 430.1185 198.5 
L 430.1185 174.603066 
L 406.070174 174.603066 
z
" style="fill:#1f77b4;"/>
   </g>
   <g id="patch_20">
    <path clip-path="url(#p082b9e9c74)" d="M 430.1185 198.5 
L 454.166825 198.5 
L 454.166825 136.000326 
L 430.1185 136.000326 
z
" style="fill:#1f77b4;"/>
   </g>
   <g id="patch_21">
    <path clip-path="url(#p082b9e9c74)" d="M 454.166825 198.5 
L 478.215151 198.5 
L 478.215151 119.456295 
L 454.166825 119.456295 
z
" style="fill:#1f77b4;"/>
   </g>
   <g id="patch_22">
    <path clip-path="url(#p082b9e9c74)" d="M 478.215151 198.5 
L 502.263476 198.5 
L 502.263476 119.456295 
L 478.215151 119.456295 
z
" style="fill:#1f77b4;"/>
   </g>
   <g id="patch_23">
    <path clip-path="url(#p082b9e9c74)" d="M 502.263476 198.5 
L 526.311802 198.5 
L 526.311802 161.735486 
L 502.263476 161.735486 
z
" style="fill:#1f77b4;"/>
   </g>
   <g id="patch_24">
    <path clip-path="url(#p082b9e9c74)" d="M 526.311802 198.5 
L 550.360127 198.5 
L 550.360127 165.411937 
L 526.311802 165.411937 
z
" style="fill:#1f77b4;"/>
   </g>
   <g id="patch_25">
    <path clip-path="url(#p082b9e9c74)" d="M 550.360127 198.5 
L 574.408453 198.5 
L 574.408453 189.308871 
L 550.360127 189.308871 
z
" style="fill:#1f77b4;"/>
   </g>
   <g id="patch_26">
    <path clip-path="url(#p082b9e9c74)" d="M 574.408453 198.5 
L 598.456778 198.5 
L 598.456778 196.661774 
L 574.408453 196.661774 
z
" style="fill:#1f77b4;"/>
   </g>
   <g id="patch_27">
    <path clip-path="url(#p082b9e9c74)" d="M 598.456778 198.5 
L 622.505104 198.5 
L 622.505104 163.573712 
L 598.456778 163.573712 
z
" style="fill:#1f77b4;"/>
   </g>
   <g id="matplotlib.axis_3">
    <g id="xtick_6">
     <g id="line2d_13">
      <g>
       <use style="stroke:#000000;stroke-width:0.8;" x="384.457122" xlink:href="#m45a44b8542" y="198.5"/>
      </g>
     </g>
    </g>
    <g id="xtick_7">
     <g id="line2d_14">
      <g>
       <use style="stroke:#000000;stroke-width:0.8;" x="445.338959" xlink:href="#m45a44b8542" y="198.5"/>
      </g>
     </g>
    </g>
    <g id="xtick_8">
     <g id="line2d_15">
      <g>
       <use style="stroke:#000000;stroke-width:0.8;" x="506.220796" xlink:href="#m45a44b8542" y="198.5"/>
      </g>
     </g>
    </g>
    <g id="xtick_9">
     <g id="line2d_16">
      <g>
       <use style="stroke:#000000;stroke-width:0.8;" x="567.102632" xlink:href="#m45a44b8542" y="198.5"/>
      </g>
     </g>
    </g>
    <g id="xtick_10">
     <g id="line2d_17">
      <g>
       <use style="stroke:#000000;stroke-width:0.8;" x="627.984469" xlink:href="#m45a44b8542" y="198.5"/>
      </g>
     </g>
    </g>
    <g id="text_8">
     <!-- Heavy output probability -->
     <g transform="translate(409.144511 213.137812)scale(0.14 -0.14)">
      <use xlink:href="#DejaVuSans-72"/>
      <use x="75.195312" xlink:href="#DejaVuSans-101"/>
      <use x="136.71875" xlink:href="#DejaVuSans-97"/>
      <use x="197.998047" xlink:href="#DejaVuSans-118"/>
      <use x="257.177734" xlink:href="#DejaVuSans-121"/>
      <use x="316.357422" xlink:href="#DejaVuSans-32"/>
      <use x="348.144531" xlink:href="#DejaVuSans-111"/>
      <use x="409.326172" xlink:href="#DejaVuSans-117"/>
      <use x="472.705078" xlink:href="#DejaVuSans-116"/>
      <use x="511.914062" xlink:href="#DejaVuSans-112"/>
      <use x="575.390625" xlink:href="#DejaVuSans-117"/>
      <use x="638.769531" xlink:href="#DejaVuSans-116"/>
      <use x="677.978516" xlink:href="#DejaVuSans-32"/>
      <use x="709.765625" xlink:href="#DejaVuSans-112"/>
      <use x="773.242188" xlink:href="#DejaVuSans-114"/>
      <use x="812.105469" xlink:href="#DejaVuSans-111"/>
      <use x="873.287109" xlink:href="#DejaVuSans-98"/>
      <use x="936.763672" xlink:href="#DejaVuSans-97"/>
      <use x="998.042969" xlink:href="#DejaVuSans-98"/>
      <use x="1061.519531" xlink:href="#DejaVuSans-105"/>
      <use x="1089.302734" xlink:href="#DejaVuSans-108"/>
      <use x="1117.085938" xlink:href="#DejaVuSans-105"/>
      <use x="1144.869141" xlink:href="#DejaVuSans-116"/>
      <use x="1184.078125" xlink:href="#DejaVuSans-121"/>
     </g>
    </g>
   </g>
   <g id="matplotlib.axis_4">
    <g id="ytick_5">
     <g id="line2d_18">
      <g>
       <use style="stroke:#000000;stroke-width:0.8;" x="357.2125" xlink:href="#m8373bcc639" y="198.5"/>
      </g>
     </g>
    </g>
    <g id="ytick_6">
     <g id="line2d_19">
      <g>
       <use style="stroke:#000000;stroke-width:0.8;" x="357.2125" xlink:href="#m8373bcc639" y="161.735486"/>
      </g>
     </g>
    </g>
    <g id="ytick_7">
     <g id="line2d_20">
      <g>
       <use style="stroke:#000000;stroke-width:0.8;" x="357.2125" xlink:href="#m8373bcc639" y="124.970972"/>
      </g>
     </g>
    </g>
    <g id="ytick_8">
     <g id="line2d_21">
      <g>
       <use style="stroke:#000000;stroke-width:0.8;" x="357.2125" xlink:href="#m8373bcc639" y="88.206458"/>
      </g>
     </g>
    </g>
    <g id="text_9">
     <!-- Occurrences -->
     <g transform="translate(350.300938 171.715781)rotate(-90)scale(0.14 -0.14)">
      <use xlink:href="#DejaVuSans-79"/>
      <use x="78.710938" xlink:href="#DejaVuSans-99"/>
      <use x="133.691406" xlink:href="#DejaVuSans-99"/>
      <use x="188.671875" xlink:href="#DejaVuSans-117"/>
      <use x="252.050781" xlink:href="#DejaVuSans-114"/>
      <use x="291.414062" xlink:href="#DejaVuSans-114"/>
      <use x="330.277344" xlink:href="#DejaVuSans-101"/>
      <use x="391.800781" xlink:href="#DejaVuSans-110"/>
      <use x="455.179688" xlink:href="#DejaVuSans-99"/>
      <use x="510.160156" xlink:href="#DejaVuSans-101"/>
      <use x="571.683594" xlink:href="#DejaVuSans-115"/>
     </g>
    </g>
   </g>
   <g id="line2d_22">
    <path clip-path="url(#p082b9e9c74)" d="M 425.045013 198.5 
L 425.045013 57.6 
" style="fill:none;stroke:#000000;stroke-linecap:square;stroke-width:1.5;"/>
   </g>
   <g id="line2d_23">
    <path clip-path="url(#p082b9e9c74)" d="M 492.345825 198.5 
L 492.345825 57.6 
" style="fill:none;stroke:#ff0000;stroke-linecap:square;stroke-width:1.5;"/>
   </g>
   <g id="line2d_24">
    <path clip-path="url(#p082b9e9c74)" d="M 456.518055 198.5 
L 456.518055 57.6 
" style="fill:none;stroke:#ff0000;stroke-dasharray:5.55,2.4;stroke-dashoffset:0;stroke-width:1.5;"/>
   </g>
   <g id="patch_28">
    <path d="M 357.2125 198.5 
L 357.2125 57.6 
" style="fill:none;stroke:#000000;stroke-linecap:square;stroke-linejoin:miter;stroke-width:0.8;"/>
   </g>
   <g id="patch_29">
    <path d="M 635.138085 198.5 
L 635.138085 57.6 
" style="fill:none;stroke:#000000;stroke-linecap:square;stroke-linejoin:miter;stroke-width:0.8;"/>
   </g>
   <g id="patch_30">
    <path d="M 357.2125 198.5 
L 635.138085 198.5 
" style="fill:none;stroke:#000000;stroke-linecap:square;stroke-linejoin:miter;stroke-width:0.8;"/>
   </g>
   <g id="patch_31">
    <path d="M 357.2125 57.6 
L 635.138085 57.6 
" style="fill:none;stroke:#000000;stroke-linecap:square;stroke-linejoin:miter;stroke-width:0.8;"/>
   </g>
   <g id="text_10">
    <!-- m = 3 -->
    <g transform="translate(471.504042 51.6)scale(0.16 -0.16)">
     <defs>
      <path d="M 40.578125 39.3125 
Q 47.65625 37.796875 51.625 33 
Q 55.609375 28.21875 55.609375 21.1875 
Q 55.609375 10.40625 48.1875 4.484375 
Q 40.765625 -1.421875 27.09375 -1.421875 
Q 22.515625 -1.421875 17.65625 -0.515625 
Q 12.796875 0.390625 7.625 2.203125 
L 7.625 11.71875 
Q 11.71875 9.328125 16.59375 8.109375 
Q 21.484375 6.890625 26.8125 6.890625 
Q 36.078125 6.890625 40.9375 10.546875 
Q 45.796875 14.203125 45.796875 21.1875 
Q 45.796875 27.640625 41.28125 31.265625 
Q 36.765625 34.90625 28.71875 34.90625 
L 20.21875 34.90625 
L 20.21875 43.015625 
L 29.109375 43.015625 
Q 36.375 43.015625 40.234375 45.921875 
Q 44.09375 48.828125 44.09375 54.296875 
Q 44.09375 59.90625 40.109375 62.90625 
Q 36.140625 65.921875 28.71875 65.921875 
Q 24.65625 65.921875 20.015625 65.03125 
Q 15.375 64.15625 9.8125 62.3125 
L 9.8125 71.09375 
Q 15.4375 72.65625 20.34375 73.4375 
Q 25.25 74.21875 29.59375 74.21875 
Q 40.828125 74.21875 47.359375 69.109375 
Q 53.90625 64.015625 53.90625 55.328125 
Q 53.90625 49.265625 50.4375 45.09375 
Q 46.96875 40.921875 40.578125 39.3125 
z
" id="DejaVuSans-51"/>
     </defs>
     <use xlink:href="#DejaVuSans-109"/>
     <use x="97.412109" xlink:href="#DejaVuSans-32"/>
     <use x="129.199219" xlink:href="#DejaVuSans-61"/>
     <use x="212.988281" xlink:href="#DejaVuSans-32"/>
     <use x="244.775391" xlink:href="#DejaVuSans-51"/>
    </g>
   </g>
  </g>
  <g id="axes_3">
   <g id="patch_32">
    <path d="M 48.425 386.2 
L 326.350585 386.2 
L 326.350585 245.3 
L 48.425 245.3 
z
" style="fill:#ffffff;"/>
   </g>
   <g id="patch_33">
    <path clip-path="url(#pf862533f11)" d="M 70.799075 386.2 
L 85.106307 386.2 
L 85.106307 360.46484 
L 70.799075 360.46484 
z
" style="fill:#1f77b4;"/>
   </g>
   <g id="patch_34">
    <path clip-path="url(#pf862533f11)" d="M 85.106307 386.2 
L 99.413538 386.2 
L 99.413538 354.950163 
L 85.106307 354.950163 
z
" style="fill:#1f77b4;"/>
   </g>
   <g id="patch_35">
    <path clip-path="url(#pf862533f11)" d="M 99.413538 386.2 
L 113.72077 386.2 
L 113.72077 334.72968 
L 99.413538 334.72968 
z
" style="fill:#1f77b4;"/>
   </g>
   <g id="patch_36">
    <path clip-path="url(#pf862533f11)" d="M 113.72077 386.2 
L 128.028002 386.2 
L 128.028002 314.509198 
L 113.72077 314.509198 
z
" style="fill:#1f77b4;"/>
   </g>
   <g id="patch_37">
    <path clip-path="url(#pf862533f11)" d="M 128.028002 386.2 
L 142.335233 386.2 
L 142.335233 321.8621 
L 128.028002 321.8621 
z
" style="fill:#1f77b4;"/>
   </g>
   <g id="patch_38">
    <path clip-path="url(#pf862533f11)" d="M 142.335233 386.2 
L 156.642465 386.2 
L 156.642465 329.215003 
L 142.335233 329.215003 
z
" style="fill:#1f77b4;"/>
   </g>
   <g id="patch_39">
    <path clip-path="url(#pf862533f11)" d="M 156.642465 386.2 
L 170.949697 386.2 
L 170.949697 351.273712 
L 156.642465 351.273712 
z
" style="fill:#1f77b4;"/>
   </g>
   <g id="patch_40">
    <path clip-path="url(#pf862533f11)" d="M 170.949697 386.2 
L 185.256928 386.2 
L 185.256928 365.979517 
L 170.949697 365.979517 
z
" style="fill:#1f77b4;"/>
   </g>
   <g id="patch_41">
    <path clip-path="url(#pf862533f11)" d="M 185.256928 386.2 
L 199.56416 386.2 
L 199.56416 378.847097 
L 185.256928 378.847097 
z
" style="fill:#1f77b4;"/>
   </g>
   <g id="patch_42">
    <path clip-path="url(#pf862533f11)" d="M 199.56416 386.2 
L 213.871391 386.2 
L 213.871391 382.523549 
L 199.56416 382.523549 
z
" style="fill:#1f77b4;"/>
   </g>
   <g id="matplotlib.axis_5">
    <g id="xtick_11">
     <g id="line2d_25">
      <g>
       <use style="stroke:#000000;stroke-width:0.8;" x="75.669622" xlink:href="#m45a44b8542" y="386.2"/>
      </g>
     </g>
     <g id="text_11">
      <!-- 0.6 -->
      <g transform="translate(67.718059 400.798437)scale(0.1 -0.1)">
       <defs>
        <path d="M 10.6875 12.40625 
L 21 12.40625 
L 21 0 
L 10.6875 0 
z
" id="DejaVuSans-46"/>
       </defs>
       <use xlink:href="#DejaVuSans-48"/>
       <use x="63.623047" xlink:href="#DejaVuSans-46"/>
       <use x="95.410156" xlink:href="#DejaVuSans-54"/>
      </g>
     </g>
    </g>
    <g id="xtick_12">
     <g id="line2d_26">
      <g>
       <use style="stroke:#000000;stroke-width:0.8;" x="136.551459" xlink:href="#m45a44b8542" y="386.2"/>
      </g>
     </g>
     <g id="text_12">
      <!-- 0.7 -->
      <g transform="translate(128.599896 400.798437)scale(0.1 -0.1)">
       <defs>
        <path d="M 8.203125 72.90625 
L 55.078125 72.90625 
L 55.078125 68.703125 
L 28.609375 0 
L 18.3125 0 
L 43.21875 64.59375 
L 8.203125 64.59375 
z
" id="DejaVuSans-55"/>
       </defs>
       <use xlink:href="#DejaVuSans-48"/>
       <use x="63.623047" xlink:href="#DejaVuSans-46"/>
       <use x="95.410156" xlink:href="#DejaVuSans-55"/>
      </g>
     </g>
    </g>
    <g id="xtick_13">
     <g id="line2d_27">
      <g>
       <use style="stroke:#000000;stroke-width:0.8;" x="197.433296" xlink:href="#m45a44b8542" y="386.2"/>
      </g>
     </g>
     <g id="text_13">
      <!-- 0.8 -->
      <g transform="translate(189.481733 400.798437)scale(0.1 -0.1)">
       <defs>
        <path d="M 31.78125 34.625 
Q 24.75 34.625 20.71875 30.859375 
Q 16.703125 27.09375 16.703125 20.515625 
Q 16.703125 13.921875 20.71875 10.15625 
Q 24.75 6.390625 31.78125 6.390625 
Q 38.8125 6.390625 42.859375 10.171875 
Q 46.921875 13.96875 46.921875 20.515625 
Q 46.921875 27.09375 42.890625 30.859375 
Q 38.875 34.625 31.78125 34.625 
z
M 21.921875 38.8125 
Q 15.578125 40.375 12.03125 44.71875 
Q 8.5 49.078125 8.5 55.328125 
Q 8.5 64.0625 14.71875 69.140625 
Q 20.953125 74.21875 31.78125 74.21875 
Q 42.671875 74.21875 48.875 69.140625 
Q 55.078125 64.0625 55.078125 55.328125 
Q 55.078125 49.078125 51.53125 44.71875 
Q 48 40.375 41.703125 38.8125 
Q 48.828125 37.15625 52.796875 32.3125 
Q 56.78125 27.484375 56.78125 20.515625 
Q 56.78125 9.90625 50.3125 4.234375 
Q 43.84375 -1.421875 31.78125 -1.421875 
Q 19.734375 -1.421875 13.25 4.234375 
Q 6.78125 9.90625 6.78125 20.515625 
Q 6.78125 27.484375 10.78125 32.3125 
Q 14.796875 37.15625 21.921875 38.8125 
z
M 18.3125 54.390625 
Q 18.3125 48.734375 21.84375 45.5625 
Q 25.390625 42.390625 31.78125 42.390625 
Q 38.140625 42.390625 41.71875 45.5625 
Q 45.3125 48.734375 45.3125 54.390625 
Q 45.3125 60.0625 41.71875 63.234375 
Q 38.140625 66.40625 31.78125 66.40625 
Q 25.390625 66.40625 21.84375 63.234375 
Q 18.3125 60.0625 18.3125 54.390625 
z
" id="DejaVuSans-56"/>
       </defs>
       <use xlink:href="#DejaVuSans-48"/>
       <use x="63.623047" xlink:href="#DejaVuSans-46"/>
       <use x="95.410156" xlink:href="#DejaVuSans-56"/>
      </g>
     </g>
    </g>
    <g id="xtick_14">
     <g id="line2d_28">
      <g>
       <use style="stroke:#000000;stroke-width:0.8;" x="258.315132" xlink:href="#m45a44b8542" y="386.2"/>
      </g>
     </g>
     <g id="text_14">
      <!-- 0.9 -->
      <g transform="translate(250.36357 400.798437)scale(0.1 -0.1)">
       <defs>
        <path d="M 10.984375 1.515625 
L 10.984375 10.5 
Q 14.703125 8.734375 18.5 7.8125 
Q 22.3125 6.890625 25.984375 6.890625 
Q 35.75 6.890625 40.890625 13.453125 
Q 46.046875 20.015625 46.78125 33.40625 
Q 43.953125 29.203125 39.59375 26.953125 
Q 35.25 24.703125 29.984375 24.703125 
Q 19.046875 24.703125 12.671875 31.3125 
Q 6.296875 37.9375 6.296875 49.421875 
Q 6.296875 60.640625 12.9375 67.421875 
Q 19.578125 74.21875 30.609375 74.21875 
Q 43.265625 74.21875 49.921875 64.515625 
Q 56.59375 54.828125 56.59375 36.375 
Q 56.59375 19.140625 48.40625 8.859375 
Q 40.234375 -1.421875 26.421875 -1.421875 
Q 22.703125 -1.421875 18.890625 -0.6875 
Q 15.09375 0.046875 10.984375 1.515625 
z
M 30.609375 32.421875 
Q 37.25 32.421875 41.125 36.953125 
Q 45.015625 41.5 45.015625 49.421875 
Q 45.015625 57.28125 41.125 61.84375 
Q 37.25 66.40625 30.609375 66.40625 
Q 23.96875 66.40625 20.09375 61.84375 
Q 16.21875 57.28125 16.21875 49.421875 
Q 16.21875 41.5 20.09375 36.953125 
Q 23.96875 32.421875 30.609375 32.421875 
z
" id="DejaVuSans-57"/>
       </defs>
       <use xlink:href="#DejaVuSans-48"/>
       <use x="63.623047" xlink:href="#DejaVuSans-46"/>
       <use x="95.410156" xlink:href="#DejaVuSans-57"/>
      </g>
     </g>
    </g>
    <g id="xtick_15">
     <g id="line2d_29">
      <g>
       <use style="stroke:#000000;stroke-width:0.8;" x="319.196969" xlink:href="#m45a44b8542" y="386.2"/>
      </g>
     </g>
     <g id="text_15">
      <!-- 1.0 -->
      <g transform="translate(311.245407 400.798437)scale(0.1 -0.1)">
       <defs>
        <path d="M 12.40625 8.296875 
L 28.515625 8.296875 
L 28.515625 63.921875 
L 10.984375 60.40625 
L 10.984375 69.390625 
L 28.421875 72.90625 
L 38.28125 72.90625 
L 38.28125 8.296875 
L 54.390625 8.296875 
L 54.390625 0 
L 12.40625 0 
z
" id="DejaVuSans-49"/>
       </defs>
       <use xlink:href="#DejaVuSans-49"/>
       <use x="63.623047" xlink:href="#DejaVuSans-46"/>
       <use x="95.410156" xlink:href="#DejaVuSans-48"/>
      </g>
     </g>
    </g>
    <g id="text_16">
     <!-- Heavy output probability -->
     <g transform="translate(100.357011 417.515937)scale(0.14 -0.14)">
      <use xlink:href="#DejaVuSans-72"/>
      <use x="75.195312" xlink:href="#DejaVuSans-101"/>
      <use x="136.71875" xlink:href="#DejaVuSans-97"/>
      <use x="197.998047" xlink:href="#DejaVuSans-118"/>
      <use x="257.177734" xlink:href="#DejaVuSans-121"/>
      <use x="316.357422" xlink:href="#DejaVuSans-32"/>
      <use x="348.144531" xlink:href="#DejaVuSans-111"/>
      <use x="409.326172" xlink:href="#DejaVuSans-117"/>
      <use x="472.705078" xlink:href="#DejaVuSans-116"/>
      <use x="511.914062" xlink:href="#DejaVuSans-112"/>
      <use x="575.390625" xlink:href="#DejaVuSans-117"/>
      <use x="638.769531" xlink:href="#DejaVuSans-116"/>
      <use x="677.978516" xlink:href="#DejaVuSans-32"/>
      <use x="709.765625" xlink:href="#DejaVuSans-112"/>
      <use x="773.242188" xlink:href="#DejaVuSans-114"/>
      <use x="812.105469" xlink:href="#DejaVuSans-111"/>
      <use x="873.287109" xlink:href="#DejaVuSans-98"/>
      <use x="936.763672" xlink:href="#DejaVuSans-97"/>
      <use x="998.042969" xlink:href="#DejaVuSans-98"/>
      <use x="1061.519531" xlink:href="#DejaVuSans-105"/>
      <use x="1089.302734" xlink:href="#DejaVuSans-108"/>
      <use x="1117.085938" xlink:href="#DejaVuSans-105"/>
      <use x="1144.869141" xlink:href="#DejaVuSans-116"/>
      <use x="1184.078125" xlink:href="#DejaVuSans-121"/>
     </g>
    </g>
   </g>
   <g id="matplotlib.axis_6">
    <g id="ytick_9">
     <g id="line2d_30">
      <g>
       <use style="stroke:#000000;stroke-width:0.8;" x="48.425" xlink:href="#m8373bcc639" y="386.2"/>
      </g>
     </g>
     <g id="text_17">
      <!-- 0 -->
      <g transform="translate(35.0625 389.999219)scale(0.1 -0.1)">
       <use xlink:href="#DejaVuSans-48"/>
      </g>
     </g>
    </g>
    <g id="ytick_10">
     <g id="line2d_31">
      <g>
       <use style="stroke:#000000;stroke-width:0.8;" x="48.425" xlink:href="#m8373bcc639" y="349.435486"/>
      </g>
     </g>
     <g id="text_18">
      <!-- 20 -->
      <g transform="translate(28.7 353.234705)scale(0.1 -0.1)">
       <use xlink:href="#DejaVuSans-50"/>
       <use x="63.623047" xlink:href="#DejaVuSans-48"/>
      </g>
     </g>
    </g>
    <g id="ytick_11">
     <g id="line2d_32">
      <g>
       <use style="stroke:#000000;stroke-width:0.8;" x="48.425" xlink:href="#m8373bcc639" y="312.670972"/>
      </g>
     </g>
     <g id="text_19">
      <!-- 40 -->
      <g transform="translate(28.7 316.470191)scale(0.1 -0.1)">
       <use xlink:href="#DejaVuSans-52"/>
       <use x="63.623047" xlink:href="#DejaVuSans-48"/>
      </g>
     </g>
    </g>
    <g id="ytick_12">
     <g id="line2d_33">
      <g>
       <use style="stroke:#000000;stroke-width:0.8;" x="48.425" xlink:href="#m8373bcc639" y="275.906458"/>
      </g>
     </g>
     <g id="text_20">
      <!-- 60 -->
      <g transform="translate(28.7 279.705677)scale(0.1 -0.1)">
       <use xlink:href="#DejaVuSans-54"/>
       <use x="63.623047" xlink:href="#DejaVuSans-48"/>
      </g>
     </g>
    </g>
    <g id="text_21">
     <!-- Occurrences -->
     <g transform="translate(21.788438 359.415781)rotate(-90)scale(0.14 -0.14)">
      <use xlink:href="#DejaVuSans-79"/>
      <use x="78.710938" xlink:href="#DejaVuSans-99"/>
      <use x="133.691406" xlink:href="#DejaVuSans-99"/>
      <use x="188.671875" xlink:href="#DejaVuSans-117"/>
      <use x="252.050781" xlink:href="#DejaVuSans-114"/>
      <use x="291.414062" xlink:href="#DejaVuSans-114"/>
      <use x="330.277344" xlink:href="#DejaVuSans-101"/>
      <use x="391.800781" xlink:href="#DejaVuSans-110"/>
      <use x="455.179688" xlink:href="#DejaVuSans-99"/>
      <use x="510.160156" xlink:href="#DejaVuSans-101"/>
      <use x="571.683594" xlink:href="#DejaVuSans-115"/>
     </g>
    </g>
   </g>
   <g id="line2d_34">
    <path clip-path="url(#pf862533f11)" d="M 116.257513 386.2 
L 116.257513 245.3 
" style="fill:none;stroke:#000000;stroke-linecap:square;stroke-width:1.5;"/>
   </g>
   <g id="line2d_35">
    <path clip-path="url(#pf862533f11)" d="M 129.343049 386.2 
L 129.343049 245.3 
" style="fill:none;stroke:#ff0000;stroke-linecap:square;stroke-width:1.5;"/>
   </g>
   <g id="line2d_36">
    <path clip-path="url(#pf862533f11)" d="M 89.457703 386.2 
L 89.457703 245.3 
" style="fill:none;stroke:#ff0000;stroke-dasharray:5.55,2.4;stroke-dashoffset:0;stroke-width:1.5;"/>
   </g>
   <g id="patch_43">
    <path d="M 48.425 386.2 
L 48.425 245.3 
" style="fill:none;stroke:#000000;stroke-linecap:square;stroke-linejoin:miter;stroke-width:0.8;"/>
   </g>
   <g id="patch_44">
    <path d="M 326.350585 386.2 
L 326.350585 245.3 
" style="fill:none;stroke:#000000;stroke-linecap:square;stroke-linejoin:miter;stroke-width:0.8;"/>
   </g>
   <g id="patch_45">
    <path d="M 48.425 386.2 
L 326.350585 386.2 
" style="fill:none;stroke:#000000;stroke-linecap:square;stroke-linejoin:miter;stroke-width:0.8;"/>
   </g>
   <g id="patch_46">
    <path d="M 48.425 245.3 
L 326.350585 245.3 
" style="fill:none;stroke:#000000;stroke-linecap:square;stroke-linejoin:miter;stroke-width:0.8;"/>
   </g>
   <g id="text_22">
    <!-- m = 4 -->
    <g transform="translate(162.716542 239.3)scale(0.16 -0.16)">
     <use xlink:href="#DejaVuSans-109"/>
     <use x="97.412109" xlink:href="#DejaVuSans-32"/>
     <use x="129.199219" xlink:href="#DejaVuSans-61"/>
     <use x="212.988281" xlink:href="#DejaVuSans-32"/>
     <use x="244.775391" xlink:href="#DejaVuSans-52"/>
    </g>
   </g>
  </g>
  <g id="axes_4">
   <g id="patch_47">
    <path d="M 357.2125 386.2 
L 635.138085 386.2 
L 635.138085 245.3 
L 357.2125 245.3 
z
" style="fill:#ffffff;"/>
   </g>
   <g id="patch_48">
    <path clip-path="url(#p7f30ddf6c2)" d="M 369.845481 386.2 
L 393.954689 386.2 
L 393.954689 331.053229 
L 369.845481 331.053229 
z
" style="fill:#1f77b4;"/>
   </g>
   <g id="patch_49">
    <path clip-path="url(#p7f30ddf6c2)" d="M 393.954689 386.2 
L 418.063896 386.2 
L 418.063896 252.009524 
L 393.954689 252.009524 
z
" style="fill:#1f77b4;"/>
   </g>
   <g id="patch_50">
    <path clip-path="url(#p7f30ddf6c2)" d="M 418.063896 386.2 
L 442.173103 386.2 
L 442.173103 281.421135 
L 418.063896 281.421135 
z
" style="fill:#1f77b4;"/>
   </g>
   <g id="patch_51">
    <path clip-path="url(#p7f30ddf6c2)" d="M 442.173103 386.2 
L 466.282311 386.2 
L 466.282311 331.053229 
L 442.173103 331.053229 
z
" style="fill:#1f77b4;"/>
   </g>
   <g id="patch_52">
    <path clip-path="url(#p7f30ddf6c2)" d="M 466.282311 386.2 
L 490.391518 386.2 
L 490.391518 371.494194 
L 466.282311 371.494194 
z
" style="fill:#1f77b4;"/>
   </g>
   <g id="patch_53">
    <path clip-path="url(#p7f30ddf6c2)" d="M 490.391518 386.2 
L 514.500725 386.2 
L 514.500725 386.2 
L 490.391518 386.2 
z
" style="fill:#1f77b4;"/>
   </g>
   <g id="patch_54">
    <path clip-path="url(#p7f30ddf6c2)" d="M 514.500725 386.2 
L 538.609933 386.2 
L 538.609933 386.2 
L 514.500725 386.2 
z
" style="fill:#1f77b4;"/>
   </g>
   <g id="patch_55">
    <path clip-path="url(#p7f30ddf6c2)" d="M 538.609933 386.2 
L 562.71914 386.2 
L 562.71914 386.2 
L 538.609933 386.2 
z
" style="fill:#1f77b4;"/>
   </g>
   <g id="patch_56">
    <path clip-path="url(#p7f30ddf6c2)" d="M 562.71914 386.2 
L 586.828347 386.2 
L 586.828347 386.2 
L 562.71914 386.2 
z
" style="fill:#1f77b4;"/>
   </g>
   <g id="patch_57">
    <path clip-path="url(#p7f30ddf6c2)" d="M 586.828347 386.2 
L 610.937555 386.2 
L 610.937555 382.523549 
L 586.828347 382.523549 
z
" style="fill:#1f77b4;"/>
   </g>
   <g id="matplotlib.axis_7">
    <g id="xtick_16">
     <g id="line2d_37">
      <g>
       <use style="stroke:#000000;stroke-width:0.8;" x="384.457122" xlink:href="#m45a44b8542" y="386.2"/>
      </g>
     </g>
     <g id="text_23">
      <!-- 0.6 -->
      <g transform="translate(376.505559 400.798437)scale(0.1 -0.1)">
       <use xlink:href="#DejaVuSans-48"/>
       <use x="63.623047" xlink:href="#DejaVuSans-46"/>
       <use x="95.410156" xlink:href="#DejaVuSans-54"/>
      </g>
     </g>
    </g>
    <g id="xtick_17">
     <g id="line2d_38">
      <g>
       <use style="stroke:#000000;stroke-width:0.8;" x="445.338959" xlink:href="#m45a44b8542" y="386.2"/>
      </g>
     </g>
     <g id="text_24">
      <!-- 0.7 -->
      <g transform="translate(437.387396 400.798437)scale(0.1 -0.1)">
       <use xlink:href="#DejaVuSans-48"/>
       <use x="63.623047" xlink:href="#DejaVuSans-46"/>
       <use x="95.410156" xlink:href="#DejaVuSans-55"/>
      </g>
     </g>
    </g>
    <g id="xtick_18">
     <g id="line2d_39">
      <g>
       <use style="stroke:#000000;stroke-width:0.8;" x="506.220796" xlink:href="#m45a44b8542" y="386.2"/>
      </g>
     </g>
     <g id="text_25">
      <!-- 0.8 -->
      <g transform="translate(498.269233 400.798437)scale(0.1 -0.1)">
       <use xlink:href="#DejaVuSans-48"/>
       <use x="63.623047" xlink:href="#DejaVuSans-46"/>
       <use x="95.410156" xlink:href="#DejaVuSans-56"/>
      </g>
     </g>
    </g>
    <g id="xtick_19">
     <g id="line2d_40">
      <g>
       <use style="stroke:#000000;stroke-width:0.8;" x="567.102632" xlink:href="#m45a44b8542" y="386.2"/>
      </g>
     </g>
     <g id="text_26">
      <!-- 0.9 -->
      <g transform="translate(559.15107 400.798437)scale(0.1 -0.1)">
       <use xlink:href="#DejaVuSans-48"/>
       <use x="63.623047" xlink:href="#DejaVuSans-46"/>
       <use x="95.410156" xlink:href="#DejaVuSans-57"/>
      </g>
     </g>
    </g>
    <g id="xtick_20">
     <g id="line2d_41">
      <g>
       <use style="stroke:#000000;stroke-width:0.8;" x="627.984469" xlink:href="#m45a44b8542" y="386.2"/>
      </g>
     </g>
     <g id="text_27">
      <!-- 1.0 -->
      <g transform="translate(620.032907 400.798437)scale(0.1 -0.1)">
       <use xlink:href="#DejaVuSans-49"/>
       <use x="63.623047" xlink:href="#DejaVuSans-46"/>
       <use x="95.410156" xlink:href="#DejaVuSans-48"/>
      </g>
     </g>
    </g>
    <g id="text_28">
     <!-- Heavy output probability -->
     <g transform="translate(409.144511 417.515937)scale(0.14 -0.14)">
      <use xlink:href="#DejaVuSans-72"/>
      <use x="75.195312" xlink:href="#DejaVuSans-101"/>
      <use x="136.71875" xlink:href="#DejaVuSans-97"/>
      <use x="197.998047" xlink:href="#DejaVuSans-118"/>
      <use x="257.177734" xlink:href="#DejaVuSans-121"/>
      <use x="316.357422" xlink:href="#DejaVuSans-32"/>
      <use x="348.144531" xlink:href="#DejaVuSans-111"/>
      <use x="409.326172" xlink:href="#DejaVuSans-117"/>
      <use x="472.705078" xlink:href="#DejaVuSans-116"/>
      <use x="511.914062" xlink:href="#DejaVuSans-112"/>
      <use x="575.390625" xlink:href="#DejaVuSans-117"/>
      <use x="638.769531" xlink:href="#DejaVuSans-116"/>
      <use x="677.978516" xlink:href="#DejaVuSans-32"/>
      <use x="709.765625" xlink:href="#DejaVuSans-112"/>
      <use x="773.242188" xlink:href="#DejaVuSans-114"/>
      <use x="812.105469" xlink:href="#DejaVuSans-111"/>
      <use x="873.287109" xlink:href="#DejaVuSans-98"/>
      <use x="936.763672" xlink:href="#DejaVuSans-97"/>
      <use x="998.042969" xlink:href="#DejaVuSans-98"/>
      <use x="1061.519531" xlink:href="#DejaVuSans-105"/>
      <use x="1089.302734" xlink:href="#DejaVuSans-108"/>
      <use x="1117.085938" xlink:href="#DejaVuSans-105"/>
      <use x="1144.869141" xlink:href="#DejaVuSans-116"/>
      <use x="1184.078125" xlink:href="#DejaVuSans-121"/>
     </g>
    </g>
   </g>
   <g id="matplotlib.axis_8">
    <g id="ytick_13">
     <g id="line2d_42">
      <g>
       <use style="stroke:#000000;stroke-width:0.8;" x="357.2125" xlink:href="#m8373bcc639" y="386.2"/>
      </g>
     </g>
    </g>
    <g id="ytick_14">
     <g id="line2d_43">
      <g>
       <use style="stroke:#000000;stroke-width:0.8;" x="357.2125" xlink:href="#m8373bcc639" y="349.435486"/>
      </g>
     </g>
    </g>
    <g id="ytick_15">
     <g id="line2d_44">
      <g>
       <use style="stroke:#000000;stroke-width:0.8;" x="357.2125" xlink:href="#m8373bcc639" y="312.670972"/>
      </g>
     </g>
    </g>
    <g id="ytick_16">
     <g id="line2d_45">
      <g>
       <use style="stroke:#000000;stroke-width:0.8;" x="357.2125" xlink:href="#m8373bcc639" y="275.906458"/>
      </g>
     </g>
    </g>
    <g id="text_29">
     <!-- Occurrences -->
     <g transform="translate(350.300938 359.415781)rotate(-90)scale(0.14 -0.14)">
      <use xlink:href="#DejaVuSans-79"/>
      <use x="78.710938" xlink:href="#DejaVuSans-99"/>
      <use x="133.691406" xlink:href="#DejaVuSans-99"/>
      <use x="188.671875" xlink:href="#DejaVuSans-117"/>
      <use x="252.050781" xlink:href="#DejaVuSans-114"/>
      <use x="291.414062" xlink:href="#DejaVuSans-114"/>
      <use x="330.277344" xlink:href="#DejaVuSans-101"/>
      <use x="391.800781" xlink:href="#DejaVuSans-110"/>
      <use x="455.179688" xlink:href="#DejaVuSans-99"/>
      <use x="510.160156" xlink:href="#DejaVuSans-101"/>
      <use x="571.683594" xlink:href="#DejaVuSans-115"/>
     </g>
    </g>
   </g>
   <g id="line2d_46">
    <path clip-path="url(#p7f30ddf6c2)" d="M 425.045013 386.2 
L 425.045013 245.3 
" style="fill:none;stroke:#000000;stroke-linecap:square;stroke-width:1.5;"/>
   </g>
   <g id="line2d_47">
    <path clip-path="url(#p7f30ddf6c2)" d="M 421.129296 386.2 
L 421.129296 245.3 
" style="fill:none;stroke:#ff0000;stroke-linecap:square;stroke-width:1.5;"/>
   </g>
   <g id="line2d_48">
    <path clip-path="url(#p7f30ddf6c2)" d="M 380.349849 386.2 
L 380.349849 245.3 
" style="fill:none;stroke:#ff0000;stroke-dasharray:5.55,2.4;stroke-dashoffset:0;stroke-width:1.5;"/>
   </g>
   <g id="patch_58">
    <path d="M 357.2125 386.2 
L 357.2125 245.3 
" style="fill:none;stroke:#000000;stroke-linecap:square;stroke-linejoin:miter;stroke-width:0.8;"/>
   </g>
   <g id="patch_59">
    <path d="M 635.138085 386.2 
L 635.138085 245.3 
" style="fill:none;stroke:#000000;stroke-linecap:square;stroke-linejoin:miter;stroke-width:0.8;"/>
   </g>
   <g id="patch_60">
    <path d="M 357.2125 386.2 
L 635.138085 386.2 
" style="fill:none;stroke:#000000;stroke-linecap:square;stroke-linejoin:miter;stroke-width:0.8;"/>
   </g>
   <g id="patch_61">
    <path d="M 357.2125 245.3 
L 635.138085 245.3 
" style="fill:none;stroke:#000000;stroke-linecap:square;stroke-linejoin:miter;stroke-width:0.8;"/>
   </g>
   <g id="text_30">
    <!-- m = 5 -->
    <g transform="translate(471.504042 239.3)scale(0.16 -0.16)">
     <defs>
      <path d="M 10.796875 72.90625 
L 49.515625 72.90625 
L 49.515625 64.59375 
L 19.828125 64.59375 
L 19.828125 46.734375 
Q 21.96875 47.46875 24.109375 47.828125 
Q 26.265625 48.1875 28.421875 48.1875 
Q 40.625 48.1875 47.75 41.5 
Q 54.890625 34.8125 54.890625 23.390625 
Q 54.890625 11.625 47.5625 5.09375 
Q 40.234375 -1.421875 26.90625 -1.421875 
Q 22.3125 -1.421875 17.546875 -0.640625 
Q 12.796875 0.140625 7.71875 1.703125 
L 7.71875 11.625 
Q 12.109375 9.234375 16.796875 8.0625 
Q 21.484375 6.890625 26.703125 6.890625 
Q 35.15625 6.890625 40.078125 11.328125 
Q 45.015625 15.765625 45.015625 23.390625 
Q 45.015625 31 40.078125 35.4375 
Q 35.15625 39.890625 26.703125 39.890625 
Q 22.75 39.890625 18.8125 39.015625 
Q 14.890625 38.140625 10.796875 36.28125 
z
" id="DejaVuSans-53"/>
     </defs>
     <use xlink:href="#DejaVuSans-109"/>
     <use x="97.412109" xlink:href="#DejaVuSans-32"/>
     <use x="129.199219" xlink:href="#DejaVuSans-61"/>
     <use x="212.988281" xlink:href="#DejaVuSans-32"/>
     <use x="244.775391" xlink:href="#DejaVuSans-53"/>
    </g>
   </g>
   <g id="legend_1">
    <g id="patch_62">
     <path d="M 542.39246 318.148125 
L 625.338085 318.148125 
Q 628.138085 318.148125 628.138085 315.348125 
L 628.138085 255.1 
Q 628.138085 252.3 625.338085 252.3 
L 542.39246 252.3 
Q 539.59246 252.3 539.59246 255.1 
L 539.59246 315.348125 
Q 539.59246 318.148125 542.39246 318.148125 
z
" style="fill:#ffffff;opacity:0.8;stroke:#cccccc;stroke-linejoin:miter;"/>
    </g>
    <g id="line2d_49">
     <path d="M 545.19246 263.637812 
L 573.19246 263.637812 
" style="fill:none;stroke:#000000;stroke-linecap:square;stroke-width:1.5;"/>
    </g>
    <g id="line2d_50"/>
    <g id="text_31">
     <!-- 2/3 -->
     <g transform="translate(584.39246 268.537812)scale(0.14 -0.14)">
      <defs>
       <path d="M 25.390625 72.90625 
L 33.6875 72.90625 
L 8.296875 -9.28125 
L 0 -9.28125 
z
" id="DejaVuSans-47"/>
      </defs>
      <use xlink:href="#DejaVuSans-50"/>
      <use x="63.623047" xlink:href="#DejaVuSans-47"/>
      <use x="97.314453" xlink:href="#DejaVuSans-51"/>
     </g>
    </g>
    <g id="line2d_51">
     <path d="M 545.19246 284.187187 
L 573.19246 284.187187 
" style="fill:none;stroke:#ff0000;stroke-linecap:square;stroke-width:1.5;"/>
    </g>
    <g id="line2d_52"/>
    <g id="text_32">
     <!-- Mean -->
     <g transform="translate(584.39246 289.087187)scale(0.14 -0.14)">
      <defs>
       <path d="M 9.8125 72.90625 
L 24.515625 72.90625 
L 43.109375 23.296875 
L 61.8125 72.90625 
L 76.515625 72.90625 
L 76.515625 0 
L 66.890625 0 
L 66.890625 64.015625 
L 48.09375 14.015625 
L 38.1875 14.015625 
L 19.390625 64.015625 
L 19.390625 0 
L 9.8125 0 
z
" id="DejaVuSans-77"/>
      </defs>
      <use xlink:href="#DejaVuSans-77"/>
      <use x="86.279297" xlink:href="#DejaVuSans-101"/>
      <use x="147.802734" xlink:href="#DejaVuSans-97"/>
      <use x="209.082031" xlink:href="#DejaVuSans-110"/>
     </g>
    </g>
    <g id="line2d_53">
     <path d="M 545.19246 304.736562 
L 573.19246 304.736562 
" style="fill:none;stroke:#ff0000;stroke-dasharray:5.55,2.4;stroke-dashoffset:0;stroke-width:1.5;"/>
    </g>
    <g id="line2d_54"/>
    <g id="text_33">
     <!-- 2 -->
     <g transform="translate(584.39246 309.636562)scale(0.14 -0.14)">
      <defs>
       <path d="M 30.609375 47.5625 
Q 23.1875 47.5625 19.1875 42.1875 
Q 14.984375 36.578125 14.984375 27.296875 
Q 14.984375 17.484375 19.15625 11.84375 
Q 23.34375 6.203125 30.609375 6.203125 
Q 37.796875 6.203125 41.984375 11.859375 
Q 46.1875 17.53125 46.1875 27.296875 
Q 46.1875 36.234375 42 42.1875 
Q 38.140625 47.5625 30.609375 47.5625 
z
M 30.609375 54.6875 
L 60.453125 54.6875 
L 60.453125 45.703125 
L 50.390625 45.703125 
Q 55.71875 38.09375 55.71875 27.296875 
Q 55.71875 13.875 49.03125 6.25 
Q 42.328125 -1.421875 30.609375 -1.421875 
Q 18.84375 -1.421875 12.203125 6.25 
Q 5.515625 13.875 5.515625 27.296875 
Q 5.515625 40.828125 12.203125 48.390625 
Q 17.71875 54.6875 30.609375 54.6875 
z
" id="DejaVuSans-963"/>
      </defs>
      <use xlink:href="#DejaVuSans-50"/>
      <use x="63.623047" xlink:href="#DejaVuSans-963"/>
     </g>
    </g>
   </g>
  </g>
  <g id="text_34">
   <!-- Heavy output distributions for (simulated) Ourense QPU -->
   <g transform="translate(71.998594 22.317187)scale(0.18 -0.18)">
    <defs>
     <path d="M 45.40625 46.390625 
L 45.40625 75.984375 
L 54.390625 75.984375 
L 54.390625 0 
L 45.40625 0 
L 45.40625 8.203125 
Q 42.578125 3.328125 38.25 0.953125 
Q 33.9375 -1.421875 27.875 -1.421875 
Q 17.96875 -1.421875 11.734375 6.484375 
Q 5.515625 14.40625 5.515625 27.296875 
Q 5.515625 40.1875 11.734375 48.09375 
Q 17.96875 56 27.875 56 
Q 33.9375 56 38.25 53.625 
Q 42.578125 51.265625 45.40625 46.390625 
z
M 14.796875 27.296875 
Q 14.796875 17.390625 18.875 11.75 
Q 22.953125 6.109375 30.078125 6.109375 
Q 37.203125 6.109375 41.296875 11.75 
Q 45.40625 17.390625 45.40625 27.296875 
Q 45.40625 37.203125 41.296875 42.84375 
Q 37.203125 48.484375 30.078125 48.484375 
Q 22.953125 48.484375 18.875 42.84375 
Q 14.796875 37.203125 14.796875 27.296875 
z
" id="DejaVuSans-100"/>
     <path d="M 37.109375 75.984375 
L 37.109375 68.5 
L 28.515625 68.5 
Q 23.6875 68.5 21.796875 66.546875 
Q 19.921875 64.59375 19.921875 59.515625 
L 19.921875 54.6875 
L 34.71875 54.6875 
L 34.71875 47.703125 
L 19.921875 47.703125 
L 19.921875 0 
L 10.890625 0 
L 10.890625 47.703125 
L 2.296875 47.703125 
L 2.296875 54.6875 
L 10.890625 54.6875 
L 10.890625 58.5 
Q 10.890625 67.625 15.140625 71.796875 
Q 19.390625 75.984375 28.609375 75.984375 
z
" id="DejaVuSans-102"/>
     <path d="M 31 75.875 
Q 24.46875 64.65625 21.28125 53.65625 
Q 18.109375 42.671875 18.109375 31.390625 
Q 18.109375 20.125 21.3125 9.0625 
Q 24.515625 -2 31 -13.1875 
L 23.1875 -13.1875 
Q 15.875 -1.703125 12.234375 9.375 
Q 8.59375 20.453125 8.59375 31.390625 
Q 8.59375 42.28125 12.203125 53.3125 
Q 15.828125 64.359375 23.1875 75.875 
z
" id="DejaVuSans-40"/>
     <path d="M 8.015625 75.875 
L 15.828125 75.875 
Q 23.140625 64.359375 26.78125 53.3125 
Q 30.421875 42.28125 30.421875 31.390625 
Q 30.421875 20.453125 26.78125 9.375 
Q 23.140625 -1.703125 15.828125 -13.1875 
L 8.015625 -13.1875 
Q 14.5 -2 17.703125 9.0625 
Q 20.90625 20.125 20.90625 31.390625 
Q 20.90625 42.671875 17.703125 53.65625 
Q 14.5 64.65625 8.015625 75.875 
z
" id="DejaVuSans-41"/>
     <path d="M 39.40625 66.21875 
Q 28.65625 66.21875 22.328125 58.203125 
Q 16.015625 50.203125 16.015625 36.375 
Q 16.015625 22.609375 22.328125 14.59375 
Q 28.65625 6.59375 39.40625 6.59375 
Q 50.140625 6.59375 56.421875 14.59375 
Q 62.703125 22.609375 62.703125 36.375 
Q 62.703125 50.203125 56.421875 58.203125 
Q 50.140625 66.21875 39.40625 66.21875 
z
M 53.21875 1.3125 
L 66.21875 -12.890625 
L 54.296875 -12.890625 
L 43.5 -1.21875 
Q 41.890625 -1.3125 41.03125 -1.359375 
Q 40.1875 -1.421875 39.40625 -1.421875 
Q 24.03125 -1.421875 14.8125 8.859375 
Q 5.609375 19.140625 5.609375 36.375 
Q 5.609375 53.65625 14.8125 63.9375 
Q 24.03125 74.21875 39.40625 74.21875 
Q 54.734375 74.21875 63.90625 63.9375 
Q 73.09375 53.65625 73.09375 36.375 
Q 73.09375 23.6875 67.984375 14.640625 
Q 62.890625 5.609375 53.21875 1.3125 
z
" id="DejaVuSans-81"/>
     <path d="M 19.671875 64.796875 
L 19.671875 37.40625 
L 32.078125 37.40625 
Q 38.96875 37.40625 42.71875 40.96875 
Q 46.484375 44.53125 46.484375 51.125 
Q 46.484375 57.671875 42.71875 61.234375 
Q 38.96875 64.796875 32.078125 64.796875 
z
M 9.8125 72.90625 
L 32.078125 72.90625 
Q 44.34375 72.90625 50.609375 67.359375 
Q 56.890625 61.8125 56.890625 51.125 
Q 56.890625 40.328125 50.609375 34.8125 
Q 44.34375 29.296875 32.078125 29.296875 
L 19.671875 29.296875 
L 19.671875 0 
L 9.8125 0 
z
" id="DejaVuSans-80"/>
     <path d="M 8.6875 72.90625 
L 18.609375 72.90625 
L 18.609375 28.609375 
Q 18.609375 16.890625 22.84375 11.734375 
Q 27.09375 6.59375 36.625 6.59375 
Q 46.09375 6.59375 50.34375 11.734375 
Q 54.59375 16.890625 54.59375 28.609375 
L 54.59375 72.90625 
L 64.5 72.90625 
L 64.5 27.390625 
Q 64.5 13.140625 57.4375 5.859375 
Q 50.390625 -1.421875 36.625 -1.421875 
Q 22.796875 -1.421875 15.734375 5.859375 
Q 8.6875 13.140625 8.6875 27.390625 
z
" id="DejaVuSans-85"/>
    </defs>
    <use xlink:href="#DejaVuSans-72"/>
    <use x="75.195312" xlink:href="#DejaVuSans-101"/>
    <use x="136.71875" xlink:href="#DejaVuSans-97"/>
    <use x="197.998047" xlink:href="#DejaVuSans-118"/>
    <use x="257.177734" xlink:href="#DejaVuSans-121"/>
    <use x="316.357422" xlink:href="#DejaVuSans-32"/>
    <use x="348.144531" xlink:href="#DejaVuSans-111"/>
    <use x="409.326172" xlink:href="#DejaVuSans-117"/>
    <use x="472.705078" xlink:href="#DejaVuSans-116"/>
    <use x="511.914062" xlink:href="#DejaVuSans-112"/>
    <use x="575.390625" xlink:href="#DejaVuSans-117"/>
    <use x="638.769531" xlink:href="#DejaVuSans-116"/>
    <use x="677.978516" xlink:href="#DejaVuSans-32"/>
    <use x="709.765625" xlink:href="#DejaVuSans-100"/>
    <use x="773.242188" xlink:href="#DejaVuSans-105"/>
    <use x="801.025391" xlink:href="#DejaVuSans-115"/>
    <use x="853.125" xlink:href="#DejaVuSans-116"/>
    <use x="892.333984" xlink:href="#DejaVuSans-114"/>
    <use x="933.447266" xlink:href="#DejaVuSans-105"/>
    <use x="961.230469" xlink:href="#DejaVuSans-98"/>
    <use x="1024.707031" xlink:href="#DejaVuSans-117"/>
    <use x="1088.085938" xlink:href="#DejaVuSans-116"/>
    <use x="1127.294922" xlink:href="#DejaVuSans-105"/>
    <use x="1155.078125" xlink:href="#DejaVuSans-111"/>
    <use x="1216.259766" xlink:href="#DejaVuSans-110"/>
    <use x="1279.638672" xlink:href="#DejaVuSans-115"/>
    <use x="1331.738281" xlink:href="#DejaVuSans-32"/>
    <use x="1363.525391" xlink:href="#DejaVuSans-102"/>
    <use x="1398.730469" xlink:href="#DejaVuSans-111"/>
    <use x="1459.912109" xlink:href="#DejaVuSans-114"/>
    <use x="1501.025391" xlink:href="#DejaVuSans-32"/>
    <use x="1532.8125" xlink:href="#DejaVuSans-40"/>
    <use x="1571.826172" xlink:href="#DejaVuSans-115"/>
    <use x="1623.925781" xlink:href="#DejaVuSans-105"/>
    <use x="1651.708984" xlink:href="#DejaVuSans-109"/>
    <use x="1749.121094" xlink:href="#DejaVuSans-117"/>
    <use x="1812.5" xlink:href="#DejaVuSans-108"/>
    <use x="1840.283203" xlink:href="#DejaVuSans-97"/>
    <use x="1901.5625" xlink:href="#DejaVuSans-116"/>
    <use x="1940.771484" xlink:href="#DejaVuSans-101"/>
    <use x="2002.294922" xlink:href="#DejaVuSans-100"/>
    <use x="2065.771484" xlink:href="#DejaVuSans-41"/>
    <use x="2104.785156" xlink:href="#DejaVuSans-32"/>
    <use x="2136.572266" xlink:href="#DejaVuSans-79"/>
    <use x="2215.283203" xlink:href="#DejaVuSans-117"/>
    <use x="2278.662109" xlink:href="#DejaVuSans-114"/>
    <use x="2317.525391" xlink:href="#DejaVuSans-101"/>
    <use x="2379.048828" xlink:href="#DejaVuSans-110"/>
    <use x="2442.427734" xlink:href="#DejaVuSans-115"/>
    <use x="2494.527344" xlink:href="#DejaVuSans-101"/>
    <use x="2556.050781" xlink:href="#DejaVuSans-32"/>
    <use x="2587.837891" xlink:href="#DejaVuSans-81"/>
    <use x="2666.548828" xlink:href="#DejaVuSans-80"/>
    <use x="2726.851562" xlink:href="#DejaVuSans-85"/>
   </g>
  </g>
 </g>
 <defs>
  <clipPath id="pa20b7e53bb">
   <rect height="140.9" width="277.925585" x="48.425" y="57.6"/>
  </clipPath>
  <clipPath id="p082b9e9c74">
   <rect height="140.9" width="277.925585" x="357.2125" y="57.6"/>
  </clipPath>
  <clipPath id="pf862533f11">
   <rect height="140.9" width="277.925585" x="48.425" y="245.3"/>
  </clipPath>
  <clipPath id="p7f30ddf6c2">
   <rect height="140.9" width="277.925585" x="357.2125" y="245.3"/>
  </clipPath>
 </defs>
</svg>
