<?xml version="1.0" encoding="utf-8"?>
<!-- Generator: Adobe Illustrator 27.2.0, SVG Export Plug-In . SVG Version: 6.00 Build 0)  -->
<svg version="1.1" id="Layer_1" xmlns="http://www.w3.org/2000/svg" xmlns:xlink="http://www.w3.org/1999/xlink" x="0px" y="0px"
	 viewBox="0 0 300 200" style="enable-background:new 0 0 300 200;" xml:space="preserve">
<style type="text/css">
	.st0{fill:#FFB5F1;stroke:#000000;stroke-linecap:round;stroke-linejoin:round;stroke-miterlimit:10;}
	.st1{fill:#FFEEBF;stroke:#000000;stroke-linecap:round;stroke-linejoin:round;stroke-miterlimit:10;}
	.st2{fill:#DAD8D8;stroke:#000000;stroke-linecap:round;stroke-linejoin:round;stroke-miterlimit:10;}
	.st3{fill:#BCBABA;stroke:#000000;stroke-linecap:round;stroke-linejoin:round;stroke-miterlimit:10;}
	.st4{fill:#FF87EB;stroke:#000000;stroke-linecap:round;stroke-linejoin:round;stroke-miterlimit:10;}
	.st5{fill:#FFE096;stroke:#000000;stroke-linecap:round;stroke-linejoin:round;stroke-miterlimit:10;}
	.st6{fill:none;stroke:#000000;stroke-linecap:round;stroke-linejoin:round;stroke-miterlimit:10;}
	.st7{fill:#FFCBF5;stroke:#000000;stroke-linecap:round;stroke-linejoin:round;stroke-miterlimit:10;}
	.st8{fill:#70CEFF;stroke:#000000;stroke-linecap:round;stroke-linejoin:round;stroke-miterlimit:10;}
	.st9{fill:#FFFFFF;stroke:#000000;stroke-linecap:round;stroke-linejoin:round;stroke-miterlimit:10;}
	.st10{fill:#E7F6FD;}
	.st11{fill:#ACE3FF;stroke:#000000;stroke-linecap:round;stroke-linejoin:round;stroke-miterlimit:10;}
	.st12{fill:#00B1FF;stroke:#000000;stroke-linecap:round;stroke-linejoin:round;stroke-miterlimit:10;}
</style>
<g>
	<path class="st0" d="M268.9,114.4c-2.2,0-4.1,0-6.2,0.3c-1.5,0.2-3,0.4-4.5,0.4c-3.2,0.1-6.5-0.5-9.7-0.5c-2,0-4-0.1-6-0.1
		c-2.3,0-4.6,0.2-6.9,0.3c-1.9,0.1-3.9,0.2-5.9,0c-2.3-0.3-4.5-0.9-6.8-1c-1-0.1-2.2-0.2-3.2-0.1c-1,0.1-1.9,0.4-2.9,0.5
		c-1.7,0.2-3.4,0.1-5.2,0.1c-3.7,0-7.4-0.3-11.1,0c-2.4,0.2-4.8,0.1-7.2,0.1c-1.2,0-2.5,0-3.7,0c-0.5,0-1.2-0.1-1.6,0
		c-0.7,0.2-0.8,1.3-0.9,1.9c-0.4,1.1-0.6,2-0.6,3.2c0,1.2,0.4,2.3,0.4,3.4c0.1,1.2,0,2.4,0,3.5c0.1,1.1-0.3,2.1-0.4,3.2
		c-0.1,1,0,1.9,0,2.9c0.1,1.1,0.1,2.2,0.1,3.4c0,1.1,0.2,2.3,0.1,3.4c0,1.1,0.1,2.1,0,3.2c0,1.3-0.2,2.6-0.1,3.8
		c0.2,2.1,0.1,4.3,0,6.4c0,1.8,0.2,3.6,0.2,5.5c0,1.7,0,3.4,0,5.1c0,1.3,0,2.5,0,3.8c0,0.9,0.7,1.6,1.6,1.8c1,0.3,2.1,0.2,3.1,0.2
		c1.4,0,2.9-0.2,4.3-0.1c2.3,0.2,4.7,0.1,6.9,0.5c0.9,0.1,1.9,0.1,2.9,0.1c0.7,0,1.5,0,2.2,0c1-0.1,1.9-0.4,2.9-0.6
		c3.1-0.7,6.1,0,9.2,0.1c1.6,0,3.1,0,4.7,0.2c1.1,0.1,2.1,0,3.2,0.1c1.3,0.1,2.5,0.3,3.8,0.3c1.7,0,3.5-0.1,5.3-0.2
		c1.7-0.1,3.5-0.2,5.2-0.2c2.9,0,5.7-0.5,8.6-0.5c1.1,0,2.1,0.1,3.2,0.4c1.2,0.3,2.1,0.1,3.3,0c1.8-0.2,3.6-0.2,5.5-0.2
		c1.3,0,2.6,0.5,3.9,0.2c1-0.2,1.7-1.1,1.8-2.1c0.1-0.7,0.1-1.3,0.2-2c0.1-0.7,0.2-1.2,0.2-1.9c0-1.6-0.2-3.2-0.3-4.7
		c-0.1-1.4,0.1-2.9,0-4.3c-0.1-2,0-4.1,0-6.1c0-0.8,0.1-1.7,0-2.4c-0.2-0.9-0.5-1.6-0.5-2.5c0-1.8,0.3-3.6,0.3-5.5
		c0-1.8-0.2-3.5,0.1-5.3c0.3-1.7-0.1-3.4-0.1-5.2c0-1.7,0.3-3.4,0.5-5.1c0.1-0.6,0-1.3,0-2c0-0.5,0.1-1.1,0.1-1.6
		c0-0.8,0.1-1.9,0.2-2.6C269.7,115.5,270.1,113.8,268.9,114.4z"/>
	<path class="st1" d="M207.8,126.4c-1.4,0-2.9,0.1-4.3,0.1c-1,0-2,0.1-3.1,0.1c-1.4,0-2.8-0.1-4.2,0c-0.3,0-0.7,0-1,0.1
		c-0.3,0-0.7,0-0.9,0.1c-0.5,0.2-0.4,1.3-0.4,1.8c0.1,0.7,0.1,1.3,0.1,2c0,0.3-0.1,0.5,0.2,0.6c0.5,0.2,1,0.2,1.5,0.2
		c0.4,0,0.9,0,1.3,0c0.7-0.1,1.3,0.1,1.9,0.1c1.6,0,3.2,0.1,4.8,0.1c1.1,0,2.2,0,3.2-0.2c0.3-0.1,0.6-0.2,0.9-0.2
		c0.3-0.1,0.6,0,0.9-0.1c0-0.2,0-0.5,0-0.7c0-0.3,0-0.5,0-0.8c0-0.3,0-0.7,0-1c0-0.3,0.1-0.6,0-0.9
		C208.6,127.4,208.2,127.2,207.8,126.4z"/>
	<path class="st2" d="M257.6,103c-1,0-2-0.1-3,0.1c-0.1,0-0.3,0-0.5,0.1c-0.1,0-0.4,0-0.5,0c-0.2,0.1-0.2,0.6-0.3,0.9
		c0,0.4,0.1,0.8,0.1,1.2c0,0.8,0,1.5,0,2.3c0,0.5-0.2,1.1,0,1.6c0.4,0.9,1.7,0.8,2.5,0.7c0.4,0,0.8-0.1,1.1-0.1c0.3,0,0.6,0.1,0.9,0
		c0.3-0.1,0.5-0.3,0.6-0.5c0.1-0.3,0-0.5-0.1-0.8c-0.2-0.7-0.2-1.4-0.2-2.1c0-0.3-0.1-0.7-0.1-1c0-0.3,0-0.7,0.1-1
		c0-0.3,0.1-0.6,0-0.8C258.3,102.9,257.7,102.8,257.6,103z"/>
	<path class="st3" d="M261.7,111.4c0-0.9,0-1.7,0.1-2.5c0-0.3,0-0.5,0-0.8c-0.3-0.9-1.4-0.4-2.1-0.4c-1.1,0.2-2.2,0-3.4-0.1
		c-1.1,0-2.1,0-3.2-0.1c-0.4,0-0.7,0-1.1,0c-0.3,0-0.5,0.1-0.8,0c-0.3,0-0.8-0.1-1.1,0.2c-0.2,0.2-0.3,0.5-0.3,0.8
		c-0.1,0.3,0,0.7,0,1c0,0.4,0,0.7,0.1,1.1c0.1,0.3,0.1,0.6,0.4,0.7c0.6,0.3,1.3,0.3,2,0.3c0.5,0,0.9,0,1.4,0
		c0.6-0.1,1.2-0.2,1.8-0.2c0.5,0,1-0.1,1.5,0c0.5,0,1.1,0.2,1.6,0.2C259.7,111.9,260.9,111.7,261.7,111.4z"/>
	<path class="st2" d="M201,103c-1,0-2-0.1-3,0.1c-0.1,0-0.3,0-0.5,0.1c-0.1,0-0.4,0-0.5,0c-0.2,0.1-0.2,0.6-0.3,0.9
		c0,0.4,0.1,0.8,0.1,1.2c0,0.8,0,1.5,0,2.3c0,0.5-0.2,1.1,0,1.6c0.4,0.9,1.7,0.8,2.5,0.7c0.4,0,0.8-0.1,1.1-0.1c0.3,0,0.6,0.1,0.9,0
		c0.3-0.1,0.5-0.3,0.6-0.5c0.1-0.3,0-0.5-0.1-0.8c-0.2-0.7-0.2-1.4-0.2-2.1c0-0.3-0.1-0.7-0.1-1c0-0.3,0-0.7,0.1-1
		c0-0.3,0.1-0.6,0-0.8C201.7,102.9,201,102.8,201,103z"/>
	<path class="st3" d="M205.1,111.4c0-0.9,0-1.7,0.1-2.5c0-0.3,0-0.5,0-0.8c-0.3-0.9-1.4-0.4-2.1-0.4c-1.1,0.2-2.2,0-3.4-0.1
		c-1.1,0-2.1,0-3.2-0.1c-0.4,0-0.7,0-1.1,0c-0.3,0-0.5,0.1-0.8,0c-0.3,0-0.8-0.1-1.1,0.2c-0.2,0.2-0.3,0.5-0.3,0.8
		c-0.1,0.3,0,0.7,0,1c0,0.4,0,0.7,0.1,1.1c0.1,0.3,0.1,0.6,0.4,0.7c0.6,0.3,1.3,0.3,2,0.3c0.5,0,0.9,0,1.4,0
		c0.6-0.1,1.2-0.2,1.8-0.2c0.5,0,1-0.1,1.5,0c0.5,0,1.1,0.2,1.6,0.2C203.1,111.9,204.2,111.7,205.1,111.4z"/>
	<path class="st3" d="M272.1,165.5c-1.9-0.2-3.8-0.2-5.7,0c-1.2,0.1-2.4,0.4-3.6,0.6c-6.1,0.6-12.4,0.2-18.6,0.2
		c-6.8,0.1-13.9,0.5-20.6-0.7c-0.5-0.1-1,0-1.5,0c-0.6,0-1.3,0-1.9-0.1c-1.1,0-2.1,0.2-3.1,0.2c-1.2,0-2.5,0-3.7,0.1
		c-1.3,0.1-2.6,0.3-4,0.2c-1.2,0-2.4,0.3-3.6,0.1c-0.8-0.2-1.6-0.4-2.5-0.4c-0.8,0-1.6-0.2-2.4-0.1c-1,0.1-1.9,0.3-2.8,0.3
		c-0.5,0-0.9-0.1-1.3,0c-0.6,0.1-1.1,0.3-1.7,0.3c-1,0.1-1.9-0.4-2.8-0.4c-0.7,0-1.4-0.1-2.1-0.1c-0.6,0-1.2,0.1-1.7,0.2
		c-0.5,0-1.1-0.2-1.6-0.3c-0.9-0.2-1.5,0-2.2,0.6c-0.6,0.5-1,0.7-1,1.5c0,0.8,0.2,1.6,0.3,2.4c0.1,0.5,0,1.1,0.3,1.6
		c0.2,0.3,0.4,0.4,0.7,0.5c0.4,0.2,0.9,0.3,1.4,0.5c0.7,0.2,1.4,0.1,2,0.2c0.6,0,11.3-0.2,11.9-0.3c0.5,0,0.9,0.1,1.4,0.1
		c0.5,0,1,0.1,1.4,0c0.6-0.1,1-0.2,1.6-0.1c0.6,0.1,1.3,0.1,1.9,0.3c0.7,0.2,1.2,0.3,1.9,0.3c0.9,0,1.9,0.2,2.8,0.1
		c1.3-0.1,2.6-0.3,4-0.3c0.9,0,1.8,0,2.7,0c1,0,2-0.1,3,0c1.1,0.1,2.3,0.1,3.4,0.1c8.8-0.2,18.3,0.2,27.2,0.3
		c10.3,0.1,9.9,0.4,20.1-0.3c0.5,0,1-0.1,1.5-0.3c1.6-0.9,0.6-3,1-4.4c0.2-0.8,0.3-1.5-0.4-2.1C273.3,165.7,272.7,165.6,272.1,165.5
		C272.1,165.5,272.1,165.5,272.1,165.5z"/>
	<path class="st4" d="M268.8,111.1c-0.5-0.1-1-0.1-1.5-0.1c-7.8,0.1-15.5,0.1-23.3,0.1c-3.9,0-7.8,0-11.7-0.1
		c-3.6,0-7.3-0.3-10.9,0.1c-0.7,0.1-1.4,0.1-2.2,0.1c-1.3,0-2.5,0.2-3.7,0.2c-0.6,0-1.2-0.1-1.7-0.1c-0.8,0.1-1.5,0.2-2.3,0.2
		c-1.4,0.1-2.8,0.3-4.2,0.1c-1.2-0.1-2.4-0.3-3.5-0.5c-1.1-0.2-2.2-0.1-3.4-0.1c-1.1,0-2.1,0.3-3.2,0.5c-0.7,0.1-1.4,0.1-2.1,0.2
		c-0.6,0.1-1.1,0.2-1.7,0.2c-1.6,0-3.2-0.3-4.8-0.1c-0.4,0-0.8,0-1.2,0.1c-0.7,0.1-1.4,0.3-2.1,0.4c-0.9,0.1-1.6,0-2,0.9
		c-0.2,0.5-0.5,1.1-0.5,1.7c0,0.5,0.2,1.1,0.3,1.6c0.1,0.7,0.2,1.1,0.8,1.5c0.5,0.3,0.8,0.8,1.4,0.9c0.5,0.1,1,0,1.5,0
		c0.5,0,1.2,0,1.7-0.1c0.6-0.1,1.1-0.3,1.8-0.3c0.7,0,1.4,0.1,2.2-0.1c1.2-0.2,2.3,0.3,3.5,0.2c1.6-0.2,3.3-0.3,4.9-0.5
		c0.8-0.1,1.7-0.1,2.5-0.1c0.7-0.1,1.3-0.1,2-0.1c0.4,0,0.7,0.1,1.1,0.1c0.3,0,0.6-0.1,0.9-0.1c0.9,0,1.9,0,2.8,0
		c0.8,0,1.6,0,2.4,0.1c0.9,0.1,1.9,0.1,2.8-0.1c1.5-0.4,3.5,0.1,5,0.2c1.9,0.1,3.9,0.1,5.8,0.2c3.8,0.1,7.6,0.1,11.5,0.2
		c4.5,0,9,0,13.5-0.1c2.3,0,4.5-0.1,6.8-0.2c1.8-0.1,3.5-0.5,5.3-0.5c0.5,0,0.9-0.1,1.4-0.1c0.7,0.1,1.4,0.2,2,0.4
		c0.7,0.2,1.5,0,2.2,0.1c0.5,0.1,1.2,0.3,1.6-0.1c0.4-0.3,0.5-0.8,0.5-1.3c0-0.6,0-1.3,0.1-1.9c0.1-1.5,0.1-2.8-1.6-3.3
		C269.3,111.1,269.1,111.1,268.8,111.1z"/>
	<path class="st5" d="M237.9,124c-1.1,0.1-2.3,0.1-3.4,0.2c-0.7,0.1-1.4,0-2.1,0.3c-0.9,0.3-1.9,0.3-2.9,0.4c-0.3,0-0.6,0-0.9-0.1
		c-0.3,0-0.7-0.1-1,0c-0.5,0-1-0.1-1.5,0.1c-0.3,0.1-0.2,0.2-0.3,0.6c-0.1,0.7-0.3,1.3-0.5,2c-0.2,0.6-0.4,1.1-0.6,1.7
		c-0.2,0.5-0.4,1-0.6,1.5c-0.4,0.9-0.7,1.9-1.1,2.9c-0.3,0.8-0.6,1.6-0.9,2.4c-0.4,1.2-1.8,4.3-2.3,5.4c-0.3,0.8-0.7,1.7-1.1,2.4
		c0.1,0,0.2,0,0.3,0c0.2,0,0.4-0.1,0.5-0.2c0.5-0.2,1.1-0.3,1.6-0.5c0.9-0.3,2-0.3,2.9-0.4c0.9,0,1.8-0.2,2.8-0.4
		c0.4-0.1,0.8-0.2,1.2-0.2c0.3,0,0.6-0.1,0.9-0.3c-0.5,0.6-1,1.2-1.5,1.9c-0.4,0.7-0.9,1.3-1.3,2c-1.1,1.9-0.8,2.2-1.9,4.1
		c-0.5,1-1,2.2-1.5,3.2c-0.4,0.9-0.7,1.9-1,2.9c-0.3,0.9-0.6,1.8-1,2.7c-0.2,0.6-0.5,1.2-0.7,1.8c0.8-0.7,1.6-1.6,2.2-2.5
		c0.5-0.8,1-1.6,1.6-2.3c0.4-0.5,0.9-1.1,1.4-1.6c1-1.2,1.9-2.5,2.8-4c0.5-0.9,1.1-1.5,1.7-2.3c0.4-0.6,0.6-1.3,0.9-2
		c0.4-0.8,1-1.3,1.4-2.1c0.4-0.7,0.7-1.3,1.2-1.9c0.2-0.2,0.4-0.5,0.6-0.7c0.1-0.2,0.2-0.4,0.3-0.6c0.2-0.4,0.5-0.7,0.7-1.1
		c0.2-0.3,0.3-0.6,0.5-0.8c0.3-0.4,0.6-0.7,0.9-1c0.3-0.4,0.7-0.8,1-1.1c-0.5-0.1-1.2,0-1.7,0.1c-0.5,0.1-1,0.1-1.5,0.1
		c-0.4,0-0.8,0-1.2,0.1c-0.5,0-0.8,0.2-1.3,0.4c0.1-0.1,0.1-0.2,0.1-0.3c0.1-0.3,0.2-0.6,0.4-0.9c0.2-0.5,0.4-0.9,0.6-1.3
		c0.2-0.4,0.3-0.8,0.5-1.2c0.4-0.7,0.8-1.4,1.2-2.1c0.2-0.4,0.5-0.7,0.6-1.1c0.1-0.3,0.3-0.7,0.4-1c0.2-0.5,0.5-1,0.7-1.5
		c0.2-0.5,0.5-1,0.7-1.6C237.1,125.7,237.7,124.2,237.9,124z"/>
	<path class="st6" d="M212.6,137.6c-1.9-1.8-3.6-3.6-4.9-5.8c-0.9-1.5-1.8-2.8-2.9-4c-1.6-1.7-2.9-3.6-4.3-5.5
		c-1.2-1.6-2.5-3.1-3.8-4.7c-0.6-0.8-1.2-1.6-1.8-2.5c-0.7-1.1-1.6-2.1-2.3-3.1c-1.3-1.8-2.9-3.3-4.1-5.2c-1.1-1.7-2.2-3.3-3.4-4.9
		c-0.7-0.9-1.4-1.8-2.1-2.7c-0.9-1.2-1.6-2.5-2.6-3.6c-0.9-1-1.8-2-2.7-3c-0.9-1-1.6-2.1-2.5-3.1c-1.3-1.7-2.9-3.1-4.2-4.7
		c-0.8-0.9-1.4-2-2.1-2.9c-0.8-0.9-1.7-1.8-2.5-2.7c-0.8-0.8-1.5-1.8-2.2-2.6c-0.8-1-1.5-2.2-2.4-3.1c-1.6-1.6-3.1-3.4-4.6-5.2
		c-1.4-1.7-2.9-3.2-4.3-4.9c-0.7-0.9-1.4-1.7-2-2.6c-0.6-0.9-1.2-1.7-1.9-2.5c-1-1.2-2-2.5-3-3.8c-0.9-1.3-1.6-2.7-2.7-3.9
		c-0.5-0.5-0.8-1.1-1.3-1.7c-0.3-0.4-0.6-0.6-0.9-0.9c-0.7-0.8-1-2.3-1.9-3"/>
	<path class="st6" d="M207.9,147.5c-2-0.7-3.9-1.5-5.9-2.3c-0.6-0.3-1.3-0.5-1.9-0.5c-1.1-0.1-2.2,0.1-3.3,0.1c-1,0-2-0.3-2.9-0.7
		c-1.1-0.4-2.3-0.7-3.5-0.8c-1.1-0.1-2.1-0.1-3.1-0.6c-1.1-0.5-2.2-0.9-3.4-1.1c-1.2-0.2-2.3-0.1-3.5-0.3c-1.4-0.2-2.6-0.7-4-1
		c-1.1-0.3-2.3-0.3-3.4-0.5c-1.4-0.2-2.8-0.6-4.2-1c-1.2-0.4-2.5-0.7-3.7-1c-1.9-0.4-3.7-0.4-5.6-1.1c-1.3-0.5-2.5-0.8-3.9-1
		c-1.4-0.2-2.8-0.3-4.3-0.7c-2.5-0.7-5.1-1.1-7.6-1.6c-2.5-0.5-4.8-1.5-7.4-1.8c-1-0.1-1.9-0.3-2.9-0.5c-1.4-0.3-2.6-0.9-4-1.1
		c-0.9-0.2-1.8-0.1-2.7-0.3c-1-0.2-2-0.5-2.9-0.7c-1.9-0.5-3.8-0.4-5.7-0.8c-1.4-0.3-2.7-0.8-4.1-1c-0.6-0.1-1.2,0-1.8-0.1
		c-0.7-0.1-7.4-1.5-8.1-1.7c-4.3-1.2-7.4-2.2-9.5-2.7"/>
	<path class="st7" d="M210.2,137.1c0.8,0.2,1.9,0.3,2.6,1c0.2,0.2,0.3,0.4,0.5,0.6c0.2,0.3,0.5,0.6,0.6,1c0.2,0.5,0.5,1.1,0.6,1.7
		c0.2,0.6,0.5,1.3,0.5,1.9c0,0.6-0.4,1.4-0.7,1.9c-0.8,1.5-2.8,3.1-4.5,3.2c-0.9,0.1-2-0.5-2.7-1.1c-0.8-0.7-1.7-1.3-2.2-2.2
		c-0.4-0.7-0.8-1.8-0.7-2.6c0.1-1,0.5-2.1,0.9-3c0.4-1,1.6-1.8,2.5-2.2c0.4-0.2,0.9-0.4,1.4-0.4c0.2,0,0.5,0,0.7,0
		C210.4,136.8,211.1,136.6,210.2,137.1z"/>
	<g>
		<path class="st8" d="M137.6,48.3c1.5,1.3,3.1,2.4,4.1,4.2c0.3,0.5,0.6,1.1,0.9,1.6c0.8,1.3,1.9-1,2.7,0.3c1.3,2.2,2.6,6.8,3.7,9.1
			c0.6,1.2,0.8,3.7,1.1,5c0.4,1.7,0.9,3.3,1.2,5c0.2,1.4,0.3,2.8,0.4,4.2c0.1,1.3,0.4,2.5,0.3,3.8c-0.1,2.7-0.4,5.4-0.6,8.2
			c-0.2,3-1,5.5-2.3,8.2c-1.5,3.3-3.6,6.4-5.7,9.4c-0.9,1.3-1.7,2.7-2.7,4c-1.1,1.4-2.4,2.6-3.8,3.8c-3.3,2.7-6.9,4.7-10.7,6.6
			c-1.5,0.8-2.8,1.3-4.5,1.5c-1.4,0.2-2.7,0.5-4.1,0.6c-1.3,0.1-2.6,0.2-4,0.2c-1.4,0-2.8,0.4-4.2,0.3c-1.2-0.1-2.3-0.4-3.4-0.6
			c-1.1-0.2-2.2-0.3-3.2-0.4c-2.3-0.3-4.7,0.3-7-0.3c-1.7-0.4-3.3-1.5-4.9-2.3c-0.6-0.3-1.3-0.7-1.9-1c-0.9-0.3-1.9-0.3-2.7-0.8
			c-1.9-1.1-3.7-2.3-5.5-3.5c-0.9-0.7-1.6-1.5-2.2-2.4c-0.8-1.1-1.8-1.9-2.6-2.9c-0.7-0.8-1.3-1.6-1.9-2.4c-0.6-0.9-1.4-1.6-2-2.5
			c-0.5-0.8-1.5-1.1-1.9-1.9c-0.5-1-0.9-2-1.3-3c-0.3-0.8-1.4-3-1.6-3.8c-0.3-1-1.6-3.7-1.9-4.7c-0.3-1-1.8-13.1-1.8-14.2
			c0.1-1,3.7,11.6,3.5,10.6c-0.6-1.9-0.7-3.6-0.8-5.6c0-1-0.3-2-0.2-3c0.1-1.1,0.3-2.2,0.4-3.3c0.4-2.7,1.3-5.2,2.1-7.7
			c1.1-3.2,2.6-6.1,4.3-8.9c1.5-2.4,2.8-4.9,4.6-7.2c1.5-1.9,3.4-3.8,5.3-5.4c0.8-0.7,1.7-1.2,2.5-1.9c0.9-0.8,2-1.5,3-2.2
			c3.6-2.2,7.3-4.2,11.5-5c2.9-0.5,5.6-1.6,8.5-1.5c1.4,0,2.8,0.1,4.2,0.4c0.7,0.2,1.5,0.4,2.2,0.5c0.7,0.1,1.3,0.1,2,0.2
			c2.7,0.5,5.2,1.3,7.7,2.4c1.2,0.6,2.4,1.1,3.5,1.9c0.9,0.6,2,1,3,1.5c1.7,0.9,3.2,2,4.8,3.1C137.8,47.7,138.5,50.1,137.6,48.3z"/>
		<path class="st5" d="M72.4,122.9c0.4,0.8,0.8,2,0.1,3c-0.2,0.4-0.5,0.7-0.7,1.1c-0.5,0.7-1.1,1.4-1.6,2.1
			c-1.3,1.6-2.5,3.2-3.8,4.8c-2.7,3.2-5.3,6.4-8,9.7c-6.1,7.3-12.1,14.7-18.2,22c-0.6,0.8-1.2,1.6-1.9,2.4c-0.5,0.5-1,1.1-1.4,1.7
			c-0.5,0.8-1.4,2-2.2,2.5c-0.8,0.5-1.5,0.9-2.4,1c-0.9,0.2-1.5,0-2.3-0.4c-1.1-0.5-2.2-1.4-3.1-2.3c-0.5-0.5-0.6-1.3-0.9-2
			c-0.3-0.8-0.8-1.7-0.5-2.7c1-3.1,3.3-5.7,5.3-8.3c1.5-1.9,3.1-3.8,4.7-5.7c0.8-0.9,1.6-1.8,2.4-2.7c0.7-0.7,1.4-1.5,2.4-2.5
			c2.5-3,4.9-6,7.4-9c1-1.2,2-2.4,2.9-3.5c0.9-1.1,1.7-2.2,2.6-3.2c2.1-2.5,4.2-5.1,6.3-7.6c0.7-0.8,1.5-1.5,2.2-2.3
			c0.5-0.6,1.1-1.2,1.6-1.6c0.5-0.4,1.1-0.7,1.7-1c0.7-0.3,1.3,0,1.8,0.3c0.6,0.7,1.2,1.5,2,2c0.4,0.2,0.6,0.6,0.9,0.9
			c0.3,0.2,0.6,0.4,0.9,0.6C71.2,122.3,72.3,122.7,72.4,122.9z"/>
		<path class="st1" d="M76.5,107.5c0.4,0.2,0.9,0.5,1.3,0.7c0.2,0.1,0.3,0.3,0.5,0.5c0.3,0.3,0.7,0.6,1,0.9c0.4,0.5,1,0.9,1.3,1.4
			c0.1,0.2,0.3,0.4,0.4,0.5c0.1,0.1,0.3,0.2,0.3,0.4c0,0.1,0,0.3-0.1,0.4c-0.1,0.3-0.4,0.6-0.6,0.8c-0.6,0.7-1.3,1.3-1.8,2
			c-0.2,0.3-0.4,0.6-0.7,0.9c-0.2,0.3-0.5,0.5-0.8,0.7c-0.5,0.5-0.7,1.1-1.2,1.5c-0.4,0.3-0.7,0.7-1,1.1c-0.3,0.3-0.5,0.8-0.8,1.1
			c-0.2,0.3-0.4,0.6-0.6,0.9c-0.2,0.3-0.4,0.5-0.5,0.8c-0.1,0.2-0.3,0.4-0.4,0.6c-0.1,0.1-0.2,0.3-0.4,0.3c-0.3,0.1-0.7,0-0.9-0.1
			c-0.3-0.1-0.5-0.3-0.8-0.4c-0.8-0.4-1.5-0.7-2.2-1.3c-0.2-0.2-0.4-0.4-0.7-0.6c-0.2-0.2-0.4-0.4-0.6-0.6c-0.2-0.2-0.3-0.4-0.5-0.7
			c-0.1-0.1-0.1-0.2-0.2-0.2c-0.1-0.1-0.1-0.1-0.2-0.2c0-0.1,0-0.3,0-0.5c0-0.2,0-0.4,0.1-0.6c0.1-0.2,0.3-0.4,0.5-0.5
			c0.3-0.3,0.7-0.6,1.1-0.9c0.5-0.4,0.9-0.9,1.3-1.3c0.7-0.6,1.1-1.4,1.8-1.9c0.4-0.4,0.8-0.7,1.2-1.2c0.3-0.4,0.7-0.7,1-1.1
			c0.2-0.2,0.3-0.4,0.5-0.6c0.2-0.2,0.3-0.4,0.4-0.6c0.2-0.3,0.4-0.5,0.6-0.8c0.2-0.4,0.4-0.8,0.7-1.1c0.2-0.1,0.2-0.2,0.5-0.2
			C76.5,107.6,76.7,107.6,76.5,107.5z"/>
		<g>
			<path class="st9" d="M138.6,42.8c0.3,0.5,0.6,1.1,0.9,1.6c0.8,1.3,1.7,2.6,2.5,3.9c1.3,2.2,2.7,4.3,3.7,6.6
				c0.6,1.2,0.9,2.6,1.2,3.9c0.4,1.7,0.9,3.3,1.2,5c0.2,1.4,0.3,2.8,0.4,4.2c0.1,1.3,0.4,2.5,0.3,3.8c-0.1,2.7-0.4,5.4-0.6,8.2
				c-0.2,3-1,5.5-2.3,8.2c-1.5,3.3-3.6,6.4-5.7,9.4c-0.9,1.3-1.7,2.7-2.7,4c-1.1,1.4-2.4,2.6-3.8,3.8c-3.3,2.7-6.9,4.7-10.7,6.6
				c-1.5,0.8-2.8,1.3-4.5,1.5c-1.4,0.2-2.7,0.5-4.1,0.6c-1.3,0.1-2.6,0.2-4,0.2c-1.4,0-2.8,0.4-4.2,0.3c-1.2-0.1-2.3-0.4-3.4-0.6
				c-1.1-0.2-2.2-0.3-3.2-0.4c-2.3-0.3-4.7,0.3-7-0.3c-1.7-0.4-3.3-1.5-4.9-2.3c-0.6-0.3-1.3-0.7-1.9-1c-0.9-0.3-1.9-0.3-2.7-0.8
				c-1.9-1.1-3.7-2.3-5.5-3.5c-0.9-0.7-1.6-1.5-2.2-2.4c-0.8-1.1-1.8-1.9-2.6-2.9c-0.7-0.8-1.3-1.6-1.9-2.4c-0.6-0.9-1.4-1.6-2-2.5
				c-0.5-0.8-0.7-1.7-1.2-2.6c-0.5-1-1.2-1.9-1.6-3C66,89,66,88.1,65.8,87.3c-0.3-1-0.8-1.9-1.1-2.8c-0.3-1-0.5-1.9-0.4-3
				c0.1-1,0-2.1-0.3-3.1c-0.6-1.9-0.7-3.6-0.8-5.6c0-1-0.3-2-0.2-3c0.1-1.1,0.3-2.2,0.4-3.3c0.4-2.7,1.3-5.2,2.1-7.7
				c1.1-3.2,2.6-6.1,4.3-8.9c1.5-2.4,2.8-4.9,4.6-7.2c1.5-1.9,3.4-3.8,5.3-5.4c0.8-0.7,1.7-1.2,2.5-1.9c0.9-0.8,2-1.5,3-2.2
				c3.6-2.2,7.3-4.2,11.5-5c2.9-0.5,5.6-1.6,8.5-1.5c1.4,0,2.8,0.1,4.2,0.4c0.7,0.2,1.5,0.4,2.2,0.5c0.7,0.1,1.3,0.1,2,0.2
				c2.7,0.5,5.2,1.3,7.7,2.4c1.2,0.6,2.4,1.1,3.5,1.9c0.9,0.6,2,1,3,1.5c1.7,0.9,3.2,2,4.8,3.1C132.6,36.7,137.6,41.1,138.6,42.8z"
				/>
			<path class="st10" d="M67.9,61.3c0.5-1.8,0.8-3.7,1.8-5.2c0.3-0.5,0.7-0.9,1-1.4c0.7-1.3,1.5-2.5,2.2-3.8c1.3-2,2.5-4.1,4.1-5.9
				c0.8-1,1.8-1.9,2.7-2.7c1.2-1,2.4-2.1,3.7-3.1c1-0.7,2.2-1.4,3.3-2.1c1-0.6,2-1.4,3.1-1.9c2.3-1,4.7-1.9,7-2.9
				c2.5-1.1,5-1.4,7.7-1.5c3.4-0.1,6.8,0.4,10.1,0.9c1.4,0.2,2.9,0.3,4.4,0.6c1.6,0.3,3.2,1,4.6,1.7c3.5,1.6,6.7,3.9,9.7,6.3
				c1.2,1,2.2,1.8,3,3.2c0.7,1.1,1.5,2.1,2.1,3.2c0.6,1.1,1.2,2.2,1.7,3.3c0.6,1.2,1.4,2.3,1.9,3.5c0.4,1,0.5,2.1,0.8,3.2
				c0.3,1,0.6,2,0.9,2.9c0.6,2.1,2.1,3.8,2.5,6.1c0.3,1.7,0,3.4,0,5.1c0,0.7-0.1,1.4-0.1,2c0.1,0.9,0.4,1.7,0.4,2.6
				c-0.2,2-0.4,4.1-0.8,6.1c-0.2,1.1-0.6,2-1.1,2.9c-0.6,1.1-0.9,2.3-1.4,3.4c-0.4,0.9-0.8,1.8-1.3,2.7c-0.5,0.9-0.8,1.9-1.3,2.7
				c-0.5,0.8-1.2,1.3-1.7,2.1c-0.6,0.8-1.1,1.8-1.9,2.6c-0.6,0.6-1.3,0.9-1.9,1.4c-0.7,0.6-1.2,1.5-1.9,2.1
				c-0.7,0.7-1.4,1.2-2.3,1.6c-0.9,0.4-1.7,0.9-2.4,1.6c-1.4,1.3-2.7,2.2-4.4,3c-0.8,0.4-1.5,1.1-2.4,1.4c-0.9,0.4-1.9,0.7-2.9,1
				c-2.4,0.8-4.8,1.1-7.3,1.4c-3.1,0.4-6,0.4-9.1,0c-2.6-0.3-5.2-0.4-7.8-0.9c-2.2-0.4-4.5-1.3-6.5-2.2c-0.9-0.4-1.7-0.9-2.6-1.3
				c-1-0.5-2.1-1-3-1.7c-3.2-2.1-6.4-4.5-8.6-7.7c-1.6-2.2-3.5-4.1-4.6-6.6c-0.5-1.2-1-2.4-1.3-3.7c-0.2-0.7-0.3-1.4-0.4-2.1
				c-0.1-0.6-0.4-1.2-0.6-1.8c-0.7-2.5-1-5-1-7.6c0-1.3,0-2.5,0.2-3.8c0.2-1.1,0.1-2.1,0.1-3.2c0.1-1.8,0.4-3.6,0.7-5.4
				C67.4,61.4,69.1,59.8,67.9,61.3z"/>
		</g>
		<path class="st11" d="M145.4,54.3c-0.8-1.3-1.9,1-2.7-0.3c-0.3-0.5-0.6-1-0.9-1.6c-1-1.7-4-4.7-6-6c-1.6-1.1-3.1-2.2-4.8-3.1
			c-1-0.5-2-0.9-3-1.5c-1.1-0.8-2.3-1.3-3.5-1.9c-2.5-1.1-5-2-7.7-2.4c-0.7-0.1-1.3-0.1-2-0.2c-0.7-0.2-1.5-0.4-2.2-0.5
			c-1.3-0.3-2.8-0.3-4.2-0.4c-2.9-0.1-5.7,0.9-8.5,1.5c-4.2,0.8-7.9,2.8-11.5,5c-1,0.6-2.1,1.4-3,2.2c-0.8,0.7-1.7,1.2-2.5,1.9
			c-1.9,1.5-3.8,3.4-5.3,5.4c-1.7,2.3-3.1,4.8-4.6,7.2c-1.8,2.9-3.2,5.7-4.3,8.9c-0.9,2.6-1.7,5.1-2.1,7.7c-0.2,1.1-0.3,2.2-0.4,3.3
			c-0.1,1,0.2,2,0.2,3c0,2,0.2,3.7,0.8,5.6c-0.2-0.8-2.9-9.9-3.4-10.6c-0.4-1.5-0.5-3-0.5-4.6c0-1-0.3-2-0.2-3
			c0.1-1.1,0.3-2.2,0.4-3.3c0.4-2.7,1.3-5.2,2.1-7.7c1.1-3.2,2.6-6.1,4.3-8.9c1.5-2.4,2.8-4.9,4.6-7.2c1.5-1.9,3.4-3.8,5.3-5.4
			c0.8-0.7,1.7-1.2,2.5-1.9c0.9-0.8,2-1.5,3-2.2c3.6-2.2,7.3-4.2,11.5-5c2.9-0.5,5.6-1.6,8.5-1.5c1.4,0,2.8,0.1,4.2,0.4
			c0.7,0.2,1.5,0.4,2.2,0.5c0.7,0.1,1.3,0.1,2,0.2c2.7,0.5,5.2,1.3,7.7,2.4c1.2,0.6,2.4,1.1,3.5,1.9c0.9,0.6,2,1,3,1.5
			c1.7,0.9,3.2,2,4.8,3.1c0,0,5,4.3,6,6c0.3,0.5,0.6,1.1,0.9,1.6c0.8,1.3,1.7,2.6,2.5,3.9c1.3,2.2,2.7,4.3,3.7,6.6
			c0.1,0.3,0.3,0.7,0.4,1C145.9,55.3,145.7,54.7,145.4,54.3z"/>
		<path class="st12" d="M64.3,81.4c-0.1,1.1,0.1,2,0.4,3c0.3,1,0.9,1.8,1.1,2.8c0.2,0.8,0.1,1.7,0.4,2.5c0.4,1.1,1.1,2,1.6,3
			c0.4,0.8,0.6,1.8,1.2,2.6c0.6,0.9,1.4,1.6,2,2.5c0.6,0.9,1.2,1.7,1.9,2.4c0.9,1,1.9,1.8,2.6,2.9c0.7,0.9,1.3,1.8,2.2,2.4
			c1.8,1.2,3.6,2.4,5.5,3.5c0.8,0.5,1.8,0.5,2.7,0.8c0.7,0.2,1.3,0.6,1.9,1c1.6,0.8,3.1,1.9,4.9,2.3c2.3,0.6,4.7-0.1,7,0.3
			c1.1,0.2,2.2,0.3,3.2,0.4c1.2,0.2,2.3,0.5,3.4,0.6c1.4,0.1,2.8-0.2,4.2-0.3c1.3,0,2.6-0.1,4-0.2c1.4-0.1,2.7-0.5,4.1-0.6
			c1.7-0.2,3-0.8,4.5-1.5c3.8-1.9,7.4-4,10.7-6.6c1.4-1.1,2.7-2.3,3.8-3.8c1-1.3,1.8-2.7,2.7-4c2-3,4.1-6.1,5.7-9.4
			c1.2-2.7,2.1-5.2,2.3-8.2c0.1-2.7,0.4-5.5,0.6-8.2c0.1-1.3-0.3-2.6-0.3-3.8c-0.1-1.4-0.2-2.8-0.4-4.2c-0.3-1.7-0.8-3.3-1.2-5
			c-0.3-1.3-0.7-2.7-1.2-3.9c-1.1-2.3-2.4-4.4-3.7-6.6c-0.8-1.3-1.7-2.6-2.5-3.9c-0.3-0.5-0.6-1-0.9-1.6c-1-1.7-6-6-6-6
			c-1.6-1.1-3.1-2.2-4.8-3.1c-1-0.5-2-0.9-3-1.5c-1.1-0.8-2.3-1.3-3.5-1.9c-2.5-1.1-5-2-7.7-2.4c-0.7-0.1-1.3-0.1-2-0.2
			c-0.7-0.2-1.5-0.4-2.2-0.5c-1.3-0.3-2.8-0.3-4.2-0.4c-2.9-0.1-5.7,0.9-8.5,1.5c-4.2,0.8-7.9,2.8-11.5,5c-1,0.6-2.1,1.4-3,2.2
			c-0.8,0.7-1.7,1.2-2.5,1.9c-1.9,1.5-3.8,3.4-5.3,5.4c-1.7,2.3-3.1,4.8-4.6,7.2c-1.8,2.9-3.2,5.7-4.3,8.9c-0.9,2.6-1.7,5.1-2.1,7.7
			c-0.2,1.1-0.3,2.2-0.4,3.3c-0.1,1,0.2,2,0.2,3c0,2,0.2,3.7,0.8,5.6C64.2,79.3,64.4,80.4,64.3,81.4z M66.1,76c0-1.3,0-2.5,0.2-3.8
			c0.2-1.1,0.1-2.1,0.1-3.2c0.1-1.8,0.4-3.6,0.7-5.4c0.1-1,0.5-1.9,0.9-2.4c0,0,0,0,0,0c0.5-1.8,0.8-3.7,1.8-5.2
			c0.3-0.5,0.7-0.9,1-1.4c0.7-1.3,1.5-2.5,2.2-3.8c1.3-2,2.5-4.1,4.1-5.9c0.8-1,1.8-1.9,2.7-2.7c1.2-1,2.4-2.1,3.7-3.1
			c1-0.7,2.2-1.4,3.3-2.1c1-0.6,2-1.4,3.1-1.9c2.3-1,4.7-1.9,7-2.9c2.5-1.1,5-1.4,7.7-1.5c3.4-0.1,6.8,0.4,10.1,0.9
			c1.4,0.2,2.9,0.3,4.4,0.6c1.6,0.3,3.2,1,4.6,1.7c3.5,1.6,6.7,3.9,9.7,6.3c1.2,1,2.2,1.8,3,3.2c0.7,1.1,1.5,2.1,2.1,3.2
			c0.6,1.1,1.2,2.2,1.7,3.3c0.6,1.2,1.4,2.3,1.9,3.5c0.4,1,0.5,2.1,0.8,3.2c0.3,1,0.6,2,0.9,2.9c0.6,2.1,2.1,3.8,2.5,6.1
			c0.3,1.7,0,3.4,0,5.1c0,0.7-0.1,1.4-0.1,2c0.1,0.9,0.4,1.7,0.4,2.6c-0.2,2-0.4,4.1-0.8,6.1c-0.2,1.1-0.6,2-1.1,2.9
			c-0.6,1.1-0.9,2.3-1.4,3.4c-0.4,0.9-0.8,1.8-1.3,2.7c-0.5,0.9-0.8,1.9-1.3,2.7c-0.5,0.8-1.2,1.3-1.7,2.1c-0.6,0.8-1.1,1.8-1.9,2.6
			c-0.6,0.6-1.3,0.9-1.9,1.4c-0.7,0.6-1.2,1.5-1.9,2.1c-0.7,0.7-1.4,1.2-2.3,1.6c-0.9,0.4-1.7,0.9-2.4,1.6c-1.4,1.3-2.7,2.2-4.4,3
			c-0.8,0.4-1.5,1.1-2.4,1.4c-0.9,0.4-1.9,0.7-2.9,1c-2.4,0.8-4.8,1.1-7.3,1.4c-3.1,0.4-6,0.4-9.1,0c-2.6-0.3-5.2-0.4-7.8-0.9
			c-2.2-0.4-4.5-1.3-6.5-2.2c-0.9-0.4-1.7-0.9-2.6-1.3c-1-0.5-2.1-1-3-1.7c-3.2-2.1-6.4-4.5-8.6-7.7c-1.6-2.2-3.5-4.1-4.6-6.6
			c-0.5-1.2-1-2.4-1.3-3.7c-0.2-0.7-0.3-1.4-0.4-2.1c-0.1-0.6-0.4-1.2-0.6-1.8C66.4,81.1,66.1,78.5,66.1,76z"/>
	</g>
	<g>
		<g>
			<g>
				<path class="st4" d="M117.6,57.9c-0.1,0.2-0.3,0.3-0.4,0.5c-0.3,0.5-0.6,1.1-0.8,1.8c-0.3,0.7-0.5,1.3-0.5,2.1
					c0,0.6-0.1,1.1-0.1,1.7c-0.1,1.4-0.1,2.8-0.4,4.1c-0.3,1.3-0.8,2.6-1.5,3.6c-0.5,0.8-1.2,1.2-1.9,1.8c-0.5,0.5-1,0.7-1.6,1
					c-0.9,0.4-1.9,0.6-2.7,0.9c-0.3,0.1-0.6,0.1-0.9,0.1c0-1.1,0-2.2,0-3.3c0-1.6,0-3.3-0.1-4.9c-0.1-1.2-0.1-2.5-0.2-3.7
					c-0.1-0.9-0.1-1.8-0.1-2.8c0-0.3,0-0.7,0.1-1c0.2-0.3,0.7-0.5,1-0.6c0.4-0.1,0.7-0.1,1.1-0.2c0.4-0.1,0.9-0.3,1.2-0.3
					c-2.1,0-4.1,0-6.1,0c-1.2,0-2.3,0.3-3.4,0.3c0.7,0,1.5,0,2.1,0.4c0.5,0.3,0.6,0.8,0.7,1.3c0.2,0.7,0.2,1.5,0.2,2.2
					c0,0.9-0.1,1.9-0.1,2.8c0.1,3.2,0.1,6.5-0.1,9.7c-0.2,0-0.5,0-0.7-0.1c-0.9-0.3-1.8-0.5-2.7-0.9c-0.6-0.3-1.1-0.5-1.6-1
					c-0.6-0.6-1.3-1-1.9-1.8c-0.7-1.1-1.2-2.3-1.5-3.6C94.1,66.7,94,65.4,94,64c0-0.6-0.1-1.1-0.1-1.7c0-0.7-0.3-1.4-0.5-2.1
					c-0.2-0.6-0.5-1.2-0.8-1.8c-0.1-0.2-0.2-0.3-0.4-0.5c-0.6-0.8-1.4-0.9-2.3-1.1c0.2,0,0.4,0.3,0.6,0.7c0.3,0.4,0.6,1,0.8,1.5
					c0.5,1.2,0.6,2.5,0.5,3.8c0,0.7-0.1,1.4-0.3,2c-0.2,0.6-0.2,1.3-0.5,1.9c-0.4,1.2-0.3,2.4-0.2,3.8c0.1,1.3,0.5,2.5,1.3,3.5
					c0.3,0.4,0.7,0.7,1,1c0.4,0.4,0.9,0.5,1.5,0.7c1,0.3,2,0.7,2.9,1.2c1.1,0.5,2.2,0.6,3.4,0.5c0.7-0.1,1.4-0.1,2-0.2
					c0,0.5,0,1.1-0.1,1.6c0,0.6,0,1.2,0,1.8c0,0.4-0.1,0.8,0,1.3c0,0.4,0,0.8,0,1.2c0,0.5-0.1,1-0.1,1.5c0,0.4-0.1,1,0,1.4
					c0,0.3,0,0.5,0.1,0.8c0,0.3-0.1,0.7,0,1c0,0.6,0,1.2-0.4,1.7c-0.4,0.4-0.9,1-1.5,0.9c0.9,0.1,1.8,0.1,2.6,0.1c0.4,0,0.9,0,1.3,0
					c0.4,0,0.8,0,1.2,0c0.8-0.1,1.7-0.1,2.5-0.2c0.4,0,0.8,0,1.2-0.1c0.2,0,0.5,0,0.7-0.1c-0.9-0.2-1.9-0.2-2.6-0.9
					c-0.2-0.3-0.3-0.7-0.4-1c-0.1-0.5-0.2-1-0.3-1.5c-0.3-1.6-0.3-3.2-0.2-4.8c0.1-1.6-0.1-3.2-0.2-4.8c0.8,0.1,1.5,0.2,2.3,0.2
					c1.2,0.1,2.3,0,3.4-0.5c1-0.4,1.9-0.9,2.9-1.2c0.5-0.2,1-0.3,1.5-0.7c0.3-0.3,0.7-0.6,1-1c0.8-0.9,1.2-2.1,1.3-3.5
					c0.1-1.3,0.2-2.5-0.2-3.8c-0.2-0.6-0.3-1.3-0.5-1.9c-0.2-0.6-0.3-1.3-0.3-2c-0.1-1.3,0-2.6,0.5-3.8c0.2-0.5,0.5-1,0.8-1.5
					c0.2-0.3,0.5-0.7,0.6-0.7C119,57.1,118.2,57.2,117.6,57.9z"/>
			</g>
		</g>
		<path class="st4" d="M123.2,57.4c-0.4,0.1-1.1,0.8-0.7,1.5c3.3,5.9,6.5,9.6,10.6,15.1c-1.3,2.1-3.5,4.7-4.8,6.6
			c-1.8,2.6-3.4,4.5-5.5,6.9c-0.4,0.5-0.5,1.4-0.2,2c0.1,0.2,0.3,0.3,0.5,0.4c0.6,0.3,1.3,0.2,1.9-0.1c0.6-0.3,1.1-0.8,1.6-1.2
			c3.8-3.6,7.5-8.9,10.2-13.5c0.2-0.3,0.4-0.7,0.4-1c0-0.4-0.3-0.8-0.5-1.1c-1.4-1.9-2.1-3.3-3.6-5.4c-0.8-1.2-3.2-3.9-4.4-5.4
			c-1.6-2.1-1.8-2.4-3.9-4.7C124.3,57,123.6,57.3,123.2,57.4z"/>
		<path class="st4" d="M81.8,57.3c-0.4,0-0.8,0.2-1,0.4c-0.9,0.9-0.4,2.6-0.4,3.6c0.1,1.9,0,3.8-0.1,5.6c-0.1,1.4-0.2,2.8-0.1,4.2
			c0.1,1.4-0.1,2.9-0.1,4.3c0,1.6,0,3.3,0,4.9c0,1.5-0.2,3-0.2,4.5c0,1,0.2,2,0.4,2.9c0.1,0.5,0.2,1.1,0.4,1.6
			c0.2,0.3,0.5,0.5,0.9,0.6c0.3,0,1,0.2,1.3-0.1c0.2-0.2,0.3-0.6,0.4-0.8c0.2-0.4,0.2-0.9,0.3-1.4c0.2-1.2,0.2-2.3,0.1-3.5
			c0-0.7-0.1-1.5-0.2-2.2c-0.1-0.7,0-1.4-0.1-2c0-0.7-0.1-1.4-0.2-2.1c-0.1-0.6,0.1-1.2,0.1-1.8c0.1-0.5,0-1,0-1.5
			c0-0.5,0-0.9,0-1.4c-0.2-2.7,0.2-5.4,0.2-8.2c0-0.9,0.2-1.8,0-2.7c-0.1-0.4,0-0.8,0-1.2c0-0.4,0-0.8,0-1.2c-0.1-0.7,0-1.9-0.7-2.4
			C82.6,57.3,82.2,57.2,81.8,57.3z"/>
	</g>
	<path class="st1" d="M263.6,130.3c0-0.3,0-0.5,0-0.8c0-0.3,0-0.7,0-1c0-0.3,0.1-0.6,0-0.9c-0.1-0.3-0.4-0.4-0.8-1.2
		c-1.3,0-2.7,0.1-4,0.1c0,0,0,0,0,0c0-1.1,0-2.2-0.2-3.2c-0.1-0.3-0.2-0.6-0.2-0.9c-0.1-0.3,0-0.6-0.1-0.9c-0.2,0-0.5,0-0.7,0
		c-0.3,0-0.5,0-0.8,0c-0.3,0-0.7,0-1,0c-0.3,0-0.6-0.1-0.9,0c-0.3,0.1-0.4,0.4-1.2,0.8c0,1.4,0.1,2.7,0.1,4.1c-0.9,0-1.7,0-2.6,0.1
		c-0.3,0-0.7,0-1,0.1c-0.3,0-0.7,0-0.9,0.1c-0.5,0.2-0.4,1.3-0.4,1.8c0.1,0.7,0.1,1.3,0.1,2c0,0.3-0.1,0.5,0.2,0.6
		c0.5,0.2,1,0.2,1.5,0.2c0.4,0,0.9,0,1.3,0c0.6-0.1,1.2,0,1.8,0.1c0,0.9,0,1.7,0.1,2.6c0,0.3,0,0.7,0.1,1c0,0.3,0,0.7,0.1,0.9
		c0.2,0.5,1.3,0.4,1.8,0.4c0.7-0.1,1.3-0.1,2-0.1c0.3,0,0.5,0.1,0.6-0.2c0.2-0.5,0.2-1,0.2-1.5c0-0.4,0-0.9,0-1.3
		c-0.1-0.6,0-1.1,0-1.7c1.1,0,2.2,0,3.2-0.2c0.3-0.1,0.6-0.2,0.9-0.2c0.3-0.1,0.6,0,0.9-0.1C263.7,130.8,263.6,130.5,263.6,130.3z"
		/>
</g>
</svg>
