<?xml version="1.0" encoding="UTF-8" standalone="no"?>
<!-- Created with Inkscape (http://www.inkscape.org/) -->

<svg
   width="64.832695mm"
   height="35.973667mm"
   viewBox="0 0 64.832695 35.973667"
   version="1.1"
   id="svg5"
   inkscape:version="1.1 (c68e22c387, 2021-05-23)"
   sodipodi:docname="diffusion_n_qubits.svg"
   xmlns:inkscape="http://www.inkscape.org/namespaces/inkscape"
   xmlns:sodipodi="http://sodipodi.sourceforge.net/DTD/sodipodi-0.dtd"
   xmlns="http://www.w3.org/2000/svg"
   xmlns:svg="http://www.w3.org/2000/svg">
  <sodipodi:namedview
     id="namedview7"
     pagecolor="#ffffff"
     bordercolor="#999999"
     borderopacity="1"
     inkscape:pageshadow="0"
     inkscape:pageopacity="0"
     inkscape:pagecheckerboard="0"
     inkscape:document-units="mm"
     showgrid="false"
     fit-margin-top="0"
     fit-margin-left="0"
     fit-margin-right="0"
     fit-margin-bottom="0"
     inkscape:zoom="2.8284271"
     inkscape:cx="160.69002"
     inkscape:cy="72.301669"
     inkscape:window-width="1920"
     inkscape:window-height="991"
     inkscape:window-x="-9"
     inkscape:window-y="-9"
     inkscape:window-maximized="1"
     inkscape:current-layer="layer5" />
  <defs
     id="defs2" />
  <g
     inkscape:groupmode="layer"
     id="layer5"
     inkscape:label="boxes"
     style="display:inline"
     transform="translate(-97.472566,-164.06607)">
    <g
       id="g1220"
       transform="matrix(0.38231088,0,0,-0.38231088,103.06789,167.16458)"
       style="paint-order:stroke fill markers">
      <g
         id="g1222"
         style="paint-order:stroke fill markers" />
      <g
         id="g1224"
         transform="translate(70.155,-45.959)"
         style="paint-order:stroke fill markers" />
    </g>
    <g
       id="g1528"
       transform="matrix(0.38231088,0,0,-0.38231088,138.26725,196.88734)">
      <g
         id="g1530" />
      <g
         id="g1532"
         transform="translate(-21.915,31.786)" />
    </g>
    <path
       style="font-variation-settings:normal;display:inline;opacity:1;vector-effect:none;fill:none;fill-opacity:1;stroke:#000000;stroke-width:0.352777;stroke-linecap:round;stroke-linejoin:miter;stroke-miterlimit:4;stroke-dasharray:none;stroke-dashoffset:0;stroke-opacity:1;-inkscape-stroke:none;stop-color:#000000;stop-opacity:1"
       d="m 150.18754,164.30773 c 0.0774,0.42072 0.0786,0.85216 0.0639,1.27882 -0.0261,0.7567 0.0216,1.49309 0.0496,2.24896 0.0154,0.41592 -0.0152,0.84375 -0.0496,1.25677 -0.024,0.28753 0.0331,0.57557 0.0331,0.85989 0,0.17156 -0.0414,-0.18202 -0.0827,-0.34726"
       id="path8942" />
    <path
       style="font-variation-settings:normal;display:inline;opacity:1;vector-effect:none;fill:none;fill-opacity:1;stroke:#000000;stroke-width:0.352777;stroke-linecap:round;stroke-linejoin:miter;stroke-miterlimit:4;stroke-dasharray:none;stroke-dashoffset:0;stroke-opacity:1;-inkscape-stroke:none;stop-color:#000000;stop-opacity:1"
       d="m 150.18754,164.30773 c 0.56958,0.21748 1.13434,0.0893 1.71753,0.0717 0.80022,-0.0242 1.59922,-0.0241 2.39779,-0.0661 0.8204,-0.0432 1.67218,-0.11205 2.48047,0.0496 0.0259,0.005 -0.4438,-0.0473 -0.3638,-0.0496 0.0969,-0.003 0.19379,-0.004 0.29069,-0.006"
       id="path9041" />
    <path
       style="font-variation-settings:normal;display:inline;opacity:1;vector-effect:none;fill:none;fill-opacity:1;stroke:#000000;stroke-width:0.352777;stroke-linecap:round;stroke-linejoin:miter;stroke-miterlimit:4;stroke-dasharray:none;stroke-dashoffset:0;stroke-opacity:1;-inkscape-stroke:none;stop-color:#000000;stop-opacity:1"
       d="m 156.71022,164.30733 c -0.004,0.2229 0.0566,0.44412 0.0566,0.66737 0,0.78213 -0.12861,1.58386 -0.0827,2.36471 0.0416,0.70703 0.11214,1.42623 0.0827,2.13321 -0.008,0.18568 0.0397,0.37737 0.0165,0.56224 -0.0162,0.12983 -0.002,-0.47021 -0.0731,-0.0138"
       id="path9051" />
    <path
       style="font-variation-settings:normal;display:inline;opacity:1;vector-effect:none;fill:none;fill-opacity:1;stroke:#000000;stroke-width:0.352777;stroke-linecap:round;stroke-linejoin:miter;stroke-miterlimit:4;stroke-dasharray:none;stroke-dashoffset:0;stroke-opacity:1;-inkscape-stroke:none;stop-color:#000000;stop-opacity:1"
       d="m 156.71022,170.02106 c -1.47393,-0.12008 -2.94999,-0.003 -4.42481,-0.003 -0.49991,0 -1.00705,0.001 -1.50482,0.0496 -0.0879,0.009 -0.3136,0.0901 -0.26458,0.0165 0.0137,-0.0205 0.0441,-0.022 0.0661,-0.0331"
       id="path9085" />
    <path
       style="font-variation-settings:normal;display:inline;opacity:1;vector-effect:none;fill:none;fill-opacity:1;stroke:#000000;stroke-width:0.352777;stroke-linecap:round;stroke-linejoin:miter;stroke-miterlimit:4;stroke-dasharray:none;stroke-dashoffset:0;stroke-opacity:1;-inkscape-stroke:none;stop-color:#000000;stop-opacity:1"
       d="m 138.3598,164.25843 c -0.0711,1.36694 -0.0657,2.69329 -0.10837,4.11168 -0.008,0.26697 -0.009,0.55104 -0.0267,0.85113 0.0516,0.33496 0.0464,1.07666 0.0427,0.7998"
       id="path4470"
       sodipodi:nodetypes="cscc" />
    <path
       style="font-variation-settings:normal;display:inline;opacity:1;vector-effect:none;fill:none;fill-opacity:1;stroke:#000000;stroke-width:0.352777;stroke-linecap:round;stroke-linejoin:miter;stroke-miterlimit:4;stroke-dasharray:none;stroke-dashoffset:0;stroke-opacity:1;-inkscape-stroke:none;stop-color:#000000;stop-opacity:1"
       d="m 144.76889,164.30773 c -0.0822,1.82593 0.0786,4.15247 0,5.71331"
       id="path4484" />
    <path
       style="font-variation-settings:normal;display:inline;opacity:1;vector-effect:none;fill:none;fill-opacity:1;stroke:#000000;stroke-width:0.352777;stroke-linecap:round;stroke-linejoin:miter;stroke-miterlimit:4;stroke-dasharray:none;stroke-dashoffset:0;stroke-opacity:1;-inkscape-stroke:none;stop-color:#000000;stop-opacity:1"
       d="m 138.26736,170.02104 c 1.83479,-0.0881 3.17619,0.0491 5.01143,-0.008 0,0 1.67444,-0.29462 1.4901,0.008"
       id="path4514"
       sodipodi:nodetypes="ccc" />
    <path
       style="font-variation-settings:normal;display:inline;opacity:1;vector-effect:none;fill:none;fill-opacity:1;stroke:#000000;stroke-width:0.352777;stroke-linecap:round;stroke-linejoin:miter;stroke-miterlimit:4;stroke-dasharray:none;stroke-dashoffset:0;stroke-opacity:1;-inkscape-stroke:none;stop-color:#000000;stop-opacity:1"
       d="m 138.26736,164.30773 c 1.90884,-0.17209 4.4877,0.0607 6.50153,0"
       id="path4998"
       sodipodi:nodetypes="cc" />
    <path
       style="font-variation-settings:normal;display:inline;opacity:1;vector-effect:none;fill:none;fill-opacity:1;stroke:#000000;stroke-width:0.352777;stroke-linecap:round;stroke-linejoin:miter;stroke-miterlimit:4;stroke-dasharray:none;stroke-dashoffset:0;stroke-opacity:1;-inkscape-stroke:none;stop-color:#000000;stop-opacity:1"
       d="m 103.06759,164.30773 c -0.14402,1.55073 -0.0134,3.12207 -0.14324,4.67993 -0.004,0.0482 -0.12379,0.91211 -0.074,0.91211 0.0486,0 0.0235,-0.32296 0.0247,-0.32047 0.0667,0.14612 0.12836,0.29449 0.19254,0.44174"
       id="path3559" />
    <path
       style="font-variation-settings:normal;display:inline;opacity:1;vector-effect:none;fill:none;fill-opacity:1;stroke:#000000;stroke-width:0.352777;stroke-linecap:round;stroke-linejoin:miter;stroke-miterlimit:4;stroke-dasharray:none;stroke-dashoffset:0;stroke-opacity:1;-inkscape-stroke:none;stop-color:#000000;stop-opacity:1"
       d="m 109.59027,170.02104 c -0.26629,0.009 -0.53244,0.0261 -0.79888,0.0266 -0.64948,0.001 -1.32532,-0.0735 -1.97212,-0.12325 -0.72151,-0.0555 -1.46746,0.0739 -2.19397,0.0739 -0.37799,0 -0.75598,0 -1.13396,0 -0.24754,0 -0.51768,0.0247 -0.51768,0.0247 0,-0.009 0.50521,-0.19598 0.0939,-0.002"
       id="path3605" />
    <path
       style="font-variation-settings:normal;display:inline;opacity:1;vector-effect:none;fill:none;fill-opacity:1;stroke:#000000;stroke-width:0.352777;stroke-linecap:round;stroke-linejoin:miter;stroke-miterlimit:4;stroke-dasharray:none;stroke-dashoffset:0;stroke-opacity:1;-inkscape-stroke:none;stop-color:#000000;stop-opacity:1"
       d="m 103.06759,164.30773 c 1.6833,0.0511 3.35832,-0.004 5.03356,-0.004 0.13171,0 1.38047,0.0177 1.38047,-0.0493 0,-0.002 -0.2761,0.0567 -0.54233,0.12325"
       id="path3631" />
    <path
       style="font-variation-settings:normal;display:inline;opacity:1;vector-effect:none;fill:none;fill-opacity:1;stroke:#000000;stroke-width:0.352777;stroke-linecap:round;stroke-linejoin:miter;stroke-miterlimit:4;stroke-dasharray:none;stroke-dashoffset:0;stroke-opacity:1;-inkscape-stroke:none;stop-color:#000000;stop-opacity:1"
       d="m 115.00893,164.30773 c 0.0486,1.49767 -0.0817,2.99909 10e-4,4.49516 0.0193,0.3482 0.14157,0.98723 0.0349,1.30734 -0.004,0.0124 -0.0321,-0.28414 -0.0363,-0.0892"
       id="path3724" />
    <path
       style="font-variation-settings:normal;display:inline;opacity:1;vector-effect:none;fill:none;fill-opacity:1;stroke:#000000;stroke-width:0.352777;stroke-linecap:round;stroke-linejoin:miter;stroke-miterlimit:4;stroke-dasharray:none;stroke-dashoffset:0;stroke-opacity:1;-inkscape-stroke:none;stop-color:#000000;stop-opacity:1"
       d="m 121.38139,164.30773 c 0.0355,0.12133 0.0762,0.24123 0.10635,0.36398 0.0925,0.37613 -7e-5,0.81776 0.0174,1.20275 0.0353,0.77603 0.0408,1.5431 0,2.31834 -0.0223,0.42343 -0.0349,0.86831 -0.0349,1.28991 0,0.12277 -0.0174,0.24467 -0.0174,0.36605 0,0.0581 0.0184,0.22944 0,0.17431 -0.0315,-0.0946 -0.0137,-0.16392 -0.0715,-0.002"
       id="path3734" />
    <path
       style="font-variation-settings:normal;display:inline;opacity:1;vector-effect:none;fill:none;fill-opacity:1;stroke:#000000;stroke-width:0.352777;stroke-linecap:round;stroke-linejoin:miter;stroke-miterlimit:4;stroke-dasharray:none;stroke-dashoffset:0;stroke-opacity:1;-inkscape-stroke:none;stop-color:#000000;stop-opacity:1"
       d="m 115.00893,164.30773 c 2.02651,0.0209 4.6622,0.0913 6.37246,0"
       id="path3888" />
    <path
       style="font-variation-settings:normal;display:inline;opacity:1;vector-effect:none;fill:none;fill-opacity:1;stroke:#000000;stroke-width:0.352777;stroke-linecap:round;stroke-linejoin:miter;stroke-miterlimit:4;stroke-dasharray:none;stroke-dashoffset:0;stroke-opacity:1;-inkscape-stroke:none;stop-color:#000000;stop-opacity:1"
       d="m 115.00893,170.02104 c 0.40918,0.0108 0.81353,-0.0766 1.22165,-0.0851 0.40972,-0.009 0.3561,0.0398 0.7844,0.0697 0.90388,0.0631 1.81625,-0.0174 2.71927,-0.0174 0.38433,0 0.76671,0 1.15045,0 0.01,0 0.56017,0.0573 0.41835,0.10459 -0.0628,0.0209 -0.2477,-0.0168 -0.19174,-0.0523 0.0762,-0.0483 0.18002,-0.013 0.27003,-0.0194"
       id="path3890" />
    <path
       style="font-variation-settings:normal;opacity:1;vector-effect:none;fill:none;fill-opacity:1;stroke:#000000;stroke-width:0.352777;stroke-linecap:round;stroke-linejoin:miter;stroke-miterlimit:4;stroke-dasharray:none;stroke-dashoffset:0;stroke-opacity:1;-inkscape-stroke:none;stop-color:#000000;stop-opacity:1"
       d="m 103.06759,175.3762 c 0.0105,0.0813 0.049,0.27993 0.0384,0.39681 -0.12663,1.39286 -0.0331,2.78519 -0.0331,4.18372 0,0.33428 0.0106,0.64289 0.0106,0.97949 0,0.0447 0.0144,0.16087 -0.016,0.15329"
       id="path17733"
       sodipodi:nodetypes="ccssc" />
    <path
       style="font-variation-settings:normal;opacity:1;vector-effect:none;fill:none;fill-opacity:1;stroke:#000000;stroke-width:0.352777;stroke-linecap:round;stroke-linejoin:miter;stroke-miterlimit:4;stroke-dasharray:none;stroke-dashoffset:0;stroke-opacity:1;-inkscape-stroke:none;stop-color:#000000;stop-opacity:1"
       d="m 103.06759,175.3762 c 2.17114,-0.0787 0.31154,-5.8e-4 1.14634,-0.0497 0.71238,-0.0419 1.42725,0.0458 2.11667,0 0.54941,0.0458 1.04579,0.0491 1.59919,-0.001 0.37477,-0.0341 1.28571,0.0242 1.66048,0.0509"
       id="path17735"
       sodipodi:nodetypes="ccccc" />
    <path
       style="font-variation-settings:normal;opacity:1;vector-effect:none;fill:none;fill-opacity:1;stroke:#000000;stroke-width:0.352777;stroke-linecap:round;stroke-linejoin:miter;stroke-miterlimit:4;stroke-dasharray:none;stroke-dashoffset:0;stroke-opacity:1;-inkscape-stroke:none;stop-color:#000000;stop-opacity:1"
       d="m 103.06759,181.08951 c 0.49136,0.0833 0.54634,0.0608 0.96928,0.0373 0.66102,-0.0367 1.26735,-0.0852 1.92792,-0.0852 0.26878,0 0.91529,0.0231 1.18446,0.0359 0.72004,0.0343 1.09465,-0.0945 1.81064,-0.0294 0.20059,0.0182 0.41001,0.0331 0.61185,0.0331 0.0165,0 0.0496,-0.0165 0.0496,0 0,0.0725 -0.28669,-0.0437 -0.21497,-0.0331 0.0622,0.009 0.1226,0.0276 0.18389,0.0414"
       id="path17739"
       sodipodi:nodetypes="ccsccsscc" />
    <path
       style="font-variation-settings:normal;opacity:1;vector-effect:none;fill:none;fill-opacity:1;stroke:#000000;stroke-width:0.352777;stroke-linecap:round;stroke-linejoin:miter;stroke-miterlimit:4;stroke-dasharray:none;stroke-dashoffset:0;stroke-opacity:1;-inkscape-stroke:none;stop-color:#000000;stop-opacity:1"
       d="m 109.59027,175.3764 c 0.12476,0.71123 -0.0427,1.28972 -0.003,2.08501 0.0326,0.26062 -0.0408,0.89311 -0.0584,1.15761 -0.031,0.46446 -0.0771,0.62509 -0.0351,1.08745 0.0152,0.16687 -0.0234,0.34605 -0.0234,0.5145 0,0.24372 0.0351,0.48653 0.0351,0.72496 0,0.0407 0.0107,-0.0844 0.0351,-0.11693"
       id="path21611"
       sodipodi:nodetypes="ccccssc" />
    <path
       style="font-variation-settings:normal;opacity:1;vector-effect:none;fill:none;fill-opacity:1;stroke:#000000;stroke-width:0.352777;stroke-linecap:round;stroke-linejoin:miter;stroke-miterlimit:4;stroke-dasharray:none;stroke-dashoffset:0;stroke-opacity:1;-inkscape-stroke:none;stop-color:#000000;stop-opacity:1"
       d="m 115.00893,175.3762 c 1.60178,0.1444 3.18799,-0.0846 4.78523,0.009 0.62099,-0.0209 1.80962,-0.15453 1.67496,0.007 l 0.053,0.54174 c -0.0132,0.31864 0.0211,0.61649 0.004,0.94229 -0.0642,1.22021 -0.19821,2.38998 -0.0468,3.60145 0.0242,0.19355 -0.0268,0.55817 0.0311,0.6113"
       id="path22783"
       sodipodi:nodetypes="ccccccc" />
    <path
       style="font-variation-settings:normal;opacity:1;vector-effect:none;fill:none;fill-opacity:1;stroke:#000000;stroke-width:0.352777;stroke-linecap:round;stroke-linejoin:miter;stroke-miterlimit:4;stroke-dasharray:none;stroke-dashoffset:0;stroke-opacity:1;-inkscape-stroke:none;stop-color:#000000;stop-opacity:1"
       d="m 138.26736,175.3762 c -0.16554,1.1846 0.22403,2.95913 0.0282,4.13405 -0.0446,0.26751 -0.0992,0.52232 -0.0992,0.79375 0,0.1716 0.0409,0.39867 0,0.56224 -0.0156,0.0624 -0.16247,0.15391 -0.0992,0.16536 0.059,0.0107 0.11349,0.0386 0.17023,0.0579"
       id="path24576" />
    <path
       style="font-variation-settings:normal;opacity:1;vector-effect:none;fill:none;fill-opacity:1;stroke:#000000;stroke-width:0.352777;stroke-linecap:round;stroke-linejoin:miter;stroke-miterlimit:4;stroke-dasharray:none;stroke-dashoffset:0;stroke-opacity:1;-inkscape-stroke:none;stop-color:#000000;stop-opacity:1"
       d="m 138.26736,175.3762 c 1.60382,0.13354 3.22531,-0.28839 4.82378,-0.16543 0.71413,0.0549 0.91672,0.35887 1.67775,0.16543"
       id="path24586" />
    <path
       style="font-variation-settings:normal;opacity:1;vector-effect:none;fill:none;fill-opacity:1;stroke:#000000;stroke-width:0.352777;stroke-linecap:round;stroke-linejoin:miter;stroke-miterlimit:4;stroke-dasharray:none;stroke-dashoffset:0;stroke-opacity:1;-inkscape-stroke:none;stop-color:#000000;stop-opacity:1"
       d="m 144.76889,175.3762 c 0.0409,1.23762 0.009,2.4726 0.009,3.7041 0,0.33979 0.0977,0.67783 0.0661,1.02526 -0.0193,0.21193 -0.15148,0.48344 -0.13229,0.69453 0.0174,0.19158 0.0673,0.14931 0.0572,0.28942"
       id="path24590" />
    <path
       style="font-variation-settings:normal;opacity:1;vector-effect:none;fill:none;fill-opacity:1;stroke:#000000;stroke-width:0.352777;stroke-linecap:round;stroke-linejoin:miter;stroke-miterlimit:4;stroke-dasharray:none;stroke-dashoffset:0;stroke-opacity:1;-inkscape-stroke:none;stop-color:#000000;stop-opacity:1"
       d="m 138.26736,181.08951 c 1.66692,-0.28984 3.32267,-0.0541 4.98915,-0.0248 0.1509,0.003 1.39759,-0.0914 1.51239,0.0248"
       id="path24592" />
    <path
       style="font-variation-settings:normal;opacity:1;vector-effect:none;fill:none;fill-opacity:1;stroke:#000000;stroke-width:0.352777;stroke-linecap:round;stroke-linejoin:miter;stroke-miterlimit:4;stroke-dasharray:none;stroke-dashoffset:0;stroke-opacity:1;-inkscape-stroke:none;stop-color:#000000;stop-opacity:1"
       d="m 150.18754,175.3762 c 0.0659,1.36329 0.20377,2.74416 0.0804,4.10097 -0.0492,0.54162 0.0515,1.08267 -0.0804,1.61234"
       id="path24600" />
    <path
       style="font-variation-settings:normal;opacity:1;vector-effect:none;fill:none;fill-opacity:1;stroke:#000000;stroke-width:0.352777;stroke-linecap:round;stroke-linejoin:miter;stroke-miterlimit:4;stroke-dasharray:none;stroke-dashoffset:0;stroke-opacity:1;-inkscape-stroke:none;stop-color:#000000;stop-opacity:1"
       d="m 150.18754,175.3762 c 0.37959,-0.0111 0.75921,-0.021 1.13876,-0.0331 0.49633,-0.0159 0.9917,-0.0662 1.48828,-0.0662 1.30287,0 2.62529,0.30198 3.89564,0.0993"
       id="path24604" />
    <path
       style="font-variation-settings:normal;opacity:1;vector-effect:none;fill:none;fill-opacity:1;stroke:#000000;stroke-width:0.352777;stroke-linecap:round;stroke-linejoin:miter;stroke-miterlimit:4;stroke-dasharray:none;stroke-dashoffset:0;stroke-opacity:1;-inkscape-stroke:none;stop-color:#000000;stop-opacity:1"
       d="m 156.71022,175.3762 c 0.0133,0.42992 0.015,0.86037 0.04,1.28978 0.0647,1.10879 0.0293,2.22554 0,3.34036 -2.7e-4,0.0141 -0.1609,1.19509 -0.0661,1.28984 0.0491,0.0491 0.0582,-0.14507 0.0261,-0.20667"
       id="path24606" />
    <path
       style="font-variation-settings:normal;opacity:1;vector-effect:none;fill:none;fill-opacity:1;stroke:#000000;stroke-width:0.352777;stroke-linecap:round;stroke-linejoin:miter;stroke-miterlimit:4;stroke-dasharray:none;stroke-dashoffset:0;stroke-opacity:1;-inkscape-stroke:none;stop-color:#000000;stop-opacity:1"
       d="m 150.18754,181.08951 c 1.94055,0.38107 5.18603,-0.23908 6.52268,0"
       id="path24646" />
    <path
       style="font-variation-settings:normal;opacity:1;vector-effect:none;fill:none;fill-opacity:1;stroke:#000000;stroke-width:0.352777;stroke-linecap:round;stroke-linejoin:miter;stroke-miterlimit:4;stroke-dasharray:none;stroke-dashoffset:0;stroke-opacity:1;-inkscape-stroke:none;stop-color:#000000;stop-opacity:1"
       d="m 103.06759,194.03074 c -0.04,0.70421 -0.002,1.40023 0.0335,2.09865 0.01,0.13472 0.028,0.26002 0.028,0.39687 0,0.42086 -0.0694,0.81413 -0.062,1.25677 0.0379,0.36625 -0.007,0.76694 0.0181,1.12448 0.0189,0.22631 0.0141,0.33118 0.033,0.55811 0.006,0.0679 0.0537,0.3865 0.0537,0.31832 0,-0.12196 0.12085,-0.13705 -0.10454,-0.0399"
       id="path24650"
       sodipodi:nodetypes="ccscccsc" />
    <path
       style="font-variation-settings:normal;opacity:1;vector-effect:none;fill:none;fill-opacity:1;stroke:#000000;stroke-width:0.352777;stroke-linecap:round;stroke-linejoin:miter;stroke-miterlimit:4;stroke-dasharray:none;stroke-dashoffset:0;stroke-opacity:1;-inkscape-stroke:none;stop-color:#000000;stop-opacity:1"
       d="m 103.06759,194.03074 c 1.32512,-0.16454 5.92405,0.0839 6.52268,4e-5"
       id="path24654"
       sodipodi:nodetypes="cc" />
    <path
       style="font-variation-settings:normal;opacity:1;vector-effect:none;fill:none;fill-opacity:1;stroke:#000000;stroke-width:0.352777;stroke-linecap:round;stroke-linejoin:miter;stroke-miterlimit:4;stroke-dasharray:none;stroke-dashoffset:0;stroke-opacity:1;-inkscape-stroke:none;stop-color:#000000;stop-opacity:1"
       d="m 109.59027,194.03074 c -0.13623,0.90735 0.0712,1.82003 0.0145,2.72703 -0.0243,0.38883 -0.0494,0.78339 -0.0331,1.17409 0.0117,0.2821 0.0263,0.53871 0.0496,0.81855 0.0102,0.12266 -0.006,0.8192 -0.0661,0.90951 -0.0261,0.0392 0.0111,-0.1708 0.0166,-0.12402 0.008,0.0692 0.0124,0.13876 0.0185,0.20815"
       id="path24666"
       sodipodi:nodetypes="ccccccc" />
    <path
       style="font-variation-settings:normal;opacity:1;vector-effect:none;fill:none;fill-opacity:1;stroke:#000000;stroke-width:0.352777;stroke-linecap:round;stroke-linejoin:miter;stroke-miterlimit:4;stroke-dasharray:none;stroke-dashoffset:0;stroke-opacity:1;-inkscape-stroke:none;stop-color:#000000;stop-opacity:1"
       d="m 103.06759,199.74405 c 0.20021,-0.0143 0.40045,-0.0282 0.60064,-0.0428 0.27257,-0.0198 0.54896,0.004 0.82268,-0.008 0.50523,-0.022 0.99417,0.0272 1.50069,0.004 0.32853,-0.0149 0.68711,0.008 1.01699,0.008 0.57501,0 1.1097,-0.0538 1.68672,-0.0538 0.24285,0 0.50315,0.0175 0.74414,0.0496 0.0346,0.005 0.0882,0 0.0992,0.0331 0.007,0.0216 -0.038,0.0735 -0.0165,0.0661 0.0279,-0.01 0.0454,-0.0376 0.0681,-0.0564"
       id="path24676"
       sodipodi:nodetypes="ccccsscccc" />
    <path
       style="font-variation-settings:normal;opacity:1;vector-effect:none;fill:none;fill-opacity:1;stroke:#000000;stroke-width:0.352777;stroke-linecap:round;stroke-linejoin:miter;stroke-miterlimit:4;stroke-dasharray:none;stroke-dashoffset:0;stroke-opacity:1;-inkscape-stroke:none;stop-color:#000000;stop-opacity:1"
       d="m 115.00893,194.03074 c -0.16689,1.46471 0.003,2.90506 0.003,4.36414 0,0.30869 -0.0472,1.37701 -0.003,1.34917"
       id="path26810" />
    <path
       style="font-variation-settings:normal;opacity:1;vector-effect:none;fill:none;fill-opacity:1;stroke:#000000;stroke-width:0.352777;stroke-linecap:round;stroke-linejoin:miter;stroke-miterlimit:4;stroke-dasharray:none;stroke-dashoffset:0;stroke-opacity:1;-inkscape-stroke:none;stop-color:#000000;stop-opacity:1"
       d="m 115.00893,194.03074 c 1.39142,0.0453 2.7783,-0.13724 4.17049,-0.0676 0.66943,0.0335 2.19531,0.14385 2.33104,0.0676"
       id="path26816" />
    <path
       style="font-variation-settings:normal;opacity:1;vector-effect:none;fill:none;fill-opacity:1;stroke:#000000;stroke-width:0.352777;stroke-linecap:round;stroke-linejoin:miter;stroke-miterlimit:4;stroke-dasharray:none;stroke-dashoffset:0;stroke-opacity:1;-inkscape-stroke:none;stop-color:#000000;stop-opacity:1"
       d="m 121.51046,194.03074 c -0.0658,0.87269 -0.0159,1.64828 -0.0159,2.51205 0,0.92109 -0.0949,2.98726 0.0159,3.20126"
       id="path26826"
       sodipodi:nodetypes="csc" />
    <path
       style="font-variation-settings:normal;opacity:1;vector-effect:none;fill:none;fill-opacity:1;stroke:#000000;stroke-width:0.352777;stroke-linecap:round;stroke-linejoin:miter;stroke-miterlimit:4;stroke-dasharray:none;stroke-dashoffset:0;stroke-opacity:1;-inkscape-stroke:none;stop-color:#000000;stop-opacity:1"
       d="m 115.00893,199.74405 c 1.25134,-0.004 2.61022,0.0287 3.91803,0.0109 0.50815,-0.007 1.02513,-0.008 1.50856,-0.0181 0.37555,-0.008 0.72429,-0.0357 1.07494,0.007"
       id="path26832"
       sodipodi:nodetypes="cssc" />
    <path
       style="font-variation-settings:normal;opacity:1;vector-effect:none;fill:none;fill-opacity:1;stroke:#000000;stroke-width:0.352777;stroke-linecap:round;stroke-linejoin:miter;stroke-miterlimit:4;stroke-dasharray:none;stroke-dashoffset:0;stroke-opacity:1;-inkscape-stroke:none;stop-color:#000000;stop-opacity:1"
       d="m 126.9291,194.03074 c 0.0836,1.44855 0.0725,2.94511 -0.0437,4.39721 -0.0413,0.51584 -0.10902,0.86575 0.0437,1.3161"
       id="path27234" />
    <path
       style="font-variation-settings:normal;opacity:1;vector-effect:none;fill:none;fill-opacity:1;stroke:#000000;stroke-width:0.352777;stroke-linecap:round;stroke-linejoin:miter;stroke-miterlimit:4;stroke-dasharray:none;stroke-dashoffset:0;stroke-opacity:1;-inkscape-stroke:none;stop-color:#000000;stop-opacity:1"
       d="m 132.84872,194.03074 c -1.94412,-0.26194 -4.232,0.33976 -5.91962,0"
       id="path27268" />
    <path
       style="font-variation-settings:normal;opacity:1;vector-effect:none;fill:none;fill-opacity:1;stroke:#000000;stroke-width:0.352777;stroke-linecap:round;stroke-linejoin:miter;stroke-miterlimit:4;stroke-dasharray:none;stroke-dashoffset:0;stroke-opacity:1;-inkscape-stroke:none;stop-color:#000000;stop-opacity:1"
       d="m 132.84872,194.03074 c -0.091,1.34004 -0.14247,2.68492 -0.14247,4.03341 0,0.39853 0.0331,0.79474 0.0331,1.19063 0,0.15158 0.008,0.28184 0.0331,0.42994 0.004,0.0217 0.005,0.0875 0,0.0661 -0.0588,-0.23518 -0.0294,-0.16169 0,-0.39687 0.003,-0.0219 -0.004,-0.0878 0,-0.0662 0.0296,0.15131 0.0509,0.30413 0.0763,0.4562"
       id="path27278" />
    <path
       style="font-variation-settings:normal;opacity:1;vector-effect:none;fill:none;fill-opacity:1;stroke:#000000;stroke-width:0.352777;stroke-linecap:round;stroke-linejoin:miter;stroke-miterlimit:4;stroke-dasharray:none;stroke-dashoffset:0;stroke-opacity:1;-inkscape-stroke:none;stop-color:#000000;stop-opacity:1"
       d="m 126.9291,199.74405 c 1.85966,0.23339 4.42434,-0.25616 5.91962,0"
       id="path27294" />
    <path
       style="font-variation-settings:normal;opacity:1;vector-effect:none;fill:none;fill-opacity:1;stroke:#000000;stroke-width:0.352777;stroke-linecap:round;stroke-linejoin:miter;stroke-miterlimit:4;stroke-dasharray:none;stroke-dashoffset:0;stroke-opacity:1;-inkscape-stroke:none;stop-color:#000000;stop-opacity:1"
       d="m 138.26736,194.03074 c 0.0275,1.83284 0.14399,4.06003 0,5.71331"
       id="path27312" />
    <path
       style="font-variation-settings:normal;opacity:1;vector-effect:none;fill:none;fill-opacity:1;stroke:#000000;stroke-width:0.352777;stroke-linecap:round;stroke-linejoin:miter;stroke-miterlimit:4;stroke-dasharray:none;stroke-dashoffset:0;stroke-opacity:1;-inkscape-stroke:none;stop-color:#000000;stop-opacity:1"
       d="m 144.76889,194.03074 c -2.14951,-0.31679 -4.41198,0.22544 -6.50153,0"
       id="path27320" />
    <path
       style="font-variation-settings:normal;opacity:1;vector-effect:none;fill:none;fill-opacity:1;stroke:#000000;stroke-width:0.352777;stroke-linecap:round;stroke-linejoin:miter;stroke-miterlimit:4;stroke-dasharray:none;stroke-dashoffset:0;stroke-opacity:1;-inkscape-stroke:none;stop-color:#000000;stop-opacity:1"
       d="m 144.76889,194.03074 c -0.35269,1.89254 0.0358,3.89199 0,5.71331"
       id="path27324" />
    <path
       style="font-variation-settings:normal;opacity:1;vector-effect:none;fill:none;fill-opacity:1;stroke:#000000;stroke-width:0.352777;stroke-linecap:round;stroke-linejoin:miter;stroke-miterlimit:4;stroke-dasharray:none;stroke-dashoffset:0;stroke-opacity:1;-inkscape-stroke:none;stop-color:#000000;stop-opacity:1"
       d="m 144.76889,199.74405 c -1.50364,-0.31879 -3.41218,0.28349 -4.88582,0.073 -0.46931,-0.0671 -1.0651,-0.18516 -1.52136,-0.0331 -0.18941,0.0631 0.39648,-0.0481 0.59532,-0.0661"
       id="path27332" />
    <path
       style="font-variation-settings:normal;opacity:1;vector-effect:none;fill:none;fill-opacity:1;stroke:#000000;stroke-width:0.352777;stroke-linecap:round;stroke-linejoin:miter;stroke-miterlimit:4;stroke-dasharray:none;stroke-dashoffset:0;stroke-opacity:1;-inkscape-stroke:none;stop-color:#000000;stop-opacity:1"
       d="m 150.18754,194.03074 c -0.0283,0.26409 -0.0719,0.52698 -0.0849,0.79227 -0.0281,0.57262 0.1036,1.17897 0.13229,1.75286 0.0566,1.1321 -0.0704,2.93643 -0.0473,3.16818"
       id="path27344" />
    <path
       style="font-variation-settings:normal;opacity:1;vector-effect:none;fill:none;fill-opacity:1;stroke:#000000;stroke-width:0.352777;stroke-linecap:round;stroke-linejoin:miter;stroke-miterlimit:4;stroke-dasharray:none;stroke-dashoffset:0;stroke-opacity:1;-inkscape-stroke:none;stop-color:#000000;stop-opacity:1"
       d="m 156.71022,194.03074 c -2.17924,-0.1771 -4.37727,0.24063 -6.52268,0"
       id="path27360" />
    <path
       style="font-variation-settings:normal;opacity:1;vector-effect:none;fill:none;fill-opacity:1;stroke:#000000;stroke-width:0.352777;stroke-linecap:round;stroke-linejoin:miter;stroke-miterlimit:4;stroke-dasharray:none;stroke-dashoffset:0;stroke-opacity:1;-inkscape-stroke:none;stop-color:#000000;stop-opacity:1"
       d="m 156.71022,194.03074 c -0.0142,0.12077 -0.0325,0.24113 -0.0426,0.36232 -0.0217,0.26082 0.0312,0.51896 0.0496,0.77721 0.049,0.6856 -0.0381,1.38066 0,2.06706 0.0274,0.49269 0.0544,0.9961 0.0165,1.48828 -0.0215,0.27929 -0.0266,0.56656 -0.0661,0.84336 -0.003,0.0215 0.0283,0.23151 0.0165,0.23151 -1.8e-4,0 -0.0683,-0.12467 0.0261,-0.0564"
       id="path27406" />
    <path
       style="font-variation-settings:normal;opacity:1;vector-effect:none;fill:none;fill-opacity:1;stroke:#000000;stroke-width:0.352777;stroke-linecap:round;stroke-linejoin:miter;stroke-miterlimit:4;stroke-dasharray:none;stroke-dashoffset:0;stroke-opacity:1;-inkscape-stroke:none;stop-color:#000000;stop-opacity:1"
       d="m 156.71022,199.74405 c -0.454,-0.0641 -0.91017,-0.0428 -1.36556,-0.0428 -0.86141,0 -1.71818,0.0606 -2.57969,0.0827 -0.30971,0.008 -0.61684,-0.008 -0.92604,0.0165 -0.47275,0.0378 -0.94209,0.0331 -1.4056,0.0331 -0.0829,0 0.16518,0.0165 0.24805,0.0165"
       id="path27412" />
    <path
       style="font-variation-settings:normal;opacity:1;vector-effect:none;fill:none;fill-opacity:1;stroke:#000000;stroke-width:0.352777;stroke-linecap:round;stroke-linejoin:miter;stroke-miterlimit:4;stroke-dasharray:none;stroke-dashoffset:0;stroke-opacity:1;-inkscape-stroke:none;stop-color:#000000;stop-opacity:1"
       d="m 129.88891,178.99462 c -0.0314,2.82362 -0.10612,5.62166 0.082,8.44296 0.038,0.57022 -0.0194,1.18714 -0.0719,1.76364 -0.11181,1.22991 0.0695,2.45155 0.0695,3.695 0,0.0902 -0.0279,0.93545 0.0468,0.93545"
       id="path27571"
       sodipodi:nodetypes="cccsc" />
    <path
       style="font-variation-settings:normal;opacity:1;vector-effect:none;fill:none;fill-opacity:1;stroke:#000000;stroke-width:0.352777;stroke-linecap:round;stroke-linejoin:miter;stroke-miterlimit:4;stroke-dasharray:none;stroke-dashoffset:0;stroke-opacity:1;-inkscape-stroke:none;stop-color:#000000;stop-opacity:1"
       d="m 115.00893,175.3762 c 0.0369,0.19624 -0.0631,0.37553 -0.0777,0.56511 -0.0392,0.50952 0.12258,1.02092 0.0935,1.54348 -0.0613,1.10392 -0.11368,2.96672 -0.0159,3.60472"
       id="path29918" />
    <path
       style="font-variation-settings:normal;opacity:1;vector-effect:none;fill:none;fill-opacity:1;stroke:#000000;stroke-width:0.352777;stroke-linecap:round;stroke-linejoin:miter;stroke-miterlimit:4;stroke-dasharray:none;stroke-dashoffset:0;stroke-opacity:1;-inkscape-stroke:none;stop-color:#000000;stop-opacity:1"
       d="m 121.51046,181.08951 c -1.88765,0.13598 -3.78643,-0.2381 -5.66713,-0.05 -0.0459,0.005 -0.58934,0.0889 -0.63143,0.0468 -0.0281,-0.0281 0.11405,-0.12883 0.0234,-0.11693 -0.0847,0.0111 -0.15091,0.0801 -0.22636,0.12019"
       id="path29928" />
    <path
       style="font-variation-settings:normal;opacity:1;vector-effect:none;fill:none;fill-opacity:1;stroke:#000000;stroke-width:0.352777;stroke-linecap:round;stroke-linejoin:miter;stroke-miterlimit:4;stroke-dasharray:none;stroke-dashoffset:0;stroke-opacity:1;-inkscape-stroke:none;stop-color:#000000;stop-opacity:1"
       d="m 117.28456,176.99369 c 0.59428,0.58474 0.93939,1.31621 1.35639,2.0112 0.0625,0.10417 0.24594,0.36365 0.25724,0.39756"
       id="path29946" />
    <path
       style="font-variation-settings:normal;opacity:1;vector-effect:none;fill:none;fill-opacity:1;stroke:#000000;stroke-width:0.352777;stroke-linecap:round;stroke-linejoin:miter;stroke-miterlimit:4;stroke-dasharray:none;stroke-dashoffset:0;stroke-opacity:1;-inkscape-stroke:none;stop-color:#000000;stop-opacity:1"
       d="m 119.0619,176.92353 c -0.37083,0.51183 -1.14305,2.28308 -1.73057,2.47892"
       id="path29960" />
    <path
       style="font-variation-settings:normal;opacity:1;vector-effect:none;fill:none;fill-opacity:1;stroke:#000000;stroke-width:0.352777;stroke-linecap:round;stroke-linejoin:miter;stroke-miterlimit:4;stroke-dasharray:none;stroke-dashoffset:0;stroke-opacity:1;-inkscape-stroke:none;stop-color:#000000;stop-opacity:1"
       d="m 105.52031,195.51754 c 0.12802,0.84366 -0.0564,1.68002 0.0331,2.53008"
       id="path30164" />
    <path
       style="font-variation-settings:normal;opacity:1;vector-effect:none;fill:none;fill-opacity:1;stroke:#000000;stroke-width:0.352777;stroke-linecap:round;stroke-linejoin:miter;stroke-miterlimit:4;stroke-dasharray:none;stroke-dashoffset:0;stroke-opacity:1;-inkscape-stroke:none;stop-color:#000000;stop-opacity:1"
       d="m 107.42201,195.69944 c 0.0117,0.78305 0.0165,1.56452 0.0165,2.34818"
       id="path30182" />
    <path
       style="font-variation-settings:normal;opacity:1;vector-effect:none;fill:none;fill-opacity:1;stroke:#000000;stroke-width:0.352777;stroke-linecap:round;stroke-linejoin:miter;stroke-miterlimit:4;stroke-dasharray:none;stroke-dashoffset:0;stroke-opacity:1;-inkscape-stroke:none;stop-color:#000000;stop-opacity:1"
       d="m 105.55339,196.87353 c 0.51814,0 1.03628,0 1.55442,0"
       id="path30186" />
    <path
       style="font-variation-settings:normal;opacity:1;vector-effect:none;fill:none;fill-opacity:1;stroke:#000000;stroke-width:0.352777;stroke-linecap:round;stroke-linejoin:miter;stroke-miterlimit:4;stroke-dasharray:none;stroke-dashoffset:0;stroke-opacity:1;-inkscape-stroke:none;stop-color:#000000;stop-opacity:1"
       d="m 117.21159,195.48446 c 0.60797,0.82901 1.1391,1.70135 1.86862,2.43086"
       id="path30208" />
    <path
       style="font-variation-settings:normal;opacity:1;vector-effect:none;fill:none;fill-opacity:1;stroke:#000000;stroke-width:0.352777;stroke-linecap:round;stroke-linejoin:miter;stroke-miterlimit:4;stroke-dasharray:none;stroke-dashoffset:0;stroke-opacity:1;-inkscape-stroke:none;stop-color:#000000;stop-opacity:1"
       d="m 119.19596,195.43486 c -0.42098,0.48005 -0.70385,1.05724 -1.07487,1.57096 -0.15141,0.20964 -0.34421,0.38647 -0.49609,0.59531 -0.0813,0.11184 -0.19952,0.33954 -0.28112,0.38034"
       id="path30236" />
    <ellipse
       style="fill:#000000;stroke:#ffffff;stroke-width:0.352777;stroke-linecap:round;stroke-miterlimit:4;stroke-dasharray:none;paint-order:stroke fill markers"
       id="path30368"
       cx="130.04181"
       cy="178.2142"
       rx="0.60978192"
       ry="0.53536785" />
    <path
       style="fill:#d5f0fd;fill-opacity:1;stroke:none;stroke-width:0.0589256;stroke-linecap:round;stroke-miterlimit:4;stroke-dasharray:none;paint-order:stroke fill markers"
       d="m 69.66751,133.9415 -3.407555,-0.0116 0.0015,-4.05454 c 8.18e-4,-2.23 -0.01814,-4.41252 -0.04213,-4.85004 -0.03482,-0.63514 -0.03197,-0.81955 0.01417,-0.91484 0.07905,-0.16328 0.07214,-0.47171 -0.01417,-0.63196 -0.09159,-0.17006 -0.134079,-1.12678 -0.174662,-3.93328 -0.01942,-1.34289 -0.01216,-2.49111 0.02054,-3.24827 0.04996,-1.15683 0.124923,-2.32368 0.160533,-2.49865 0.01752,-0.0861 0.0432,-0.0893 0.583317,-0.0725 0.802252,0.0249 3.742598,-0.0623 6.69757,-0.19859 2.017607,-0.0931 3.034765,-0.11736 5.026446,-0.11999 2.310326,-0.003 2.677008,0.007 4.905553,0.1394 3.078711,0.18239 4.154846,0.23033 5.182551,0.23085 l 0.829426,4.2e-4 -0.03162,0.49718 c -0.03706,0.58278 -0.04268,2.89238 -0.01809,7.43567 0.01023,1.8903 -0.0043,4.09085 -0.03439,5.21467 -0.05676,2.11865 -0.0725,6.22672 -0.02546,6.64249 l 0.02937,0.25962 -1.894188,0.0312 c -6.733847,0.11095 -7.912383,0.11643 -17.808695,0.0828 z m 5.039279,-5.37635 c 0.260632,-0.1089 0.512796,-0.38479 0.935904,-1.02396 0.493378,-0.74532 0.629547,-0.92207 1.327682,-1.72331 0.295103,-0.33868 0.58347,-0.67161 0.640815,-0.73985 l 0.104265,-0.12406 0.447537,0.566 c 0.892525,1.12879 2.247056,2.62491 2.503029,2.76467 0.310813,0.1697 0.733454,0.0578 0.916662,-0.24267 0.09802,-0.16075 0.118946,-0.51214 0.03937,-0.66084 -0.02683,-0.0501 -0.267628,-0.32228 -0.535103,-0.60477 -0.857718,-0.90585 -2.509704,-2.88621 -2.509704,-3.00858 0,-0.0206 0.156133,-0.28297 0.346963,-0.58315 0.190829,-0.30019 0.630574,-0.99326 0.97721,-1.54017 0.738837,-1.16569 1.205457,-1.83357 1.728819,-2.47448 0.461894,-0.56564 0.482542,-0.60292 0.482542,-0.87111 0,-0.61332 -0.707712,-0.89501 -1.164077,-0.46334 -0.444798,0.42073 -1.376091,1.72532 -2.47973,3.4737 l -0.793283,1.25671 -0.182335,-0.25082 c -0.100285,-0.13795 -0.517321,-0.72811 -0.926747,-1.31147 -1.895888,-2.70132 -2.143123,-3.03133 -2.336916,-3.11933 -0.239372,-0.1087 -0.365495,-0.10563 -0.602867,0.0147 -0.24917,0.12629 -0.363079,0.31929 -0.363079,0.61516 0,0.19794 0.02581,0.26147 0.215022,0.52926 0.118262,0.16737 0.652544,0.92365 1.187294,1.68062 0.534749,0.75696 1.243232,1.75599 1.574405,2.22006 l 0.602135,0.84377 -0.130672,0.18244 c -0.07187,0.10034 -0.423979,0.52008 -0.782465,0.93274 -0.787806,0.90688 -0.955424,1.12288 -1.382481,1.78156 -0.181953,0.28064 -0.422264,0.6004 -0.534023,0.71058 -0.225554,0.22236 -0.274161,0.34963 -0.242118,0.63391 0.05194,0.46085 0.50074,0.71788 0.935951,0.53604 z"
       id="path40212"
       transform="matrix(0.26458333,0,0,0.26458333,97.648955,164.13134)" />
    <path
       style="fill:#d5f0fd;fill-opacity:1;stroke:none;stroke-width:0.166667;stroke-linecap:round;stroke-miterlimit:4;stroke-dasharray:none;paint-order:stroke fill markers"
       d="m 160.375,134.23885 c -1.37484,-0.25141 -3.39611,-0.44929 -4.55155,-0.44558 l -1.38595,0.004 v -7.33636 c 0,-4.03499 -0.0449,-8.5176 -0.0998,-9.96135 l -0.0998,-2.625 3.84977,-0.003 c 2.45177,-0.002 5.12074,-0.09 7.34976,-0.2421 3.67126,-0.25057 9.4436,-0.30773 10.9375,-0.10829 0.70228,0.0937 0.80943,0.14205 0.78985,0.35604 -0.0125,0.13616 -0.0927,0.95069 -0.17824,1.81007 -0.2084,2.09282 -0.181,6.85685 0.0615,10.6875 0.10879,1.71875 0.235,4.05312 0.28046,5.1875 l 0.0827,2.0625 -3.42435,0.005 c -2.69602,0.004 -3.96937,0.0651 -5.98685,0.28813 -2.37442,0.26249 -6.90228,0.45304 -7.625,0.32088 z m 2.325,-5.22635 c 0.26724,-0.26724 0.425,-0.54668 0.425,-0.75279 0,-0.20563 0.17957,-0.52475 0.4818,-0.85625 0.26499,-0.29065 0.83338,-1.00659 1.26308,-1.59096 0.4297,-0.58438 0.79872,-1.08114 0.82003,-1.10392 0.0213,-0.0228 0.33439,0.3991 0.69572,0.9375 0.36133,0.53841 0.8372,1.19174 1.05749,1.45186 0.22029,0.26011 0.43298,0.67294 0.47265,0.9174 0.0919,0.56653 0.28585,0.79716 0.67025,0.79716 0.53557,0 0.75438,-0.20858 0.84371,-0.80426 0.094,-0.62656 -0.0187,-0.92943 -0.56116,-1.50824 -0.48833,-0.52107 -2.11857,-2.94915 -2.11857,-3.15538 0,-0.19438 1.59677,-2.35097 2.58318,-3.48883 0.48028,-0.55403 0.66682,-0.87206 0.66682,-1.13688 0,-0.48295 -0.38734,-0.83679 -0.80206,-0.7327 -0.31018,0.0778 -1.41708,1.31845 -2.63324,2.95129 -0.33283,0.44687 -0.64353,0.85717 -0.69044,0.91177 -0.0469,0.0546 -0.48235,-0.39796 -0.96763,-1.00569 -1.35461,-1.69639 -2.99736,-3.00453 -3.58717,-2.8565 -0.37925,0.0952 -0.61606,0.49773 -0.51939,0.88289 0.0402,0.16012 0.44526,0.55702 0.92791,0.90917 0.85179,0.62148 2.0007,1.84978 2.75302,2.94325 l 0.39386,0.57246 -0.95819,1.29007 c -0.52701,0.70954 -1.22205,1.59945 -1.54455,1.97758 -1.29391,1.5171 -1.48084,2.02764 -0.9403,2.56818 0.41777,0.41777 0.76454,0.38546 1.26818,-0.11818 z"
       id="path47082"
       transform="matrix(0.26458333,0,0,0.26458333,97.648955,164.13134)" />
    <path
       style="fill:#d5f0fd;fill-opacity:1;stroke:none;stroke-width:0.333333;stroke-linecap:round;stroke-miterlimit:4;stroke-dasharray:none;paint-order:stroke fill markers"
       d="m 66.801439,63 -0.57356,-0.25 0.0042,-8.25 c 0.0023,-4.5375 -0.0025,-8.849623 -0.01061,-9.582496 -0.0081,-0.732873 0.0231,-1.368074 0.0694,-1.411558 0.04629,-0.04348 5.225497,-0.13802 11.50934,-0.210081 l 11.425169,-0.131021 0.174789,1.165578 c 0.09613,0.641067 0.03187,3.781511 -0.142815,6.978764 -0.188081,3.442492 -0.244067,7.088139 -0.137285,8.9395 L 89.300386,63.375 86.837713,63.3798 C 85.483203,63.382396 81.61875,63.253973 78.25,63.094386 74.340626,62.909188 71.26588,62.884854 69.75,63.027114 68.215664,63.171106 67.17198,63.161509 66.801439,63 Z m 9.740381,-6.10265 1.326879,-1.477649 0.934297,1.477649 c 0.737763,1.16682 1.067104,1.47765 1.56565,1.47765 0.939065,0 0.803359,-0.814486 -0.479019,-2.875 l -1.089126,-1.75 1.015378,-1.875 c 0.558458,-1.03125 1.230219,-2.185026 1.492802,-2.563945 0.616031,-0.888962 0.487713,-1.54051 -0.322044,-1.635213 -0.561126,-0.06563 -0.775009,0.176902 -1.858788,2.107714 l -1.2247,2.181872 -0.514075,-0.714369 C 75.720391,48.93222 74.816946,48 74.238368,48 c -0.99453,0 -0.856205,0.734574 0.456283,2.423076 1.993199,2.564231 2.218017,3.051256 1.790635,3.87907 -0.198157,0.38382 -0.949714,1.282398 -1.670125,1.996841 -1.427864,1.416035 -1.525126,2.076013 -0.305943,2.076013 0.545037,0 1.00784,-0.336446 2.032602,-1.47765 z"
       id="path48198"
       transform="matrix(0.26458333,0,0,0.26458333,97.648955,164.13134)" />
    <path
       style="fill:#d5f0fd;fill-opacity:1;stroke:none;stroke-width:0.333333;stroke-linecap:round;stroke-miterlimit:4;stroke-dasharray:none;paint-order:stroke fill markers"
       d="m 73.25,21.310658 c -1.30625,-0.104139 -3.286638,-0.123538 -4.400861,-0.04311 l -2.025862,0.146232 -0.18087,-1.20689 C 66.357021,18.302604 66.246473,11.440334 66.417569,6.25 L 66.57415,1.5 77.849575,1.5723975 89.125,1.6447949 89.344122,2.4473975 C 89.53283,3.1385971 89.381678,21.076655 89.185493,21.27284 89.010045,21.448287 75.382021,21.480629 73.25,21.310658 Z m 8.104553,-5.087405 C 82.159226,15.914471 81.845028,15.175702 79.60034,12.0986 L 78.760415,10.9472 79.903147,9.1611002 C 80.531649,8.178745 81.155528,7.375 81.289544,7.375 c 0.134017,0 0.208069,-0.309375 0.164561,-0.6875 C 81.274049,5.1226497 79.833998,5.93981 78.426189,8.405698 78.123035,8.936696 77.797801,9.3720155 77.703447,9.3730745 77.609093,9.3741335 76.835662,8.475 75.98471,7.375 c -0.850951,-1.1 -1.731066,-2 -1.95581,-2 -0.224745,0 -0.557416,0.238249 -0.739269,0.529442 -0.294672,0.471845 -0.251287,0.6146297 0.398798,1.3125 0.401191,0.430682 1.264111,1.4777147 1.9176,2.3267397 l 1.18816,1.5436813 -1.001348,1.47455 c -0.550741,0.811003 -1.245403,1.636597 -1.543692,1.834653 -0.48469,0.321822 -0.509206,0.432835 -0.230618,1.044269 0.171449,0.376291 0.445991,0.684165 0.610092,0.684165 0.433964,0 1.393036,-0.952458 2.328559,-2.3125 0.449261,-0.653125 0.857131,-1.1875 0.906377,-1.1875 0.162986,0 1.886441,2.496617 1.886441,2.732721 0,0.289928 0.713145,1.017279 0.99741,1.017279 0.116433,0 0.389647,-0.06829 0.607143,-0.151747 z"
       id="path48237"
       transform="matrix(0.26458333,0,0,0.26458333,97.648955,164.13134)" />
    <path
       style="fill:#d5f0fd;fill-opacity:1;stroke:none;stroke-width:0.333333;stroke-linecap:round;stroke-miterlimit:4;stroke-dasharray:none;paint-order:stroke fill markers"
       d="m 154.35567,11.439832 c 0.0997,-5.4643423 0.23877,-9.9924672 0.30897,-10.0624998 0.11716,-0.1168765 22.38121,-0.039812 22.4989,0.077877 0.11434,0.1143382 0.17253,19.1670498 0.0589,19.2806918 -0.38911,0.389115 -5.72975,0.635248 -13.82276,0.637048 l -9.22533,0.0021 z m 9.50478,3.559546 c 0.558,-0.687158 1.249,-1.57362 1.53554,-1.969915 l 0.521,-0.720538 1.33461,1.794777 c 1.00849,1.356217 1.46152,1.776636 1.854,1.720537 0.91061,-0.130156 0.73319,-1.008903 -0.55039,-2.726032 -0.66902,-0.894994 -1.29724,-1.758053 -1.39603,-1.917908 -0.10467,-0.169359 0.50415,-1.15438 1.45896,-2.360472 1.7036,-2.1519345 1.96519,-3.0045375 0.96553,-3.146941 -0.42078,-0.059941 -0.88933,0.3718237 -2.10393,1.938761 -1.81856,2.3461075 -1.71091,2.3620847 -3.64041,-0.5402968 -1.14026,-1.7151962 -1.92597,-2.1629442 -2.26145,-1.2887092 -0.1953,0.5089417 0.32937,1.493993 1.94364,3.6491142 l 1.2597,1.6817548 -1.51561,1.990986 c -1.41173,1.854518 -1.76888,2.683904 -1.3403,3.11248 0.36331,0.363315 0.95232,-0.0073 1.93514,-1.217598 z"
       id="path48276"
       transform="matrix(0.26458333,0,0,0.26458333,97.648955,164.13134)" />
    <path
       style="fill:#d5f0fd;fill-opacity:1;stroke:none;stroke-width:0.333333;stroke-linecap:round;stroke-miterlimit:4;stroke-dasharray:none;paint-order:stroke fill markers"
       d="m 154.15524,60.75 c 0.12087,-1.2375 0.18687,-5.653125 0.14667,-9.8125 l -0.0731,-7.5625 2.07309,-0.0031 c 1.1402,-0.0017 3.92934,-0.169058 6.19809,-0.371912 5.69751,-0.509426 8.68106,-0.477177 11.56472,0.125004 1.3169,0.275002 2.57232,0.431716 2.78982,0.348252 0.3477,-0.133425 0.39454,0.221305 0.38785,2.937497 -0.004,1.699086 0.0446,5.616002 0.10848,8.704257 0.0751,3.632479 0.0183,6.038448 -0.16074,6.814288 l -0.27682,1.19929 -11.48891,-0.06429 L 153.93549,63 Z m 9.21348,-2.752215 c 0.31974,-0.621057 1.83384,-2.852835 2.32218,-3.422898 0.33498,-0.391038 0.44111,-0.330923 1.32404,0.75 2.22906,2.728925 2.90447,3.384534 3.32176,3.224403 0.71418,-0.274056 0.48024,-1.360962 -0.53643,-2.492376 -0.52236,-0.581303 -1.34944,-1.550232 -1.83797,-2.153176 l -0.88823,-1.096261 1.46296,-1.941503 c 1.60476,-2.129679 1.91051,-3.240974 0.89169,-3.240974 -0.42532,0 -0.91563,0.481486 -1.91904,1.884529 -1.05759,1.478794 -1.40907,1.815197 -1.63249,1.5625 -0.1566,-0.177116 -0.88239,-1.028881 -1.61287,-1.892812 -1.45236,-1.717687 -2.02252,-2.131314 -2.62121,-1.901573 -0.75606,0.290129 -0.38068,1.174734 1.21736,2.868737 0.88575,0.938949 1.71667,1.908879 1.84647,2.1554 0.18662,0.35443 -0.0981,0.918616 -1.36047,2.696257 -1.63427,2.301268 -1.82608,2.797352 -1.28917,3.334259 0.41731,0.417309 1.00101,0.268422 1.31142,-0.334512 z"
       id="path48315"
       transform="matrix(0.26458333,0,0,0.26458333,97.648955,164.13134)" />
    <path
       style="fill:#f0eeef;fill-opacity:1;stroke:none;stroke-width:0.333333;stroke-linecap:round;stroke-miterlimit:4;stroke-dasharray:none;paint-order:stroke fill markers"
       d="m 199.74322,20.975492 c -0.004,-0.399021 -0.0556,-4.842847 -0.11534,-9.875169 l -0.10857,-9.1496771 4.17785,-0.1593043 c 9.24958,-0.3526935 18.18173,-0.4491057 18.5416,-0.200135 0.29717,0.20559 0.34398,0.8610664 0.25571,3.5802294 -0.16166,4.979603 -0.14186,7.398245 0.0984,12.016064 l 0.21784,4.1875 h -8.86645 c -4.87655,0 -10.0652,0.07335 -11.53034,0.162992 L 199.75,21.700983 Z m 15.9493,-9.555082 0.0675,-5.3295903 -0.69252,0.07959 c -0.68295,0.078491 -0.69353,0.106355 -0.76554,2.0170903 l -0.073,1.9375 h -2.76786 -2.76786 l 0.0909,-2.1875 c 0.0868,-2.090675 0.0667,-2.190938 -0.45472,-2.265171 -0.86735,-0.1234798 -1.07577,0.6605262 -1.09571,4.1217105 -0.0102,1.7632785 -0.13379,3.7465095 -0.27474,4.4071805 -0.36263,1.699725 -0.13361,2.42378 0.76664,2.42378 0.8743,0 1.01622,-0.408322 1.02099,-2.9375 l 0.003,-1.8125 h 2.75 2.75 v 2.333333 c 0,1.283334 0.0797,2.413079 0.17721,2.510546 0.0975,0.09747 0.40684,0.144342 0.6875,0.104167 0.49303,-0.07058 0.51257,-0.253357 0.57781,-5.402636 z"
       id="path48354"
       transform="matrix(0.26458333,0,0,0.26458333,97.648955,164.13134)" />
    <path
       style="fill:#f0eeef;fill-opacity:1;stroke:none;stroke-width:0.333333;stroke-linecap:round;stroke-miterlimit:4;stroke-dasharray:none;paint-order:stroke fill markers"
       d="m 201.875,63.715597 c -2.51913,-0.193981 -2.2515,1.048237 -2.23898,-10.392193 l 0.011,-10.073404 4.61399,-0.196068 c 3.45104,-0.14665 5.98391,-0.09479 10.04922,0.205771 2.98939,0.221011 6.03813,0.326514 6.77498,0.23445 l 1.33973,-0.167388 0.15734,4.461617 c 0.1778,5.041846 0.0718,12.367208 -0.20476,14.149118 l -0.1843,1.1875 -2.53412,0.0022 c -1.39376,0.0012 -4.05286,0.106158 -5.90911,0.233224 -4.38981,0.300497 -10.29242,0.477042 -11.875,0.355178 z m 6.97851,-5.903097 c 0.0694,-0.446875 0.19594,-1.571875 0.28123,-2.5 l 0.15506,-1.6875 h 2.2301 2.2301 v 2.007846 c 0,1.592403 0.0811,2.038955 0.3918,2.158196 0.74786,0.286978 0.98232,-0.423891 1.2332,-3.739013 0.33514,-4.428433 0.22743,-6.104618 -0.41433,-6.448079 -0.89642,-0.479748 -1.14041,0.05638 -1.01462,2.229437 l 0.11378,1.96545 -1.18981,0.163081 c -0.65439,0.0897 -1.72301,0.163082 -2.3747,0.163082 h -1.18489 l -0.21771,-2.1875 C 208.88285,47.828891 208.85246,47.75 208.25,47.75 h -0.625 l -0.13309,4.625 c -0.0732,2.54375 -0.22585,4.821875 -0.33924,5.0625 -0.32959,0.699425 0.0108,1.1875 0.82815,1.1875 0.64968,0 0.76289,-0.105399 0.87269,-0.8125 z"
       id="path48430"
       transform="matrix(0.26458333,0,0,0.26458333,97.648955,164.13134)" />
    <path
       style="fill:#f0eeef;fill-opacity:1;stroke:none;stroke-width:0.333333;stroke-linecap:round;stroke-miterlimit:4;stroke-dasharray:none;paint-order:stroke fill markers"
       d="m 199.46331,128.3494 c 0.0526,-3.48372 -0.0345,-7.04095 -0.21522,-8.79563 -0.16693,-1.62043 -0.22918,-3.54122 -0.13832,-4.26844 l 0.1652,-1.3222 4.42501,0.0184 c 2.43376,0.0101 7.58509,-0.0829 11.44741,-0.20679 l 7.02238,-0.22523 0.16512,2.32613 c 0.20034,2.82251 0.21442,16.41524 0.0178,17.14777 -0.13682,0.50964 -0.3196,0.52783 -6.93408,0.68988 -3.73646,0.0915 -8.87481,0.23822 -11.41856,0.32596 l -4.625,0.15952 z m 15.90514,0.53619 c 0.0814,-0.13167 0.23807,-1.34105 0.34819,-2.6875 0.11013,-1.34645 0.23873,-2.56059 0.28578,-2.69809 0.093,-0.27179 -0.20459,-3.90044 -0.3947,-4.8125 -0.12837,-0.61584 -0.94583,-0.77657 -1.27146,-0.25 -0.10629,0.17187 -0.15945,1.12354 -0.11812,2.11481 0.0878,2.10606 0.26451,1.99075 -3.28064,2.14059 l -2.1875,0.0925 v -2.42844 c 0,-1.92799 -0.0773,-2.45809 -0.375,-2.57234 -1.18479,-0.45464 -1.33426,0.43761 -1.125,6.71541 0.12405,3.72145 0.12954,3.75064 0.72173,3.83437 0.83406,0.11793 0.9762,-0.25401 0.83756,-2.19173 l -0.12097,-1.69069 1.34334,-0.1613 c 0.73884,-0.0887 2.00107,-0.16228 2.80497,-0.16348 l 1.46163,-0.002 -0.13124,1.1875 c -0.0722,0.65312 -0.20641,1.54021 -0.29829,1.97129 -0.0945,0.44333 -0.0441,1.01345 0.1159,1.3125 0.29047,0.54274 1.12001,0.71616 1.38382,0.2893 z"
       id="path48469"
       transform="matrix(0.26458333,0,0,0.26458333,97.648955,164.13134)" />
    <path
       style="fill:#f0eeef;fill-opacity:1;stroke:none;stroke-width:0.333333;stroke-linecap:round;stroke-miterlimit:4;stroke-dasharray:none;paint-order:stroke fill markers"
       d="M 39.645637,21.4375 C 39.542405,21.334375 35.300931,21.25 30.22014,21.25 c -10.144775,0 -9.877636,0.04174 -9.598853,-1.5 0.07459,-0.4125 0.193675,-4.125 0.264633,-8.25 0.07096,-4.125 0.186565,-8.0625 0.256903,-8.75 L 21.270712,1.5 32.852421,1.4491426 44.43413,1.3982852 44.558553,6.0741425 c 0.07266,2.7306617 0.02714,4.7992115 -0.109414,4.9723765 -0.146767,0.18611 -0.135343,0.480555 0.03068,0.790772 0.176088,0.329025 0.210461,2.047653 0.10282,5.140981 L 44.420944,21.625 h -2.293806 c -1.261592,0 -2.378268,-0.08438 -2.481501,-0.1875 z m -2.22319,-4.625 c 0.138371,-0.185053 0.176345,-2.504587 0.09311,-5.6875 L 37.375,5.75 H 36.75 c -0.615878,0 -0.626044,0.03336 -0.696527,2.2857027 -0.08412,2.6880193 0.05719,2.5805713 -3.40065,2.5858833 L 30.430647,10.625 30.558551,8.3817627 C 30.676993,6.3044582 30.649757,6.126878 30.19035,5.981068 c -1.0258,-0.3255763 -1.15824,0.2430762 -1.215099,5.217204 -0.02997,2.622174 0.04839,4.800366 0.177333,4.929312 0.127072,0.127072 0.482224,0.165353 0.789228,0.08507 C 30.459848,16.077184 30.5,15.924917 30.5,14.095842 V 12.125 H 33.25 36 v 2.237577 c 0,1.867285 0.0724,2.279748 0.4375,2.492398 0.575949,0.33546 0.706561,0.329827 0.984947,-0.04247 z"
       id="path48508"
       transform="matrix(0.26458333,0,0,0.26458333,97.648955,164.13134)" />
    <path
       style="fill:#f0eeef;fill-opacity:1;stroke:none;stroke-width:0.333333;stroke-linecap:round;stroke-miterlimit:4;stroke-dasharray:none;paint-order:stroke fill markers"
       d="M 21.6875,63.463336 C 21.281312,63.347284 21.25,62.698016 21.25,54.391562 c 0,-4.920727 0.07154,-9.468728 0.158981,-10.106669 L 21.567962,43.125 h 11.50452 11.504521 l -0.161986,3.4375 c -0.08909,1.890625 -0.236919,6.390625 -0.328506,10 L 43.91999,63.125 41.022495,63.14414 C 30.66742,63.212555 23.989188,63.325738 23.125,63.447471 c -0.55,0.07747 -1.196875,0.08461 -1.4375,0.01586 z m 16.171163,-5.237249 c 0.08958,-0.356903 0.04097,-0.795786 -0.108007,-0.975297 -0.173991,-0.209646 -0.263543,-1.922358 -0.250379,-4.788586 0.01127,-2.454212 0.01582,-4.610302 0.01011,-4.79131 -0.0066,-0.209848 -0.259514,-0.30044 -0.697886,-0.25 L 36.125,47.5 36.05265,49.847731 35.9803,52.195463 34.302647,52.037009 C 33.379943,51.949859 32.203125,51.877755 31.6875,51.876777 L 30.75,51.875 v -1.844389 c 0,-1.980506 -0.39663,-2.750954 -1.166275,-2.265474 -0.307583,0.194018 -0.388267,1.125577 -0.452306,5.222234 -0.04287,2.74235 -0.02169,5.132687 0.04707,5.31186 0.175962,0.458548 1.237051,0.406473 1.419768,-0.06968 0.08346,-0.217496 0.151747,-1.342496 0.151747,-2.5 V 53.625 H 33.375 36 v 2.229553 c 0,2.71092 0.102441,3.020447 0.999645,3.020447 0.540905,0 0.732471,-0.144712 0.859018,-0.648913 z"
       id="path48547"
       transform="matrix(0.26458333,0,0,0.26458333,97.648955,164.13134)" />
    <path
       style="fill:#f0eeef;fill-opacity:1;stroke:none;stroke-width:0.333333;stroke-linecap:round;stroke-miterlimit:4;stroke-dasharray:none;paint-order:stroke fill markers"
       d=""
       id="path48586"
       transform="matrix(0.26458333,0,0,0.26458333,97.648955,164.13134)" />
    <path
       style="fill:#f0eeef;fill-opacity:1;stroke:none;stroke-width:0.333333;stroke-linecap:round;stroke-miterlimit:4;stroke-dasharray:none;paint-order:stroke fill markers"
       d="m 21.412986,132.20718 c -0.07737,-0.80145 -0.133235,-5.3283 -0.124144,-10.05966 l 0.01653,-8.60249 11.379371,0.15538 c 6.258653,0.0854 11.41946,0.19546 11.468459,0.24446 0.049,0.049 0.118949,4.46895 0.155444,9.82211 L 44.375,133.5 l -11.41067,0.0822 -11.410669,0.0822 z m 9.121628,-3.64468 c 0.01904,-0.17188 0.0078,-1.12112 -0.02498,-2.10944 l -0.05959,-1.79695 2.89165,-0.0781 2.891651,-0.0781 0.07083,2.125 c 0.06936,2.08111 0.08374,2.125 0.695828,2.125 h 0.625 v -5 -5 l -0.6875,-0.0791 -0.6875,-0.0791 5e-4,2.2041 5.19e-4,2.20411 -2.75051,-0.0781 -2.750509,-0.0781 -0.02958,-1.67191 C 30.675142,118.61257 30.487256,118 29.747545,118 H 29.125 l -0.06968,4.875 c -0.08091,5.66012 -0.03421,6 0.824448,6 0.34113,0 0.635813,-0.14063 0.654851,-0.3125 z"
       id="path48625"
       transform="matrix(0.26458333,0,0,0.26458333,97.648955,164.13134)" />
    <path
       style="font-variation-settings:normal;opacity:1;vector-effect:none;fill:none;fill-opacity:1;stroke:#000000;stroke-width:1.05247;stroke-linecap:round;stroke-linejoin:miter;stroke-miterlimit:4;stroke-dasharray:none;stroke-dashoffset:0;stroke-opacity:1;-inkscape-stroke:none;stop-color:#000000;stop-opacity:1"
       d="m 106.10203,185.53449 v 0"
       id="path1558"
       sodipodi:nodetypes="cc" />
    <path
       style="font-variation-settings:normal;opacity:1;vector-effect:none;fill:none;fill-opacity:1;stroke:#000000;stroke-width:1.05247;stroke-linecap:round;stroke-linejoin:miter;stroke-miterlimit:4;stroke-dasharray:none;stroke-dashoffset:0;stroke-opacity:1;-inkscape-stroke:none;stop-color:#000000;stop-opacity:1"
       d="m 106.1488,187.28844 v 0"
       id="path1560"
       sodipodi:nodetypes="cc" />
    <path
       style="font-variation-settings:normal;opacity:1;vector-effect:none;fill:none;fill-opacity:1;stroke:#000000;stroke-width:1.05247;stroke-linecap:round;stroke-linejoin:miter;stroke-miterlimit:4;stroke-dasharray:none;stroke-dashoffset:0;stroke-opacity:1;-inkscape-stroke:none;stop-color:#000000;stop-opacity:1"
       d="m 106.10203,189.36981 v 0"
       id="path1562"
       sodipodi:nodetypes="cc" />
    <path
       style="font-variation-settings:normal;opacity:1;vector-effect:none;fill:none;fill-opacity:1;stroke:#000000;stroke-width:1.05247;stroke-linecap:round;stroke-linejoin:miter;stroke-miterlimit:4;stroke-dasharray:none;stroke-dashoffset:0;stroke-opacity:1;-inkscape-stroke:none;stop-color:#000000;stop-opacity:1"
       d="m 118.27285,185.53449 v 0"
       id="path1929"
       sodipodi:nodetypes="cc" />
    <path
       style="font-variation-settings:normal;opacity:1;vector-effect:none;fill:none;fill-opacity:1;stroke:#000000;stroke-width:1.05247;stroke-linecap:round;stroke-linejoin:miter;stroke-miterlimit:4;stroke-dasharray:none;stroke-dashoffset:0;stroke-opacity:1;-inkscape-stroke:none;stop-color:#000000;stop-opacity:1"
       d="m 118.31962,187.28844 v 0"
       id="path1931"
       sodipodi:nodetypes="cc" />
    <path
       style="font-variation-settings:normal;opacity:1;vector-effect:none;fill:none;fill-opacity:1;stroke:#000000;stroke-width:1.05247;stroke-linecap:round;stroke-linejoin:miter;stroke-miterlimit:4;stroke-dasharray:none;stroke-dashoffset:0;stroke-opacity:1;-inkscape-stroke:none;stop-color:#000000;stop-opacity:1"
       d="m 118.27285,189.36981 v 0"
       id="path1933"
       sodipodi:nodetypes="cc" />
    <path
       style="font-variation-settings:normal;opacity:1;vector-effect:none;fill:none;fill-opacity:1;stroke:#000000;stroke-width:1.05247;stroke-linecap:round;stroke-linejoin:miter;stroke-miterlimit:4;stroke-dasharray:none;stroke-dashoffset:0;stroke-opacity:1;-inkscape-stroke:none;stop-color:#000000;stop-opacity:1"
       d="m 141.02704,185.53449 v 0"
       id="path1935"
       sodipodi:nodetypes="cc" />
    <path
       style="font-variation-settings:normal;opacity:1;vector-effect:none;fill:none;fill-opacity:1;stroke:#000000;stroke-width:1.05247;stroke-linecap:round;stroke-linejoin:miter;stroke-miterlimit:4;stroke-dasharray:none;stroke-dashoffset:0;stroke-opacity:1;-inkscape-stroke:none;stop-color:#000000;stop-opacity:1"
       d="m 141.07381,187.28844 v 0"
       id="path1937"
       sodipodi:nodetypes="cc" />
    <path
       style="font-variation-settings:normal;opacity:1;vector-effect:none;fill:none;fill-opacity:1;stroke:#000000;stroke-width:1.05247;stroke-linecap:round;stroke-linejoin:miter;stroke-miterlimit:4;stroke-dasharray:none;stroke-dashoffset:0;stroke-opacity:1;-inkscape-stroke:none;stop-color:#000000;stop-opacity:1"
       d="m 141.02704,189.36981 v 0"
       id="path1939"
       sodipodi:nodetypes="cc" />
    <path
       style="font-variation-settings:normal;opacity:1;vector-effect:none;fill:none;fill-opacity:1;stroke:#000000;stroke-width:1.05247;stroke-linecap:round;stroke-linejoin:miter;stroke-miterlimit:4;stroke-dasharray:none;stroke-dashoffset:0;stroke-opacity:1;-inkscape-stroke:none;stop-color:#000000;stop-opacity:1"
       d="m 153.19789,185.53449 v 0"
       id="path1941"
       sodipodi:nodetypes="cc" />
    <path
       style="font-variation-settings:normal;opacity:1;vector-effect:none;fill:none;fill-opacity:1;stroke:#000000;stroke-width:1.05247;stroke-linecap:round;stroke-linejoin:miter;stroke-miterlimit:4;stroke-dasharray:none;stroke-dashoffset:0;stroke-opacity:1;-inkscape-stroke:none;stop-color:#000000;stop-opacity:1"
       d="m 153.24466,187.28844 v 0"
       id="path1943"
       sodipodi:nodetypes="cc" />
    <path
       style="font-variation-settings:normal;opacity:1;vector-effect:none;fill:none;fill-opacity:1;stroke:#000000;stroke-width:1.05247;stroke-linecap:round;stroke-linejoin:miter;stroke-miterlimit:4;stroke-dasharray:none;stroke-dashoffset:0;stroke-opacity:1;-inkscape-stroke:none;stop-color:#000000;stop-opacity:1"
       d="m 153.19789,189.36981 v 0"
       id="path1945"
       sodipodi:nodetypes="cc" />
  </g>
  <g
     inkscape:groupmode="layer"
     id="layer4"
     inkscape:label="lines"
     style="display:inline"
     transform="translate(-97.472566,-164.06607)">
    <path
       style="font-variation-settings:normal;opacity:1;vector-effect:none;fill:none;fill-opacity:1;stroke:#000000;stroke-width:0.352777;stroke-linecap:round;stroke-linejoin:miter;stroke-miterlimit:4;stroke-dasharray:none;stroke-dashoffset:0;stroke-opacity:1;-inkscape-stroke:none;stop-color:#000000;stop-opacity:1"
       d="m 121.51046,167.16439 c 5.43189,0.028 16.04027,0.055 16.7569,0"
       id="path4030" />
    <g
       id="g1092"
       transform="matrix(0.38231088,0,0,-0.38231088,129.88891,184.73483)" />
    <path
       style="font-variation-settings:normal;opacity:1;vector-effect:none;fill:none;fill-opacity:1;stroke:#000000;stroke-width:0.352777;stroke-linecap:round;stroke-linejoin:miter;stroke-miterlimit:4;stroke-dasharray:none;stroke-dashoffset:0;stroke-opacity:1;-inkscape-stroke:none;stop-color:#000000;stop-opacity:1"
       d="m 109.59027,164.30773 c 0.10893,1.75919 0.10949,4.55022 0,5.71331"
       id="path3627" />
    <path
       style="font-variation-settings:normal;opacity:1;vector-effect:none;fill:none;fill-opacity:1;stroke:#000000;stroke-width:0.352777;stroke-linecap:round;stroke-linejoin:miter;stroke-miterlimit:4;stroke-dasharray:none;stroke-dashoffset:0;stroke-opacity:1;-inkscape-stroke:none;stop-color:#000000;stop-opacity:1"
       d="m 130.65068,167.16439 c 0.0821,-1.39733 -2.30542,-0.65541 -1.5559,0.24401 0.0838,0.10051 0.19104,0.2263 0.31376,0.2789 0.26277,0.11261 1.18532,0.37508 1.18532,-0.20918 0,-0.37342 -0.0715,-0.16926 -0.13945,-0.41834 -0.0755,-0.27704 -0.0506,-0.96998 -0.48807,-0.31376"
       id="path3910" />
    <path
       style="font-variation-settings:normal;display:inline;opacity:1;vector-effect:none;fill:none;fill-opacity:1;stroke:#000000;stroke-width:0.352777;stroke-linecap:round;stroke-linejoin:miter;stroke-miterlimit:4;stroke-dasharray:none;stroke-dashoffset:0;stroke-opacity:1;-inkscape-stroke:none;stop-color:#000000;stop-opacity:1"
       d="m 156.71023,167.16439 c 0.53545,-0.003 1.0794,0.034 1.61518,0.0354 0.84473,0.002 1.68139,-0.028 2.52589,-0.0175 0.19157,0.002 0.97816,-0.0177 1.14309,-0.006"
       id="path9111"
       sodipodi:nodetypes="cssc" />
    <path
       style="font-variation-settings:normal;display:inline;opacity:1;vector-effect:none;fill:none;fill-opacity:1;stroke:#000000;stroke-width:0.352777;stroke-linecap:round;stroke-linejoin:miter;stroke-miterlimit:4;stroke-dasharray:none;stroke-dashoffset:0;stroke-opacity:1;-inkscape-stroke:none;stop-color:#000000;stop-opacity:1"
       d="m 144.76889,167.16439 c 1.75679,-0.0546 3.51387,-0.0234 5.26756,-0.0234 0.54892,0 -0.48061,0.054 -0.66145,0.0992"
       id="path9095" />
    <path
       style="font-variation-settings:normal;display:inline;opacity:1;vector-effect:none;fill:none;fill-opacity:1;stroke:#000000;stroke-width:0.352777;stroke-linecap:round;stroke-linejoin:miter;stroke-miterlimit:4;stroke-dasharray:none;stroke-dashoffset:0;stroke-opacity:1;-inkscape-stroke:none;stop-color:#000000;stop-opacity:1"
       d="m 109.59028,167.16439 c 0.24952,-0.0349 0.49732,-0.0858 0.74857,-0.10461 0.30731,-0.023 0.61573,0.0292 0.92385,0.0349 0.83124,0.0154 1.66056,0.0174 2.49265,0.0174 0.31464,0 0.62739,-0.004 0.94129,-0.0174 0.0757,-0.003 0.30236,-0.0174 0.2266,-0.0174 -0.15618,0 -0.40027,0.0566 0.0857,0.0872"
       id="path3714" />
    <path
       style="font-variation-settings:normal;display:inline;opacity:1;vector-effect:none;fill:none;fill-opacity:1;stroke:#000000;stroke-width:0.352777;stroke-linecap:round;stroke-linejoin:miter;stroke-miterlimit:4;stroke-dasharray:none;stroke-dashoffset:0;stroke-opacity:1;-inkscape-stroke:none;stop-color:#000000;stop-opacity:1"
       d="m 97.648955,167.16439 c 1.387033,0.19144 2.774745,-0.0264 4.166085,0.073 0.24583,0.0176 0.49306,0.0493 0.73954,0.0493 0.10683,0 0.41602,-0.0478 0.32047,0 -0.10877,0.0544 -0.30988,0.0546 -0.41907,0"
       id="path3579" />
    <path
       style="font-variation-settings:normal;opacity:1;vector-effect:none;fill:none;fill-opacity:1;stroke:#000000;stroke-width:0.352777;stroke-linecap:round;stroke-linejoin:miter;stroke-miterlimit:4;stroke-dasharray:none;stroke-dashoffset:0;stroke-opacity:1;-inkscape-stroke:none;stop-color:#000000;stop-opacity:1"
       d="m 97.648955,178.23285 c 1.636783,-0.0666 3.798235,0.12949 5.418635,0"
       id="path9292"
       sodipodi:nodetypes="cc" />
    <path
       style="font-variation-settings:normal;opacity:1;vector-effect:none;fill:none;fill-opacity:1;stroke:#000000;stroke-width:0.352777;stroke-linecap:round;stroke-linejoin:miter;stroke-miterlimit:4;stroke-dasharray:none;stroke-dashoffset:0;stroke-opacity:1;-inkscape-stroke:none;stop-color:#000000;stop-opacity:1"
       d="m 109.59028,178.23285 c 0.28597,0.0179 0.57139,0.0566 0.85789,0.0537 0.36134,-0.004 0.72011,-0.088 1.09141,-0.0661 1.06011,0.0624 2.60583,0.18992 3.46935,0.0125"
       id="path9314" />
    <path
       style="font-variation-settings:normal;opacity:1;vector-effect:none;fill:none;fill-opacity:1;stroke:#000000;stroke-width:0.352777;stroke-linecap:round;stroke-linejoin:miter;stroke-miterlimit:4;stroke-dasharray:none;stroke-dashoffset:0;stroke-opacity:1;-inkscape-stroke:none;stop-color:#000000;stop-opacity:1"
       d="m 121.51046,178.23285 c 0.0289,-0.005 2.04841,0.002 2.66298,-0.0455 1.90757,-0.14674 3.8713,0.0948 5.68854,-0.0331 1.02441,0.14634 2.35133,-0.10419 3.37343,0.0661 1.57866,0.0151 4.36714,0.002 5.03195,0.0125"
       id="path9324"
       sodipodi:nodetypes="ccccc" />
    <path
       style="font-variation-settings:normal;opacity:1;vector-effect:none;fill:none;fill-opacity:1;stroke:#000000;stroke-width:0.352777;stroke-linecap:round;stroke-linejoin:miter;stroke-miterlimit:4;stroke-dasharray:none;stroke-dashoffset:0;stroke-opacity:1;-inkscape-stroke:none;stop-color:#000000;stop-opacity:1"
       d="m 130.65068,178.23285 c -0.59896,-0.26215 -0.87628,-0.76555 -1.25173,-0.34318 -0.53713,0.60428 0.59138,1.22024 1.12448,0.79375 0.19261,-0.15408 0.23164,-0.61934 0.0662,-0.82682 -0.13347,-0.16734 -0.32874,-0.28864 -0.52917,-0.3638 -0.10777,-0.0404 -0.41442,0.17823 -0.33073,0.0992 0.0485,-0.0458 0.10615,-0.0806 0.15923,-0.12095"
       id="path9734" />
    <path
       style="font-variation-settings:normal;opacity:1;vector-effect:none;fill:none;fill-opacity:1;stroke:#000000;stroke-width:0.352777;stroke-linecap:round;stroke-linejoin:miter;stroke-miterlimit:4;stroke-dasharray:none;stroke-dashoffset:0;stroke-opacity:1;-inkscape-stroke:none;stop-color:#000000;stop-opacity:1"
       d="m 129.88891,167.92616 c 0.0234,0.58862 -0.0269,1.17289 -0.0269,1.76143 0,1.8463 -0.0661,3.67867 -0.0661,5.52318 0,0.57294 0.0331,1.15202 0.0331,1.71979 0,0.12765 -0.0531,0.75378 -0.0661,0.7276 -0.0815,-0.16306 -0.15771,-0.44316 0.12615,-0.18709"
       id="path9740" />
    <path
       style="font-variation-settings:normal;opacity:1;vector-effect:none;fill:none;fill-opacity:1;stroke:#000000;stroke-width:0.352777;stroke-linecap:round;stroke-linejoin:miter;stroke-miterlimit:4;stroke-dasharray:none;stroke-dashoffset:0;stroke-opacity:1;-inkscape-stroke:none;stop-color:#000000;stop-opacity:1"
       d="m 144.76889,178.23285 c 1.56379,0.14279 2.61943,-0.0977 4.18958,0.0128 0.19319,0.0172 0.98935,0.0108 1.12208,0.0108"
       id="path10258"
       sodipodi:nodetypes="ccc" />
    <path
       style="font-variation-settings:normal;opacity:1;vector-effect:none;fill:none;fill-opacity:1;stroke:#000000;stroke-width:0.352777;stroke-linecap:round;stroke-linejoin:miter;stroke-miterlimit:4;stroke-dasharray:none;stroke-dashoffset:0;stroke-opacity:1;-inkscape-stroke:none;stop-color:#000000;stop-opacity:1"
       d="m 156.71023,178.23285 c 1.42765,-0.0372 2.13857,-0.0124 3.56229,-0.0124 0.23975,0 1.20716,0.033 1.20716,0.033 0,0 0.40188,-0.0407 0.64919,-0.0206"
       id="path11273"
       sodipodi:nodetypes="cscc" />
    <path
       style="font-variation-settings:normal;opacity:1;vector-effect:none;fill:none;fill-opacity:1;stroke:#000000;stroke-width:0.352777;stroke-linecap:round;stroke-linejoin:miter;stroke-miterlimit:4;stroke-dasharray:none;stroke-dashoffset:0;stroke-opacity:1;-inkscape-stroke:none;stop-color:#000000;stop-opacity:1"
       d="m 97.648955,196.88739 c 0.330729,-0.005 0.661447,-0.0101 0.992187,-0.0139 1.038319,-0.0118 2.067378,0.0661 3.108858,0.0661 0.0695,0 0.75535,-0.006 1.31759,-0.0522"
       id="path13381"
       sodipodi:nodetypes="ccsc" />
    <path
       style="font-variation-settings:normal;opacity:1;vector-effect:none;fill:none;fill-opacity:1;stroke:#000000;stroke-width:0.352777;stroke-linecap:round;stroke-linejoin:miter;stroke-miterlimit:4;stroke-dasharray:none;stroke-dashoffset:0;stroke-opacity:1;-inkscape-stroke:none;stop-color:#000000;stop-opacity:1"
       d="m 109.59028,196.81298 c 0.70122,0.0155 1.46243,0.12606 2.1649,0.0579 0.56922,-0.0552 1.08752,0.0448 1.63648,0.0275 0.44558,0.005 1.25981,-0.0326 1.61727,-0.011"
       id="path13385"
       sodipodi:nodetypes="cscc" />
    <path
       style="font-variation-settings:normal;opacity:1;vector-effect:none;fill:none;fill-opacity:1;stroke:#000000;stroke-width:0.352777;stroke-linecap:round;stroke-linejoin:miter;stroke-miterlimit:4;stroke-dasharray:none;stroke-dashoffset:0;stroke-opacity:1;-inkscape-stroke:none;stop-color:#000000;stop-opacity:1"
       d="m 121.51046,196.88739 c 1.29612,-0.0292 2.58964,-0.0421 3.88667,-0.0139 0.52928,0.0115 1.0221,0.0648 1.53197,0.0139"
       id="path13395"
       sodipodi:nodetypes="csc" />
    <path
       style="font-variation-settings:normal;opacity:1;vector-effect:none;fill:none;fill-opacity:1;stroke:#000000;stroke-width:0.352777;stroke-linecap:round;stroke-linejoin:miter;stroke-miterlimit:4;stroke-dasharray:none;stroke-dashoffset:0;stroke-opacity:1;-inkscape-stroke:none;stop-color:#000000;stop-opacity:1"
       d="m 132.84871,196.88739 c 1.68429,0.11857 4.58392,0.0253 5.41865,0"
       id="path15680" />
    <path
       style="font-variation-settings:normal;opacity:1;vector-effect:none;fill:none;fill-opacity:1;stroke:#000000;stroke-width:0.352777;stroke-linecap:round;stroke-linejoin:miter;stroke-miterlimit:4;stroke-dasharray:none;stroke-dashoffset:0;stroke-opacity:1;-inkscape-stroke:none;stop-color:#000000;stop-opacity:1"
       d="m 144.76889,196.88739 c 1.34233,-0.14614 2.57718,-0.0304 3.92811,-0.0304 0.50612,-0.0214 0.97566,0.0165 0.97566,0.0165 0.1932,-0.0418 0.3212,0.0533 0.51488,0.0139"
       id="path15700"
       sodipodi:nodetypes="cccc" />
    <path
       style="font-variation-settings:normal;opacity:1;vector-effect:none;fill:none;fill-opacity:1;stroke:#000000;stroke-width:0.352777;stroke-linecap:round;stroke-linejoin:miter;stroke-miterlimit:4;stroke-dasharray:none;stroke-dashoffset:0;stroke-opacity:1;-inkscape-stroke:none;stop-color:#000000;stop-opacity:1"
       d="m 156.71023,196.88739 c 0.311,-0.0377 0.67005,0.007 0.98261,-0.0139 0.56094,-0.0382 1.09182,0.005 1.65364,-0.0165 0.54267,-0.0209 1.11505,0.0209 1.71979,0 0.56362,-0.009 0,0 1.0626,0.0304"
       id="path15702"
       sodipodi:nodetypes="csccc" />
    <ellipse
       style="fill:#000000;stroke:#000000;stroke-width:0.352777;stroke-linecap:round;stroke-miterlimit:4;stroke-dasharray:none;paint-order:stroke fill markers"
       id="path30442"
       cx="129.83923"
       cy="167.11411"
       rx="0.65525717"
       ry="0.56430662" />
    <rect
       style="fill:none;fill-opacity:1;stroke:none;stroke-width:0.352777;stroke-linecap:round;stroke-miterlimit:4;stroke-dasharray:none;paint-order:stroke fill markers"
       id="rect31664"
       width="6.1179748"
       height="5.4928551"
       x="115.26337"
       y="164.52821"
       ry="0.047632672" />
    <path
       style="fill:#fff8e5;fill-opacity:1;stroke:none;stroke-width:0.0589256;stroke-linecap:round;stroke-miterlimit:4;stroke-dasharray:none;paint-order:stroke fill markers"
       d="m 113.33596,134.12499 c -0.83566,-0.0504 -1.70901,-0.11234 -1.90918,-0.13546 l -0.2298,-0.0265 -0.0756,-0.31458 c -0.13168,-0.54785 -0.13172,-1.69388 -1.1e-4,-3.2314 0.13247,-1.54745 0.26511,-3.60044 0.34549,-5.3475 0.0785,-1.70661 0.0768,-8.09425 -0.003,-9.86896 -0.033,-0.73671 -0.0529,-1.34649 -0.0442,-1.35506 0.009,-0.009 0.11525,0.002 0.23678,0.0232 0.61293,0.10759 1.80984,0.18395 3.22617,0.2058 1.9942,0.0308 3.19757,-0.0218 7.29204,-0.31842 5.08993,-0.36878 7.38388,-0.40885 9.84669,-0.17198 l 0.30075,0.0289 -0.0246,0.22607 c -0.054,0.49691 -0.22143,3.68268 -0.31027,5.90502 -0.16822,4.20811 -0.19326,8.52399 -0.0724,12.48269 0.0252,0.82524 0.0391,1.5071 0.031,1.51526 -0.008,0.008 -0.26104,-0.006 -0.56197,-0.0321 -0.94389,-0.081 -3.12219,-0.10402 -4.61299,-0.0488 -0.77782,0.0288 -2.65718,0.12077 -4.17635,0.2044 -1.51918,0.0836 -3.15989,0.17305 -3.64602,0.19869 -0.87255,0.046 -5.09832,0.0918 -5.61266,0.0608 z m 11.63451,-5.06298 c 0.4686,-0.28961 0.36611,-1.08327 -0.15871,-1.22904 -0.0892,-0.0248 -0.59962,-0.0452 -1.13436,-0.0455 -0.99699,-4.6e-4 -2.20778,-0.0602 -2.71795,-0.13404 -0.15799,-0.0229 -0.69979,-0.055 -1.20399,-0.0713 l -0.91673,-0.0297 0.18753,-0.21115 c 0.10314,-0.11614 0.32674,-0.36735 0.49688,-0.55827 0.51751,-0.58066 1.9229,-2.24974 2.29422,-2.72468 0.19231,-0.24598 0.47841,-0.64612 0.63576,-0.88919 0.67287,-1.0394 1.3868,-2.07916 1.86623,-2.71794 0.83839,-1.11706 1.05189,-1.44363 1.08407,-1.65823 0.0424,-0.28254 -0.0757,-0.60085 -0.28109,-0.758 l -0.1633,-0.12493 -1.87826,0.006 c -1.03303,0.003 -2.58425,0.0249 -3.44714,0.0476 -1.72751,0.0456 -1.75052,0.0496 -1.95211,0.3322 -0.0787,0.11038 -0.10292,0.20326 -0.10292,0.39517 0,0.30653 0.0965,0.45885 0.37795,0.5967 0.21594,0.10576 0.0382,0.10622 4.34797,-0.0112 l 1.19039,-0.0324 -0.35357,0.45983 c -0.36831,0.47899 -1.29808,1.8348 -1.69763,2.47549 -0.47074,0.75487 -1.6199,2.17303 -3.18472,3.93021 -0.91191,1.02402 -1.19337,1.43747 -1.25932,1.84989 -0.0416,0.26034 0.0133,0.4725 0.16782,0.64853 0.25799,0.29383 0.27633,0.29743 1.71484,0.33703 0.71705,0.0197 1.68159,0.0663 2.14341,0.1034 1.1915,0.0958 1.11189,0.0926 2.51386,0.10107 1.23773,0.007 1.28109,0.005 1.43087,-0.0877 z"
       id="path42985"
       transform="matrix(0.26458333,0,0,0.26458333,97.648955,164.13134)" />
  </g>
  <g
     inkscape:groupmode="layer"
     id="layer3"
     inkscape:label="letters"
     style="display:inline"
     transform="translate(-97.472566,-164.06607)">
    <path
       style="font-variation-settings:normal;opacity:1;vector-effect:none;fill:none;fill-opacity:1;stroke:#000000;stroke-width:0.352777;stroke-linecap:round;stroke-linejoin:miter;stroke-miterlimit:4;stroke-dasharray:none;stroke-dashoffset:0;stroke-opacity:1;-inkscape-stroke:none;stop-color:#000000;stop-opacity:1"
       d="m 105.57354,165.90624 c -0.19021,-0.22246 0.0804,2.9593 -0.0986,2.24328"
       id="path1952" />
    <path
       style="font-variation-settings:normal;opacity:1;vector-effect:none;fill:none;fill-opacity:1;stroke:#000000;stroke-width:0.352777;stroke-linecap:round;stroke-linejoin:miter;stroke-miterlimit:4;stroke-dasharray:none;stroke-dashoffset:0;stroke-opacity:1;-inkscape-stroke:none;stop-color:#000000;stop-opacity:1"
       d="m 107.3731,165.80763 v 2.14468 c 0,0.15612 0.11039,0.57877 0,0.46837"
       id="path1970"
       sodipodi:nodetypes="csc" />
    <path
       style="font-variation-settings:normal;opacity:1;vector-effect:none;fill:none;fill-opacity:1;stroke:#000000;stroke-width:0.352777;stroke-linecap:round;stroke-linejoin:miter;stroke-miterlimit:4;stroke-dasharray:none;stroke-dashoffset:0;stroke-opacity:1;-inkscape-stroke:none;stop-color:#000000;stop-opacity:1"
       d="m 105.59819,167.13881 c 0.48419,0.0151 1.13107,0.0623 1.57769,-0.0493"
       id="path1972" />
    <path
       style="font-variation-settings:normal;opacity:1;vector-effect:none;fill:none;fill-opacity:1;stroke:#000000;stroke-width:0.352777;stroke-linecap:round;stroke-linejoin:miter;stroke-miterlimit:4;stroke-dasharray:none;stroke-dashoffset:0;stroke-opacity:1;-inkscape-stroke:none;stop-color:#000000;stop-opacity:1"
       d="m 119.0332,165.90624 c -0.24116,-0.0175 -1.33359,2.26793 -1.67629,2.26793 -0.0341,0 0.16784,-0.15053 0.19721,-0.17256"
       id="path1994" />
    <path
       style="font-variation-settings:normal;opacity:1;vector-effect:none;fill:none;fill-opacity:1;stroke:#000000;stroke-width:0.352777;stroke-linecap:round;stroke-linejoin:miter;stroke-miterlimit:4;stroke-dasharray:none;stroke-dashoffset:0;stroke-opacity:1;-inkscape-stroke:none;stop-color:#000000;stop-opacity:1"
       d="m 117.23365,165.83229 c -0.50855,-0.78126 2.4314,3.04768 1.75025,2.36653"
       id="path2010" />
    <path
       style="font-variation-settings:normal;opacity:1;vector-effect:none;fill:none;fill-opacity:1;stroke:#000000;stroke-width:0.352777;stroke-linecap:round;stroke-linejoin:miter;stroke-miterlimit:4;stroke-dasharray:none;stroke-dashoffset:0;stroke-opacity:1;-inkscape-stroke:none;stop-color:#000000;stop-opacity:1"
       d="m 105.54889,176.95006 c 0.0702,0.83351 0,1.66296 0,2.4898 0,0.0493 0,-0.0986 0,-0.14791"
       id="path2060" />
    <path
       style="font-variation-settings:normal;opacity:1;vector-effect:none;fill:none;fill-opacity:1;stroke:#000000;stroke-width:0.352777;stroke-linecap:round;stroke-linejoin:miter;stroke-miterlimit:4;stroke-dasharray:none;stroke-dashoffset:0;stroke-opacity:1;-inkscape-stroke:none;stop-color:#000000;stop-opacity:1"
       d="m 107.39775,176.85146 c -0.0309,-0.0651 -0.0733,3.44736 0.074,2.56374"
       id="path2066" />
    <path
       style="font-variation-settings:normal;opacity:1;vector-effect:none;fill:none;fill-opacity:1;stroke:#000000;stroke-width:0.352777;stroke-linecap:round;stroke-linejoin:miter;stroke-miterlimit:4;stroke-dasharray:none;stroke-dashoffset:0;stroke-opacity:1;-inkscape-stroke:none;stop-color:#000000;stop-opacity:1"
       d="m 105.59819,178.08403 c 0.41046,0.0232 1.43566,-0.0163 1.6763,0.0739"
       id="path2068" />
    <path
       style="font-variation-settings:normal;opacity:1;vector-effect:none;fill:none;fill-opacity:1;stroke:#000000;stroke-width:0.352777;stroke-linecap:round;stroke-linejoin:miter;stroke-miterlimit:4;stroke-dasharray:none;stroke-dashoffset:0;stroke-opacity:1;-inkscape-stroke:none;stop-color:#000000;stop-opacity:1"
       d="m 140.38131,195.53722 c 0.78028,0.49263 1.14444,1.30288 1.65164,2.02141 0.0507,0.0718 0.27117,0.25888 0.27117,0.36977 0,0.0517 -0.0761,-0.0559 -0.0247,0.0986"
       id="path2174" />
    <path
       style="font-variation-settings:normal;opacity:1;vector-effect:none;fill:none;fill-opacity:1;stroke:#000000;stroke-width:0.352777;stroke-linecap:round;stroke-linejoin:miter;stroke-miterlimit:4;stroke-dasharray:none;stroke-dashoffset:0;stroke-opacity:1;-inkscape-stroke:none;stop-color:#000000;stop-opacity:1"
       d="m 142.45203,195.53722 c -0.575,0.63747 -1.02533,1.36993 -1.55304,2.04606 -0.011,0.0141 -0.48468,0.52603 -0.41907,0.59163 0.0454,0.0454 0.10253,-0.0779 0.14791,-0.12325"
       id="path2208" />
    <path
       style="font-variation-settings:normal;opacity:1;vector-effect:none;fill:none;fill-opacity:1;stroke:#000000;stroke-width:0.352777;stroke-linecap:round;stroke-linejoin:miter;stroke-miterlimit:4;stroke-dasharray:none;stroke-dashoffset:0;stroke-opacity:1;-inkscape-stroke:none;stop-color:#000000;stop-opacity:1"
       d="m 152.68236,195.48791 c -0.0639,0.80795 0.0247,1.61367 0.0247,2.41584"
       id="path2220" />
    <path
       style="font-variation-settings:normal;opacity:1;vector-effect:none;fill:none;fill-opacity:1;stroke:#000000;stroke-width:0.352777;stroke-linecap:round;stroke-linejoin:miter;stroke-miterlimit:4;stroke-dasharray:none;stroke-dashoffset:0;stroke-opacity:1;-inkscape-stroke:none;stop-color:#000000;stop-opacity:1"
       d="m 154.50656,195.58652 c 0.0852,0.69381 0.0728,1.3791 0,2.07072 -0.0914,0.86868 0.037,-0.40673 -0.0493,0.36977 -0.002,0.0163 0.007,0.064 0,0.0493 -0.0326,-0.0653 -0.0269,-0.15455 -0.0493,-0.22186"
       id="path2222" />
    <path
       style="font-variation-settings:normal;opacity:1;vector-effect:none;fill:none;fill-opacity:1;stroke:#000000;stroke-width:0.352777;stroke-linecap:round;stroke-linejoin:miter;stroke-miterlimit:4;stroke-dasharray:none;stroke-dashoffset:0;stroke-opacity:1;-inkscape-stroke:none;stop-color:#000000;stop-opacity:1"
       d="m 152.80562,196.84374 c 0.60728,-0.0654 1.19389,-0.0986 1.79955,-0.0986 0.10713,0 -0.21479,0.007 -0.32047,0.0247"
       id="path2224" />
    <path
       style="font-variation-settings:normal;opacity:1;vector-effect:none;fill:none;fill-opacity:1;stroke:#000000;stroke-width:0.352777;stroke-linecap:round;stroke-linejoin:miter;stroke-miterlimit:4;stroke-dasharray:none;stroke-dashoffset:0;stroke-opacity:1;-inkscape-stroke:none;stop-color:#000000;stop-opacity:1"
       d="m 152.75631,176.92541 c 0.008,0.25473 0.0178,0.50943 0.0247,0.7642 0.0118,0.43578 0.0219,0.90402 -0.0493,1.33117 -0.0108,0.0651 0.003,0.62282 -0.0986,0.41908"
       id="path2236" />
    <path
       style="font-variation-settings:normal;opacity:1;vector-effect:none;fill:none;fill-opacity:1;stroke:#000000;stroke-width:0.352777;stroke-linecap:round;stroke-linejoin:miter;stroke-miterlimit:4;stroke-dasharray:none;stroke-dashoffset:0;stroke-opacity:1;-inkscape-stroke:none;stop-color:#000000;stop-opacity:1"
       d="m 154.43261,176.90076 c 0.16019,0.77053 -0.0493,1.55276 -0.0493,2.31723"
       id="path2240" />
    <path
       style="font-variation-settings:normal;opacity:1;vector-effect:none;fill:none;fill-opacity:1;stroke:#000000;stroke-width:0.352777;stroke-linecap:round;stroke-linejoin:miter;stroke-miterlimit:4;stroke-dasharray:none;stroke-dashoffset:0;stroke-opacity:1;-inkscape-stroke:none;stop-color:#000000;stop-opacity:1"
       d="m 152.75631,178.08403 c -0.32286,0.11273 2.14751,-0.0247 1.45443,-0.0247"
       id="path2246" />
    <path
       style="font-variation-settings:normal;opacity:1;vector-effect:none;fill:none;fill-opacity:1;stroke:#000000;stroke-width:0.352777;stroke-linecap:round;stroke-linejoin:miter;stroke-miterlimit:4;stroke-dasharray:none;stroke-dashoffset:0;stroke-opacity:1;-inkscape-stroke:none;stop-color:#000000;stop-opacity:1"
       d="m 142.45203,176.92541 c -0.11504,0.16435 -0.23008,0.32869 -0.34512,0.49303 -0.0329,0.0411 -0.0677,0.0807 -0.0986,0.12326 -0.33522,0.46093 -0.74391,0.89474 -1.03535,1.38048 -0.0856,0.1426 -0.55287,0.72543 -0.27117,0.44372"
       id="path2272" />
    <path
       style="font-variation-settings:normal;opacity:1;vector-effect:none;fill:none;fill-opacity:1;stroke:#000000;stroke-width:0.352777;stroke-linecap:round;stroke-linejoin:miter;stroke-miterlimit:4;stroke-dasharray:none;stroke-dashoffset:0;stroke-opacity:1;-inkscape-stroke:none;stop-color:#000000;stop-opacity:1"
       d="m 140.50457,176.82681 c 0.72107,0.63562 1.17676,1.50028 1.8242,2.19397 0.0409,0.0438 0.34312,0.34911 0.32047,0.39442"
       id="path2294"
       sodipodi:nodetypes="ccc" />
    <path
       style="font-variation-settings:normal;opacity:1;vector-effect:none;fill:none;fill-opacity:1;stroke:#000000;stroke-width:0.352777;stroke-linecap:round;stroke-linejoin:miter;stroke-miterlimit:4;stroke-dasharray:none;stroke-dashoffset:0;stroke-opacity:1;-inkscape-stroke:none;stop-color:#000000;stop-opacity:1"
       d="m 140.57852,165.75833 c 0.12326,0.189 0.23818,0.3837 0.36978,0.56698 0.32609,0.45421 0.7238,0.85826 1.06,1.30653 0.0399,0.0532 0.52873,0.74379 0.29582,0.39442"
       id="path2772" />
    <path
       style="font-variation-settings:normal;opacity:1;vector-effect:none;fill:none;fill-opacity:1;stroke:#000000;stroke-width:0.352777;stroke-linecap:round;stroke-linejoin:miter;stroke-miterlimit:4;stroke-dasharray:none;stroke-dashoffset:0;stroke-opacity:1;-inkscape-stroke:none;stop-color:#000000;stop-opacity:1"
       d="m 142.50133,165.80763 c -0.13147,0.16435 -0.26722,0.32536 -0.39442,0.49303 -0.35971,0.47417 -0.73927,0.94624 -1.08466,1.42978 -0.0576,0.0806 -0.54379,0.70862 -0.34512,0.44373"
       id="path2788" />
    <path
       style="font-variation-settings:normal;opacity:1;vector-effect:none;fill:none;fill-opacity:1;stroke:#000000;stroke-width:0.352777;stroke-linecap:round;stroke-linejoin:miter;stroke-miterlimit:4;stroke-dasharray:none;stroke-dashoffset:0;stroke-opacity:1;-inkscape-stroke:none;stop-color:#000000;stop-opacity:1"
       d="m 152.73166,165.83229 c -0.0669,0.0315 -0.0605,2.50102 -0.0986,2.53909 -0.0397,0.0397 -0.0915,-0.19397 -0.0739,-0.24651"
       id="path2810" />
    <path
       style="font-variation-settings:normal;opacity:1;vector-effect:none;fill:none;fill-opacity:1;stroke:#000000;stroke-width:0.352777;stroke-linecap:round;stroke-linejoin:miter;stroke-miterlimit:4;stroke-dasharray:none;stroke-dashoffset:0;stroke-opacity:1;-inkscape-stroke:none;stop-color:#000000;stop-opacity:1"
       d="m 154.55586,165.93089 c -0.002,0.76976 0,1.78205 0,2.46514"
       id="path2818" />
    <path
       style="font-variation-settings:normal;opacity:1;vector-effect:none;fill:none;fill-opacity:1;stroke:#000000;stroke-width:0.352777;stroke-linecap:round;stroke-linejoin:miter;stroke-miterlimit:4;stroke-dasharray:none;stroke-dashoffset:0;stroke-opacity:1;-inkscape-stroke:none;stop-color:#000000;stop-opacity:1"
       d="m 152.65771,167.01555 c -0.0938,0.0357 2.18712,0.0247 1.75025,0.0247"
       id="path2824" />
    <path
       style="font-variation-settings:normal;opacity:1;vector-effect:none;fill:none;fill-opacity:1;stroke:#000000;stroke-width:0.352777;stroke-linecap:round;stroke-linejoin:miter;stroke-miterlimit:4;stroke-dasharray:none;stroke-dashoffset:0;stroke-opacity:1;-inkscape-stroke:none;stop-color:#000000;stop-opacity:1"
       d="m 128.93593,195.53407 c 0.24254,-0.006 0.48516,-0.008 0.72761,-0.0165 0.30334,-0.0108 0.60562,-0.0165 0.9095,-0.0165 0.0136,0 0.0827,-0.0123 0.0827,0.0165 0,0.0436 -0.35688,0.48914 -0.40515,0.56637 -0.0965,0.15443 -0.21119,0.301 -0.30592,0.45889 -0.20218,0.33696 -0.51252,0.64892 -0.76068,0.95911 -0.067,0.0838 -0.44518,0.44909 -0.39687,0.54571 0.0185,0.0371 0.63586,0.0123 0.75241,0.029 0.3473,0.0496 0.73433,0.0496 1.07487,0.0496"
       id="path28319"
       sodipodi:nodetypes="ccsscccccc" />
  </g>
</svg>
