<?xml version="1.0" encoding="utf-8" standalone="no"?>
<!DOCTYPE svg PUBLIC "-//W3C//DTD SVG 1.1//EN"
  "http://www.w3.org/Graphics/SVG/1.1/DTD/svg11.dtd">
<!-- Created with matplotlib (https://matplotlib.org/) -->
<svg height="345.6pt" version="1.1" viewBox="0 0 460.8 345.6" width="460.8pt" xmlns="http://www.w3.org/2000/svg" xmlns:xlink="http://www.w3.org/1999/xlink">
 <defs>
  <style type="text/css">
*{stroke-linecap:butt;stroke-linejoin:round;}
  </style>
 </defs>
 <g id="figure_1">
  <g id="patch_1">
   <path d="M 0 345.6 
L 460.8 345.6 
L 460.8 0 
L 0 0 
z
" style="fill:#ffffff;"/>
  </g>
  <g id="axes_1">
   <g id="patch_2">
    <path d="M 57.6 307.584 
L 414.72 307.584 
L 414.72 41.472 
L 57.6 41.472 
z
" style="fill:#ffffff;"/>
   </g>
   <g id="PathCollection_1">
    <defs>
     <path d="M 0 3.354102 
C 0.889518 3.354102 1.742724 3.000693 2.371708 2.371708 
C 3.000693 1.742724 3.354102 0.889518 3.354102 0 
C 3.354102 -0.889518 3.000693 -1.742724 2.371708 -2.371708 
C 1.742724 -3.000693 0.889518 -3.354102 0 -3.354102 
C -0.889518 -3.354102 -1.742724 -3.000693 -2.371708 -2.371708 
C -3.000693 -1.742724 -3.354102 -0.889518 -3.354102 0 
C -3.354102 0.889518 -3.000693 1.742724 -2.371708 2.371708 
C -1.742724 3.000693 -0.889518 3.354102 0 3.354102 
z
" id="m2293a3fcf4" style="stroke:#000000;"/>
    </defs>
    <g clip-path="url(#pe6dae8baab)">
     <use style="stroke:#000000;" x="76.21228" xlink:href="#m2293a3fcf4" y="134.048847"/>
     <use style="stroke:#000000;" x="80.848446" xlink:href="#m2293a3fcf4" y="143.020711"/>
     <use style="stroke:#000000;" x="85.484612" xlink:href="#m2293a3fcf4" y="152.541712"/>
     <use style="stroke:#000000;" x="90.120777" xlink:href="#m2293a3fcf4" y="162.324605"/>
     <use style="stroke:#000000;" x="94.756943" xlink:href="#m2293a3fcf4" y="172.074246"/>
     <use style="stroke:#000000;" x="99.393109" xlink:href="#m2293a3fcf4" y="181.496491"/>
     <use style="stroke:#000000;" x="104.029275" xlink:href="#m2293a3fcf4" y="190.307075"/>
     <use style="stroke:#000000;" x="108.665441" xlink:href="#m2293a3fcf4" y="198.240186"/>
     <use style="stroke:#000000;" x="113.301606" xlink:href="#m2293a3fcf4" y="205.056486"/>
     <use style="stroke:#000000;" x="117.937772" xlink:href="#m2293a3fcf4" y="210.550329"/>
     <use style="stroke:#000000;" x="122.573938" xlink:href="#m2293a3fcf4" y="214.555969"/>
     <use style="stroke:#000000;" x="127.210104" xlink:href="#m2293a3fcf4" y="216.952557"/>
     <use style="stroke:#000000;" x="131.84627" xlink:href="#m2293a3fcf4" y="217.667789"/>
     <use style="stroke:#000000;" x="136.482435" xlink:href="#m2293a3fcf4" y="216.680087"/>
     <use style="stroke:#000000;" x="141.118601" xlink:href="#m2293a3fcf4" y="214.019249"/>
     <use style="stroke:#000000;" x="145.754767" xlink:href="#m2293a3fcf4" y="209.765552"/>
     <use style="stroke:#000000;" x="150.390933" xlink:href="#m2293a3fcf4" y="204.047328"/>
     <use style="stroke:#000000;" x="155.027099" xlink:href="#m2293a3fcf4" y="197.037094"/>
     <use style="stroke:#000000;" x="159.663264" xlink:href="#m2293a3fcf4" y="188.946345"/>
     <use style="stroke:#000000;" x="164.29943" xlink:href="#m2293a3fcf4" y="180.019175"/>
     <use style="stroke:#000000;" x="168.935596" xlink:href="#m2293a3fcf4" y="170.524915"/>
     <use style="stroke:#000000;" x="173.571762" xlink:href="#m2293a3fcf4" y="160.750002"/>
     <use style="stroke:#000000;" x="178.207928" xlink:href="#m2293a3fcf4" y="150.989341"/>
     <use style="stroke:#000000;" x="182.844093" xlink:href="#m2293a3fcf4" y="141.537407"/>
     <use style="stroke:#000000;" x="187.480259" xlink:href="#m2293a3fcf4" y="132.679361"/>
     <use style="stroke:#000000;" x="192.116425" xlink:href="#m2293a3fcf4" y="124.682447"/>
     <use style="stroke:#000000;" x="196.752591" xlink:href="#m2293a3fcf4" y="117.787928"/>
     <use style="stroke:#000000;" x="201.388757" xlink:href="#m2293a3fcf4" y="112.203809"/>
     <use style="stroke:#000000;" x="206.024922" xlink:href="#m2293a3fcf4" y="108.098562"/>
     <use style="stroke:#000000;" x="210.661088" xlink:href="#m2293a3fcf4" y="105.596038"/>
     <use style="stroke:#000000;" x="215.297254" xlink:href="#m2293a3fcf4" y="104.77174"/>
     <use style="stroke:#000000;" x="219.93342" xlink:href="#m2293a3fcf4" y="105.650534"/>
     <use style="stroke:#000000;" x="224.569586" xlink:href="#m2293a3fcf4" y="108.205909"/>
     <use style="stroke:#000000;" x="229.205751" xlink:href="#m2293a3fcf4" y="112.36077"/>
     <use style="stroke:#000000;" x="233.841917" xlink:href="#m2293a3fcf4" y="117.989766"/>
     <use style="stroke:#000000;" x="238.478083" xlink:href="#m2293a3fcf4" y="124.923073"/>
     <use style="stroke:#000000;" x="243.114249" xlink:href="#m2293a3fcf4" y="132.951515"/>
     <use style="stroke:#000000;" x="247.750414" xlink:href="#m2293a3fcf4" y="141.832879"/>
     <use style="stroke:#000000;" x="252.38658" xlink:href="#m2293a3fcf4" y="151.299216"/>
     <use style="stroke:#000000;" x="257.022746" xlink:href="#m2293a3fcf4" y="161.064932"/>
     <use style="stroke:#000000;" x="261.658912" xlink:href="#m2293a3fcf4" y="170.835399"/>
     <use style="stroke:#000000;" x="266.295078" xlink:href="#m2293a3fcf4" y="180.315845"/>
     <use style="stroke:#000000;" x="270.931243" xlink:href="#m2293a3fcf4" y="189.22025"/>
     <use style="stroke:#000000;" x="275.567409" xlink:href="#m2293a3fcf4" y="197.279972"/>
     <use style="stroke:#000000;" x="280.203575" xlink:href="#m2293a3fcf4" y="204.251851"/>
     <use style="stroke:#000000;" x="284.839741" xlink:href="#m2293a3fcf4" y="209.925549"/>
     <use style="stroke:#000000;" x="289.475907" xlink:href="#m2293a3fcf4" y="214.129894"/>
     <use style="stroke:#000000;" x="294.112072" xlink:href="#m2293a3fcf4" y="216.73804"/>
     <use style="stroke:#000000;" x="298.748238" xlink:href="#m2293a3fcf4" y="217.671303"/>
     <use style="stroke:#000000;" x="303.384404" xlink:href="#m2293a3fcf4" y="216.901526"/>
     <use style="stroke:#000000;" x="308.02057" xlink:href="#m2293a3fcf4" y="214.451932"/>
     <use style="stroke:#000000;" x="312.656736" xlink:href="#m2293a3fcf4" y="210.396425"/>
     <use style="stroke:#000000;" x="317.292901" xlink:href="#m2293a3fcf4" y="204.857358"/>
     <use style="stroke:#000000;" x="321.929067" xlink:href="#m2293a3fcf4" y="198.001842"/>
     <use style="stroke:#000000;" x="326.565233" xlink:href="#m2293a3fcf4" y="190.036705"/>
     <use style="stroke:#000000;" x="331.201399" xlink:href="#m2293a3fcf4" y="181.202253"/>
     <use style="stroke:#000000;" x="335.837565" xlink:href="#m2293a3fcf4" y="171.765017"/>
     <use style="stroke:#000000;" x="340.47373" xlink:href="#m2293a3fcf4" y="162.009714"/>
     <use style="stroke:#000000;" x="345.109896" xlink:href="#m2293a3fcf4" y="152.230658"/>
     <use style="stroke:#000000;" x="349.746062" xlink:href="#m2293a3fcf4" y="142.72288"/>
     <use style="stroke:#000000;" x="354.382228" xlink:href="#m2293a3fcf4" y="133.773224"/>
     <use style="stroke:#000000;" x="359.018394" xlink:href="#m2293a3fcf4" y="125.651699"/>
     <use style="stroke:#000000;" x="363.654559" xlink:href="#m2293a3fcf4" y="118.603327"/>
     <use style="stroke:#000000;" x="368.290725" xlink:href="#m2293a3fcf4" y="112.840755"/>
     <use style="stroke:#000000;" x="372.926891" xlink:href="#m2293a3fcf4" y="108.537838"/>
     <use style="stroke:#000000;" x="377.563057" xlink:href="#m2293a3fcf4" y="105.824392"/>
     <use style="stroke:#000000;" x="382.199223" xlink:href="#m2293a3fcf4" y="104.782281"/>
     <use style="stroke:#000000;" x="386.835388" xlink:href="#m2293a3fcf4" y="105.442946"/>
     <use style="stroke:#000000;" x="391.471554" xlink:href="#m2293a3fcf4" y="107.786454"/>
     <use style="stroke:#000000;" x="396.10772" xlink:href="#m2293a3fcf4" y="111.742102"/>
    </g>
   </g>
   <g id="matplotlib.axis_1">
    <g id="xtick_1">
     <g id="line2d_1">
      <defs>
       <path d="M 0 0 
L 0 3.5 
" id="mf6f52b4352" style="stroke:#000000;stroke-width:0.8;"/>
      </defs>
      <g>
       <use style="stroke:#000000;stroke-width:0.8;" x="76.21228" xlink:href="#mf6f52b4352" y="307.584"/>
      </g>
     </g>
     <g id="text_1">
      <!-- −6 -->
      <defs>
       <path d="M 10.59375 35.5 
L 73.1875 35.5 
L 73.1875 27.203125 
L 10.59375 27.203125 
z
" id="DejaVuSans-8722"/>
       <path d="M 33.015625 40.375 
Q 26.375 40.375 22.484375 35.828125 
Q 18.609375 31.296875 18.609375 23.390625 
Q 18.609375 15.53125 22.484375 10.953125 
Q 26.375 6.390625 33.015625 6.390625 
Q 39.65625 6.390625 43.53125 10.953125 
Q 47.40625 15.53125 47.40625 23.390625 
Q 47.40625 31.296875 43.53125 35.828125 
Q 39.65625 40.375 33.015625 40.375 
z
M 52.59375 71.296875 
L 52.59375 62.3125 
Q 48.875 64.0625 45.09375 64.984375 
Q 41.3125 65.921875 37.59375 65.921875 
Q 27.828125 65.921875 22.671875 59.328125 
Q 17.53125 52.734375 16.796875 39.40625 
Q 19.671875 43.65625 24.015625 45.921875 
Q 28.375 48.1875 33.59375 48.1875 
Q 44.578125 48.1875 50.953125 41.515625 
Q 57.328125 34.859375 57.328125 23.390625 
Q 57.328125 12.15625 50.6875 5.359375 
Q 44.046875 -1.421875 33.015625 -1.421875 
Q 20.359375 -1.421875 13.671875 8.265625 
Q 6.984375 17.96875 6.984375 36.375 
Q 6.984375 53.65625 15.1875 63.9375 
Q 23.390625 74.21875 37.203125 74.21875 
Q 40.921875 74.21875 44.703125 73.484375 
Q 48.484375 72.75 52.59375 71.296875 
z
" id="DejaVuSans-54"/>
      </defs>
      <g transform="translate(68.841186 322.182437)scale(0.1 -0.1)">
       <use xlink:href="#DejaVuSans-8722"/>
       <use x="83.789062" xlink:href="#DejaVuSans-54"/>
      </g>
     </g>
    </g>
    <g id="xtick_2">
     <g id="line2d_2">
      <g>
       <use style="stroke:#000000;stroke-width:0.8;" x="129.528187" xlink:href="#mf6f52b4352" y="307.584"/>
      </g>
     </g>
     <g id="text_2">
      <!-- −4 -->
      <defs>
       <path d="M 37.796875 64.3125 
L 12.890625 25.390625 
L 37.796875 25.390625 
z
M 35.203125 72.90625 
L 47.609375 72.90625 
L 47.609375 25.390625 
L 58.015625 25.390625 
L 58.015625 17.1875 
L 47.609375 17.1875 
L 47.609375 0 
L 37.796875 0 
L 37.796875 17.1875 
L 4.890625 17.1875 
L 4.890625 26.703125 
z
" id="DejaVuSans-52"/>
      </defs>
      <g transform="translate(122.157093 322.182437)scale(0.1 -0.1)">
       <use xlink:href="#DejaVuSans-8722"/>
       <use x="83.789062" xlink:href="#DejaVuSans-52"/>
      </g>
     </g>
    </g>
    <g id="xtick_3">
     <g id="line2d_3">
      <g>
       <use style="stroke:#000000;stroke-width:0.8;" x="182.844093" xlink:href="#mf6f52b4352" y="307.584"/>
      </g>
     </g>
     <g id="text_3">
      <!-- −2 -->
      <defs>
       <path d="M 19.1875 8.296875 
L 53.609375 8.296875 
L 53.609375 0 
L 7.328125 0 
L 7.328125 8.296875 
Q 12.9375 14.109375 22.625 23.890625 
Q 32.328125 33.6875 34.8125 36.53125 
Q 39.546875 41.84375 41.421875 45.53125 
Q 43.3125 49.21875 43.3125 52.78125 
Q 43.3125 58.59375 39.234375 62.25 
Q 35.15625 65.921875 28.609375 65.921875 
Q 23.96875 65.921875 18.8125 64.3125 
Q 13.671875 62.703125 7.8125 59.421875 
L 7.8125 69.390625 
Q 13.765625 71.78125 18.9375 73 
Q 24.125 74.21875 28.421875 74.21875 
Q 39.75 74.21875 46.484375 68.546875 
Q 53.21875 62.890625 53.21875 53.421875 
Q 53.21875 48.921875 51.53125 44.890625 
Q 49.859375 40.875 45.40625 35.40625 
Q 44.1875 33.984375 37.640625 27.21875 
Q 31.109375 20.453125 19.1875 8.296875 
z
" id="DejaVuSans-50"/>
      </defs>
      <g transform="translate(175.473 322.182437)scale(0.1 -0.1)">
       <use xlink:href="#DejaVuSans-8722"/>
       <use x="83.789062" xlink:href="#DejaVuSans-50"/>
      </g>
     </g>
    </g>
    <g id="xtick_4">
     <g id="line2d_4">
      <g>
       <use style="stroke:#000000;stroke-width:0.8;" x="236.16" xlink:href="#mf6f52b4352" y="307.584"/>
      </g>
     </g>
     <g id="text_4">
      <!-- 0 -->
      <defs>
       <path d="M 31.78125 66.40625 
Q 24.171875 66.40625 20.328125 58.90625 
Q 16.5 51.421875 16.5 36.375 
Q 16.5 21.390625 20.328125 13.890625 
Q 24.171875 6.390625 31.78125 6.390625 
Q 39.453125 6.390625 43.28125 13.890625 
Q 47.125 21.390625 47.125 36.375 
Q 47.125 51.421875 43.28125 58.90625 
Q 39.453125 66.40625 31.78125 66.40625 
z
M 31.78125 74.21875 
Q 44.046875 74.21875 50.515625 64.515625 
Q 56.984375 54.828125 56.984375 36.375 
Q 56.984375 17.96875 50.515625 8.265625 
Q 44.046875 -1.421875 31.78125 -1.421875 
Q 19.53125 -1.421875 13.0625 8.265625 
Q 6.59375 17.96875 6.59375 36.375 
Q 6.59375 54.828125 13.0625 64.515625 
Q 19.53125 74.21875 31.78125 74.21875 
z
" id="DejaVuSans-48"/>
      </defs>
      <g transform="translate(232.97875 322.182437)scale(0.1 -0.1)">
       <use xlink:href="#DejaVuSans-48"/>
      </g>
     </g>
    </g>
    <g id="xtick_5">
     <g id="line2d_5">
      <g>
       <use style="stroke:#000000;stroke-width:0.8;" x="289.475907" xlink:href="#mf6f52b4352" y="307.584"/>
      </g>
     </g>
     <g id="text_5">
      <!-- 2 -->
      <g transform="translate(286.294657 322.182437)scale(0.1 -0.1)">
       <use xlink:href="#DejaVuSans-50"/>
      </g>
     </g>
    </g>
    <g id="xtick_6">
     <g id="line2d_6">
      <g>
       <use style="stroke:#000000;stroke-width:0.8;" x="342.791813" xlink:href="#mf6f52b4352" y="307.584"/>
      </g>
     </g>
     <g id="text_6">
      <!-- 4 -->
      <g transform="translate(339.610563 322.182437)scale(0.1 -0.1)">
       <use xlink:href="#DejaVuSans-52"/>
      </g>
     </g>
    </g>
    <g id="xtick_7">
     <g id="line2d_7">
      <g>
       <use style="stroke:#000000;stroke-width:0.8;" x="396.10772" xlink:href="#mf6f52b4352" y="307.584"/>
      </g>
     </g>
     <g id="text_7">
      <!-- 6 -->
      <g transform="translate(392.92647 322.182437)scale(0.1 -0.1)">
       <use xlink:href="#DejaVuSans-54"/>
      </g>
     </g>
    </g>
   </g>
   <g id="matplotlib.axis_2">
    <g id="ytick_1">
     <g id="line2d_8">
      <defs>
       <path d="M 0 0 
L -3.5 0 
" id="m5c1f7b60d6" style="stroke:#000000;stroke-width:0.8;"/>
      </defs>
      <g>
       <use style="stroke:#000000;stroke-width:0.8;" x="57.6" xlink:href="#m5c1f7b60d6" y="307.584"/>
      </g>
     </g>
     <g id="text_8">
      <!-- −1.00 -->
      <defs>
       <path d="M 12.40625 8.296875 
L 28.515625 8.296875 
L 28.515625 63.921875 
L 10.984375 60.40625 
L 10.984375 69.390625 
L 28.421875 72.90625 
L 38.28125 72.90625 
L 38.28125 8.296875 
L 54.390625 8.296875 
L 54.390625 0 
L 12.40625 0 
z
" id="DejaVuSans-49"/>
       <path d="M 10.6875 12.40625 
L 21 12.40625 
L 21 0 
L 10.6875 0 
z
" id="DejaVuSans-46"/>
      </defs>
      <g transform="translate(19.954687 311.383219)scale(0.1 -0.1)">
       <use xlink:href="#DejaVuSans-8722"/>
       <use x="83.789062" xlink:href="#DejaVuSans-49"/>
       <use x="147.412109" xlink:href="#DejaVuSans-46"/>
       <use x="179.199219" xlink:href="#DejaVuSans-48"/>
       <use x="242.822266" xlink:href="#DejaVuSans-48"/>
      </g>
     </g>
    </g>
    <g id="ytick_2">
     <g id="line2d_9">
      <g>
       <use style="stroke:#000000;stroke-width:0.8;" x="57.6" xlink:href="#m5c1f7b60d6" y="274.32"/>
      </g>
     </g>
     <g id="text_9">
      <!-- −0.75 -->
      <defs>
       <path d="M 8.203125 72.90625 
L 55.078125 72.90625 
L 55.078125 68.703125 
L 28.609375 0 
L 18.3125 0 
L 43.21875 64.59375 
L 8.203125 64.59375 
z
" id="DejaVuSans-55"/>
       <path d="M 10.796875 72.90625 
L 49.515625 72.90625 
L 49.515625 64.59375 
L 19.828125 64.59375 
L 19.828125 46.734375 
Q 21.96875 47.46875 24.109375 47.828125 
Q 26.265625 48.1875 28.421875 48.1875 
Q 40.625 48.1875 47.75 41.5 
Q 54.890625 34.8125 54.890625 23.390625 
Q 54.890625 11.625 47.5625 5.09375 
Q 40.234375 -1.421875 26.90625 -1.421875 
Q 22.3125 -1.421875 17.546875 -0.640625 
Q 12.796875 0.140625 7.71875 1.703125 
L 7.71875 11.625 
Q 12.109375 9.234375 16.796875 8.0625 
Q 21.484375 6.890625 26.703125 6.890625 
Q 35.15625 6.890625 40.078125 11.328125 
Q 45.015625 15.765625 45.015625 23.390625 
Q 45.015625 31 40.078125 35.4375 
Q 35.15625 39.890625 26.703125 39.890625 
Q 22.75 39.890625 18.8125 39.015625 
Q 14.890625 38.140625 10.796875 36.28125 
z
" id="DejaVuSans-53"/>
      </defs>
      <g transform="translate(19.954687 278.119219)scale(0.1 -0.1)">
       <use xlink:href="#DejaVuSans-8722"/>
       <use x="83.789062" xlink:href="#DejaVuSans-48"/>
       <use x="147.412109" xlink:href="#DejaVuSans-46"/>
       <use x="179.199219" xlink:href="#DejaVuSans-55"/>
       <use x="242.822266" xlink:href="#DejaVuSans-53"/>
      </g>
     </g>
    </g>
    <g id="ytick_3">
     <g id="line2d_10">
      <g>
       <use style="stroke:#000000;stroke-width:0.8;" x="57.6" xlink:href="#m5c1f7b60d6" y="241.056"/>
      </g>
     </g>
     <g id="text_10">
      <!-- −0.50 -->
      <g transform="translate(19.954687 244.855219)scale(0.1 -0.1)">
       <use xlink:href="#DejaVuSans-8722"/>
       <use x="83.789062" xlink:href="#DejaVuSans-48"/>
       <use x="147.412109" xlink:href="#DejaVuSans-46"/>
       <use x="179.199219" xlink:href="#DejaVuSans-53"/>
       <use x="242.822266" xlink:href="#DejaVuSans-48"/>
      </g>
     </g>
    </g>
    <g id="ytick_4">
     <g id="line2d_11">
      <g>
       <use style="stroke:#000000;stroke-width:0.8;" x="57.6" xlink:href="#m5c1f7b60d6" y="207.792"/>
      </g>
     </g>
     <g id="text_11">
      <!-- −0.25 -->
      <g transform="translate(19.954687 211.591219)scale(0.1 -0.1)">
       <use xlink:href="#DejaVuSans-8722"/>
       <use x="83.789062" xlink:href="#DejaVuSans-48"/>
       <use x="147.412109" xlink:href="#DejaVuSans-46"/>
       <use x="179.199219" xlink:href="#DejaVuSans-50"/>
       <use x="242.822266" xlink:href="#DejaVuSans-53"/>
      </g>
     </g>
    </g>
    <g id="ytick_5">
     <g id="line2d_12">
      <g>
       <use style="stroke:#000000;stroke-width:0.8;" x="57.6" xlink:href="#m5c1f7b60d6" y="174.528"/>
      </g>
     </g>
     <g id="text_12">
      <!-- 0.00 -->
      <g transform="translate(28.334375 178.327219)scale(0.1 -0.1)">
       <use xlink:href="#DejaVuSans-48"/>
       <use x="63.623047" xlink:href="#DejaVuSans-46"/>
       <use x="95.410156" xlink:href="#DejaVuSans-48"/>
       <use x="159.033203" xlink:href="#DejaVuSans-48"/>
      </g>
     </g>
    </g>
    <g id="ytick_6">
     <g id="line2d_13">
      <g>
       <use style="stroke:#000000;stroke-width:0.8;" x="57.6" xlink:href="#m5c1f7b60d6" y="141.264"/>
      </g>
     </g>
     <g id="text_13">
      <!-- 0.25 -->
      <g transform="translate(28.334375 145.063219)scale(0.1 -0.1)">
       <use xlink:href="#DejaVuSans-48"/>
       <use x="63.623047" xlink:href="#DejaVuSans-46"/>
       <use x="95.410156" xlink:href="#DejaVuSans-50"/>
       <use x="159.033203" xlink:href="#DejaVuSans-53"/>
      </g>
     </g>
    </g>
    <g id="ytick_7">
     <g id="line2d_14">
      <g>
       <use style="stroke:#000000;stroke-width:0.8;" x="57.6" xlink:href="#m5c1f7b60d6" y="108"/>
      </g>
     </g>
     <g id="text_14">
      <!-- 0.50 -->
      <g transform="translate(28.334375 111.799219)scale(0.1 -0.1)">
       <use xlink:href="#DejaVuSans-48"/>
       <use x="63.623047" xlink:href="#DejaVuSans-46"/>
       <use x="95.410156" xlink:href="#DejaVuSans-53"/>
       <use x="159.033203" xlink:href="#DejaVuSans-48"/>
      </g>
     </g>
    </g>
    <g id="ytick_8">
     <g id="line2d_15">
      <g>
       <use style="stroke:#000000;stroke-width:0.8;" x="57.6" xlink:href="#m5c1f7b60d6" y="74.736"/>
      </g>
     </g>
     <g id="text_15">
      <!-- 0.75 -->
      <g transform="translate(28.334375 78.535219)scale(0.1 -0.1)">
       <use xlink:href="#DejaVuSans-48"/>
       <use x="63.623047" xlink:href="#DejaVuSans-46"/>
       <use x="95.410156" xlink:href="#DejaVuSans-55"/>
       <use x="159.033203" xlink:href="#DejaVuSans-53"/>
      </g>
     </g>
    </g>
    <g id="ytick_9">
     <g id="line2d_16">
      <g>
       <use style="stroke:#000000;stroke-width:0.8;" x="57.6" xlink:href="#m5c1f7b60d6" y="41.472"/>
      </g>
     </g>
     <g id="text_16">
      <!-- 1.00 -->
      <g transform="translate(28.334375 45.271219)scale(0.1 -0.1)">
       <use xlink:href="#DejaVuSans-49"/>
       <use x="63.623047" xlink:href="#DejaVuSans-46"/>
       <use x="95.410156" xlink:href="#DejaVuSans-48"/>
       <use x="159.033203" xlink:href="#DejaVuSans-48"/>
      </g>
     </g>
    </g>
   </g>
   <g id="line2d_17">
    <path clip-path="url(#pe6dae8baab)" d="M 76.21228 142.408305 
L 80.848446 152.688617 
L 85.484612 161.960877 
L 90.120777 169.873442 
L 94.756943 176.269581 
L 99.393109 181.193293 
L 104.029275 184.864938 
L 108.665441 187.628744 
L 113.301606 189.879719 
L 117.937772 191.981857 
L 122.573938 194.191825 
L 127.210104 196.601886 
L 131.84627 199.112598 
L 136.482435 201.440527 
L 141.118601 203.159758 
L 145.754767 203.769862 
L 150.390933 202.778337 
L 155.027099 199.783339 
L 159.663264 194.543133 
L 164.29943 187.021804 
L 168.935596 177.405614 
L 173.571762 166.089795 
L 178.207928 153.640402 
L 182.844093 140.739151 
L 187.480259 128.120426 
L 192.116425 116.508992 
L 196.752591 106.564759 
L 201.388757 98.838186 
L 206.024922 93.737322 
L 210.661088 91.505814 
L 215.297254 92.210698 
L 219.93342 95.739362 
L 224.569586 101.806168 
L 229.205751 109.970207 
L 233.841917 119.665824 
L 238.478083 130.246581 
L 243.114249 141.041116 
L 247.750414 151.41647 
L 252.38658 160.841577 
L 257.022746 168.941658 
L 261.658912 175.534027 
L 266.295078 180.637651 
L 270.931243 184.452656 
L 275.567409 187.311133 
L 280.203575 189.6061 
L 284.839741 191.710057 
L 289.475907 193.897162 
L 294.112072 196.283002 
L 298.748238 198.793057 
L 303.384404 201.165841 
L 308.02057 202.990375 
L 312.656736 203.771349 
L 317.292901 203.010482 
L 321.929067 200.290014 
L 326.565233 195.344529 
L 331.201399 188.110149 
L 335.837565 178.744769 
L 340.47373 167.618485 
L 345.109896 155.27825 
L 349.746062 142.394385 
L 354.382228 129.698089 
L 359.018394 117.918647 
L 363.654559 107.727027 
L 368.290725 99.689818 
L 372.926891 94.234792 
L 377.563057 91.627569 
L 382.199223 91.95821 
L 386.835388 95.136998 
L 391.471554 100.899758 
L 396.10772 108.824076 
" style="fill:none;stroke:#0000ff;stroke-linecap:square;stroke-width:5;"/>
   </g>
   <g id="line2d_18">
    <path clip-path="url(#pe6dae8baab)" d="M 76.21228 134.048847 
L 80.848446 143.020711 
L 85.484612 152.541712 
L 90.120777 162.324605 
L 94.756943 172.074246 
L 99.393109 181.496491 
L 104.029275 190.307075 
L 108.665441 198.240186 
L 113.301606 205.056486 
L 117.937772 210.550329 
L 122.573938 214.555969 
L 127.210104 216.952557 
L 131.84627 217.667789 
L 136.482435 216.680087 
L 141.118601 214.019249 
L 145.754767 209.765552 
L 150.390933 204.047328 
L 155.027099 197.037094 
L 159.663264 188.946345 
L 164.29943 180.019175 
L 168.935596 170.524915 
L 173.571762 160.750002 
L 178.207928 150.989341 
L 182.844093 141.537407 
L 187.480259 132.679361 
L 192.116425 124.682447 
L 196.752591 117.787928 
L 201.388757 112.203809 
L 206.024922 108.098562 
L 210.661088 105.596038 
L 215.297254 104.77174 
L 219.93342 105.650534 
L 224.569586 108.205909 
L 229.205751 112.36077 
L 233.841917 117.989766 
L 238.478083 124.923073 
L 243.114249 132.951515 
L 247.750414 141.832879 
L 252.38658 151.299216 
L 257.022746 161.064932 
L 261.658912 170.835399 
L 266.295078 180.315845 
L 270.931243 189.22025 
L 275.567409 197.279972 
L 280.203575 204.251851 
L 284.839741 209.925549 
L 289.475907 214.129894 
L 294.112072 216.73804 
L 298.748238 217.671303 
L 303.384404 216.901526 
L 308.02057 214.451932 
L 312.656736 210.396425 
L 317.292901 204.857358 
L 321.929067 198.001842 
L 326.565233 190.036705 
L 331.201399 181.202253 
L 335.837565 171.765017 
L 340.47373 162.009714 
L 345.109896 152.230658 
L 349.746062 142.72288 
L 354.382228 133.773224 
L 359.018394 125.651699 
L 363.654559 118.603327 
L 368.290725 112.840755 
L 372.926891 108.537838 
L 377.563057 105.824392 
L 382.199223 104.782281 
L 386.835388 105.442946 
L 391.471554 107.786454 
L 396.10772 111.742102 
" style="fill:none;stroke:#000000;stroke-linecap:square;stroke-width:1.5;"/>
   </g>
   <g id="patch_3">
    <path d="M 57.6 307.584 
L 57.6 41.472 
" style="fill:none;stroke:#000000;stroke-linecap:square;stroke-linejoin:miter;stroke-width:0.8;"/>
   </g>
   <g id="patch_4">
    <path d="M 414.72 307.584 
L 414.72 41.472 
" style="fill:none;stroke:#000000;stroke-linecap:square;stroke-linejoin:miter;stroke-width:0.8;"/>
   </g>
   <g id="patch_5">
    <path d="M 57.6 307.584 
L 414.72 307.584 
" style="fill:none;stroke:#000000;stroke-linecap:square;stroke-linejoin:miter;stroke-width:0.8;"/>
   </g>
   <g id="patch_6">
    <path d="M 57.6 41.472 
L 414.72 41.472 
" style="fill:none;stroke:#000000;stroke-linecap:square;stroke-linejoin:miter;stroke-width:0.8;"/>
   </g>
  </g>
 </g>
 <defs>
  <clipPath id="pe6dae8baab">
   <rect height="266.112" width="357.12" x="57.6" y="41.472"/>
  </clipPath>
 </defs>
</svg>
