<?xml version="1.0" encoding="UTF-8" standalone="no"?>
<svg
   xmlns:dc="http://purl.org/dc/elements/1.1/"
   xmlns:cc="http://creativecommons.org/ns#"
   xmlns:rdf="http://www.w3.org/1999/02/22-rdf-syntax-ns#"
   xmlns:svg="http://www.w3.org/2000/svg"
   xmlns="http://www.w3.org/2000/svg"
   xmlns:sodipodi="http://sodipodi.sourceforge.net/DTD/sodipodi-0.dtd"
   xmlns:inkscape="http://www.inkscape.org/namespaces/inkscape"
   inkscape:version="1.0 (1.0+r73+1)"
   sodipodi:docname="lego-circuit.svg"
   viewBox="0 0 582.96039 135.47615"
   height="135.47615"
   width="582.96039"
   xml:space="preserve"
   id="svg1237"
   version="1.1"><metadata
     id="metadata1243"><rdf:RDF><cc:Work
         rdf:about=""><dc:format>image/svg+xml</dc:format><dc:type
           rdf:resource="http://purl.org/dc/dcmitype/StillImage" /><dc:title></dc:title></cc:Work></rdf:RDF></metadata><defs
     id="defs1241" /><sodipodi:namedview
     inkscape:current-layer="g1245"
     inkscape:window-maximized="0"
     inkscape:window-y="20"
     inkscape:window-x="960"
     inkscape:cy="583.14324"
     inkscape:cx="355.6239"
     inkscape:zoom="0.42471591"
     showgrid="false"
     id="namedview1239"
     inkscape:window-height="1036"
     inkscape:window-width="956"
     inkscape:pageshadow="2"
     inkscape:pageopacity="0"
     guidetolerance="10"
     gridtolerance="10"
     objecttolerance="10"
     borderopacity="1"
     bordercolor="#666666"
     pagecolor="#ffffff" /><g
     transform="matrix(1.3333333,0,0,-1.3333333,-9.6229263,996.91614)"
     inkscape:label="Xanadu Edu"
     inkscape:groupmode="layer"
     id="g1245"><g
       id="g1247" /><g
       id="g1249"><g
         transform="matrix(0.5454546,0,0,-0.5454546,-22.46645,765.4487)"
         id="g1251"><path
           id="path1253"
           style="fill:none;stroke:#000000;stroke-width:4.67717;stroke-linecap:round;stroke-linejoin:round;stroke-miterlimit:10;stroke-dasharray:none;stroke-opacity:1"
           d="m 58.36124,52.83298 c 0,-1.16082 0,-1.76312 0,-1.8069 l 8.3e-4,-0.02156 0.003,0.02845 c 0.0025,0.03549 0.02797,0.39038 0.07626,1.06466 0.0483,0.67428 0.0826,2.7936 0.10289,6.35795 0.0203,3.56436 0.0634,6.37737 0.1293,8.43904 0.06591,2.06166 0.14458,3.9448 0.236,5.64941 0.09142,1.70461 0.17355,3.56518 0.2464,5.58173 0.07284,2.01654 0.11961,4.08939 0.1403,6.21857 0.02069,2.12918 0.03114,4.2239 0.03135,6.28415 2e-4,2.06025 0.03383,3.58785 0.10086,4.58281 0.06704,0.99495 0.22125,2.61966 0.46265,4.87411 0.24139,2.2545 0.42765,4.3302 0.55876,6.2272 0.13111,1.897 0.23321,4.1154 0.30629,6.6552 0.07308,2.5398 0.15922,4.6356 0.25844,6.2875 0.09921,1.6518 0.24612,3.3919 0.44072,5.2203 0.19459,1.8284 0.34802,3.4899 0.46028,4.9844 0.11226,1.4945 0.23034,3.3989 0.35423,5.7132 0.12389,2.3143 0.24739,4.2506 0.3705,5.8089 0.12311,1.5584 0.26482,2.9322 0.42513,4.1216 0.16032,1.1893 0.38199,2.6064 0.66501,4.2513 0.28302,1.6449 0.47063,2.9365 0.56283,3.8749 0.0922,0.9384 0.13918,2.4828 0.14095,4.6332 0.0018,2.1504 0.0027,3.2823 0.0028,3.3954 9e-5,0.1132 0.0034,0.1416 0.01,0.0851 0.0093,-0.08 0.13746,-1.1807 0.38445,-3.3022" /></g><g
         transform="matrix(0.5454546,0,0,-0.5454546,-22.46645,765.4487)"
         id="g1255"><path
           id="path1257"
           style="fill:none;stroke:#000000;stroke-width:4.67717;stroke-linecap:round;stroke-linejoin:round;stroke-miterlimit:10;stroke-dasharray:none;stroke-opacity:1"
           d="m 58.73785,49.73495 c 0.27736,-0.41263 0.79338,-0.6545 1.54806,-0.72561 0.75468,-0.07112 1.60193,-0.19301 2.54175,-0.36569 0.93982,-0.17267 2.50805,-0.38543 4.7047,-0.63829 2.19665,-0.25286 4.11024,-0.50314 5.74075,-0.75085 1.63051,-0.2477 2.85465,-0.40763 3.6724,-0.47978 0.81775,-0.07216 1.71671,-0.11866 2.69689,-0.13952 0.98018,-0.02086 2.31125,-0.16321 3.99321,-0.42705 1.68196,-0.26384 2.95562,-0.39789 3.82096,-0.40216 0.86535,-0.0043 1.74033,0.0215 2.62493,0.07732 0.8846,0.05583 1.47771,0.19807 1.77934,0.42673 0.30163,0.22866 0.4533,2.8832 0.45503,7.96362 0.0017,5.08042 0.03715,8.08579 0.10626,9.01612 0.0691,0.93033 0.15068,1.76693 0.24473,2.5098 0.09405,0.74288 0.31527,1.08293 0.66365,1.02017 0.34837,-0.06276 0.62059,-0.19248 0.81665,-0.38914 0.19605,-0.19667 0.49528,-0.2885 0.89769,-0.27548 0.40241,0.01302 0.80821,0.09823 1.21742,0.25565 0.40921,0.15741 0.75892,0.35891 1.04912,0.60448 0.29021,0.24557 0.70041,0.99322 1.2306,2.24294 0.53019,1.24972 0.90387,2.25625 1.12103,3.01956 0.21718,0.76331 0.3203,1.41058 0.30938,1.9418 -0.01092,0.53123 -0.16656,1.08221 -0.46691,1.65294 -0.30036,0.57072 -0.60367,1.01341 -0.90992,1.32805 -0.30626,0.31464 -0.76318,0.57533 -1.37076,0.78208 -0.60758,0.20674 -0.9985,0.39185 -1.17276,0.55534 -0.17427,0.16348 -0.27101,1.22514 -0.29022,3.18497 -0.01921,1.95982 0.0059,3.65729 0.07536,5.0924 0.06944,1.43511 0.10501,2.4147 0.1067,2.93877 0.0017,0.52407 0.44131,0.88352 1.31885,1.07836 0.87755,0.19484 1.5136,0.46426 1.90817,0.80827 0.39456,0.344 0.66489,0.71076 0.81099,1.10027 0.1461,0.38951 0.2728,0.86793 0.38,1.43526 0.1073,0.56734 0.1393,1.12498 0.0959,1.67293 -0.0433,0.54795 -0.2667,1.16547 -0.67016,1.85256 -0.40349,0.68709 -0.73091,1.15267 -0.98225,1.39675 -0.25135,0.24407 -0.58364,0.47498 -0.99688,0.69271 -0.41324,0.21777 -0.77157,0.49497 -1.07498,0.83167 -0.30342,0.3366 -0.45606,1.4808 -0.45792,3.4324 -0.0019,1.9517 0.01386,3.323 0.04717,4.114 0.03331,0.7911 0.05005,1.7446 0.05022,2.8607 1.7e-4,1.1161 0.01908,1.9351 0.05674,2.4569 0.03766,0.5218 0.20497,0.739 0.50195,0.6516 0.29696,-0.0875 0.83298,-0.1154 1.60804,-0.084 0.77506,0.0315 1.35458,0.2167 1.73857,0.5556 0.384,0.3389 0.6537,0.7705 0.8091,1.2948 0.1554,0.5243 0.2274,1.2421 0.2162,2.1535 -0.0113,0.9113 -0.1139,1.6367 -0.3079,2.1764 -0.194,0.5396 -0.4629,1.0209 -0.8066,1.4437 -0.34369,0.4229 -0.78024,0.8568 -1.30963,1.3016 -0.5294,0.4448 -0.97067,0.787 -1.32381,1.0266 -0.35315,0.2396 -0.559,0.7024 -0.61755,1.3886 -0.05855,0.6862 -0.0075,1.5366 0.15329,2.5514 0.16075,1.0147 0.24235,2.0925 0.2448,3.2334 0.0024,1.1408 0.39542,1.7121 1.17894,1.7138 0.78351,0.002 1.36448,0.1206 1.74286,0.3567 0.3785,0.236 0.6817,0.5768 0.9098,1.0223 0.228,0.4456 0.4326,0.9773 0.6138,1.5951 0.1812,0.6179 0.3022,1.358 0.3629,2.2202 0.0608,0.8623 -0.0443,1.4813 -0.3153,1.8569 -0.2711,0.3756 -0.5955,0.7181 -0.9733,1.0275 -0.3777,0.3093 -0.88752,0.6432 -1.52928,1.0015 -0.64176,0.3583 -1.00988,0.761 -1.10436,1.2082 -0.09448,0.4472 -0.13419,0.998 -0.11913,1.6526 0.01506,0.6545 0.11036,1.7241 0.28592,3.2087 0.17555,1.4846 0.31009,2.8767 0.40363,4.1764 0.09354,1.2997 0.19093,2.3033 0.29217,3.0107 0.10125,0.7075 0.20719,1.2811 0.31783,1.7209 0.11064,0.4398 0.16686,0.7879 0.16869,1.0443 0.0018,0.2563 0.0028,0.3913 0.0029,0.4048 l 2.6e-4,0.006 0.0021,-0.0363 c 0.0021,-0.0481 0.03151,-0.7089 0.08813,-1.9825" /></g><g
         transform="matrix(0.5454546,0,0,-0.5454546,-22.46645,765.4487)"
         id="g1259"><path
           id="path1261"
           style="fill:none;stroke:#000000;stroke-width:4.67717;stroke-linecap:round;stroke-linejoin:round;stroke-miterlimit:10;stroke-dasharray:none;stroke-opacity:1"
           d="m 68.17808,164.4965 c -0.23015,-0.1619 -0.4603,-0.3238 -0.69044,-0.4856" /></g><g
         transform="matrix(0.5454546,0,0,-0.5454546,-22.46645,765.4487)"
         id="g1263"><path
           id="path1265"
           style="fill:none;stroke:#000000;stroke-width:4.67717;stroke-linecap:round;stroke-linejoin:round;stroke-miterlimit:10;stroke-dasharray:none;stroke-opacity:1"
           d="m 67.32446,163.475 c -0.79346,-0.297 -1.22876,-0.4599 -1.30587,-0.4887 -0.05421,-0.0203 -0.01,-0.0244 0.13273,-0.0122 0.1427,0.0121 0.75128,0.0638 1.82575,0.1551 1.07448,0.0914 2.41792,0.1467 4.03033,0.166 1.61241,0.0194 3.50172,0.029 5.66795,0.029 2.16623,1e-4 3.98388,-0.027 5.45296,-0.0811 2.12379,-0.0782 6.10327,-0.2172 11.93842,-0.4169" /></g><g
         transform="matrix(0.5454546,0,0,-0.5454546,-22.46645,765.4487)"
         id="g1267"><path
           id="path1269"
           style="fill:none;stroke:#000000;stroke-width:4.67717;stroke-linecap:round;stroke-linejoin:round;stroke-miterlimit:10;stroke-dasharray:none;stroke-opacity:1"
           d="m 124.9454,170.0715 c 0.0465,-1.5966 -0.0675,-2.3858 -0.3421,-2.3675 -0.1944,0.013 -0.3011,1.6339 -0.3202,4.8628 -0.019,3.2288 0.0135,5.7738 0.0975,7.6349 0.0839,1.8611 0.1876,3.8688 0.3108,6.023 0.1232,2.1543 0.2551,4.2615 0.3957,6.3217 0.1406,2.0603 0.283,4.3041 0.4274,6.7316 0.1443,2.4274 0.2698,4.7406 0.3765,6.9394 0.1067,2.1989 0.2039,3.6667 0.2918,4.4036 0.0879,0.7369 0.1346,1.1282 0.1401,1.174 0.005,0.0458 0.003,0.0521 -0.007,0.019 -0.01,-0.0331 -0.0937,-0.3162 -0.2516,-0.8492 -0.2319,-0.7827 -0.3924,-1.8086 -0.4816,-3.0779" /></g><g
         transform="matrix(0.5454546,0,0,-0.5454546,-22.46645,765.4487)"
         id="g1271"><path
           id="path1273"
           style="fill:none;stroke:#000000;stroke-width:4.67717;stroke-linecap:round;stroke-linejoin:round;stroke-miterlimit:10;stroke-dasharray:none;stroke-opacity:1"
           d="m 127.2423,167.8457 c 0.0301,-0.6727 0.6995,-1.2165 2.008,-1.6314 1.3085,-0.4148 2.4882,-0.7458 3.5392,-0.9927 1.051,-0.247 2.1517,-0.4609 3.3022,-0.6417 1.1505,-0.1809 2.1424,-0.3113 2.9756,-0.3915 0.8333,-0.0802 2.4192,-0.1215 4.7576,-0.1238 2.3385,-0.002 3.7929,0.0652 4.3632,0.2025 0.5704,0.1373 0.9841,0.3361 1.2411,0.5964 0.2571,0.2603 0.4166,0.6192 0.4788,1.0766 0.0621,0.4575 0.0933,1.306 0.0935,2.5457 2e-4,1.2397 -0.0257,2.324 -0.0776,3.253 -0.052,0.9289 -0.0792,1.7552 -0.0816,2.4788 -0.002,0.7236 0.1856,1.1264 0.5641,1.2084 0.3786,0.082 0.9582,0.1154 1.7388,0.1004 0.7807,-0.0151 1.4202,-0.0838 1.9186,-0.2061 0.4985,-0.1224 0.9732,-0.1929 1.4242,-0.2116 0.451,-0.0187 0.852,0.0294 1.2029,0.1442 0.351,0.1149 0.672,0.3393 0.9628,0.6732 0.2909,0.334 0.5079,0.7465 0.651,1.2377 0.1431,0.4911 0.2157,1.0043 0.2178,1.5396 0.002,0.5353 -0.1144,1.0571 -0.3495,1.5654 -0.235,0.5082 -0.4781,0.9008 -0.729,1.1777 -0.2509,0.2768 -0.8375,0.5342 -1.7595,0.7722 -0.9221,0.2379 -1.6185,0.4548 -2.0892,0.6505 -0.4707,0.1956 -0.8212,0.3261 -1.0514,0.3913 -0.2303,0.0653 -0.4344,0.2877 -0.6124,0.6674 -0.178,0.3797 -0.2679,1.8542 -0.2698,4.4234 -0.002,2.5693 0.3861,3.8633 1.1639,3.8821 0.7778,0.0189 1.3453,0.1184 1.7024,0.2988 0.3572,0.1804 0.8922,0.6058 1.6051,1.2765 0.7128,0.6706 1.1884,1.2079 1.4266,1.6118 0.2382,0.404 0.3897,0.9164 0.4544,1.5374 0.0647,0.6209 0.022,1.1344 -0.1282,1.5406 -0.1502,0.4061 -0.5502,0.9578 -1.2,1.655 -0.6499,0.6973 -1.2155,1.2016 -1.697,1.5129 -0.4815,0.3112 -0.9884,0.4879 -1.5208,0.5298 -0.5324,0.042 -0.8248,0.3616 -0.8771,0.9588 -0.0523,0.5973 -0.0785,1.2835 -0.0785,2.0588 0,0.7753 0.0168,1.9491 0.0502,3.5215 0.0335,1.5724 -0.6899,2.4437 -2.1703,2.6139 -1.4803,0.1703 -2.989,0.4325 -4.526,0.7867 -1.5371,0.3541 -2.8364,0.6757 -3.8981,0.9648 -1.0617,0.289 -1.9789,0.5232 -2.7517,0.7026 -0.7728,0.1794 -1.7828,0.3548 -3.03,0.5263 -1.2472,0.1714 -2.3891,0.2678 -3.4255,0.2891 -1.0365,0.0213 -1.8461,0.017 -2.429,-0.013 -0.5829,-0.0299 -1.1096,-0.0975 -1.5801,-0.2028 -0.6694,-0.1498 -0.963,-0.6182 -0.8808,-1.4052" /></g><g
         transform="matrix(0.5454546,0,0,-0.5454546,-22.46645,765.4487)"
         id="g1275"><path
           id="path1277"
           style="fill:none;stroke:#000000;stroke-width:4.67717;stroke-linecap:round;stroke-linejoin:round;stroke-miterlimit:10;stroke-dasharray:none;stroke-opacity:1"
           d="m 187.3736,109.4351 c 0,-0.3951 0,-0.6001 0,-0.615 l -1e-4,-0.003 -0.004,0.0558 c -0.003,0.0457 -0.0289,0.503 -0.0788,1.3719 -0.0499,0.8689 -0.0758,3.6218 -0.0776,8.2587 -0.002,4.6369 -0.0289,7.8894 -0.0809,9.7576 -0.0519,1.8681 -0.1277,3.5743 -0.2273,5.1188 -0.0995,1.5444 -0.1793,2.9891 -0.2393,4.334 -0.0599,1.3449 -0.0909,7.1654 -0.0928,17.4615 -0.002,10.2961 0.0149,16.1892 0.0503,17.6792 0.0354,1.4901 0.0542,3.601 0.0565,6.3326 0.002,2.7317 -0.0312,5.1177 -0.1003,7.1579 -0.0691,2.0403 -0.1047,3.7837 -0.1067,5.2301 -0.002,1.4464 -0.0302,3.1395 -0.0844,5.0793 -0.0542,1.9398 -0.1347,3.7495 -0.2416,5.4292 -0.1069,1.6798 -0.1612,3.6112 -0.1631,5.7945 -0.002,2.1832 -0.003,3.4319 -0.003,3.7462 -3e-4,0.3142 0.0342,0.3367 0.1034,0.0673 0.0984,-0.3834 0.6137,-2.3894 1.5459,-6.0181" /></g><g
         transform="matrix(0.5454546,0,0,-0.5454546,-22.46645,765.4487)"
         id="g1279"><path
           id="path1281"
           style="fill:none;stroke:#000000;stroke-width:4.67717;stroke-linecap:round;stroke-linejoin:round;stroke-miterlimit:10;stroke-dasharray:none;stroke-opacity:1"
           d="m 191.3656,107.1264 c -0.716,0.004 -1.14,-0.0347 -1.272,-0.1146 -0.0923,-0.0559 -0.1523,-0.0921 -0.1798,-0.1088 -0.0275,-0.0166 0.007,-0.0251 0.1036,-0.0255 0.0966,-4e-4 0.3069,-0.001 0.6309,-0.003 0.324,-10e-4 0.8646,-0.0929 1.6219,-0.2748 0.7572,-0.1819 1.7912,-0.3832 3.1021,-0.604 1.3109,-0.2207 2.9264,-0.446 4.8467,-0.6756 1.9202,-0.2297 3.7024,-0.3633 5.3465,-0.4008 1.6442,-0.0376 2.67,0.0155 3.0777,0.1592 0.4076,0.1437 0.8294,0.3433 1.2654,0.5988 0.4361,0.2556 0.948,0.4563 1.5359,0.602 0.588,0.1458 1.0834,0.2197 1.4864,0.2217 0.403,0.002 0.986,0.2058 1.7492,0.6112 0.7631,0.4054 1.4287,0.6371 1.9965,0.695 0.5679,0.0579 0.9239,0.3603 1.0681,0.9074 0.1441,0.547 0.2171,2.6422 0.219,6.2855 0.002,3.6434 0.0909,5.5546 0.267,5.7336 0.1762,0.179 0.2661,0.581 0.2699,1.2058 0.004,0.6249 0.2315,0.9819 0.6832,1.071 0.4517,0.0892 0.8735,0.2371 1.2652,0.4437 0.3918,0.2067 0.7477,0.4598 1.0677,0.7593 0.3201,0.2994 0.6462,0.7077 0.9786,1.2248 0.3323,0.5171 0.6224,1.0811 0.8701,1.6922 0.2477,0.611 0.4307,1.2956 0.5488,2.0538 0.118,0.7582 0.1878,1.7888 0.2091,3.0918 0.0214,1.3029 -0.0362,2.1438 -0.1726,2.5224 -0.1365,0.3787 -0.3496,0.6989 -0.6393,0.9608 -0.2897,0.2619 -0.7837,0.5802 -1.482,0.955 -0.6983,0.3747 -1.3085,0.6544 -1.8304,0.8389 -0.522,0.1846 -0.98,0.2863 -1.3739,0.3051 -0.3939,0.0187 -0.6365,0.3858 -0.728,1.1011 -0.0914,0.7154 -0.1466,1.841 -0.1657,3.3767 -0.019,1.5358 -0.0724,2.8629 -0.1603,3.9812 -0.0879,1.1184 0.444,1.6861 1.5957,1.7033 1.1517,0.0172 1.9241,0.1512 2.317,0.402 0.393,0.2508 0.7428,0.6092 1.0493,1.075 0.3066,0.4658 0.5428,1.0366 0.7087,1.7123 0.166,0.6758 0.2613,1.3756 0.2862,2.0996 0.0249,0.7239 -0.0735,1.3076 -0.2953,1.751 -0.2217,0.4435 -0.5824,0.9428 -1.0819,1.498 -0.4995,0.5552 -0.948,0.9654 -1.3456,1.2304 -0.3975,0.2651 -0.7783,0.4545 -1.1423,0.5682 -0.3639,0.1137 -0.7587,0.1717 -1.1843,0.174 -0.4256,0.002 -0.7125,0.0629 -0.8609,0.1819 -0.1483,0.119 -0.2085,0.4869 -0.1804,1.1036 0.0281,0.6167 0.1056,1.4228 0.2326,2.4181 0.1269,0.9954 0.1997,2.6811 0.2184,5.0572 0.0186,2.3761 0.0112,3.709 -0.0222,3.9988 -0.0335,0.2897 0.089,0.5192 0.3675,0.6883 0.2786,0.1692 0.5376,0.3698 0.7772,0.6017 0.2396,0.232 0.6593,0.4116 1.2592,0.5389 0.5999,0.1273 1.0388,0.3377 1.3166,0.6313 0.2778,0.2936 0.4627,0.6867 0.5547,1.1795 0.0919,0.4928 0.1313,1.1035 0.1181,1.832 -0.0131,0.7285 -0.1561,1.2281 -0.4288,1.4987 -0.2727,0.2707 -0.8507,0.6423 -1.734,1.115 -0.8833,0.4726 -1.5828,0.7779 -2.0986,0.9159 -0.5159,0.138 -0.9126,0.2081 -1.1901,0.2102 -0.2776,0.002 -0.4634,0.2292 -0.5575,0.681 -0.0942,0.4518 -0.1413,0.9654 -0.1415,1.5408 -2e-4,0.5754 0.0837,1.3639 0.2518,2.3654 0.1681,1.0015 0.2822,2.0611 0.3423,3.1788" /></g><g
         transform="matrix(0.5454546,0,0,-0.5454546,-22.46645,765.4487)"
         id="g1283"><path
           id="path1285"
           style="fill:none;stroke:#000000;stroke-width:4.67717;stroke-linecap:round;stroke-linejoin:round;stroke-miterlimit:10;stroke-dasharray:none;stroke-opacity:1"
           d="m 217.2766,185.9924 c 2.4352,-0.1203 3.8104,-0.159 4.1257,-0.116 0.2212,0.0301 0.5054,0.2382 0.8525,0.6244 0.347,0.3861 0.5873,0.9014 0.7207,1.5458 0.1334,0.6444 0.2023,1.4429 0.2067,2.3955 0.004,0.9527 -0.1262,1.5783 -0.3916,1.8768 -0.2654,0.2986 -0.935,0.5376 -2.0086,0.717 -1.0736,0.1794 -1.901,0.3769 -2.4822,0.5925 -0.5811,0.2156 -0.984,0.4304 -1.2085,0.6442 -0.2246,0.2138 -0.3817,0.515 -0.4713,0.9036 -0.0896,0.3885 -0.1366,2.0035 -0.1409,4.8451 -0.004,2.8416 -0.0307,4.5209 -0.0793,5.0382 -0.0485,0.5172 -0.212,1.583 -0.4906,3.1975 -0.2786,1.6144 -0.4217,2.6936 -0.4293,3.2376 -0.008,0.544 -0.2155,0.9203 -0.6234,1.1287 -0.4079,0.2084 -0.919,0.3666 -1.5331,0.4745 -0.6141,0.1079 -1.7913,0.1649 -3.5316,0.1711 -1.7403,0.006 -3.4122,-0.0344 -5.0156,-0.1217 -1.6034,-0.0872 -2.8715,-0.1645 -3.8043,-0.2316 -0.9328,-0.0672 -2.5128,-0.2783 -4.7401,-0.6334 -2.2272,-0.3552 -3.5188,-0.604 -3.8748,-0.7466" /></g><g
         transform="matrix(0.5454546,0,0,-0.5454546,-22.46645,765.4487)"
         id="g1287"><path
           id="path1289"
           style="fill:none;stroke:#000000;stroke-width:4.67717;stroke-linecap:round;stroke-linejoin:round;stroke-miterlimit:10;stroke-dasharray:none;stroke-opacity:1"
           d="m 265.3817,104.2532 c 0.5133,-0.7914 0.7715,-1.4196 0.7745,-1.8846 0.002,-0.3207 -0.1443,-0.4743 -0.4394,-0.4609 -0.2951,0.0134 -0.4897,0.192 -0.5837,0.5358 -0.0941,0.3439 -0.1411,1.6208 -0.1412,3.8308 0,2.21 -0.0499,3.9331 -0.1497,5.1693 -0.0998,1.2362 -0.2634,2.7658 -0.4907,4.5888 -0.2273,1.8229 -0.4231,3.4386 -0.5873,4.8469 -0.1642,1.4083 -0.319,3.2152 -0.4643,5.4206 -0.1453,2.2054 -0.26,3.9574 -0.3441,5.2561 -0.0842,1.2988 -0.1785,2.5101 -0.283,3.634 -0.1045,1.1239 -0.3268,3.1042 -0.6668,5.9409 -0.3399,2.8366 -0.5373,4.5745 -0.592,5.2135 -0.0547,0.639 -0.0851,1.6208 -0.0911,2.9455 -0.006,1.3247 0.008,2.6287 0.0411,3.9119 0.0334,1.2832 0.0334,2.3126 0,3.0883 -0.0335,0.7756 0.1027,1.0771 0.4085,0.9044 0.438,-0.2473 1.1693,-1.2593 2.1939,-3.0358" /></g><g
         transform="matrix(0.5454546,0,0,-0.5454546,-22.46645,765.4487)"
         id="g1291"><path
           id="path1293"
           style="fill:none;stroke:#000000;stroke-width:4.67717;stroke-linecap:round;stroke-linejoin:round;stroke-miterlimit:10;stroke-dasharray:none;stroke-opacity:1"
           d="m 267.7814,104.3252 c -0.0592,-0.7236 -0.0236,-1.2584 0.107,-1.6044 0.0897,-0.238 0.304,-0.2394 0.6429,-0.004 0.3389,0.2351 0.709,0.3982 1.1103,0.4893 0.4013,0.0911 1.2307,0.1501 2.488,0.177 1.2573,0.0269 2.4156,-0.0109 3.4748,-0.1132 1.0592,-0.1023 2.4861,-0.1637 4.2806,-0.1842 1.7945,-0.0205 2.893,0.0371 3.2955,0.1727 0.4025,0.1356 0.827,0.4062 1.2734,0.8119 0.4463,0.4057 0.6807,0.8688 0.7031,1.3895 0.0223,0.5207 -0.0619,1.6741 -0.2527,3.4601 -0.1908,1.786 -0.3676,3.3202 -0.5303,4.6028 -0.1627,1.2825 -0.2451,2.1267 -0.2473,2.5324 -0.002,0.4058 0.1902,0.5576 0.5772,0.4553 0.3869,-0.1022 1.1995,-0.1626 2.4376,-0.1813 1.2381,-0.0186 2.0162,0.012 2.334,0.0919 0.3179,0.0799 0.6782,0.2647 1.081,0.5543 0.4027,0.2897 0.7394,0.5686 1.0101,0.8368 0.2707,0.2681 0.552,0.6569 0.844,1.1662 0.2921,0.5093 0.4673,1.0437 0.5256,1.6031 0.0583,0.5594 -0.04,1.0691 -0.295,1.5289 -0.2549,0.4598 -0.577,0.8172 -0.966,1.0721 -0.389,0.2548 -1.0694,0.5588 -2.0412,0.9118 -0.9717,0.353 -1.7758,0.6027 -2.4122,0.7491 -0.6363,0.1463 -1.3192,0.2217 -2.0484,0.2262 -0.7292,0.005 -1.0949,0.535 -1.097,1.5917 -0.002,1.0567 -0.0555,1.8542 -0.1601,2.3926 -0.1047,0.5383 -0.2302,0.9831 -0.3766,1.3344 -0.1464,0.3512 0.1144,0.4926 0.7824,0.4242 0.6681,-0.0685 1.194,-0.0626 1.5778,0.0175 0.3838,0.0801 1.059,0.3216 2.0256,0.7245 0.9667,0.4028 1.6728,0.7843 2.1184,1.1443 0.4456,0.36 0.7491,0.6948 0.9105,1.0044 0.1614,0.3097 0.2387,0.6967 0.2318,1.1611 -0.007,0.4644 -0.2031,0.9031 -0.5888,1.3161 -0.3858,0.413 -0.8214,0.7862 -1.3069,1.1196 -0.4855,0.3333 -0.981,0.5829 -1.4866,0.7489 -0.5056,0.1659 -1.1686,0.2529 -1.9888,0.2612 -0.8203,0.008 -1.3775,0.0654 -1.6715,0.1712 -0.2941,0.1059 -0.5554,0.5748 -0.7839,1.4067 -0.2285,0.832 -0.4053,1.7812 -0.5303,2.8477 -0.125,1.0665 -0.2239,2.06 -0.2967,2.9805 -0.0728,0.9206 -0.1187,1.711 -0.1377,2.3713 -0.019,0.6603 -0.1464,1.4413 -0.3821,2.343 -0.2357,0.9017 -0.5657,1.9777 -0.9902,3.228 -0.4244,1.2503 -0.7062,2.1344 -0.8452,2.6524 -0.1391,0.5179 -0.3014,0.6334 -0.487,0.3465 -0.1856,-0.2869 -0.4833,-0.5115 -0.8929,-0.6737 -0.4096,-0.1622 -1.2203,-0.2388 -2.4322,-0.2299 -1.2119,0.009 -2.3692,0.0634 -3.4719,0.1635 -1.1028,0.1001 -2.3572,0.1704 -3.7631,0.2111 -1.406,0.0407 -2.3814,0.0537 -2.9262,0.039 -0.5449,-0.0147 -1.2625,-0.1445 -2.1531,-0.3894 -0.8906,-0.2449 -1.1555,-0.6861 -0.7948,-1.3238" /></g><g
         transform="matrix(0.5454546,0,0,-0.5454546,-22.46645,765.4487)"
         id="g1295"><path
           id="path1297"
           style="fill:none;stroke:#000000;stroke-width:4.67717;stroke-linecap:round;stroke-linejoin:round;stroke-miterlimit:10;stroke-dasharray:none;stroke-opacity:1"
           d="m 321.806,45.91166 c -0.2709,0.01535 -0.4189,-0.12925 -0.4439,-0.4338 -0.0178,-0.21498 -0.0271,-0.32847 -0.0281,-0.34046 -10e-4,-0.012 -0.004,0.02933 -0.008,0.12397 -0.004,0.09464 -0.0446,0.99006 -0.1211,2.68624 -0.0765,1.69619 -0.1576,3.26219 -0.2432,4.698 -0.0857,1.43581 -0.1893,3.37346 -0.3108,5.81294 -0.1215,2.43948 -0.2034,4.45942 -0.2457,6.05981 -0.0423,1.60038 -0.0658,3.68746 -0.0705,6.26123 -0.005,2.57378 0.008,4.39514 0.0382,5.4641 0.0301,1.06896 0.0787,2.12662 0.1457,3.17297 0.067,1.04636 0.1302,2.57358 0.1896,4.58167 0.0593,2.00809 0.0901,3.50218 0.0924,4.48228 0.002,0.98009 -0.1002,2.53322 -0.3071,4.65939 -0.207,2.12617 -0.3219,3.55415 -0.3449,4.28395 -0.0229,0.7298 -0.1294,1.12804 -0.3196,1.19472 -0.273,0.09575 -0.6589,0.52409 -1.1574,1.28502" /></g><g
         transform="matrix(0.5454546,0,0,-0.5454546,-22.46645,765.4487)"
         id="g1299"><path
           id="path1301"
           style="fill:none;stroke:#000000;stroke-width:4.67717;stroke-linecap:round;stroke-linejoin:round;stroke-miterlimit:10;stroke-dasharray:none;stroke-opacity:1"
           d="m 323.274,44.98573 c 0.2097,-0.71681 0.0595,-1.13493 -0.4507,-1.25435 -0.3615,-0.08463 -0.5655,-0.13238 -0.6119,-0.14324 -0.0464,-0.01086 -0.029,-0.01943 0.0523,-0.02572 0.0813,-0.0063 0.4388,-0.0339 1.0725,-0.08286 0.6336,-0.04897 1.3052,-0.07365 2.0148,-0.07405 0.7095,-4e-4 1.4751,-0.04984 2.2968,-0.14832 0.8217,-0.09847 1.9959,-0.26956 3.5227,-0.51328 1.5268,-0.24372 2.7603,-0.41298 3.7004,-0.50777 0.9401,-0.0948 1.8679,-0.16094 2.7834,-0.19843 0.9155,-0.03749 2.0552,-0.05624 3.4192,-0.05624 1.364,0 2.1612,0.1256 2.3915,0.37681 0.2303,0.2512 0.4083,0.71184 0.534,1.38192 0.1257,0.67008 0.2174,1.28633 0.2749,1.84876 0.0576,0.56243 0.0876,2.32675 0.0901,5.29296 0.002,2.96622 -0.007,4.9 -0.0277,5.80136 -0.0209,0.90136 0.6012,1.353 1.8663,1.35491 1.2652,0.0019 2.0268,0.10241 2.2849,0.3015 0.2581,0.1991 0.4501,0.57645 0.576,1.13207 0.1259,0.55561 0.1832,1.19157 0.1719,1.90787 -0.0114,0.7163 -0.1833,1.28369 -0.5159,1.70216 -0.3326,0.41848 -0.6491,0.73564 -0.9497,0.95148 -0.3005,0.21584 -0.6514,0.37812 -1.0526,0.48684 -0.4012,0.10871 -0.7749,0.17162 -1.1211,0.18873 -0.3462,0.0171 -0.5926,0.05431 -0.7392,0.11161 -0.1466,0.05731 -0.2208,1.58995 -0.2227,4.59794 -0.002,3.00798 -0.0217,4.92104 -0.0593,5.73916 -0.0377,0.81813 0.081,1.25679 0.356,1.31598 0.275,0.05919 0.684,0.05335 1.2269,-0.01752 0.543,-0.07087 1.0466,-0.09208 1.5108,-0.06363 0.4642,0.02845 0.8863,0.24741 1.2662,0.65689 0.38,0.40948 0.6243,0.8289 0.733,1.25829 0.1088,0.42938 0.1669,0.88862 0.1744,1.37771 0.007,0.4891 -0.1167,0.95276 -0.3724,1.39099 -0.2558,0.43824 -0.8297,0.88191 -1.7219,1.33103 -0.8921,0.44912 -1.527,0.74831 -1.9047,0.89756 -0.3777,0.14925 -0.6205,0.63482 -0.7284,1.4567 -0.1078,0.82188 -0.179,1.719 -0.2134,2.69136 -0.0344,0.97236 -0.0524,2.59428 -0.0541,4.86577 -0.002,2.27149 -0.082,4.18217 -0.2408,5.73205 -0.1588,1.54987 -0.5022,2.35267 -1.03,2.40847 -0.5279,0.0558 -1.1038,0.1625 -1.7277,0.3203 -0.6239,0.1578 -1.9988,0.2471 -4.1246,0.2679 -2.1259,0.0209 -5.3592,0.0313 -9.6999,0.0313 -4.3407,0 -7.202,0.1774 -8.584,0.5321" /></g><g
         transform="matrix(0.5454546,0,0,-0.5454546,-22.46645,765.4487)"
         id="g1303"><path
           id="path1305"
           style="fill:none;stroke:#000000;stroke-width:4.67717;stroke-linecap:round;stroke-linejoin:round;stroke-miterlimit:10;stroke-dasharray:none;stroke-opacity:1"
           d="m 372.0579,105.2309 c 0.0305,-0.9367 -0.0262,-1.6517 -0.1701,-2.1451 -0.0986,-0.3381 -0.153,-0.5246 -0.1633,-0.5596 -0.0101,-0.035 -0.0152,0.0586 -0.0152,0.2806 0,0.222 0,1.4062 0,3.5526 0,2.1463 -0.008,4.0107 -0.0249,5.5929 -0.0166,1.5823 -0.0249,3.3431 -0.0251,5.2825 -2e-4,1.9393 -0.018,3.5344 -0.0534,4.7853 -0.0354,1.2508 -0.1568,2.9213 -0.3642,5.0114 -0.2074,2.0902 -0.3789,3.6728 -0.5143,4.7479 -0.1355,1.0752 -0.3617,2.6098 -0.6786,4.604 -0.317,1.9942 -0.5467,3.5593 -0.6893,4.6955 -0.1426,1.1362 -0.2477,2.2684 -0.3153,3.3966 -0.0677,1.1283 -0.1028,3.6578 -0.1054,7.5886 -0.003,3.9309 -0.0114,6.4522 -0.0264,7.564 -0.0151,1.1118 -0.0479,2.0272 -0.0984,2.7463 -0.0504,0.7191 -0.1026,1.9552 -0.1566,3.7083 -0.054,1.7532 -0.1006,3.7672 -0.1399,6.0419 -0.0394,2.2748 -0.075,3.9384 -0.1068,4.9909 -0.0318,1.0525 -0.101,2.4654 -0.2075,4.2386 -0.1065,1.7732 -0.1701,3.6678 -0.191,5.6838 -0.0209,2.016 -0.0846,3.7039 -0.1911,5.0638 -0.1065,1.3598 -0.1609,3.4535 -0.1632,6.2809 -0.002,2.8273 -0.0202,4.7653 -0.0537,5.814 -0.0334,1.0486 -0.0502,2.4544 -0.0502,4.2174 0,1.7631 0.0355,2.9156 0.1065,3.4577 0.0709,0.542 0.1317,0.7379 0.1823,0.5876 0.0724,-0.2149 0.3001,-0.8912 0.6831,-2.0287" /></g><g
         transform="matrix(0.5454546,0,0,-0.5454546,-22.46645,765.4487)"
         id="g1307"><path
           id="path1309"
           style="fill:none;stroke:#000000;stroke-width:4.67717;stroke-linecap:round;stroke-linejoin:round;stroke-miterlimit:10;stroke-dasharray:none;stroke-opacity:1"
           d="m 375.1438,102.5909 c -0.2351,-0.5788 -0.1749,-0.9887 0.1806,-1.2295 0.2492,-0.1688 0.7459,-0.3249 1.4899,-0.4682 0.744,-0.1434 1.861,-0.2793 3.3507,-0.4077 1.4898,-0.1285 3.0635,-0.2785 4.7212,-0.45 1.6577,-0.17155 2.8241,-0.27827 3.4992,-0.32015 0.6751,-0.04189 1.8442,-0.06516 3.5074,-0.0698 1.6631,-0.0046 2.8316,0.05338 3.5055,0.1741 0.6739,0.12072 1.2022,0.28975 1.5848,0.50705 0.3826,0.2174 0.576,0.7621 0.5801,1.6343 0.004,0.8721 -0.0742,2.0235 -0.2351,3.454 -0.1609,1.4305 -0.2592,2.6263 -0.295,3.5874 -0.0357,0.9611 -0.0536,2.3997 -0.0536,4.3157 0,1.9161 -0.0264,3.2105 -0.0791,3.8831 -0.0527,0.6727 -0.0799,1.131 -0.0816,1.3748 -0.002,0.2439 0.2116,0.3843 0.6398,0.4211 0.4281,0.0369 0.7617,0.1316 1.0006,0.2842 0.2389,0.1525 0.5799,0.5694 1.023,1.2505 0.443,0.6812 0.7655,1.295 0.9674,1.8414 0.2018,0.5464 0.3142,1.0589 0.337,1.5375 0.0228,0.4786 -0.1289,0.9786 -0.455,1.5 -0.3261,0.5214 -0.7029,1.0496 -1.1304,1.5845 -0.4275,0.5349 -0.901,1.0627 -1.4207,1.5836 -0.5198,0.5208 -0.9497,0.8292 -1.29,0.9251 -0.3402,0.0959 -0.5656,0.2982 -0.676,0.6071 -0.1104,0.3088 -0.1657,1.3382 -0.1657,3.0881 0,1.7499 -0.0618,3.243 -0.1854,4.4792 -0.1236,1.2363 -0.221,2.2754 -0.2922,3.1174 -0.0711,0.8419 -0.1077,1.5348 -0.1096,2.0786 -0.002,0.5437 0.1782,0.8578 0.5404,0.9421 0.3621,0.0843 0.9795,0.3042 1.8522,0.6597 0.8726,0.3555 1.4278,0.6974 1.6653,1.0256 0.2376,0.3283 0.392,0.7653 0.4634,1.3111 0.0713,0.5458 0.0996,1.2742 0.0849,2.1853 -0.0146,0.9111 -0.0903,1.5178 -0.2268,1.82 -0.1366,0.3023 -0.3786,0.5956 -0.7261,0.8798 -0.3475,0.2843 -0.7765,0.5426 -1.287,0.7751 -0.5105,0.2324 -0.9767,0.3882 -1.3985,0.4672 -0.4219,0.0791 -0.776,0.205 -1.0623,0.3777 -0.2863,0.1726 -0.4409,1.0732 -0.4639,2.7015 -0.023,1.6283 -0.0344,4.1436 -0.0344,7.5457 0,3.4021 -0.0786,5.5646 -0.2357,6.4874 -0.1571,0.9229 -0.029,1.4054 0.3842,1.4476 0.4133,0.0422 0.9464,0.5128 1.5994,1.412 0.653,0.8991 1.1705,1.5788 1.5525,2.0389 0.382,0.4602 0.6032,0.9148 0.6636,1.3636 0.0604,0.4489 -0.1139,0.9565 -0.5231,1.523 -0.4091,0.5666 -0.8709,1.0416 -1.3851,1.425 -0.5143,0.3835 -1.0027,0.6483 -1.4652,0.7945 -0.4625,0.1461 -0.883,0.3073 -1.2615,0.4836 -0.3785,0.1763 -0.7328,0.3819 -1.0629,0.6169 -0.3301,0.2349 -0.5307,0.5412 -0.6019,0.9187 -0.0711,0.3775 -0.1076,1.8308 -0.1095,4.3599 -0.002,2.529 0.416,3.8987 1.2537,4.1089 0.8377,0.2103 1.4859,0.4364 1.9447,0.6782 0.4587,0.2419 0.8689,0.5888 1.2303,1.0406 0.3615,0.4519 0.6613,1.1204 0.8994,2.0054 0.2381,0.885 0.3695,1.8755 0.3941,2.9716 0.0247,1.0961 -0.2069,1.8239 -0.695,2.1832 -0.488,0.3594 -1.0364,0.5832 -1.6452,0.6714 -0.6087,0.0882 -0.9882,0.187 -1.1384,0.2964 -0.1502,0.1095 -0.2253,1.1365 -0.2253,3.0813 0,1.9447 0.0105,3.5721 0.0314,4.8819 0.0209,1.3099 0.0127,2.0577 -0.0248,2.2433 -0.0375,0.1856 -0.3886,0.3815 -1.0536,0.5877 -0.6649,0.2061 -1.8,0.4666 -3.4055,0.7813 -1.6054,0.3148 -3.122,0.6255 -4.5498,0.932 -1.4279,0.3066 -2.76,0.5224 -3.9964,0.6473 -1.2363,0.1249 -2.3032,0.1895 -3.2006,0.1938 -0.8974,0.004 -1.7155,-0.0662 -2.4544,-0.2113 -1.1398,-0.2239 -2.0842,-0.3501 -2.8333,-0.3785" /></g><g
         transform="matrix(0.5454546,0,0,-0.5454546,-22.46645,765.4487)"
         id="g1311"><path
           id="path1313"
           style="fill:none;stroke:#000000;stroke-width:4.67717;stroke-linecap:round;stroke-linejoin:round;stroke-miterlimit:10;stroke-dasharray:none;stroke-opacity:1"
           d="m 432.644,40.5413 c 0,-0.78065 0,-1.18987 0,-1.22766 0,-0.02665 -0.007,-0.0036 -0.02,0.06904 -0.0134,0.07267 -0.119,0.6489 -0.3171,1.7287 -0.198,1.0798 -0.3157,1.97177 -0.3531,2.67592 -0.0375,0.70414 -0.0574,3.16921 -0.0596,7.3952 -0.002,4.226 0.007,7.25278 0.0279,9.08035 0.0209,1.82757 0.0472,3.27636 0.0788,4.34637 0.0317,1.07002 0.0485,3.09536 0.0503,6.07602 0.002,2.98066 -0.0233,5.18288 -0.0755,6.60666 -0.0521,1.42377 -0.0793,3.40691 -0.0816,5.9494 -0.002,2.5425 -0.0192,4.28717 -0.0508,5.234 -0.0316,0.94684 -0.1092,2.20946 -0.2326,3.78787 -0.1234,1.5784 -0.2123,2.85653 -0.2667,3.83439 -0.0544,0.97787 -0.0835,2.29015 -0.0875,3.93684 -0.004,1.6467 -0.0742,3.4448 -0.2106,5.3943 -0.1364,1.9495 -0.2159,4.4229 -0.2385,7.4202 -0.0226,2.9972 -0.0769,5.3434 -0.1629,7.0386 -0.086,1.6951 -0.1646,3.3523 -0.2357,4.9715 -0.0712,1.6192 -0.116,3.0564 -0.1346,4.3116 -0.0186,1.2551 -0.0898,2.8819 -0.2135,4.8804 -0.1236,1.9985 -0.2032,3.5823 -0.2385,4.7515 -0.0353,1.1691 -0.0794,2.0895 -0.1321,2.7612 -0.0758,0.9671 -0.0676,3.0826 0.0247,6.3464" /></g><g
         transform="matrix(0.5454546,0,0,-0.5454546,-22.46645,765.4487)"
         id="g1315"><path
           id="path1317"
           style="fill:none;stroke:#000000;stroke-width:4.67717;stroke-linecap:round;stroke-linejoin:round;stroke-miterlimit:10;stroke-dasharray:none;stroke-opacity:1"
           d="m 434.5647,38.06458 c -0.4041,0 -0.6251,-0.08784 -0.663,-0.26351 -0.0267,-0.12351 0.9791,-0.18611 3.0174,-0.18781 2.0384,-0.0017 4.0393,-0.15575 6.0028,-0.46215 1.9635,-0.30641 3.231,-0.49207 3.8023,-0.55697 0.5714,-0.06491 1.3589,-0.0987 2.3626,-0.10139 1.0037,-0.0027 1.9789,0.13321 2.9257,0.40769 0.9467,0.27447 1.6686,0.44142 2.1657,0.50084 0.4972,0.05943 1.0998,0.09242 1.8079,0.09896 0.708,0.0065 1.4599,-0.06043 2.2557,-0.20088 0.7957,-0.14045 1.4256,-0.21298 1.8897,-0.2176 0.4641,-0.0046 0.9365,0.1008 1.4173,0.31625 0.4807,0.21545 0.7671,0.52966 0.8593,0.94264 0.0922,0.41299 0.1383,1.29089 0.1383,2.63372 0,1.34282 -0.008,3.23234 -0.0251,5.66855 -0.0167,2.43621 0.0365,3.74674 0.1597,3.93157 0.1232,0.18484 0.3752,0.28649 0.7558,0.30497 0.3806,0.01848 0.8109,0.18465 1.291,0.49851 0.48,0.31386 0.9235,0.68894 1.3304,1.12524 0.4068,0.4363 0.7031,0.84956 0.8888,1.23978 0.1857,0.39022 0.3158,0.79988 0.3903,1.22899 0.0745,0.4291 0.1127,0.92361 0.1147,1.48353 0.002,0.55991 -0.1682,0.99548 -0.5102,1.3067 -0.3419,0.31122 -0.8152,0.62769 -1.4196,0.94942 -0.6044,0.32173 -1.2179,0.53776 -1.8405,0.64808 -0.6226,0.11033 -1.0808,0.23538 -1.3747,0.37516 -0.2939,0.13978 -0.451,1.16253 -0.4711,3.06827 -0.0201,1.90574 -0.0301,3.79526 -0.0301,5.66857 0,1.87331 -0.0619,3.36115 -0.1855,4.46352 -0.1237,1.10237 -0.1865,1.93649 -0.1884,2.50238 -0.002,0.56587 0.2476,0.78726 0.7484,0.66414 0.5008,-0.12311 0.89,-0.17593 1.1674,-0.15845 0.2775,0.01747 0.5659,0.25774 0.8652,0.72081 0.2992,0.46307 0.4612,0.98686 0.4858,1.57136 0.0247,0.58452 -0.146,1.13608 -0.5119,1.6547 -0.3659,0.51861 -0.8812,0.98023 -1.5457,1.38484 -0.6646,0.40461 -1.2777,0.92097 -1.8392,1.54909 -0.5615,0.62811 -0.9091,1.05224 -1.0427,1.2724 -0.1337,0.22015 -0.2005,0.88555 -0.2005,1.9962 0,1.11064 0.0179,2.10185 0.0539,2.97361 0.036,0.87176 0.0548,2.32884 0.0565,4.37124 0.002,2.04241 -0.0948,3.81866 -0.2896,5.32875 -0.1947,1.5101 -0.3098,2.5372 -0.3452,3.0814 -0.0354,0.5442 0.2264,0.8248 0.7855,0.8417 0.5591,0.017 1.0381,0.2309 1.4371,0.6418 0.399,0.4109 0.7733,0.8347 1.123,1.2714 0.3498,0.4367 0.5885,0.8117 0.7162,1.125 0.1277,0.3133 0.1766,0.7186 0.1467,1.216 -0.0299,0.4973 -0.194,0.9791 -0.4923,1.4455 -0.2982,0.4664 -0.59,0.8527 -0.8753,1.159 -0.2852,0.3063 -0.5356,0.5221 -0.7511,0.6476 -0.2155,0.1255 -0.6301,0.1891 -1.2437,0.191 -0.6136,0.002 -1.0573,0.0988 -1.3313,0.2905 -0.2739,0.1918 -0.4399,0.574 -0.4978,1.1467 -0.058,0.5727 -0.0869,1.8603 -0.0869,3.8628 0,2.0025 -0.008,3.3387 -0.0251,4.0086 -0.0168,0.67 0.491,0.9974 1.5232,0.9823 1.0322,-0.0151 1.7186,0.0702 2.0592,0.2557 0.3407,0.1855 0.7266,0.5266 1.1577,1.0231 0.4311,0.4965 0.686,0.9298 0.7646,1.2997 0.0787,0.3699 0.1182,0.8545 0.1186,1.4538 4e-4,0.5993 -0.1031,1.0721 -0.3105,1.4184 -0.2074,0.3464 -0.5928,0.7577 -1.1562,1.234 -0.5634,0.4763 -1.0979,0.8163 -1.6033,1.0198 -0.5056,0.2036 -0.8389,0.6523 -0.9999,1.3462 -0.1611,0.6939 -0.2605,1.6776 -0.2981,2.9511 -0.0377,1.2736 -0.0809,2.6255 -0.1297,4.056 -0.0487,1.4305 -0.1535,2.9484 -0.3142,4.5537 -0.1606,1.6054 -0.2691,2.9547 -0.3253,4.0479 -0.0563,1.0932 -0.1705,1.7704 -0.3428,2.0314 -0.1722,0.261 -0.4846,0.4667 -0.937,0.6172 -0.4524,0.1505 -1.1576,0.2505 -2.1155,0.2998 -0.958,0.0493 -1.8035,0.1267 -2.5367,0.2322 -0.7331,0.1054 -2.1276,0.363 -4.1833,0.7726 -2.0557,0.4096 -4.0657,0.8334 -6.0299,1.2711 -1.9643,0.4378 -3.4642,0.7563 -4.4999,0.9553 -1.0356,0.199 -2.0625,0.353 -3.0807,0.4618 -1.5471,0.1654 -2.9429,0.3396 -4.1874,0.5226" /></g><g
         transform="matrix(0.5454546,0,0,-0.5454546,-22.46645,765.4487)"
         id="g1319"><path
           id="path1321"
           style="fill:none;stroke:#000000;stroke-width:4.67717;stroke-linecap:round;stroke-linejoin:round;stroke-miterlimit:10;stroke-dasharray:none;stroke-opacity:1"
           d="m 503.3275,38.00323 c 0.2946,-0.0166 0.4788,-0.29011 0.5527,-0.82054 0.051,-0.36721 0.0782,-0.56259 0.0815,-0.58611 l 10e-4,-0.0082 -0.0101,0.08926 c -0.009,0.07756 -0.0846,0.72172 -0.2267,1.93247 -0.1421,1.21075 -0.4749,4.60454 -0.9987,10.18138 -0.5237,5.57684 -0.8773,9.36572 -1.0608,11.36666 -0.1836,2.00094 -0.3384,4.08199 -0.4645,6.24317 -0.1261,2.16117 -0.2103,3.8074 -0.2525,4.93869 -0.0423,1.13129 -0.0563,2.63958 -0.0421,4.52489 0.0142,1.8853 0.1522,3.61549 0.4141,5.19058 0.2619,1.57509 0.3946,2.70564 0.3982,3.39165 0.004,0.68601 0.005,1.04827 0.006,1.08678 l -10e-4,0.0273 -0.005,-0.03394 c -0.006,-0.06086 -0.0847,-0.84722 -0.2358,-2.35907" /></g><g
         transform="matrix(0.5454546,0,0,-0.5454546,-22.46645,765.4487)"
         id="g1323"><path
           id="path1325"
           style="fill:none;stroke:#000000;stroke-width:4.67717;stroke-linecap:round;stroke-linejoin:round;stroke-miterlimit:10;stroke-dasharray:none;stroke-opacity:1"
           d="m 505.9418,37.69761 c -0.3968,-0.79364 -0.0606,-1.20272 1.0088,-1.22727 0.7799,-0.01789 2.282,-0.23668 4.5064,-0.65638 2.2244,-0.41969 3.8086,-0.67607 4.7525,-0.76914 0.944,-0.09307 2.4956,-0.14083 4.6548,-0.14329 2.1593,-0.0025 3.3474,0.09297 3.5644,0.28631 0.2171,0.19334 0.3698,0.62983 0.4582,1.30949 0.0884,0.67965 0.1336,2.53307 0.1354,5.56027 0.002,3.02719 0.3019,4.43651 0.8999,4.22795 0.5981,-0.20856 1.057,-0.30625 1.377,-0.29306 0.3199,0.01319 0.6638,0.3125 1.0315,0.89792 0.3677,0.58543 0.6684,1.11883 0.9022,1.60022 0.2337,0.48139 0.3629,0.9532 0.3876,1.41544 0.0246,0.46224 -0.0537,0.81874 -0.2348,1.06951 -0.1812,0.25076 -0.4212,0.48315 -0.7202,0.69716 -0.2989,0.21402 -0.8185,0.46469 -1.5589,0.75204 -0.7403,0.28734 -1.3469,0.54802 -1.8197,0.78202 -0.4728,0.23401 -0.88,0.46519 -1.2216,0.69356 -0.3417,0.22836 -0.5776,0.54411 -0.7079,0.94724 -0.1302,0.40314 -0.2208,1.11177 -0.2718,2.12591 -0.051,1.01414 -0.2103,2.179 -0.4779,3.4946 -0.2676,1.31559 0.1464,2.08074 1.2418,2.29542 1.0954,0.21469 1.7978,0.40855 2.1072,0.58159 0.3093,0.17303 0.585,0.40115 0.8269,0.68436 0.2419,0.2832 0.3922,0.65261 0.4509,1.10821 0.0586,0.4556 0.0223,0.79783 -0.1091,1.02669 -0.1315,0.22887 -0.4775,0.49696 -1.038,0.80426 -0.5605,0.30731 -1.2838,0.4843 -2.1697,0.53098 -0.886,0.04667 -1.3581,0.37188 -1.4164,0.97561 -0.0581,0.60375 -0.0872,2.62414 -0.0872,6.06116 0,3.43703 0.0513,5.77355 0.1538,7.00956 0.1026,1.23601 0.1654,2.34927 0.1883,3.33979 0.023,0.99052 -0.0953,1.58479 -0.3546,1.78282 -0.2594,0.19803 -0.7123,0.37916 -1.3585,0.54338 -0.6462,0.16422 -1.5565,0.25558 -2.7308,0.27408 -1.1744,0.01849 -2.3929,0.05195 -3.6553,0.10036 -1.2625,0.04842 -2.5651,0.13315 -3.9079,0.25421 -1.3428,0.12105 -3.1209,0.26994 -5.3344,0.44667 -2.2134,0.17673 -3.7856,0.35611 -4.7166,0.53812" /></g><g
         transform="matrix(0.5454546,0,0,-0.5454546,-22.46645,765.4487)"
         id="g1327"><path
           id="path1329"
           style="mix-blend-mode:multiply;fill:none;stroke:#ffff00;stroke-width:36;stroke-linecap:round;stroke-linejoin:round;stroke-miterlimit:10;stroke-dasharray:none;stroke-opacity:0.5"
           d="m 73.77694,60.92139 c -0.16096,-0.4926 -0.24808,-0.75923 -0.26137,-0.79989 -0.0093,-0.02861 -0.0148,0.01563 -0.01636,0.13272 -0.0016,0.11709 -0.0092,0.69198 -0.02299,1.72466 -0.01376,1.03268 -0.06252,2.02751 -0.14628,2.98449 -0.08376,0.95698 -0.24292,1.94658 -0.47749,2.96878 -0.23457,1.02221 -0.36184,1.57682 -0.38181,1.66384 -0.01997,0.08702 -0.03004,0.09661 -0.03023,0.02876 -1.8e-4,-0.06785 -0.0013,-0.50029 -0.0035,-1.29733 -0.0021,-0.79703 0.01373,-1.4263 0.04763,-1.88778 0.03389,-0.46149 0.16192,-1.02231 0.38408,-1.68247 0.22216,-0.66015 0.37807,-1.06791 0.46774,-1.22325 0.08966,-0.15535 0.2396,-0.24986 0.44981,-0.28352 0.21022,-0.03367 0.43295,0.26457 0.66817,0.89473 0.23522,0.63015 0.42801,1.70121 0.57836,3.21316 0.15036,1.51195 0.26017,3.01707 0.32945,4.51536 0.06928,1.49829 0.1634,2.38238 0.28236,2.65229 0.11896,0.26991 0.19941,0.45243 0.24135,0.54758 0.04193,0.09514 0.07239,0.04016 0.09137,-0.16494 0.01899,-0.20508 0.05541,-0.59854 0.10927,-1.18036 0.05386,-0.58182 0.08196,-1.44868 0.08429,-2.60056 0.0023,-1.15189 0.0035,-1.75814 0.0037,-1.81876 l 10e-5,-0.03004 8e-5,0.12347 c 0,0.12291 0,1.35202 0,3.68735 0,2.33532 0.02335,4.85291 0.07005,7.55276 0.0467,2.69986 0.11491,5.47926 0.20463,8.3382 0.08972,2.85895 0.17676,4.96502 0.26112,6.31822 0.08435,1.3532 0.19477,2.65511 0.33125,3.90573 0.13648,1.25061 0.39526,3.18461 0.77633,5.80191 0.38107,2.6174 0.67057,4.7198 0.8685,6.3074 0.19793,1.5876 0.37082,3.139 0.51866,4.6542 0.14784,1.5152 0.26869,3.0418 0.36256,4.5799 0.09387,1.5381 0.16244,3.0146 0.20572,4.4294 0.04329,1.4148 0.06734,3.7501 0.07215,7.006 0.0048,3.2558 0.01474,5.0844 0.0298,5.4858 0.01507,0.4013 0.21023,1.2707 0.58549,2.6081 0.37527,1.3374 0.68924,2.5777 0.94191,3.7208 0.25268,1.1431 0.50925,2.4198 0.76972,3.8301 0.26046,1.4102 0.46092,1.889 0.60136,1.4362 0.14045,-0.4527 0.21828,-0.7037 0.23351,-0.7528 0.01522,-0.049 0.02302,-0.0573 0.02339,-0.0247 3.6e-4,0.0325 0.0022,0.1989 0.0056,0.4992 0.0049,0.4366 0.20001,1.0382 0.58539,1.805" /></g><g
         transform="matrix(0.5454546,0,0,-0.5454546,-22.46645,765.4487)"
         id="g1331"><path
           id="path1333"
           style="mix-blend-mode:multiply;fill:none;stroke:#01ff00;stroke-width:24;stroke-linecap:round;stroke-linejoin:round;stroke-miterlimit:10;stroke-dasharray:none;stroke-opacity:0.5"
           d="m 137.8368,178.011 c 0.0642,2.3939 0.0586,3.536 -0.0166,3.4261 -0.0534,-0.0779 -0.0882,-0.1286 -0.1042,-0.152 -0.016,-0.0234 -0.0204,0.01 -0.0129,0.0995 0.007,0.0897 0.0235,0.2839 0.0483,0.5824 0.0247,0.2985 0.1062,0.6985 0.2444,1.1999 0.1381,0.5015 0.2428,0.9988 0.3139,1.492 0.0711,0.4933 0.145,2.0714 0.2217,4.7343 0.0768,2.6629 0.1162,4.4007 0.1183,5.2134 0.002,0.8127 0.0442,1.7689 0.1265,2.8686 0.0824,1.0997 0.1581,1.7781 0.2274,2.0351 0.0692,0.2571 0.2112,0.4611 0.4261,0.612 0.2148,0.1508 0.3953,-0.1116 0.5413,-0.7873 0.1461,-0.6757 0.2203,-1.2983 0.2228,-1.8678 0.002,-0.5695 -0.0655,-1.4964 -0.2041,-2.7807 -0.1385,-1.2844 -0.2714,-2.054 -0.3985,-2.309 -0.1272,-0.255 -0.1919,-0.6558 -0.194,-1.2023 -0.002,-0.5465 0.0886,-1.1721 0.272,-1.8769 0.1834,-0.7048 0.4778,-1.6972 0.8833,-2.9771 0.4054,-1.2799 0.7113,-2.173 0.9175,-2.6792 0.2062,-0.5063 0.3114,-1.0425 0.3156,-1.6088 0.004,-0.5663 -0.0619,-0.9603 -0.1982,-1.1821 -0.1362,-0.2218 -0.3251,-0.2644 -0.5666,-0.128 -0.2415,0.1365 -0.5035,0.3911 -0.7859,0.7638 -0.2824,0.3727 -0.4751,0.6269 -0.5779,0.7627 -0.1029,0.1357 -0.1479,0.1701 -0.1351,0.1032 0.0129,-0.0669 0.0369,-0.1923 0.0722,-0.376 0.0353,-0.1838 0.1847,-0.299 0.4482,-0.3458 0.2634,-0.0467 0.4663,0.0613 0.6086,0.324 0.1422,0.2627 0.234,0.9726 0.2754,2.1296 0.0413,1.157 0.0469,2.016 0.0168,2.577 -0.0301,0.5609 -0.1326,1.4344 -0.3077,2.6204 -0.175,1.1861 -0.275,2.3033 -0.3,3.3516 -0.0249,1.0483 -0.005,1.6952 0.0609,1.9408 0.0655,0.2456 0.2656,0.5028 0.6004,0.7716 0.3348,0.2688 0.6181,0.5546 0.8499,0.8573 0.2319,0.3027 0.4463,0.4833 0.6433,0.542 0.197,0.0586 0.561,-0.3923 1.0919,-1.3528 0.5308,-0.9604 0.8276,-1.8093 0.8903,-2.5468 0.0627,-0.7375 0.051,-1.6112 -0.035,-2.6209 -0.086,-1.0098 -0.1299,-1.875 -0.1318,-2.5956 -0.003,-1.0526 0.3083,-2.4462 0.933,-4.1808" /></g><g
         transform="matrix(0.5454546,0,0,-0.5454546,-22.46645,765.4487)"
         id="g1335"><path
           id="path1337"
           style="mix-blend-mode:multiply;fill:none;stroke:#01ff00;stroke-width:24;stroke-linecap:round;stroke-linejoin:round;stroke-miterlimit:10;stroke-dasharray:none;stroke-opacity:0.5"
           d="m 276.8441,114.6669 c 0.3022,-0.9831 0.2227,-1.5698 -0.2385,-1.76 -0.3253,-0.1342 -0.7116,-0.3718 -1.1588,-0.713 -0.4473,-0.3412 -0.7638,-0.4766 -0.9495,-0.4061 -0.1858,0.0704 -0.3152,0.5773 -0.3882,1.5208 -0.0729,0.9434 -0.1181,2.3017 -0.1355,4.0749 -0.0173,1.7731 -0.0754,3.419 -0.1742,4.9377 -0.0989,1.5186 -0.2371,3.0348 -0.4147,4.5487 -0.1776,1.5138 -0.4094,3.1279 -0.6954,4.8424 -0.286,1.7144 -0.5285,3.1021 -0.7274,4.1629 -0.1989,1.0607 -0.3013,2.2639 -0.3071,3.6095 -0.006,1.3455 -0.009,2.0537 -0.009,2.1245 -3e-4,0.0709 10e-4,0.0978 0.004,0.0808 0.003,-0.0169 0.0352,-0.1864 0.096,-0.5085 0.0608,-0.3221 0.3463,-0.983 0.8565,-1.9826 0.5102,-0.9997 1.1333,-2.1073 1.8694,-3.323 0.7361,-1.2158 1.47,-2.3547 2.2015,-3.4169 0.7316,-1.0621 1.2349,-1.7533 1.51,-2.0735 0.2751,-0.3202 0.5224,-0.5516 0.742,-0.6942 0.2195,-0.1425 0.4194,-0.2134 0.5995,-0.2126 0.2552,0.001 0.7993,1.4171 1.6326,4.2477" /></g><g
         transform="matrix(0.5454546,0,0,-0.5454546,-22.46645,765.4487)"
         id="g1339"><path
           id="path1341"
           style="mix-blend-mode:multiply;fill:none;stroke:#ff00ff;stroke-width:24;stroke-linecap:round;stroke-linejoin:round;stroke-miterlimit:10;stroke-dasharray:none;stroke-opacity:0.5"
           d="m 334.7037,54.14585 c -0.2728,0.0471 -0.4425,-0.09463 -0.5091,-0.4252 -0.047,-0.23326 -10e-4,-0.41234 0.1372,-0.53725 0.1385,-0.1249 0.2169,-0.28033 0.2353,-0.46627 0.0183,-0.18594 0.0296,-0.30044 0.0339,-0.34348 0.004,-0.04305 0.0176,-0.0288 0.0401,0.04275 0.0225,0.07156 0.0824,0.26188 0.1796,0.57097 0.0972,0.30908 0.1581,1.04 0.1827,2.19276 0.0247,1.15275 0.0276,2.09734 0.009,2.83376 -0.0188,0.73642 -0.1534,2.03235 -0.4036,3.88778 -0.2503,1.85544 -0.5512,3.72008 -0.9028,5.59395 -0.3516,1.87386 -0.7781,3.89769 -1.2796,6.07149 -0.5015,2.1738 -0.8356,3.79037 -1.0026,4.8497 -0.1668,1.05934 -0.3938,2.75041 -0.6809,5.07323 -0.2871,2.32281 -0.4511,3.95543 -0.4922,4.89787 -0.0411,0.94244 -0.0628,1.43889 -0.065,1.48936 -0.002,0.05047 -8e-4,0.06102 0.004,0.03165 0.005,-0.02937 0.054,-0.31827 0.1469,-0.86671 0.0929,-0.54844 0.6075,-2.0077 1.5438,-4.37778 0.9362,-2.37008 1.682,-4.27598 2.2373,-5.71771 0.5553,-1.44172 1.1484,-2.81223 1.7795,-4.11151 0.6312,-1.29928 1.0814,-2.15093 1.3508,-2.55496 0.2694,-0.40403 0.4456,-0.6684 0.5288,-0.79311 0.0831,-0.12472 0.1212,-0.11915 0.1143,0.01671 -0.007,0.13586 -0.0216,0.42386 -0.044,0.86399 -0.0224,0.44014 -0.223,1.37323 -0.6018,2.79927 -0.3788,1.42606 -0.6874,2.7738 -0.9258,4.04325 -0.3655,1.94626 -0.2718,3.34863 0.281,4.20709" /></g><g
         transform="matrix(0.5454546,0,0,-0.5454546,-22.46645,765.4487)"
         id="g1343"><path
           id="path1345"
           style="mix-blend-mode:multiply;fill:none;stroke:#00ffff;stroke-width:24;stroke-linecap:round;stroke-linejoin:round;stroke-miterlimit:10;stroke-dasharray:none;stroke-opacity:0.5"
           d="m 206.8611,118.2447 c -1.0594,-0.2584 -1.7868,-0.1842 -2.1824,0.2225 -0.2752,0.283 -0.6114,0.7058 -1.0085,1.2682 -0.3972,0.5624 -0.6601,0.9347 -0.7888,1.117 -0.1287,0.1823 -0.1899,0.226 -0.1835,0.1313 0.006,-0.0947 0.0195,-0.2883 0.0392,-0.5806 0.0197,-0.2923 0.1384,-0.7569 0.3559,-1.3937 0.2174,-0.6368 0.3444,-1.0087 0.381,-1.1156 0.0365,-0.107 0.024,-0.1128 -0.0375,-0.0177 -0.0615,0.0952 -0.2754,0.4262 -0.6417,0.993 -0.3663,0.5667 -0.7759,1.0651 -1.2287,1.4949 -0.4528,0.4299 -1.0371,0.8292 -1.7529,1.1979 -0.7158,0.3687 -1.314,0.6027 -1.7945,0.7022 -0.4806,0.0995 -0.7325,-0.0792 -0.7557,-0.5361 -0.0233,-0.4568 0.4373,-0.8286 1.3816,-1.1152 0.9444,-0.2867 1.5607,-0.4322 1.849,-0.4367 0.2883,-0.004 0.5411,0.3039 0.7582,0.9248 0.2172,0.6209 0.3456,1.3552 0.3852,2.2031 0.0397,0.8478 0.0615,1.8968 0.0654,3.1472 0.004,1.2503 -0.0183,2.5835 -0.0669,3.9997 -0.0485,1.4161 -0.2716,4.088 -0.6692,8.0155 -0.3976,3.9275 -0.6807,7.0717 -0.8495,9.4327 -0.1687,2.361 -0.2869,4.1987 -0.3545,5.5131 -0.0676,1.3144 -0.1688,2.7382 -0.3036,4.2713 -0.1348,1.5331 -0.2899,3.1349 -0.4654,4.8054 -0.1754,1.6705 -0.4492,3.9174 -0.8213,6.7407 -0.3722,2.8233 -0.6237,4.7888 -0.7544,5.8964 -0.1308,1.1076 -0.2453,2.4631 -0.3437,4.0665 -0.0983,1.6033 -0.1495,3.9639 -0.1536,7.0818 -0.004,3.1178 0.0801,5.3103 0.2523,6.5774 0.1722,1.2671 0.3125,2.3342 0.4209,3.2015 0.1083,0.8673 0.2411,2.2633 0.3982,4.188 0.1572,1.9248 0.3059,3.4099 0.4461,4.4554 0.1402,1.0455 0.2628,1.6782 0.3678,1.8983 0.105,0.22 0.3053,0.2784 0.6008,0.175 0.2955,-0.1035 0.5227,-0.4016 0.6815,-0.8944 0.1588,-0.4928 0.3486,-1.3443 0.5694,-2.5545 0.2209,-1.2102 0.3774,-2.2943 0.4696,-3.2524 0.0922,-0.9581 0.203,-1.7856 0.3323,-2.4825 0.1294,-0.6968 0.4165,-1.3293 0.8614,-1.8973 0.445,-0.568 0.7638,-1.0298 0.9565,-1.3854 0.1927,-0.3555 0.4499,-1.0693 0.7717,-2.1413 0.3217,-1.072 0.6886,-2.8257 1.1008,-5.261 0.4121,-2.4354 0.9101,-5.8265 1.4939,-10.1736 0.5838,-4.347 0.9477,-7.1234 1.0916,-8.3291 0.144,-1.2058 0.2796,-2.5069 0.407,-3.9036 0.1274,-1.3966 0.2988,-3.489 0.5143,-6.2771 0.2155,-2.7882 0.3852,-4.7758 0.509,-5.9631 0.1238,-1.1872 0.256,-2.2471 0.3964,-3.1797 0.1404,-0.9326 0.2817,-1.7494 0.4238,-2.4506 0.1421,-0.7011 0.346,-1.4779 0.6117,-2.3302 0.2657,-0.8523 0.6109,-1.7758 1.0356,-2.7706 0.4247,-0.9947 0.843,-2.077 1.2547,-3.2467 0.4118,-1.1698 0.7293,-2.1406 0.9527,-2.9125 0.2234,-0.7718 0.3388,-1.068 0.3463,-0.8885 0.008,0.1796 0.0264,0.6284 0.0565,1.3466 0.0301,0.7182 0.0132,1.7126 -0.0509,2.9834 -0.064,1.2708 -0.2027,2.8087 -0.4163,4.6138 -0.2135,1.805 -0.4514,3.6996 -0.7138,5.6836 -0.2624,1.9841 -0.5423,4.0148 -0.8397,6.0921 -0.2974,2.0773 -0.5796,4.0991 -0.8466,6.0651 -0.267,1.9661 -0.5193,3.7583 -0.7569,5.3767 -0.2376,1.6184 -0.4643,3.2344 -0.6801,4.8481 -0.2158,1.6138 -0.4061,3.2273 -0.5708,4.8405 -0.2395,2.3457 -0.482,6.0751 -0.7277,11.1884" /></g><g
         transform="matrix(0.5454546,0,0,-0.5454546,-22.46645,765.4487)"
         id="g1347"><path
           id="path1349"
           style="mix-blend-mode:multiply;fill:none;stroke:#ffa238;stroke-width:24;stroke-linecap:round;stroke-linejoin:round;stroke-miterlimit:10;stroke-dasharray:none;stroke-opacity:0.5"
           d="m 385.3112,112.357 c 1.5748,-1.2652 2.5149,-1.9834 2.8205,-2.1545 0.2138,-0.1198 0.3358,-0.1881 0.3659,-0.2049 0.0301,-0.0169 0.0159,-0.0191 -0.0425,-0.007 -0.0585,0.0125 -0.2953,0.0631 -0.7105,0.1518 -0.4151,0.0887 -1.1023,0.1436 -2.0614,0.1648 -0.9591,0.0212 -1.4482,0.2085 -1.4672,0.562 -0.019,0.3535 0.0304,0.8529 0.1483,1.4981 0.1178,0.6453 0.2122,1.5753 0.283,2.79 0.0709,1.2147 0.1082,2.6118 0.1119,4.1914 0.004,1.5796 -0.0513,3.0246 -0.165,4.335 -0.1136,1.3105 -0.2498,2.6445 -0.4083,4.0019 -0.1586,1.3575 -0.3421,3.1518 -0.5504,5.3829 -0.2084,2.2311 -0.4966,4.9883 -0.8647,8.2716 -0.3682,3.2833 -0.658,5.7757 -0.8695,7.4771 -0.2115,1.7014 -0.5212,4.0564 -0.9289,7.065 -0.4078,3.0085 -0.6855,5.1028 -0.833,6.2829 -0.1475,1.1801 -0.2973,2.768 -0.4495,4.7637 -0.1522,1.9956 -0.2838,4.7055 -0.395,8.1294 -0.1111,3.424 -0.2377,6.9012 -0.3797,10.4318 -0.1421,3.5305 -0.2665,6.3213 -0.3734,8.3723 -0.1069,2.0511 -0.1614,4.4142 -0.1635,7.0895 -0.002,2.6752 0.0996,3.531 0.3052,2.5674 0.2055,-0.9637 0.4927,-2.7149 0.8615,-5.2538 0.3688,-2.5389 0.773,-5.5592 1.2124,-9.061 0.4395,-3.5017 0.8521,-6.6153 1.2377,-9.3406 0.3856,-2.7253 0.8739,-5.8448 1.4649,-9.3585 0.591,-3.5136 0.9342,-5.6374 1.0296,-6.3715 0.0954,-0.7341 0.1651,-1.976 0.2092,-3.7259 0.0658,-2.6112 0.062,-5.3538 -0.0114,-8.2277" /></g><g
         transform="matrix(0.5454546,0,0,-0.5454546,-22.46645,765.4487)"
         id="g1351"><path
           id="path1353"
           style="mix-blend-mode:multiply;fill:none;stroke:#ffff00;stroke-width:24;stroke-linecap:round;stroke-linejoin:round;stroke-miterlimit:10;stroke-dasharray:none;stroke-opacity:0.5"
           d="m 451.6489,52.19006 c 0.3262,-1.29699 0.4921,-2.27125 0.4976,-2.92277 0.004,-0.44773 -0.115,-0.76267 -0.3563,-0.9448 -0.2412,-0.18214 -0.7701,-0.27416 -1.5865,-0.27606 -0.8165,-0.0019 -1.5548,0.02227 -2.215,0.0725 -0.6602,0.05024 -1.1335,0.12738 -1.42,0.23141 -0.2865,0.10404 -0.5543,0.34229 -0.8035,0.71478 -0.2492,0.37248 -0.6263,0.71585 -1.1312,1.03011 -0.5049,0.31426 -0.8332,0.62003 -0.9848,0.91731 -0.1516,0.29728 -0.2286,0.72214 -0.2309,1.27459 -0.002,0.55245 0.0384,1.31239 0.1222,2.2798 0.0838,0.96741 0.1442,2.25941 0.1815,3.87601 0.0372,1.6166 0.056,5.13963 0.0563,10.56909 4e-4,5.42946 -0.022,8.67555 -0.0672,9.73828 -0.0452,1.06272 -0.1478,2.73442 -0.308,5.01509 -0.1601,2.28067 -0.2909,4.06804 -0.3923,5.36209 -0.1014,1.29405 -0.2922,3.1617 -0.5722,5.60296 -0.2801,2.44127 -0.5082,4.23316 -0.6843,5.37565 -0.1761,1.1425 -0.366,2.6284 -0.5695,4.4577 -0.2035,1.8293 -0.3095,3.5516 -0.318,5.1669 -0.009,1.6154 -0.005,2.6131 0.01,2.9932 0.015,0.38 0.1345,1.0869 0.3584,2.1207 0.2239,1.0337 0.3586,2.2276 0.4042,3.5816 0.0456,1.354 0.0496,2.4367 0.0119,3.2482 -0.0377,0.8114 -0.0565,2.315 -0.0565,4.5108 0,2.1958 0.0693,3.5116 0.208,3.9474 0.1387,0.4358 0.2286,1.1639 0.2696,2.1843 0.041,1.0204 0.0616,2.1537 0.0618,3.4001 3e-4,1.2463 0.0237,1.9959 0.0704,2.2487 0.0467,0.2529 0.1925,0.3596 0.4373,0.3202 0.2448,-0.0395 0.4572,-0.1834 0.637,-0.4319 0.1799,-0.2485 0.4373,-0.2804 0.7721,-0.0957 0.3349,0.1847 0.6445,0.281 0.9288,0.289 0.2843,0.008 0.5511,-0.3308 0.8002,-1.0164 0.2492,-0.6856 0.4384,-1.473 0.5677,-2.3624 0.1293,-0.8893 0.2305,-2.187 0.3037,-3.8932 0.0732,-1.7061 0.1108,-5.461 0.1127,-11.2646 0.002,-5.8037 0.0103,-9.3029 0.0253,-10.4976 0.0151,-1.1948 0.0479,-2.3392 0.0983,-3.4333 0.0505,-1.0941 0.1423,-2.246 0.2754,-3.4556 0.1331,-1.2097 0.2778,-2.39243 0.4343,-3.5483 0.1564,-1.15588 0.4283,-2.88531 0.8157,-5.18829 0.3874,-2.30298 0.7764,-4.5009 1.1671,-6.59376 0.3906,-2.09285 0.7826,-4.28438 1.1759,-6.57458 0.3933,-2.29021 0.6864,-4.05132 0.8794,-5.28335 0.1928,-1.23202 0.5353,-3.23406 1.0273,-6.0061 0.492,-2.77203 0.8633,-4.78334 1.1139,-6.0339 0.2506,-1.25056 0.492,-2.51361 0.7242,-3.78912 0.3434,-1.88633 0.6997,-4.09424 1.0689,-6.62373" /></g><g
         transform="matrix(0.5454546,0,0,-0.5454546,-22.46645,765.4487)"
         id="g1355"><path
           id="path1357"
           style="mix-blend-mode:multiply;fill:none;stroke:#01ff00;stroke-width:24;stroke-linecap:round;stroke-linejoin:round;stroke-miterlimit:10;stroke-dasharray:none;stroke-opacity:0.5"
           d="m 516.1114,49.52 c 0.0443,-0.36135 -0.2506,-0.73716 -0.8848,-1.12741 -0.4264,-0.26236 -0.7549,-0.38695 -0.9855,-0.37378 -0.2305,0.01316 -0.4423,0.36894 -0.6351,1.06731 -0.1929,0.69838 -0.3018,2.2711 -0.3269,4.71817 -0.0252,2.44706 -0.0384,3.73504 -0.0397,3.86393 l -0.002,0.13742 -10e-5,-0.02276 c 0,-0.05245 0,-0.57659 0,-1.57241 0,-0.99582 0.0246,-1.58465 0.0739,-1.76651 0.0492,-0.18186 0.0762,-0.28169 0.081,-0.29949 0.005,-0.0178 0.007,0.05693 0.007,0.22418 0,0.16726 2e-4,1.10516 5e-4,2.81371 4e-4,1.70855 -0.0415,3.16735 -0.1254,4.3764 -0.084,1.20904 -0.171,2.33096 -0.2608,3.36575 -0.0899,1.03479 -0.1538,2.57594 -0.1916,4.62345 -0.0379,2.0475 -0.0818,3.64676 -0.1316,4.79777 -0.0499,1.15101 -0.0937,2.10472 -0.1314,2.86112 -0.0376,0.7564 -0.0574,1.15508 -0.0595,1.19603 l -0.001,0.02942 0.003,-0.03481 c 0.004,-0.04453 0.0382,-0.47813 0.1039,-1.3008 0.0989,-1.23771 0.1596,-2.44416 0.1821,-3.61936" /></g><g
         transform="matrix(0.5454546,0,0,-0.5454546,275.8841,893.9554)"
         id="g1359"><path
           id="path1361"
           style="fill:none;stroke:#000000;stroke-width:4.67717;stroke-linecap:round;stroke-linejoin:round;stroke-miterlimit:10;stroke-dasharray:none;stroke-opacity:1"
           d="m 82.351,288.9206 c -1e-5,-0.9183 -2e-5,-1.4512 -2e-5,-1.5985 l 0.0037,-0.0785 0.01068,0.0741 c 0.0096,0.1003 0.03668,0.3842 0.08132,0.8519 0.04465,0.4677 0.06706,1.6509 0.06724,3.5495 1.9e-4,1.8985 -0.04271,3.584 -0.12871,5.0564 -0.086,1.4725 -0.1383,3.2097 -0.15692,5.2119 -0.01861,2.0021 -0.02792,7.6566 -0.02792,16.9635 -1e-5,9.3069 0.04298,15.3418 0.12895,18.1048 0.08597,2.7629 0.15589,4.626 0.20974,5.5892 0.05385,0.9633 0.09029,2.3266 0.10931,4.09 0.01901,1.7633 0.0286,8.6522 0.02877,20.6666 1.7e-4,12.0144 -0.12574,18.8023 -0.37773,20.3635" /></g><g
         transform="matrix(0.5454546,0,0,-0.5454546,275.8841,893.9554)"
         id="g1363"><path
           id="path1365"
           style="fill:none;stroke:#000000;stroke-width:4.67717;stroke-linecap:round;stroke-linejoin:round;stroke-miterlimit:10;stroke-dasharray:none;stroke-opacity:1"
           d="m 85.81575,285.0857 c 0.13475,-0.2757 0.44254,-0.4143 0.92336,-0.4161 0.48081,-0.002 0.59538,0.1091 0.34371,0.3323 -0.25166,0.2232 -0.80416,0.4611 -1.65751,0.7137 -0.85334,0.2525 -1.4157,0.3962 -1.68706,0.431 -0.27136,0.0348 -0.41872,0.0537 -0.44206,0.0566 -0.02334,0.003 0.02543,0.006 0.14631,0.009 0.12089,0.003 0.884,0.0194 2.28934,0.0503 1.40534,0.0308 2.69674,0.0378 3.87419,0.0211 1.17745,-0.0168 2.22304,0.0461 3.13675,0.1886 0.91372,0.1426 1.83361,0.2151 2.75968,0.2178 0.92606,0.003 1.91067,0.0993 2.95382,0.2902 1.04316,0.1909 2.06412,0.297 3.06272,0.3182 0.9987,0.0212 2.1069,0.0123 3.3245,-0.0268 1.2176,-0.0391 2.112,0.0288 2.6832,0.2038 0.5712,0.1749 1.2723,0.2837 2.1033,0.3265 0.831,0.0428 1.5233,0.001 2.077,-0.1245 0.5536,-0.1258 1.1837,-0.19 1.8904,-0.1926 0.7066,-0.003 1.0946,0.3214 1.1639,0.972 0.1047,0.9827 0.399,1.7103 0.8828,2.1829" /></g><g
         transform="matrix(0.5454546,0,0,-0.5454546,275.8841,893.9554)"
         id="g1367"><path
           id="path1369"
           style="fill:none;stroke:#000000;stroke-width:4.67717;stroke-linecap:round;stroke-linejoin:round;stroke-miterlimit:10;stroke-dasharray:none;stroke-opacity:1"
           d="m 83.53101,388.7278 c 0.23116,-0.4897 0.77321,-0.8678 1.62614,-1.1344 0.85294,-0.2667 1.83621,-0.401 2.94983,-0.4031 1.11362,-0.002 1.95131,-0.0718 2.51308,-0.2092 0.56175,-0.1373 1.28002,-0.3792 2.1548,-0.7255 0.87478,-0.3464 1.62306,-0.589 2.24484,-0.7278 0.62177,-0.1388 1.22881,-0.2095 1.82112,-0.2122 0.59231,-0.003 1.55891,0.0834 2.8998,0.2581 1.34088,0.1747 2.49858,0.2723 3.47318,0.293 0.9746,0.0207 1.789,0.0815 2.4433,0.1823 0.6543,0.1008 1.3491,0.2494 2.0844,0.4457 0.7353,0.1963 1.7994,0.3925 3.1923,0.5886 1.3929,0.1961 2.4772,0.3155 3.2531,0.3581 1.1382,0.0625 2.6362,0.1116 4.4939,0.1474" /></g><g
         transform="matrix(0.5454546,0,0,-0.5454546,275.8841,893.9554)"
         id="g1371"><path
           id="path1373"
           style="fill:none;stroke:#000000;stroke-width:4.67717;stroke-linecap:round;stroke-linejoin:round;stroke-miterlimit:10;stroke-dasharray:none;stroke-opacity:1"
           d="m 82.13759,392.1776 c -1e-5,-0.6568 -2e-5,-1.0107 -2e-5,-1.0616 0,-0.0358 0.0042,-0.0184 0.01271,0.0522 0.0085,0.0705 0.05245,0.4366 0.13191,1.0983 0.07946,0.6617 0.12123,1.9683 0.12531,3.9199 0.0041,1.9515 -0.02586,3.4845 -0.08985,4.5988 -0.06399,1.1143 -0.22102,3.0288 -0.47111,5.7435 -0.25008,2.7147 -0.44636,4.7338 -0.58882,6.0573 -0.14246,1.3235 -0.33817,3.3107 -0.58716,5.9617 -0.24898,2.651 -0.40177,4.4543 -0.45836,5.41 -0.0566,0.9557 -0.0867,2.551 -0.09031,4.7859 -0.0036,2.2349 0.03005,3.5689 0.101,4.002 0.07094,0.4331 0.18414,0.7475 0.33959,0.9433 0.15546,0.1957 0.45577,0.3296 0.90093,0.4014 0.44516,0.0719 1.33156,0.3831 2.65919,0.9336 1.32764,0.5505 2.21975,0.8738 2.67633,0.9698 0.45659,0.096 1.20316,0.1604 2.23971,0.193 1.03656,0.0327 1.85501,0.0241 2.45536,-0.0259 0.60035,-0.0499 1.51314,-0.1786 2.73837,-0.3861 1.22523,-0.2074 2.12432,-0.3409 2.69729,-0.4003 0.57296,-0.0594 1.96261,-0.0924 4.16894,-0.099 2.2063,-0.007 3.6155,0.0245 4.2277,0.0933 0.6122,0.0688 1.3107,0.2257 2.0956,0.4708 0.7848,0.245 1.5019,0.4307 2.1512,0.5571 0.6493,0.1263 1.3285,0.201 2.0378,0.2238 0.7092,0.0229 1.5622,-0.0613 2.5589,-0.2524 0.9968,-0.1912 1.7761,-0.2963 2.338,-0.3153 0.8419,-0.0286 1.5771,-0.2406 2.2056,-0.6361" /></g><g
         transform="matrix(0.5454546,0,0,-0.5454546,275.8841,893.9554)"
         id="g1375"><path
           id="path1377"
           style="fill:none;stroke:#000000;stroke-width:4.67717;stroke-linecap:round;stroke-linejoin:round;stroke-miterlimit:10;stroke-dasharray:none;stroke-opacity:1"
           d="m 119.1805,389.3502 c 0.3826,-0.4101 0.6511,-0.7847 0.8056,-1.1238 0.1052,-0.231 0.1649,-0.2985 0.1791,-0.2025 0.0142,0.0959 0.0497,0.3358 0.1065,0.7196 0.0568,0.3837 0.0944,1.4268 0.113,3.1292 0.0186,1.7024 -0.0115,3.1105 -0.0904,4.2244 -0.079,1.1138 -0.2497,2.8288 -0.5122,5.1447 -0.2625,2.3159 -0.5173,4.595 -0.7643,6.8372 -0.247,2.2422 -0.4784,4.5192 -0.694,6.831 -0.2156,2.3118 -0.3889,4.6661 -0.5199,7.063 -0.1309,2.3969 -0.1995,4.5119 -0.2057,6.3449 -0.006,1.8331 -0.002,3.0603 0.0132,3.6816 0.015,0.6214 0.0943,1.39 0.2378,2.3058 0.1435,0.9159 0.4704,1.3961 0.9805,1.4408" /></g><g
         transform="matrix(0.5454546,0,0,-0.5454546,275.8841,893.9554)"
         id="g1379"><path
           id="path1381"
           style="fill:none;stroke:#000000;stroke-width:4.67717;stroke-linecap:round;stroke-linejoin:round;stroke-miterlimit:10;stroke-dasharray:none;stroke-opacity:1"
           d="m 124.5641,343.0258 c -0.0407,-1.1177 0.057,-2.1678 0.2932,-3.1505 0.1586,-0.6599 0.2479,-1.1172 0.2679,-1.3721 0.0199,-0.2549 0.0305,-0.3894 0.0316,-0.4035 l 5e-4,-0.004 -1e-4,0.0746 c -7e-4,0.0611 -0.008,0.6448 -0.0225,1.751 -0.0143,1.1062 -0.1072,2.2642 -0.2787,3.4742 -0.1715,1.21 -0.3892,2.9294 -0.6529,5.1582 -0.2638,2.2288 -0.4931,4.4429 -0.6878,6.6424 -0.1948,2.1994 -0.3446,3.9632 -0.4494,5.2912 -0.1049,1.328 -0.1945,2.6738 -0.269,4.0375 -0.0745,1.3636 -0.1421,3.1784 -0.2026,5.4445 -0.0605,2.2661 -0.1348,4.5462 -0.2227,6.8405 -0.088,2.2942 -0.1592,4.0324 -0.2135,5.2146 -0.0544,1.1821 -0.1163,2.249 -0.1858,3.2008 -0.0695,0.9518 -0.1808,1.8984 -0.334,2.8399 -0.1532,0.9414 -0.372,1.9578 -0.6563,3.0491 -0.2843,1.0913 -0.4502,1.919 -0.4975,2.483 -0.0659,0.7834 0.615,0.507 2.0427,-0.8291" /></g><g
         transform="matrix(0.5454546,0,0,-0.5454546,275.8841,893.9554)"
         id="g1383"><path
           id="path1385"
           style="fill:none;stroke:#000000;stroke-width:4.67717;stroke-linecap:round;stroke-linejoin:round;stroke-miterlimit:10;stroke-dasharray:none;stroke-opacity:1"
           d="m 126.9159,335.7429 c -0.2762,0 -0.4415,-0.2027 -0.4959,-0.6081 -0.0543,-0.4054 0.1924,-0.5684 0.7403,-0.4889 0.5479,0.0794 1.2304,0.1052 2.0475,0.0772 0.8172,-0.0279 1.6876,-0.1596 2.6113,-0.395 0.9237,-0.2354 1.9748,-0.4526 3.1534,-0.6513 1.1786,-0.1988 2.0624,-0.3203 2.6514,-0.3646 0.5889,-0.0443 1.6112,-0.0689 3.0666,-0.0738 1.4555,-0.005 2.7561,0.0629 3.9019,0.2034 1.1458,0.1405 2.228,0.2214 3.2464,0.2428 1.0185,0.0213 1.9818,0.0907 2.8898,0.208 0.908,0.1174 1.8379,0.3013 2.7895,0.5518 0.9517,0.2505 1.919,0.4827 2.902,0.6967 0.983,0.214 1.7806,0.4357 2.3929,0.6651 0.6123,0.2294 1.3245,0.6424 2.1366,1.2391 0.8121,0.5967 1.3645,0.9689 1.6574,1.1165 0.2928,0.1477 0.5039,0.3183 0.6331,0.512 0.1293,0.1937 0.1694,0.6093 0.1205,1.247 -0.0489,0.6378 -0.2181,1.6372 -0.5074,2.9983 -0.2894,1.3611 -0.5854,2.9289 -0.8881,4.7034 -0.3026,1.7745 -0.5626,3.4731 -0.7799,5.096 -0.2174,1.6229 -0.3815,3.1666 -0.4925,4.6312 -0.111,1.4646 -0.2031,3.0138 -0.2761,4.6477 -0.0731,1.6338 -0.1629,3.4355 -0.2694,5.4051 -0.1066,1.9697 -0.2039,3.8666 -0.2919,5.6909 -0.0881,1.8242 -0.1434,3.7172 -0.166,5.6789 -0.0225,1.9616 -0.0338,4.6793 -0.0338,8.1528 m -1.1264,34.7047 c -0.002,3.5485 -0.0883,5.8889 -0.258,7.0212 -0.1698,1.1323 -0.2832,2.0629 -0.3404,2.7919 -0.0572,0.729 -0.0874,1.1138 -0.0906,1.1546 -0.003,0.0407 -0.002,0.0447 0.005,0.0118 0.006,-0.0328 0.0652,-0.3429 0.1768,-0.9303 0.1639,-0.8627 0.2579,-1.9804 0.282,-3.3533" /></g><g
         transform="matrix(0.5454546,0,0,-0.5454546,275.8841,893.9554)"
         id="g1387"><path
           id="path1389"
           style="fill:none;stroke:#000000;stroke-width:4.67717;stroke-linecap:round;stroke-linejoin:round;stroke-miterlimit:10;stroke-dasharray:none;stroke-opacity:1"
           d="m 121.6393,431.5401 c -0.0351,0.4795 -0.3638,0.8381 -0.9859,1.076 -0.4247,0.1624 -0.686,0.3615 -0.7838,0.5972 -0.0979,0.2356 0.4067,0.3547 1.5137,0.3571 1.107,0.002 2.3978,-0.0679 3.8724,-0.2111 1.4745,-0.1432 2.8546,-0.2157 4.1403,-0.2177 1.2856,-0.002 2.8302,-0.1823 4.6337,-0.5412 1.8036,-0.3589 3.2374,-0.5626 4.3015,-0.6112 1.0642,-0.0485 2.0251,0.0125 2.8827,0.1831 0.8577,0.1706 1.7627,0.2766 2.7152,0.318 0.9524,0.0414 2.154,0.0622 3.6045,0.0622 1.4506,10e-5 2.6081,0.133 3.4724,0.3987 0.8644,0.2658 1.6907,0.5592 2.4789,0.8804 0.7882,0.3212 1.5586,0.5331 2.311,0.6358 0.7524,0.1027 1.3217,0.115 1.7079,0.0369 0.3862,-0.0781 0.9619,-0.3635 1.7271,-0.8564 0.7651,-0.4929 1.382,-0.8556 1.8504,-1.088 0.673,-0.3338 2.3782,-0.9042 5.1154,-1.7111" /></g><g
         transform="matrix(0.5454546,0,0,-0.5454546,275.8841,893.9554)"
         id="g1391"><path
           id="path1393"
           style="fill:none;stroke:#000000;stroke-width:4.67717;stroke-linecap:round;stroke-linejoin:round;stroke-miterlimit:10;stroke-dasharray:none;stroke-opacity:1"
           d="m 113.8101,289.4565 c 0.4561,-0.5764 1.0476,-1.0414 1.7747,-1.3948 0.727,-0.3534 1.5898,-0.5554 2.5884,-0.6059 0.9986,-0.0505 1.9717,-0.0758 2.9194,-0.0758 0.9476,0 1.7719,-0.1051 2.4728,-0.3154 0.7009,-0.2102 1.1323,-0.2059 1.294,0.0129 0.1617,0.2188 0.2781,0.6498 0.349,1.2929 0.071,0.643 0.1076,2.1659 0.1099,4.5684 0.002,2.4026 -0.0136,4.1838 -0.0475,5.3435 -0.0339,1.1597 -0.1105,2.9277 -0.2299,5.304 -0.1193,2.3762 -0.1985,4.0702 -0.2376,5.082 -0.0391,1.0117 -0.0608,5.3151 -0.0652,12.9101 -0.004,7.595 0.0114,11.8367 0.0471,12.7251 0.0358,0.8884 0.0555,1.3804 0.0594,1.4759" /></g><g
         transform="matrix(0.5454546,0,0,-0.5454546,275.8841,893.9554)"
         id="g1395"><path
           id="path1397"
           style="fill:none;stroke:#000000;stroke-width:4.67717;stroke-linecap:round;stroke-linejoin:round;stroke-miterlimit:10;stroke-dasharray:none;stroke-opacity:1"
           d="m 124.468,286.5259 c -0.1088,-0.5902 0.4167,-0.9733 1.5764,-1.1491 1.1598,-0.1759 2.1668,-0.3911 3.021,-0.6458 0.8543,-0.2546 1.4955,-0.4624 1.9237,-0.6232 0.4282,-0.1608 1.0858,-0.3251 1.9727,-0.4931 0.8869,-0.1678 2.131,-0.2661 3.7323,-0.2947 1.6013,-0.0285 2.8865,-0.0235 3.8556,0.0152 0.969,0.0387 3.0787,0.0582 6.3291,0.0586 3.2504,4e-4 5.2319,0.0239 5.9446,0.0706 0.7126,0.0468 1.5562,0.1674 2.5308,0.3621 0.9745,0.1946 1.7375,0.403 2.289,0.6251 0.5514,0.2221 1.2813,0.6779 2.1897,1.3672 0.9084,0.6893 1.5643,1.226 1.9677,1.61 0.4035,0.3841 0.8459,0.5947 1.3271,0.632 0.4813,0.0373 0.7593,-0.0628 0.8342,-0.3004 0.0749,-0.2375 0.003,-0.3849 -0.2168,-0.4422 -0.2195,-0.0573 -0.3545,-0.0925 -0.4051,-0.1057" /></g><g
         transform="matrix(0.5454546,0,0,-0.5454546,275.8841,893.9554)"
         id="g1399"><path
           id="path1401"
           style="fill:none;stroke:#000000;stroke-width:4.67717;stroke-linecap:round;stroke-linejoin:round;stroke-miterlimit:10;stroke-dasharray:none;stroke-opacity:1"
           d="m 163.4727,336.3884 c -0.3452,0.097 -0.5086,0.0225 -0.4902,-0.2234 0.0131,-0.1764 0.2835,-0.2908 0.811,-0.3433 0.5276,-0.0525 1.1748,-0.2012 1.9416,-0.4461 0.7669,-0.2449 1.5399,-0.3872 2.3192,-0.4271 0.7792,-0.0397 2.1968,-0.0513 4.2529,-0.0345 2.056,0.0167 3.7117,-0.062 4.9671,-0.2361 1.2554,-0.1742 2.3616,-0.2635 3.3185,-0.268 0.9569,-0.004 1.8361,0.0537 2.6376,0.1745 0.8016,0.1207 1.5498,0.1821 2.2445,0.1842 0.6948,0.002 1.5476,0.0821 2.5584,0.2402 1.0108,0.1581 1.8317,0.255 2.4626,0.2905 0.631,0.0356 1.1843,0.1675 1.6598,0.3956 0.4756,0.228 0.9257,0.397 1.3502,0.5068 0.4246,0.1098 0.9451,0.1919 1.5616,0.2462 0.6166,0.0544 1.3978,0.0817 2.3436,0.0818 0.9459,2e-4 1.4973,0.2502 1.6542,0.7499 0.1569,0.4998 0.2635,1.0119 0.3198,1.5364 0.0562,0.5245 0.0853,2.0691 0.0872,4.6338 0.002,2.5646 -0.0158,4.5078 -0.0533,5.8294 -0.0374,1.3217 -0.1075,2.5035 -0.2103,3.5455 -0.1028,1.042 -0.1814,2.018 -0.236,2.928 -0.0545,0.9101 -0.1689,2.0973 -0.343,3.5616 -0.1741,1.4643 -0.2734,3.1543 -0.2978,5.0701 -0.0245,1.9158 -0.0712,3.4877 -0.14,4.7159 -0.0689,1.2282 -0.1296,2.3918 -0.182,3.4909 -0.0525,1.0991 -0.2452,2.0254 -0.5782,2.779 -0.3329,0.7536 -0.5978,1.1978 -0.7947,1.3326 -0.1969,0.1348 -0.4945,0.2022 -0.8928,0.2022 -0.3983,0 -1.3058,0.1597 -2.7225,0.479 -1.4167,0.3193 -2.4806,0.6278 -3.1919,0.9254 -0.7112,0.2977 -1.325,0.5026 -1.8414,0.6148 -0.5163,0.1121 -2.0845,0.1693 -4.7045,0.1714 -2.62,0.002 -4.5861,-0.1277 -5.8985,-0.3895 -1.3123,-0.2618 -2.7461,-0.5074 -4.3016,-0.7368 -1.5554,-0.2294 -3.1656,-0.4501 -4.8307,-0.6622 -1.665,-0.2121 -3.1005,-0.3321 -4.3064,-0.3601 -1.2059,-0.0279 -2.0061,-0.009 -2.4005,0.0561 -0.3945,0.0652 -0.7395,0.1815 -1.0351,0.3488 -0.4281,0.2423 -0.756,0.7843 -0.9838,1.626" /></g><g
         transform="matrix(0.5454546,0,0,-0.5454546,275.8841,893.9554)"
         id="g1403"><path
           id="path1405"
           style="fill:none;stroke:#000000;stroke-width:4.67717;stroke-linecap:round;stroke-linejoin:round;stroke-miterlimit:10;stroke-dasharray:none;stroke-opacity:1"
           d="m 160.0398,389.3941 c -0.1421,-0.4932 -0.0694,-1.0295 0.2183,-1.6089 0.1926,-0.3878 0.4965,-0.6198 0.9119,-0.6959 0.4154,-0.0762 0.8783,-0.1152 1.3888,-0.117 0.5105,-0.002 0.893,0.1034 1.1476,0.3159 0.2546,0.2125 0.4496,0.6175 0.5851,1.2148 0.1355,0.5974 0.1968,1.2451 0.1838,1.9432 -0.0129,0.6981 -0.1848,1.2817 -0.5156,1.7509 -0.3308,0.4691 -0.7892,0.838 -1.375,1.1068 -0.5859,0.2688 -1.095,0.5731 -1.5275,0.913 -0.4324,0.34 -0.6863,0.7371 -0.7616,1.1915 -0.0753,0.4543 -0.1129,0.8268 -0.1129,1.1174 0,0.2907 0.1309,0.5494 0.3927,0.7763 0.2618,0.2268 0.6807,0.498 1.2568,0.8134 0.5761,0.3154 1.0363,0.726 1.3806,1.2318 0.3443,0.5058 0.5634,0.9112 0.6573,1.2162 0.0939,0.3049 0.143,0.6635 0.1474,1.0757 0.004,0.4121 -0.2066,0.9669 -0.6329,1.6642 -0.4262,0.6974 -0.8086,1.258 -1.1469,1.6818 -0.3383,0.4239 -0.7081,0.8322 -1.1093,1.2251 -0.4011,0.3928 -0.7095,0.6663 -0.925,0.8203 -0.2155,0.1541 -0.3524,0.5439 -0.4105,1.1695 -0.0581,0.6255 -0.0871,2.3875 -0.0872,5.2858 0,2.8984 -0.0974,5.2074 -0.2922,6.9272 -0.1947,1.7199 -0.3241,2.8262 -0.3882,3.319" /></g><g
         transform="matrix(0.5454546,0,0,-0.5454546,275.8841,893.9554)"
         id="g1407"><path
           id="path1409"
           style="fill:none;stroke:#000000;stroke-width:4.67717;stroke-linecap:round;stroke-linejoin:round;stroke-miterlimit:10;stroke-dasharray:none;stroke-opacity:1"
           d="m 162.8925,286.0695 c 0.1653,-0.2823 0.1062,-0.6038 -0.1774,-0.9645 -0.1943,-0.2472 -0.2926,-0.4499 -0.2947,-0.6081 -0.002,-0.1582 -0.1171,-0.214 -0.3449,-0.1676 -0.2279,0.0465 -0.343,0.487 -0.3453,1.3215 -0.002,0.8344 -0.0631,1.8098 -0.1826,2.9262 -0.1195,1.1163 -0.2065,2.2067 -0.2611,3.271 -0.0546,1.0643 -0.0827,2.1367 -0.0844,3.2171 -0.002,1.0805 0.4181,1.6123 1.2595,1.5956 0.8414,-0.0168 1.4475,0.1213 1.8182,0.4141 0.3707,0.2929 0.7807,0.5483 1.2298,0.7664 0.4491,0.218 0.7208,0.4722 0.8149,0.7625 0.0942,0.2904 0.1272,0.6827 0.0992,1.177 -0.0281,0.4943 -0.111,0.8746 -0.2487,1.1411 -0.1378,0.2664 -0.3936,0.5141 -0.7675,0.743 -0.3739,0.2289 -0.9203,0.4039 -1.6392,0.5251 -0.7189,0.1212 -1.4573,0.2973 -2.2153,0.5284 -0.758,0.2311 -1.1571,0.5772 -1.1972,1.0383 -0.0401,0.4611 -0.017,1.0843 0.0692,1.8697 0.0861,0.7854 0.1739,1.3208 0.2633,1.606 0.0894,0.2853 0.1342,1.062 0.1344,2.33 1e-4,1.2681 -0.0782,2.2024 -0.2351,2.803 -0.1569,0.6006 -0.042,1.241 0.3449,1.9212 0.3868,0.6801 0.7599,1.1083 1.1192,1.2844 0.3594,0.1761 0.8877,0.3073 1.585,0.3936 0.6973,0.0864 1.1889,0.2166 1.4747,0.3908 0.2858,0.1742 0.5358,0.3847 0.7499,0.6316 0.2141,0.2469 0.3527,0.5968 0.4157,1.0496 0.063,0.4529 -0.0241,0.8306 -0.2613,1.1334 -0.2373,0.3027 -0.5055,0.5538 -0.8046,0.7532 -0.2991,0.1995 -0.8816,0.3918 -1.7474,0.577 -0.8658,0.1851 -1.4919,0.4355 -1.8785,0.7511 -0.3865,0.3156 -0.653,0.588 -0.7996,0.8174 -0.1466,0.2293 -0.2209,1.0092 -0.2231,2.3396 -0.002,1.3305 0.0229,2.6141 0.075,3.8509 0.0521,1.2368 0.0793,2.587 0.0816,4.0506 0.004,2.2758 0.1564,4.0505 0.4586,5.3241" /></g><g
         transform="matrix(0.5454546,0,0,-0.5454546,275.8841,893.9554)"
         id="g1411"><path
           id="path1413"
           style="fill:none;stroke:#000000;stroke-width:4.67717;stroke-linecap:round;stroke-linejoin:round;stroke-miterlimit:10;stroke-dasharray:none;stroke-opacity:1"
           d="m 200.0717,338.059 c 0.1037,-0.3909 0.0228,-0.5636 -0.2426,-0.518 -0.1908,0.0327 -0.3287,0.1099 -0.4135,0.2318 -0.0848,0.1218 -0.1399,0.201 -0.1654,0.2375 -0.0254,0.0365 -0.0178,-0.006 0.0226,-0.1274 0.0405,-0.1214 0.1283,-0.3847 0.2633,-0.7898 0.1839,-0.5514 0.4283,-0.579 0.7333,-0.083" /></g><g
         transform="matrix(0.5454546,0,0,-0.5454546,275.8841,893.9554)"
         id="g1415"><path
           id="path1417"
           style="fill:none;stroke:#000000;stroke-width:4.67717;stroke-linecap:round;stroke-linejoin:round;stroke-miterlimit:10;stroke-dasharray:none;stroke-opacity:1"
           d="m 200.8443,336.0005 c 0.0707,-0.4218 -0.0673,-0.6346 -0.4141,-0.6386 -0.2471,-0.003 -0.3718,0.0833 -0.3741,0.2582 -0.002,0.1748 0.1116,0.1954 0.3418,0.0616 0.2302,-0.1337 0.7521,-0.2016 1.5658,-0.2036 0.8136,-0.002 1.6732,-0.1072 2.5789,-0.3153 0.9056,-0.2082 2.1493,-0.3142 3.7311,-0.3182 1.5817,-0.004 2.7102,-0.0413 3.3857,-0.112 0.6754,-0.0707 1.3671,-0.1069 2.0751,-0.1088 0.708,-0.002 1.6841,0.1013 2.9284,0.3096 1.2444,0.2083 2.4703,0.3144 3.6777,0.3182 1.2075,0.004 2.3561,-0.1495 3.4458,-0.4598 1.0897,-0.3103 2.1084,-0.5593 3.0561,-0.7468" /></g><g
         transform="matrix(0.5454546,0,0,-0.5454546,275.8841,893.9554)"
         id="g1419"><path
           id="path1421"
           style="fill:none;stroke:#000000;stroke-width:4.67717;stroke-linecap:round;stroke-linejoin:round;stroke-miterlimit:10;stroke-dasharray:none;stroke-opacity:1"
           d="m 227.7206,333.4989 c 0.3107,0.3192 0.785,0.4883 1.4228,0.5071 0.9302,0.0274 2.1311,-0.3017 3.6028,-0.9874" /></g><g
         transform="matrix(0.5454546,0,0,-0.5454546,275.8841,893.9554)"
         id="g1423"><path
           id="path1425"
           style="fill:none;stroke:#000000;stroke-width:4.67717;stroke-linecap:round;stroke-linejoin:round;stroke-miterlimit:10;stroke-dasharray:none;stroke-opacity:1"
           d="m 199.425,374.1419 c 0.1719,0.1786 0.2587,-0.1182 0.2606,-0.8904 0.002,-0.7722 0.003,-1.1787 0.003,-1.2193 1e-4,-0.0407 -0.003,-0.0307 -0.0101,0.0299 -0.007,0.0606 -0.075,0.6664 -0.2047,1.8174 -0.1296,1.151 -0.3189,3.0832 -0.5679,5.7966 -0.249,2.7134 -0.4362,5.0183 -0.5616,6.9147 -0.1255,1.8964 -0.1901,4.5594 -0.1939,7.9891 -0.004,3.4296 0.0271,5.8603 0.0926,7.292 0.0655,1.4316 0.1924,2.6769 0.3806,3.7356 0.1882,1.0588 0.375,2.1179 0.5605,3.1774 0.1854,1.0595 0.2887,2.9856 0.3098,5.7783 0.0211,2.7928 0.0233,5.0601 0.007,6.8021 -0.0167,1.742 -0.0251,3.8736 -0.0251,6.3949 0,2.5213 0,4.0204 0,4.4973 0,0.4769 0.0493,0.6124 0.1478,0.4064 0.1407,-0.2938 0.7111,-1.486 1.7114,-3.5763" /></g><g
         transform="matrix(0.5454546,0,0,-0.5454546,275.8841,893.9554)"
         id="g1427"><path
           id="path1429"
           style="fill:none;stroke:#000000;stroke-width:4.67717;stroke-linecap:round;stroke-linejoin:round;stroke-miterlimit:10;stroke-dasharray:none;stroke-opacity:1"
           d="m 236.537,287.4797 c -0.1023,-2.2225 -0.1123,-3.4248 -0.03,-3.6068 0.0579,-0.1281 0.0923,-0.2042 0.1033,-0.2284 0.0109,-0.0243 0.0166,0.0471 0.017,0.2141 3e-4,0.1671 0.002,0.6921 0.003,1.5751 0.002,0.883 -0.015,1.8066 -0.0508,2.7709 -0.0358,0.9643 -0.0546,3.0536 -0.0565,6.2679 -0.002,3.2143 -0.0719,6.1345 -0.21,8.7606 -0.1382,2.6261 -0.2093,4.3742 -0.2134,5.2444 -0.004,0.8702 -0.0321,1.8801 -0.0841,3.0298 -0.0521,1.1496 -0.2719,3.3661 -0.6595,6.6494 -0.3876,3.2834 -0.6526,5.6378 -0.7949,7.0632 -0.1423,1.4255 -0.25,2.8808 -0.3232,4.366 -0.0733,1.4852 -0.1454,3.2094 -0.2165,5.1727 -0.0712,1.9633 -0.1077,7.7563 -0.1095,17.379 -0.002,9.6227 -0.0112,15.0667 -0.028,16.332 -0.0167,1.2652 -0.008,2.2879 0.0251,3.0681" /></g><g
         transform="matrix(0.5454546,0,0,-0.5454546,275.8841,893.9554)"
         id="g1431"><path
           id="path1433"
           style="fill:none;stroke:#000000;stroke-width:4.67717;stroke-linecap:round;stroke-linejoin:round;stroke-miterlimit:10;stroke-dasharray:none;stroke-opacity:1"
           d="m 239.0313,279.9279 c -0.2176,0.2419 1.0765,0.3637 3.8824,0.3656 2.8058,0.002 5.1632,-0.005 7.0719,-0.0223" /></g><g
         transform="matrix(0.5454546,0,0,-0.5454546,275.8841,893.9554)"
         id="g1435"><path
           id="path1437"
           style="fill:none;stroke:#000000;stroke-width:4.67717;stroke-linecap:round;stroke-linejoin:round;stroke-miterlimit:10;stroke-dasharray:none;stroke-opacity:1"
           d="m 251.8233,280.2461 c -0.2846,-0.3324 -0.2139,-0.6317 0.2121,-0.8981 0.4259,-0.2664 0.9541,-0.44 1.5845,-0.5207 0.6304,-0.0808 1.2609,-0.0653 1.8913,0.0465 0.6305,0.1118 1.3751,0.2851 2.2336,0.5198 0.8586,0.2348 1.9891,0.4169 3.3916,0.5463 1.4024,0.1295 2.4737,0.212 3.2137,0.2474 0.7401,0.0354 1.7574,0.1245 3.0519,0.2672 1.2945,0.1428 2.5386,0.2163 3.7323,0.2205 1.1937,0.004 2.383,0.3228 3.568,0.9553 1.1849,0.6326 1.8674,1.1509 2.0473,1.5549 0.1799,0.4041 0.2717,1.1725 0.2755,2.3053 0.004,1.1328 -0.0634,2.3967 -0.2016,3.7918 -0.1381,1.3951 -0.3016,2.7374 -0.4906,4.0269 -0.1889,1.2895 -0.4329,2.8349 -0.7319,4.6363 -0.2991,1.8013 -0.4974,3.172 -0.595,4.1119 -0.0976,0.94 -0.1652,1.8949 -0.2029,2.8646 -0.0377,0.9697 -0.0567,1.9533 -0.0569,2.9507 -10e-5,0.9975 -0.0509,1.9969 -0.1522,2.9982 -0.1013,1.0014 -0.2312,1.9763 -0.3896,2.9248 -0.1584,0.9485 -0.2751,1.7906 -0.3502,2.5266 -0.1071,1.0512 -0.1075,4.7441 -9e-4,11.0787" /></g><g
         transform="matrix(0.5454546,0,0,-0.5454546,275.8841,893.9554)"
         id="g1439"><path
           id="path1441"
           style="fill:none;stroke:#000000;stroke-width:4.67717;stroke-linecap:round;stroke-linejoin:round;stroke-miterlimit:10;stroke-dasharray:none;stroke-opacity:1"
           d="m 233.7964,371.697 c -0.0623,-0.5575 -0.0948,-0.8481 -0.0975,-0.8721 -0.002,-0.0169 -0.003,-0.0146 -0.003,0.007 0,0.0215 0,0.2119 0,0.571 0,0.3592 -0.1186,1.0133 -0.3559,1.9624 -0.2373,0.9491 -0.4056,1.7579 -0.505,2.4265 -0.0993,0.6686 -0.1501,1.58 -0.1524,2.7343 -0.002,1.1543 0.2437,1.7338 0.7381,1.7383 0.4944,0.004 0.9622,0.3452 1.4035,1.0222 0.4414,0.6771 0.6921,1.3457 0.7523,2.0058 0.0602,0.6602 0.0323,1.2214 -0.0837,1.6835 -0.116,0.4622 -0.3684,1.1558 -0.7573,2.0809 -0.3889,0.9251 -0.7266,1.6335 -1.013,2.1254 -0.2865,0.4918 -0.6297,0.8693 -1.0299,1.1324 -0.4001,0.2632 -0.9212,0.522 -1.5632,0.7764 -0.6421,0.2543 -1.1363,0.4097 -1.4827,0.4661 -0.3465,0.0564 -0.5574,0.2992 -0.6329,0.7282 -0.0755,0.4291 -0.1133,1.7113 -0.1133,3.8466 0,2.1353 -0.0533,3.5816 -0.1598,4.3387 -0.1065,0.7572 -0.1609,1.5059 -0.1632,2.2462 -0.002,0.7404 0.5014,1.2498 1.5111,1.5284 1.0097,0.2786 1.7288,0.5454 2.1573,0.8005 0.4285,0.2551 0.7863,0.5658 1.0734,0.9321 0.2871,0.3662 0.5242,0.7461 0.7112,1.1396 0.1871,0.3935 0.312,0.9061 0.3747,1.5377 0.0628,0.6315 -0.1479,1.0741 -0.632,1.3275 -0.484,0.2535 -1.1725,0.5209 -2.0653,0.8022 -0.8929,0.2814 -1.4062,0.5289 -1.5398,0.7426 -0.1337,0.2138 -0.2005,2.4842 -0.2005,6.8112 -1e-4,4.327 0.0167,6.9563 0.0502,7.8881 0.0334,0.9317 -0.0412,1.7438 -0.224,2.4362 -0.1828,0.6925 -0.3942,1.3496 -0.634,1.9714 -0.2398,0.6219 -0.414,1.095 -0.5224,1.4196 -0.1084,0.3246 -0.7866,0.5518 -2.0346,0.6816 -1.2479,0.1297 -2.4003,0.1959 -3.4572,0.1985 -1.0568,0.003 -2.4787,-0.1781 -4.2655,-0.542 -1.7868,-0.3639 -3.1828,-0.6093 -4.188,-0.7364 -1.0052,-0.1271 -2.4153,-0.2047 -4.2302,-0.2328 -1.8149,-0.0282 -3.3648,-0.009 -4.6497,0.0587 -1.2849,0.0673 -2.2565,0.1435 -2.9148,0.2287 -0.6583,0.0852 -1.0084,0.1305 -1.0502,0.1359 -0.0418,0.005 -0.0376,-0.005 0.0128,-0.0316 0.0714,-0.0376 0.8888,-0.4675 2.4523,-1.2898" /></g><g
         transform="matrix(0.5454546,0,0,-0.5454546,275.8841,893.9554)"
         id="g1443"><path
           id="path1445"
           style="fill:none;stroke:#000000;stroke-width:4.67717;stroke-linecap:round;stroke-linejoin:round;stroke-miterlimit:10;stroke-dasharray:none;stroke-opacity:1"
           d="m 235.5629,376.1684 c -0.6765,-0.0493 -1.2199,0.0565 -1.6303,0.3174 -0.2803,0.1782 -0.46,0.2925 -0.539,0.3427 -0.079,0.0503 0.274,0.0754 1.0591,0.0755 0.785,1e-4 2.5697,3e-4 5.3539,6e-4 2.7843,3e-4 4.7072,0.0441 5.7689,0.1313 1.0616,0.0873 2.178,0.1244 3.349,0.1114 1.1711,-0.013 2.3259,-0.064 3.4645,-0.1529 1.1385,-0.0889 2.3306,-0.1344 3.5761,-0.1365 1.2456,-0.002 2.3122,0.1353 3.2,0.4122 0.8878,0.2768 1.6169,0.4627 2.1873,0.5578 0.5705,0.095 1.2352,0.1436 1.9943,0.1457 1.1211,0.003 2.3512,0.2678 3.6902,0.7939" /></g><g
         transform="matrix(0.5454546,0,0,-0.5454546,275.8841,893.9554)"
         id="g1447"><path
           id="path1449"
           style="fill:none;stroke:#000000;stroke-width:4.67717;stroke-linecap:round;stroke-linejoin:round;stroke-miterlimit:10;stroke-dasharray:none;stroke-opacity:1"
           d="m 274.1058,325.6785 c -0.1022,-0.8971 -0.1553,-1.3626 -0.1591,-1.3965 l -0.003,-0.0172 -2e-4,0.0206 c 9e-4,0.0262 0.009,0.2878 0.0251,0.7846 0.0159,0.4968 -0.0179,1.1429 -0.1015,1.9383 -0.0836,0.7953 -0.1611,1.7097 -0.2323,2.743 -0.0713,1.0333 -0.1603,2.1298 -0.267,3.2894 -0.1067,1.1597 -0.2071,2.262 -0.3012,3.3068 -0.0941,1.0449 0.1787,1.6194 0.8184,1.7233 0.6398,0.104 1.1877,0.2415 1.6439,0.4125 0.4562,0.1711 0.9069,0.4117 1.3521,0.7218 0.4451,0.3102 0.8148,0.6588 1.1088,1.0457 0.2941,0.3869 0.5183,0.8254 0.6727,1.3154 0.1543,0.4899 0.2409,0.9676 0.2597,1.4328 0.0189,0.4653 -0.0866,0.9281 -0.3165,1.3885 -0.23,0.4603 -0.6194,0.9602 -1.1684,1.4998 -0.5491,0.5396 -0.9846,0.9101 -1.3065,1.1115 -0.322,0.2013 -0.7855,0.3859 -1.3905,0.5536 -0.605,0.1678 -1.2848,0.2873 -2.0394,0.3585 -0.7546,0.0713 -1.18,0.2884 -1.276,0.6512 -0.096,0.3629 -0.144,1.4009 -0.144,3.114 0,1.7132 -0.0188,2.8619 -0.0565,3.4462 -0.0376,0.5843 0.1119,0.8007 0.4485,0.6492 0.3367,-0.1516 0.7882,-0.2322 1.3547,-0.2418 0.5665,-0.01 1.0585,0.2593 1.4761,0.8068 0.4176,0.5476 0.7276,1.1236 0.9301,1.728 0.2025,0.6045 0.3162,1.2844 0.3413,2.0398 0.025,0.7554 -0.0383,1.3739 -0.1901,1.8554 -0.1517,0.4816 -0.3415,0.8881 -0.5694,1.2194 -0.2278,0.3314 -0.9962,0.7789 -2.3049,1.3424 -1.3088,0.5636 -1.9979,1.4075 -2.0672,2.5317 -0.0693,1.1242 -0.218,2.5413 -0.446,4.2514 -0.228,1.7102 -0.2558,3.3072 -0.0833,4.7911" /></g><g
         transform="matrix(0.5454546,0,0,-0.5454546,275.8841,893.9554)"
         id="g1451"><path
           id="path1453"
           style="fill:none;stroke:#000000;stroke-width:4.67717;stroke-linecap:round;stroke-linejoin:round;stroke-miterlimit:10;stroke-dasharray:none;stroke-opacity:1"
           d="m 277.1436,281.9039 c -0.3375,0 -0.5216,0 -0.5524,10e-5 -0.0216,0 -0.0109,0.005 0.0322,0.0144 0.043,0.01 0.2369,0.0531 0.5818,0.1304 0.3448,0.0772 2.0773,0.117 5.1974,0.1195 3.1202,0.002 5.6536,0.1162 7.6001,0.3415 1.9466,0.2252 4.0792,0.348 6.398,0.3684 2.3187,0.0203 3.7012,0.1356 4.1475,0.3459 0.4462,0.2102 0.6721,0.4661 0.6775,0.7675 0.005,0.3015 0.1036,0.5674 0.2945,0.7977 0.1909,0.2304 0.2892,0.7415 0.295,1.5334 0.006,0.7918 -0.0165,1.447 -0.067,1.9656 -0.0505,0.5186 -0.0776,1.5956 -0.0816,3.231 -0.004,1.6354 0.3139,2.5127 0.9534,2.6319 0.6395,0.1193 1.2792,0.4222 1.919,0.9089 0.6399,0.4867 1.1152,0.9847 1.426,1.494 0.3108,0.5094 0.5142,0.9509 0.6102,1.3247 0.0959,0.3737 0.1216,0.8527 0.0771,1.437 -0.0446,0.5843 -0.2901,1.1596 -0.7365,1.7259 -0.4465,0.5663 -0.908,1.0034 -1.3846,1.3112 -0.4766,0.3078 -0.9925,0.5399 -1.5477,0.6963 -0.5552,0.1564 -0.949,0.2354 -1.1813,0.2371 -0.2324,0.002 -0.4196,0.8835 -0.5617,2.6454 -0.1421,1.7619 -0.2143,3.0272 -0.2166,3.7961 -0.002,0.7688 0.3518,1.1817 1.0623,1.2389 0.7104,0.0571 1.2182,0.136 1.5234,0.2367 0.3052,0.1007 0.6321,0.4314 0.9806,0.9921 0.3485,0.5607 0.552,1.1939 0.6106,1.8994 0.0585,0.7056 -0.0151,1.2399 -0.2209,1.6029 -0.2058,0.3631 -0.5885,0.7392 -1.1478,1.1284 -0.5594,0.3893 -1.0248,0.6475 -1.3962,0.7748 -0.3715,0.1272 -0.7433,0.1935 -1.1156,0.1988 -0.3722,0.005 -0.6555,0.7234 -0.8497,2.1543 -0.1942,1.4309 -0.3101,2.7028 -0.3477,3.8157 -0.0376,1.113 -0.092,2.2648 -0.1632,3.4555 -0.0711,1.1906 -0.1778,2.1776 -0.3201,2.9608 -0.1423,0.7831 -0.4575,1.2045 -0.9458,1.2642 -0.4882,0.0595 -0.9949,0.0893 -1.5203,0.0893 -0.5254,0 -1.4994,-0.1051 -2.9221,-0.3153 -1.4227,-0.2102 -2.8778,-0.3163 -4.3651,-0.3182 -1.4874,-0.002 -2.8025,0.0382 -3.9454,0.1203 -1.1428,0.082 -2.0355,0.1592 -2.6781,0.2316 -0.6426,0.0724 -1.791,0.1095 -3.4451,0.1114 -1.6541,0.002 -2.6626,0.0279 -3.0255,0.0781 -0.3629,0.0503 -0.9752,0.3271 -1.8369,0.8305 -1.2796,0.7475 -2.2086,1.7881 -2.7871,3.1218" /></g><g
         transform="matrix(0.5454546,0,0,-0.5454546,184.9511,908.4171)"
         id="g1455"><path
           id="path1457"
           style="mix-blend-mode:multiply;fill:none;stroke:#ffff00;stroke-width:24;stroke-linecap:round;stroke-linejoin:round;stroke-miterlimit:10;stroke-dasharray:none;stroke-opacity:0.5"
           d="m 263.8288,327.9698 c -0.4814,0.1284 -0.8554,0.0487 -1.122,-0.2393 -0.1843,-0.1992 -0.342,-0.4569 -0.473,-0.7731 -0.1309,-0.3162 -0.3331,-0.5819 -0.6066,-0.7972 -0.2735,-0.2152 -0.4796,-0.3583 -0.6185,-0.4293 -0.1389,-0.0711 -0.2129,-0.1089 -0.2219,-0.1135 -0.009,-0.005 -0.003,0.003 0.0175,0.0235 0.0207,0.0204 0.19,0.1867 0.508,0.4989 0.318,0.3122 0.5486,0.6565 0.6917,1.0327 0.1432,0.3763 0.2673,0.8755 0.3722,1.4975 0.1049,0.622 0.216,1.9468 0.3333,3.9743 0.1174,2.0276 0.1777,5.0691 0.1811,9.1244 0.003,4.0553 -0.009,6.5071 -0.0363,7.3555 -0.0275,0.8484 -0.0428,2.5096 -0.0459,4.9836 -0.003,2.474 0.009,4.1 0.0368,4.878 0.0275,0.778 0.1036,1.9446 0.2281,3.4999 0.1246,1.5552 0.212,3.1204 0.2622,4.6955 0.0502,1.5751 0.0762,5.6336 0.078,12.1754 0.002,6.5419 0.0162,10.1433 0.0434,10.8043 0.0272,0.661 0.034,1.6532 0.0204,2.9768 -0.0136,1.3235 -0.0204,2.7578 -0.0204,4.3028 0,1.545 0.4461,2.3186 1.3384,2.3207 0.8923,0.002 1.5187,-0.0369 1.8791,-0.1169 0.3604,-0.0801 0.7855,-0.1299 1.2755,-0.1495 0.4899,-0.0197 1.0606,0.0255 1.7118,0.1356 0.6513,0.1101 1.1926,0.1735 1.6238,0.1903 0.4312,0.0169 0.742,-0.1401 0.9325,-0.4708 0.1905,-0.3308 0.3724,-0.9059 0.5457,-1.7252 0.1733,-0.8193 0.3163,-1.9787 0.429,-3.4781 0.1128,-1.4994 0.2481,-3.6831 0.406,-6.5512 0.1579,-2.8681 0.2596,-4.835 0.3052,-5.9006 0.0455,-1.0656 0.1482,-2.8952 0.3081,-5.4887 0.1598,-2.5934 0.3092,-4.6899 0.448,-6.2893 0.1388,-1.5993 0.3281,-3.3424 0.568,-5.2291 0.2398,-1.8867 0.412,-3.3061 0.5166,-4.2584 0.1046,-0.9523 0.2019,-1.9355 0.292,-2.9495 0.09,-1.0141 0.1807,-2.3238 0.2721,-3.9291 0.0913,-1.6053 0.1456,-3.7916 0.1629,-6.5589 0.0173,-2.7674 0.0672,-4.6942 0.1495,-5.7806 0.0824,-1.0864 0.1894,-2.2905 0.3212,-3.6124 0.1318,-1.3218 0.2063,-2.7768 0.2235,-4.3651 0.0171,-1.5883 0.0858,-2.6657 0.2061,-3.2324 0.1203,-0.5665 0.2884,-1.0644 0.5042,-1.4935" /></g><g
         transform="matrix(0.5454546,0,0,-0.5454546,184.9511,908.4171)"
         id="g1459"><path
           id="path1461"
           style="mix-blend-mode:multiply;fill:none;stroke:#ffff00;stroke-width:24;stroke-linecap:round;stroke-linejoin:round;stroke-miterlimit:10;stroke-dasharray:none;stroke-opacity:0.5"
           d="m 414.277,319.0714 c -0.0564,-1.1944 -0.0193,-1.9184 0.1113,-2.1719 0.0912,-0.177 0.2059,-0.2901 0.3439,-0.3393 0.1381,-0.0492 0.2081,0.1502 0.2102,0.5982 0.002,0.4481 -0.0368,1.2546 -0.1164,2.4194 -0.0796,1.1648 -0.2733,2.992 -0.5812,5.4817 -0.3078,2.4897 -0.5802,4.7993 -0.8172,6.9289 -0.2369,2.1296 -0.3805,3.62 -0.4308,4.4713 -0.0503,0.8513 -0.0783,2.2948 -0.0838,4.3304 -0.006,2.0356 0.0129,3.837 0.0554,5.4039 0.0425,1.567 0.0714,3.329 0.0865,5.286 0.0151,1.957 0.0228,4.4422 0.0229,7.4555 2e-4,3.0133 0.007,5.7335 0.0206,8.1605 0.0136,2.4271 0.0143,3.9275 0.002,4.5013 -0.0123,0.5738 -0.0676,1.4932 -0.166,2.7581 -0.0983,1.2649 -0.1697,2.5189 -0.214,3.7619 -0.0443,1.2431 -0.0672,2.7196 -0.0688,4.4297 -0.002,1.71 0.0266,3.0911 0.0842,4.1431 0.0577,1.0521 0.1069,1.7684 0.1478,2.1491 0.0408,0.3807 0.0613,1.2949 0.0615,2.7427 10e-5,1.4477 0.09,2.2069 0.2697,2.2774 0.1796,0.0705 0.4791,-0.0414 0.8983,-0.3358 0.4191,-0.2944 0.8122,-0.4379 1.179,-0.4305 0.3669,0.007 0.7094,0.066 1.0274,0.176 0.318,0.1099 0.8374,0.1612 1.5581,0.1538 0.7208,-0.007 1.3057,-0.0255 1.7547,-0.054 0.4489,-0.0286 0.879,0.0347 1.2901,0.1899 0.4111,0.1551 0.7278,0.2413 0.9502,0.2585 0.2223,0.0173 0.4134,-0.1198 0.5735,-0.4113 0.16,-0.2915 0.2978,-0.7938 0.4132,-1.507 0.1155,-0.7132 0.2167,-1.6831 0.3036,-2.9099 0.0868,-1.2267 0.2375,-3.0885 0.4519,-5.5853 0.2145,-2.4969 0.4061,-4.5688 0.5749,-6.2158 0.1688,-1.6469 0.304,-3.0073 0.4057,-4.081 0.1017,-1.0738 0.2803,-2.6739 0.5358,-4.8003 0.2555,-2.1264 0.4791,-4.1194 0.6708,-5.9791 0.1918,-1.8597 0.3281,-3.6146 0.409,-5.2646 0.0809,-1.65 0.1421,-3.3424 0.1836,-5.0773 0.0415,-1.7349 0.0697,-3.1082 0.0846,-4.12 0.0148,-1.0118 0.0429,-2.0604 0.0842,-3.1457 0.0412,-1.0853 0.0961,-2.207 0.1645,-3.365 0.0684,-1.158 0.152,-2.3074 0.2506,-3.4482 0.0987,-1.1407 0.2695,-2.5675 0.5124,-4.2803 0.2429,-1.7128 0.5531,-3.484 0.9308,-5.3137 0.3776,-1.8296 0.7559,-3.5763 1.1348,-5.2399 0.6096,-2.6769 0.7116,-4.3701 0.3059,-5.0797" /></g><g
         transform="matrix(0.5454546,0,0,-0.5454546,184.9511,908.4171)"
         id="g1463"><path
           id="path1465"
           style="mix-blend-mode:multiply;fill:none;stroke:#01ff00;stroke-width:24;stroke-linecap:round;stroke-linejoin:round;stroke-miterlimit:10;stroke-dasharray:none;stroke-opacity:0.5"
           d="m 265.234,430.5354 c -0.7133,-0.0975 -1.304,-0.2899 -1.772,-0.577 -0.3174,-0.1948 -0.516,-0.6676 -0.5958,-1.4183 -0.0798,-0.7508 -0.122,-1.1478 -0.1266,-1.1912 -0.005,-0.0434 -0.007,-0.0554 -0.007,-0.0358 0,0.0196 0,0.1988 0,0.5376 0,0.3388 -0.3011,0.539 -0.9033,0.6007 -0.6021,0.0617 -0.8733,0.0108 -0.8135,-0.1526 0.0599,-0.1634 0.5561,-0.4008 1.4886,-0.7123 0.9325,-0.3114 1.7278,-0.4618 2.3859,-0.4512 0.6581,0.0106 1.1963,0.0524 1.6145,0.1254 0.4182,0.073 1.0026,0.1115 1.7531,0.1153 0.7505,0.004 1.441,-0.2393 2.0715,-0.7297 0.6306,-0.4904 0.9844,-0.9683 1.0614,-1.4337 0.077,-0.4654 0.1181,-0.7134 0.1232,-0.7441 0.005,-0.0306 0.007,-0.0155 0.004,0.0455 -0.002,0.0611 -0.0197,0.5545 -0.0526,1.4804 -0.033,0.9259 -0.15,2.2681 -0.3511,4.0266 -0.2012,1.7584 -0.3299,3.2324 -0.3862,4.422 -0.0563,1.1896 -0.0856,2.7084 -0.0877,4.5565 -0.002,1.848 0.005,3.0617 0.0202,3.6409 0.0156,0.5792 0.1025,1.3788 0.2606,2.3989 0.1581,1.02 0.3195,1.8362 0.4841,2.4484 0.1646,0.6122 0.315,1.0485 0.4512,1.3091 0.1362,0.2605 -0.7019,0.3929 -2.5143,0.3971 -1.8123,0.004 -3.132,0.0576 -3.959,0.1601 -0.827,0.1025 -1.6197,0.237 -2.3781,0.4034 -0.7583,0.1666 -1.472,0.298 -2.1411,0.3943 -0.6691,0.0964 -1.2819,0.1469 -1.8386,0.1515 -0.5566,0.005 -1.0997,-0.1266 -1.6293,-0.3937 -0.7393,-0.3728 -0.7752,-0.935 -0.1076,-1.6866" /></g><g
         transform="matrix(0.5454546,0,0,-0.5454546,184.9511,908.4171)"
         id="g1467"><path
           id="path1469"
           style="mix-blend-mode:multiply;fill:none;stroke:#01ff00;stroke-width:24;stroke-linecap:round;stroke-linejoin:round;stroke-miterlimit:10;stroke-dasharray:none;stroke-opacity:0.5"
           d="m 344.6013,374.0497 c 0.0334,-1.3066 0.008,-1.8359 -0.0758,-1.588 -0.06,0.1774 -0.2099,0.6207 -0.4499,1.33 -0.24,0.7093 -0.6157,2.3679 -1.1272,4.9758 -0.5114,2.6078 -0.8813,4.456 -1.1097,5.5445 -0.2283,1.0885 -0.405,2.0313 -0.5302,2.8283 -0.1251,0.797 -0.2119,2.0215 -0.2605,3.6737 -0.0485,1.6522 -0.1455,2.6945 -0.2907,3.1271 -0.1452,0.4325 0.1622,0.6147 0.9224,0.5465 0.7602,-0.0682 1.4581,-0.0933 2.0936,-0.0753 0.6355,0.018 1.2541,0.1433 1.8559,0.3758 0.6017,0.2326 1.3279,0.3696 2.1785,0.4111 0.8507,0.0414 1.409,-0.014 1.6748,-0.1665 0.2659,-0.1525 0.4749,-0.4066 0.6269,-0.7625 0.1521,-0.3558 0.2844,-1.0803 0.3971,-2.1735 0.1127,-1.0932 0.1796,-2.4772 0.2008,-4.152 0.0213,-1.6748 0.0982,-3.1295 0.2308,-4.3641 0.1326,-1.2347 0.3226,-2.3846 0.5699,-3.4498 0.2473,-1.0653 0.5237,-2.1298 0.8292,-3.1937 0.3056,-1.0639 0.6928,-2.3478 1.1616,-3.8516 0.4687,-1.5039 0.8324,-2.1838 1.0908,-2.0397" /></g><g
         transform="matrix(0.5454546,0,0,-0.5454546,184.9511,908.4171)"
         id="g1471"><path
           id="path1473"
           style="mix-blend-mode:multiply;fill:none;stroke:#01ff00;stroke-width:24;stroke-linecap:round;stroke-linejoin:round;stroke-miterlimit:10;stroke-dasharray:none;stroke-opacity:0.5"
           d="m 456.6357,319.3481 c -0.3571,0.0312 -0.5926,0.3566 -0.7066,0.9762 -0.1139,0.6196 -0.1807,1.8329 -0.2002,3.6399 -0.0195,1.807 -0.101,3.3529 -0.2444,4.6376 -0.1435,1.2847 -0.2172,2.5002 -0.2211,3.6465 -0.004,1.1462 -0.0241,2.0825 -0.0608,2.8087 -0.0367,0.7262 -0.117,1.4558 -0.2412,2.1887 -0.1241,0.733 -0.2957,1.4894 -0.5148,2.2692 -0.2191,0.7798 -0.3579,1.4456 -0.4163,1.9974 -0.0584,0.5519 -0.0895,1.1241 -0.0932,1.7166 -0.004,0.5926 0.286,0.9451 0.8693,1.0574 0.8496,0.1636 1.718,-0.1114 2.605,-0.8249" /></g><g
         transform="matrix(0.5454546,0,0,-0.5454546,184.9511,908.4171)"
         id="g1475"><path
           id="path1477"
           style="mix-blend-mode:multiply;fill:none;stroke:#ffa238;stroke-width:24;stroke-linecap:round;stroke-linejoin:round;stroke-miterlimit:10;stroke-dasharray:none;stroke-opacity:0.5"
           d="m 385.857,372.1211 c -0.5391,-0.5717 -1.1458,-0.9173 -1.82,-1.0367 -0.4573,-0.081 -1.0009,-0.059 -1.6308,0.0661 -0.6299,0.1251 -1.2009,0.2992 -1.713,0.5224 -0.512,0.2231 -0.9714,0.3983 -1.3781,0.5255 -0.4068,0.1271 -0.6871,0.2728 -0.841,0.437 -0.154,0.1642 -0.2319,2.1136 -0.2339,5.8482 -0.002,3.7345 0.0242,7.0892 0.0786,10.0638 0.0543,2.9746 0.0825,5.5945 0.0845,7.8596 0.002,2.265 0.0107,3.931 0.0263,4.9979 0.0156,1.0669 0.0592,2.511 0.1307,4.3324 0.0716,1.8214 0.1538,4.4791 0.2468,7.9732 0.0929,3.4941 0.1482,5.937 0.1657,7.3287 0.0175,1.3917 0.0457,2.6742 0.0845,3.8473 0.0387,1.1732 0.0591,4.715 0.061,10.6253 0.002,5.9104 0.0117,9.1176 0.029,9.6217 0.0173,0.5041 0.2169,0.8396 0.5987,1.0066 0.3818,0.167 0.7299,-0.1459 1.044,-0.9387 0.3142,-0.7927 0.5449,-1.4851 0.6921,-2.077 0.1472,-0.592 0.3323,-1.8296 0.5553,-3.7128 0.2229,-1.8833 0.3722,-3.6994 0.4478,-5.4483 0.0756,-1.749 0.131,-3.7988 0.1663,-6.1495 0.0353,-2.3507 0.0897,-4.2354 0.1631,-5.6539 0.0735,-1.4185 0.1382,-2.9973 0.1941,-4.7364 0.056,-1.7391 0.1374,-3.4047 0.2442,-4.9969 0.1068,-1.5921 0.2339,-3.2144 0.3812,-4.8668 0.1474,-1.6525 0.2781,-3.5847 0.3921,-5.7966 0.114,-2.212 0.2614,-4.1616 0.4421,-5.849 0.1806,-1.6874 0.3794,-3.2709 0.5963,-4.7505 0.217,-1.4797 0.4174,-2.5885 0.6012,-3.3265 0.1838,-0.7381 0.4394,-1.588 0.7668,-2.5498 0.3274,-0.9618 0.5833,-1.7542 0.7677,-2.3771 0.1844,-0.6228 0.3794,-1.4485 0.585,-2.4771 0.2057,-1.0286 0.4384,-1.9481 0.6982,-2.7585 0.2597,-0.8105 0.4652,-1.4979 0.6165,-2.0624 0.1512,-0.5644 0.2378,-1.1671 0.2596,-1.8079 0.0219,-0.6408 0.1628,-1.268 0.4227,-1.8814 0.2599,-0.6135 0.4341,-1.0246 0.5226,-1.2336 0.0886,-0.209 0.1136,-0.2031 0.0752,0.0176 -0.0385,0.2207 -0.1141,0.655 -0.227,1.3029 -0.1128,0.648 -0.4002,1.9429 -0.8622,3.885 -0.462,1.9421 -0.8468,3.5054 -1.1545,4.6899 -0.3077,1.1846 -0.6194,2.4891 -0.9349,3.9136 -0.3155,1.4244 -0.604,2.827 -0.8657,4.2078 -0.2617,1.3808 -0.4875,2.6944 -0.6775,3.9407 -0.19,1.2463 -0.353,2.46 -0.489,3.6408 -0.136,1.1809 -0.255,2.9031 -0.3569,5.1668 -0.102,2.2637 -0.1813,4.7688 -0.2381,7.5152 -0.0568,2.7465 -0.1279,4.7521 -0.2131,6.0168 -0.0853,1.2648 -0.1829,2.4807 -0.2928,3.6478 -0.11,1.1671 -0.3412,2.9284 -0.6936,5.2842 -0.3525,2.3556 -0.5948,4.0045 -0.7267,4.9466 -0.132,0.942 -0.2089,2.8295 -0.2307,5.6625 -0.0218,2.8329 -0.0436,4.7969 -0.0652,5.8918 -0.0217,1.095 0.2459,1.6744 0.803,1.7383" /></g><g
         transform="matrix(0.5454546,0,0,-0.5454546,184.9511,908.4171)"
         id="g1479"><path
           id="path1481"
           style="mix-blend-mode:multiply;fill:none;stroke:#00ffff;stroke-width:24;stroke-linecap:round;stroke-linejoin:round;stroke-miterlimit:10;stroke-dasharray:none;stroke-opacity:0.5"
           d="m 305.8275,373.7566 c -0.1906,0.3684 -0.3694,0.5067 -0.5365,0.4151 -0.1183,-0.0649 -0.1832,-0.1005 -0.1947,-0.1069 -0.0116,-0.006 -0.009,-0.003 0.009,0.01 0.0176,0.0128 0.1161,0.0848 0.2956,0.2161 0.1795,0.1313 0.4419,0.1887 0.7871,0.1724 0.3452,-0.0164 0.7367,-0.1236 1.1746,-0.3216 0.438,-0.1981 1.0981,-0.3091 1.9802,-0.333 0.8822,-0.024 1.646,-0.1802 2.2915,-0.4686 0.6454,-0.2884 1.1129,-0.4445 1.4026,-0.4683 0.2896,-0.0237 0.5951,-0.1258 0.9163,-0.3062 0.3212,-0.1803 0.5789,-0.2902 0.7732,-0.3295 0.1944,-0.0393 0.2926,0.3799 0.2948,1.2574 0.002,0.8775 -0.0762,2.1382 -0.2351,3.782 -0.1588,1.6438 -0.3371,3.134 -0.5348,4.4704 -0.1976,1.3365 -0.4525,2.9277 -0.7645,4.7736 -0.312,1.8459 -0.562,3.4236 -0.7501,4.7329 -0.188,1.3093 -0.4022,3.2389 -0.6425,5.7888 -0.2404,2.5499 -0.381,4.5677 -0.4219,6.0534 -0.0409,1.4857 -0.0623,3.0511 -0.0643,4.6962 -0.002,1.6451 0.0388,2.9371 0.1223,3.876 0.0834,0.9388 0.1985,1.8914 0.3452,2.8576 0.1467,0.9662 0.2598,2.1843 0.3393,3.6543 0.0795,1.4699 0.1204,4.36 0.1228,8.6701 0.002,4.3102 -0.0228,6.9405 -0.0754,7.891 -0.0527,0.9504 -0.0809,2.2863 -0.0845,4.0076 -0.004,1.7213 0.0118,2.8551 0.0464,3.4014 0.0347,0.5463 -0.9422,0.829 -2.9308,0.8483 -1.9886,0.0193 -4.22,0.0289 -6.6944,0.0289 -2.4743,10e-5 -4.1981,-0.0173 -5.1715,-0.052 -0.9734,-0.0346 -1.9317,0.2042 -2.8749,0.7165 -0.9433,0.5123 -1.3743,0.6725 -1.293,0.4805 0.0812,-0.192 0.2842,-0.672 0.6091,-1.44 0.3249,-0.7681 0.5891,-1.4872 0.7925,-2.1574 0.2035,-0.6703 0.3721,-1.4302 0.506,-2.2798 0.1339,-0.8496 0.2583,-2.4923 0.3734,-4.928 0.115,-2.4357 0.1987,-4.3934 0.2512,-5.8731 0.0524,-1.4797 0.1337,-3.1029 0.2438,-4.8696 0.1101,-1.7667 0.2747,-4.0412 0.4938,-6.8236 0.2191,-2.7824 0.4265,-4.9334 0.6222,-6.4532 0.1957,-1.5197 0.4775,-3.0892 0.8454,-4.7082 0.368,-1.619 0.6753,-3.1544 0.9221,-4.606 0.2467,-1.4516 0.4699,-3.1042 0.6695,-4.9578 0.1996,-1.8536 0.373,-3.3069 0.5201,-4.3599 0.1471,-1.053 0.4785,-2.4633 0.9942,-4.231 0.5157,-1.7676 0.8579,-2.9614 1.0265,-3.5814 0.1686,-0.6199 0.3181,-1.0176 0.4483,-1.193 0.1302,-0.1754 0.3309,-0.2643 0.602,-0.2667 0.2711,-0.002 0.5327,0.1982 0.7847,0.602 0.2521,0.4037 0.4351,0.8792 0.5491,1.4264 0.1139,0.5471 0.2098,1.2513 0.2875,2.1125 0.0777,0.8612 0.1294,2.5437 0.1551,5.0474 0.0257,2.5038 -0.005,5.0378 -0.0915,7.602 -0.0867,2.5641 -0.1321,4.9647 -0.1361,7.2016 -0.004,2.237 0.0506,3.946 0.1636,5.1271 0.1131,1.1811 0.384,2.9969 0.8126,5.4474 0.4286,2.4505 0.7541,4.2685 0.9764,5.4539 0.2223,1.1854 0.4207,2.3161 0.595,3.392 0.1743,1.0759 0.319,2.1411 0.434,3.1956 0.1149,1.0546 0.2416,2.7231 0.3801,5.0056 0.1384,2.2825 0.2176,4.0573 0.2375,5.3242 0.0198,1.267 0.0829,2.7192 0.1891,4.3567 0.1063,1.6375 0.2223,2.8144 0.3483,3.5307 0.1259,0.7163 0.2645,1.2536 0.4157,1.6118 0.1512,0.3582 0.3868,0.2515 0.7067,-0.3202 0.3199,-0.5716 0.7809,-1.7217 1.3829,-3.45 0.602,-1.7284 1.1637,-3.3242 1.6853,-4.7874 0.7608,-2.1345 1.6727,-5.3225 2.7356,-9.5638" /></g><g
         transform="matrix(0.5454546,0,0,-0.5454546,184.9511,908.4171)"
         id="g1483"><path
           id="path1485"
           style="mix-blend-mode:multiply;fill:none;stroke:#ff00ff;stroke-width:24;stroke-linecap:round;stroke-linejoin:round;stroke-miterlimit:10;stroke-dasharray:none;stroke-opacity:0.5"
           d="m 303.5441,320.3887 c -0.6627,0 -0.9952,0.4628 -0.9976,1.3885 -0.002,0.9257 0.0575,1.8646 0.1796,2.8166 0.1221,0.9519 0.3585,2.1964 0.7093,3.7334 0.3507,1.537 0.5475,2.9031 0.5904,4.0982 0.0428,1.1951 0.0311,2.0648 -0.0352,2.6092 -0.0663,0.5444 -0.2587,1.4124 -0.5772,2.6039 -0.3186,1.1916 -0.6301,2.4267 -0.9345,3.7052 -0.3045,1.2785 -0.4718,2.4758 -0.5018,3.5918 -0.0302,1.1161 2e-4,1.9061 0.0911,2.3701 0.0909,0.464 0.2517,0.7841 0.4825,0.9604 0.2307,0.1763 0.7751,0.2405 1.633,0.1928 0.858,-0.0478 1.981,-0.1006 3.3692,-0.1586 1.3882,-0.058 2.8042,-0.0879 4.2482,-0.0896 1.4439,-0.002 2.8175,0.1899 4.1208,0.5751 1.3033,0.3852 2.0398,0.5875 2.2094,0.607 0.1696,0.0195 0.3638,-1.0036 0.5825,-3.0695 0.2187,-2.0658 0.4017,-4.1733 0.5491,-6.3225 0.1473,-2.1491 0.2232,-4.5227 0.2275,-7.1208 0.004,-2.5981 0.0586,-4.6672 0.1631,-6.2072 0.1044,-1.54 0.1586,-2.8111 0.1625,-3.8132 0.004,-1.0021 -0.2501,-1.4255 -0.762,-1.2703" /></g><g
         transform="matrix(0.5454546,0,0,-0.5454546,0,792)"
         id="g1487"><path
           id="path1489"
           style="fill:none;stroke:#000000;stroke-width:4.67717;stroke-linecap:round;stroke-linejoin:round;stroke-miterlimit:10;stroke-dasharray:none;stroke-opacity:1"
           d="m 513.2309,165.683 c 4.2246,0.0999 9.0448,0.1509 14.4605,0.153 5.4157,0.002 8.5291,-0.0307 9.3402,-0.0984 0.8111,-0.0676 1.6656,-0.1985 2.5634,-0.3928 0.8978,-0.1942 1.4635,-0.3672 1.6971,-0.519 0.2337,-0.1518 0.3375,-0.3384 0.3117,-0.5599 -0.0367,-0.3128 -1.204,-0.1295 -3.5021,0.5499" /></g><g
         transform="matrix(0.5454546,0,0,-0.5454546,0,792)"
         id="g1491"><path
           id="path1493"
           style="fill:none;stroke:#000000;stroke-width:4.67717;stroke-linecap:round;stroke-linejoin:round;stroke-miterlimit:10;stroke-dasharray:none;stroke-opacity:1"
           d="m 512.3468,182.2115 c 2.0052,-0.003 4.7397,0.0927 8.2035,0.2885 3.4638,0.1957 6.622,0.3227 9.4745,0.3809 2.8526,0.0582 5.2277,0.0805 7.1253,0.0671 1.8976,-0.0135 3.5333,-0.1385 4.907,-0.3751 1.3737,-0.2366 2.4181,0.067 3.1333,0.9108" /></g><g
         transform="matrix(0.5786866,0,0,-1.313457,8.091365,741.7427)"
         id="g1495" /><g
         transform="matrix(0.5930386,0,0,-0.6576018,44.03318,709.5261)"
         id="g1497" /><g
         transform="matrix(0.591605,0,0,-0.7743889,118.7927,743.8254)"
         id="g1499" /><g
         transform="matrix(0.5930386,0,0,-1.045224,176.742,746.8214)"
         id="g1501" /><g
         transform="matrix(0.6096257,0,0,-0.9394567,249.4687,746.7818)"
         id="g1503" /><g
         transform="matrix(1.432838,0,0,-0.5454546,249.366,747.6892)"
         id="g1505" /><g
         transform="matrix(1.663662,0,0,-0.5454546,278.1863,703.9319)"
         id="g1507" /><g
         transform="matrix(0.5878574,0,0,-0.9483583,318.3084,740.7162)"
         id="g1509" /><g
         transform="matrix(0.5906748,0,0,-0.7543402,401.8494,743.2095)"
         id="g1511" /></g></g></svg>
