<?xml version="1.0" encoding="utf-8"?>
<!-- Generator: Adobe Illustrator 27.7.0, SVG Export Plug-In . SVG Version: 6.00 Build 0)  -->
<svg version="1.1" xmlns="http://www.w3.org/2000/svg" xmlns:xlink="http://www.w3.org/1999/xlink" x="0px" y="0px"
	 viewBox="0 0 361 105" style="enable-background:new 0 0 361 105;" xml:space="preserve">
<style type="text/css">
	.st0{fill:#FFFFFF;}
	.st1{fill:none;stroke:#231F20;stroke-linecap:round;stroke-linejoin:round;stroke-miterlimit:10;}
	.st2{fill:none;stroke:#000000;stroke-linecap:round;stroke-linejoin:round;stroke-miterlimit:10;}
	.st3{fill:none;stroke:#70CEFF;stroke-linecap:round;stroke-linejoin:round;stroke-miterlimit:10;}
	.st4{fill:none;stroke:#FFE096;stroke-linecap:round;stroke-linejoin:round;stroke-miterlimit:10;}
	.st5{fill:none;stroke:#C756B2;stroke-linecap:round;stroke-linejoin:round;stroke-miterlimit:10;}
	.st6{fill:#FFFFFF;stroke:#FF87EB;stroke-linecap:round;stroke-linejoin:round;stroke-miterlimit:10;}
	.st7{stroke:#000000;stroke-linecap:round;stroke-linejoin:round;stroke-miterlimit:10;}
	.st8{fill:#FFFFFF;stroke:#000000;stroke-linecap:round;stroke-linejoin:round;stroke-miterlimit:10;}
	.st9{fill:#FFFFFF;stroke:#000000;stroke-miterlimit:10;}
	.st10{fill:none;stroke:#000000;stroke-miterlimit:10;}
</style>
<g id="white_brackground">
	<rect class="st0" width="361" height="105"/>
</g>
<g id="lines_and_labels">
	<path class="st1" d="M252,21.5c-4.4,1-20,0-25.8,0c-19.7,0-40,0-59.6,0c-24.9,0-49-0.3-73.8-1c-25.3-0.7-53.4,1-78.5,0.3
		c0.2,0,0.3-0.3,0.3-0.6"/>
	<path class="st1" d="M15.5,63.6c25.6,0.1,50.8,0.4,76.5,0c23.9-0.3,46.4,0.8,70.2,0c21.4-0.7,44.4-0.2,65.8,0c6.9,0.1,20.4,0,24,0"
		/>
	<path class="st1" d="M14.8,86.1c37-0.7,94.9,0.3,111.2-0.5c27.9-1.4,55.7-0.1,83.7,0c6.6,0,13.2-0.6,19.7,0
		c9.3,0.8,21.4-0.2,30.2,0c11,0.3,19.5-0.7,30.2,0c11.1,0.7,26.7-0.8,37.2,0"/>
	<path class="st1" d="M5.4,67.4c0.1-0.4,0.3-0.7,0.5-1.1C6.4,65.2,6.6,64,7,62.8c0.3-1,0.4-2.4,1.5-2.8c0.3,1.2,0.7,2.3,1.2,3.4
		c0.4,0.8,0.6,1.8,1,2.6c0.4,0.6,0.9,1.1,1.2,1.7c0.1,0,0.1-0.1,0.1-0.2"/>
	<path class="st1" d="M5.9,63.6c1.4-0.3,3.3,0.4,4.5-0.4"/>
	<g>
		<path class="st2" d="M5.3,78.8c0,1.6,0.2,3.1,0.1,4.6c0,1,0,2.1,0,3.1c0-0.1,0-0.1,0-0.2"/>
		<path class="st2" d="M5.6,79c0.8-0.3,2.5-0.1,3.3,0.1c0.7,0.2,1.3,0.7,1.2,1.4c-0.1,1.8-2.9,1.9-4.3,1.9c0.1,0,0.1,0,0.2,0
			c0.9,0,2-0.1,2.9,0.2c1,0.3,2.1,2,1.4,2.9c-0.5,0.6-1.4,0.8-2.2,0.9c-0.7,0.1-1.9-0.2-2.5,0.1c0.1,0.1,0.2,0,0.3,0.1"/>
	</g>
	<path class="st2" d="M10,18.1c-0.8-1.1-3.5-1.1-4.4-0.1c-0.9,1.1,0.6,2.3,1.5,2.8c0.9,0.5,3,0.6,3.1,2c0.1,1.2-1.1,2-2.1,2
		c-0.5,0-3-0.7-2.8-1.1"/>
</g>
<g id="boxes">
	<path class="st3" d="M34.2,50.7c0,5.2-0.2,8.2-0.2,13.5c0,6.8,0.6,11,0.7,17.7c0.1,3.5-1.3,10.3,0.7,12.3c1.4,1.3,3,3.1,4.4,2.7
		c2.7-0.7,5.4,0,8.2,0c19,0.1,38.1,0.1,57.1,0c4.1,0,5.9,0,7.4-6.8c1.3-6.2-0.9-15.2-0.7-21.8c0.1-4.8-0.1-6,0-10.9
		c0.1-2.4,0.8-5.8,0-8.2c-0.2-0.7-1.5-1.4-2.5-2.7c-1-1.4-3.3-0.4-4.4-0.3c-4.3,0.4-8.5,0.4-12.7-0.6c-2.6-0.6-5.7-0.4-8.6-0.5
		c-2.3-0.1-6-0.3-8.2,0c-10.4,1.4-19.1-0.5-29.5,0.7c-3.4,0.4-10.6-1.7-11.8,6.4C34.2,52.8,34.3,51.9,34.2,50.7z"/>
	<path class="st4" d="M133.9,5.7c-3.8,7.6-2.4,19.4-2.4,27.7c0,9.2-0.3,18.4,0,27.9c0.1,3.3,0.6,6.7,2,9.7c1.7,3.4,3.5,4.6,7.5,4
		c2.5-0.4,5-0.3,7.6-0.2c2.1,0.1,4.2-0.1,6.2-0.2c4.3-0.2,8.7,0.2,13,0.2c3.9,0,7.6-0.4,11.5-0.7c3.6-0.2,7.4,0.5,11-0.1
		c1.1-0.2,2.9-0.7,3.5-1.8c1-1.9,0-4.8,0.3-6.9c0.3-3,0.3-6.1,0.3-9.1c0.1-2-0.3-3.9-0.1-5.9c0.2-2.8,0.4-5.5,0.1-8.3
		c-0.3-2.9,0.8-5.5,0.3-8.4c-0.5-3.3,0.5-6.7,0.3-10c-0.1-3-0.4-5.8-0.5-8.8c-0.1-2.8-0.1-7-2.4-9c-2.2-2-6.7-1.6-9.4-1.6
		c-3.2-0.1-6.4,0.3-9.7,0.4c-8.3,0.3-16.6,0.5-24.9,0.5c-2.6,0-5.1,0.2-7.7,0.2c-1.9,0-4.4-0.3-6.2,0.2
		C134.2,5.2,133.7,5.8,133.9,5.7z"/>
	<path class="st5" d="M222.7,4.6c-1.8,0-3.5,0.3-4.7,1.5c-3.5,3.2-2.4,10.8-2.7,15c-0.8,11.3-1.3,23.3-0.7,34.7
		c0.4,7.8,0.7,15.6,1.4,23.4c0.6,6.2-2.3,15.5,3.8,19.5c5.6,3.7,14.6,3.6,21,3.8c6.5,0.2,12.9-1.4,19.4-0.6c3.2,0.4,5.2,0.9,8.5,0.5
		c3.4-0.4,6.8-0.8,10.3-0.3c5,0.7,10-0.6,15,0c8.2,0.9,16.9,0.2,25.2-0.2c5.9-0.3,11.8-0.2,17.6-0.7c3.7-0.3,10.9,1,13.9-1.6
		c1.8-1.6,0.9-4.7,0.8-6.9c-0.3-12.8,2.6-25.7,2-38.6c-0.3-5.8,0-11.9-0.6-17.7c-0.6-6,0.1-11.7,0.6-17.7c0.2-3.3,1.3-8.5-1.3-10.9
		c-2.6-2.4-7.7-2.9-11-3.2C335.2,4,328.9,4,322.7,4c-3.3,0-6.7,0-10,0c-17.2,0-34.6,0.3-51.9,0.2c-6.6-0.1-13.3,0.1-19.9-0.3
		c-4.7-0.3-9.4,0.3-14,0.7C225.7,4.7,224.2,4.6,222.7,4.6z"/>
	<path class="st6" d="M29.8,10c-1.1,0-1.1,1.3-1.2,2.5c0,4.1-0.2,8.4-0.3,12.5c0,3.7-0.4,9.9,0.7,11.1c1.2,1.2,2.4,0.5,4.2,0.5
		c1.8,0,3.8,0.4,5.6,0c1.9-0.4,4.1,0,6,0c1.9,0,3.7,0,5.6,0c1.4,0,5.3,0,5.4-1.3c0.3-2.8-0.2-10.6-0.1-13.6
		c0.1-4.7,0.2-10.1-0.7-11.6c-1.1-1.7-4.4-0.8-6.7-0.8c-2.1,0-4.1-0.2-6,0c-2.8,0.3-6,0-8.8,0C32.3,9.2,31.3,10,29.8,10z"/>
</g>
<g id="gates_and_stuff">
	<path class="st7" d="M90.1,61.4c-0.1,0.2-0.3,0.2-0.5,0.3c-0.2,0.2-0.3,0.4-0.4,0.6c-0.1,0.3-0.2,0.7-0.3,1
		c-0.1,1.1,0.5,2.5,1.7,2.7c0.3,0.1,0.8,0.2,1.1,0.1c0.2-0.1,0.5-0.3,0.6-0.5c0.3-0.2,0.6-0.4,0.9-0.7c0.3-0.3,0.4-0.8,0.4-1.2
		c0-0.6-0.3-1-0.6-1.5c-0.2-0.4-0.5-0.5-0.8-0.8C92,61.3,91.5,61,91.1,61c-0.4-0.1-0.6,0-0.9,0.3C90.2,61.3,90.2,61.3,90.1,61.4z"/>
	<path class="st2" d="M91.2,66.8c0-0.1,0.1-0.2,0.1-0.3c-0.4,4.2-0.1,8.7-0.1,13.1c0,3.5,0.4,7,0.4,10.4c0,0.8-0.5,4,0.1,4.4"/>
	<path class="st2" d="M91.1,77.2c-1.4,0-2.7,0.3-4,1c-2.1,1.2-3.8,3.2-4.5,5.6c-0.7,2.5,0,5.6,1.7,7.7c0.9,1.1,2,1.5,3.1,2.1
		c1.1,0.7,2.2,0.7,3.5,0.7c2.1,0,4.3-0.6,6.1-1.9c1.5-1.1,2.1-3.1,2.5-4.9c0.3-1.1,0.6-2.6,0.4-3.7c-0.2-0.9-0.8-2.1-1.3-3
		c-0.4-0.8-1.2-1.3-1.9-1.8c-0.8-0.7-1.1-1.1-2.2-1.4C93.4,77.3,92.3,77.1,91.1,77.2z"/>
	<path class="st2" d="M91.5,77C91.6,76.9,91.6,76.9,91.5,77"/>
	<path class="st8" d="M68.6,51.7c0.6,1.5,0,4.2,0,5.4c0,3,0.2,5.8,0.4,8.7c0.2,3.1,0.5,6.2,0.6,9.3c0,1.2,0.2,2.1-1.3,1.9
		c0.5,0-1.1,0-1.4,0c-0.9,0-1.8,0.2-2.7,0.3c-1.8,0.2-3.7-0.1-5.5-0.1c-2.5,0-5,0.3-7.5,0.3c-2.4,0-5.1,0.4-7.5,0
		c-0.1,0-0.3,0-0.4,0c-0.1-3.5-1-6.9-0.7-10.5c0.3-3.4,0.6-6.6,0.7-10c0-1.5-1.1-5.4,0.7-6c1.7-0.6,4.7-0.1,6.5-0.1
		c3.7,0.1,7.4,0,11.1,0c1.8,0,4.1-0.5,5.9-0.2C68,50.9,68.4,51.2,68.6,51.7z"/>
	<path class="st2" d="M52.3,58.7c0.6,3.7-0.3,8.2-0.3,11.7"/>
	<path class="st2" d="M59.6,58.6c0.6,1.8,0.4,4.6,0.3,6.5c-0.2,1.8,0,3.6-0.1,5.4"/>
	<path class="st2" d="M53.1,64.4c1.7,0.6,4.1,0.1,5.7,0.1c-0.1,0-0.2,0-0.3,0"/>
	<g>
		<path class="st8" d="M186.6,9.7c0.6,1.5,0,4.2,0,5.4c0,3,0.2,5.8,0.4,8.7c0.2,3.1,0.5,6.2,0.6,9.3c0,1.2,0.2,2.1-1.3,1.9
			c0.5,0-1.1,0-1.4,0c-0.9,0-1.8,0.2-2.7,0.3c-1.8,0.2-3.7-0.1-5.5-0.1c-2.5,0-5,0.3-7.5,0.3c-2.4,0-5.1,0.4-7.5,0
			c-0.1,0-0.3,0-0.4,0c-0.1-3.5-1-6.9-0.7-10.5c0.3-3.4,0.6-6.6,0.7-10c0-1.5-1.1-5.4,0.7-6c1.7-0.6,4.7-0.1,6.5-0.1
			c3.7,0.1,7.4,0,11.1,0c1.8,0,4.1-0.5,5.9-0.2C186,8.9,186.4,9.2,186.6,9.7z"/>
		<path class="st8" d="M170.3,16.7c0.6,3.7-0.3,8.2-0.3,11.7"/>
		<path class="st8" d="M177.6,16.6c0.6,1.8,0.4,4.6,0.3,6.5c-0.2,1.8,0,3.6-0.1,5.4"/>
		<path class="st8" d="M171.1,22.4c1.7,0.6,4.1,0.1,5.7,0.1c-0.1,0-0.2,0-0.3,0"/>
	</g>
	<g>
		<path d="M145,23.8c-0.1,0-0.3,0-0.5-0.1c-0.1,0-0.2,0-0.3-0.1c-0.9-0.1-1.4-1.3-1.3-2.2c0-0.3,0.1-0.6,0.2-0.9
			c0.1-0.2,0.2-0.3,0.3-0.4c0,0,0.1,0,0.1-0.1c0.1-0.1,0.3-0.1,0.4-0.3l0.1,0l0.2-0.2l-0.1,0.1c0.1-0.1,0.2-0.1,0.3-0.1
			c0,0,0.1,0,0.1,0c0.3,0.1,0.8,0.3,1.1,0.5c0.3,0.2,0.5,0.3,0.7,0.6l0.1,0.1c0.3,0.4,0.5,0.7,0.4,1.1c0,0.3-0.1,0.7-0.3,0.9
			c-0.2,0.2-0.4,0.3-0.6,0.5l-0.2,0.2l-0.2,0.1c-0.1,0.1-0.3,0.2-0.4,0.3C145.1,23.8,145.1,23.8,145,23.8z"/>
		<path d="M144.5,20c0.2,0,0.6,0.2,0.9,0.4c0.3,0.2,0.4,0.3,0.5,0.5L146,21c0.2,0.4,0.4,0.6,0.4,0.8c0,0.2-0.1,0.4-0.2,0.5
			c-0.1,0.1-0.3,0.3-0.5,0.4c-0.1,0.1-0.2,0.1-0.3,0.2c-0.1,0-0.1,0.1-0.2,0.2c-0.1,0-0.2,0.1-0.2,0.2c-0.1,0-0.2,0-0.3-0.1
			c-0.1,0-0.2,0-0.3-0.1c-0.7-0.1-0.9-1-0.9-1.6c0-0.2,0.1-0.5,0.2-0.8c0.1-0.2,0.1-0.2,0.1-0.2c0,0,0,0,0,0c0,0,0,0,0.1,0
			c0.1-0.1,0.3-0.2,0.5-0.4L144.5,20 M144.4,19c-0.3,0-0.5,0.1-0.6,0.3c0,0.1,0,0-0.1,0.1c-0.1,0.2-0.3,0.2-0.5,0.3
			c-0.2,0.2-0.3,0.4-0.4,0.6c-0.1,0.3-0.2,0.7-0.3,1c-0.1,1.1,0.5,2.5,1.7,2.7c0.2,0,0.5,0.1,0.8,0.1c0.1,0,0.2,0,0.3-0.1
			c0.2-0.1,0.5-0.3,0.6-0.5c0.3-0.2,0.6-0.4,0.9-0.7c0.3-0.3,0.4-0.8,0.4-1.2c0-0.6-0.3-1-0.6-1.5c-0.2-0.4-0.5-0.5-0.8-0.8
			c-0.3-0.2-0.9-0.5-1.3-0.5C144.6,19,144.5,19,144.4,19L144.4,19z"/>
	</g>
	<path class="st2" d="M144.8,24.5c0-0.2,0.1-0.3,0.1-0.5c-0.4,7.1-0.1,15-0.1,22.5c0,6,0.4,11.9,0.4,17.9c0,1.4-0.5,6.9,0.1,7.6"/>
	<path class="st2" d="M144.7,55.2c-1.4,0-2.7,0.3-4,1c-2.1,1.2-3.8,3.2-4.5,5.6c-0.7,2.5,0,5.6,1.7,7.7c0.9,1.1,2,1.5,3.1,2.1
		c1.1,0.7,2.2,0.7,3.5,0.7c2.1,0,4.3-0.6,6.1-1.9c1.5-1.1,2.1-3.1,2.5-4.9c0.3-1.1,0.6-2.6,0.4-3.7c-0.2-0.9-0.8-2.1-1.3-3
		c-0.4-0.8-1.2-1.3-1.9-1.8c-0.8-0.7-1.1-1.1-2.2-1.4C147,55.4,145.8,55.2,144.7,55.2z"/>
	<g>
		<path class="st8" d="M251.5,10.2c0.3,0.3,0.6,0.6,0.7,1.2c0.4,1.8-0.4,3.9-0.5,5.7c-0.1,2.1,0.4,4,0.1,6.1
			c-0.2,1.6,0.7,4.3-0.5,5.7c-1.1,1.3-5.3,0.2-6.8,0.2c-2.3,0-4.5-0.1-6.7-0.1c-2.7,0-5.3,0.2-8,0c-0.5,0-4.7,0.2-4.8-0.3
			c-0.7-2.3,0-5.5-0.2-8c-0.1-1.4-0.3-2.7-0.2-4.1c0.1-1.5,0-2.8-0.1-4.2c-0.1-0.9-0.2-2.5,0.6-3.1c0.6-0.4,2.2,0.1,2.8,0.1
			c4.8,0,10-0.5,14.8,0c1.6,0.2,3.1,0.3,4.8,0.3C248.8,9.7,250.5,9.5,251.5,10.2z"/>
		<g>
			<path class="st8" d="M228.9,26.6c0.5-1.3,0.9-2.8,1.8-3.9c1.7-2.1,5.1-3.7,7.8-3.9c5.2-0.3,8.5,3.1,9.2,7.6"/>
			<path class="st8" d="M239.6,16.5c1.3-0.6,2.7-2.4,3.5-3.5c-0.4,1.5,0,3.3-0.4,4.9c-0.2,0.3-0.1,0-0.3-0.1"/>
			<path class="st8" d="M242.6,14.2c-1.1,2.5-2.7,4.9-4.1,7.3c-1,1.7-1.4,3.8-2.7,5.3"/>
		</g>
	</g>
	<g>
		<path class="st8" d="M251.5,52.2c0.3,0.3,0.6,0.6,0.7,1.2c0.4,1.8-0.4,3.9-0.5,5.7c-0.1,2.1,0.4,4,0.1,6.1
			c-0.2,1.6,0.7,4.3-0.5,5.7c-1.1,1.3-5.3,0.2-6.8,0.2c-2.3,0-4.5-0.1-6.7-0.1c-2.7,0-5.3,0.2-8,0c-0.5,0-4.7,0.2-4.8-0.3
			c-0.7-2.3,0-5.5-0.2-8c-0.1-1.4-0.3-2.7-0.2-4.1c0.1-1.5,0-2.8-0.1-4.2c-0.1-0.9-0.2-2.5,0.6-3.1c0.6-0.4,2.2,0.1,2.8,0.1
			c4.8,0,10-0.5,14.8,0c1.6,0.2,3.1,0.3,4.8,0.3C248.8,51.7,250.5,51.5,251.5,52.2z"/>
		<g>
			<path class="st8" d="M228.9,68.6c0.5-1.3,0.9-2.8,1.8-3.9c1.7-2.1,5.1-3.7,7.8-3.9c5.2-0.3,8.5,3.1,9.2,7.6"/>
			<path class="st8" d="M239.6,58.5c1.3-0.6,2.7-2.4,3.5-3.5c-0.4,1.5,0,3.3-0.4,4.9c-0.2,0.3-0.1,0-0.3-0.1"/>
			<path class="st8" d="M242.6,56.2c-1.1,2.5-2.7,4.9-4.1,7.3c-1,1.7-1.4,3.8-2.7,5.3"/>
		</g>
	</g>
	<g>
		<path class="st8" d="M35.3,15c-0.1,4.9,0,10.6,0,15.1"/>
		<path class="st2" d="M49,14.7c0.2,0,0.4,0,0.6,0c0.5,2.7,2.9,5.5,2.4,8.3c-0.4,2.1-1.7,4.9-2.5,7"/>
		<path class="st2" d="M37.6,22c1.2-0.2,1.8-2.8,2.8-1.4c0.8,1.1-0.7,3.4,0,4.6c0.9,1.4,3.3,1.2,4.5,0.3c1.1-0.8,2.3-5,0.9-5"/>
		<path class="st2" d="M44.5,17.7c-0.1,3.7-2.3,7.9-3.2,11.5c-0.1-0.3-0.1-0.6,0-1"/>
	</g>
	<g>
		<path class="st8" d="M329.6,78.3c-0.1,4.9,0,10.6,0,15.1"/>
		<path class="st2" d="M343.3,78c0.2,0,0.4,0,0.6,0c0.5,2.7,2.9,5.5,2.4,8.3c-0.4,2.1-1.7,4.9-2.5,7"/>
		<path class="st2" d="M331.9,85.3c1.2-0.2,1.8-2.8,2.8-1.4c0.8,1.1-0.7,3.4,0,4.6c0.9,1.4,3.3,1.2,4.5,0.3c1.1-0.8,2.3-5,0.9-5"/>
		<path class="st2" d="M338.8,81c-0.1,3.7-2.3,7.9-3.2,11.5c-0.1-0.3-0.1-0.6,0-1"/>
	</g>
	<g>
		<g>
			<path class="st0" d="M260.2,99.1c-0.9,0-1.7-0.1-2.4-0.2c0,0,0,0,0,0c-0.1-1.2-0.2-2.4-0.4-3.5c-0.3-2.1-0.5-4.3-0.3-6.4l0-0.4
				c0.3-3.3,0.6-6.3,0.6-9.6c0-0.4-0.1-0.9-0.1-1.6c-0.2-1.5-0.5-3.7,0.5-4c0.5-0.2,1.2-0.3,2.2-0.3c0.9,0,1.8,0.1,2.6,0.1
				c0.6,0,1.1,0.1,1.5,0.1c1.2,0,2.4,0,3.6,0c1.3,0,2.5,0,3.8,0c1.2,0,2.5,0,3.8,0c0.7,0,1.5-0.1,2.2-0.1c0.7-0.1,1.5-0.1,2.2-0.1
				c0.5,0,1,0,1.3,0.1c0.4,0.1,0.6,0.3,0.8,0.6c0.4,0.9,0.2,2.6,0.1,3.8c-0.1,0.6-0.1,1-0.1,1.4c0,2.6,0.1,5.3,0.4,8.8l0.1,1.4
				c0.2,2.6,0.4,5.2,0.5,7.9l0,0.4c0,0.4,0,0.9-0.1,1c0,0-0.1,0.1-0.3,0.1c-0.1,0-0.2,0-0.3,0v0c-0.2,0-0.5,0-0.9,0
				c-0.3,0-0.5,0-0.6,0c-0.6,0-1.2,0.1-1.8,0.2c-0.3,0-0.6,0.1-0.9,0.1c-0.4,0-0.8,0.1-1.2,0.1c-0.7,0-1.4,0-2.1-0.1
				c-0.7,0-1.4-0.1-2.1-0.1c-1.3,0-2.5,0.1-3.8,0.1c-1.2,0.1-2.5,0.1-3.7,0.1l0,0c-0.9,0-1.7,0-2.5,0.1
				C261.9,99.1,261.1,99.1,260.2,99.1z"/>
			<path d="M280,73.6L280,73.6c0.5,0,0.9,0,1.3,0.1c0.1,0,0.3,0.1,0.4,0.4c0.3,0.8,0.2,2.4,0.1,3.5c-0.1,0.6-0.1,1.1-0.1,1.5
				c0,2.6,0.1,5.3,0.4,8.8l0.1,1.4c0.2,2.6,0.4,5.2,0.5,7.8c0,0.1,0,0.3,0,0.4c0,0.2,0,0.4,0,0.5c0,0-0.1,0-0.1,0l0,0
				c-0.3,0-0.6,0-1,0c-0.3,0-0.5,0-0.7,0c-0.6,0-1.2,0.1-1.8,0.2c-0.3,0-0.6,0.1-0.9,0.1c-0.4,0-0.8,0.1-1.2,0.1c-0.7,0-1.3,0-2-0.1
				c-0.7,0-1.4-0.1-2.2-0.1c-1.3,0-2.6,0.1-3.8,0.1c-1.2,0.1-2.4,0.1-3.7,0.1c-0.8,0-1.7,0-2.5,0.1c-0.8,0-1.7,0.1-2.5,0.1
				c-0.7,0-1.4,0-1.9-0.1c-0.1-1.1-0.2-2.1-0.3-3.2c-0.3-2.1-0.5-4.2-0.3-6.3l0-0.4c0.3-3.3,0.6-6.4,0.6-9.6c0-0.4-0.1-1-0.1-1.6
				c-0.3-2.2-0.2-3.3,0.1-3.4c0.4-0.2,1.1-0.2,2-0.2c0.8,0,1.8,0.1,2.6,0.1c0.6,0,1.1,0.1,1.5,0.1c1.1,0,2.3,0,3.6,0
				c1.3,0,2.5,0,3.8,0c1.2,0,2.5,0,3.8,0c0.7,0,1.5-0.1,2.2-0.1C278.6,73.7,279.3,73.6,280,73.6 M280,72.6c-1.5,0-3,0.3-4.4,0.3
				c-2.5,0-5,0.1-7.5,0.1c-1.2,0-2.4,0-3.6,0c-1.1,0-2.7-0.2-4.2-0.2c-0.9,0-1.7,0.1-2.4,0.3c-1.7,0.6-0.6,4.5-0.7,6
				c-0.1,3.4-0.4,6.6-0.7,10c-0.3,3.6,0.6,7,0.7,10.5c0.1,0,0.1,0,0.1,0c0,0,0.1,0,0.1,0c0,0,0.1,0,0.1,0c0.8,0.1,1.6,0.2,2.5,0.2
				c1.7,0,3.4-0.2,5-0.2c0,0,0,0,0,0c0,0,0,0,0,0c2.5,0,4.9-0.3,7.4-0.3c1.4,0,2.8,0.2,4.2,0.2c0.4,0,0.9,0,1.3-0.1
				c0.9-0.1,1.7-0.2,2.7-0.3c0.1,0,0.4,0,0.6,0c0.5,0,1.1,0,0.8,0c0.2,0,0.3,0,0.4,0c1,0,0.9-0.9,0.9-2c-0.1-3.1-0.4-6.2-0.6-9.3
				c-0.2-2.9-0.4-5.8-0.4-8.7c0-1.2,0.6-3.9,0-5.4c-0.2-0.5-0.6-0.8-1.1-0.9C281,72.7,280.5,72.6,280,72.6L280,72.6z"/>
		</g>
		<g>
			<path class="st9" d="M265.9,79.6c1.5,1.6,2.6,4.1,4.1,6c1.1,1.5,2.4,2.8,3.3,4.5c0.3,0.5,0.5,1.1,1.1,1.3"/>
			<path class="st9" d="M266.2,91.7c2.2-4.4,6.3-7.8,8.2-12.1"/>
		</g>
	</g>
	<g>
		<path class="st8" d="M316.6,73.7c0.6,1.5,0,4.2,0,5.4c0,3,0.2,5.8,0.4,8.7c0.2,3.1,0.5,6.2,0.6,9.3c0,1.2,0.2,2.1-1.3,1.9
			c0.5,0-1.1,0-1.4,0c-0.9,0-1.8,0.2-2.7,0.3c-1.8,0.2-3.7-0.1-5.5-0.1c-2.5,0-5,0.3-7.5,0.3c-2.4,0-5.1,0.4-7.5,0
			c-0.1,0-0.3,0-0.4,0c-0.1-3.5-1-6.9-0.7-10.5c0.3-3.4,0.6-6.6,0.7-10c0-1.5-1.1-5.4,0.7-6c1.7-0.6,4.7-0.1,6.5-0.1
			c3.7,0.1,7.4,0,11.1,0c1.8,0,4.1-0.5,5.9-0.2C316,72.9,316.4,73.2,316.6,73.7z"/>
		<path class="st8" d="M300.7,80.1c2,0.8,5-0.5,6.9,0.4c-0.1,1.8-2.9,4.9-4.2,6.3c-0.8,0.9-3.5,3.6-3.3,4.4c2.4,0,4.8-0.1,7.2,0.2
			c-0.1,0.2-0.2,0.1-0.4,0.1"/>
	</g>
	<path class="st10" d="M252,63.2c4-0.2,9.1,0.1,13.5-0.1c3.1-0.1,2.7-0.1,2.9,2.2c0.1,1.6,0.2,3.2,0.2,4.8c0,0.6,0,1.2,0,1.7
		c0,0.3,0,1.6,0,1.2"/>
	<path class="st10" d="M252,61.2c4.4-0.3,10.2,0.1,15.1-0.2c3.4-0.2,3.1-0.1,3.2,2.7c0.1,1.9,0.2,3.8,0.2,5.8c0,0.7,0,1.4,0,2.1
		c0,0.4,0,2,0,1.4"/>
	<path class="st10" d="M251.8,20c12.5-1.3,28.9,0.3,42.6-0.7c9.7-0.7,8.6-0.3,9,11.9c0.3,8.5,0.5,17.1,0.5,25.8c0,3.1,0,6.2,0,9.2
		c0,1.6,0,8.7,0,6.4"/>
	<path class="st10" d="M251.8,18c13-1.4,30,0.3,44.2-0.7c10.1-0.7,9-0.3,9.4,12.3c0.3,8.9,0.5,17.7,0.5,26.7c0,3.2,0,6.4,0,9.6
		c0,1.7,0,9,0,6.6"/>
</g>
</svg>
