<?xml version="1.0" encoding="UTF-8" standalone="no"?>
<!-- Created with Inkscape (http://www.inkscape.org/) -->

<svg
   xmlns:dc="http://purl.org/dc/elements/1.1/"
   xmlns:cc="http://creativecommons.org/ns#"
   xmlns:rdf="http://www.w3.org/1999/02/22-rdf-syntax-ns#"
   xmlns:svg="http://www.w3.org/2000/svg"
   xmlns="http://www.w3.org/2000/svg"
   xmlns:xlink="http://www.w3.org/1999/xlink"
   xmlns:sodipodi="http://sodipodi.sourceforge.net/DTD/sodipodi-0.dtd"
   xmlns:inkscape="http://www.inkscape.org/namespaces/inkscape"
   width="535.14252mm"
   height="123.7872mm"
   viewBox="0 0 1896.1743 438.61606"
   id="svg2"
   version="1.1"
   inkscape:version="0.92.3 (2405546, 2018-03-11)"
   sodipodi:docname="applications.svg">
  <defs
     id="defs4">
    <inkscape:path-effect
       effect="bspline"
       id="path-effect968"
       is_visible="true"
       weight="33.333333"
       steps="2"
       helper_size="0"
       apply_no_weight="true"
       apply_with_weight="true"
       only_selected="false" />
    <inkscape:perspective
       sodipodi:type="inkscape:persp3d"
       inkscape:vp_x="-550.27945 : 1037.574 : 1"
       inkscape:vp_y="0 : 3129.3472 : 0"
       inkscape:vp_z="4548.8349 : 1037.574 : 1"
       inkscape:persp3d-origin="1999.2777 : 645.83066 : 1"
       id="perspective1085" />
    <marker
       inkscape:stockid="Arrow1Lend"
       orient="auto"
       refY="0"
       refX="0"
       id="marker1510"
       style="overflow:visible"
       inkscape:isstock="true">
      <path
         id="path1508"
         d="M 0,0 5,-5 -12.5,0 5,5 Z"
         style="fill:#4d4d4d;fill-opacity:1;fill-rule:evenodd;stroke:#4d4d4d;stroke-width:1.00000003pt;stroke-opacity:1"
         transform="matrix(-0.8,0,0,-0.8,-10,0)"
         inkscape:connector-curvature="0" />
    </marker>
    <marker
       inkscape:stockid="Arrow1Lend"
       orient="auto"
       refY="0"
       refX="0"
       id="Arrow1Lend"
       style="overflow:visible"
       inkscape:isstock="true">
      <path
         id="path1085"
         d="M 0,0 5,-5 -12.5,0 5,5 Z"
         style="fill:#000000;fill-opacity:1;fill-rule:evenodd;stroke:#000000;stroke-width:1.00000003pt;stroke-opacity:1"
         transform="matrix(-0.8,0,0,-0.8,-10,0)"
         inkscape:connector-curvature="0" />
    </marker>
    <clipPath
       clipPathUnits="userSpaceOnUse"
       id="clipPath4476">
      <circle
         r="99.117363"
         cy="142.22766"
         cx="593.30743"
         id="circle4478"
         style="fill:none;fill-opacity:1;fill-rule:nonzero;stroke:#000000;stroke-width:1.7652806;stroke-linecap:round;stroke-linejoin:round;stroke-miterlimit:4;stroke-dasharray:none;stroke-dashoffset:0;stroke-opacity:1" />
    </clipPath>
    <clipPath
       clipPathUnits="userSpaceOnUse"
       id="clipPath4515">
      <path
         style="fill:none;fill-rule:evenodd;stroke:#000000;stroke-width:1px;stroke-linecap:butt;stroke-linejoin:miter;stroke-opacity:1"
         d="m 175.76654,142.21476 h 255.5686 v 74.75129 H 171.72593 v -74.75129 z"
         id="path4517"
         inkscape:connector-curvature="0" />
    </clipPath>
    <clipPath
       clipPathUnits="userSpaceOnUse"
       id="clipPath4521">
      <rect
         style="fill:none;fill-opacity:0.98019804;fill-rule:nonzero;stroke:#000000;stroke-width:1.40032923;stroke-linecap:round;stroke-linejoin:round;stroke-miterlimit:4;stroke-dasharray:none;stroke-dashoffset:0;stroke-opacity:1"
         id="rect4523"
         width="278.49164"
         height="154.24284"
         x="731.00061"
         y="107.51974"
         ry="19.876656" />
    </clipPath>
    <clipPath
       clipPathUnits="userSpaceOnUse"
       id="clipPath4515-0">
      <path
         style="fill:none;fill-rule:evenodd;stroke:#000000;stroke-width:1px;stroke-linecap:butt;stroke-linejoin:miter;stroke-opacity:1"
         d="m 175.76654,142.21476 h 255.5686 v 74.75129 H 171.72593 v -74.75129 z"
         id="path4517-8"
         inkscape:connector-curvature="0" />
    </clipPath>
    <clipPath
       clipPathUnits="userSpaceOnUse"
       id="clipPath4476-7">
      <circle
         r="99.117363"
         cy="142.22766"
         cx="593.30743"
         id="circle4478-6"
         style="fill:none;fill-opacity:1;fill-rule:nonzero;stroke:#000000;stroke-width:1.7652806;stroke-linecap:round;stroke-linejoin:round;stroke-miterlimit:4;stroke-dasharray:none;stroke-dashoffset:0;stroke-opacity:1" />
    </clipPath>
    <clipPath
       clipPathUnits="userSpaceOnUse"
       id="clipPath4515-1">
      <path
         style="fill:none;fill-rule:evenodd;stroke:#000000;stroke-width:1px;stroke-linecap:butt;stroke-linejoin:miter;stroke-opacity:1"
         d="m 175.76654,142.21476 h 255.5686 v 74.75129 H 171.72593 v -74.75129 z"
         id="path4517-1"
         inkscape:connector-curvature="0" />
    </clipPath>
    <clipPath
       clipPathUnits="userSpaceOnUse"
       id="clipPath4476-3">
      <circle
         r="99.117363"
         cy="142.22766"
         cx="593.30743"
         id="circle4478-5"
         style="fill:none;fill-opacity:1;fill-rule:nonzero;stroke:#000000;stroke-width:1.7652806;stroke-linecap:round;stroke-linejoin:round;stroke-miterlimit:4;stroke-dasharray:none;stroke-dashoffset:0;stroke-opacity:1" />
    </clipPath>
    <clipPath
       clipPathUnits="userSpaceOnUse"
       id="clipPath4515-5">
      <path
         style="fill:none;fill-rule:evenodd;stroke:#000000;stroke-width:1px;stroke-linecap:butt;stroke-linejoin:miter;stroke-opacity:1"
         d="m 175.76654,142.21476 h 255.5686 v 74.75129 H 171.72593 v -74.75129 z"
         id="path4517-6"
         inkscape:connector-curvature="0" />
    </clipPath>
    <clipPath
       clipPathUnits="userSpaceOnUse"
       id="clipPath4476-5">
      <circle
         r="99.117363"
         cy="142.22766"
         cx="593.30743"
         id="circle4478-9"
         style="fill:none;fill-opacity:1;fill-rule:nonzero;stroke:#000000;stroke-width:1.7652806;stroke-linecap:round;stroke-linejoin:round;stroke-miterlimit:4;stroke-dasharray:none;stroke-dashoffset:0;stroke-opacity:1" />
    </clipPath>
    <clipPath
       clipPathUnits="userSpaceOnUse"
       id="clipPath4515-15">
      <path
         style="fill:none;fill-rule:evenodd;stroke:#000000;stroke-width:1px;stroke-linecap:butt;stroke-linejoin:miter;stroke-opacity:1"
         d="m 175.76654,142.21476 h 255.5686 v 74.75129 H 171.72593 v -74.75129 z"
         id="path4517-0"
         inkscape:connector-curvature="0" />
    </clipPath>
    <clipPath
       clipPathUnits="userSpaceOnUse"
       id="clipPath4476-6">
      <circle
         r="99.117363"
         cy="142.22766"
         cx="593.30743"
         id="circle4478-50"
         style="fill:none;fill-opacity:1;fill-rule:nonzero;stroke:#000000;stroke-width:1.7652806;stroke-linecap:round;stroke-linejoin:round;stroke-miterlimit:4;stroke-dasharray:none;stroke-dashoffset:0;stroke-opacity:1" />
    </clipPath>
    <clipPath
       clipPathUnits="userSpaceOnUse"
       id="clipPath4515-04">
      <path
         style="fill:none;fill-rule:evenodd;stroke:#000000;stroke-width:1px;stroke-linecap:butt;stroke-linejoin:miter;stroke-opacity:1"
         d="m 175.76654,142.21476 h 255.5686 v 74.75129 H 171.72593 v -74.75129 z"
         id="path4517-2"
         inkscape:connector-curvature="0" />
    </clipPath>
    <clipPath
       clipPathUnits="userSpaceOnUse"
       id="clipPath4476-74">
      <circle
         r="99.117363"
         cy="142.22766"
         cx="593.30743"
         id="circle4478-0"
         style="fill:none;fill-opacity:1;fill-rule:nonzero;stroke:#000000;stroke-width:1.7652806;stroke-linecap:round;stroke-linejoin:round;stroke-miterlimit:4;stroke-dasharray:none;stroke-dashoffset:0;stroke-opacity:1" />
    </clipPath>
    <clipPath
       clipPathUnits="userSpaceOnUse"
       id="clipPath4684">
      <circle
         style="fill:none;fill-opacity:0.98019804;fill-rule:nonzero;stroke:#000000;stroke-width:2.29022717;stroke-linecap:round;stroke-linejoin:round;stroke-miterlimit:4;stroke-dasharray:none;stroke-dashoffset:0;stroke-opacity:1"
         id="circle4686"
         cx="1162.6406"
         cy="622.08215"
         r="98.854889" />
    </clipPath>
    <clipPath
       clipPathUnits="userSpaceOnUse"
       id="clipPath4728">
      <circle
         style="fill:none;fill-opacity:0.98019804;fill-rule:nonzero;stroke:#000000;stroke-width:1.54175246;stroke-linecap:round;stroke-linejoin:round;stroke-miterlimit:4;stroke-dasharray:none;stroke-dashoffset:0;stroke-opacity:1"
         id="circle4730"
         cx="1131.3708"
         cy="786.69208"
         r="99.229126" />
    </clipPath>
    <clipPath
       clipPathUnits="userSpaceOnUse"
       id="clipPath4743">
      <circle
         style="fill:none;fill-opacity:0.98019804;fill-rule:nonzero;stroke:#000000;stroke-width:1.54175246;stroke-linecap:round;stroke-linejoin:round;stroke-miterlimit:4;stroke-dasharray:none;stroke-dashoffset:0;stroke-opacity:1"
         id="circle4745"
         cx="1211.1729"
         cy="694.76819"
         r="99.229126" />
    </clipPath>
    <clipPath
       clipPathUnits="userSpaceOnUse"
       id="clipPath4758">
      <circle
         style="fill:none;fill-opacity:0.98019804;fill-rule:nonzero;stroke:#000000;stroke-width:1.54175246;stroke-linecap:round;stroke-linejoin:round;stroke-miterlimit:4;stroke-dasharray:none;stroke-dashoffset:0;stroke-opacity:1"
         id="circle4760"
         cx="-16.207386"
         cy="893.81317"
         r="99.229126" />
    </clipPath>
    <clipPath
       clipPathUnits="userSpaceOnUse"
       id="clipPath4822">
      <circle
         style="fill:none;fill-opacity:0.98019804;fill-rule:nonzero;stroke:#000000;stroke-width:1.54175246;stroke-linecap:round;stroke-linejoin:round;stroke-miterlimit:4;stroke-dasharray:none;stroke-dashoffset:0;stroke-opacity:1"
         id="circle4824"
         cx="1179.8582"
         cy="442.23007"
         r="99.229126" />
    </clipPath>
    <clipPath
       clipPathUnits="userSpaceOnUse"
       id="clipPath4822-3">
      <circle
         style="fill:none;fill-opacity:0.98019804;fill-rule:nonzero;stroke:#000000;stroke-width:1.54175246;stroke-linecap:round;stroke-linejoin:round;stroke-miterlimit:4;stroke-dasharray:none;stroke-dashoffset:0;stroke-opacity:1"
         id="circle4824-6"
         cx="1179.8582"
         cy="442.23007"
         r="99.229126" />
    </clipPath>
    <clipPath
       clipPathUnits="userSpaceOnUse"
       id="clipPath4515-5-7">
      <path
         style="fill:none;fill-rule:evenodd;stroke:#000000;stroke-width:1px;stroke-linecap:butt;stroke-linejoin:miter;stroke-opacity:1"
         d="m 175.76654,142.21476 h 255.5686 v 74.75129 H 171.72593 v -74.75129 z"
         id="path4517-6-5"
         inkscape:connector-curvature="0" />
    </clipPath>
    <clipPath
       clipPathUnits="userSpaceOnUse"
       id="clipPath4822-0">
      <circle
         style="fill:none;fill-opacity:0.98019804;fill-rule:nonzero;stroke:#000000;stroke-width:1.54175246;stroke-linecap:round;stroke-linejoin:round;stroke-miterlimit:4;stroke-dasharray:none;stroke-dashoffset:0;stroke-opacity:1"
         id="circle4824-8"
         cx="1179.8582"
         cy="442.23007"
         r="99.229126" />
    </clipPath>
    <clipPath
       clipPathUnits="userSpaceOnUse"
       id="clipPath4515-5-9">
      <path
         style="fill:none;fill-rule:evenodd;stroke:#000000;stroke-width:1px;stroke-linecap:butt;stroke-linejoin:miter;stroke-opacity:1"
         d="m 175.76654,142.21476 h 255.5686 v 74.75129 H 171.72593 v -74.75129 z"
         id="path4517-6-8"
         inkscape:connector-curvature="0" />
    </clipPath>
    <clipPath
       clipPathUnits="userSpaceOnUse"
       id="clipPath4822-8">
      <circle
         style="fill:none;fill-opacity:0.98019804;fill-rule:nonzero;stroke:#000000;stroke-width:1.54175246;stroke-linecap:round;stroke-linejoin:round;stroke-miterlimit:4;stroke-dasharray:none;stroke-dashoffset:0;stroke-opacity:1"
         id="circle4824-9"
         cx="1179.8582"
         cy="442.23007"
         r="99.229126" />
    </clipPath>
    <clipPath
       clipPathUnits="userSpaceOnUse"
       id="clipPath4515-5-0">
      <path
         style="fill:none;fill-rule:evenodd;stroke:#000000;stroke-width:1px;stroke-linecap:butt;stroke-linejoin:miter;stroke-opacity:1"
         d="m 175.76654,142.21476 h 255.5686 v 74.75129 H 171.72593 v -74.75129 z"
         id="path4517-6-1"
         inkscape:connector-curvature="0" />
    </clipPath>
    <radialGradient
       inkscape:collect="always"
       xlink:href="#linearGradient8503"
       id="radialGradient8511-6"
       cx="270.04449"
       cy="672.15985"
       fx="270.04449"
       fy="672.15985"
       r="145.45503"
       gradientUnits="userSpaceOnUse"
       gradientTransform="matrix(0.84621663,0.03752624,-0.0340742,0.80381315,1226.7065,253.80891)" />
    <linearGradient
       inkscape:collect="always"
       id="linearGradient8503">
      <stop
         style="stop-color:#000000;stop-opacity:1;"
         offset="0"
         id="stop8505" />
      <stop
         style="stop-color:#000000;stop-opacity:0;"
         offset="1"
         id="stop8507" />
    </linearGradient>
    <clipPath
       clipPathUnits="userSpaceOnUse"
       id="clipPath4515-5-9-6">
      <path
         style="fill:none;fill-rule:evenodd;stroke:#000000;stroke-width:1px;stroke-linecap:butt;stroke-linejoin:miter;stroke-opacity:1"
         d="m 175.76654,142.21476 h 255.5686 v 74.75129 H 171.72593 v -74.75129 z"
         id="path4517-6-8-8"
         inkscape:connector-curvature="0" />
    </clipPath>
    <clipPath
       clipPathUnits="userSpaceOnUse"
       id="clipPath990">
      <circle
         style="opacity:1;fill:none;fill-opacity:1;fill-rule:nonzero;stroke:#ffffff;stroke-width:3.74999976;stroke-linecap:round;stroke-linejoin:round;stroke-miterlimit:4;stroke-dasharray:none;stroke-dashoffset:0;stroke-opacity:1"
         id="circle992"
         cx="-1005.4034"
         cy="1389.6896"
         r="422.02295" />
    </clipPath>
    <clipPath
       clipPathUnits="userSpaceOnUse"
       id="clipPath994">
      <circle
         style="opacity:1;fill:none;fill-opacity:1;fill-rule:nonzero;stroke:#ffffff;stroke-width:3.74999976;stroke-linecap:round;stroke-linejoin:round;stroke-miterlimit:4;stroke-dasharray:none;stroke-dashoffset:0;stroke-opacity:1"
         id="circle996"
         cx="305.72052"
         cy="1491.2078"
         r="521.98511" />
    </clipPath>
    <clipPath
       clipPathUnits="userSpaceOnUse"
       id="clipPath4822-5">
      <circle
         style="fill:none;fill-opacity:0.98019804;fill-rule:nonzero;stroke:#000000;stroke-width:1.54175246;stroke-linecap:round;stroke-linejoin:round;stroke-miterlimit:4;stroke-dasharray:none;stroke-dashoffset:0;stroke-opacity:1"
         id="circle4824-62"
         cx="1179.8582"
         cy="442.23007"
         r="99.229126" />
    </clipPath>
    <clipPath
       clipPathUnits="userSpaceOnUse"
       id="clipPath4515-5-91">
      <path
         style="fill:none;fill-rule:evenodd;stroke:#000000;stroke-width:1px;stroke-linecap:butt;stroke-linejoin:miter;stroke-opacity:1"
         d="m 175.76654,142.21476 h 255.5686 v 74.75129 H 171.72593 v -74.75129 z"
         id="path4517-6-2"
         inkscape:connector-curvature="0" />
    </clipPath>
  </defs>
  <sodipodi:namedview
     id="base"
     pagecolor="#ffffff"
     bordercolor="#666666"
     borderopacity="1.0"
     inkscape:pageopacity="0.0"
     inkscape:pageshadow="2"
     inkscape:zoom="0.13874808"
     inkscape:cx="1893.0927"
     inkscape:cy="348.35548"
     inkscape:document-units="px"
     inkscape:current-layer="g4243"
     showgrid="false"
     inkscape:window-width="1853"
     inkscape:window-height="1025"
     inkscape:window-x="67"
     inkscape:window-y="27"
     inkscape:window-maximized="1"
     fit-margin-top="0"
     fit-margin-left="0"
     fit-margin-right="0"
     fit-margin-bottom="0"
     inkscape:snap-global="false"
     showguides="false" />
  <metadata
     id="metadata7">
    <rdf:RDF>
      <cc:Work
         rdf:about="">
        <dc:format>image/svg+xml</dc:format>
        <dc:type
           rdf:resource="http://purl.org/dc/dcmitype/StillImage" />
        <dc:title></dc:title>
      </cc:Work>
    </rdf:RDF>
  </metadata>
  <g
     inkscape:label="Layer 1"
     inkscape:groupmode="layer"
     id="layer1"
     transform="translate(44.823594,-435.13838)">
    <text
       id="text923"
       y="505.73526"
       x="493.32108"
       style="font-style:normal;font-weight:normal;font-size:37.5px;line-height:1.25;font-family:sans-serif;letter-spacing:0px;word-spacing:0px;fill:#000000;fill-opacity:1;stroke:none;stroke-width:0.93749994"
       xml:space="preserve"><tspan
         style="stroke-width:0.93749994"
         y="538.91394"
         x="493.32108"
         id="tspan921"
         sodipodi:role="line" /></text>
    <path
       d="M 436.92448,1399.7375 A 144.70415,148.00365 0 0 1 295.45313,1547.7043 144.70415,148.00365 0 0 1 147.66064,1406.3489 144.70415,148.00365 0 0 1 282.52842,1252.0662 144.70415,148.00365 0 0 1 436.34699,1386.528"
       sodipodi:open="true"
       sodipodi:end="6.1938151"
       sodipodi:start="0"
       sodipodi:ry="148.00365"
       sodipodi:rx="144.70415"
       sodipodi:cy="1399.7375"
       sodipodi:cx="292.22034"
       sodipodi:type="arc"
       inkscape:export-ydpi="200"
       inkscape:export-xdpi="200"
       id="path4688-9-7-0-5"
       style="fill:url(#radialGradient8511-6);fill-opacity:1;fill-rule:nonzero;stroke:none;stroke-width:2.0208087;stroke-linecap:round;stroke-linejoin:round;stroke-miterlimit:4;stroke-dasharray:none;stroke-dashoffset:0;stroke-opacity:1" />
    <g
       id="g933"
       inkscape:export-filename="/home/maria/Dropbox/TALKS/55 Flagship project workshop/qc.png"
       inkscape:export-xdpi="200"
       inkscape:export-ydpi="200"
       transform="matrix(1.5242011,0,0,1.4814616,171.69003,-342.82253)"
       style="stroke-width:0.66547793">
      <g
         inkscape:export-filename="/home/maria/Dropbox/TALKS/55 Flagship project workshop/ai.png"
         inkscape:export-ydpi="100"
         inkscape:export-xdpi="100"
         transform="matrix(0.81456216,0,0,0.80317005,-393.06306,-13.575395)"
         id="g4243"
         style="stroke-width:0.66547793">
        <path
           style="fill:#333333;stroke:#333333;stroke-width:0.77132791px;stroke-linecap:butt;stroke-linejoin:miter;stroke-opacity:1"
           d="m 352.55983,916.29432 v -65.30467 h 51.7013 v 66.72433"
           id="path960"
           inkscape:connector-curvature="0"
           inkscape:export-xdpi="200"
           inkscape:export-ydpi="200" />
        <ellipse
           style="opacity:1;fill:#333333;fill-opacity:1;fill-rule:nonzero;stroke:#333333;stroke-width:7.17334986;stroke-linecap:round;stroke-linejoin:round;stroke-miterlimit:4;stroke-dasharray:none;stroke-dashoffset:0;stroke-opacity:1"
           id="path962"
           cx="377.73019"
           cy="974.50067"
           rx="65.987175"
           ry="61.04567"
           inkscape:export-xdpi="200"
           inkscape:export-ydpi="200" />
        <path
           style="opacity:1;fill:#333333;fill-opacity:1;fill-rule:nonzero;stroke:#333333;stroke-width:7.17334986;stroke-linecap:round;stroke-linejoin:round;stroke-miterlimit:4;stroke-dasharray:none;stroke-dashoffset:0;stroke-opacity:1"
           id="path964"
           d="m 396.62259,804.2709 c -1.54734,1.89658 -8.04619,8.37413 -10.16334,8.30347 1.38169,-3.6771 2.85446,-8.00979 1.74934,-12.01129 -0.37585,-1.36084 -0.95091,-2.65297 -1.42636,-3.97946 -0.29045,-0.83219 -0.81215,-1.61306 -0.87137,-2.49656 -0.0184,-0.27339 0.45481,-0.27469 0.6757,-0.42298 0.32668,-0.2193 0.58743,-0.59069 0.96645,-0.67944 2.08661,-0.48859 19.32078,1.18761 -6.1835,-0.65386 0.50664,2.06768 0.2295,0.089 -3.28967,2.83733 -1.4041,1.09655 -2.67369,3.87394 -2.85949,2.65937 -0.10028,-0.65557 0.11998,-1.32182 0.17997,-1.98273 0.19288,-5.96419 0.92571,-11.90004 1.54373,-17.83118 0.0263,-0.26432 0.0119,-1.04936 0.0789,-0.79297 0.85536,3.27434 -0.4593,1.56184 1.22663,5.14952 0.88622,1.88591 3.52188,4.02324 2.41311,5.7763 -0.24663,0.38995 -0.74645,0.51622 -1.11968,0.77433 -0.72154,0.0202 -1.44308,0.0403 -2.16463,0.0605 -1.00363,0.19242 -1.99268,0.50705 -3.0109,0.57724 -1.72555,0.11895 -5.70369,-0.31201 -7.41963,-0.34079 -11.43193,-0.19167 3.16799,0.47481 -7.95464,-0.10859 -3.93315,-0.35749 -2.81341,-0.23376 -6.50033,-0.64779 -0.85629,-0.0961 -3.42492,-0.20514 -2.56809,-0.29589 13.38909,-1.418 6.13653,1.70531 11.0584,-2.57479 3.64034,-3.65004 3.1179,-2.59839 5.52696,-6.9101 0.2951,-0.52818 0.42731,-1.1468 0.74082,-1.66331 0.26375,-0.43455 0.16897,1.2071 0.36439,1.53989 0.16613,-2.12989 -0.57571,-4.49532 -1.36608,-6.4261 -0.46732,-1.1416 -1.29756,-2.1352 -1.57333,-3.34278 -0.30448,-1.33334 1.65883,-2.88381 2.1832,-3.45145 -2.62215,-0.28009 -5.44926,0.25654 -7.86645,-0.84029 -1.12449,-0.51025 2.37008,-0.67448 3.51428,-1.13455 1.66642,-0.67005 3.25135,-1.54504 4.90431,-2.25048 1.99768,-0.85255 4.06131,-1.53359 6.04453,-2.42215 2.94705,-1.3204 5.54928,-2.93175 8.33825,-4.55754 2.44527,-1.40921 4.38351,-3.36145 6.26547,-5.45675 0.24531,-0.27313 0.42734,-0.94388 0.75757,-0.79764 0.34615,0.1533 0.0832,0.781 0.0907,1.17329 0.0207,1.0882 -0.005,2.17682 -0.006,3.26522 -3.97806,-0.67448 2.19926,4.87554 0.62651,6.09031 -0.84449,0.65226 -6.23719,-1.21819 -6.92552,-1.38733 -1.34775,-0.33118 -2.72174,-0.53292 -4.08262,-0.79937 -8.52301,-2.62713 -17.31896,-3.75816 -26.11059,-4.81649 4.38239,-0.68994 -8.08144,-0.49678 -6.05758,-0.66669 3.05475,-0.25647 6.16044,0.0624 9.18307,-0.46521 1.26777,-0.22129 3.91627,-4.0319 4.6426,-5.08765 3.05244,-5.27792 3.5745,-11.57739 1.73991,-17.38092 -0.57739,-1.82651 -1.84394,-3.39488 -2.24891,-5.27119 -0.16634,-0.77072 1.95945,-1.41035 3.43735,-2.02384 0.75837,-4.02453 11.11766,2.26126 11.38091,-1.7295 0.14208,-2.15384 -6.92122,0.8757 -6.11491,-1.11256 0.91308,-2.25153 4.65047,-0.60759 6.96545,-0.98476 5.1801,-0.84396 6.05082,-1.1438 10.92335,-2.32094 2.62982,-0.45877 4.49472,-1.58501 6.60775,-3.09908 0.31803,-0.22788 0.85546,-1.03472 0.97435,-0.65176 0.20127,0.64828 -0.43164,1.28998 -0.5694,1.95609 -0.1569,0.7586 -0.20796,1.53689 -0.31193,2.30533 -1.60681,1.79191 2.27887,5.74688 0.34832,7.48465 -1.35527,1.21994 -2.29731,0.71949 -4.0576,0.80257 -1.1667,0.0551 -2.32984,0.17381 -3.49475,0.26071 -4.50924,-0.56365 -9.03878,-0.12822 -13.55188,-0.16275 -4.81094,-0.0368 -9.65461,-0.34559 -14.46893,-0.46087 7.96032,-0.44619 9.68198,0.68894 6.01514,-1.1172 -27.79416,11.82381 -43.81937,-29.19066 -16.02521,-41.01447 v 0 c 10.42315,-3.60051 3.49043,-1.77026 21.30929,-2.59147 5.32352,-0.0363 10.77006,-0.24634 16.0837,0.11129 5.94405,0.40006 11.87111,1.5134 17.74457,2.47695 3.83872,1.23422 8.52982,2.54492 12.15305,4.46594 6.50402,3.44839 12.92195,8.59435 16.41035,15.44901 1.55627,3.05805 2.31057,6.49167 3.46585,9.73751 0.16022,2.98793 0.70421,5.9803 0.48067,8.9638 -0.88707,11.83902 -7.25206,22.63416 -15.55209,30.43942 -2.40727,2.26376 -5.18335,4.06002 -7.77503,6.09003 -2.86759,1.52002 -5.63232,3.273 -8.6028,4.56008 -14.96732,6.48518 -34.37535,7.9979 -49.99345,4.59186 -2.49867,-0.54492 -4.90561,-1.47541 -7.35841,-2.21311 -2.91843,-1.21635 -9.55337,-3.66518 -12.13395,-5.92148 -9.85168,-8.6137 -12.52977,-15.90188 -10.01727,-29.25242 0.43048,-2.2874 1.90656,-4.21642 2.85983,-6.32463 1.27131,-1.63423 2.37689,-3.42552 3.81392,-4.90268 2.53681,-2.60766 8.04089,-6.87727 11.62326,-7.5798 8.10235,-1.58893 16.6817,-0.97804 24.90941,-0.84224 11.9976,1.23622 23.78636,3.92517 34.9276,8.84418 7.11718,3.90352 14.15485,7.43196 19.59654,13.81967 1.50636,1.76824 3.11179,3.50427 4.21259,5.57257 1.53747,2.88874 2.4194,6.10743 3.6291,9.16115 0.80483,7.10142 1.51814,8.53991 0.31094,15.41331 -1.81676,10.34399 -7.74985,19.28426 -14.25099,27.01469 -6.52697,6.22953 -7.25956,7.58835 -15.26901,12.34609 -7.09175,4.21262 -19.55748,8.69067 -27.67853,9.21762 -6.27568,0.40722 -12.57553,-0.0491 -18.8633,-0.0737 -5.40311,-1.73278 -9.23813,-2.42521 -13.88212,-5.85129 -7.92652,-5.84776 -12.03784,-13.35615 -13.1268,-23.32507 -0.008,-8.27011 1.04923,-16.59641 6.13051,-23.39121 1.53032,-2.04638 3.56415,-3.62202 5.34623,-5.43302 1.95576,-1.20324 5.86863,-3.95979 8.38559,-4.28649 7.94593,-1.03138 16.16154,-0.66613 24.16045,-1.42859 6.93539,0.0638 2.10933,-0.11739 9.32908,0.53 3.13344,0.28097 6.54602,0.36258 9.62692,1.09708 2.00535,0.47808 7.60101,2.51825 9.77446,3.29109 1.56724,0.86554 3.20601,1.6028 4.70173,2.59663 8.44302,5.61001 13.28571,14.72471 13.98353,25.01677 0.73257,8.22826 1.12975,16.55776 -0.46644,24.7158 -0.4009,1.90706 -0.65597,3.85398 -1.20269,5.72118 -3.40787,11.63867 -8.57001,18.97945 -19.24073,24.43731 -1.56469,0.80031 -3.34339,1.0265 -5.01509,1.53975 -5.31777,-0.21193 -10.64489,-0.2444 -15.9533,-0.63579 -5.12982,-0.37822 -12.93071,-3.61804 -16.8796,-6.93193 -1.79903,-1.50975 -3.31665,-3.352 -4.97499,-5.02801 -1.31781,-2.24043 -2.8498,-4.3582 -3.95342,-6.72129 -3.54419,-7.58891 -2.6874,-17.00307 0.72197,-24.41687 0.77865,-1.69319 1.89224,-3.19524 2.83836,-4.79286 1.0499,-1.21783 2.03986,-2.49498 3.14971,-3.6535 3.26701,-3.41032 7.51674,-5.65471 11.58879,-7.8105 20.1911,-20.52497 48.0093,9.27004 27.81819,29.79501 z"
           inkscape:connector-curvature="0"
           inkscape:export-xdpi="200"
           inkscape:export-ydpi="200" />
        <path
           style="fill:none;stroke:#333333;stroke-width:10.02726269;stroke-linecap:butt;stroke-linejoin:miter;stroke-miterlimit:4;stroke-dasharray:none;stroke-opacity:1"
           d="m 613.78741,750.19331 c 16.32657,47.32176 32.65329,94.64398 50.11425,102.21516 17.46096,7.57118 36.05511,-24.60763 53.28831,-3.31355 17.23321,21.29409 33.10688,96.06536 46.71252,142.4414 13.60564,46.37608 24.94356,64.35838 49.88756,6.38756 24.94401,-57.97078 63.49281,-191.89127 102.04176,-325.81224"
           id="path966"
           inkscape:connector-curvature="0"
           inkscape:path-effect="#path-effect968"
           inkscape:original-d="m 613.78741,750.19331 c 16.32749,47.32144 32.65421,94.64366 48.98018,141.96668 18.59526,-32.18021 37.1894,-64.35902 55.78297,-96.53735 15.87351,74.76618 31.74716,149.53745 47.61962,224.30736 11.33884,17.9818 22.67675,35.9641 34.014,53.9473 38.55037,-133.92406 77.09917,-267.84455 115.64763,-401.76566"
           inkscape:export-xdpi="200"
           inkscape:export-ydpi="200" />
        <ellipse
           style="opacity:1;fill:#333333;fill-opacity:1;fill-rule:nonzero;stroke:#333333;stroke-width:10.02726269;stroke-linecap:round;stroke-linejoin:round;stroke-miterlimit:4;stroke-dasharray:none;stroke-dashoffset:0;stroke-opacity:1"
           id="path982"
           cx="749.84344"
           cy="939.00897"
           rx="12.245044"
           ry="9.9376669"
           inkscape:export-xdpi="200"
           inkscape:export-ydpi="200" />
        <path
           style="fill:none;stroke:#333333;stroke-width:5.24502993;stroke-linecap:round;stroke-linejoin:miter;stroke-miterlimit:4;stroke-dasharray:none;stroke-opacity:1"
           d="m 1068.2146,753.03264 h 287.0782"
           id="path984"
           inkscape:connector-curvature="0"
           inkscape:export-xdpi="200"
           inkscape:export-ydpi="200" />
        <path
           style="fill:none;stroke:#333333;stroke-width:5.24502993;stroke-linecap:round;stroke-linejoin:miter;stroke-miterlimit:4;stroke-dasharray:none;stroke-opacity:1"
           d="m 1066.854,828.27497 h 295.2416"
           id="path986"
           inkscape:connector-curvature="0"
           inkscape:export-xdpi="200"
           inkscape:export-ydpi="200" />
        <path
           style="fill:none;stroke:#333333;stroke-width:5.24502993;stroke-linecap:round;stroke-linejoin:miter;stroke-miterlimit:4;stroke-dasharray:none;stroke-opacity:1"
           d="m 1072.2963,903.5173 h 287.0781"
           id="path988"
           inkscape:connector-curvature="0"
           inkscape:export-xdpi="200"
           inkscape:export-ydpi="200" />
        <path
           style="fill:none;stroke:#333333;stroke-width:5.24502993;stroke-linecap:round;stroke-linejoin:miter;stroke-miterlimit:4;stroke-dasharray:none;stroke-opacity:1"
           d="m 1076.378,978.75965 h 281.6359"
           id="path990"
           inkscape:connector-curvature="0"
           inkscape:export-xdpi="200"
           inkscape:export-ydpi="200" />
        <rect
           style="opacity:1;fill:#333333;fill-opacity:1;fill-rule:nonzero;stroke:#333333;stroke-width:10.02726269;stroke-linecap:round;stroke-linejoin:round;stroke-miterlimit:4;stroke-dasharray:none;stroke-dashoffset:0;stroke-opacity:1"
           id="rect992"
           width="34.014008"
           height="42.590004"
           x="1106.3103"
           y="724.63928"
           inkscape:export-xdpi="200"
           inkscape:export-ydpi="200" />
        <rect
           style="opacity:1;fill:#333333;fill-opacity:1;fill-rule:nonzero;stroke:#333333;stroke-width:10.02726269;stroke-linecap:round;stroke-linejoin:round;stroke-miterlimit:4;stroke-dasharray:none;stroke-dashoffset:0;stroke-opacity:1"
           id="rect994"
           width="44.898491"
           height="90.858673"
           x="1204.2705"
           y="816.91766"
           inkscape:export-xdpi="200"
           inkscape:export-ydpi="200" />
        <rect
           style="opacity:1;fill:#333333;fill-opacity:1;fill-rule:nonzero;stroke:#333333;stroke-width:10.02726269;stroke-linecap:round;stroke-linejoin:round;stroke-miterlimit:4;stroke-dasharray:none;stroke-dashoffset:0;stroke-opacity:1"
           id="rect996"
           width="35.374569"
           height="39.750668"
           x="1115.8342"
           y="961.72363"
           inkscape:export-xdpi="200"
           inkscape:export-ydpi="200" />
        <rect
           style="opacity:1;fill:#333333;fill-opacity:1;fill-rule:nonzero;stroke:#333333;stroke-width:10.02726269;stroke-linecap:round;stroke-linejoin:round;stroke-miterlimit:4;stroke-dasharray:none;stroke-dashoffset:0;stroke-opacity:1"
           id="rect998"
           width="24.490088"
           height="109.31434"
           x="1292.707"
           y="735.99664"
           inkscape:export-xdpi="200"
           inkscape:export-ydpi="200" />
        <rect
           style="opacity:1;fill:#333333;fill-opacity:1;fill-rule:nonzero;stroke:#333333;stroke-width:10.02726269;stroke-linecap:round;stroke-linejoin:round;stroke-miterlimit:4;stroke-dasharray:none;stroke-dashoffset:0;stroke-opacity:1"
           id="rect1000"
           width="35.374569"
           height="34.072002"
           x="1289.986"
           y="883.64197"
           inkscape:export-xdpi="200"
           inkscape:export-ydpi="200" />
        <ellipse
           style="opacity:1;fill:none;fill-opacity:1;fill-rule:nonzero;stroke:#333333;stroke-width:10.56719303;stroke-linecap:round;stroke-linejoin:round;stroke-miterlimit:4;stroke-dasharray:none;stroke-dashoffset:0;stroke-opacity:1"
           id="path1002"
           cx="1709.0385"
           cy="869.44531"
           rx="121.08987"
           ry="129.18967"
           inkscape:export-xdpi="200"
           inkscape:export-ydpi="200" />
        <path
           style="fill:#333333;fill-opacity:1;stroke:#000000;stroke-width:0.77132791px;stroke-linecap:butt;stroke-linejoin:miter;stroke-opacity:1"
           d="m 1704.9568,868.02565 73.4702,-48.97851 c -7.2852,-4.45753 -7.7887,-19.29281 -6.1225,-17.036 l 32.6535,4.25901 -2.0408,33.36216 c -4.5352,-1.30236 -13.1521,-2.15244 -17.6874,-12.77699 l -71.4294,52.52766 c -4.1644,-0.61228 -8.2298,-1.48279 -8.8436,-11.35733 z"
           id="path1004"
           inkscape:connector-curvature="0"
           sodipodi:nodetypes="cccccccc"
           inkscape:export-xdpi="200"
           inkscape:export-ydpi="200" />
        <path
           style="fill:#333333;stroke:#333333;stroke-width:0.77132791;stroke-linecap:butt;stroke-linejoin:miter;stroke-miterlimit:4;stroke-dasharray:none;stroke-dashoffset:0;stroke-opacity:1"
           d="m 1731.194,807.56413 c 5.8545,1.78234 14.0655,15.1889 13.8416,14.08232 -4.4259,-21.88739 -24.1791,-15.66403 -34.5306,-27.14802 l 18.5901,-0.60772 -23.9871,-1.21543 3.5982,19.44667 c 2.0273,-4.80401 -1.1996,-15.8004 -1.1996,-15.8004"
           id="path1006"
           inkscape:connector-curvature="0"
           sodipodi:nodetypes="csccccc"
           inkscape:export-xdpi="200"
           inkscape:export-ydpi="200" />
      </g>
    </g>
  </g>
</svg>
