<?xml version="1.0" encoding="utf-8" standalone="no"?>
<!DOCTYPE svg PUBLIC "-//W3C//DTD SVG 1.1//EN"
  "http://www.w3.org/Graphics/SVG/1.1/DTD/svg11.dtd">
<svg xmlns:xlink="http://www.w3.org/1999/xlink" width="788.02pt" height="537.88625pt" viewBox="0 0 788.02 537.88625" xmlns="http://www.w3.org/2000/svg" version="1.1">
 <metadata>
  <rdf:RDF xmlns:dc="http://purl.org/dc/elements/1.1/" xmlns:cc="http://creativecommons.org/ns#" xmlns:rdf="http://www.w3.org/1999/02/22-rdf-syntax-ns#">
   <cc:Work>
    <dc:type rdf:resource="http://purl.org/dc/dcmitype/StillImage"/>
    <dc:date>2022-08-04T17:29:02.728705</dc:date>
    <dc:format>image/svg+xml</dc:format>
    <dc:creator>
     <cc:Agent>
      <dc:title>Matplotlib v3.5.2, https://matplotlib.org/</dc:title>
     </cc:Agent>
    </dc:creator>
   </cc:Work>
  </rdf:RDF>
 </metadata>
 <defs>
  <style type="text/css">*{stroke-linejoin: round; stroke-linecap: butt}</style>
 </defs>
 <g id="figure_1">
  <g id="patch_1">
   <path d="M 0 537.88625 
L 788.02 537.88625 
L 788.02 0 
L 0 0 
z
" style="fill: #ffffff"/>
  </g>
  <g id="axes_1">
   <g id="patch_2">
    <path d="M 111.22 469.36 
L 780.82 469.36 
L 780.82 34.48 
L 111.22 34.48 
z
" style="fill: #ffffff"/>
   </g>
   <g id="PolyCollection_1">
    <defs>
     <path id="m48e2d64d3c" d="M 141.656364 -88.293523 
L 141.656364 -375.467908 
L 146.695735 -411.274009 
L 151.29632 -397.088801 
L 159.446788 -409.498718 
L 163.094674 -380.98443 
L 169.712472 -483.638977 
L 178.305397 -440.021625 
L 183.344769 -422.269979 
L 190.103751 -432.640566 
L 196.095821 -425.417199 
L 201.477416 -396.487563 
L 207.894175 -389.301177 
L 214.954431 -375.939166 
L 221.182018 -398.291776 
L 226.752785 -375.896538 
L 233.680692 -388.176373 
L 239.805111 -390.501614 
L 246.032698 -416.591051 
L 252.260285 -405.541637 
L 258.415294 -406.419819 
L 264.44885 -427.984898 
L 270.329725 -416.032159 
L 276.865613 -421.78764 
L 283.047639 -412.857156 
L 288.909319 -408.975286 
L 295.354045 -397.19601 
L 301.356434 -396.125102 
L 307.669924 -397.227199 
L 313.719186 -386.499942 
L 319.878681 -389.264434 
L 326.045668 -395.296135 
L 332.147345 -390.436496 
L 338.390937 -393.646081 
L 344.547353 -394.853467 
L 350.673553 -383.894074 
L 356.799558 -376.057796 
L 362.936686 -381.684485 
L 369.15533 -381.520163 
L 375.295398 -383.12436 
L 381.423799 -384.73889 
L 387.575691 -387.80721 
L 393.719044 -392.511667 
L 399.866641 -396.711914 
L 406.018571 -395.408157 
L 412.198631 -398.428534 
L 418.327508 -401.382421 
L 424.476623 -406.973259 
L 430.637154 -401.394541 
L 436.795112 -403.122206 
L 442.934149 -401.047928 
L 449.084872 -399.322166 
L 455.229997 -399.232433 
L 461.388864 -396.544607 
L 467.531644 -397.711016 
L 473.682493 -397.60528 
L 479.830751 -398.640167 
L 485.985759 -399.707657 
L 492.131276 -401.783676 
L 498.281138 -403.61049 
L 504.430539 -401.750416 
L 510.578669 -400.06685 
L 516.730588 -400.551044 
L 522.877637 -399.543547 
L 529.027879 -400.928215 
L 535.175394 -401.255091 
L 541.325502 -402.207086 
L 547.473694 -401.237916 
L 553.622688 -401.802127 
L 559.77035 -402.417284 
L 565.919865 -401.887953 
L 572.068519 -401.947007 
L 578.217955 -401.712201 
L 584.366359 -401.631379 
L 590.515851 -401.671334 
L 596.663881 -401.899311 
L 602.813326 -401.2878 
L 608.962056 -400.963144 
L 615.110658 -400.724633 
L 621.259122 -400.337561 
L 627.407891 -400.213612 
L 633.556768 -399.804028 
L 639.705661 -399.853123 
L 645.854467 -399.722648 
L 652.003262 -399.241874 
L 658.151977 -398.861778 
L 664.300974 -399.11543 
L 670.449734 -399.346463 
L 676.598377 -399.570164 
L 682.747094 -399.884584 
L 688.895934 -399.543113 
L 695.044767 -399.717927 
L 701.193472 -399.495872 
L 707.342297 -399.440906 
L 713.491037 -399.4867 
L 719.639833 -399.360166 
L 725.788583 -399.225517 
L 731.937338 -399.276218 
L 738.086056 -399.264061 
L 744.234871 -399.190785 
L 750.383636 -399.125521 
L 750.383636 -398.385156 
L 750.383636 -398.385156 
L 744.234871 -398.406155 
L 738.086056 -398.432602 
L 731.937338 -398.394902 
L 725.788583 -398.291421 
L 719.639833 -398.369622 
L 713.491037 -398.437075 
L 707.342297 -398.327897 
L 701.193472 -398.317528 
L 695.044767 -398.468957 
L 688.895934 -398.220174 
L 682.747094 -398.482361 
L 676.598377 -398.084218 
L 670.449734 -397.770246 
L 664.300974 -397.446747 
L 658.151977 -397.091431 
L 652.003262 -397.363776 
L 645.854467 -397.731156 
L 639.705661 -397.744336 
L 633.556768 -397.567378 
L 627.407891 -397.845764 
L 621.259122 -397.827731 
L 615.110658 -398.064332 
L 608.962056 -398.140939 
L 602.813326 -398.299581 
L 596.663881 -398.740242 
L 590.515851 -398.321071 
L 584.366359 -398.085965 
L 578.217955 -397.961694 
L 572.068519 -397.966168 
L 565.919865 -397.667031 
L 559.77035 -397.938552 
L 553.622688 -397.059176 
L 547.473694 -396.214604 
L 541.325502 -396.871362 
L 535.175394 -395.584844 
L 529.027879 -394.922092 
L 522.877637 -393.171703 
L 516.730588 -393.780053 
L 510.578669 -392.868047 
L 504.430539 -394.148764 
L 498.281138 -395.546028 
L 492.131276 -393.280623 
L 485.985759 -390.716624 
L 479.830751 -389.058658 
L 473.682493 -387.420556 
L 467.531644 -386.928248 
L 461.388864 -385.002742 
L 455.229997 -387.011216 
L 449.084872 -386.415912 
L 442.934149 -387.36905 
L 436.795112 -388.464205 
L 430.637154 -385.685959 
L 424.476623 -390.261047 
L 418.327508 -383.758641 
L 412.198631 -379.632283 
L 406.018571 -375.412476 
L 399.866641 -375.470878 
L 393.719044 -370.178687 
L 387.575691 -364.008624 
L 381.423799 -359.233296 
L 375.295398 -356.162414 
L 369.15533 -353.125675 
L 362.936686 -351.179002 
L 356.799558 -343.740867 
L 350.673553 -349.682636 
L 344.547353 -359.008655 
L 338.390937 -356.362514 
L 332.147345 -349.562249 
L 326.045668 -352.557108 
L 319.878681 -345.229287 
L 313.719186 -340.27762 
L 307.669924 -348.580998 
L 301.356434 -346.152353 
L 295.354045 -343.474722 
L 288.909319 -350.576601 
L 283.047639 -350.666285 
L 276.865613 -354.026505 
L 270.329725 -343.716541 
L 264.44885 -354.11367 
L 258.415294 -327.284665 
L 252.260285 -320.355204 
L 246.032698 -325.665882 
L 239.805111 -292.85899 
L 233.680692 -281.2351 
L 226.752785 -257.486323 
L 221.182018 -270.765433 
L 214.954431 -239.26997 
L 207.894175 -234.562114 
L 201.477416 -224.584065 
L 196.095821 -263.352251 
L 190.103751 -255.263469 
L 183.344769 -223.228699 
L 178.305397 -235.766593 
L 169.712472 -259.855274 
L 163.094674 -173.645623 
L 159.446788 -192.729187 
L 151.29632 -147.444739 
L 146.695735 -137.848855 
L 141.656364 -88.293523 
z
" style="stroke: #ff8c00; stroke-opacity: 0.4"/>
    </defs>
    <g clip-path="url(#p4f9ac59b74)">
     <use xlink:href="#m48e2d64d3c" x="0" y="537.88625" style="fill: #ff8c00; fill-opacity: 0.4; stroke: #ff8c00; stroke-opacity: 0.4"/>
    </g>
   </g>
   <g id="PolyCollection_2">
    <defs>
     <path id="m9f9b007fdc" d="M 141.656364 -401.792278 
L 141.656364 -422.936772 
L 146.695735 -417.178514 
L 151.29632 -414.044269 
L 159.446788 -411.059347 
L 163.094674 -410.924495 
L 169.712472 -410.176753 
L 178.305397 -407.405538 
L 183.344769 -406.611349 
L 190.103751 -407.397872 
L 196.095821 -410.221168 
L 201.477416 -410.158974 
L 207.894175 -411.036282 
L 214.954431 -408.636281 
L 221.182018 -408.628178 
L 226.752785 -407.437618 
L 233.680692 -405.812172 
L 239.805111 -406.890326 
L 246.032698 -405.260013 
L 252.260285 -405.700986 
L 258.415294 -404.319431 
L 264.44885 -405.678934 
L 270.329725 -404.866634 
L 276.865613 -404.339007 
L 283.047639 -404.00297 
L 288.909319 -403.418076 
L 295.354045 -401.737643 
L 301.356434 -401.515351 
L 307.669924 -401.908743 
L 313.719186 -401.099956 
L 319.878681 -400.969629 
L 326.045668 -401.215001 
L 332.147345 -401.20761 
L 338.390937 -399.979051 
L 344.547353 -399.73722 
L 350.673553 -399.72553 
L 356.799558 -399.731108 
L 362.936686 -400.177963 
L 369.15533 -400.07271 
L 375.295398 -400.395869 
L 381.423799 -399.911084 
L 387.575691 -399.537456 
L 393.719044 -399.12751 
L 399.866641 -399.086732 
L 406.018571 -399.279096 
L 412.198631 -399.465676 
L 418.327508 -399.513979 
L 424.476623 -399.503833 
L 430.637154 -399.391351 
L 436.795112 -399.31556 
L 442.934149 -399.124746 
L 449.084872 -399.065115 
L 455.229997 -398.907722 
L 461.388864 -398.756465 
L 467.531644 -398.581889 
L 473.682493 -398.6923 
L 479.830751 -398.741536 
L 485.985759 -398.642536 
L 492.131276 -398.746029 
L 498.281138 -398.766216 
L 504.430539 -398.74269 
L 510.578669 -398.688061 
L 516.730588 -398.821943 
L 522.877637 -398.712246 
L 529.027879 -398.588086 
L 535.175394 -398.615013 
L 541.325502 -398.52176 
L 547.473694 -398.530341 
L 553.622688 -398.539672 
L 559.77035 -398.57285 
L 565.919865 -398.579815 
L 572.068519 -398.542499 
L 578.217955 -398.486307 
L 584.366359 -398.523571 
L 590.515851 -398.492832 
L 596.663881 -398.500219 
L 602.813326 -398.562259 
L 608.962056 -398.489332 
L 615.110658 -398.480976 
L 621.259122 -398.459772 
L 627.407891 -398.482588 
L 633.556768 -398.467816 
L 639.705661 -398.401914 
L 645.854467 -398.385021 
L 652.003262 -398.379114 
L 658.151977 -398.406222 
L 664.300974 -398.397492 
L 670.449734 -398.408978 
L 676.598377 -398.396115 
L 682.747094 -398.407093 
L 688.895934 -398.403669 
L 695.044767 -398.401795 
L 701.193472 -398.428504 
L 707.342297 -398.413708 
L 713.491037 -398.39734 
L 719.639833 -398.399557 
L 725.788583 -398.38331 
L 731.937338 -398.379195 
L 738.086056 -398.383424 
L 744.234871 -398.391135 
L 750.383636 -398.399076 
L 750.383636 -398.346117 
L 750.383636 -398.346117 
L 744.234871 -398.335032 
L 738.086056 -398.323945 
L 731.937338 -398.316117 
L 725.788583 -398.316429 
L 719.639833 -398.328709 
L 713.491037 -398.322235 
L 707.342297 -398.334138 
L 701.193472 -398.344219 
L 695.044767 -398.312444 
L 688.895934 -398.309016 
L 682.747094 -398.306725 
L 676.598377 -398.289799 
L 670.449734 -398.296277 
L 664.300974 -398.278135 
L 658.151977 -398.27955 
L 652.003262 -398.244845 
L 645.854467 -398.242694 
L 639.705661 -398.250987 
L 633.556768 -398.30779 
L 627.407891 -398.31308 
L 621.259122 -398.280206 
L 615.110658 -398.290685 
L 608.962056 -398.288377 
L 602.813326 -398.348946 
L 596.663881 -398.27401 
L 590.515851 -398.253577 
L 584.366359 -398.269762 
L 578.217955 -398.217164 
L 572.068519 -398.256856 
L 565.919865 -398.27769 
L 559.77035 -398.254039 
L 553.622688 -398.202721 
L 547.473694 -398.173006 
L 541.325502 -398.142703 
L 535.175394 -398.211201 
L 529.027879 -398.160037 
L 522.877637 -398.256251 
L 516.730588 -398.337354 
L 510.578669 -398.174607 
L 504.430539 -398.199215 
L 498.281138 -398.190228 
L 492.131276 -398.138195 
L 485.985759 -397.996003 
L 479.830751 -398.055098 
L 473.682493 -397.965715 
L 467.531644 -397.81109 
L 461.388864 -397.937242 
L 455.229997 -398.03866 
L 449.084872 -398.142749 
L 442.934149 -398.151197 
L 436.795112 -398.282583 
L 430.637154 -398.305377 
L 424.476623 -398.366878 
L 418.327508 -398.310988 
L 412.198631 -398.198208 
L 406.018571 -397.940908 
L 399.866641 -397.681692 
L 393.719044 -397.618971 
L 387.575691 -397.960048 
L 381.423799 -398.250618 
L 375.295398 -398.636145 
L 369.15533 -398.232875 
L 362.936686 -398.199678 
L 356.799558 -397.617128 
L 350.673553 -397.507991 
L 344.547353 -397.393398 
L 338.390937 -397.484796 
L 332.147345 -398.650391 
L 326.045668 -398.476317 
L 319.878681 -398.033097 
L 313.719186 -397.991807 
L 307.669924 -398.553262 
L 301.356434 -397.828785 
L 295.354045 -397.777965 
L 288.909319 -399.200931 
L 283.047639 -399.428492 
L 276.865613 -399.399798 
L 270.329725 -399.390977 
L 264.44885 -399.648344 
L 258.415294 -398.263334 
L 252.260285 -399.160686 
L 246.032698 -398.216484 
L 239.805111 -399.072067 
L 233.680692 -397.508102 
L 226.752785 -398.057278 
L 221.182018 -398.29147 
L 214.954431 -397.392897 
L 207.894175 -398.73287 
L 201.477416 -397.128352 
L 196.095821 -396.647595 
L 190.103751 -394.677619 
L 183.344769 -392.277878 
L 178.305397 -391.677973 
L 169.712472 -394.312436 
L 163.094674 -393.145649 
L 159.446788 -391.993116 
L 151.29632 -391.806815 
L 146.695735 -393.367776 
L 141.656364 -401.792278 
z
" style="stroke: #4682b4; stroke-opacity: 0.4"/>
    </defs>
    <g clip-path="url(#p4f9ac59b74)">
     <use xlink:href="#m9f9b007fdc" x="0" y="537.88625" style="fill: #4682b4; fill-opacity: 0.4; stroke: #4682b4; stroke-opacity: 0.4"/>
    </g>
   </g>
   <g id="matplotlib.axis_1">
    <g id="xtick_1">
     <g id="line2d_1">
      <defs>
       <path id="m496debbf17" d="M 0 0 
L 0 3.5 
" style="stroke: #000000; stroke-width: 0.8"/>
      </defs>
      <g>
       <use xlink:href="#m496debbf17" x="141.656364" y="469.36" style="stroke: #000000; stroke-width: 0.8"/>
      </g>
     </g>
     <g id="text_1">
      <!-- $\mathdefault{10^{1}}$ -->
      <g transform="translate(120.536364 494.59625)scale(0.24 -0.24)">
       <defs>
        <path id="DejaVuSans-31" d="M 794 531 
L 1825 531 
L 1825 4091 
L 703 3866 
L 703 4441 
L 1819 4666 
L 2450 4666 
L 2450 531 
L 3481 531 
L 3481 0 
L 794 0 
L 794 531 
z
" transform="scale(0.015625)"/>
        <path id="DejaVuSans-30" d="M 2034 4250 
Q 1547 4250 1301 3770 
Q 1056 3291 1056 2328 
Q 1056 1369 1301 889 
Q 1547 409 2034 409 
Q 2525 409 2770 889 
Q 3016 1369 3016 2328 
Q 3016 3291 2770 3770 
Q 2525 4250 2034 4250 
z
M 2034 4750 
Q 2819 4750 3233 4129 
Q 3647 3509 3647 2328 
Q 3647 1150 3233 529 
Q 2819 -91 2034 -91 
Q 1250 -91 836 529 
Q 422 1150 422 2328 
Q 422 3509 836 4129 
Q 1250 4750 2034 4750 
z
" transform="scale(0.015625)"/>
       </defs>
       <use xlink:href="#DejaVuSans-31" transform="translate(0 0.684375)"/>
       <use xlink:href="#DejaVuSans-30" transform="translate(63.623047 0.684375)"/>
       <use xlink:href="#DejaVuSans-31" transform="translate(128.203125 38.965625)scale(0.7)"/>
      </g>
     </g>
    </g>
    <g id="xtick_2">
     <g id="line2d_2">
      <g>
       <use xlink:href="#m496debbf17" x="263.401818" y="469.36" style="stroke: #000000; stroke-width: 0.8"/>
      </g>
     </g>
     <g id="text_2">
      <!-- $\mathdefault{10^{2}}$ -->
      <g transform="translate(242.281818 494.59625)scale(0.24 -0.24)">
       <defs>
        <path id="DejaVuSans-32" d="M 1228 531 
L 3431 531 
L 3431 0 
L 469 0 
L 469 531 
Q 828 903 1448 1529 
Q 2069 2156 2228 2338 
Q 2531 2678 2651 2914 
Q 2772 3150 2772 3378 
Q 2772 3750 2511 3984 
Q 2250 4219 1831 4219 
Q 1534 4219 1204 4116 
Q 875 4013 500 3803 
L 500 4441 
Q 881 4594 1212 4672 
Q 1544 4750 1819 4750 
Q 2544 4750 2975 4387 
Q 3406 4025 3406 3419 
Q 3406 3131 3298 2873 
Q 3191 2616 2906 2266 
Q 2828 2175 2409 1742 
Q 1991 1309 1228 531 
z
" transform="scale(0.015625)"/>
       </defs>
       <use xlink:href="#DejaVuSans-31" transform="translate(0 0.765625)"/>
       <use xlink:href="#DejaVuSans-30" transform="translate(63.623047 0.765625)"/>
       <use xlink:href="#DejaVuSans-32" transform="translate(128.203125 39.046875)scale(0.7)"/>
      </g>
     </g>
    </g>
    <g id="xtick_3">
     <g id="line2d_3">
      <g>
       <use xlink:href="#m496debbf17" x="385.147273" y="469.36" style="stroke: #000000; stroke-width: 0.8"/>
      </g>
     </g>
     <g id="text_3">
      <!-- $\mathdefault{10^{3}}$ -->
      <g transform="translate(364.027273 494.59625)scale(0.24 -0.24)">
       <defs>
        <path id="DejaVuSans-33" d="M 2597 2516 
Q 3050 2419 3304 2112 
Q 3559 1806 3559 1356 
Q 3559 666 3084 287 
Q 2609 -91 1734 -91 
Q 1441 -91 1130 -33 
Q 819 25 488 141 
L 488 750 
Q 750 597 1062 519 
Q 1375 441 1716 441 
Q 2309 441 2620 675 
Q 2931 909 2931 1356 
Q 2931 1769 2642 2001 
Q 2353 2234 1838 2234 
L 1294 2234 
L 1294 2753 
L 1863 2753 
Q 2328 2753 2575 2939 
Q 2822 3125 2822 3475 
Q 2822 3834 2567 4026 
Q 2313 4219 1838 4219 
Q 1578 4219 1281 4162 
Q 984 4106 628 3988 
L 628 4550 
Q 988 4650 1302 4700 
Q 1616 4750 1894 4750 
Q 2613 4750 3031 4423 
Q 3450 4097 3450 3541 
Q 3450 3153 3228 2886 
Q 3006 2619 2597 2516 
z
" transform="scale(0.015625)"/>
       </defs>
       <use xlink:href="#DejaVuSans-31" transform="translate(0 0.765625)"/>
       <use xlink:href="#DejaVuSans-30" transform="translate(63.623047 0.765625)"/>
       <use xlink:href="#DejaVuSans-33" transform="translate(128.203125 39.046875)scale(0.7)"/>
      </g>
     </g>
    </g>
    <g id="xtick_4">
     <g id="line2d_4">
      <g>
       <use xlink:href="#m496debbf17" x="506.892727" y="469.36" style="stroke: #000000; stroke-width: 0.8"/>
      </g>
     </g>
     <g id="text_4">
      <!-- $\mathdefault{10^{4}}$ -->
      <g transform="translate(485.772727 494.59625)scale(0.24 -0.24)">
       <defs>
        <path id="DejaVuSans-34" d="M 2419 4116 
L 825 1625 
L 2419 1625 
L 2419 4116 
z
M 2253 4666 
L 3047 4666 
L 3047 1625 
L 3713 1625 
L 3713 1100 
L 3047 1100 
L 3047 0 
L 2419 0 
L 2419 1100 
L 313 1100 
L 313 1709 
L 2253 4666 
z
" transform="scale(0.015625)"/>
       </defs>
       <use xlink:href="#DejaVuSans-31" transform="translate(0 0.684375)"/>
       <use xlink:href="#DejaVuSans-30" transform="translate(63.623047 0.684375)"/>
       <use xlink:href="#DejaVuSans-34" transform="translate(128.203125 38.965625)scale(0.7)"/>
      </g>
     </g>
    </g>
    <g id="xtick_5">
     <g id="line2d_5">
      <g>
       <use xlink:href="#m496debbf17" x="628.638182" y="469.36" style="stroke: #000000; stroke-width: 0.8"/>
      </g>
     </g>
     <g id="text_5">
      <!-- $\mathdefault{10^{5}}$ -->
      <g transform="translate(607.518182 494.59625)scale(0.24 -0.24)">
       <defs>
        <path id="DejaVuSans-35" d="M 691 4666 
L 3169 4666 
L 3169 4134 
L 1269 4134 
L 1269 2991 
Q 1406 3038 1543 3061 
Q 1681 3084 1819 3084 
Q 2600 3084 3056 2656 
Q 3513 2228 3513 1497 
Q 3513 744 3044 326 
Q 2575 -91 1722 -91 
Q 1428 -91 1123 -41 
Q 819 9 494 109 
L 494 744 
Q 775 591 1075 516 
Q 1375 441 1709 441 
Q 2250 441 2565 725 
Q 2881 1009 2881 1497 
Q 2881 1984 2565 2268 
Q 2250 2553 1709 2553 
Q 1456 2553 1204 2497 
Q 953 2441 691 2322 
L 691 4666 
z
" transform="scale(0.015625)"/>
       </defs>
       <use xlink:href="#DejaVuSans-31" transform="translate(0 0.684375)"/>
       <use xlink:href="#DejaVuSans-30" transform="translate(63.623047 0.684375)"/>
       <use xlink:href="#DejaVuSans-35" transform="translate(128.203125 38.965625)scale(0.7)"/>
      </g>
     </g>
    </g>
    <g id="xtick_6">
     <g id="line2d_6">
      <g>
       <use xlink:href="#m496debbf17" x="750.383636" y="469.36" style="stroke: #000000; stroke-width: 0.8"/>
      </g>
     </g>
     <g id="text_6">
      <!-- $\mathdefault{10^{6}}$ -->
      <g transform="translate(729.263636 494.59625)scale(0.24 -0.24)">
       <defs>
        <path id="DejaVuSans-36" d="M 2113 2584 
Q 1688 2584 1439 2293 
Q 1191 2003 1191 1497 
Q 1191 994 1439 701 
Q 1688 409 2113 409 
Q 2538 409 2786 701 
Q 3034 994 3034 1497 
Q 3034 2003 2786 2293 
Q 2538 2584 2113 2584 
z
M 3366 4563 
L 3366 3988 
Q 3128 4100 2886 4159 
Q 2644 4219 2406 4219 
Q 1781 4219 1451 3797 
Q 1122 3375 1075 2522 
Q 1259 2794 1537 2939 
Q 1816 3084 2150 3084 
Q 2853 3084 3261 2657 
Q 3669 2231 3669 1497 
Q 3669 778 3244 343 
Q 2819 -91 2113 -91 
Q 1303 -91 875 529 
Q 447 1150 447 2328 
Q 447 3434 972 4092 
Q 1497 4750 2381 4750 
Q 2619 4750 2861 4703 
Q 3103 4656 3366 4563 
z
" transform="scale(0.015625)"/>
       </defs>
       <use xlink:href="#DejaVuSans-31" transform="translate(0 0.765625)"/>
       <use xlink:href="#DejaVuSans-30" transform="translate(63.623047 0.765625)"/>
       <use xlink:href="#DejaVuSans-36" transform="translate(128.203125 39.046875)scale(0.7)"/>
      </g>
     </g>
    </g>
    <g id="xtick_7">
     <g id="line2d_7">
      <defs>
       <path id="m6002d5a67b" d="M 0 0 
L 0 2 
" style="stroke: #000000; stroke-width: 0.6"/>
      </defs>
      <g>
       <use xlink:href="#m6002d5a67b" x="114.647287" y="469.36" style="stroke: #000000; stroke-width: 0.6"/>
      </g>
     </g>
    </g>
    <g id="xtick_8">
     <g id="line2d_8">
      <g>
       <use xlink:href="#m6002d5a67b" x="122.797754" y="469.36" style="stroke: #000000; stroke-width: 0.6"/>
      </g>
     </g>
    </g>
    <g id="xtick_9">
     <g id="line2d_9">
      <g>
       <use xlink:href="#m6002d5a67b" x="129.85801" y="469.36" style="stroke: #000000; stroke-width: 0.6"/>
      </g>
     </g>
    </g>
    <g id="xtick_10">
     <g id="line2d_10">
      <g>
       <use xlink:href="#m6002d5a67b" x="136.085597" y="469.36" style="stroke: #000000; stroke-width: 0.6"/>
      </g>
     </g>
    </g>
    <g id="xtick_11">
     <g id="line2d_11">
      <g>
       <use xlink:href="#m6002d5a67b" x="178.305397" y="469.36" style="stroke: #000000; stroke-width: 0.6"/>
      </g>
     </g>
    </g>
    <g id="xtick_12">
     <g id="line2d_12">
      <g>
       <use xlink:href="#m6002d5a67b" x="199.743708" y="469.36" style="stroke: #000000; stroke-width: 0.6"/>
      </g>
     </g>
    </g>
    <g id="xtick_13">
     <g id="line2d_13">
      <g>
       <use xlink:href="#m6002d5a67b" x="214.954431" y="469.36" style="stroke: #000000; stroke-width: 0.6"/>
      </g>
     </g>
    </g>
    <g id="xtick_14">
     <g id="line2d_14">
      <g>
       <use xlink:href="#m6002d5a67b" x="226.752785" y="469.36" style="stroke: #000000; stroke-width: 0.6"/>
      </g>
     </g>
    </g>
    <g id="xtick_15">
     <g id="line2d_15">
      <g>
       <use xlink:href="#m6002d5a67b" x="236.392741" y="469.36" style="stroke: #000000; stroke-width: 0.6"/>
      </g>
     </g>
    </g>
    <g id="xtick_16">
     <g id="line2d_16">
      <g>
       <use xlink:href="#m6002d5a67b" x="244.543209" y="469.36" style="stroke: #000000; stroke-width: 0.6"/>
      </g>
     </g>
    </g>
    <g id="xtick_17">
     <g id="line2d_17">
      <g>
       <use xlink:href="#m6002d5a67b" x="251.603465" y="469.36" style="stroke: #000000; stroke-width: 0.6"/>
      </g>
     </g>
    </g>
    <g id="xtick_18">
     <g id="line2d_18">
      <g>
       <use xlink:href="#m6002d5a67b" x="257.831052" y="469.36" style="stroke: #000000; stroke-width: 0.6"/>
      </g>
     </g>
    </g>
    <g id="xtick_19">
     <g id="line2d_19">
      <g>
       <use xlink:href="#m6002d5a67b" x="300.050852" y="469.36" style="stroke: #000000; stroke-width: 0.6"/>
      </g>
     </g>
    </g>
    <g id="xtick_20">
     <g id="line2d_20">
      <g>
       <use xlink:href="#m6002d5a67b" x="321.489162" y="469.36" style="stroke: #000000; stroke-width: 0.6"/>
      </g>
     </g>
    </g>
    <g id="xtick_21">
     <g id="line2d_21">
      <g>
       <use xlink:href="#m6002d5a67b" x="336.699885" y="469.36" style="stroke: #000000; stroke-width: 0.6"/>
      </g>
     </g>
    </g>
    <g id="xtick_22">
     <g id="line2d_22">
      <g>
       <use xlink:href="#m6002d5a67b" x="348.498239" y="469.36" style="stroke: #000000; stroke-width: 0.6"/>
      </g>
     </g>
    </g>
    <g id="xtick_23">
     <g id="line2d_23">
      <g>
       <use xlink:href="#m6002d5a67b" x="358.138196" y="469.36" style="stroke: #000000; stroke-width: 0.6"/>
      </g>
     </g>
    </g>
    <g id="xtick_24">
     <g id="line2d_24">
      <g>
       <use xlink:href="#m6002d5a67b" x="366.288663" y="469.36" style="stroke: #000000; stroke-width: 0.6"/>
      </g>
     </g>
    </g>
    <g id="xtick_25">
     <g id="line2d_25">
      <g>
       <use xlink:href="#m6002d5a67b" x="373.348919" y="469.36" style="stroke: #000000; stroke-width: 0.6"/>
      </g>
     </g>
    </g>
    <g id="xtick_26">
     <g id="line2d_26">
      <g>
       <use xlink:href="#m6002d5a67b" x="379.576506" y="469.36" style="stroke: #000000; stroke-width: 0.6"/>
      </g>
     </g>
    </g>
    <g id="xtick_27">
     <g id="line2d_27">
      <g>
       <use xlink:href="#m6002d5a67b" x="421.796306" y="469.36" style="stroke: #000000; stroke-width: 0.6"/>
      </g>
     </g>
    </g>
    <g id="xtick_28">
     <g id="line2d_28">
      <g>
       <use xlink:href="#m6002d5a67b" x="443.234617" y="469.36" style="stroke: #000000; stroke-width: 0.6"/>
      </g>
     </g>
    </g>
    <g id="xtick_29">
     <g id="line2d_29">
      <g>
       <use xlink:href="#m6002d5a67b" x="458.44534" y="469.36" style="stroke: #000000; stroke-width: 0.6"/>
      </g>
     </g>
    </g>
    <g id="xtick_30">
     <g id="line2d_30">
      <g>
       <use xlink:href="#m6002d5a67b" x="470.243694" y="469.36" style="stroke: #000000; stroke-width: 0.6"/>
      </g>
     </g>
    </g>
    <g id="xtick_31">
     <g id="line2d_31">
      <g>
       <use xlink:href="#m6002d5a67b" x="479.88365" y="469.36" style="stroke: #000000; stroke-width: 0.6"/>
      </g>
     </g>
    </g>
    <g id="xtick_32">
     <g id="line2d_32">
      <g>
       <use xlink:href="#m6002d5a67b" x="488.034118" y="469.36" style="stroke: #000000; stroke-width: 0.6"/>
      </g>
     </g>
    </g>
    <g id="xtick_33">
     <g id="line2d_33">
      <g>
       <use xlink:href="#m6002d5a67b" x="495.094374" y="469.36" style="stroke: #000000; stroke-width: 0.6"/>
      </g>
     </g>
    </g>
    <g id="xtick_34">
     <g id="line2d_34">
      <g>
       <use xlink:href="#m6002d5a67b" x="501.321961" y="469.36" style="stroke: #000000; stroke-width: 0.6"/>
      </g>
     </g>
    </g>
    <g id="xtick_35">
     <g id="line2d_35">
      <g>
       <use xlink:href="#m6002d5a67b" x="543.541761" y="469.36" style="stroke: #000000; stroke-width: 0.6"/>
      </g>
     </g>
    </g>
    <g id="xtick_36">
     <g id="line2d_36">
      <g>
       <use xlink:href="#m6002d5a67b" x="564.980071" y="469.36" style="stroke: #000000; stroke-width: 0.6"/>
      </g>
     </g>
    </g>
    <g id="xtick_37">
     <g id="line2d_37">
      <g>
       <use xlink:href="#m6002d5a67b" x="580.190795" y="469.36" style="stroke: #000000; stroke-width: 0.6"/>
      </g>
     </g>
    </g>
    <g id="xtick_38">
     <g id="line2d_38">
      <g>
       <use xlink:href="#m6002d5a67b" x="591.989148" y="469.36" style="stroke: #000000; stroke-width: 0.6"/>
      </g>
     </g>
    </g>
    <g id="xtick_39">
     <g id="line2d_39">
      <g>
       <use xlink:href="#m6002d5a67b" x="601.629105" y="469.36" style="stroke: #000000; stroke-width: 0.6"/>
      </g>
     </g>
    </g>
    <g id="xtick_40">
     <g id="line2d_40">
      <g>
       <use xlink:href="#m6002d5a67b" x="609.779572" y="469.36" style="stroke: #000000; stroke-width: 0.6"/>
      </g>
     </g>
    </g>
    <g id="xtick_41">
     <g id="line2d_41">
      <g>
       <use xlink:href="#m6002d5a67b" x="616.839828" y="469.36" style="stroke: #000000; stroke-width: 0.6"/>
      </g>
     </g>
    </g>
    <g id="xtick_42">
     <g id="line2d_42">
      <g>
       <use xlink:href="#m6002d5a67b" x="623.067415" y="469.36" style="stroke: #000000; stroke-width: 0.6"/>
      </g>
     </g>
    </g>
    <g id="xtick_43">
     <g id="line2d_43">
      <g>
       <use xlink:href="#m6002d5a67b" x="665.287215" y="469.36" style="stroke: #000000; stroke-width: 0.6"/>
      </g>
     </g>
    </g>
    <g id="xtick_44">
     <g id="line2d_44">
      <g>
       <use xlink:href="#m6002d5a67b" x="686.725526" y="469.36" style="stroke: #000000; stroke-width: 0.6"/>
      </g>
     </g>
    </g>
    <g id="xtick_45">
     <g id="line2d_45">
      <g>
       <use xlink:href="#m6002d5a67b" x="701.936249" y="469.36" style="stroke: #000000; stroke-width: 0.6"/>
      </g>
     </g>
    </g>
    <g id="xtick_46">
     <g id="line2d_46">
      <g>
       <use xlink:href="#m6002d5a67b" x="713.734603" y="469.36" style="stroke: #000000; stroke-width: 0.6"/>
      </g>
     </g>
    </g>
    <g id="xtick_47">
     <g id="line2d_47">
      <g>
       <use xlink:href="#m6002d5a67b" x="723.37456" y="469.36" style="stroke: #000000; stroke-width: 0.6"/>
      </g>
     </g>
    </g>
    <g id="xtick_48">
     <g id="line2d_48">
      <g>
       <use xlink:href="#m6002d5a67b" x="731.525027" y="469.36" style="stroke: #000000; stroke-width: 0.6"/>
      </g>
     </g>
    </g>
    <g id="xtick_49">
     <g id="line2d_49">
      <g>
       <use xlink:href="#m6002d5a67b" x="738.585283" y="469.36" style="stroke: #000000; stroke-width: 0.6"/>
      </g>
     </g>
    </g>
    <g id="xtick_50">
     <g id="line2d_50">
      <g>
       <use xlink:href="#m6002d5a67b" x="744.81287" y="469.36" style="stroke: #000000; stroke-width: 0.6"/>
      </g>
     </g>
    </g>
    <g id="text_7">
     <!-- Number of shots -->
     <g transform="translate(329.8725 524.863125)scale(0.28 -0.28)">
      <defs>
       <path id="DejaVuSans-4e" d="M 628 4666 
L 1478 4666 
L 3547 763 
L 3547 4666 
L 4159 4666 
L 4159 0 
L 3309 0 
L 1241 3903 
L 1241 0 
L 628 0 
L 628 4666 
z
" transform="scale(0.015625)"/>
       <path id="DejaVuSans-75" d="M 544 1381 
L 544 3500 
L 1119 3500 
L 1119 1403 
Q 1119 906 1312 657 
Q 1506 409 1894 409 
Q 2359 409 2629 706 
Q 2900 1003 2900 1516 
L 2900 3500 
L 3475 3500 
L 3475 0 
L 2900 0 
L 2900 538 
Q 2691 219 2414 64 
Q 2138 -91 1772 -91 
Q 1169 -91 856 284 
Q 544 659 544 1381 
z
M 1991 3584 
L 1991 3584 
z
" transform="scale(0.015625)"/>
       <path id="DejaVuSans-6d" d="M 3328 2828 
Q 3544 3216 3844 3400 
Q 4144 3584 4550 3584 
Q 5097 3584 5394 3201 
Q 5691 2819 5691 2113 
L 5691 0 
L 5113 0 
L 5113 2094 
Q 5113 2597 4934 2840 
Q 4756 3084 4391 3084 
Q 3944 3084 3684 2787 
Q 3425 2491 3425 1978 
L 3425 0 
L 2847 0 
L 2847 2094 
Q 2847 2600 2669 2842 
Q 2491 3084 2119 3084 
Q 1678 3084 1418 2786 
Q 1159 2488 1159 1978 
L 1159 0 
L 581 0 
L 581 3500 
L 1159 3500 
L 1159 2956 
Q 1356 3278 1631 3431 
Q 1906 3584 2284 3584 
Q 2666 3584 2933 3390 
Q 3200 3197 3328 2828 
z
" transform="scale(0.015625)"/>
       <path id="DejaVuSans-62" d="M 3116 1747 
Q 3116 2381 2855 2742 
Q 2594 3103 2138 3103 
Q 1681 3103 1420 2742 
Q 1159 2381 1159 1747 
Q 1159 1113 1420 752 
Q 1681 391 2138 391 
Q 2594 391 2855 752 
Q 3116 1113 3116 1747 
z
M 1159 2969 
Q 1341 3281 1617 3432 
Q 1894 3584 2278 3584 
Q 2916 3584 3314 3078 
Q 3713 2572 3713 1747 
Q 3713 922 3314 415 
Q 2916 -91 2278 -91 
Q 1894 -91 1617 61 
Q 1341 213 1159 525 
L 1159 0 
L 581 0 
L 581 4863 
L 1159 4863 
L 1159 2969 
z
" transform="scale(0.015625)"/>
       <path id="DejaVuSans-65" d="M 3597 1894 
L 3597 1613 
L 953 1613 
Q 991 1019 1311 708 
Q 1631 397 2203 397 
Q 2534 397 2845 478 
Q 3156 559 3463 722 
L 3463 178 
Q 3153 47 2828 -22 
Q 2503 -91 2169 -91 
Q 1331 -91 842 396 
Q 353 884 353 1716 
Q 353 2575 817 3079 
Q 1281 3584 2069 3584 
Q 2775 3584 3186 3129 
Q 3597 2675 3597 1894 
z
M 3022 2063 
Q 3016 2534 2758 2815 
Q 2500 3097 2075 3097 
Q 1594 3097 1305 2825 
Q 1016 2553 972 2059 
L 3022 2063 
z
" transform="scale(0.015625)"/>
       <path id="DejaVuSans-72" d="M 2631 2963 
Q 2534 3019 2420 3045 
Q 2306 3072 2169 3072 
Q 1681 3072 1420 2755 
Q 1159 2438 1159 1844 
L 1159 0 
L 581 0 
L 581 3500 
L 1159 3500 
L 1159 2956 
Q 1341 3275 1631 3429 
Q 1922 3584 2338 3584 
Q 2397 3584 2469 3576 
Q 2541 3569 2628 3553 
L 2631 2963 
z
" transform="scale(0.015625)"/>
       <path id="DejaVuSans-20" transform="scale(0.015625)"/>
       <path id="DejaVuSans-6f" d="M 1959 3097 
Q 1497 3097 1228 2736 
Q 959 2375 959 1747 
Q 959 1119 1226 758 
Q 1494 397 1959 397 
Q 2419 397 2687 759 
Q 2956 1122 2956 1747 
Q 2956 2369 2687 2733 
Q 2419 3097 1959 3097 
z
M 1959 3584 
Q 2709 3584 3137 3096 
Q 3566 2609 3566 1747 
Q 3566 888 3137 398 
Q 2709 -91 1959 -91 
Q 1206 -91 779 398 
Q 353 888 353 1747 
Q 353 2609 779 3096 
Q 1206 3584 1959 3584 
z
" transform="scale(0.015625)"/>
       <path id="DejaVuSans-66" d="M 2375 4863 
L 2375 4384 
L 1825 4384 
Q 1516 4384 1395 4259 
Q 1275 4134 1275 3809 
L 1275 3500 
L 2222 3500 
L 2222 3053 
L 1275 3053 
L 1275 0 
L 697 0 
L 697 3053 
L 147 3053 
L 147 3500 
L 697 3500 
L 697 3744 
Q 697 4328 969 4595 
Q 1241 4863 1831 4863 
L 2375 4863 
z
" transform="scale(0.015625)"/>
       <path id="DejaVuSans-73" d="M 2834 3397 
L 2834 2853 
Q 2591 2978 2328 3040 
Q 2066 3103 1784 3103 
Q 1356 3103 1142 2972 
Q 928 2841 928 2578 
Q 928 2378 1081 2264 
Q 1234 2150 1697 2047 
L 1894 2003 
Q 2506 1872 2764 1633 
Q 3022 1394 3022 966 
Q 3022 478 2636 193 
Q 2250 -91 1575 -91 
Q 1294 -91 989 -36 
Q 684 19 347 128 
L 347 722 
Q 666 556 975 473 
Q 1284 391 1588 391 
Q 1994 391 2212 530 
Q 2431 669 2431 922 
Q 2431 1156 2273 1281 
Q 2116 1406 1581 1522 
L 1381 1569 
Q 847 1681 609 1914 
Q 372 2147 372 2553 
Q 372 3047 722 3315 
Q 1072 3584 1716 3584 
Q 2034 3584 2315 3537 
Q 2597 3491 2834 3397 
z
" transform="scale(0.015625)"/>
       <path id="DejaVuSans-68" d="M 3513 2113 
L 3513 0 
L 2938 0 
L 2938 2094 
Q 2938 2591 2744 2837 
Q 2550 3084 2163 3084 
Q 1697 3084 1428 2787 
Q 1159 2491 1159 1978 
L 1159 0 
L 581 0 
L 581 4863 
L 1159 4863 
L 1159 2956 
Q 1366 3272 1645 3428 
Q 1925 3584 2291 3584 
Q 2894 3584 3203 3211 
Q 3513 2838 3513 2113 
z
" transform="scale(0.015625)"/>
       <path id="DejaVuSans-74" d="M 1172 4494 
L 1172 3500 
L 2356 3500 
L 2356 3053 
L 1172 3053 
L 1172 1153 
Q 1172 725 1289 603 
Q 1406 481 1766 481 
L 2356 481 
L 2356 0 
L 1766 0 
Q 1100 0 847 248 
Q 594 497 594 1153 
L 594 3053 
L 172 3053 
L 172 3500 
L 594 3500 
L 594 4494 
L 1172 4494 
z
" transform="scale(0.015625)"/>
      </defs>
      <use xlink:href="#DejaVuSans-4e"/>
      <use xlink:href="#DejaVuSans-75" x="74.804688"/>
      <use xlink:href="#DejaVuSans-6d" x="138.183594"/>
      <use xlink:href="#DejaVuSans-62" x="235.595703"/>
      <use xlink:href="#DejaVuSans-65" x="299.072266"/>
      <use xlink:href="#DejaVuSans-72" x="360.595703"/>
      <use xlink:href="#DejaVuSans-20" x="401.708984"/>
      <use xlink:href="#DejaVuSans-6f" x="433.496094"/>
      <use xlink:href="#DejaVuSans-66" x="494.677734"/>
      <use xlink:href="#DejaVuSans-20" x="529.882812"/>
      <use xlink:href="#DejaVuSans-73" x="561.669922"/>
      <use xlink:href="#DejaVuSans-68" x="613.769531"/>
      <use xlink:href="#DejaVuSans-6f" x="677.148438"/>
      <use xlink:href="#DejaVuSans-74" x="738.330078"/>
      <use xlink:href="#DejaVuSans-73" x="777.539062"/>
     </g>
    </g>
   </g>
   <g id="matplotlib.axis_2">
    <g id="ytick_1">
     <g id="line2d_51">
      <defs>
       <path id="m9a3bd3583e" d="M 0 0 
L -3.5 0 
" style="stroke: #000000; stroke-width: 0.8"/>
      </defs>
      <g>
       <use xlink:href="#m9a3bd3583e" x="111.22" y="405.629729" style="stroke: #000000; stroke-width: 0.8"/>
      </g>
     </g>
     <g id="text_8">
      <!-- −600 -->
      <g transform="translate(38.29875 414.747854)scale(0.24 -0.24)">
       <defs>
        <path id="DejaVuSans-2212" d="M 678 2272 
L 4684 2272 
L 4684 1741 
L 678 1741 
L 678 2272 
z
" transform="scale(0.015625)"/>
       </defs>
       <use xlink:href="#DejaVuSans-2212"/>
       <use xlink:href="#DejaVuSans-36" x="83.789062"/>
       <use xlink:href="#DejaVuSans-30" x="147.412109"/>
       <use xlink:href="#DejaVuSans-30" x="211.035156"/>
      </g>
     </g>
    </g>
    <g id="ytick_2">
     <g id="line2d_52">
      <g>
       <use xlink:href="#m9a3bd3583e" x="111.22" y="316.890839" style="stroke: #000000; stroke-width: 0.8"/>
      </g>
     </g>
     <g id="text_9">
      <!-- −400 -->
      <g transform="translate(38.29875 326.008964)scale(0.24 -0.24)">
       <use xlink:href="#DejaVuSans-2212"/>
       <use xlink:href="#DejaVuSans-34" x="83.789062"/>
       <use xlink:href="#DejaVuSans-30" x="147.412109"/>
       <use xlink:href="#DejaVuSans-30" x="211.035156"/>
      </g>
     </g>
    </g>
    <g id="ytick_3">
     <g id="line2d_53">
      <g>
       <use xlink:href="#m9a3bd3583e" x="111.22" y="228.151949" style="stroke: #000000; stroke-width: 0.8"/>
      </g>
     </g>
     <g id="text_10">
      <!-- −200 -->
      <g transform="translate(38.29875 237.270074)scale(0.24 -0.24)">
       <use xlink:href="#DejaVuSans-2212"/>
       <use xlink:href="#DejaVuSans-32" x="83.789062"/>
       <use xlink:href="#DejaVuSans-30" x="147.412109"/>
       <use xlink:href="#DejaVuSans-30" x="211.035156"/>
      </g>
     </g>
    </g>
    <g id="ytick_4">
     <g id="line2d_54">
      <g>
       <use xlink:href="#m9a3bd3583e" x="111.22" y="139.413059" style="stroke: #000000; stroke-width: 0.8"/>
      </g>
     </g>
     <g id="text_11">
      <!-- 0 -->
      <g transform="translate(88.95 148.531184)scale(0.24 -0.24)">
       <use xlink:href="#DejaVuSans-30"/>
      </g>
     </g>
    </g>
    <g id="ytick_5">
     <g id="line2d_55">
      <g>
       <use xlink:href="#m9a3bd3583e" x="111.22" y="50.674169" style="stroke: #000000; stroke-width: 0.8"/>
      </g>
     </g>
     <g id="text_12">
      <!-- 200 -->
      <g transform="translate(58.41 59.792294)scale(0.24 -0.24)">
       <use xlink:href="#DejaVuSans-32"/>
       <use xlink:href="#DejaVuSans-30" x="63.623047"/>
       <use xlink:href="#DejaVuSans-30" x="127.246094"/>
      </g>
     </g>
    </g>
    <g id="text_13">
     <!-- QAOA cost -->
     <g transform="translate(28.475625 326.12)rotate(-90)scale(0.28 -0.28)">
      <defs>
       <path id="DejaVuSans-51" d="M 2522 4238 
Q 1834 4238 1429 3725 
Q 1025 3213 1025 2328 
Q 1025 1447 1429 934 
Q 1834 422 2522 422 
Q 3209 422 3611 934 
Q 4013 1447 4013 2328 
Q 4013 3213 3611 3725 
Q 3209 4238 2522 4238 
z
M 3406 84 
L 4238 -825 
L 3475 -825 
L 2784 -78 
Q 2681 -84 2626 -87 
Q 2572 -91 2522 -91 
Q 1538 -91 948 567 
Q 359 1225 359 2328 
Q 359 3434 948 4092 
Q 1538 4750 2522 4750 
Q 3503 4750 4090 4092 
Q 4678 3434 4678 2328 
Q 4678 1516 4351 937 
Q 4025 359 3406 84 
z
" transform="scale(0.015625)"/>
       <path id="DejaVuSans-41" d="M 2188 4044 
L 1331 1722 
L 3047 1722 
L 2188 4044 
z
M 1831 4666 
L 2547 4666 
L 4325 0 
L 3669 0 
L 3244 1197 
L 1141 1197 
L 716 0 
L 50 0 
L 1831 4666 
z
" transform="scale(0.015625)"/>
       <path id="DejaVuSans-4f" d="M 2522 4238 
Q 1834 4238 1429 3725 
Q 1025 3213 1025 2328 
Q 1025 1447 1429 934 
Q 1834 422 2522 422 
Q 3209 422 3611 934 
Q 4013 1447 4013 2328 
Q 4013 3213 3611 3725 
Q 3209 4238 2522 4238 
z
M 2522 4750 
Q 3503 4750 4090 4092 
Q 4678 3434 4678 2328 
Q 4678 1225 4090 567 
Q 3503 -91 2522 -91 
Q 1538 -91 948 565 
Q 359 1222 359 2328 
Q 359 3434 948 4092 
Q 1538 4750 2522 4750 
z
" transform="scale(0.015625)"/>
       <path id="DejaVuSans-63" d="M 3122 3366 
L 3122 2828 
Q 2878 2963 2633 3030 
Q 2388 3097 2138 3097 
Q 1578 3097 1268 2742 
Q 959 2388 959 1747 
Q 959 1106 1268 751 
Q 1578 397 2138 397 
Q 2388 397 2633 464 
Q 2878 531 3122 666 
L 3122 134 
Q 2881 22 2623 -34 
Q 2366 -91 2075 -91 
Q 1284 -91 818 406 
Q 353 903 353 1747 
Q 353 2603 823 3093 
Q 1294 3584 2113 3584 
Q 2378 3584 2631 3529 
Q 2884 3475 3122 3366 
z
" transform="scale(0.015625)"/>
      </defs>
      <use xlink:href="#DejaVuSans-51"/>
      <use xlink:href="#DejaVuSans-41" x="78.710938"/>
      <use xlink:href="#DejaVuSans-4f" x="145.369141"/>
      <use xlink:href="#DejaVuSans-41" x="222.330078"/>
      <use xlink:href="#DejaVuSans-20" x="290.738281"/>
      <use xlink:href="#DejaVuSans-63" x="322.525391"/>
      <use xlink:href="#DejaVuSans-6f" x="377.505859"/>
      <use xlink:href="#DejaVuSans-73" x="438.6875"/>
      <use xlink:href="#DejaVuSans-74" x="490.787109"/>
     </g>
    </g>
   </g>
   <g id="line2d_56">
    <path d="M 111.22 139.541053 
L 780.82 139.541053 
" clip-path="url(#p4f9ac59b74)" style="fill: none; stroke-dasharray: 11.1,4.8; stroke-dashoffset: 0; stroke: #000000; stroke-opacity: 0.6; stroke-width: 3"/>
   </g>
   <g id="line2d_57">
    <path d="M 141.656364 306.005535 
L 146.695735 263.324818 
L 151.29632 265.61948 
L 159.446788 236.772298 
L 163.094674 260.571223 
L 169.712472 166.139124 
L 178.305397 199.992141 
L 183.344769 215.136911 
L 190.103751 193.934233 
L 196.095821 193.501525 
L 201.477416 227.350436 
L 207.894175 225.954605 
L 214.954431 230.281682 
L 221.182018 203.357645 
L 226.752785 221.19482 
L 233.680692 203.180514 
L 239.805111 196.205948 
L 246.032698 166.757783 
L 252.260285 174.937829 
L 258.415294 171.034008 
L 264.44885 146.836966 
L 270.329725 158.0119 
L 276.865613 149.979178 
L 283.047639 156.12453 
L 288.909319 158.110306 
L 295.354045 167.550884 
L 301.356434 166.747523 
L 307.669924 164.982152 
L 313.719186 174.497469 
L 319.878681 170.63939 
L 326.045668 163.959629 
L 332.147345 167.886878 
L 338.390937 162.881952 
L 344.547353 160.955189 
L 350.673553 171.097895 
L 356.799558 177.986919 
L 362.936686 171.454506 
L 369.15533 170.563331 
L 375.295398 168.242863 
L 381.423799 165.900157 
L 387.575691 161.978333 
L 393.719044 156.541073 
L 399.866641 151.794854 
L 406.018571 152.475934 
L 412.198631 148.855841 
L 418.327508 145.315719 
L 424.476623 139.269097 
L 430.637154 144.346 
L 436.795112 142.093044 
L 442.934149 143.677761 
L 449.084872 145.017211 
L 455.229997 144.764425 
L 461.388864 147.112575 
L 467.531644 145.566618 
L 473.682493 145.373332 
L 479.830751 144.036837 
L 485.985759 142.67411 
L 492.131276 140.354101 
L 498.281138 138.307991 
L 504.430539 139.93666 
L 510.578669 141.418801 
L 516.730588 140.720702 
L 522.877637 141.528625 
L 529.027879 139.961096 
L 535.175394 139.466282 
L 541.325502 138.347026 
L 547.473694 139.15999 
L 553.622688 138.455598 
L 559.77035 137.708332 
L 565.919865 138.108758 
L 572.068519 137.929662 
L 578.217955 138.049302 
L 584.366359 138.027578 
L 590.515851 137.890048 
L 596.663881 137.566474 
L 602.813326 138.092559 
L 608.962056 138.334209 
L 615.110658 138.491768 
L 621.259122 138.803604 
L 627.407891 138.856562 
L 633.556768 139.200547 
L 639.705661 139.087521 
L 645.854467 139.159348 
L 652.003262 139.583425 
L 658.151977 139.909645 
L 664.300974 139.605161 
L 670.449734 139.327896 
L 676.598377 139.059059 
L 682.747094 138.702778 
L 688.895934 139.004606 
L 695.044767 138.792808 
L 701.193472 138.97955 
L 707.342297 139.001848 
L 713.491037 138.924363 
L 719.639833 139.021356 
L 725.788583 139.127781 
L 731.937338 139.05069 
L 738.086056 139.037918 
L 744.234871 139.08778 
L 750.383636 139.130912 
" clip-path="url(#p4f9ac59b74)" style="fill: none; stroke: #ff8c00; stroke-opacity: 0.8; stroke-width: 3; stroke-linecap: square"/>
   </g>
   <g id="line2d_58">
    <path d="M 141.656364 125.521725 
L 146.695735 132.613105 
L 151.29632 134.960708 
L 159.446788 136.360018 
L 163.094674 135.851178 
L 169.712472 135.641656 
L 178.305397 138.344495 
L 183.344769 138.441637 
L 190.103751 136.848505 
L 196.095821 134.451868 
L 201.477416 134.242587 
L 207.894175 133.001674 
L 214.954431 134.871661 
L 221.182018 134.426426 
L 226.752785 135.138802 
L 233.680692 136.226113 
L 239.805111 134.905054 
L 246.032698 136.148002 
L 252.260285 135.455414 
L 258.415294 136.594868 
L 264.44885 135.222611 
L 270.329725 135.757444 
L 276.865613 136.016847 
L 283.047639 136.170519 
L 288.909319 136.576746 
L 295.354045 138.128446 
L 301.356434 138.214182 
L 307.669924 137.655248 
L 313.719186 138.340369 
L 319.878681 138.384887 
L 326.045668 138.040591 
L 332.147345 137.957249 
L 338.390937 139.154326 
L 344.547353 139.320941 
L 350.673553 139.26949 
L 356.799558 139.212132 
L 362.936686 138.69743 
L 369.15533 138.733458 
L 375.295398 138.370243 
L 381.423799 138.805399 
L 387.575691 139.137498 
L 393.719044 139.513009 
L 399.866641 139.502038 
L 406.018571 139.276248 
L 412.198631 139.054308 
L 418.327508 138.973766 
L 424.476623 138.950894 
L 430.637154 139.037886 
L 436.795112 139.087179 
L 442.934149 139.248278 
L 449.084872 139.282318 
L 455.229997 139.413059 
L 461.388864 139.539396 
L 467.531644 139.689761 
L 473.682493 139.557243 
L 479.830751 139.487933 
L 485.985759 139.56698 
L 492.131276 139.444138 
L 498.281138 139.408028 
L 504.430539 139.415298 
L 510.578669 139.454916 
L 516.730588 139.306601 
L 522.877637 139.402002 
L 529.027879 139.512189 
L 535.175394 139.473143 
L 541.325502 139.554018 
L 547.473694 139.534577 
L 553.622688 139.515054 
L 559.77035 139.472805 
L 565.919865 139.457498 
L 572.068519 139.486572 
L 578.217955 139.534515 
L 584.366359 139.489584 
L 590.515851 139.513046 
L 596.663881 139.499135 
L 602.813326 139.430648 
L 608.962056 139.497395 
L 615.110658 139.50042 
L 621.259122 139.516261 
L 627.407891 139.488416 
L 633.556768 139.498447 
L 639.705661 139.559799 
L 645.854467 139.572393 
L 652.003262 139.57427 
L 658.151977 139.543364 
L 664.300974 139.548436 
L 670.449734 139.533622 
L 676.598377 139.543293 
L 682.747094 139.529341 
L 688.895934 139.529907 
L 695.044767 139.529131 
L 701.193472 139.499889 
L 707.342297 139.512327 
L 713.491037 139.526463 
L 719.639833 139.522117 
L 725.788583 139.53638 
L 731.937338 139.538594 
L 738.086056 139.532565 
L 744.234871 139.523166 
L 750.383636 139.513653 
" clip-path="url(#p4f9ac59b74)" style="fill: none; stroke: #4682b4; stroke-opacity: 0.8; stroke-width: 3; stroke-linecap: square"/>
   </g>
   <g id="patch_3">
    <path d="M 111.22 469.36 
L 111.22 34.48 
" style="fill: none; stroke: #000000; stroke-width: 0.8; stroke-linejoin: miter; stroke-linecap: square"/>
   </g>
   <g id="patch_4">
    <path d="M 780.82 469.36 
L 780.82 34.48 
" style="fill: none; stroke: #000000; stroke-width: 0.8; stroke-linejoin: miter; stroke-linecap: square"/>
   </g>
   <g id="patch_5">
    <path d="M 111.22 469.36 
L 780.82 469.36 
" style="fill: none; stroke: #000000; stroke-width: 0.8; stroke-linejoin: miter; stroke-linecap: square"/>
   </g>
   <g id="patch_6">
    <path d="M 111.22 34.48 
L 780.82 34.48 
" style="fill: none; stroke: #000000; stroke-width: 0.8; stroke-linejoin: miter; stroke-linecap: square"/>
   </g>
   <g id="text_14">
    <!-- QAOA depth $p=2$ -->
    <g transform="translate(320.16 28.48)scale(0.28 -0.28)">
     <defs>
      <path id="DejaVuSans-64" d="M 2906 2969 
L 2906 4863 
L 3481 4863 
L 3481 0 
L 2906 0 
L 2906 525 
Q 2725 213 2448 61 
Q 2172 -91 1784 -91 
Q 1150 -91 751 415 
Q 353 922 353 1747 
Q 353 2572 751 3078 
Q 1150 3584 1784 3584 
Q 2172 3584 2448 3432 
Q 2725 3281 2906 2969 
z
M 947 1747 
Q 947 1113 1208 752 
Q 1469 391 1925 391 
Q 2381 391 2643 752 
Q 2906 1113 2906 1747 
Q 2906 2381 2643 2742 
Q 2381 3103 1925 3103 
Q 1469 3103 1208 2742 
Q 947 2381 947 1747 
z
" transform="scale(0.015625)"/>
      <path id="DejaVuSans-70" d="M 1159 525 
L 1159 -1331 
L 581 -1331 
L 581 3500 
L 1159 3500 
L 1159 2969 
Q 1341 3281 1617 3432 
Q 1894 3584 2278 3584 
Q 2916 3584 3314 3078 
Q 3713 2572 3713 1747 
Q 3713 922 3314 415 
Q 2916 -91 2278 -91 
Q 1894 -91 1617 61 
Q 1341 213 1159 525 
z
M 3116 1747 
Q 3116 2381 2855 2742 
Q 2594 3103 2138 3103 
Q 1681 3103 1420 2742 
Q 1159 2381 1159 1747 
Q 1159 1113 1420 752 
Q 1681 391 2138 391 
Q 2594 391 2855 752 
Q 3116 1113 3116 1747 
z
" transform="scale(0.015625)"/>
      <path id="DejaVuSans-Oblique-70" d="M 3175 2156 
Q 3175 2616 2975 2859 
Q 2775 3103 2400 3103 
Q 2144 3103 1911 2972 
Q 1678 2841 1497 2591 
Q 1319 2344 1212 1994 
Q 1106 1644 1106 1300 
Q 1106 863 1306 627 
Q 1506 391 1875 391 
Q 2147 391 2380 519 
Q 2613 647 2778 891 
Q 2956 1147 3065 1494 
Q 3175 1841 3175 2156 
z
M 1394 2969 
Q 1625 3272 1939 3428 
Q 2253 3584 2638 3584 
Q 3175 3584 3472 3232 
Q 3769 2881 3769 2247 
Q 3769 1728 3584 1258 
Q 3400 788 3053 416 
Q 2822 169 2531 39 
Q 2241 -91 1919 -91 
Q 1547 -91 1294 64 
Q 1041 219 916 525 
L 556 -1331 
L -19 -1331 
L 922 3500 
L 1497 3500 
L 1394 2969 
z
" transform="scale(0.015625)"/>
      <path id="DejaVuSans-3d" d="M 678 2906 
L 4684 2906 
L 4684 2381 
L 678 2381 
L 678 2906 
z
M 678 1631 
L 4684 1631 
L 4684 1100 
L 678 1100 
L 678 1631 
z
" transform="scale(0.015625)"/>
     </defs>
     <use xlink:href="#DejaVuSans-51" transform="translate(0 0.015625)"/>
     <use xlink:href="#DejaVuSans-41" transform="translate(78.710938 0.015625)"/>
     <use xlink:href="#DejaVuSans-4f" transform="translate(147.119141 0.015625)"/>
     <use xlink:href="#DejaVuSans-41" transform="translate(225.830078 0.015625)"/>
     <use xlink:href="#DejaVuSans-20" transform="translate(294.238281 0.015625)"/>
     <use xlink:href="#DejaVuSans-64" transform="translate(326.025391 0.015625)"/>
     <use xlink:href="#DejaVuSans-65" transform="translate(389.501953 0.015625)"/>
     <use xlink:href="#DejaVuSans-70" transform="translate(451.025391 0.015625)"/>
     <use xlink:href="#DejaVuSans-74" transform="translate(514.501953 0.015625)"/>
     <use xlink:href="#DejaVuSans-68" transform="translate(553.710938 0.015625)"/>
     <use xlink:href="#DejaVuSans-20" transform="translate(617.089844 0.015625)"/>
     <use xlink:href="#DejaVuSans-Oblique-70" transform="translate(648.876953 0.015625)"/>
     <use xlink:href="#DejaVuSans-3d" transform="translate(731.835938 0.015625)"/>
     <use xlink:href="#DejaVuSans-32" transform="translate(835.107422 0.015625)"/>
    </g>
   </g>
   <g id="patch_7">
    <path d="M 578.217955 141.035213 
L 750.383636 141.035213 
L 750.383636 135.746545 
L 578.217955 135.746545 
L 578.217955 141.035213 
z
" clip-path="url(#p4f9ac59b74)" style="fill: none; opacity: 0.5; stroke: #808080; stroke-linejoin: miter"/>
   </g>
   <g id="patch_8">
    <path d="M 459.412 156.2464 
Q 518.814977 145.996473 578.217955 135.746545 
" style="fill: none; opacity: 0.5; stroke: #808080; stroke-linecap: round"/>
   </g>
   <g id="patch_9">
    <path d="M 760.732 156.2464 
Q 755.557818 145.996473 750.383636 135.746545 
" style="fill: none; opacity: 0.5; stroke: #808080; stroke-linecap: round"/>
   </g>
   <g id="legend_1">
    <g id="patch_10">
     <path d="M 284.198125 79.83625 
L 766.82 79.83625 
Q 770.82 79.83625 770.82 75.83625 
L 770.82 48.48 
Q 770.82 44.48 766.82 44.48 
L 284.198125 44.48 
Q 280.198125 44.48 280.198125 48.48 
L 280.198125 75.83625 
Q 280.198125 79.83625 284.198125 79.83625 
z
" style="fill: #ffffff; opacity: 0.8; stroke: #cccccc; stroke-linejoin: miter"/>
    </g>
    <g id="line2d_59">
     <path d="M 288.198125 60.676875 
L 308.198125 60.676875 
L 328.198125 60.676875 
" style="fill: none; stroke-dasharray: 11.1,4.8; stroke-dashoffset: 0; stroke: #000000; stroke-opacity: 0.6; stroke-width: 3"/>
    </g>
    <g id="text_15">
     <!-- Exact -->
     <g transform="translate(344.198125 67.676875)scale(0.2 -0.2)">
      <defs>
       <path id="DejaVuSans-45" d="M 628 4666 
L 3578 4666 
L 3578 4134 
L 1259 4134 
L 1259 2753 
L 3481 2753 
L 3481 2222 
L 1259 2222 
L 1259 531 
L 3634 531 
L 3634 0 
L 628 0 
L 628 4666 
z
" transform="scale(0.015625)"/>
       <path id="DejaVuSans-78" d="M 3513 3500 
L 2247 1797 
L 3578 0 
L 2900 0 
L 1881 1375 
L 863 0 
L 184 0 
L 1544 1831 
L 300 3500 
L 978 3500 
L 1906 2253 
L 2834 3500 
L 3513 3500 
z
" transform="scale(0.015625)"/>
       <path id="DejaVuSans-61" d="M 2194 1759 
Q 1497 1759 1228 1600 
Q 959 1441 959 1056 
Q 959 750 1161 570 
Q 1363 391 1709 391 
Q 2188 391 2477 730 
Q 2766 1069 2766 1631 
L 2766 1759 
L 2194 1759 
z
M 3341 1997 
L 3341 0 
L 2766 0 
L 2766 531 
Q 2569 213 2275 61 
Q 1981 -91 1556 -91 
Q 1019 -91 701 211 
Q 384 513 384 1019 
Q 384 1609 779 1909 
Q 1175 2209 1959 2209 
L 2766 2209 
L 2766 2266 
Q 2766 2663 2505 2880 
Q 2244 3097 1772 3097 
Q 1472 3097 1187 3025 
Q 903 2953 641 2809 
L 641 3341 
Q 956 3463 1253 3523 
Q 1550 3584 1831 3584 
Q 2591 3584 2966 3190 
Q 3341 2797 3341 1997 
z
" transform="scale(0.015625)"/>
      </defs>
      <use xlink:href="#DejaVuSans-45"/>
      <use xlink:href="#DejaVuSans-78" x="63.183594"/>
      <use xlink:href="#DejaVuSans-61" x="122.363281"/>
      <use xlink:href="#DejaVuSans-63" x="183.642578"/>
      <use xlink:href="#DejaVuSans-74" x="238.623047"/>
     </g>
    </g>
    <g id="line2d_60">
     <path d="M 439.766875 60.676875 
L 459.766875 60.676875 
L 479.766875 60.676875 
" style="fill: none; stroke: #ff8c00; stroke-opacity: 0.8; stroke-width: 3; stroke-linecap: square"/>
    </g>
    <g id="text_16">
     <!-- Pauli -->
     <g transform="translate(495.766875 67.676875)scale(0.2 -0.2)">
      <defs>
       <path id="DejaVuSans-50" d="M 1259 4147 
L 1259 2394 
L 2053 2394 
Q 2494 2394 2734 2622 
Q 2975 2850 2975 3272 
Q 2975 3691 2734 3919 
Q 2494 4147 2053 4147 
L 1259 4147 
z
M 628 4666 
L 2053 4666 
Q 2838 4666 3239 4311 
Q 3641 3956 3641 3272 
Q 3641 2581 3239 2228 
Q 2838 1875 2053 1875 
L 1259 1875 
L 1259 0 
L 628 0 
L 628 4666 
z
" transform="scale(0.015625)"/>
       <path id="DejaVuSans-6c" d="M 603 4863 
L 1178 4863 
L 1178 0 
L 603 0 
L 603 4863 
z
" transform="scale(0.015625)"/>
       <path id="DejaVuSans-69" d="M 603 3500 
L 1178 3500 
L 1178 0 
L 603 0 
L 603 3500 
z
M 603 4863 
L 1178 4863 
L 1178 4134 
L 603 4134 
L 603 4863 
z
" transform="scale(0.015625)"/>
      </defs>
      <use xlink:href="#DejaVuSans-50"/>
      <use xlink:href="#DejaVuSans-61" x="55.802734"/>
      <use xlink:href="#DejaVuSans-75" x="117.082031"/>
      <use xlink:href="#DejaVuSans-6c" x="180.460938"/>
      <use xlink:href="#DejaVuSans-69" x="208.244141"/>
     </g>
    </g>
    <g id="line2d_61">
     <path d="M 582.97 60.676875 
L 602.97 60.676875 
L 622.97 60.676875 
" style="fill: none; stroke: #4682b4; stroke-opacity: 0.8; stroke-width: 3; stroke-linecap: square"/>
    </g>
    <g id="text_17">
     <!-- Randomized -->
     <g transform="translate(638.97 67.676875)scale(0.2 -0.2)">
      <defs>
       <path id="DejaVuSans-52" d="M 2841 2188 
Q 3044 2119 3236 1894 
Q 3428 1669 3622 1275 
L 4263 0 
L 3584 0 
L 2988 1197 
Q 2756 1666 2539 1819 
Q 2322 1972 1947 1972 
L 1259 1972 
L 1259 0 
L 628 0 
L 628 4666 
L 2053 4666 
Q 2853 4666 3247 4331 
Q 3641 3997 3641 3322 
Q 3641 2881 3436 2590 
Q 3231 2300 2841 2188 
z
M 1259 4147 
L 1259 2491 
L 2053 2491 
Q 2509 2491 2742 2702 
Q 2975 2913 2975 3322 
Q 2975 3731 2742 3939 
Q 2509 4147 2053 4147 
L 1259 4147 
z
" transform="scale(0.015625)"/>
       <path id="DejaVuSans-6e" d="M 3513 2113 
L 3513 0 
L 2938 0 
L 2938 2094 
Q 2938 2591 2744 2837 
Q 2550 3084 2163 3084 
Q 1697 3084 1428 2787 
Q 1159 2491 1159 1978 
L 1159 0 
L 581 0 
L 581 3500 
L 1159 3500 
L 1159 2956 
Q 1366 3272 1645 3428 
Q 1925 3584 2291 3584 
Q 2894 3584 3203 3211 
Q 3513 2838 3513 2113 
z
" transform="scale(0.015625)"/>
       <path id="DejaVuSans-7a" d="M 353 3500 
L 3084 3500 
L 3084 2975 
L 922 459 
L 3084 459 
L 3084 0 
L 275 0 
L 275 525 
L 2438 3041 
L 353 3041 
L 353 3500 
z
" transform="scale(0.015625)"/>
      </defs>
      <use xlink:href="#DejaVuSans-52"/>
      <use xlink:href="#DejaVuSans-61" x="67.232422"/>
      <use xlink:href="#DejaVuSans-6e" x="128.511719"/>
      <use xlink:href="#DejaVuSans-64" x="191.890625"/>
      <use xlink:href="#DejaVuSans-6f" x="255.367188"/>
      <use xlink:href="#DejaVuSans-6d" x="316.548828"/>
      <use xlink:href="#DejaVuSans-69" x="413.960938"/>
      <use xlink:href="#DejaVuSans-7a" x="441.744141"/>
      <use xlink:href="#DejaVuSans-65" x="494.234375"/>
      <use xlink:href="#DejaVuSans-64" x="555.757812"/>
     </g>
    </g>
   </g>
   <g id="axes_2">
    <g id="patch_11">
     <path d="M 459.412 286.7104 
L 760.732 286.7104 
L 760.732 156.2464 
L 459.412 156.2464 
z
" style="fill: #ffffff"/>
    </g>
    <g id="PolyCollection_3">
     <defs>
      <path id="m6ea0224592" d="M 459.412 -278.574193 
L 459.412 -371.093942 
L 470.172781 -369.100165 
L 480.935465 -370.08579 
L 491.695591 -375.709668 
L 502.458193 -360.624565 
L 513.219544 -352.615756 
L 523.980671 -346.73201 
L 534.741557 -337.183497 
L 545.502976 -334.125835 
L 556.264584 -324.021985 
L 567.026221 -325.233081 
L 577.787705 -322.014456 
L 588.54917 -310.154435 
L 599.310494 -300.777995 
L 610.072313 -307.035246 
L 620.833716 -312.734493 
L 631.594914 -318.252882 
L 642.356243 -326.00918 
L 653.117786 -317.585584 
L 663.879318 -321.897994 
L 674.640625 -316.420216 
L 685.402141 -315.064282 
L 696.163509 -316.193936 
L 706.924977 -313.072527 
L 717.686363 -309.750939 
L 728.447758 -311.001648 
L 739.209087 -310.701762 
L 749.970587 -308.894135 
L 760.732 -307.284169 
L 760.732 -289.020399 
L 760.732 -289.020399 
L 749.970587 -289.538429 
L 739.209087 -290.190825 
L 728.447758 -289.26082 
L 717.686363 -286.708083 
L 706.924977 -288.637195 
L 696.163509 -290.30118 
L 685.402141 -287.607896 
L 674.640625 -287.352105 
L 663.879318 -291.087657 
L 653.117786 -284.95054 
L 642.356243 -291.418316 
L 631.594914 -281.596697 
L 620.833716 -273.851427 
L 610.072313 -265.871184 
L 599.310494 -257.106032 
L 588.54917 -263.824403 
L 577.787705 -272.887135 
L 567.026221 -273.21228 
L 556.264584 -268.84697 
L 545.502976 -275.714372 
L 534.741557 -275.2695 
L 523.980671 -281.106119 
L 513.219544 -282.995903 
L 502.458193 -286.90939 
L 491.695591 -297.779877 
L 480.935465 -287.439513 
L 470.172781 -281.639771 
L 459.412 -278.574193 
z
" style="stroke: #ff8c00; stroke-opacity: 0.4"/>
     </defs>
     <g clip-path="url(#paee613af40)">
      <use xlink:href="#m6ea0224592" x="0" y="537.88625" style="fill: #ff8c00; fill-opacity: 0.4; stroke: #ff8c00; stroke-opacity: 0.4"/>
     </g>
    </g>
    <g id="PolyCollection_4">
     <defs>
      <path id="m65c4a644cf" d="M 459.412 -284.876273 
L 459.412 -291.515648 
L 470.172781 -292.434896 
L 480.935465 -291.676614 
L 491.695591 -291.858855 
L 502.458193 -293.389286 
L 513.219544 -291.590285 
L 523.980671 -291.384137 
L 534.741557 -290.86107 
L 545.502976 -291.423914 
L 556.264584 -291.059511 
L 567.026221 -289.433802 
L 577.787705 -289.017074 
L 588.54917 -288.871366 
L 599.310494 -289.540066 
L 610.072313 -289.324722 
L 620.833716 -289.608055 
L 631.594914 -289.290756 
L 642.356243 -289.561568 
L 653.117786 -289.477103 
L 663.879318 -289.430869 
L 674.640625 -290.08974 
L 685.402141 -289.724739 
L 696.163509 -289.320955 
L 706.924977 -289.375668 
L 717.686363 -288.974871 
L 728.447758 -288.87336 
L 739.209087 -288.977684 
L 749.970587 -289.167909 
L 760.732 -289.3638 
L 760.732 -288.057368 
L 760.732 -288.057368 
L 749.970587 -287.783918 
L 739.209087 -287.51042 
L 728.447758 -287.317309 
L 717.686363 -287.325013 
L 706.924977 -287.62794 
L 696.163509 -287.468219 
L 685.402141 -287.761856 
L 674.640625 -288.010537 
L 663.879318 -287.226696 
L 653.117786 -287.142134 
L 642.356243 -287.085617 
L 631.594914 -286.668074 
L 620.833716 -286.827892 
L 610.072313 -286.380346 
L 599.310494 -286.415264 
L 588.54917 -285.559132 
L 577.787705 -285.506058 
L 567.026221 -285.710644 
L 556.264584 -287.111882 
L 545.502976 -287.242394 
L 534.741557 -286.43143 
L 523.980671 -286.689942 
L 513.219544 -286.633006 
L 502.458193 -288.127142 
L 491.695591 -286.278586 
L 480.935465 -285.774534 
L 470.172781 -286.173787 
L 459.412 -284.876273 
z
" style="stroke: #4682b4; stroke-opacity: 0.4"/>
     </defs>
     <g clip-path="url(#paee613af40)">
      <use xlink:href="#m65c4a644cf" x="0" y="537.88625" style="fill: #4682b4; fill-opacity: 0.4; stroke: #4682b4; stroke-opacity: 0.4"/>
     </g>
    </g>
    <g id="matplotlib.axis_3">
     <g id="xtick_51">
      <g id="line2d_62">
       <g>
        <use xlink:href="#m496debbf17" x="547.6562" y="286.7104" style="stroke: #000000; stroke-width: 0.8"/>
       </g>
      </g>
      <g id="text_18">
       <!-- $\mathdefault{10^{5}}$ -->
       <g transform="translate(533.5762 305.8679)scale(0.16 -0.16)">
        <use xlink:href="#DejaVuSans-31" transform="translate(0 0.684375)"/>
        <use xlink:href="#DejaVuSans-30" transform="translate(63.623047 0.684375)"/>
        <use xlink:href="#DejaVuSans-35" transform="translate(128.203125 38.965625)scale(0.7)"/>
       </g>
      </g>
     </g>
     <g id="xtick_52">
      <g id="line2d_63">
       <g>
        <use xlink:href="#m496debbf17" x="760.732" y="286.7104" style="stroke: #000000; stroke-width: 0.8"/>
       </g>
      </g>
      <g id="text_19">
       <!-- $\mathdefault{10^{6}}$ -->
       <g transform="translate(746.652 305.8679)scale(0.16 -0.16)">
        <use xlink:href="#DejaVuSans-31" transform="translate(0 0.765625)"/>
        <use xlink:href="#DejaVuSans-30" transform="translate(63.623047 0.765625)"/>
        <use xlink:href="#DejaVuSans-36" transform="translate(128.203125 39.046875)scale(0.7)"/>
       </g>
      </g>
     </g>
     <g id="xtick_53">
      <g id="line2d_64">
       <g>
        <use xlink:href="#m6002d5a67b" x="462.864814" y="286.7104" style="stroke: #000000; stroke-width: 0.6"/>
       </g>
      </g>
     </g>
     <g id="xtick_54">
      <g id="line2d_65">
       <g>
        <use xlink:href="#m6002d5a67b" x="483.513993" y="286.7104" style="stroke: #000000; stroke-width: 0.6"/>
       </g>
      </g>
     </g>
     <g id="xtick_55">
      <g id="line2d_66">
       <g>
        <use xlink:href="#m6002d5a67b" x="500.3856" y="286.7104" style="stroke: #000000; stroke-width: 0.6"/>
       </g>
      </g>
     </g>
     <g id="xtick_56">
      <g id="line2d_67">
       <g>
        <use xlink:href="#m6002d5a67b" x="514.650341" y="286.7104" style="stroke: #000000; stroke-width: 0.6"/>
       </g>
      </g>
     </g>
     <g id="xtick_57">
      <g id="line2d_68">
       <g>
        <use xlink:href="#m6002d5a67b" x="527.007021" y="286.7104" style="stroke: #000000; stroke-width: 0.6"/>
       </g>
      </g>
     </g>
     <g id="xtick_58">
      <g id="line2d_69">
       <g>
        <use xlink:href="#m6002d5a67b" x="537.906386" y="286.7104" style="stroke: #000000; stroke-width: 0.6"/>
       </g>
      </g>
     </g>
     <g id="xtick_59">
      <g id="line2d_70">
       <g>
        <use xlink:href="#m6002d5a67b" x="611.798407" y="286.7104" style="stroke: #000000; stroke-width: 0.6"/>
       </g>
      </g>
     </g>
     <g id="xtick_60">
      <g id="line2d_71">
       <g>
        <use xlink:href="#m6002d5a67b" x="649.319193" y="286.7104" style="stroke: #000000; stroke-width: 0.6"/>
       </g>
      </g>
     </g>
     <g id="xtick_61">
      <g id="line2d_72">
       <g>
        <use xlink:href="#m6002d5a67b" x="675.940614" y="286.7104" style="stroke: #000000; stroke-width: 0.6"/>
       </g>
      </g>
     </g>
     <g id="xtick_62">
      <g id="line2d_73">
       <g>
        <use xlink:href="#m6002d5a67b" x="696.589793" y="286.7104" style="stroke: #000000; stroke-width: 0.6"/>
       </g>
      </g>
     </g>
     <g id="xtick_63">
      <g id="line2d_74">
       <g>
        <use xlink:href="#m6002d5a67b" x="713.4614" y="286.7104" style="stroke: #000000; stroke-width: 0.6"/>
       </g>
      </g>
     </g>
     <g id="xtick_64">
      <g id="line2d_75">
       <g>
        <use xlink:href="#m6002d5a67b" x="727.726141" y="286.7104" style="stroke: #000000; stroke-width: 0.6"/>
       </g>
      </g>
     </g>
     <g id="xtick_65">
      <g id="line2d_76">
       <g>
        <use xlink:href="#m6002d5a67b" x="740.082821" y="286.7104" style="stroke: #000000; stroke-width: 0.6"/>
       </g>
      </g>
     </g>
     <g id="xtick_66">
      <g id="line2d_77">
       <g>
        <use xlink:href="#m6002d5a67b" x="750.982186" y="286.7104" style="stroke: #000000; stroke-width: 0.6"/>
       </g>
      </g>
     </g>
    </g>
    <g id="matplotlib.axis_4">
     <g id="ytick_6">
      <g id="line2d_78">
       <g>
        <use xlink:href="#m9a3bd3583e" x="459.412" y="246.694138" style="stroke: #000000; stroke-width: 0.8"/>
       </g>
      </g>
      <g id="text_20">
       <!-- 0 -->
       <g transform="translate(442.232 252.772888)scale(0.16 -0.16)">
        <use xlink:href="#DejaVuSans-30"/>
       </g>
      </g>
     </g>
     <g id="ytick_7">
      <g id="line2d_79">
       <g>
        <use xlink:href="#m9a3bd3583e" x="459.412" y="191.967544" style="stroke: #000000; stroke-width: 0.8"/>
       </g>
      </g>
      <g id="text_21">
       <!-- 5 -->
       <g transform="translate(442.232 198.046294)scale(0.16 -0.16)">
        <use xlink:href="#DejaVuSans-35"/>
       </g>
      </g>
     </g>
    </g>
    <g id="line2d_80">
     <path d="M 459.412 248.68997 
L 760.732 248.68997 
" clip-path="url(#paee613af40)" style="fill: none; stroke-dasharray: 11.1,4.8; stroke-dashoffset: 0; stroke: #000000; stroke-opacity: 0.6; stroke-width: 3"/>
    </g>
    <g id="line2d_81">
     <path d="M 459.412 213.052183 
L 470.172781 212.516282 
L 480.935465 209.123598 
L 491.695591 201.141477 
L 502.458193 214.119273 
L 513.219544 220.080421 
L 523.980671 223.967185 
L 534.741557 231.659751 
L 545.502976 232.966146 
L 556.264584 241.451773 
L 567.026221 238.66357 
L 577.787705 240.435455 
L 588.54917 250.896831 
L 599.310494 258.944236 
L 610.072313 251.433035 
L 620.833716 244.59329 
L 631.594914 237.961461 
L 642.356243 229.172502 
L 653.117786 236.618188 
L 663.879318 231.393425 
L 674.640625 236.00009 
L 685.402141 236.550161 
L 696.163509 234.638692 
L 706.924977 237.031389 
L 717.686363 239.656739 
L 728.447758 237.755016 
L 739.209087 237.439956 
L 749.970587 238.669968 
L 760.732 239.733966 
" clip-path="url(#paee613af40)" style="fill: none; stroke: #ff8c00; stroke-opacity: 0.8; stroke-width: 3; stroke-linecap: square"/>
    </g>
    <g id="line2d_82">
     <path d="M 459.412 249.690289 
L 470.172781 248.581908 
L 480.935465 249.160676 
L 491.695591 248.817529 
L 502.458193 247.128036 
L 513.219544 248.774605 
L 523.980671 248.84921 
L 534.741557 249.24 
L 545.502976 248.553096 
L 556.264584 248.800553 
L 567.026221 250.314027 
L 577.787705 250.624684 
L 588.54917 250.671001 
L 599.310494 249.908585 
L 610.072313 250.033716 
L 620.833716 249.668276 
L 631.594914 249.906835 
L 642.356243 249.562658 
L 653.117786 249.576632 
L 663.879318 249.557468 
L 674.640625 248.836111 
L 685.402141 249.142952 
L 696.163509 249.491663 
L 706.924977 249.384446 
L 717.686363 249.736308 
L 728.447758 249.790916 
L 739.209087 249.642198 
L 749.970587 249.410336 
L 760.732 249.175666 
" clip-path="url(#paee613af40)" style="fill: none; stroke: #4682b4; stroke-opacity: 0.8; stroke-width: 3; stroke-linecap: square"/>
    </g>
    <g id="patch_12">
     <path d="M 459.412 286.7104 
L 459.412 156.2464 
" style="fill: none; stroke: #000000; stroke-width: 0.8; stroke-linejoin: miter; stroke-linecap: square"/>
    </g>
    <g id="patch_13">
     <path d="M 760.732 286.7104 
L 760.732 156.2464 
" style="fill: none; stroke: #000000; stroke-width: 0.8; stroke-linejoin: miter; stroke-linecap: square"/>
    </g>
    <g id="patch_14">
     <path d="M 459.412 286.7104 
L 760.732 286.7104 
" style="fill: none; stroke: #000000; stroke-width: 0.8; stroke-linejoin: miter; stroke-linecap: square"/>
    </g>
    <g id="patch_15">
     <path d="M 459.412 156.2464 
L 760.732 156.2464 
" style="fill: none; stroke: #000000; stroke-width: 0.8; stroke-linejoin: miter; stroke-linecap: square"/>
    </g>
    <g id="patch_16">
     <path d="M 674.640625 252.663774 
L 760.732 252.663774 
L 760.732 235.748819 
L 674.640625 235.748819 
L 674.640625 252.663774 
z
" clip-path="url(#paee613af40)" style="fill: none; opacity: 0.5; stroke: #808080; stroke-linejoin: miter"/>
    </g>
    <g id="patch_17">
     <path d="M 459.412 308.88928 
Q 567.026313 272.319049 674.640625 235.748819 
" style="fill: none; opacity: 0.5; stroke: #808080; stroke-linecap: round"/>
    </g>
    <g id="patch_18">
     <path d="M 760.732 308.88928 
Q 760.732 272.319049 760.732 235.748819 
" style="fill: none; opacity: 0.5; stroke: #808080; stroke-linecap: round"/>
    </g>
    <g id="axes_3">
     <g id="patch_19">
      <path d="M 459.412 439.35328 
L 760.732 439.35328 
L 760.732 308.88928 
L 459.412 308.88928 
z
" style="fill: #ffffff"/>
     </g>
     <g id="PolyCollection_5">
      <defs>
       <path id="m30624a6a60" d="M 459.412 -114.958664 
L 459.412 -339.159204 
L 497.077329 -328.700971 
L 534.742141 -337.413922 
L 572.4073 -313.338686 
L 610.072174 -287.719488 
L 647.737081 -297.366124 
L 685.401757 -295.053125 
L 723.067031 -281.111008 
L 760.732 -268.693442 
L 760.732 -127.826117 
L 760.732 -127.826117 
L 723.067031 -131.821646 
L 685.401757 -136.853539 
L 647.737081 -129.680469 
L 610.072174 -109.991362 
L 572.4073 -124.870484 
L 534.742141 -137.704699 
L 497.077329 -116.931565 
L 459.412 -114.958664 
z
" style="stroke: #ff8c00; stroke-opacity: 0.4"/>
      </defs>
      <g clip-path="url(#p53afa429f1)">
       <use xlink:href="#m30624a6a60" x="0" y="537.88625" style="fill: #ff8c00; fill-opacity: 0.4; stroke: #ff8c00; stroke-opacity: 0.4"/>
      </g>
     </g>
     <g id="PolyCollection_6">
      <defs>
       <path id="me87b9be44a" d="M 459.412 -120.037114 
L 459.412 -136.073873 
L 497.077329 -133.258647 
L 534.742141 -130.144283 
L 572.4073 -130.566282 
L 610.072174 -127.474958 
L 647.737081 -126.692012 
L 685.401757 -127.496657 
L 723.067031 -128.963852 
L 760.732 -130.474748 
L 760.732 -120.398313 
L 760.732 -120.398313 
L 723.067031 -118.289214 
L 685.401757 -116.179738 
L 647.737081 -114.690284 
L 610.072174 -114.749709 
L 572.4073 -117.086163 
L 534.742141 -115.854245 
L 497.077329 -118.119052 
L 459.412 -120.037114 
z
" style="stroke: #4682b4; stroke-opacity: 0.4"/>
      </defs>
      <g clip-path="url(#p53afa429f1)">
       <use xlink:href="#me87b9be44a" x="0" y="537.88625" style="fill: #4682b4; fill-opacity: 0.4; stroke: #4682b4; stroke-opacity: 0.4"/>
      </g>
     </g>
     <g id="matplotlib.axis_5">
      <g id="xtick_67">
       <g id="line2d_83">
        <g>
         <use xlink:href="#m496debbf17" x="760.732" y="439.35328" style="stroke: #000000; stroke-width: 0.8"/>
        </g>
       </g>
       <g id="text_22">
        <!-- $\mathdefault{10^{6}}$ -->
        <g transform="translate(746.652 458.51078)scale(0.16 -0.16)">
         <use xlink:href="#DejaVuSans-31" transform="translate(0 0.765625)"/>
         <use xlink:href="#DejaVuSans-30" transform="translate(63.623047 0.765625)"/>
         <use xlink:href="#DejaVuSans-36" transform="translate(128.203125 39.046875)scale(0.7)"/>
        </g>
       </g>
      </g>
      <g id="xtick_68">
       <g id="line2d_84">
        <g>
         <use xlink:href="#m6002d5a67b" x="463.961964" y="439.35328" style="stroke: #000000; stroke-width: 0.6"/>
        </g>
       </g>
       <g id="text_23">
        <!-- $\mathdefault{4\times10^{5}}$ -->
        <g transform="translate(445.861964 452.351717)scale(0.1 -0.1)">
         <defs>
          <path id="DejaVuSans-d7" d="M 4488 3438 
L 3059 2003 
L 4488 575 
L 4116 197 
L 2681 1631 
L 1247 197 
L 878 575 
L 2303 2003 
L 878 3438 
L 1247 3816 
L 2681 2381 
L 4116 3816 
L 4488 3438 
z
" transform="scale(0.015625)"/>
         </defs>
         <use xlink:href="#DejaVuSans-34" transform="translate(0 0.684375)"/>
         <use xlink:href="#DejaVuSans-d7" transform="translate(83.105469 0.684375)"/>
         <use xlink:href="#DejaVuSans-31" transform="translate(186.376953 0.684375)"/>
         <use xlink:href="#DejaVuSans-30" transform="translate(250 0.684375)"/>
         <use xlink:href="#DejaVuSans-35" transform="translate(314.580078 38.965625)scale(0.7)"/>
        </g>
       </g>
      </g>
      <g id="xtick_69">
       <g id="line2d_85">
        <g>
         <use xlink:href="#m6002d5a67b" x="536.234134" y="439.35328" style="stroke: #000000; stroke-width: 0.6"/>
        </g>
       </g>
      </g>
      <g id="xtick_70">
       <g id="line2d_86">
        <g>
         <use xlink:href="#m6002d5a67b" x="595.284797" y="439.35328" style="stroke: #000000; stroke-width: 0.6"/>
        </g>
       </g>
       <g id="text_24">
        <!-- $\mathdefault{6\times10^{5}}$ -->
        <g transform="translate(577.184797 452.351717)scale(0.1 -0.1)">
         <use xlink:href="#DejaVuSans-36" transform="translate(0 0.684375)"/>
         <use xlink:href="#DejaVuSans-d7" transform="translate(83.105469 0.684375)"/>
         <use xlink:href="#DejaVuSans-31" transform="translate(186.376953 0.684375)"/>
         <use xlink:href="#DejaVuSans-30" transform="translate(250 0.684375)"/>
         <use xlink:href="#DejaVuSans-35" transform="translate(314.580078 38.965625)scale(0.7)"/>
        </g>
       </g>
      </g>
      <g id="xtick_71">
       <g id="line2d_87">
        <g>
         <use xlink:href="#m6002d5a67b" x="645.211421" y="439.35328" style="stroke: #000000; stroke-width: 0.6"/>
        </g>
       </g>
      </g>
      <g id="xtick_72">
       <g id="line2d_88">
        <g>
         <use xlink:href="#m6002d5a67b" x="688.45983" y="439.35328" style="stroke: #000000; stroke-width: 0.6"/>
        </g>
       </g>
      </g>
      <g id="xtick_73">
       <g id="line2d_89">
        <g>
         <use xlink:href="#m6002d5a67b" x="726.60763" y="439.35328" style="stroke: #000000; stroke-width: 0.6"/>
        </g>
       </g>
      </g>
     </g>
     <g id="matplotlib.axis_6">
      <g id="ytick_8">
       <g id="line2d_90">
        <g>
         <use xlink:href="#m9a3bd3583e" x="459.412" y="435.52013" style="stroke: #000000; stroke-width: 0.8"/>
        </g>
       </g>
       <g id="text_25">
        <!-- −0.5 -->
        <g transform="translate(413.5595 441.59888)scale(0.16 -0.16)">
         <defs>
          <path id="DejaVuSans-2e" d="M 684 794 
L 1344 794 
L 1344 0 
L 684 0 
L 684 794 
z
" transform="scale(0.015625)"/>
         </defs>
         <use xlink:href="#DejaVuSans-2212"/>
         <use xlink:href="#DejaVuSans-30" x="83.789062"/>
         <use xlink:href="#DejaVuSans-2e" x="147.412109"/>
         <use xlink:href="#DejaVuSans-35" x="179.199219"/>
        </g>
       </g>
      </g>
      <g id="ytick_9">
       <g id="line2d_91">
        <g>
         <use xlink:href="#m9a3bd3583e" x="459.412" y="393.309846" style="stroke: #000000; stroke-width: 0.8"/>
        </g>
       </g>
       <g id="text_26">
        <!-- 0.0 -->
        <g transform="translate(426.967 399.388596)scale(0.16 -0.16)">
         <use xlink:href="#DejaVuSans-30"/>
         <use xlink:href="#DejaVuSans-2e" x="63.623047"/>
         <use xlink:href="#DejaVuSans-30" x="95.410156"/>
        </g>
       </g>
      </g>
      <g id="ytick_10">
       <g id="line2d_92">
        <g>
         <use xlink:href="#m9a3bd3583e" x="459.412" y="351.099563" style="stroke: #000000; stroke-width: 0.8"/>
        </g>
       </g>
       <g id="text_27">
        <!-- 0.5 -->
        <g transform="translate(426.967 357.178313)scale(0.16 -0.16)">
         <use xlink:href="#DejaVuSans-30"/>
         <use xlink:href="#DejaVuSans-2e" x="63.623047"/>
         <use xlink:href="#DejaVuSans-35" x="95.410156"/>
        </g>
       </g>
      </g>
      <g id="ytick_11">
       <g id="line2d_93">
        <g>
         <use xlink:href="#m9a3bd3583e" x="459.412" y="308.88928" style="stroke: #000000; stroke-width: 0.8"/>
        </g>
       </g>
       <g id="text_28">
        <!-- 1.0 -->
        <g transform="translate(426.967 314.96803)scale(0.16 -0.16)">
         <use xlink:href="#DejaVuSans-31"/>
         <use xlink:href="#DejaVuSans-2e" x="63.623047"/>
         <use xlink:href="#DejaVuSans-30" x="95.410156"/>
        </g>
       </g>
      </g>
     </g>
     <g id="line2d_94">
      <path d="M 459.412 408.703578 
L 760.732 408.703578 
" clip-path="url(#p53afa429f1)" style="fill: none; stroke-dasharray: 11.1,4.8; stroke-dashoffset: 0; stroke: #000000; stroke-opacity: 0.6; stroke-width: 3"/>
     </g>
     <g id="line2d_95">
      <path d="M 459.412 310.827316 
L 497.077329 315.069982 
L 534.742141 300.32694 
L 572.4073 318.781665 
L 610.072174 339.030825 
L 647.737081 324.362953 
L 685.401757 321.932918 
L 723.067031 331.419923 
L 760.732 339.626471 
" clip-path="url(#p53afa429f1)" style="fill: none; stroke: #ff8c00; stroke-opacity: 0.8; stroke-width: 3; stroke-linecap: square"/>
     </g>
     <g id="line2d_96">
      <path d="M 459.412 409.830756 
L 497.077329 412.1974 
L 534.742141 414.886986 
L 572.4073 414.060027 
L 610.072174 416.773916 
L 647.737081 417.195102 
L 685.401757 416.048053 
L 723.067031 414.259717 
L 760.732 412.449719 
" clip-path="url(#p53afa429f1)" style="fill: none; stroke: #4682b4; stroke-opacity: 0.8; stroke-width: 3; stroke-linecap: square"/>
     </g>
     <g id="patch_20">
      <path d="M 459.412 439.35328 
L 459.412 308.88928 
" style="fill: none; stroke: #000000; stroke-width: 0.8; stroke-linejoin: miter; stroke-linecap: square"/>
     </g>
     <g id="patch_21">
      <path d="M 760.732 439.35328 
L 760.732 308.88928 
" style="fill: none; stroke: #000000; stroke-width: 0.8; stroke-linejoin: miter; stroke-linecap: square"/>
     </g>
     <g id="patch_22">
      <path d="M 459.412 439.35328 
L 760.732 439.35328 
" style="fill: none; stroke: #000000; stroke-width: 0.8; stroke-linejoin: miter; stroke-linecap: square"/>
     </g>
     <g id="patch_23">
      <path d="M 459.412 308.88928 
L 760.732 308.88928 
" style="fill: none; stroke: #000000; stroke-width: 0.8; stroke-linejoin: miter; stroke-linecap: square"/>
     </g>
    </g>
   </g>
   <g id="axes_4">
    <g id="LineCollection_1">
     <path d="M 231.997025 337.45838 
L 312.699504 337.45838 
" clip-path="url(#padd9f52e5d)" style="fill: none; stroke: #000000; stroke-width: 2"/>
     <path d="M 231.997025 337.45838 
L 393.401983 337.45838 
" clip-path="url(#padd9f52e5d)" style="fill: none; stroke: #000000; stroke-width: 2"/>
     <path d="M 231.997025 337.45838 
L 231.997025 382.384 
" clip-path="url(#padd9f52e5d)" style="fill: none; stroke: #000000; stroke-width: 2"/>
     <path d="M 231.997025 337.45838 
L 312.699504 382.384 
" clip-path="url(#padd9f52e5d)" style="fill: none; stroke: #000000; stroke-width: 2"/>
     <path d="M 231.997025 337.45838 
L 393.401983 382.384 
" clip-path="url(#padd9f52e5d)" style="fill: none; stroke: #000000; stroke-width: 2"/>
     <path d="M 312.699504 337.45838 
L 393.401983 337.45838 
" clip-path="url(#padd9f52e5d)" style="fill: none; stroke: #000000; stroke-width: 2"/>
     <path d="M 312.699504 337.45838 
L 231.997025 382.384 
" clip-path="url(#padd9f52e5d)" style="fill: none; stroke: #000000; stroke-width: 2"/>
     <path d="M 312.699504 337.45838 
L 312.699504 382.384 
" clip-path="url(#padd9f52e5d)" style="fill: none; stroke: #000000; stroke-width: 2"/>
     <path d="M 312.699504 337.45838 
L 393.401983 382.384 
" clip-path="url(#padd9f52e5d)" style="fill: none; stroke: #000000; stroke-width: 2"/>
     <path d="M 393.401983 337.45838 
L 231.997025 382.384 
" clip-path="url(#padd9f52e5d)" style="fill: none; stroke: #000000; stroke-width: 2"/>
     <path d="M 393.401983 337.45838 
L 312.699504 382.384 
" clip-path="url(#padd9f52e5d)" style="fill: none; stroke: #000000; stroke-width: 2"/>
     <path d="M 393.401983 337.45838 
L 393.401983 382.384 
" clip-path="url(#padd9f52e5d)" style="fill: none; stroke: #000000; stroke-width: 2"/>
     <path d="M 231.997025 382.384 
L 231.997025 427.30962 
" clip-path="url(#padd9f52e5d)" style="fill: none; stroke: #000000; stroke-width: 2"/>
     <path d="M 231.997025 382.384 
L 312.699504 427.30962 
" clip-path="url(#padd9f52e5d)" style="fill: none; stroke: #000000; stroke-width: 2"/>
     <path d="M 231.997025 382.384 
L 393.401983 427.30962 
" clip-path="url(#padd9f52e5d)" style="fill: none; stroke: #000000; stroke-width: 2"/>
     <path d="M 312.699504 382.384 
L 231.997025 427.30962 
" clip-path="url(#padd9f52e5d)" style="fill: none; stroke: #000000; stroke-width: 2"/>
     <path d="M 312.699504 382.384 
L 312.699504 427.30962 
" clip-path="url(#padd9f52e5d)" style="fill: none; stroke: #000000; stroke-width: 2"/>
     <path d="M 312.699504 382.384 
L 393.401983 427.30962 
" clip-path="url(#padd9f52e5d)" style="fill: none; stroke: #000000; stroke-width: 2"/>
     <path d="M 393.401983 382.384 
L 231.997025 427.30962 
" clip-path="url(#padd9f52e5d)" style="fill: none; stroke: #000000; stroke-width: 2"/>
     <path d="M 393.401983 382.384 
L 312.699504 427.30962 
" clip-path="url(#padd9f52e5d)" style="fill: none; stroke: #000000; stroke-width: 2"/>
     <path d="M 393.401983 382.384 
L 393.401983 427.30962 
" clip-path="url(#padd9f52e5d)" style="fill: none; stroke: #000000; stroke-width: 2"/>
     <path d="M 231.997025 427.30962 
L 312.699504 427.30962 
" clip-path="url(#padd9f52e5d)" style="fill: none; stroke: #000000; stroke-width: 2"/>
     <path d="M 231.997025 427.30962 
L 393.401983 427.30962 
" clip-path="url(#padd9f52e5d)" style="fill: none; stroke: #000000; stroke-width: 2"/>
     <path d="M 312.699504 427.30962 
L 393.401983 427.30962 
" clip-path="url(#padd9f52e5d)" style="fill: none; stroke: #000000; stroke-width: 2"/>
    </g>
    <g id="PathCollection_1">
     <defs>
      <path id="C0_0_dd7fc94b1b" d="M 0 14.142136 
C 3.750538 14.142136 7.347969 12.652031 10 10 
C 12.652031 7.347969 14.142136 3.750538 14.142136 -0 
C 14.142136 -3.750538 12.652031 -7.347969 10 -10 
C 7.347969 -12.652031 3.750538 -14.142136 0 -14.142136 
C -3.750538 -14.142136 -7.347969 -12.652031 -10 -10 
C -12.652031 -7.347969 -14.142136 -3.750538 -14.142136 0 
C -14.142136 3.750538 -12.652031 7.347969 -10 10 
C -7.347969 12.652031 -3.750538 14.142136 0 14.142136 
z
"/>
     </defs>
     <g clip-path="url(#padd9f52e5d)">
      <use xlink:href="#C0_0_dd7fc94b1b" x="231.997025" y="337.45838" style="fill: #4682b4; stroke: #4682b4"/>
     </g>
     <g clip-path="url(#padd9f52e5d)">
      <use xlink:href="#C0_0_dd7fc94b1b" x="312.699504" y="337.45838" style="fill: #4682b4; stroke: #4682b4"/>
     </g>
     <g clip-path="url(#padd9f52e5d)">
      <use xlink:href="#C0_0_dd7fc94b1b" x="393.401983" y="337.45838" style="fill: #4682b4; stroke: #4682b4"/>
     </g>
     <g clip-path="url(#padd9f52e5d)">
      <use xlink:href="#C0_0_dd7fc94b1b" x="231.997025" y="382.384" style="fill: #ffd700; stroke: #ffd700"/>
     </g>
     <g clip-path="url(#padd9f52e5d)">
      <use xlink:href="#C0_0_dd7fc94b1b" x="312.699504" y="382.384" style="fill: #ffd700; stroke: #ffd700"/>
     </g>
     <g clip-path="url(#padd9f52e5d)">
      <use xlink:href="#C0_0_dd7fc94b1b" x="393.401983" y="382.384" style="fill: #ffd700; stroke: #ffd700"/>
     </g>
     <g clip-path="url(#padd9f52e5d)">
      <use xlink:href="#C0_0_dd7fc94b1b" x="231.997025" y="427.30962" style="fill: #4682b4; stroke: #4682b4"/>
     </g>
     <g clip-path="url(#padd9f52e5d)">
      <use xlink:href="#C0_0_dd7fc94b1b" x="312.699504" y="427.30962" style="fill: #4682b4; stroke: #4682b4"/>
     </g>
     <g clip-path="url(#padd9f52e5d)">
      <use xlink:href="#C0_0_dd7fc94b1b" x="393.401983" y="427.30962" style="fill: #4682b4; stroke: #4682b4"/>
     </g>
    </g>
    <g id="text_29">
     <g clip-path="url(#padd9f52e5d)">
      <!-- 0 -->
      <g transform="translate(226.430775 341.87338)scale(0.16 -0.16)">
       <defs>
        <path id="DejaVuSans-Bold-30" d="M 2944 2338 
Q 2944 3213 2780 3570 
Q 2616 3928 2228 3928 
Q 1841 3928 1675 3570 
Q 1509 3213 1509 2338 
Q 1509 1453 1675 1090 
Q 1841 728 2228 728 
Q 2613 728 2778 1090 
Q 2944 1453 2944 2338 
z
M 4147 2328 
Q 4147 1169 3647 539 
Q 3147 -91 2228 -91 
Q 1306 -91 806 539 
Q 306 1169 306 2328 
Q 306 3491 806 4120 
Q 1306 4750 2228 4750 
Q 3147 4750 3647 4120 
Q 4147 3491 4147 2328 
z
" transform="scale(0.015625)"/>
       </defs>
       <use xlink:href="#DejaVuSans-Bold-30"/>
      </g>
     </g>
    </g>
    <g id="text_30">
     <g clip-path="url(#padd9f52e5d)">
      <!-- 1 -->
      <g transform="translate(307.133254 341.87338)scale(0.16 -0.16)">
       <defs>
        <path id="DejaVuSans-Bold-31" d="M 750 831 
L 1813 831 
L 1813 3847 
L 722 3622 
L 722 4441 
L 1806 4666 
L 2950 4666 
L 2950 831 
L 4013 831 
L 4013 0 
L 750 0 
L 750 831 
z
" transform="scale(0.015625)"/>
       </defs>
       <use xlink:href="#DejaVuSans-Bold-31"/>
      </g>
     </g>
    </g>
    <g id="text_31">
     <g clip-path="url(#padd9f52e5d)">
      <!-- 2 -->
      <g transform="translate(387.835733 341.87338)scale(0.16 -0.16)">
       <defs>
        <path id="DejaVuSans-Bold-32" d="M 1844 884 
L 3897 884 
L 3897 0 
L 506 0 
L 506 884 
L 2209 2388 
Q 2438 2594 2547 2791 
Q 2656 2988 2656 3200 
Q 2656 3528 2436 3728 
Q 2216 3928 1850 3928 
Q 1569 3928 1234 3808 
Q 900 3688 519 3450 
L 519 4475 
Q 925 4609 1322 4679 
Q 1719 4750 2100 4750 
Q 2938 4750 3402 4381 
Q 3866 4013 3866 3353 
Q 3866 2972 3669 2642 
Q 3472 2313 2841 1759 
L 1844 884 
z
" transform="scale(0.015625)"/>
       </defs>
       <use xlink:href="#DejaVuSans-Bold-32"/>
      </g>
     </g>
    </g>
    <g id="text_32">
     <g clip-path="url(#padd9f52e5d)">
      <!-- 3 -->
      <g transform="translate(226.430775 386.799)scale(0.16 -0.16)">
       <defs>
        <path id="DejaVuSans-Bold-33" d="M 2981 2516 
Q 3453 2394 3698 2092 
Q 3944 1791 3944 1325 
Q 3944 631 3412 270 
Q 2881 -91 1863 -91 
Q 1503 -91 1142 -33 
Q 781 25 428 141 
L 428 1069 
Q 766 900 1098 814 
Q 1431 728 1753 728 
Q 2231 728 2486 893 
Q 2741 1059 2741 1369 
Q 2741 1688 2480 1852 
Q 2219 2016 1709 2016 
L 1228 2016 
L 1228 2791 
L 1734 2791 
Q 2188 2791 2409 2933 
Q 2631 3075 2631 3366 
Q 2631 3634 2415 3781 
Q 2200 3928 1806 3928 
Q 1516 3928 1219 3862 
Q 922 3797 628 3669 
L 628 4550 
Q 984 4650 1334 4700 
Q 1684 4750 2022 4750 
Q 2931 4750 3382 4451 
Q 3834 4153 3834 3553 
Q 3834 3144 3618 2883 
Q 3403 2622 2981 2516 
z
" transform="scale(0.015625)"/>
       </defs>
       <use xlink:href="#DejaVuSans-Bold-33"/>
      </g>
     </g>
    </g>
    <g id="text_33">
     <g clip-path="url(#padd9f52e5d)">
      <!-- 4 -->
      <g transform="translate(307.133254 386.799)scale(0.16 -0.16)">
       <defs>
        <path id="DejaVuSans-Bold-34" d="M 2356 3675 
L 1038 1722 
L 2356 1722 
L 2356 3675 
z
M 2156 4666 
L 3494 4666 
L 3494 1722 
L 4159 1722 
L 4159 850 
L 3494 850 
L 3494 0 
L 2356 0 
L 2356 850 
L 288 850 
L 288 1881 
L 2156 4666 
z
" transform="scale(0.015625)"/>
       </defs>
       <use xlink:href="#DejaVuSans-Bold-34"/>
      </g>
     </g>
    </g>
    <g id="text_34">
     <g clip-path="url(#padd9f52e5d)">
      <!-- 5 -->
      <g transform="translate(387.835733 386.799)scale(0.16 -0.16)">
       <defs>
        <path id="DejaVuSans-Bold-35" d="M 678 4666 
L 3669 4666 
L 3669 3781 
L 1638 3781 
L 1638 3059 
Q 1775 3097 1914 3117 
Q 2053 3138 2203 3138 
Q 3056 3138 3531 2711 
Q 4006 2284 4006 1522 
Q 4006 766 3489 337 
Q 2972 -91 2053 -91 
Q 1656 -91 1267 -14 
Q 878 63 494 219 
L 494 1166 
Q 875 947 1217 837 
Q 1559 728 1863 728 
Q 2300 728 2551 942 
Q 2803 1156 2803 1522 
Q 2803 1891 2551 2103 
Q 2300 2316 1863 2316 
Q 1603 2316 1309 2248 
Q 1016 2181 678 2041 
L 678 4666 
z
" transform="scale(0.015625)"/>
       </defs>
       <use xlink:href="#DejaVuSans-Bold-35"/>
      </g>
     </g>
    </g>
    <g id="text_35">
     <g clip-path="url(#padd9f52e5d)">
      <!-- 6 -->
      <g transform="translate(226.430775 431.72462)scale(0.16 -0.16)">
       <defs>
        <path id="DejaVuSans-Bold-36" d="M 2316 2303 
Q 2000 2303 1842 2098 
Q 1684 1894 1684 1484 
Q 1684 1075 1842 870 
Q 2000 666 2316 666 
Q 2634 666 2792 870 
Q 2950 1075 2950 1484 
Q 2950 1894 2792 2098 
Q 2634 2303 2316 2303 
z
M 3803 4544 
L 3803 3681 
Q 3506 3822 3243 3889 
Q 2981 3956 2731 3956 
Q 2194 3956 1894 3657 
Q 1594 3359 1544 2772 
Q 1750 2925 1990 3001 
Q 2231 3078 2516 3078 
Q 3231 3078 3670 2659 
Q 4109 2241 4109 1563 
Q 4109 813 3618 361 
Q 3128 -91 2303 -91 
Q 1394 -91 895 523 
Q 397 1138 397 2266 
Q 397 3422 980 4083 
Q 1563 4744 2578 4744 
Q 2900 4744 3203 4694 
Q 3506 4644 3803 4544 
z
" transform="scale(0.015625)"/>
       </defs>
       <use xlink:href="#DejaVuSans-Bold-36"/>
      </g>
     </g>
    </g>
    <g id="text_36">
     <g clip-path="url(#padd9f52e5d)">
      <!-- 7 -->
      <g transform="translate(307.133254 431.72462)scale(0.16 -0.16)">
       <defs>
        <path id="DejaVuSans-Bold-37" d="M 428 4666 
L 3944 4666 
L 3944 3988 
L 2125 0 
L 953 0 
L 2675 3781 
L 428 3781 
L 428 4666 
z
" transform="scale(0.015625)"/>
       </defs>
       <use xlink:href="#DejaVuSans-Bold-37"/>
      </g>
     </g>
    </g>
    <g id="text_37">
     <g clip-path="url(#padd9f52e5d)">
      <!-- 8 -->
      <g transform="translate(387.835733 431.72462)scale(0.16 -0.16)">
       <defs>
        <path id="DejaVuSans-Bold-38" d="M 2228 2088 
Q 1891 2088 1709 1903 
Q 1528 1719 1528 1375 
Q 1528 1031 1709 848 
Q 1891 666 2228 666 
Q 2563 666 2741 848 
Q 2919 1031 2919 1375 
Q 2919 1722 2741 1905 
Q 2563 2088 2228 2088 
z
M 1350 2484 
Q 925 2613 709 2878 
Q 494 3144 494 3541 
Q 494 4131 934 4440 
Q 1375 4750 2228 4750 
Q 3075 4750 3515 4442 
Q 3956 4134 3956 3541 
Q 3956 3144 3739 2878 
Q 3522 2613 3097 2484 
Q 3572 2353 3814 2058 
Q 4056 1763 4056 1313 
Q 4056 619 3595 264 
Q 3134 -91 2228 -91 
Q 1319 -91 855 264 
Q 391 619 391 1313 
Q 391 1763 633 2058 
Q 875 2353 1350 2484 
z
M 1631 3419 
Q 1631 3141 1786 2991 
Q 1941 2841 2228 2841 
Q 2509 2841 2662 2991 
Q 2816 3141 2816 3419 
Q 2816 3697 2662 3845 
Q 2509 3994 2228 3994 
Q 1941 3994 1786 3844 
Q 1631 3694 1631 3419 
z
" transform="scale(0.015625)"/>
       </defs>
       <use xlink:href="#DejaVuSans-Bold-38"/>
      </g>
     </g>
    </g>
   </g>
  </g>
 </g>
 <defs>
  <clipPath id="p4f9ac59b74">
   <rect x="111.22" y="34.48" width="669.6" height="434.88"/>
  </clipPath>
  <clipPath id="paee613af40">
   <rect x="459.412" y="156.2464" width="301.32" height="130.464"/>
  </clipPath>
  <clipPath id="p53afa429f1">
   <rect x="459.412" y="308.88928" width="301.32" height="130.464"/>
  </clipPath>
  <clipPath id="padd9f52e5d">
   <rect x="211.66" y="317.152" width="234.36" height="130.464"/>
  </clipPath>
 </defs>
</svg>
