<?xml version="1.0" encoding="utf-8"?>
<!-- Generator: Adobe Illustrator 27.2.0, SVG Export Plug-In . SVG Version: 6.00 Build 0)  -->
<svg version="1.1" id="Layer_1" xmlns="http://www.w3.org/2000/svg" xmlns:xlink="http://www.w3.org/1999/xlink" x="0px" y="0px"
	 viewBox="0 0 130 80" style="enable-background:new 0 0 130 80;" xml:space="preserve">
<style type="text/css">
	.st0{fill:none;stroke:#000000;stroke-linecap:round;stroke-linejoin:round;stroke-miterlimit:10;}
	.st1{fill:#FFE096;stroke:#000000;stroke-linecap:round;stroke-linejoin:round;stroke-miterlimit:10;}
	.st2{fill:#FDC9DE;stroke:#000000;stroke-linecap:round;stroke-linejoin:round;stroke-miterlimit:10;}
	.st3{fill:#C8ECFD;stroke:#000000;stroke-linecap:round;stroke-linejoin:round;stroke-miterlimit:10;}
	.st4{fill:#FF87EB;stroke:#000000;stroke-linecap:round;stroke-linejoin:round;stroke-miterlimit:10;}
	.st5{fill:#FFB5F1;stroke:#000000;stroke-linecap:round;stroke-linejoin:round;stroke-miterlimit:10;}
	.st6{fill:#DAD8D8;stroke:#000000;stroke-linecap:round;stroke-linejoin:round;stroke-miterlimit:10;}
	.st7{fill:#70CEFF;stroke:#000000;stroke-linecap:round;stroke-linejoin:round;stroke-miterlimit:10;}
</style>
<g>
	<path class="st0" d="M65.2,1.3c-1.1,0-2-0.1-3,0.1c-0.5,0.1-1,0.1-1.5,0.2c-0.6,0.1-1.2,0.3-1.8,0.4c-0.7,0.2-1.3,0.2-2,0.4
		c-1.1,0.4-2.3,0.6-3.4,1.1c-0.9,0.4-1.7,0.8-2.6,1.1c-1.9,0.6-3.6,1.6-5.2,2.6c-1.1,0.7-2.2,1.3-3.3,2c-0.8,0.6-1.8,1-2.5,1.7
		c-1,1.1-2.1,2.1-3.1,3.2c-0.4,0.5-0.8,1.1-1.2,1.6c-0.5,0.6-1.1,1.2-1.6,1.9c-0.9,1.2-1.6,2.5-2.5,3.8c-0.3,0.4-0.5,0.9-0.7,1.4
		c-0.2,0.5-0.5,1-0.7,1.5c-0.5,1.1-0.9,2.3-1.3,3.5c-0.3,1.1-0.7,2.2-1.1,3.3c-0.6,1.3-1,2.7-1.3,4.1c-0.3,1-0.6,2.1-0.6,3.1
		c0,1.9,0.3,3.8,0.4,5.7c0.1,2.1,0.6,4.1,1.2,6.1c0.6,2.1,1.6,3.9,2.4,5.9c0.8,1.9,2.1,3.5,3.2,5.3c1,1.7,2,3.4,3.4,4.9
		c0.6,0.7,1.2,1.4,1.9,2.1c0.4,0.3,0.8,0.6,1.2,0.9c0.4,0.3,0.7,0.7,1,1.1c1.2,1.2,2.9,1.9,4.3,2.9c0.3,0.2,0.7,0.3,1.1,0.4
		c0.3,0.1,0.7,0.3,1,0.5c0.4,0.1,0.7,0.4,1,0.5c0.4,0.2,0.8,0.3,1.1,0.5c1.4,0.9,3,1.1,4.4,1.7c0.9,0.4,1.8,0.6,2.6,1
		c0.9,0.4,1.9,0.6,2.9,0.7c0.5,0.1,0.9,0.2,1.4,0.3c0.5,0.1,1.1,0,1.6,0.1c1,0.1,2,0.2,3,0.2c2.5,0,5-0.3,7.5-0.7
		c1-0.2,2-0.5,3.1-0.7c1.3-0.3,2.6-0.5,3.8-1c1.6-0.6,3.1-1.4,4.6-2.2c1.1-0.5,2.2-1.2,3.4-1.7c1.1-0.4,1.9-1.3,2.8-2
		c0.8-0.6,1.5-1.3,2.1-2.1c0.4-0.4,0.7-0.9,1.1-1.3c0.5-0.5,1-0.9,1.4-1.5c0.6-0.9,1.2-1.9,1.7-2.8c0.3-0.5,0.7-1,1-1.5
		c0.3-0.5,0.5-1.1,0.8-1.7c0.7-1.2,1.2-2.4,2-3.6c0.3-0.5,0.7-0.9,0.9-1.4c0.3-0.5,0.4-1.1,0.7-1.7c0.2-0.4,0.2-0.7,0.3-1.2
		c0.1-0.7,0.4-1.3,0.5-2c0.1-0.5,0.1-1,0.2-1.5c0.2-0.6,0.2-1.2,0.3-1.9c0.1-0.5,0.3-1,0.3-1.6c0.1-0.5,0-1,0.2-1.5
		c0.3-0.8,0.3-1.8,0.3-2.7c0-1,0.2-2,0.2-3c0-1.2,0-2.4-0.2-3.7c-0.1-0.3-0.2-0.6-0.3-0.9c-0.2-0.5-0.2-1-0.4-1.5
		c-0.3-0.8-0.5-1.7-0.8-2.5c-0.5-2-1.2-4-2.4-5.7c-0.4-0.7-0.8-1.3-1.2-1.9c-0.4-0.8-0.8-1.5-1.3-2.2c-1-1.5-2-3.2-3.2-4.5
		c-1-1.1-1.9-2.3-3-3.3c-0.6-0.6-1.4-1.2-2.1-1.7c-0.6-0.5-1.2-1-1.9-1.5c-0.3-0.2-0.7-0.5-1-0.7c-0.3-0.2-0.6-0.3-0.8-0.5
		c-0.5-0.4-1-0.7-1.6-0.9c-0.6-0.3-1.1-0.7-1.7-1.1c-0.7-0.5-1.7-0.8-2.5-1.1c-0.7-0.3-1.4-0.7-2.1-1c-0.7-0.3-1.4-0.4-2.1-0.6
		c-1.6-0.4-3.3-0.8-4.9-0.8c-0.6,0-1.3-0.2-1.9-0.2c-0.6-0.1-1.2,0-1.7,0C65.7,1.2,64.2,1.4,65.2,1.3z"/>
	<path class="st1" d="M50.9,15.3c-1,0-3.4,0.3-4.3,1c-0.2,0.2-0.4,0.4-0.6,0.6c-0.5,0.4-0.9,0.9-1.3,1.4c-0.8,1-1.3,1.9-1.4,3.2
		c-0.2,2.1,0.3,4.1,1.3,5.9c0.4,0.7,0.9,1.5,1.6,2c0.7,0.5,1.8,0.6,2.6,0.6c1.7,0.2,3.4,0.1,4.9-0.8c1.3-0.8,2.2-2.2,2.8-3.6
		c0.5-1.2,1-2.5,0.7-3.9c-0.2-1-0.7-2.2-1.2-3.1c-0.5-0.8-1.4-1.6-2.1-2.2C53.7,16.3,51.5,15.3,50.9,15.3z"/>
	<path class="st2" d="M78.1,58.5c-1.5-0.3-2.6-0.5-3.9,0.3c-0.3,0.2-0.6,0.5-1,0.7c-0.6,0.5-1.1,1-1.5,1.6c-0.8,1.2-1.3,2.3-1,3.7
		c0.3,1.3,0.9,2.5,1.9,3.3c0.9,0.8,2,1.5,3.2,1.5c0.6,0,1.3-0.2,1.9-0.3c0.7-0.1,1.4-0.1,2-0.5c1.1-0.6,2.4-1.8,2.8-3
		c0.3-0.8,0.2-1.9,0-2.7c-0.2-0.8-0.6-1.4-1.2-2c-0.4-0.4-0.8-0.8-1.3-1.2c-0.2-0.2-0.5-0.6-0.7-0.8C78.9,58.8,78.2,58.3,78.1,58.5z
		"/>
	<path class="st3" d="M93.3,37.8c-1.9-0.6-3.3-1.1-5.1-0.1c-0.5,0.3-0.9,0.7-1.4,1c-0.5,0.4-1,0.7-1.4,1.1c-1.2,1.4-1.4,3-1.2,4.8
		c0.1,1.6,0.6,2.9,1.7,4.1c0.5,0.5,1,1,1.6,1.5c0.5,0.4,1.4,0.4,2.1,0.4c0.8,0,1.7,0,2.4-0.4c0.8-0.4,1.5-0.7,2.3-1.1
		c1.3-0.6,2.2-1.9,2.7-3.2c0.4-1.3,0-2.4-0.2-3.6c-0.1-0.4-0.1-0.7-0.3-1.1c-0.2-0.3-0.4-0.7-0.7-1c-0.3-0.4-0.7-0.8-1-1.2
		C94.3,38.5,93.8,38,93.3,37.8z"/>
	<path class="st4" d="M37.3,44c-0.9,0.7-1.9,1.4-2.4,2.5c-0.1,0.2-0.1,0.4-0.2,0.6c-0.2,0.5-0.4,1-0.5,1.5C34,49.6,34,50.5,34,51.5
		c0,1.6,0.8,3.1,1.6,4.4c0.4,0.6,1,1.2,1.6,1.6c0.5,0.3,1,0.8,1.6,1.1c0.8,0.4,2,0.7,2.9,0.7c0.5,0,0.9,0,1.3-0.1
		c0.5-0.1,0.8-0.2,1.2-0.4c0.9-0.4,1.7-0.7,2.4-1.4c0.6-0.6,1.3-0.8,1.8-1.6c0.4-0.7,0.7-1.4,0.9-2.2c0.2-0.8,0.4-1.6,0.6-2.4
		c0.1-0.6,0.1-1.3,0.1-2c0-0.6-0.2-1.2-0.4-1.8c-0.2-0.6-0.4-1.2-0.6-1.7c-0.2-0.5-0.5-1-0.9-1.4c-0.4-0.4-0.9-0.6-1.3-0.8
		c-0.4-0.2-0.7-0.5-1.1-0.6c-0.6-0.1-1.1-0.2-1.7-0.3c-0.6-0.1-1.3-0.1-1.9-0.1c-0.6,0-1.1,0-1.6,0.1c-0.5,0.2-1,0.4-1.6,0.6
		C38.1,43.5,37.1,43.8,37.3,44z"/>
	<path class="st5" d="M83.8,11.5c-1.7-0.1-2.8-0.2-4.2,0.5c-0.6,0.3-1.2,0.6-1.7,1.1c-0.8,0.7-1.3,1.5-1.8,2.3
		c-1.2,1.8-1,4.2-0.4,6.1c0.8,2.9,4.7,6,8.2,4.4c1.3-0.6,2.6-1.1,3.7-2c0.9-0.8,1.8-1.8,2.1-2.9c0.3-1.1,0.5-2.3,0.3-3.4
		c-0.1-0.5-0.5-1-0.6-1.5c-0.2-0.6-0.3-1.1-0.7-1.6c-0.5-0.6-1-1.3-1.6-1.8C86.1,12.1,84.5,11,83.8,11.5z"/>
	<path class="st6" d="M79.5,22.6c-1.1,1.3-2.1,2.6-3.2,3.9c-0.4,0.5-0.9,0.9-1.3,1.4c-0.8,1-1.7,2.1-2.5,3.2
		c-1.3,1.5-2.5,3.1-3.7,4.6c-0.3,0.3-0.8,0.8-0.9,1.2c-0.1,0.3,0.2,0.7,0.4,1c0.3,0.4,0.8,0.9,1.2,1.2c0.2,0.2,0.7,0.4,1,0.3
		c0.4-0.1,0.6-0.6,0.8-0.9c0.4-0.9,0.9-1.7,1.4-2.5c0.6-1,1.4-1.8,2.1-2.8c0.5-0.7,1-1.4,1.5-2.1c0.5-0.6,1-1.3,1.5-1.9
		c0.4-0.5,0.6-1,1-1.4c0.5-0.7,1.1-1.4,1.6-2.1c0.4-0.6,1.1-1.3,1-2.1C81.3,22.6,80.1,21.9,79.5,22.6z"/>
	<path class="st6" d="M52.9,24.2c-0.5,0.1-1.4,0-1.8,0.5c-0.1,0.1-0.1,0.2-0.2,0.3c-0.1,0.2-0.2,0.4-0.3,0.6c-0.2,0.6,0.1,1,0.4,1.5
		c0.4,0.8,1,1.7,1.5,2.5c0.3,0.5,0.5,0.8,0.9,1.2c0.4,0.4,1.4,1.5,1.8,1.9c1.1,1,1.3,1.4,2.4,2.5c1,0.9,1.8,2,2.7,3
		c1,1,1.8,2.2,2.8,3.2c0.2,0.2,0.3,0.3,0.5,0.2c0.3,0,0.6-0.2,0.9-0.4c0.4-0.3,0.8-0.6,1.1-1c0.3-0.3,0.7-0.7,0.7-1.1
		c0-0.5-0.6-0.9-1-1.2c-1-0.9-1.8-2-2.7-3c-0.7-0.8-1.5-1.6-2.2-2.4c-0.3-0.3-0.6-0.7-0.9-1.1c-0.4-0.4-0.9-0.8-1.2-1.3
		c-1.1-1.3-1.9-2.3-3.3-3.6C54.4,25.9,53.9,24.1,52.9,24.2z"/>
	<path class="st6" d="M68.2,40.3c2.5,0.2,5.1,0.3,7.6,0.6C77,41,78.3,41,79.6,41c0.9,0,1.9,0,2.8,0.1c0.6,0.1,1.3,0.1,1.9,0.2
		c0.6,0.1,1.1,0.2,1.7,0.4c0.4,0.1,0.8,0.1,1.2,0.3c0.8,0.2,1.1,1.1,0.9,1.9C88,44.5,87.7,45,87,45.2c-0.4,0.1-0.8,0.1-1.2,0
		c-0.6-0.1-1.1-0.1-1.7-0.2c-0.7-0.1-1.3-0.4-2-0.6c-0.4-0.1-1-0.1-1.4-0.1c-0.4,0-0.9-0.1-1.3-0.1c-0.9-0.1-1.8-0.2-2.8-0.3
		c-0.8-0.1-1.6-0.1-2.4-0.1c-1.6-0.1-3.1-0.4-4.6-0.8C68.6,42.8,67.2,41.8,68.2,40.3z"/>
	<path class="st6" d="M64.7,44.5c-2.4,0.9-4.7,1.9-7.1,2.7c-1.2,0.4-2.3,1-3.5,1.4c-0.9,0.4-1.7,0.8-2.6,1.1
		c-0.6,0.2-1.2,0.4-1.8,0.6c-0.6,0.2-1.1,0.3-1.7,0.4c-0.4,0.1-0.8,0.2-1.2,0.3c-0.8,0.1-1.5-0.5-1.7-1.3c-0.1-0.7-0.1-1.2,0.4-1.7
		c0.3-0.3,0.7-0.4,1.1-0.5c0.5-0.2,1.1-0.4,1.6-0.6c0.7-0.2,1.4-0.3,2-0.4c0.5-0.1,0.9-0.3,1.4-0.5c0.4-0.2,0.8-0.3,1.3-0.5
		c0.9-0.3,1.8-0.6,2.6-0.9c0.7-0.3,1.4-0.6,2.2-0.9c1.5-0.6,2.9-1,4.5-1.3C63.2,42.4,64.9,42.7,64.7,44.5z"/>
	<path class="st6" d="M69,46.2c1.3,2,2.1,3.6,2.5,4.3c0.4,0.7,1.9,3.9,2.3,4.6c0.8,1.4,1.6,2.8,2.3,4.2c0.3,0.7,0.6,1.2,0.2,1.9
		C76,61.7,75.5,62,74.9,62c-0.6-0.1-1.3-0.6-1.5-1.2c-0.3-0.9-0.6-1.8-1.2-2.7c-0.3-0.5-0.5-1.1-0.8-1.6c-0.3-0.6-0.6-1.2-0.9-1.8
		c-0.5-1-1.1-1.9-1.5-2.8c-0.4-0.8-0.7-1.6-1.2-2.4c-0.3-0.5-0.7-0.9-0.9-1.5c-0.1-0.4-0.4-0.8-0.5-1.2c-0.1-0.4,0.1-0.7,0.3-1
		C67.1,45.6,68.5,45.4,69,46.2z"/>
	<path class="st7" d="M63.9,28.7c-0.3,0-0.6,0.2-0.8,0.2c-0.4,0.1-0.8,0.2-1.2,0.3c-1,0.4-2,0.9-2.8,1.6c-1.4,1.1-2.7,2.4-3.6,3.9
		c-0.8,1.3-1.1,2.7-1.3,4.2c-0.1,0.7-0.2,1.3-0.2,2c0,0.7,0.1,1.3,0.2,2c0.2,1.5,0.5,2.9,1.3,4.2c0.3,0.5,0.6,1.1,0.9,1.6
		c0.3,0.5,0.7,0.8,1.1,1.2c0.9,0.8,1.7,1.3,2.8,1.8c1.1,0.6,2.2,0.6,3.5,0.7c0.6,0.1,1.2,0.2,1.8,0.2c0.5,0,0.9-0.2,1.3-0.3
		c0.5-0.1,0.9-0.1,1.4-0.1c0.7-0.1,1.4-0.3,2.1-0.5c1.4-0.4,2.6-1.2,3.7-2.2c1-0.9,2-1.8,2.4-3c0.4-1.1,0.6-2.3,0.9-3.5
		c0.3-1.1,0.4-2.4,0.3-3.6c0-0.4-0.2-0.9-0.3-1.4c-0.1-0.5-0.4-0.8-0.6-1.3c-0.3-0.9-0.7-1.8-1.2-2.6c-0.3-0.5-0.8-0.9-1.2-1.3
		c-0.3-0.4-0.7-0.7-1.1-1c-0.9-0.7-2-1.3-2.9-1.9c-0.9-0.5-1.9-0.7-2.8-1c-0.4-0.1-0.7-0.1-1.1-0.2C65.3,28.5,64.9,28.5,63.9,28.7z"
		/>
	<path class="st0" d="M74.3,37.9c0.1,0.7,0.2,1.4,0.2,2.1c0,0.2,0,0.4,0,0.6c0,0.6-0.3,1.3-0.5,1.8c-0.5,1.3-1,2.6-1.8,3.7
		c-0.6,0.8-1.2,1.4-1.9,2c-0.6,0.5-1.3,0.8-2,1.2c-0.3,0.2-0.5,0.2-0.9,0.3c-0.4,0-1-0.1-1.4,0.1"/>
	<path class="st0" d="M87,15.9c0.3,0.7,0.6,1.2,0.5,1.9c0,0.3-0.1,0.5-0.2,0.8c-0.1,0.4-0.1,0.7-0.2,1.1c-0.1,0.7-0.6,1.4-1.1,1.9
		c-0.7,0.8-1.3,1.8-2.4,2.1"/>
	<path class="st0" d="M93.9,41.1c0.5,0.7,1,1.4,1,2.2c0,0.4-0.1,0.7-0.3,1.1c-0.1,0.4-0.2,0.8-0.5,1.1c-0.2,0.4-0.5,0.7-0.8,1.1
		c-0.4,0.4-0.9,1-1.4,1.2c-0.5,0.3-1,0.2-1.5,0.3"/>
	<path class="st0" d="M79.8,62.1c0.3,0.6,0.7,1.2,0.5,1.8c0,0.2-0.1,0.4-0.2,0.6c-0.1,0.4-0.3,0.7-0.5,1c-0.3,0.5-0.6,1-1,1.3
		c-0.3,0.2-0.5,0.5-0.9,0.5c-0.5,0.1-0.9,0.1-1.4,0.2"/>
	<path class="st0" d="M46.9,52.7c-0.8,1.6-1.9,3.3-3.7,3.9c-1,0.3-2,0.4-2.9-0.2"/>
	<path class="st0" d="M54.3,21.1c0.3,0.7,0.7,1.3,0.5,2.1c-0.1,0.3-0.2,0.5-0.3,0.8c-0.2,0.3-0.4,0.7-0.6,1"/>
	<path class="st0" d="M47.3,26.5c0.4,0.3,0.8,0.8,1.2,1c0.2,0,0.3,0.1,0.5,0.1c0.1,0.1,0.3,0.1,0.4,0.1c0.3,0,0.6,0.1,1,0.1
		c0.3,0,0.4-0.3,0.7-0.4"/>
</g>
</svg>
