<?xml version="1.0" encoding="utf-8"?>
<!-- Generator: Adobe Illustrator 27.2.0, SVG Export Plug-In . SVG Version: 6.00 Build 0)  -->
<svg version="1.1" id="Layer_1" xmlns="http://www.w3.org/2000/svg" xmlns:xlink="http://www.w3.org/1999/xlink" x="0px" y="0px"
	 viewBox="0 0 130 80" style="enable-background:new 0 0 130 80;" xml:space="preserve">
<style type="text/css">
	.st0{fill:#FFE096;stroke:#000000;stroke-linecap:round;stroke-linejoin:round;stroke-miterlimit:10;}
	.st1{fill:#F0EEEF;stroke:#000000;stroke-linecap:round;stroke-linejoin:round;stroke-miterlimit:10;}
	.st2{fill:#FFFFFF;stroke:#000000;stroke-linecap:round;stroke-linejoin:round;stroke-miterlimit:10;}
	.st3{fill:#FFB5F1;stroke:#000000;stroke-linecap:round;stroke-linejoin:round;stroke-miterlimit:10;}
	.st4{fill:#BCBABA;stroke:#000000;stroke-linecap:round;stroke-linejoin:round;stroke-miterlimit:10;stroke-dasharray:0,0,0,0,0,0;}
	.st5{fill:#70CEFF;stroke:#000000;stroke-linecap:round;stroke-linejoin:round;stroke-miterlimit:10;stroke-dasharray:0,0,0,0,0,0;}
	.st6{fill:none;stroke:#000000;stroke-linecap:round;stroke-linejoin:round;stroke-miterlimit:10;}
	.st7{fill:#ACE3FF;stroke:#000000;stroke-linecap:round;stroke-linejoin:round;stroke-miterlimit:10;}
	.st8{fill:#FF87EB;stroke:#000000;stroke-linecap:round;stroke-linejoin:round;stroke-miterlimit:10;stroke-dasharray:0,0,0,0,0,0;}
	.st9{fill:#70CEFF;}
	.st10{fill:#FFE096;}
	.st11{fill:#FF87EB;}
</style>
<g>
	<path class="st0" d="M11.9,67.1c-0.3-2.3-0.7-4.5-0.8-6.8c-0.1-1.3,0-2.6,0-4c0-1.6-0.1-3.1,0.1-4.7c0.1-1.1,0.2-2.1,0.3-3.2
		c0-1.2-0.1-2.3-0.1-3.5c0-1.3,0-2.6,0-3.9c0-1.1-0.2-2.2-0.2-3.3c0-1.2,0.1-2.5,0.1-3.7c0-1.4-0.2-2.7-0.2-4c0-1.6,0.1-3.2,0-4.8
		c-0.1-1.2-0.1-2.3-0.1-3.5c0-1.1,0.1-2.1,0.1-3.2c0-1.5,0-3,0.1-4.4c0-0.6,0-1.2,0.1-1.7c0-0.9-0.3-1.9-0.1-2.8
		c0.4,0,0.9,0,1.3,0.1c0.9,0.1,1.8,0,2.7,0c4-0.2,7.9-0.1,11.9,0c2.3,0.1,4.6,0.1,6.9,0.1c4.7,0.1,9.4-0.3,14.1-0.4
		c2.2,0,4.3,0,6.5,0c1.7,0,3.5,0.2,5.2,0.2c2.5,0,5.1-0.1,7.6,0c1.9,0,3.7,0.1,5.6,0c1.4,0,2.8-0.1,4.3-0.1c2.7,0,5.4,0.3,8.1,0.5
		c3,0.2,6,0.4,9,0.5c1.8,0.1,3.6,0.1,5.5,0.1c1.2,0,2.3-0.1,3.5-0.2c2.4-0.1,4.7,0,7.1,0c1.2,0,2.5,0,3.7-0.1c0.6,0,1.1,0,1.7-0.2
		c0.4-0.1,0.9-0.3,1.3-0.4c0.2,0,0.8-0.2,1-0.1c0.6,0.2,0.7,1.4,0.8,1.9c0.2,1.2,0.2,2.3,0.2,3.5c0,0.9,0,1.8,0,2.7
		c0,1.5-0.2,3-0.2,4.5c0,1,0.1,2,0.1,3c0,0.9-0.1,1.7-0.1,2.6c0,1.7,0.1,3.3,0.1,5c0,1.4-0.1,2.9,0,4.3c0,0.8,0.1,1.6,0.1,2.4
		c0,1.4-0.1,2.8-0.1,4.2c0,1.1,0.1,2.2,0,3.3c0,1.1-0.1,2.2-0.1,3.2c0,1.7,0,3.4,0,5.1c0,1.7-0.2,3.3-0.4,4.9
		c-0.1,1.5-0.1,3-0.3,4.5c-0.1,0.7-0.2,1.4-0.4,2.1c0,0.1-0.1,0.4-0.2,0.5c-0.1,0.1-0.7,0.1-0.8,0.1c-0.2,0-0.4-0.1-0.6-0.1
		c-0.5,0-1,0.2-1.5,0.2c-0.4,0-0.8,0-1.2,0c-1,0-1.9,0-2.9,0.1c-2.7,0.3-5.5,0.3-8.2,0.3c-2,0-4,0.1-6,0c-3.7-0.1-7.5-0.3-11.2-0.2
		c-4.8,0.1-9.5,0.3-14.2,0.6c-3.5,0.2-7.1,0.2-10.6,0.2c-1.9,0-3.8,0-5.7-0.1c-2.6-0.2-5.2-0.6-7.8-0.8c-3.3-0.2-6.7-0.3-10-0.2
		c-2.9,0.1-5.7,0.2-8.6,0.1c-1.2,0-2.4,0-3.5,0c-0.6,0-1.1,0.1-1.7,0.1c-1.3,0-2.7-0.1-4-0.1c-1.9-0.1-3.9,0-5.8-0.2
		C12.7,67.3,12.3,67.3,11.9,67.1C11.8,67.2,11.7,67.1,11.9,67.1z"/>
	<path class="st1" d="M115.2,13.4c-4.4,0.1-8.7,0.3-13.1,0.3c-1.4,0-2.8,0-4.3-0.1c-2-0.1-4.1-0.4-6.1-0.5c-2-0.1-4-0.1-6.1-0.1
		c-5,0-10-0.4-15.1-0.3c-2.1,0-4.3,0.1-6.4,0.1c-2.3,0-4.5,0-6.8-0.1c-4.3-0.1-8.6-0.3-12.9-0.2c-2.5,0-4.9,0-7.4,0.2
		c-2,0.1-4,0.1-6,0.1c-2.2,0-4.4,0.1-6.6,0c-1.4,0-2.7-0.1-4.1-0.1c-1.7,0-3.4,0.1-5.1,0.1c-0.1,0-0.3,0-0.4,0.1
		c-0.1,0.1,0,0.9,0,0.7c0,0.5,0,0.9,0,1.4c0,1.7-0.1,3.4-0.2,5.1c-0.1,1.7,0,3.4,0.1,5.1c0.1,2.6-0.2,5.2,0,7.8c0.1,1.2,0,2.4,0,3.6
		c0,1.1,0.2,2.2,0.2,3.3c0,1.2,0,2.5,0,3.7c0.1,1.7,0.2,3.3,0.2,5c0,2.3,0,4.6,0.1,6.9c0,1.9,0.1,3.8,0.1,5.8c0,0.9,0,1.8,0,2.7
		c0,0.9,0.2,1.7,0.2,2.5c0,0.4-0.1,0.7,0.2,1c0.6,0.6,2,0.4,2.7,0.4c1.6,0,3.2,0,4.8-0.1c1.8-0.1,3.7-0.1,5.5-0.1
		c5.8-0.1,11.6,0.1,17.5,0.2c6.9,0.1,13.8-0.1,20.7-0.4c4.6-0.2,9.2,0.1,13.8,0c3.7-0.1,7.3,0,11-0.1c2.5,0,4.9-0.2,7.4-0.3
		c4-0.1,8.1,0.1,12.1,0.2c0.6,0,1.1-0.2,1.7-0.3c0.6-0.2,1.2-0.2,1.8-0.4c0.8-0.2,0.6-1.3,0.5-1.9c-0.1-1.2-0.1-2.5-0.2-3.7
		c0-0.7-0.1-1.4-0.1-2.2c0-0.8-0.2-1.6-0.3-2.5c-0.4-3.9-0.5-7.8-0.6-11.7c0-1.7-0.2-3.5-0.1-5.3c0-1.2,0-2.4,0.1-3.6
		c0.2-1.8,0.3-3.5,0.4-5.3c0-1.5-0.1-3,0.1-4.5c0.1-0.9,0.2-1.7,0.2-2.6c0-1.2,0.1-2.5,0.1-3.7c0-1.4,0.4-2.8,0.3-4.2
		C115.3,15.2,115.4,13.6,115.2,13.4z"/>
	<path class="st2" d="M37.3,61.3c-1.2,0.1-2.3,0.2-3.5,0.2c-1.3,0-2.5-0.1-3.8-0.1c-1.9,0-3.9,0-5.8,0.1c-1.4,0.1-2.9,0-4.4,0.1
		c-0.3,0-0.7,0-1,0.2c-0.3,0.2-0.7,0.5-0.9,0.8c-0.3,0.7-0.2,1.4-0.2,2.1c0,0.4,0,0.8,0.1,1.2c0.1,0.3,0.2,0.4,0.5,0.5
		c0.4,0.1,0.9,0.1,1.4,0.1c0.9,0.1,1.7,0,2.6,0c2,0,4.1,0,6.1-0.1c2,0,4-0.1,6-0.1c0.9,0,1.8-0.2,2.7-0.2c0.5,0,1,0,1.5-0.1
		c0.3-0.1,0.3-0.1,0.5-0.4c0.4-0.8,0.5-1.6,0.4-2.5c-0.2-0.8-0.6-1.2-1.3-1.5c-0.2-0.1-0.4-0.1-0.6-0.2
		C37.3,61.2,37.1,61.4,37.3,61.3z"/>
	<path class="st3" d="M28.9,61.3c0.3,0.9,0.6,1.8,0.6,2.7c0,0.3,0,0.7-0.1,1.1c0,0.4-0.2,0.8-0.3,1.2c0.2,0.2,0.6,0.2,1.4,0.1
		c0.6,0,1.3,0,1.9,0c0.1,0,0.2,0,0.2-0.1c0.3-0.4,0.3-1,0.3-1.5c0-1-0.1-1.9-0.5-2.8c-0.1-0.3-0.1-0.4-0.4-0.4c-0.3,0-0.6,0-1,0
		c-0.5,0-1,0-1.4,0C29.5,61.5,29.3,61.5,28.9,61.3z"/>
	<path class="st4" d="M91.1,59.7c0.2,0.7,0.4,1.4,0.5,2.1c0.1,0.5,0.1,0.9,0.2,1.3c0.1,0.5,0.3,0.9,0.4,1.4c0.1,0.5,0.3,1,0.4,1.5
		c0.1,0.2,0.1,0.4,0.2,0.6c0,0.1,0.1,0.3,0.1,0.4c0,0.2-0.3,0.2-0.5,0.2c-0.5,0-1-0.1-1.5-0.1c-0.3,0-0.7,0-1,0
		c-0.4,0-0.8-0.1-1.2-0.1c-0.6,0-1.2,0-1.8,0c-0.8,0-1.7-0.1-2.5-0.1c-0.8,0-1.6,0-2.4,0c-0.4,0-0.7-0.1-1.1-0.1c-0.3,0-0.7,0-1,0.1
		c-0.6,0-1.2,0-1.8,0c-0.5,0-1,0.1-1.5,0.2c-0.7,0.1-1.4,0.2-2.1,0.2c-0.4,0-0.7,0-1.1,0c-0.4,0-0.7,0-1.1,0c-0.3,0-0.6,0-1,0
		c-0.2,0-0.4,0.1-0.6,0.1c0.1-0.2,0.2-0.5,0.2-0.7c0.1-0.4,0.2-0.7,0.3-1.1c0.1-0.4,0.1-0.8,0.2-1.2c0.1-0.3,0.2-0.7,0.3-1
		c0.1-0.4,0.2-0.7,0.3-1.1c0.1-0.3,0.1-0.7,0.2-1c0.2-0.5,0-1.2,0.5-1.6c0.1,0,0.1-0.2,0.2-0.2c0.1-0.1,0.1,0,0.2,0
		c0.2,0,0.4,0,0.6,0c0.9,0.1,1.8,0.1,2.7,0.1c0.6,0,1.2-0.1,1.7-0.1c0.3,0,0.6,0,1,0c0.4,0,0.7-0.1,1.1-0.1c0.7,0,1.4,0,2-0.1
		c0.7,0,1.5-0.1,2.2-0.1c1.3,0,2.7,0.1,4,0.3c0.6,0.1,1.2,0.1,1.7,0.3C90.6,59.5,90.9,59.6,91.1,59.7z"/>
	<path class="st5" d="M85,57.4c-0.8,0-1,0-1.8-0.1c-0.5,0-1.4-0.1-1.9-0.1c-0.7,0.1-1.8-0.1-2.6-0.1c-1.2,0-1.4-0.2-2.6-0.1
		c-0.8,0.1-1.5,0-2.3,0.1c-0.7,0.1-1.2,0.2-1.6,0.6c-0.2,0.2-0.4,0.4-0.5,0.7c-0.1,0.3-0.1,0.6-0.1,0.8c0,0.3,0,0.5,0.3,0.6
		c0.4,0.2,1,0.1,1.4,0.1c0.6,0,1.2,0,1.8-0.1c0.9-0.1,1.8,0,2.8,0.1c0.4,0,0.7,0,1.1,0c0.6,0,1.2,0,1.8,0.1c0.9,0.1,2.2-0.1,3.1-0.1
		c1.2,0,2.8,0.2,3.9,0.2c1.4,0,2.7,0.2,4.1,0c0.5-0.1,0.4-1.2,0.1-2.1c-0.1-0.3-1-0.6-1.2-0.6c-0.1-0.1-1.2-0.1-1.3-0.1
		c-0.1-0.1-1.8-0.1-1.9-0.1C87.1,57.2,86.5,57.4,85,57.4z"/>
	<path class="st6" d="M41.6,43.4c0.2-0.1,0.1-0.7,0.1-0.8c0-0.4,0-0.8,0-1.2c0-0.5,0-0.9,0-1.4c0-0.4,0-0.8,0-1.2
		c0-1.3,0-2.5-0.2-3.8c1-0.1,2-0.1,3,0c0.4,0,0.8,0.1,1.1,0.4c0.3,0.3,0.6,0.7,0.7,1.2c0.2,0.8,0,1.7-0.7,2.2
		c-0.6,0.4-1.4,0.4-2.1,0.5c-0.5,0.1-1.1,0.3-1.6,0.2"/>
	<path class="st6" d="M53.2,34.9c-1.3,0.2-2.7,0.4-4,0.4c-0.3,0-0.4-0.1-0.4,0.2c-0.1,0.6,0.1,1.3,0.2,1.9c0.1,0.4,0.1,0.9,0.1,1.3
		c0.1,0.9,0,1.8,0,2.7c0,0.6-0.1,1.2-0.1,1.8c0,0.1,0,0.2,0.1,0.3c0.2,0.1,0.4-0.1,0.6-0.1c0.8-0.2,1.7-0.1,2.6-0.1
		c0.3,0,0.6,0,0.9-0.1"/>
	<path class="st6" d="M49,38.9c0.7,0.1,1.5,0.2,2.2,0.2c0.2,0,0.3,0,0.5,0c0.3,0,0.5,0,0.8,0"/>
	<path class="st6" d="M56,42.7c0.1-1.4,0.3-2.8,0.3-4.1c0-0.5-0.1-1-0.1-1.5c0-0.4,0-0.8,0-1.3c0-0.2-0.1-0.6-0.1-0.7
		c0.5,0.9,1,1.8,1.6,2.6c0.4,0.5,0.7,1.1,1.2,1.5c0.2,0.3,0.5,0.5,0.7,0.8c0.5,0.6,1,1.1,1.5,1.7c0.3,0.4,0.6,0.9,0.8,1.4
		C62,42.6,62,42,62,41.5c0-1,0-2.1-0.1-3.1c0-0.8-0.1-1.6-0.1-2.4c0-0.4,0.1-0.8,0.1-1.2c0,0,0,0.1,0,0.1"/>
	<path class="st6" d="M64.5,42.8c0.1-1.5,0.1-3,0.2-4.4c0-0.5,0-0.9,0-1.4c0-0.4-0.1-0.8-0.1-1.1c0-0.2-0.1-0.5-0.1-0.7
		c0.6,0.8,1,1.7,1.6,2.6c0.3,0.5,0.6,0.9,1,1.4c0.3,0.3,0.5,0.7,0.7,1.1c0.8,0.9,1.7,1.8,2.4,2.8c0.1-0.9,0-1.7,0-2.6
		c0-0.9,0-1.9,0-2.8c0-0.4,0-0.9-0.1-1.3c0-0.3-0.1-0.5-0.1-0.8c0-0.3,0.1-0.7,0-1c0,0,0,0.1-0.1,0.1"/>
	<path class="st6" d="M72.1,34.7c0.5,0.6,1,1.2,1.6,1.8c0.3,0.3,0.6,0.6,0.7,0.9c0.1,0.2,0.2,0.5,0.4,0.7c0.2,0.3,0.4,0.5,0.6,0.8
		c0.1,0,0.2-0.1,0.2-0.3c0.2-0.3,0.3-0.6,0.5-0.9c0.3-0.5,0.5-1.1,0.8-1.6c0.2-0.3,0.3-0.5,0.5-0.8c0.1-0.1,0.5-0.5,0.4-0.7"/>
	<path class="st6" d="M75.3,42.9c0.1-1,0.1-2,0-3c0-0.4,0-0.7,0-1"/>
	<path class="st6" d="M79.8,34.7c0.2,1.5,0.3,2.9,0.3,4.4c0,0.6,0,1.1,0,1.7c0,0.4,0,0.9,0,1.3c0,0.1-0.1,0.6,0,0.7
		c0.7-0.1,1.5,0,2.2-0.1c0.3,0,0.7-0.1,1-0.1c0.2,0,0.5-0.1,0.7-0.1c0.1-0.1,0.2,0,0.3,0"/>
	<g>
		<path class="st2" d="M110.3,61.7c-2.4,0-4.9,0.2-7.3-0.2c-0.8-0.1-1.6-0.2-2.4-0.2c-1.4-0.1-2.9-0.1-4.3-0.1
			c-0.8,0-1.7,0.1-2.5,0.1c-0.5,0-0.9,0-1.4,0.1c-0.5,0.1-1,0.1-1.4,0.4c-0.6,0.5-0.7,1.2-0.8,1.9c-0.1,0.7-0.5,2.1,0.3,2.6
			c0.6,0.3,1.4,0.3,2.1,0.4c0.8,0.1,1.6,0.2,2.5,0.2c1.2,0,2.4,0.2,3.6,0.2c2.5,0,4.9,0.1,7.4,0c1.2,0,2.3-0.2,3.5-0.4
			c0.9-0.2,1.9-0.2,2.4-1.1c0.3-0.6,0.2-1.3,0.2-1.9c-0.1-0.5-0.1-1.2-0.5-1.6C111.1,61.8,110.4,61.6,110.3,61.7z"/>
		<path class="st7" d="M94.5,61.2c0.1,0.8,0.5,2.2,0.4,3.2c0,0.3-0.2,0.8-0.1,1.2c0.1,0.7,1.3,0.7,1.8,0.8c0.6,0,1.2,0,1.7,0
			c0.3,0,0.6,0,0.8-0.2c0.6-0.7,0.5-2,0.4-2.8c-0.1-0.5-0.2-0.9-0.4-1.3c-0.1-0.2-0.1-0.6-0.3-0.7c-0.3-0.2-0.8-0.1-1.1-0.2
			c-0.4,0-0.7-0.1-1.1-0.1C96.3,61.1,94.4,60.6,94.5,61.2z"/>
	</g>
	<path class="st6" d="M86.5,42.7c0.5-1.1,0.9-2.2,1.3-3.3c0.1-0.4,0.2-0.9,0.4-1.3c0.2-0.4,0.3-0.9,0.5-1.3c0.1-0.4,0.2-0.8,0.3-1.2
		c0-0.1,0-0.4,0.1-0.5c0.1,0,0.2,0.1,0.2,0.3c0.1,0.2,0.2,0.4,0.3,0.7c0.2,0.3,0.4,0.6,0.6,1c0.3,0.4,0.5,0.9,0.8,1.4
		c0.2,0.3,0.4,0.7,0.6,1.1c0.3,0.6,0.5,1.3,0.8,1.9c0.2,0.3,0.3,0.6,0.5,1c0.1,0.2,0.2,0.4,0.2,0.6"/>
	<path class="st0" d="M120.9,65.4c-5,0.1-10.1,0.3-15.1,0.1c-2.7-0.1-5.3-0.2-8-0.2c-3.9,0-7.7-0.1-11.5-0.3
		c-5.6-0.3-11.2,0.3-16.7,0.2C64.2,65.1,58.8,65,53.4,65c-5.4,0-10.7-0.2-16.1,0c-2,0.1-4,0.2-6.1,0.2c-2.1,0-4.3-0.1-6.4,0
		c-3.1,0.1-6.3,0-9.5,0.2c-1.6,0.1-3.1,0.1-4.7,0.2c-0.9,0-1.9-0.2-2.7,0.4c-0.7,0.5-1,1.3-0.6,2c0.6,1.5,2.1,2.3,3.6,2.4
		c1.3,0.2,2.7,0.1,4,0c1.9-0.1,3.8,0,5.7,0c3.2,0,6.4,0,9.6-0.1c4.2-0.1,8.4,0,12.6,0.1c1.7,0,3.4,0,5.1,0c1.4-0.1,2.9-0.2,4.3-0.2
		c1.6,0,3.1,0.2,4.7,0.3c2.3,0.1,4.6,0,6.9,0.1c1.4,0,2.8,0,4.1,0c1.6,0,3.2,0.1,4.8,0.1c2.8,0,5.5-0.4,8.3-0.6
		c2.1-0.1,4.3-0.1,6.5,0c5.2,0.3,10.4-0.2,15.5-0.3c2.5-0.1,4.9-0.1,7.4-0.1c1.3,0,2.6,0.1,3.9,0.1c1.1,0,2.2,0,3.4-0.1
		c0.9-0.1,1.9-0.1,2.8-0.4c0.5-0.2,1-0.3,1.4-0.6c0.5-0.3,0.7-0.9,0.9-1.4C123.2,65.9,121.6,65.3,120.9,65.4z"/>
	<path class="st6" d="M95.3,42.6c0.1-1.2,0.3-2.5,0.3-3.7c0-0.5,0-1,0-1.5c0-0.7,0-1.5-0.2-2.2c0.1,0.3,0.4,0.6,0.6,0.8
		c0.3,0.4,0.6,0.8,0.9,1.2c0.9,1.2,1.8,2.4,2.7,3.6c0.3,0.4,0.6,0.8,0.8,1.2c0.1,0.2,0.2,0.4,0.3,0.6c0.1,0.1,0.2,0.4,0.3,0.5
		c0.2-0.7,0.1-1.5,0-2.2c0-1.2,0-2.3-0.1-3.5c0-0.5,0-0.9,0-1.4c0-0.3-0.1-0.8,0.1-1.1"/>
	<path class="st6" d="M108.6,35.1c-1.3,0-2.6-0.1-3.9-0.1c-0.2,0-0.3,0-0.5,0c-0.1,0-0.1,0-0.2,0c0,0.7,0,1.3,0,2c0,1.1,0,2.3,0,3.4
		c0,0.5,0,0.9,0,1.4c0,0.3,0.1,0.5,0,0.8c0.1,0,0.1,0.1,0.2,0c0.3,0,0.6,0,0.9,0c0.5,0,0.9,0.1,1.4,0c0.4,0,0.7-0.1,1.1-0.1
		c0.2,0,0.5,0.1,0.7,0.1"/>
	<path class="st6" d="M104,38.6c0.8,0.1,1.7,0.3,2.6,0.2c0.2,0,0.4,0,0.6,0c0.1,0,0.4,0.1,0.5,0"/>
	<path class="st8" d="M75.7,62.2c-0.1,0.6-0.2,1.1-0.5,1.7c-0.1,0.2-0.2,0.3-0.3,0.5c0,0.1-0.2,0.3-0.2,0.4"/>
	<path class="st8" d="M79.8,62c-0.1,0.3-0.1,0.5-0.2,0.8c0,0.1,0,0.2,0,0.3c0,0.2-0.1,0.3-0.1,0.5c0,0.1-0.1,0.2-0.1,0.3
		c0,0.2,0,0.4-0.1,0.6"/>
	<path class="st8" d="M83.3,62.3c0,0.3,0,0.6,0,1c0,0.1,0,0.2,0,0.3c0,0.2,0,0.3,0,0.5c0,0.1,0,0.2,0,0.3c0,0.1,0,0.2,0,0.3"/>
	<path class="st8" d="M87,62.1c0.1,0.5,0.2,1,0.2,1.5c0,0.2,0,0.4,0,0.6c0,0.1,0,0.2,0.1,0.3c0,0.1,0,0.2,0,0.3"/>
	<g>
		<g>
			<path class="st9" d="M29.8,46c-0.2,0-0.4-0.1-0.6-0.1c-0.4-0.1-0.7-0.3-1.1-0.5c-0.3-0.2-0.6-0.3-0.7-0.7
				c-0.1-0.3-0.2-0.6-0.3-0.9c-0.2-0.9-0.2-1.7-0.1-2.6c0.1-0.4,0.1-0.9,0.1-1.3c0,0,0,0,0-0.1c-0.2-0.3-0.3-0.7-0.5-1
				c-0.3-0.6-0.6-1.1-0.9-1.7c-0.1-0.2-0.3-0.5-0.4-0.7c-0.3-0.2-0.6-0.4-0.8-0.6c-0.2-0.2-0.4-0.3-0.6-0.4
				c-0.3-0.2-0.6-0.3-0.9-0.6c-0.4-0.3-0.8-0.5-1-0.9c-0.4-0.6,0-1.4,0.2-2c0.1-0.2,0.1-0.3,0.2-0.4c0,0,0,0,0-0.1
				c-0.4-0.4-1.1-0.4-1.6-0.2c-0.7,0.3-1.5,0.5-1.6,1.4c-0.1,0.5,0.2,0.9,0.4,1.3c0.3,0.6,0.5,1.1,0.8,1.7c0.3,0.5,0.6,1,0.9,1.6
				c0.4,0.8,0.8,1.6,1.2,2.4c0.3,0.7,0.6,1.5,1,2.2c0.4,0.8,0.7,1.5,1.1,2.2c0.4,0.7,0.8,1.3,1.1,1.9c0.2,0.4,0.4,0.7,0.6,1.1
				c0.1,0.2,0.2,0.4,0.4,0.5c0.4,0.4,1,0.9,1.6,0.9c0.2,0,0.4-0.1,0.5-0.1c0.2,0,0.5-0.1,0.7-0.2c0.2-0.1,0.3-0.3,0.4-0.4
				c0.3-0.4,0.4-0.8,0.4-1c0-0.2-0.1-0.5-0.1-0.7c0,0,0,0-0.1,0C30,46,29.9,46,29.8,46z"/>
			<path class="st9" d="M34.8,31.2c-1.1,0.1-2.2,0-3.4,0c-1.1,0-2.2,0.1-3.3,0.1c-0.7,0-1.4,0.1-2.1,0.5c0,0,0,0,0,0
				c0.1,0.1,0.3,0.2,0.4,0.3c0.7,0.5,1.4,1.1,2.1,1.7c0.3,0.3,0.5,0.5,0.7,0.8c0,0,0,0,0,0c0.1,0,0.2,0,0.4,0c0.6,0,1.3,0,1.9,0
				c0.2,0,0.5,0,0.7,0c0.3,0.1,0.3,0.2,0.4,0.4c0,0.3-0.2,0.6-0.4,0.8c-0.2,0.2-0.2,0.3-0.3,0.6c-0.1,0.3-0.4,0.5-0.5,0.8
				c0,0,0,0,0,0.1c0,0.1,0,0.3,0,0.4c0,0.3,0,0.5-0.1,0.8c0,0.3,0,0.6,0,0.9c0,0.6,0,1.2,0.1,1.8c0,0.4,0,0.9,0,1.3c0,0,0,0,0,0
				c0.3-0.1,0.6-0.2,0.8-0.5c0.4-0.4,0.6-0.8,0.9-1.3c0.3-0.5,0.6-0.9,1-1.4c0.6-0.9,1.1-1.8,1.7-2.8c0.2-0.4,0.5-0.8,0.7-1.2
				c0.2-0.4,0.5-0.7,0.7-1.1c0.2-0.3,0.4-0.6,0.5-0.9c0-0.1,0.1-0.2,0.1-0.3C37.9,32.9,37.8,31.1,34.8,31.2z"/>
			<path class="st10" d="M30.6,42.4c-0.6-0.2-1-0.8-1.1-1.4c0-0.3-0.1-0.7,0-1c0.1-0.3,0.2-0.5,0.3-0.8c0.2-0.3,0.4-0.5,0.6-0.8
				c0.2-0.2,0.4-0.5,0.6-0.7c0.1-0.2,0.2-0.3,0.3-0.5c0-0.1,0-0.1,0-0.2c-0.1-0.3-0.3-0.6-0.3-0.7c-0.3-0.4-0.6-0.7-0.9-1
				c-0.1-0.1-0.2-0.2-0.3-0.3c-0.1-0.1-0.3-0.3-0.5-0.4c-0.4,0-0.7,0.1-1.1,0.1c-0.7,0-1.3-0.1-1.9-0.4c-0.3-0.1-0.7-0.3-0.8-0.6
				c-0.1-0.2-0.2-0.6-0.2-0.8c0-0.5,0.4-0.8,0.7-1.1c-0.4-0.3-0.7-0.6-1.1-0.8c-0.2-0.1-0.4-0.2-0.7-0.2c-0.3,0-0.7,0-1.1,0.1
				c-0.4,0.1-0.6,0.4-0.9,0.7c0,0,0,0.1-0.1,0.1c0.3,0.3,0.5,0.7,0.7,1c0.2,0.4,0.5,0.7,0.7,1.1c0.2,0.4,0.5,0.8,0.7,1.2
				c0.1,0.1,0.1,0.3,0.2,0.4c0.2,0.3,0.3,0.6,0.5,0.9c0.1,0.1,0.1,0.2,0.2,0.3c0.1,0,0.1,0.1,0.2,0.1c0.3,0.1,0.5,0.3,0.8,0.5
				c0.2,0.1,0.4,0.2,0.5,0.4c0.3,0.3,0.4,0.6,0.4,1c0.1,0.5,0,1,0,1.4c0,0.1,0,0.1,0,0.2c0.2,0.3,0.4,0.7,0.6,1
				c0.3,0.5,0.5,0.9,0.7,1.4c0.3,0.6,0.6,1.2,1,1.8c0.1,0.2,0.3,0.4,0.4,0.6c0.2,0.3,0.3,0.7,0.3,1.2c0.7-0.2,1-0.8,1.1-1.5
				c0.1-0.6,0.1-1.3,0.1-1.9C31.1,42.5,30.9,42.5,30.6,42.4z"/>
			<path class="st11" d="M21.8,33.9c0.3,0.4,0.7,0.6,1,0.9c0.3,0.2,0.6,0.4,0.9,0.6c0.2,0.1,0.4,0.3,0.6,0.4
				c0.3,0.2,0.5,0.4,0.8,0.6c-0.1-0.1-0.1-0.2-0.2-0.3c-0.2-0.3-0.3-0.6-0.5-0.9c-0.1-0.1-0.1-0.3-0.2-0.4c-0.2-0.4-0.4-0.8-0.7-1.2
				c-0.2-0.4-0.5-0.7-0.7-1.1c-0.2-0.3-0.4-0.7-0.7-1c-0.1,0.1-0.2,0.2-0.2,0.4C21.8,32.5,21.4,33.4,21.8,33.9z"/>
			<path class="st11" d="M29.4,44.2c-0.4-0.6-0.7-1.2-1-1.8c-0.2-0.5-0.5-0.9-0.7-1.4c-0.2-0.3-0.4-0.7-0.6-1c0,0.4,0,0.9-0.1,1.3
				c-0.1,0.9-0.2,1.8,0.1,2.6c0.1,0.3,0.1,0.6,0.3,0.9c0.1,0.3,0.4,0.5,0.7,0.7c0.3,0.2,0.7,0.3,1.1,0.5c0.2,0.1,0.4,0.1,0.6,0.1
				c0.1,0,0.2-0.1,0.3-0.1c0,0,0,0,0.1,0c0-0.4-0.1-0.8-0.3-1.2C29.7,44.6,29.5,44.4,29.4,44.2z"/>
			<path class="st11" d="M25.3,32.9c0,0.3,0.1,0.6,0.2,0.8c0.2,0.3,0.5,0.5,0.8,0.6c0.6,0.3,1.3,0.3,1.9,0.4c0.4,0,0.7,0,1.1-0.1
				c0,0,0,0,0,0c-0.3-0.3-0.5-0.5-0.7-0.8c-0.6-0.6-1.3-1.2-2.1-1.7c-0.1-0.1-0.3-0.2-0.4-0.3C25.6,32,25.3,32.4,25.3,32.9z"/>
			<path class="st11" d="M31.3,39.4c0-0.3,0-0.6,0-0.9c0-0.3,0-0.5,0.1-0.8c0-0.1,0-0.3,0-0.4c-0.1,0.2-0.2,0.3-0.3,0.5
				c-0.2,0.2-0.3,0.5-0.6,0.7c-0.2,0.2-0.5,0.5-0.6,0.8c-0.2,0.3-0.3,0.5-0.3,0.8c-0.1,0.3,0,0.7,0,1c0.1,0.7,0.5,1.2,1.1,1.4
				c0.2,0.1,0.5,0.1,0.7,0c0-0.4,0-0.9,0-1.3C31.3,40.6,31.3,40,31.3,39.4z"/>
		</g>
		<path class="st6" d="M34.8,31.2c-1.1,0.1-2.2,0-3.4,0c-1.1,0-2.2,0.1-3.3,0.1c-0.7,0-1.4,0.1-2.1,0.5c0,0,0,0,0,0
			c-0.4-0.3-0.7-0.6-1.1-0.8c-0.2-0.1-0.4-0.2-0.7-0.2c-0.3,0-0.7,0-1.1,0.1c-0.4,0.1-0.6,0.4-0.9,0.7c0,0,0,0.1-0.1,0.1
			c0,0,0,0,0-0.1c-0.4-0.4-1.1-0.4-1.6-0.2c-0.7,0.3-1.5,0.5-1.6,1.4c-0.1,0.5,0.2,0.9,0.4,1.3c0.3,0.6,0.5,1.1,0.8,1.7
			c0.3,0.5,0.6,1,0.9,1.6c0.4,0.8,0.8,1.6,1.2,2.4c0.3,0.7,0.6,1.5,1,2.2c0.4,0.8,0.7,1.5,1.1,2.2c0.4,0.7,0.8,1.3,1.1,1.9
			c0.2,0.4,0.4,0.7,0.6,1.1c0.1,0.2,0.2,0.4,0.4,0.5c0.4,0.4,1,0.9,1.6,0.9c0.2,0,0.4-0.1,0.5-0.1c0.2,0,0.5-0.1,0.7-0.2
			c0.2-0.1,0.3-0.3,0.4-0.4c0.3-0.4,0.4-0.8,0.4-1c0-0.2-0.1-0.5-0.1-0.7c0.7-0.2,1-0.8,1.1-1.5c0.1-0.6,0.1-1.3,0.1-1.9
			c0,0,0,0,0,0c0.3-0.1,0.6-0.2,0.8-0.5c0.4-0.4,0.6-0.8,0.9-1.3c0.3-0.5,0.6-0.9,1-1.4c0.6-0.9,1.1-1.8,1.7-2.8
			c0.2-0.4,0.5-0.8,0.7-1.2c0.2-0.4,0.5-0.7,0.7-1.1c0.2-0.3,0.4-0.6,0.5-0.9c0-0.1,0.1-0.2,0.1-0.3C37.9,32.9,37.8,31.1,34.8,31.2z
			"/>
		<path class="st6" d="M32.6,34.9c-0.1-0.1-0.1-0.2-0.2-0.3c0,0-0.1-0.1-0.1-0.1c-0.1,0-0.1-0.1-0.2-0.1c-0.2,0-0.4,0-0.5,0
			c-0.2,0-0.5,0-0.7,0c-0.2,0-0.4,0-0.6,0c-0.1,0-0.1,0-0.2,0c-0.1,0-0.1,0-0.2,0c-0.1,0-0.2,0-0.3,0c-0.1,0-0.2,0-0.2,0
			c0,0-0.1,0-0.1,0c0,0,0.1,0,0.1,0.1c0.1,0,0.2,0.1,0.3,0.1c0.1,0.1,0.1,0.1,0.2,0.2c0.1,0.1,0.1,0.1,0.2,0.2
			c0.1,0.1,0.2,0.2,0.3,0.3c0.1,0.1,0.2,0.2,0.3,0.3c0,0.1,0.1,0.1,0.1,0.2c0,0.1,0.1,0.1,0.1,0.2c0,0.1,0.1,0.2,0.1,0.3
			c0.1,0.1,0.1,0.2,0.1,0.4c0,0.1,0,0.2,0,0.2c0,0.1,0,0.2,0,0.2c0,0.1,0,0.1,0,0.2c0,0,0-0.1,0.1-0.1c0,0,0.1-0.1,0.1-0.1
			c0.1-0.1,0.2-0.2,0.3-0.3c0,0,0-0.1,0.1-0.2c0-0.1,0.1-0.1,0.1-0.2c0.1-0.1,0.1-0.2,0.2-0.2c0-0.1,0.1-0.2,0.1-0.2
			c0.1-0.2,0.4-0.3,0.4-0.5c0-0.1,0.1-0.2,0.1-0.3C32.6,35.1,32.6,35,32.6,34.9z"/>
		<path class="st6" d="M27.3,37.5c-0.1-0.1-0.1-0.3-0.2-0.4c0,0-0.1-0.1-0.1-0.1C27,37,26.9,37,26.9,36.9c-0.1-0.1-0.2-0.1-0.4-0.2
			c-0.1-0.1-0.2-0.1-0.3-0.2c-0.1-0.1-0.3-0.2-0.4-0.2c-0.1,0-0.2-0.1-0.3-0.2c-0.1,0-0.2,0-0.3-0.1c-0.1,0-0.3,0-0.4-0.1
			c0,0.1,0.1,0.3,0.1,0.4c0,0.1,0.1,0.2,0.1,0.2c0,0.1,0.1,0.2,0.1,0.3c0.1,0.2,0.2,0.4,0.4,0.7c0.1,0.1,0.1,0.2,0.1,0.3
			c0,0.1,0.1,0.2,0.1,0.3c0,0.1,0.1,0.2,0.1,0.3c0.1,0.1,0.1,0.2,0.1,0.3c0,0.1,0.1,0.2,0.1,0.3c0.1,0.1,0.1,0.2,0.1,0.3
			c0.1,0.1,0.1,0.2,0.2,0.3c0.1,0.1,0.1,0.2,0.2,0.3c0.1,0.1,0.1,0.2,0.2,0.2c0,0.1,0.1,0.1,0.1,0.2c0,0,0,0.1,0,0.1
			c0,0,0-0.1,0-0.1c0-0.1,0-0.1,0-0.2c0-0.1,0.1-0.1,0.1-0.2c0-0.1,0-0.1,0.1-0.2c0-0.1,0.1-0.1,0.1-0.2c0-0.1,0.1-0.3,0.1-0.4
			c0-0.1,0.1-0.3,0.1-0.4c0-0.1,0-0.3,0-0.4c0,0,0-0.1,0-0.1c0-0.1,0-0.1,0-0.2c0-0.1,0-0.1,0-0.2c0-0.1,0-0.1-0.1-0.2
			c0,0,0-0.1,0-0.1C27.3,37.6,27.4,37.6,27.3,37.5z"/>
	</g>
</g>
</svg>
