<?xml version="1.0" encoding="utf-8"?>
<!-- Generator: Adobe Illustrator 27.2.0, SVG Export Plug-In . SVG Version: 6.00 Build 0)  -->
<svg version="1.1" id="Layer_1" xmlns="http://www.w3.org/2000/svg" xmlns:xlink="http://www.w3.org/1999/xlink" x="0px" y="0px"
	 viewBox="0 0 130 80" style="enable-background:new 0 0 130 80;" xml:space="preserve">
<style type="text/css">
	.st0{fill:#ACE3FF;stroke:#000000;stroke-linecap:round;stroke-linejoin:round;stroke-miterlimit:10;}
	.st1{fill:none;stroke:#000000;stroke-linecap:round;stroke-linejoin:round;stroke-miterlimit:10;}
	.st2{fill:#FFEEBF;stroke:#000000;stroke-linecap:round;stroke-linejoin:round;stroke-miterlimit:10;}
	.st3{fill:#70CEFF;stroke:#000000;stroke-linecap:round;stroke-linejoin:round;stroke-miterlimit:10;}
	.st4{fill:#FFE096;stroke:#000000;stroke-linecap:round;stroke-linejoin:round;stroke-miterlimit:10;}
	.st5{fill:#FF87EB;stroke:#000000;stroke-linecap:round;stroke-linejoin:round;stroke-miterlimit:10;}
</style>
<g>
	<path class="st0" d="M48.5,15.5c-1,0.2-2.3,0.4-3.2,1c-0.2,0.1-0.3,0.3-0.5,0.4c-0.2,0.1-0.4,0.4-0.7,0.5c-0.2,0.1-0.7,0.2-0.9,0.1
		c0,0.6,0,1.1,0,1.7c0,0.8,0.1,1.6,0.2,2.4c0,0.7,0.1,1.4,0.2,2.1c0.1,0.9,0.1,1.8,0.1,2.7c0,3.4,0,6.8,0,10.2
		c0,2.5-0.3,11-0.3,12.8c0,2.9-0.1,5.8-0.1,8.7c0,1.2,0.1,2.4,0.1,3.5c0,1,0.1,2,0.4,2.9c0.3,1,0.7,2.3,1.7,2.8
		c0.9,0.4,1.8,0.4,2.7,0.6c0.7,0.2,1.9,0.4,2.6,0.1c0.4-0.2,1-0.4,1.2-0.8c0.2-0.4,0.2-1.1,0.6-1.3c0.1,0.6,0.2,1.2,0.8,1.5
		c0.7,0.4,1.6,0.5,2.3,0.6c1.3,0.2,2.7,0.1,4,0.3c0.7,0.1,1.5,0.1,2.2,0.1c0.8,0.1,1.6,0.1,2.5,0.1c0.8,0,1.7,0.1,2.5,0
		c1.1-0.1,2.1-0.4,3.3-0.4c1,0,2.1-0.2,3.1-0.2c1,0,1.9-0.1,2.9-0.2c0.7-0.1,1.4-0.1,2.1-0.2c0.7-0.1,1.5-0.1,2.2-0.2
		c1.2,0,2.3-0.2,3.5-0.2c1.4,0,2.8,0.2,4.2,0c0.2-1.3-0.1-2.6-0.1-3.8c0-1.5,0-3,0.1-4.4c0.1-1.1,0.2-2.2,0.3-3.3
		c0.1-1.1,0.1-2.4,0.1-3.5c0-2.2,0.2-4.4,0.2-6.5c0-1.2,0.2-8.9,0.2-11.8c0.1-2.3,0.2-4.6,0-6.8c-0.2-1.7-0.4-3.5-0.4-5.2
		c0-0.7,0-1.3,0-2c0-0.3,0-0.6,0-0.9c0-0.2-0.1-0.4-0.1-0.6c-0.2-0.1-0.5,0.2-0.7,0.2c-0.4,0.2-0.8,0.1-1.2,0.1
		c-1.1,0-2-0.4-3.1-0.5c-1.2-0.2-2.5-0.5-3.7-0.7c-0.7-0.2-1.5-0.3-2.2-0.5c-0.9-0.2-1.8-0.1-2.7-0.2c-1.7-0.1-3.5-0.3-5.2-0.3
		c-2,0-3.9-0.3-5.9-0.4c-1.9-0.1-3.8-0.3-5.7-0.3c-1.6,0-3.2-0.1-4.8-0.3c-0.6-0.1-1.3,0-1.9-0.1c-0.5,0-1-0.1-1.5-0.1
		C48.8,15.4,47.4,15.1,48.5,15.5z"/>
	<path class="st1" d="M51.7,23.1c-0.1,2.9,0.1,5.9,0.1,8.8c0,1.6,0.1,3.2,0.1,4.8c0,0.9-0.2,9.3-0.2,11c0,1.9-0.2,4.3-0.2,7.5
		c0,2.4,0.1,4.8,0.1,7.3"/>
	<path class="st1" d="M65.3,1.2c-1.2,0-2.4,0-3.6,0.1c-0.5,0.1-1.1,0.1-1.6,0.2c-0.5,0.1-1.1,0.1-1.6,0.2c-0.7,0.1-1.3,0.3-2,0.5
		c-1,0.2-2,0.4-3,0.7c-1.4,0.4-2.6,1-3.9,1.6c-1,0.4-1.8,1-2.7,1.4c-0.8,0.4-1.5,0.7-2.1,1.3c-0.7,0.6-1.6,0.8-2.3,1.3
		c-0.4,0.3-0.8,0.7-1.2,1c-0.4,0.4-0.9,0.7-1.4,1c-1,0.8-1.9,1.8-2.9,2.7c-0.6,0.6-1.2,1.1-1.7,1.7c-0.4,0.6-0.9,1.1-1.3,1.6
		c-0.9,1.1-1.8,2.3-2.5,3.5c-0.7,1.1-1.4,2.3-1.8,3.5c-0.5,1.2-0.8,2.5-1.4,3.7c-0.5,1.1-0.8,2.3-1.2,3.4c-0.7,1.7-1,3.8-1.1,5.7
		c-0.1,2-0.3,4.1-0.1,6.1c0.3,2,0.6,4,1.1,5.9c0.2,0.9,0.4,1.9,0.8,2.8c0.4,1.1,0.6,2.2,1,3.3c0.2,0.6,0.4,1.2,0.6,1.8
		c0.2,0.5,0.5,1,0.8,1.5c0.5,1.1,1.1,2.1,1.6,3.2c0.2,0.4,0.5,0.8,0.8,1.2c0.4,0.5,0.6,1.1,1,1.6c0.3,0.4,0.7,0.6,1,1
		c0.3,0.4,0.6,0.7,0.9,1.1c1,1.2,2.3,2.1,3.5,3.2c0.3,0.3,0.5,0.6,0.8,0.9c0.3,0.3,0.7,0.5,1,0.7c0.6,0.5,1.2,1,1.8,1.5
		c0.7,0.6,1.6,1.1,2.3,1.6c0.6,0.5,1.2,1,1.8,1.4c0.7,0.4,1.4,0.7,2.1,1.1c0.7,0.4,1.4,0.8,2.2,1c1.7,0.5,3.4,0.9,5.1,1.1
		c1.8,0.1,3.6,0.6,5.4,0.6c0.5,0,1.1,0.1,1.6,0.1c0.7,0,1.3-0.2,2-0.2c1.4,0,2.7-0.2,4.1-0.4c1.9-0.3,3.9-0.5,5.8-0.7
		c0.9-0.1,1.7-0.4,2.6-0.7c0.8-0.3,1.6-0.6,2.4-1c0.9-0.4,1.9-0.7,2.7-1.2c1-0.6,2-1.1,3-1.7c1.2-0.7,2.3-1.5,3.5-2.2
		c0.9-0.6,1.7-1.5,2.5-2.2c0.7-0.6,1.2-1.3,1.7-2c0.3-0.4,0.5-0.9,0.8-1.2c0.3-0.3,0.6-0.6,0.8-0.9c1.1-1.4,1.8-3.1,2.8-4.6
		c0.6-0.9,1.2-1.9,1.8-2.7c0.7-0.9,1.2-2,1.7-3c0.4-0.8,0.7-1.6,1-2.5c0.2-0.4,0.2-0.7,0.4-1.1c0.2-0.6,0.5-1.1,0.5-1.7
		c0.1-0.8,0.5-1.5,0.5-2.4c0-0.8,0.1-1.7,0.1-2.5c0-1.1,0-2.1,0-3.2c0-1.2,0.2-2.3,0.3-3.5c0.1-1,0-2.2-0.2-3.2
		c-0.1-0.5-0.2-1-0.3-1.4c-0.1-0.6-0.3-1-0.5-1.6c-0.2-0.5-0.2-1.1-0.4-1.6c-0.2-0.5-0.5-1-0.7-1.6c-0.3-0.8-0.9-1.5-1.3-2.4
		c-1-2.1-2.3-4.1-3.5-6.1c-0.3-0.5-0.6-0.9-0.8-1.4c-0.2-0.4-0.4-0.8-0.8-1.2c-0.6-0.7-1.2-1.4-1.7-2.1c-0.5-0.7-1-1.4-1.5-2
		c-0.5-0.6-1.2-1.1-1.8-1.7c-0.6-0.6-1.2-1-1.8-1.5c-0.7-0.6-1.6-1-2.3-1.6c-0.6-0.6-1.4-1-2.1-1.3c-0.4-0.2-0.8-0.3-1.1-0.4
		C83,6,82.8,5.7,82.4,5.5c-0.9-0.4-1.8-0.7-2.6-1.1c-0.7-0.3-1.4-0.6-2.1-0.8C76.8,3.4,76,3,75.1,2.8c-0.9-0.3-1.9-0.4-2.9-0.6
		C71.5,2,70.7,2,69.9,1.9c-0.6-0.1-1.3-0.3-1.9-0.3c-0.6-0.1-1.2-0.1-1.8-0.2C65.1,1.3,64,1,65.3,1.2z"/>
	<path class="st2" d="M80.7,12c-1-0.2-2.2,0-3,0c-1.9,0-3.7,0-5.6-0.2c-1.2-0.2-2.4-0.1-3.6-0.3c-0.7-0.1-1.3-0.1-2-0.1
		c-0.9,0-1.7,0.2-2.6,0.2c-0.4,0-0.7-0.1-1-0.1c-0.4,0-0.8,0-1.2,0c-1.2,0-2.4-0.1-3.6,0.2c-0.5,0.1-1.1,0.3-1.6,0.5
		c-0.4,0.1-0.9,0.2-1.2,0.5c-0.3,0.3-0.3,0.5-0.7,0.6c-0.7,0.1-1.3-0.3-1.9-0.5c-1.4-0.5-3.2-0.2-4.4,0.5c-0.9,0.5-2,1.2-2.7,1.9
		c-0.2,0.2-0.6,0.5-0.7,0.8c-0.1,0.2-0.1,0.5-0.1,0.7c-0.1,1,0.3,2.3,1.4,2.5c1.1,0.3,2.3-0.1,3.4-0.5c0.8-0.2,1.7-0.2,2.4-0.6
		c0.3,0.7,1.3,1.1,2,1.3c0.5,0.1,1,0.3,1.5,0.4c0.8,0.1,1.7,0,2.4-0.1c1.5-0.2,3.1-0.1,4.7-0.1c1.6,0,3.2-0.2,4.9-0.2
		c1.5,0,3,0,4.5,0c0.6,0,1.3,0.1,1.9,0.1c0.7,0,1.4,0,2.1,0c1.3,0.1,2.6,0,3.8,0c0.7,0,1.3-0.1,2-0.1c0.5,0,1,0.1,1.5,0
		c0.9-0.1,1.8,0,2.7-0.1c0.4-0.1,2.4-0.3,1.4-0.9c-1-0.6-2.1-1.1-3-1.8c-1-0.7-1.9-1.5-2.2-2.7c-0.1-0.4-0.1-0.7-0.3-1
		C81.6,12.3,81.2,12.1,80.7,12z"/>
	<path class="st1" d="M82,14c-1.3-0.1-2.6-0.3-3.9,0c-0.4,0.1-0.9,0.1-1.3,0.1"/>
	<path class="st1" d="M83.8,16.1c-1.1,0-2.3,0.2-3.4,0.1c-0.3,0-0.7,0-1,0c-0.5,0.1-0.9,0.1-1.3,0c-0.3,0-0.6,0-0.8,0"/>
	<path class="st3" d="M78.9,12.2c-2.6-0.1-5.2-0.2-7.8-0.3c-1.2,0-2.5-0.1-3.7-0.1c-2.9,0-5.9,0-8.8,0c-0.6,0-1.3,0-1.9,0.2
		c-0.9,0.3-1.1,1-1.7,1.6c-0.4,0.3-1.2,0.6-1.6,0.2c-0.3-0.2-0.2-0.5-0.4-0.8c-0.3-0.3-0.9-0.4-1.3-0.4c-1.5,0-3.5,0.5-4.6,1.4
		c-0.8,0.7-1.9,2.4-1.4,3.5c0.7,1.6,3.6,1,4.8,0.4c0.6-0.3,1.1-0.7,1.7-0.8c0.6-0.1,1.4,0.2,1.5,0.8c0,0.1,0,0.1,0.1,0.2
		c0.1,0.1,0.1,0.1,0.2,0.1c1,0,1.9,0,2.8,0c7.6-0.2,15.2-0.1,22.8,0c1.3,0,2.5,0,3.7,0c0.9,0,1.8,0.1,2.7,0c0.8-0.1,1.6-0.3,2.4,0
		c0.5,0.2,0.6,0.8,0,1c-1.1,0.4-2.4,0.6-3.6,0.6c-1.1,0-2.1,0.2-3.1,0.2c-1.4,0-2.9,0.1-4.4,0c-3.5-0.3-7.1-0.2-10.6,0
		c-1.3,0.1-2.6,0.1-3.8,0.1c-1.1,0-2.1,0.1-3.2,0.1c-0.7,0-1.5,0-2.2,0c-1.2,0.1-2.5,0.2-3.7-0.1c-0.6-0.2-1.2-0.5-1.6-1
		c-0.3-0.3-0.2-0.4-0.6-0.3c-0.3,0.1-0.5,0.3-0.7,0.4c-0.4,0.2-0.7,0.3-1.1,0.4c-0.8,0.3-1.5,0.4-2.4,0.4c-1.3,0-2.8-0.5-3.7-1.5
		c-0.7-0.9-0.4-2.3,0.1-3.2c0.8-1.5,1.8-2.5,3.4-3.3c1.4-0.7,2.2-0.9,3.7-1c0.5,0,1.4-0.2,1.8-0.1c0.6,0.1,1.1,0.5,1.4,1
		c0.2-0.3,0.7-0.5,1-0.7c0.5-0.3,0.8-0.5,1.4-0.5c1.9-0.2,3.8-0.3,5.7-0.3c6.2,0,12.4,0,18.7,0.3c0.6,0,2.8,0.4,1.6,1.1
		c-0.9,0.5-2,0.5-3,0.5C79.2,12.2,79.1,12.2,78.9,12.2z"/>
	<g>
		<path class="st3" d="M72.1,53.6c-0.3,0-0.6-0.1-0.8-0.2c-0.5-0.2-1.1-0.4-1.6-0.7c-0.4-0.2-0.9-0.5-1.1-1
			c-0.2-0.4-0.3-0.9-0.4-1.3c-0.3-1.3-0.3-2.5-0.1-3.8c0.1-0.6,0.1-1.2,0.2-1.9c0,0,0-0.1,0-0.1c-0.3-0.5-0.5-1-0.8-1.5
			c-0.5-0.8-0.9-1.6-1.3-2.5c-0.2-0.3-0.4-0.7-0.6-1c-0.4-0.2-0.8-0.5-1.2-0.8c-0.3-0.2-0.6-0.4-0.9-0.6c-0.4-0.3-0.9-0.5-1.3-0.8
			c-0.5-0.4-1.1-0.8-1.5-1.3c-0.6-0.8,0-2.1,0.3-2.9c0.1-0.2,0.2-0.4,0.3-0.6c0,0,0-0.1-0.1-0.1c-0.6-0.6-1.5-0.6-2.3-0.3
			c-1,0.4-2.2,0.8-2.3,1.9c-0.1,0.7,0.3,1.3,0.5,1.9c0.4,0.8,0.8,1.6,1.2,2.4c0.4,0.8,0.9,1.5,1.3,2.3c0.6,1.1,1.2,2.2,1.7,3.4
			c0.5,1,0.9,2.1,1.4,3.1c0.5,1.1,1.1,2.2,1.6,3.2c0.5,0.9,1.1,1.8,1.6,2.8c0.3,0.5,0.6,1,0.9,1.6c0.2,0.3,0.3,0.5,0.5,0.7
			c0.6,0.6,1.4,1.3,2.3,1.3c0.2,0,0.5-0.1,0.8-0.1c0.3-0.1,0.7-0.1,1-0.3c0.2-0.1,0.5-0.4,0.6-0.6c0.4-0.5,0.6-1.1,0.5-1.5
			c0-0.3-0.1-0.7-0.1-1c0,0,0,0-0.1,0C72.4,53.5,72.2,53.6,72.1,53.6z"/>
		<path class="st3" d="M79.3,32.3c-1.6,0.1-3.2-0.1-4.9,0c-1.6,0-3.1,0.1-4.7,0.1c-1.1,0-2.1,0.1-3,0.7c0,0,0,0,0,0
			c0.2,0.1,0.4,0.3,0.6,0.4c1,0.8,2.1,1.6,3,2.5c0.4,0.4,0.7,0.8,1.1,1.1c0,0,0,0,0.1,0.1c0.2,0,0.3,0,0.5,0c0.9,0,1.8,0,2.7-0.1
			c0.3,0,0.7-0.1,1.1,0c0.4,0.1,0.5,0.2,0.5,0.6c0,0.4-0.3,0.9-0.5,1.2c-0.2,0.3-0.3,0.4-0.5,0.8c-0.2,0.4-0.5,0.8-0.8,1.2
			c0,0,0,0.1-0.1,0.1c0,0.2,0,0.4,0,0.6c0,0.4-0.1,0.8-0.1,1.2c0,0.4,0,0.9,0,1.3c0,0.9,0,1.7,0.1,2.6c0,0.6,0,1.2,0.1,1.8
			c0,0,0,0,0,0c0.5-0.1,0.8-0.3,1.2-0.7c0.5-0.5,0.9-1.2,1.3-1.8c0.4-0.7,0.9-1.3,1.4-2c0.9-1.3,1.6-2.6,2.5-4
			c0.3-0.6,0.7-1.1,1.1-1.7c0.3-0.5,0.7-1,1.1-1.6c0.2-0.4,0.5-0.8,0.7-1.3c0.1-0.1,0.1-0.3,0.1-0.4C83.8,34.8,83.7,32.1,79.3,32.3z
			"/>
		<path class="st4" d="M73.4,48.5c-0.9-0.3-1.5-1.1-1.6-2.1c-0.1-0.5-0.1-1,0-1.5c0.1-0.4,0.3-0.8,0.5-1.1c0.3-0.4,0.6-0.7,0.9-1.1
			c0.3-0.3,0.5-0.7,0.8-1.1c0.2-0.2,0.3-0.4,0.5-0.7c0-0.1,0-0.2-0.1-0.3c-0.2-0.5-0.5-0.8-0.5-1c-0.5-0.6-0.8-1-1.3-1.4
			c-0.2-0.1-0.3-0.3-0.5-0.5c-0.2-0.2-0.4-0.4-0.7-0.6c-0.5,0-1,0.1-1.6,0.1c-0.9-0.1-1.9-0.1-2.8-0.5c-0.4-0.2-1-0.5-1.2-0.9
			c-0.2-0.3-0.2-0.8-0.2-1.2c0-0.7,0.5-1.2,1.1-1.6c-0.5-0.4-1-0.8-1.6-1.2c-0.3-0.2-0.6-0.3-1-0.3c-0.5,0-1.1,0-1.5,0.1
			c-0.5,0.1-0.9,0.5-1.2,0.9c0,0-0.1,0.1-0.1,0.1c0.4,0.4,0.7,1,1,1.5c0.4,0.5,0.7,1,1.1,1.6c0.3,0.5,0.7,1.1,1,1.7
			c0.1,0.2,0.2,0.4,0.3,0.6c0.3,0.4,0.4,0.9,0.7,1.3c0.1,0.1,0.2,0.3,0.3,0.4c0.1,0.1,0.2,0.1,0.3,0.1c0.4,0.2,0.8,0.4,1.1,0.6
			c0.3,0.2,0.5,0.3,0.8,0.6c0.4,0.4,0.5,0.9,0.6,1.4c0.1,0.7,0,1.4-0.1,2c0,0.1,0,0.2,0,0.3c0.3,0.5,0.5,1,0.8,1.5
			c0.4,0.7,0.7,1.3,1,2c0.4,0.9,0.9,1.7,1.4,2.5c0.2,0.3,0.4,0.6,0.6,0.9c0.3,0.5,0.4,1.1,0.5,1.7c1-0.3,1.5-1.1,1.6-2.2
			c0.1-0.9,0.2-1.9,0.1-2.8C74,48.6,73.7,48.6,73.4,48.5z"/>
		<path class="st5" d="M60.6,36.2c0.4,0.5,1,0.9,1.5,1.3c0.4,0.3,0.9,0.5,1.3,0.8c0.3,0.2,0.6,0.4,0.9,0.6c0.4,0.3,0.8,0.6,1.2,0.8
			c-0.1-0.1-0.2-0.3-0.3-0.4c-0.3-0.4-0.5-0.9-0.7-1.3c-0.1-0.2-0.2-0.4-0.3-0.6c-0.3-0.6-0.6-1.1-1-1.7c-0.3-0.5-0.7-1.1-1.1-1.6
			c-0.3-0.5-0.6-1-1-1.5c-0.1,0.2-0.3,0.3-0.3,0.6C60.6,34.2,60,35.4,60.6,36.2z"/>
		<path class="st5" d="M71.5,50.9c-0.5-0.8-1-1.7-1.4-2.5c-0.3-0.7-0.7-1.4-1-2c-0.3-0.5-0.5-1-0.8-1.5c0,0.6-0.1,1.2-0.2,1.9
			c-0.2,1.3-0.2,2.5,0.1,3.8c0.1,0.4,0.2,0.9,0.4,1.3c0.2,0.5,0.6,0.7,1.1,1c0.5,0.3,1,0.5,1.6,0.7c0.2,0.1,0.6,0.2,0.8,0.2
			c0.1,0,0.3-0.1,0.5-0.1c0,0,0,0,0.1,0c-0.1-0.6-0.2-1.2-0.5-1.7C72,51.5,71.7,51.2,71.5,50.9z"/>
		<path class="st5" d="M65.7,34.7c0,0.4,0.1,0.8,0.2,1.2c0.2,0.5,0.7,0.7,1.2,0.9c0.9,0.4,1.8,0.4,2.8,0.5c0.5,0,1,0,1.6-0.1
			c0,0,0,0-0.1-0.1c-0.4-0.4-0.7-0.8-1.1-1.1c-0.9-0.9-1.9-1.7-3-2.5c-0.2-0.1-0.4-0.3-0.6-0.4C66.2,33.5,65.7,34,65.7,34.7z"/>
		<path class="st5" d="M74.3,44.1c0-0.4,0-0.9,0-1.3c0-0.4,0.1-0.8,0.1-1.2c0-0.2,0-0.4,0-0.6c-0.1,0.2-0.3,0.5-0.5,0.7
			c-0.3,0.4-0.5,0.7-0.8,1.1c-0.3,0.4-0.7,0.7-0.9,1.1c-0.2,0.4-0.4,0.7-0.5,1.1c-0.1,0.5,0,1,0,1.5c0.1,1,0.7,1.7,1.6,2.1
			c0.3,0.1,0.7,0.1,1.1,0.1c0-0.6,0-1.2-0.1-1.8C74.3,45.8,74.2,44.9,74.3,44.1z"/>
	</g>
</g>
</svg>
