<?xml version="1.0" encoding="utf-8"?>
<!-- Generator: Adobe Illustrator 27.2.0, SVG Export Plug-In . SVG Version: 6.00 Build 0)  -->
<svg version="1.1" id="Layer_1" xmlns="http://www.w3.org/2000/svg" xmlns:xlink="http://www.w3.org/1999/xlink" x="0px" y="0px"
	 viewBox="0 0 30 25" style="enable-background:new 0 0 30 25;" xml:space="preserve">
<style type="text/css">
	.st0{fill:#FFBF0C;stroke:#000000;stroke-linecap:round;stroke-linejoin:round;stroke-miterlimit:10;}
	.st1{fill:#DAD8D8;stroke:#000000;stroke-linecap:round;stroke-linejoin:round;stroke-miterlimit:10;}
	.st2{fill:#FFE096;stroke:#000000;stroke-linecap:round;stroke-linejoin:round;stroke-miterlimit:10;}
	.st3{fill:#00B1FF;}
	.st4{fill:#FFBF0C;}
	.st5{fill:#FF00D9;}
	.st6{fill:none;stroke:#000000;stroke-linecap:round;stroke-linejoin:round;stroke-miterlimit:10;}
</style>
<g>
	<path class="st0" d="M8.2,17.1c-0.1,0.7,0.3,1.3,0.8,1.7s1.2,0.7,1.8,0.9C15,21.1,19.5,22,24,22.3c0.1,0,0.3,0,0.4,0
		c0.2-0.1,0.2-0.2,0.3-0.4c2.3-5.2,3.1-10.6,4.2-16.1c0.1-0.5-0.3-0.9-0.7-0.9c-5.5,0.1-7.5,0.4-11.9,0c0-0.7,0.2-0.7-0.3-1.1
		c-0.3-0.2-1,0.5-1.4,0.5C12.5,4.3,10.1,5,8,5c-1,2.7-1.3,3.3-1.7,6.2c-0.3,1.7-0.4,3.7,0.8,5C7.7,16.9,8.6,17.2,8.2,17.1z"/>
	<path class="st1" d="M24.8,3.7C18.1,3.4,11.3,3.5,4.6,4c0,5.3,0.8,10.5,1.6,15.7c0,0.2,0.1,0.4,0.2,0.5c0.1,0.1,0.3,0.1,0.5,0.1
		c1.6-0.2,3.2-0.4,4.8-0.4c4.2,0,8.3,1.6,12.5,2.2c0.1,0,0.3,0,0.4-0.1c0.1-0.1,0.1-0.2,0.1-0.3c0.5-3.1,0.1-6.3,0.3-9.5
		c0.2-2.7,0.3-5,0.3-8C25.4,3.9,25.2,3.7,24.8,3.7z"/>
	<path class="st2" d="M24.4,22.3c-3.3-0.1-6.6-0.2-9.9-0.2c-0.6,0-1.2,0-1.8,0c-0.4,0-0.8,0-1.2,0c-2.6,0-5.1,0-7.7,0.1
		c0-0.9-0.3-1.9-0.6-2.8c-0.4-1.5-0.6-3-0.7-4.6c-0.4-3.5-1-7.6-1.5-11.2C1,3.3,1.4,3,1.7,3.1c0.8,0,1.7,0,2.4-0.1
		C5,2.9,7.9,2.5,8.7,2.8c0.9,0.4,0.7,1.1,1.2,3.1c4.7-0.2,7.7-0.1,12.5,0.1C22.8,11.4,23.7,16.8,24.4,22.3z"/>
	<g>
		<g>
			<path class="st3" d="M13.3,17.9c-0.1,0-0.3,0-0.4-0.1c-0.2-0.1-0.5-0.2-0.7-0.3c-0.2-0.1-0.4-0.2-0.5-0.4
				c-0.1-0.2-0.1-0.4-0.2-0.6c-0.1-0.5-0.1-1.1,0-1.6c0-0.3,0-0.5,0.1-0.8c0,0,0,0,0,0c-0.1-0.2-0.2-0.4-0.3-0.6
				c-0.2-0.3-0.4-0.7-0.6-1.1c-0.1-0.1-0.2-0.3-0.2-0.4c-0.2-0.1-0.3-0.2-0.5-0.4c-0.1-0.1-0.3-0.2-0.4-0.3C9.4,11.2,9.2,11.2,9,11
				c-0.2-0.2-0.5-0.3-0.6-0.6c-0.3-0.4,0-0.9,0.1-1.2c0-0.1,0.1-0.2,0.1-0.2c0,0,0,0,0,0C8.3,8.7,8,8.7,7.6,8.8
				C7.2,9,6.7,9.2,6.7,9.7c0,0.3,0.1,0.6,0.2,0.8c0.2,0.3,0.3,0.7,0.5,1c0.2,0.3,0.4,0.6,0.5,1c0.3,0.5,0.5,1,0.7,1.4
				c0.2,0.4,0.4,0.9,0.6,1.3c0.2,0.5,0.5,0.9,0.7,1.4c0.2,0.4,0.5,0.8,0.7,1.2c0.1,0.2,0.3,0.4,0.4,0.7c0.1,0.1,0.1,0.2,0.2,0.3
				c0.3,0.3,0.6,0.6,1,0.5c0.1,0,0.2,0,0.3-0.1c0.1,0,0.3-0.1,0.4-0.1c0.1-0.1,0.2-0.2,0.3-0.3c0.2-0.2,0.2-0.5,0.2-0.6
				c0-0.1,0-0.3,0-0.4c0,0,0,0,0,0C13.4,17.9,13.3,17.9,13.3,17.9z"/>
			<path class="st3" d="M16.3,8.8c-0.7,0-1.4,0-2.1,0c-0.7,0-1.3,0-2,0c-0.5,0-0.9,0-1.3,0.3c0,0,0,0,0,0c0.1,0.1,0.2,0.1,0.2,0.2
				c0.4,0.3,0.9,0.7,1.3,1.1c0.2,0.2,0.3,0.3,0.5,0.5c0,0,0,0,0,0c0.1,0,0.1,0,0.2,0c0.4,0,0.8,0,1.2,0c0.1,0,0.3,0,0.5,0
				c0.2,0,0.2,0.1,0.2,0.3c0,0.2-0.1,0.4-0.2,0.5c-0.1,0.1-0.1,0.2-0.2,0.3c-0.1,0.2-0.2,0.3-0.3,0.5c0,0,0,0,0,0c0,0.1,0,0.2,0,0.2
				c0,0.2,0,0.3,0,0.5c0,0.2,0,0.4,0,0.6c0,0.4,0,0.7,0,1.1c0,0.3,0,0.5,0,0.8c0,0,0,0,0,0c0.2,0,0.4-0.1,0.5-0.3
				c0.2-0.2,0.4-0.5,0.6-0.8c0.2-0.3,0.4-0.6,0.6-0.9c0.4-0.5,0.7-1.1,1-1.7c0.1-0.2,0.3-0.5,0.4-0.7c0.1-0.2,0.3-0.4,0.5-0.7
				c0.1-0.2,0.2-0.4,0.3-0.5c0-0.1,0-0.1,0.1-0.2C18.3,9.9,18.2,8.7,16.3,8.8z"/>
			<path class="st4" d="M13.8,15.7c-0.4-0.1-0.6-0.5-0.7-0.9c0-0.2,0-0.4,0-0.6c0-0.2,0.1-0.3,0.2-0.5c0.1-0.2,0.3-0.3,0.4-0.5
				c0.1-0.1,0.2-0.3,0.3-0.5c0.1-0.1,0.1-0.2,0.2-0.3c0,0,0-0.1,0-0.1C14.1,12.2,14,12,14,11.9c-0.2-0.2-0.3-0.4-0.6-0.6
				c-0.1-0.1-0.1-0.1-0.2-0.2c-0.1-0.1-0.2-0.2-0.3-0.3c-0.2,0-0.4,0-0.7,0c-0.4,0-0.8,0-1.2-0.2c-0.2-0.1-0.4-0.2-0.5-0.4
				c-0.1-0.1-0.1-0.3-0.1-0.5c0-0.3,0.2-0.5,0.5-0.7c-0.2-0.2-0.4-0.4-0.7-0.5C10.1,8.5,10,8.5,9.9,8.5c-0.2,0-0.5,0-0.7,0
				C9,8.6,8.8,8.8,8.7,8.9c0,0,0,0,0,0c0.2,0.2,0.3,0.4,0.4,0.6c0.2,0.2,0.3,0.4,0.5,0.7c0.1,0.2,0.3,0.5,0.4,0.7
				c0,0.1,0.1,0.2,0.1,0.3c0.1,0.2,0.2,0.4,0.3,0.6c0,0.1,0.1,0.1,0.1,0.2c0,0,0.1,0,0.1,0.1c0.2,0.1,0.3,0.2,0.5,0.3
				c0.1,0.1,0.2,0.1,0.3,0.2c0.2,0.2,0.2,0.4,0.3,0.6c0,0.3,0,0.6,0,0.9c0,0,0,0.1,0,0.1c0.1,0.2,0.2,0.4,0.3,0.6
				c0.2,0.3,0.3,0.6,0.4,0.9c0.2,0.4,0.4,0.7,0.6,1.1c0.1,0.1,0.2,0.3,0.3,0.4c0.1,0.2,0.2,0.5,0.2,0.7c0.4-0.1,0.6-0.5,0.7-0.9
				c0.1-0.4,0.1-0.8,0.1-1.2C14.1,15.7,13.9,15.7,13.8,15.7z"/>
			<path class="st5" d="M8.4,10.5C8.5,10.7,8.8,10.9,9,11c0.2,0.1,0.4,0.2,0.6,0.3c0.1,0.1,0.3,0.2,0.4,0.3c0.2,0.1,0.3,0.3,0.5,0.4
				c0-0.1-0.1-0.1-0.1-0.2c-0.1-0.2-0.2-0.4-0.3-0.6c0-0.1-0.1-0.2-0.1-0.3c-0.1-0.2-0.3-0.5-0.4-0.7c-0.1-0.2-0.3-0.5-0.5-0.7
				C8.9,9.4,8.8,9.2,8.6,9C8.6,9.1,8.5,9.1,8.5,9.2C8.4,9.6,8.1,10.1,8.4,10.5z"/>
			<path class="st5" d="M13,16.7c-0.2-0.3-0.4-0.7-0.6-1.1c-0.1-0.3-0.3-0.6-0.4-0.9c-0.1-0.2-0.2-0.4-0.3-0.6c0,0.3,0,0.5-0.1,0.8
				c-0.1,0.5-0.1,1.1,0,1.6c0,0.2,0.1,0.4,0.2,0.6c0.1,0.2,0.3,0.3,0.5,0.4c0.2,0.1,0.4,0.2,0.7,0.3c0.1,0,0.2,0.1,0.4,0.1
				c0.1,0,0.1,0,0.2-0.1c0,0,0,0,0,0c0-0.3-0.1-0.5-0.2-0.7C13.2,17,13.1,16.9,13,16.7z"/>
			<path class="st5" d="M10.5,9.8c0,0.2,0,0.4,0.1,0.5c0.1,0.2,0.3,0.3,0.5,0.4c0.4,0.2,0.8,0.2,1.2,0.2c0.2,0,0.4,0,0.7,0
				c0,0,0,0,0,0c-0.2-0.2-0.3-0.3-0.5-0.5c-0.4-0.4-0.8-0.7-1.3-1.1C11.1,9.3,11,9.2,11,9.1C10.7,9.3,10.5,9.5,10.5,9.8z"/>
			<path class="st5" d="M14.2,13.8c0-0.2,0-0.4,0-0.6c0-0.2,0-0.3,0-0.5c0-0.1,0-0.2,0-0.2c-0.1,0.1-0.1,0.2-0.2,0.3
				c-0.1,0.2-0.2,0.3-0.3,0.5c-0.1,0.2-0.3,0.3-0.4,0.5c-0.1,0.2-0.2,0.3-0.2,0.5c0,0.2,0,0.4,0,0.6c0.1,0.4,0.3,0.7,0.7,0.9
				c0.1,0.1,0.3,0,0.4,0c0-0.3,0-0.5,0-0.8C14.2,14.6,14.2,14.2,14.2,13.8z"/>
		</g>
		<path class="st6" d="M16.3,8.8c-0.7,0-1.4,0-2.1,0c-0.7,0-1.3,0-2,0c-0.5,0-0.9,0-1.3,0.3c0,0,0,0,0,0c-0.2-0.2-0.4-0.4-0.7-0.5
			C10.1,8.5,10,8.5,9.9,8.5c-0.2,0-0.5,0-0.7,0C9,8.6,8.8,8.8,8.7,8.9c0,0,0,0,0,0c0,0,0,0,0,0C8.3,8.7,8,8.7,7.6,8.8
			C7.2,9,6.7,9.2,6.7,9.7c0,0.3,0.1,0.6,0.2,0.8c0.2,0.3,0.3,0.7,0.5,1c0.2,0.3,0.4,0.6,0.5,1c0.3,0.5,0.5,1,0.7,1.4
			c0.2,0.4,0.4,0.9,0.6,1.3c0.2,0.5,0.5,0.9,0.7,1.4c0.2,0.4,0.5,0.8,0.7,1.2c0.1,0.2,0.3,0.4,0.4,0.7c0.1,0.1,0.1,0.2,0.2,0.3
			c0.3,0.3,0.6,0.6,1,0.5c0.1,0,0.2,0,0.3-0.1c0.1,0,0.3-0.1,0.4-0.1c0.1-0.1,0.2-0.2,0.3-0.3c0.2-0.2,0.2-0.5,0.2-0.6
			c0-0.1,0-0.3,0-0.4c0.4-0.1,0.6-0.5,0.7-0.9c0.1-0.4,0.1-0.8,0.1-1.2c0,0,0,0,0,0c0.2,0,0.4-0.1,0.5-0.3c0.2-0.2,0.4-0.5,0.6-0.8
			c0.2-0.3,0.4-0.6,0.6-0.9c0.4-0.5,0.7-1.1,1-1.7c0.1-0.2,0.3-0.5,0.4-0.7c0.1-0.2,0.3-0.4,0.5-0.7c0.1-0.2,0.2-0.4,0.3-0.5
			c0-0.1,0-0.1,0.1-0.2C18.3,9.9,18.2,8.7,16.3,8.8z"/>
	</g>
</g>
</svg>
