<?xml version="1.0" encoding="utf-8"?>
<!-- Generator: Adobe Illustrator 27.3.1, SVG Export Plug-In . SVG Version: 6.00 Build 0)  -->
<svg version="1.1" id="Layer_1" xmlns="http://www.w3.org/2000/svg" xmlns:xlink="http://www.w3.org/1999/xlink" x="0px" y="0px"
	 viewBox="0 0 130 80" style="enable-background:new 0 0 130 80;" xml:space="preserve">
<style type="text/css">
	.st0{fill:#FFEEBF;}
	.st1{fill:none;stroke:#FFFFFF;stroke-linecap:round;stroke-linejoin:round;stroke-miterlimit:10;}
	.st2{fill:#C8ECFD;}
	.st3{fill:#C8ECFD;stroke:#000000;stroke-linecap:round;stroke-linejoin:round;stroke-miterlimit:10;}
	.st4{fill:none;stroke:#000000;stroke-linecap:round;stroke-linejoin:round;stroke-miterlimit:10;}
	.st5{fill:#FF87EB;stroke:#000000;stroke-linecap:round;stroke-linejoin:round;stroke-miterlimit:10;}
	.st6{fill:#DAD8D8;stroke:#000000;stroke-linecap:round;stroke-linejoin:round;stroke-miterlimit:10;}
	.st7{fill:#FFE096;stroke:#000000;stroke-linecap:round;stroke-linejoin:round;stroke-miterlimit:10;}
	.st8{fill:#C756B2;stroke:#000000;stroke-linecap:round;stroke-linejoin:round;stroke-miterlimit:10;}
	.st9{fill:none;stroke:#BCBABA;stroke-linecap:round;stroke-linejoin:round;stroke-miterlimit:10;}
</style>
<g>
	<path class="st0" d="M58.8,47.4c-0.3,1.3-0.5,2.5-0.8,3.8c-0.7,3.6-1.5,7.4-1.1,11.1c0.4,3.6,1.9,7,4.2,9.8
		c0.4,0.4,0.7,0.8,1.2,1.1c0.5,0.3,1,0.4,1.6,0.4c3.5,0.3,6.9-2.2,7.9-5.5c0.4-1.4,0.4-2.9,0.3-4.4c-0.2-5.6-0.8-11.3-2.6-16.6
		c-0.3-0.8-0.7-1.7-1.4-2c-0.4-0.2-0.9-0.2-1.4-0.2c-1,0-1.9,0.1-2.9,0.1"/>
	<path class="st1" d="M68.9,53c0,2.2,0.7,5.6,0.8,7.8c0.1,0.7,0.2,1.4,0.2,2.1c0,1.3,0,2.6-0.1,3.9c-0.1,0.8,0,1.5,0,2.3
		c0,0.7-0.1,1.4-0.1,2"/>
	<path class="st1" d="M59.5,53.7c0,2.2-0.4,5.3-0.3,7.5c0.1,0.7,0.2,1.4,0.2,2.1c0,1.3,0,2.6-0.1,3.9c-0.1,0.8,0,1.5,0,2.3
		c0,0.7-0.1,1.4-0.1,2"/>
	<path class="st1" d="M64.8,52.3c-0.1,1.5-0.5,3.1-0.2,4.6c0.1,0.6,0.2,1.2,0.1,1.9c-0.1,1.1,0,2.3,0,3.4c0,0.7,0.2,1.4,0.2,2.2
		c0,0.5-0.1,0.9-0.1,1.4c0,0.2,0.1,0.4,0,0.6"/>
	<path class="st2" d="M64.4,66.3c-0.1,1.2-0.7,2.3-1.6,3.1c-0.9,0.8-2,1.3-3.2,1.6c-0.4,0.1-0.8,0.2-1.2,0.1
		c-1.1-0.1-2.1-0.8-2.7-1.7c-0.6-0.9-1-2-1.3-3c-0.1-0.3-0.2-0.7-0.2-1c0.1-0.7,0.7-1.3,1.3-1.7c0.7-0.5,1.4-0.8,2.3-1
		c1.6-0.3,3.4,0.3,4.7,1.3s2.2,2.6,2.8,4.1"/>
	<path class="st3" d="M49.2,71.7c1-0.8,1.8-1.8,3.1-1.8c0.4,0,0.9,0,1.3,0.1c0.4,0.1,0.8,0.1,1.1,0.4c-0.3-0.4,0-1.2,0.2-1.6
		c0.4-0.9,1.3-1.5,2.2-1.8s1.6-0.2,2.5-0.1c0.7,0.1,1.2,0.2,1.8,0.5c-0.2-0.6,0.7-1.7,1-2.1c0.4-0.4,0.9-0.9,1.4-1.2
		c1.4-1,3.8-1.5,5.4-0.4c0.7,0.5,1.5,1.5,1.5,2.4c0.3-0.6,1.7-0.4,2.1-0.4c0.3,0.1,2.4,1,2.1,1.5c0.2-0.4,0.2-0.9,0.5-1.3
		s0.7-0.8,1.1-0.9c0.4-0.2,1-0.2,1.5-0.3c0.5-0.1,1-0.3,1.6-0.3c0.5,0,1.8,0.1,2,0.6c0.6-1.2,1.3-2.5,2.5-3.1
		c0.4-0.2,0.8-0.4,1.3-0.6c0.6-0.2,1.3-0.2,1.9-0.2c0.5,0,1.1-0.2,1.6-0.1c0.6,0.1,1.3,0.3,1.9,0.4c0.5,0.1,1.1,0.2,1.7,0.4
		c0.5,0.2,1.1,0.6,1.6,1c0.4,0.3,0.8,0.7,1.2,1c0.4,0.3,0.8,0.6,1.2,1c0.7,0.8,1.2,1.5,1.4,2.5c0.1,0.4,0.4,1.2,0.1,1.6
		c0.8-0.8,1.3-1.6,2.3-1.9c0.6-0.2,1.7-0.2,2.3,0.1c0.4,0.2,0.6,0.4,0.9,0.7c0.3-0.1,0.4-0.5,0.6-0.8c0.3-0.4,0.7-0.6,1.1-0.9
		c0.5-0.3,1.1-0.4,1.7-0.5c0.6-0.2,1.2-0.3,1.8-0.2c1.6,0.2,3.3,0.9,4.4,2.2c0.6,0.7,0.9,1.6,1.2,2.5c0.1,0.3,0.8,1.2,0.5,1.6
		c0.3-0.2,0.8-0.2,1.2-0.3c1.2-0.1,2.9,0.5,2.2,2c-0.6,1.3-2.1,1-3.2,1.1c-0.6,0-1.2,0.1-1.9,0.2c-0.8,0.1-1.5-0.1-2.3-0.1
		s-1.5,0-2.3,0c-1,0-2,0.2-3,0.2c-0.8,0-1.5-0.3-2.3-0.3c-1,0-2,0-3,0c-1.1,0-2.3,0.1-3.4,0.1s-2.2-0.3-3.3-0.3
		c-1.2,0-2.3,0.1-3.5,0s-2.4-0.1-3.5-0.1s-2.1,0.1-3.2,0.1s-2.3,0.1-3.4,0c-2.1-0.1-4.1-0.3-6.2-0.2c-0.9,0-1.8,0.2-2.7,0.1
		c-0.7-0.1-1.3-0.2-1.9-0.2h-1.8c-0.2,0.1-0.8,0-1,0c-0.3,0-0.5,0.1-0.8,0.1c-0.6,0.1-1.3,0-2,0c-0.5,0-1.1-0.1-1.6,0
		c-0.3,0-0.7,0.1-1,0.1c-0.4,0-0.9-0.1-1.3-0.1c-1.1,0-2.1-0.1-3.2-0.1c-0.9,0-1.8-0.1-2.7,0c-1,0.1-2,0-3,0c-0.7,0-1.5-0.1-2.2-0.2
		c-0.5-0.1-1,0-1.6-0.1c-0.5,0-1-0.2-1.6-0.2s-1.1,0.1-1.7,0.1c-0.7,0-1.4,0-2.1,0c-0.8,0-1.5,0-2.3,0.1c-0.6,0-1.2,0.1-1.8,0.1
		c-0.7,0-1.4,0-2.1,0.1c-0.7,0.1-1.5,0.2-2.2,0.3c-0.6,0.1-1.2,0.1-1.8,0.1c-0.5,0-1.1-0.2-1.6-0.2c-1.3,0-2.5,0.1-3.8,0.2
		c-0.6,0-1.3,0.1-1.9,0.1c-0.5,0-1,0.1-1.5,0.2c-0.9,0.1-1.8-0.3-2.7-0.3c-0.6,0-1.1,0.2-1.7,0.2c-0.5,0-1,0-1.6,0
		c-0.5,0-1,0-1.4,0.1c-0.9,0.1-2.2,0.7-2.9,0.1c-0.8-0.6-0.8-1.7-0.4-2.5c0.1-0.1,0.2-0.3,0.3-0.4c0.2-0.3,0.3-0.6,0.5-0.9
		c0.4-0.5,1.1-1,1.7-1.2c0.5-0.1,1,0,1.5,0.2c0.4,0.1,0.9,0.3,1.3,0.5c-0.1-0.5,0.2-1.3,0.3-1.8c0.3-0.9,0.7-1.6,1.1-2.4
		c0.5-0.9,1-1.4,1.7-2.1c0.6-0.6,1.3-1.2,2.1-1.6c1.3-0.5,2.8-0.7,4.2-0.6c0.6,0,1.1,0.2,1.7,0.4c0.2,0,0.3,0.1,0.5,0.2
		c0.1,0.1,0.1,0.2,0.2,0.3c0-0.5,0.5-1.1,0.7-1.5c0.3-0.6,0.7-1,1.3-1.3c1-0.5,2.5-0.5,3.6-0.2s2.4,1,2.8,2.1
		c0.3,0.8,0.3,1.6,0.3,2.4c0.2,0.1,0.8-0.2,1-0.3c0.4-0.1,0.7-0.1,1.2,0c0.7,0.1,1.2,0.4,1.8,0.9c1.1,0.9,1.8,2.2,2.4,3.5
		c-1-2.7,2.3-4.1,4.4-4.5c1.3-0.2,2.7,0,3.7,1c0.4-1.2,0.7-2.5,1.8-3.1s1.6-1.3,2.9-1.6c1.9-0.3,7-0.6,7.1,3.6"/>
	<path class="st1" d="M14.4,72.8c0.5-0.1,1,0,1.5,0.2c0.4,0.1,0.9,0.3,1.3,0.5c-0.1-0.5,0.2-1.3,0.3-1.8c0.3-0.9,0.7-1.6,1.1-2.4
		c0.5-0.9,1-1.4,1.7-2.1c0.6-0.6,1.3-1.2,2.1-1.6c1.3-0.5,2.8-0.7,4.2-0.6c0.6,0,1.1,0.2,1.7,0.4c0.2,0,0.3,0.1,0.5,0.2
		c0.1,0.1,0.1,0.2,0.2,0.3c0-0.5,0.5-1.1,0.7-1.5c0.3-0.6,0.7-1,1.3-1.3c1-0.5,2.5-0.5,3.6-0.2s2.4,1,2.8,2.1
		c0.3,0.8,0.3,1.6,0.3,2.4c0.2,0.1,0.8-0.2,1-0.3c0.4-0.1,0.7-0.1,1.2,0c0.7,0.1,1.2,0.4,1.8,0.9c1.1,0.9,1.8,2.2,2.4,3.5
		c-1-2.7,2.3-4.1,4.4-4.5c1.3-0.2,2.7,0,3.7,1c0.4-1.2,0.7-2.5,1.8-3.1s1.6-1.3,2.9-1.6c1.9-0.3,7-0.6,7.1,3.6"/>
	<g>
		<path class="st4" d="M57.4,53.3c0.1,1.3,0.1,1.7-0.1,3c-0.1,0.6-0.1,1.1-0.1,1.7c0,0.4-0.1,0.9-0.1,1.3c0,0.2,0.1,0.6,0,0.8"/>
		<path class="st4" d="M71.5,53.9c-0.1,1,0.1,3.2,0.3,4.2c0,0.2,0.1,0.4,0.2,0.7c0.1,0.4,0.1,0.9,0.1,1.3c0,0.4-0.1,0.7-0.1,1.1
			c0,0.4,0.1,0.8,0,1.3c0,0.6-0.1,1.2,0,1.8c0,0.2,0.1,0.3,0.1,0.5s0,0.4,0,0.6"/>
	</g>
	<g>
		<path class="st5" d="M58.5,34.8c-0.8,0.8-1.5,1.4-2.4,1.9c-0.4,0.2-0.7,0.4-1,0.6c-0.7,0.4-1.4,0.8-2.1,1.3
			c-0.7,0.5-1.3,0.9-2.1,1.3c-0.6,0.3-1.2,0.6-1.8,1c-0.5,0.5-1.1,0.9-1.8,1.2c-0.2,0.1-0.7,0.2-0.8,0.3c-0.2,0.2-0.2,0.9-0.2,1.2
			c-0.1,0.9-0.1,1.9,0,2.8c0.2,2.9-0.3,5.9-0.1,8.8c0,0.8,0,1.7,0.1,2.5c0,0.6,0,1.2,0.5,1.7c0.3,0.2,0.9,0.3,1.2,0.2
			c0.5-0.2,0.6-1,0.8-1.5s0.3-1.1,0.4-1.6c0.1-0.7,0.3-0.8,0.9-1.2c0.8-0.6,1.7-1.3,2.5-1.8s1.8-0.9,2.5-1.6c0.6-0.6,1.3-1.1,2-1.6
			c0.3-0.2,0.9-0.4,1.2-0.7c0.2-0.2,0.1-0.4,0.1-0.7c0-0.9,0.1-1.8,0.1-2.7c0-1,0.2-2,0.2-2.9c0.1-0.6,0.1-1.2,0.1-1.8
			s-0.1-1.1-0.1-1.7c0-1.1,0.1-2.2,0-3.2c0-0.4-0.1-0.7-0.1-1.1C58.5,35.1,58.9,34.5,58.5,34.8z"/>
		<path class="st5" d="M70.1,34.8c0.8,0.8,1.5,1.4,2.4,1.9c0.4,0.2,0.7,0.4,1,0.6c0.7,0.4,1.4,0.8,2.1,1.3s1.3,0.9,2.1,1.3
			c0.6,0.3,1.2,0.6,1.8,1c0.5,0.5,1.1,0.9,1.8,1.2c0.2,0.1,0.7,0.2,0.8,0.3c0.2,0.2,0.2,0.9,0.2,1.2c0.1,0.9,0.1,1.9,0,2.8
			c-0.2,2.9,0.3,5.9,0.1,8.8c0,0.8,0,1.7-0.1,2.5c0,0.6,0,1.2-0.5,1.7c-0.3,0.2-0.9,0.3-1.2,0.2c-0.5-0.2-0.6-1-0.8-1.5
			c-0.2-0.5-0.3-1.1-0.4-1.6c-0.1-0.7-0.3-0.8-0.9-1.2c-0.8-0.6-1.7-1.3-2.5-1.8s-1.8-0.9-2.5-1.6c-0.6-0.6-1.3-1.1-2-1.6
			c-0.3-0.2-0.9-0.4-1.2-0.7c-0.2-0.2-0.1-0.4-0.1-0.7c0-0.9-0.1-1.8-0.1-2.7c0-1-0.2-2-0.2-2.9c-0.1-0.6-0.1-1.2-0.1-1.8
			s0.1-1.1,0.1-1.7c0-1.1-0.1-2.2,0-3.2c0-0.4,0.1-0.7,0.1-1.1C70,35.1,69.7,34.5,70.1,34.8z"/>
		<path class="st4" d="M49.1,46.5c0.1,2.2,0,4.4-0.1,6.5c0,0.5,0,1.1,0,1.6c0,0.2,0.1,0.4,0.1,0.7c0,0.4-0.1,0.8-0.1,1.2"/>
		<path class="st4" d="M79.5,46.5c-0.1,2.2,0,4.4,0.1,6.5c0,0.5,0,1.1,0,1.6c0,0.2-0.1,0.4-0.1,0.7c0,0.4,0.1,0.8,0.1,1.2"/>
		<path class="st6" d="M56.2,50.4c0.1-0.3-0.1-0.5-0.2-0.8c-0.1-0.2-0.1-0.5-0.1-0.8c-0.1-1.1-0.2-2.2-0.3-3.4
			c-0.4-3.1-1.1-6.2-1.3-9.4c-0.1-1.9-0.3-3.8-0.2-5.7c0.1-1.9,0-3.9,0.4-5.7c0.3-1.8,0.5-3.6,0.9-5.4s0.9-3.6,1.7-5.2
			c0.3-0.6,0.7-1.2,1-1.8c0.4-0.7,0.8-1.5,1.3-2.2c1.4-1.8,3.2-3.5,5.2-4.9c0.8,1.2,1.5,2.2,2.6,3.1c0.6,0.5,1.1,1.2,1.5,1.9
			c0.7,1.4,1.8,2.5,2.6,3.8c0.3,0.6,0.5,1.4,0.7,2.1c0.2,0.8,0.3,1.5,0.6,2.2c0.6,1.7,0.6,3.5,0.6,5.3c0,1.4,0.2,2.9,0.3,4.3
			c0,1.7,0,3.3,0,5c0,2.2-0.3,4.4-0.5,6.5c-0.2,1.8-0.4,3.6-0.7,5.4c-0.2,1.4-0.5,2.7-0.7,4.1c-0.1,0.6-0.2,1.4-0.2,2
			c-0.9,0-1.6,0-2.4-0.1c-0.2-0.1-0.5-0.1-0.7-0.1c-0.6-0.1-1.2-0.2-1.9-0.3c-1.4-0.3-2.6,0-4,0.1c-1.3,0.1-2.6,0.1-3.9,0.2
			c-0.3,0-0.6,0.1-1,0.2C57.2,50.8,56.8,51,56.2,50.4z"/>
		<path class="st7" d="M58.6,11.1c0.5-0.2,1-0.4,1.5-0.5c0.1,0,0.2-0.1,0.4-0.1c0.2-0.1,0.4-0.1,0.6-0.2c0.4-0.1,0.9-0.2,1.3-0.2
			c0.3,0,0.5,0,0.8-0.1c0.2,0,0.4,0,0.6,0c0.4,0,0.8,0,1.3,0.1c0.2,0,0.4,0.1,0.6,0.1s0.4,0,0.6,0c0.4,0,0.7,0.1,1.1,0.2
			c0.3,0.1,0.7,0.1,1,0.2c0.1,0,0.2,0,0.3,0.1c0.1,0,0.2,0.1,0.3,0.2c0.1,0.1,0.3,0,0.4,0.1c-0.3-0.3-0.4-0.8-0.6-1.1
			s-0.3-0.6-0.5-0.8c-1-1.4-2.1-2.7-3.5-3.7h-0.1h-0.1c-0.9,0.7-1.7,1.4-2.6,2c-0.4,0.2-0.7,0.4-0.9,0.7c-0.5,0.5-1,1.1-1.4,1.6
			C59.3,10.2,59,10.6,58.6,11.1z"/>
		<path class="st7" d="M61.5,24c-0.2-0.3-0.2-0.4-0.2-0.7c0-0.1,0-0.3,0-0.4c0-0.2,0-0.4,0-0.6c0-0.5,0-0.9,0.2-1.3
			c0.1-0.4,0.2-0.8,0.4-1.1c0.1-0.4,0.3-0.8,0.5-1.1c0.1-0.2,0.3-0.5,0.5-0.7s0.3-0.2,0.5-0.2c0.4-0.1,0.8-0.2,1.3-0.1
			c0.2,0.1,0.4,0.2,0.6,0.2c0.3,0.1,0.4,0.2,0.6,0.4c0.1,0.2,0.3,0.3,0.4,0.5s0.2,0.3,0.3,0.5c0.2,0.4,0.3,0.7,0.4,1.1
			c0,0.2,0,0.4,0,0.7c0,0.2,0,0.4,0.1,0.6c0,0.5,0.1,0.9,0.1,1.4c0,0.1,0,0.3,0,0.5c0,0.1,0,0.2,0,0.3c0.2,0.2,0,0.7-0.2,0.9
			c-0.2,0.2-0.5,0.3-0.7,0.4c-0.5,0.2-1.1,0.2-1.6,0.3c-0.3,0-0.7,0.1-1-0.1c-0.2-0.1-0.4-0.2-0.6-0.3C62.3,24.6,61.8,24.5,61.5,24z
			"/>
		<path class="st8" d="M73,25.8c-0.1,0-0.1-0.1-0.2-0.2s-0.2-0.1-0.4-0.1c-0.3-0.1-0.7-0.2-1-0.3c-0.3-0.1-0.6-0.2-0.9-0.3
			c-0.3,0-0.5-0.1-0.8-0.1c-0.4-0.1-0.9-0.1-1.3-0.3c-0.6-0.2-1.2-0.3-1.9-0.4c-0.4,0-1-0.1-1.7,0c-0.5,0-1.1,0-1.6,0
			c-0.7,0-1.3,0-2,0.1c-0.8,0.1-1.5,0.2-2.3,0.4c-0.3,0.1-0.7,0.2-1,0.3c-0.4,0.1-0.8,0.3-1.2,0.4s-0.7,0.2-1,0.3
			c-0.2,0.1-0.4,0.1-0.5,0.2c-0.4,0.2-0.4,0.2-0.8,0.4c-0.1,0.6-0.2,0.9-0.4,3c-0.1,0.7,0.1,1.8,0.1,2.5c0.3-0.2,0.6-0.5,1-0.6
			c0.2-0.1,0.4-0.1,0.6-0.2c0.4-0.1,0.7-0.2,1.1-0.3c0.4-0.1,0.8-0.3,1.3-0.4c0.2-0.1,0.5-0.1,0.7-0.1s0.5-0.1,0.7-0.2
			c0.4-0.1,0.8-0.1,1.2-0.2s0.8-0.1,1.2-0.1c0.3,0,0.7-0.1,1-0.1c0.4,0,0.8,0,1.2,0c0.3,0,0.7,0,1,0c0.2,0,0.3,0,0.5,0
			s0.4-0.1,0.6-0.1c0.3,0,0.6,0.1,0.9,0.1s0.7,0.1,1,0.1c0.3,0.1,0.5,0.2,0.8,0.2c0.3,0.1,0.6,0.1,0.9,0.2c0.4,0.1,0.8,0.1,1.1,0.2
			c0.2,0.1,0.5,0.1,0.7,0.1s0.4,0.1,0.6,0.2c0.3,0.1,0.5,0.2,0.8,0.3c0-1.3,0-2.7,0-4C73.2,26.4,73.4,26,73,25.8z"/>
		<path class="st7" d="M63.1,37.2c0.1-0.5,0.1-1.1,0.3-1.6c0.1-0.2,0.1-0.4,0.2-0.5c0.2-0.2,0.4-0.5,0.7-0.5
			c0.3-0.1,0.7,0.3,0.9,0.5c0.1,0.2,0.1,0.4,0.2,0.6c0.1,0.2,0.1,0.4,0.2,0.6c0,0.2,0.1,0.4,0.1,0.6c0,0.1,0.1,0.2,0,0.3
			c-0.2,0-0.4,0-0.7,0c-0.3,0-0.5-0.1-0.7,0c-0.2,0.1-0.3,0.1-0.5,0.2C63.6,37.5,63.4,37.5,63.1,37.2z"/>
		<path class="st7" d="M63.2,45.3c0.1-0.5,0.1-1.1,0.4-1.5c0.2-0.2,0.3-0.3,0.5-0.5c0.2-0.2,0.5-0.4,0.7-0.3c0.1,0,0.1,0.1,0.2,0.2
			c0.1,0.1,0.2,0.1,0.2,0.2c0.1,0.1,0.2,0.3,0.2,0.4c0.1,0.3,0.2,0.5,0.3,0.8c0.1,0.2,0.1,0.4,0.1,0.6c0,0.2-0.1,0.1-0.2,0.1
			c-0.3,0-0.5-0.1-0.8-0.1c-0.2,0-0.4,0.1-0.6,0.1c-0.1,0-0.3,0-0.4,0C63.7,45.4,63.6,45.5,63.2,45.3z"/>
	</g>
	<path class="st9" d="M69.1,49.2c1-4.2,1.5-8.5,1.7-12.8c0.1-2.2,0.2-4.3,0.2-6.5c0-1.6,0.3-3.5-0.3-5c-0.4-1-1.1-2-1.6-3
		c-0.2-0.3-0.4-0.6-0.3-1s0.4-0.7,0.7-0.6c0.3,0.1,0.5,0.4,0.7,0.3c0.1-0.1,0.2-0.2,0.2-0.4c0.2-3-1.6-5.7-3.3-8.1"/>
	<path class="st1" d="M54.9,71.7c0.4-0.9,1.3-1.5,2.2-1.8s1.6-0.2,2.5-0.1c0.7,0.1,1.2,0.2,1.8,0.5c-0.2-0.6,0.7-1.7,1-2.1
		c0.4-0.4,0.9-0.9,1.4-1.2c1.4-1,3.8-1.5,5.4-0.4c0.7,0.5,1.5,1.5,1.5,2.4c0.3-0.6,1.7-0.4,2.1-0.4c0.3,0.1,2.4,1,2.1,1.5
		c0.2-0.4,0.2-0.9,0.5-1.3s0.7-0.8,1.1-0.9c0.4-0.2,1-0.2,1.5-0.3c0.5-0.1,1-0.3,1.6-0.3c0.5,0,1.8,0.1,2,0.6
		c0.6-1.2,1.3-2.5,2.5-3.1c0.4-0.2,0.8-0.4,1.3-0.6C86,64,86.7,64,87.3,64c0.5,0,1.1-0.2,1.6-0.1c0.6,0.1,1.3,0.3,1.9,0.4
		c0.5,0.1,1.1,0.2,1.7,0.4c0.5,0.2,1.1,0.6,1.6,1c0.4,0.3,0.8,0.7,1.2,1c0.4,0.3,0.8,0.6,1.2,1c0.7,0.8,1.2,1.5,1.4,2.5
		c0.1,0.4,0.4,1.2,0.1,1.6c0.8-0.8,1.3-1.6,2.3-1.9c0.6-0.2,1.7-0.2,2.3,0.1c0.4,0.2,0.6,0.4,0.9,0.7c0.3-0.1,0.4-0.5,0.6-0.8
		c0.3-0.4,0.7-0.6,1.1-0.9c0.5-0.3,1.1-0.4,1.7-0.5c0.6-0.2,1.2-0.3,1.8-0.2c1.6,0.2,3.3,0.9,4.4,2.2c0.6,0.7,0.9,1.6,1.2,2.5"/>
	<path class="st4" d="M66.8,54.3c0.1,2.9,0.1,5.9,0.1,8.8"/>
	<path class="st4" d="M61.7,54c-0.1,2.1-0.1,4.1-0.2,6.2"/>
</g>
</svg>
