<?xml version="1.0" encoding="utf-8"?>
<!-- Generator: Adobe Illustrator 27.2.0, SVG Export Plug-In . SVG Version: 6.00 Build 0)  -->
<svg version="1.1" id="Layer_1" xmlns="http://www.w3.org/2000/svg" xmlns:xlink="http://www.w3.org/1999/xlink" x="0px" y="0px"
	 viewBox="0 0 130 80" style="enable-background:new 0 0 130 80;" xml:space="preserve">
<style type="text/css">
	.st0{fill:#70CEFF;stroke:#000000;stroke-linecap:round;stroke-linejoin:round;stroke-miterlimit:10;}
	.st1{fill:#FF87EB;}
	.st2{fill:none;stroke:#000000;stroke-linecap:round;stroke-linejoin:round;stroke-miterlimit:10;}
</style>
<g>
	<g>
		<path class="st0" d="M112.2,47.2c0.4-1.4,1.1-2.8,1.1-4.3c0-1.8-0.1-3.6-0.3-5.4c-0.5-3.3-1.4-6.6-3.3-9.4
			c-1.1-1.7-2.6-3.1-4.4-4.2c-0.9-0.5-1.9-0.8-2.8-1.2c-0.9-0.3-1.5-0.9-2.5-1c-1.5-0.2-2.9-0.6-4.4-0.6c-1.5,0-3,0.1-4.4,0.3
			c-1.5,0.2-2.8,0.4-4.2,1c-2,0.9-3.8,1.9-5.1,3.6c-0.6,0.8-1.1,1.7-1.5,2.6c-0.3,0.7-0.6,1.2-0.6,1.9c-0.3,0.1-0.7,0-1.1,0
			c-0.8,0.1-1.5,0.1-2.3,0.2c-1.5,0.1-3-0.1-4.5,0c-1.8,0.1-3.6,0.1-5.4,0c-2,0-4.1,0.1-6.1,0.1c-1.7,0-3.3,0-5,0.1
			c-2,0-3.9-0.1-5.9-0.1c-1.1,0-2.2,0-3.3,0c-1.3,0-2.5-0.2-3.8-0.2c-1.1,0-2.2,0.1-3.2,0c-1.3-0.1-2.6,0-3.9,0
			c-1.8,0-3.6-0.1-5.4,0c-0.7,0-1.4-0.1-2,0.3c-1.3,0.8-2.7,1.5-3.9,2.3c-1,0.6-1.8,1.4-2.7,2.1c-0.9,0.6-1.7,1.4-2.6,2
			c-0.4,0.3-0.8,0.6-1.2,0.9c-0.1,0.1-0.5,0.3-0.6,0.4c-0.2,0.6,1.4,1.5,1.8,1.8c0.6,0.5,1.2,1,1.8,1.6c0.5,0.4,1.1,0.7,1.6,1.1
			c0.8,0.6,1.5,1.2,2.3,1.8c0.8,0.6,1.5,1.2,2.2,1.8c0.1,0.1,0.2,0.1,0.3,0.2c0.1,0,0.2,0,0.3,0c1.3,0,2.6,0,3.8-0.1
			c0.6,0,0.7-0.1,1,0.5c0.2,0.5,0.6,1,0.9,1.5c0.1,0.1,0.2,0.3,0.2,0.5c0.1,0.3,0.1,0.8,0.3,1.1c0,0,0.1,0.1,0.1,0.1
			c0,0,0.1,0,0.1-0.1c0.9-0.6,1.3-2.1,1.7-3.1c0.3-0.9,0.6-0.3,1,0.3c0.4,0.5,0.7,1,1.1,1.4c0.2,0.2,0.6,1.7,0.9,1.7
			c0.4,0,0.8-1.6,1.1-1.8c0.4-0.4,1.6-2.4,2.1-1.8c0.3,0.3,0.6,1,0.8,1.4c0.2,0.4,0.6,2,0.6,2.5c0.5-0.2,1-0.4,1.5-0.3
			c0.9,0,1.7-0.1,2.6,0.1c0.5,0.1,0.7,0.2,0.9-0.4c0.2-0.5,0.2-1.6,0.2-2.9c1,0.1,2.2,0.1,2.5,0.1c1.2,0,1.8-0.1,3.1-0.1
			c0.1,0.8,0.8,1.7,1.3,2.3c0.4,0.5,0.6,1.1,1,1.6c0.5-0.1,0.8-0.7,1.1-1c0.5-0.5,1-1.1,1.5-1.5c0.3,0.4,0.5,0.8,0.7,1.2
			c0.3,0.5,0.6,0.9,1,1.3c0.2,0.2,0.5,0.6,0.8,0.6c0.3,0,0.6-0.4,0.8-0.6c0.7-0.7,1.2-2.3,1.8-3c0.2-0.3,0.4-0.7,0.7-0.7
			c0.3,0,0.8,0.2,1.1,0.2c0.8,0.1,1.5,0.1,2.3,0.1c1.3-0.1,2.7-0.2,4.1-0.2c2,0,3.9-0.3,5.8-0.3c0,1.5,0.7,3,1.7,4.1
			c1,1.2,2.2,2.1,3.5,2.9c1.4,0.9,2.9,1.8,4.4,2.4c1.5,0.6,3.3,1.2,4.8,1.4c0.9,0.1,1.8,0.4,2.8,0.5c0.9,0.1,1.7,0,2.6-0.1
			c0.8,0,1.6,0,2.5-0.2c0.5-0.1,0.9-0.3,1.4-0.4c0.4-0.1,0.9-0.2,1.3-0.4c1.5-0.7,3.1-1.6,4.4-2.7c1.3-1.2,2.4-2.5,3.5-3.9
			C111.2,49.9,111.8,48.6,112.2,47.2z M105.4,42.9c-0.7,0.8-1.8,1.2-2.7,1.7c-1.8,1-4,0.9-5.6-0.3c-1.6-1.1-2.7-3.5-2.1-5.4
			c0.3-1,1-2,1.8-2.8c0.8-0.7,1.6-1.3,2.6-1.6c2-0.6,4.7-0.2,5.9,1.6c0.2,0.4,0.5,0.8,0.7,1.2c0.4,0.9,0.6,1.8,0.5,2.8
			C106.4,41.2,106.1,42.1,105.4,42.9z"/>
		<g>
			<path class="st1" d="M76.7,38.4c-1.5-0.3-2.7-0.5-4.2-0.5c-0.6,0-1.3,0-1.9,0c-1.3,0-2.6-0.2-3.9-0.1c-1.2,0-2.5,0-3.7-0.1
				c-1.4-0.1-2.8,0.1-4.2,0.1c-1.3,0-2.7,0.1-4,0c-1.3-0.1-2.5,0.2-3.8,0.1c-2.8-0.3-5.7-0.2-8.6-0.5c-1.3-0.1-2.6-0.1-4-0.1
				c-1.4,0-2.9-0.1-4.4,0c-0.8,0.1-1.7,0.3-2.6,0.3c-0.4,0-0.8-0.1-1.2-0.1c-1.2,0.1-2.8,0.5-2.3,2c0.2,0.6,0.4,0.9,0.9,1.2
				c0.8,0.4,1.9,0.4,2.8,0.3c1.2-0.2,2.3-0.3,3.6-0.4c0.7,0,1.5,0,2.2,0.1c1.1,0.1,2.2,0,3.3,0c2.2,0.1,4.4,0.3,6.5,0
				c2.3-0.3,4.7,0.1,7,0c1,0,2,0,3,0c1.2,0,2.4,0.1,3.5,0.1c0.9,0,1.9-0.2,2.8,0c0.8,0.1,1.5,0.3,2.3,0.3c1.6,0,3.3-0.2,4.9-0.1
				c0.6,0.1,1.3,0.2,1.9,0.2c0.6,0,1.2-0.1,1.8-0.1c0.7,0,1.5,0,2.1-0.5c0.4-0.3,0.6-0.7,0.8-1.1C77.8,38.8,77.6,38.6,76.7,38.4z"/>
			<path class="st2" d="M76.7,38.4c-1.5-0.3-2.7-0.5-4.2-0.5c-0.6,0-1.3,0-1.9,0c-1.3,0-2.6-0.2-3.9-0.1c-1.2,0-2.5,0-3.7-0.1
				c-1.4-0.1-2.8,0.1-4.2,0.1c-1.3,0-2.7,0.1-4,0c-1.3-0.1-2.5,0.2-3.8,0.1c-2.8-0.3-5.7-0.2-8.6-0.5c-1.3-0.1-2.6-0.1-4-0.1
				c-1.4,0-2.9-0.1-4.4,0c-0.8,0.1-1.7,0.3-2.6,0.3c-0.4,0-0.8-0.1-1.2-0.1c-1.2,0.1-2.8,0.5-2.3,2c0.2,0.6,0.4,0.9,0.9,1.2
				c0.8,0.4,1.9,0.4,2.8,0.3c1.2-0.2,2.3-0.3,3.6-0.4c0.7,0,1.5,0,2.2,0.1c1.1,0.1,2.2,0,3.3,0c2.2,0.1,4.4,0.3,6.5,0
				c2.3-0.3,4.7,0.1,7,0c1,0,2,0,3,0c1.2,0,2.4,0.1,3.5,0.1c0.9,0,1.9-0.2,2.8,0c0.8,0.1,1.5,0.3,2.3,0.3c1.6,0,3.3-0.2,4.9-0.1
				c0.6,0.1,1.3,0.2,1.9,0.2c0.6,0,1.2-0.1,1.8-0.1c0.7,0,1.5,0,2.1-0.5c0.4-0.3,0.6-0.7,0.8-1.1C77.8,38.8,77.6,38.6,76.7,38.4z"/>
		</g>
		<path class="st2" d="M28.2,43.5c3,0.2,6-0.3,9-0.1c6.6,0.4,13.1,0.7,19.7,0.8c3.3,0.1,6.6,0.1,9.9,0.1c3,0,6.1-0.5,9-0.1
			c0.3,0,0.8-0.2,1,0"/>
		<path class="st2" d="M109.4,40.9c0.3,1.9,0.5,3.6,0,5.4c-0.2,0.6-0.5,1.3-0.8,1.8c-0.2,0.4-0.5,0.7-0.7,1
			c-0.3,0.4-0.5,0.9-0.8,1.4c-0.5,0.8-1.3,1.4-2.1,1.9c-0.7,0.5-1.4,1-2.2,1.4c-0.7,0.4-1.4,0.7-2.1,1.1c-0.7,0.3-1.4,0.4-2.1,0.6
			c-1.2,0.2-2.6,0.1-3.8-0.1c-0.7-0.1-1.3-0.4-2-0.5c-0.6-0.1-1.2-0.1-1.9-0.3c-1.1-0.3-2.1-0.8-3.2-1.3c-0.5-0.2-0.9-0.4-1.4-0.6
			c-0.6-0.2-1-0.6-1.5-1c-1.7-1.3-3.7-2.8-3.7-5.1"/>
	</g>
</g>
</svg>
