<?xml version="1.0" encoding="utf-8"?>
<!-- Generator: Adobe Illustrator 27.2.0, SVG Export Plug-In . SVG Version: 6.00 Build 0)  -->
<svg version="1.1" id="Layer_1" xmlns="http://www.w3.org/2000/svg" xmlns:xlink="http://www.w3.org/1999/xlink" x="0px" y="0px"
	 viewBox="0 0 130 80" style="enable-background:new 0 0 130 80;" xml:space="preserve">
<style type="text/css">
	.st0{fill:none;stroke:#000000;stroke-linecap:round;stroke-linejoin:round;stroke-miterlimit:10;}
	.st1{fill:#70CEFF;stroke:#000000;stroke-linecap:round;stroke-linejoin:round;stroke-miterlimit:10;}
	.st2{fill:#70CEFF;}
	.st3{fill:#FFE096;stroke:#000000;stroke-linecap:round;stroke-linejoin:round;stroke-miterlimit:10;}
	.st4{fill:#FFB5F1;stroke:#000000;stroke-linecap:round;stroke-linejoin:round;stroke-miterlimit:10;}
	.st5{fill:#D7E48A;stroke:#000000;stroke-linecap:round;stroke-linejoin:round;stroke-miterlimit:10;}
</style>
<g>
	<path class="st0" d="M26.5,34.8c-0.2,1.1-0.4,2.3-0.4,3.5c0,0.5,0,1.1,0.1,1.6c0.1,1.2,0.2,2.5,0.2,3.7c0,1.3,0.3,2.8,0.7,4
		c0.4,0.9,0.4,2,0.8,2.9c0.5,1.2,0.9,2.5,1.3,3.7c0.4,1.2,0.9,2.4,1.4,3.5c0.3,0.6,0.7,1.1,1,1.7c0.3,0.5,0.5,1.1,0.8,1.6
		c0.5,0.8,1.1,1.5,1.8,2.1c1.1,1,1.7,2.3,2.8,3.2c1,0.9,2,1.8,2.9,2.8c1.1,1.1,2.3,2,3.6,2.8c1.1,0.8,2.1,1.8,3.3,2.4
		c0.5,0.2,0.9,0.4,1.4,0.6c0.5,0.2,1,0.5,1.6,0.7c0.6,0.2,1.1,0.4,1.7,0.6c0.5,0.2,1,0.6,1.6,0.8c1.1,0.5,2.3,0.9,3.5,1.2
		c0.9,0.2,1.8,0.3,2.6,0.4c2.4,0.3,4.8,0.3,7.2,0c2.3-0.3,4.7-0.4,6.9-1c1.1-0.3,2.3-0.6,3.4-0.9c0.4-0.1,0.6-0.3,1-0.4
		c0.6-0.2,1.2-0.3,1.7-0.6c1-0.5,2.1-0.7,3.1-1.3c0.8-0.5,1.6-0.9,2.3-1.4c0.8-0.5,1.8-0.7,2.6-1.3c0.8-0.6,1.6-1,2.3-1.8
		c1.3-1.3,2.8-2.6,3.9-4.1c0.3-0.3,0.6-0.6,0.8-0.9c0.3-0.4,0.6-0.8,0.9-1.2c0.5-0.7,1.1-1.3,1.6-2c0.8-1.1,1.7-2.3,2.4-3.5
		c0.7-1.1,1.3-2.4,1.8-3.6c0.3-0.7,0.6-1.4,0.9-2.2c0.3-0.8,0.4-1.7,0.6-2.5c0.2-1.1,0.2-2.2,0.5-3.3c0.2-0.9,0.3-1.9,0.4-2.8
		c0.1-0.9,0.1-1.8,0.2-2.7c0.1-0.8,0.3-1.7,0.3-2.5c0-1.1,0-2.1-0.1-3.2c0-0.5,0-1-0.1-1.5c-0.1-0.6-0.3-1.2-0.4-1.9
		c-0.1-1.1-0.6-2.1-0.8-3.2c-0.2-1-0.5-1.9-0.9-2.8c-0.4-1.1-0.7-2.1-1.3-3.1c-0.4-0.8-0.8-1.5-1.2-2.3c-0.5-1-1-1.9-1.5-2.8
		c-0.4-0.8-0.9-1.4-1.5-2.1c-0.5-0.6-1.1-1-1.6-1.6c-0.6-0.7-1.4-1.3-2-2c-0.3-0.3-0.6-0.5-1-0.8c-0.4-0.3-0.7-0.6-1.1-0.9
		c-0.8-0.7-1.6-1.4-2.6-2c-1.9-1.1-3.8-2.1-5.6-3.4c-1.6-1.1-3.4-2-5.3-2.6c-0.4-0.1-0.7-0.2-1.1-0.3c-0.6-0.2-1.1-0.5-1.7-0.7
		c-0.4-0.1-0.9-0.1-1.3-0.2c-0.4-0.1-0.9-0.2-1.3-0.2c-0.9-0.1-1.9-0.2-2.8-0.3c-1-0.1-2,0.1-3,0c-1.1-0.1-2.2,0-3.3,0
		c-0.8,0-1.7,0.2-2.5,0.4c-0.5,0.1-0.9,0.2-1.4,0.3c-0.7,0.1-1.2,0.4-1.9,0.6c-0.5,0.2-1.1,0.3-1.7,0.5c-0.5,0.2-1,0.5-1.5,0.7
		c-1.4,0.6-2.9,0.7-4.3,1.2c-0.4,0.1-0.7,0.4-1.1,0.5c-0.4,0.2-0.9,0.3-1.3,0.6c-0.4,0.2-0.7,0.5-1.1,0.6c-0.4,0.2-0.7,0.4-1.1,0.6
		c-1.5,0.9-2.8,1.9-4.2,3c-0.6,0.5-1.2,1-1.8,1.6c-0.6,0.5-1,1.2-1.6,1.7c-1.4,1.2-2.4,2.9-3.4,4.4c-0.4,0.6-0.9,1.2-1.3,1.8
		c-0.4,0.5-0.8,0.9-1,1.5c-0.4,0.8-1,1.6-1.4,2.5c-0.4,0.8-0.7,1.6-1,2.5c-0.5,1.1-0.8,2.3-1.2,3.5c-0.3,1-0.7,2-0.9,2.9
		c-0.1,0.5-0.1,1-0.2,1.5C26.6,34.1,26.6,34.4,26.5,34.8C26.5,35.4,26.1,36.3,26.5,34.8z"/>
	<path class="st1" d="M91.4,51.6c0-0.2-0.1-0.3-0.1-0.5c-0.1-0.3-0.1-0.5-0.2-0.8c-0.1-0.4-0.3-0.8-0.5-1.2
		c-0.2-0.4-0.5-0.6-0.8-0.9c-0.3-0.3-0.7-0.5-1-0.8c-0.4-0.3-0.7-0.5-1.1-0.7c-1.1-0.5-2.3-0.8-3-0.9c-0.7,0-1.2,0-1.8,0.3
		c-0.1,0.1-0.3,0.1-0.4,0.2c-0.4,0.1-0.8,0.4-1.2,0.7c-0.6,0.6-1.2,1.2-1.7,2c-0.2,0.3-0.4,0.6-0.5,0.9c-0.1,0.3-0.3,0.5-0.4,0.8
		c0,0.1-0.1,0.2-0.1,0.3c-0.2,0-0.3-0.1-0.5-0.1c-0.4-0.1-0.7-0.2-1.1-0.2c-0.6-0.1-1.1-0.4-1.7-0.6c-0.8-0.4-1.7-0.7-2.5-1.1
		c-0.4-0.2-0.8-0.5-1.3-0.7c-0.4-0.2-0.8-0.5-1.3-0.7c-0.5-0.2-0.9-0.6-1.4-0.8c-0.2-0.1-0.5-0.2-0.7-0.4c-0.2-0.1-0.4-0.3-0.7-0.4
		c-0.5-0.3-0.9-0.6-1.4-0.9c-0.3-0.2-0.6-0.4-0.9-0.6c-0.3-0.3-0.7-0.5-1-0.8c-0.3-0.2-0.6-0.5-0.9-0.7c-0.4-0.3-0.8-0.5-1.2-0.8
		c-0.4-0.3-0.7-0.7-1-1c-0.7-0.6-1.4-1.3-2-1.9c-0.8-0.7-1.4-1.5-2-2.3c-0.2-0.3-0.4-0.6-0.6-0.8c-0.2-0.2-0.4-0.5-0.5-0.7
		c-0.3-0.5-0.5-1-0.8-1.5c-0.1-0.3-0.3-0.5-0.5-0.7c0-0.1,0-0.1-0.1-0.2c0-0.3,0-0.5,0.1-0.8c0-0.4,0-0.8,0-1.1
		c0.1-0.9,0.2-1.8,0.2-2.7c0-1.7,0-3.4,0.2-5c0-0.2,0-0.4,0-0.6c0.1,0,0.2-0.1,0.3-0.1c0.8-0.3,1.6-0.6,2.1-1.3
		c0.4-0.6,0.9-1.2,1.2-1.8c0.2-0.5,0.4-1.1,0.5-1.7c0.1-0.6,0.2-1.2,0.2-1.9c0-0.3,0-0.7,0-1c0-0.2-0.1-0.3-0.1-0.5
		c-0.1-0.3-0.1-0.5-0.2-0.8c-0.1-0.4-0.3-0.8-0.5-1.2c-0.2-0.4-0.5-0.6-0.8-0.9c-0.3-0.3-0.7-0.5-1-0.8c-0.4-0.3-0.7-0.5-1.1-0.7
		c-1.1-0.5-2.3-0.8-3-0.9c-0.7,0-1.2,0-1.8,0.3c-0.1,0.1-0.3,0.1-0.4,0.2c-0.4,0.1-0.8,0.4-1.2,0.7c-0.6,0.6-1.2,1.2-1.7,2
		c-0.2,0.3-0.4,0.6-0.5,0.9c-0.1,0.3-0.3,0.5-0.4,0.8c-0.2,0.4-0.4,0.8-0.5,1.3c-0.1,0.5-0.1,1.1-0.1,1.6c0,0.6,0.2,1.3,0.5,1.8
		c0.2,0.4,0.4,0.7,0.5,1.1c0.1,0.3,0.3,0.6,0.6,0.8c0.5,0.5,1.1,1,1.7,1.4c0.2,0.1,0.4,0.2,0.6,0.3c0,0,0.1,0,0.1,0
		c0,0.3,0,0.6,0,0.9c0,0.9,0.1,1.8,0.1,2.7c0,0.4-0.1,0.9-0.1,1.3c0,0.5,0,0.9,0,1.3c0,0.8-0.1,1.7-0.1,2.5c0,1.1-0.1,2.2-0.2,3.2
		c-0.1,0.6,0,1.3-0.1,1.9c-0.1,0.6-0.1,1.2-0.1,1.8c0.1,1,0.1,2.1,0.1,3.1c0.1,1.1,0,2.2,0,3.3c0,0.5,0.1,1,0.1,1.6
		c0,0.3-0.1,0.5-0.1,0.8c0,0.4,0.1,0.7,0.1,1.1c0.1,1,0,2.1,0,3.1c0,0.5,0.1,0.9,0.1,1.4c0,0.4,0,0.9,0,1.3c0,0.5,0.1,1,0.2,1.5
		c0,0.3,0.1,0.6,0.1,0.9c-0.5,0.2-1.1,0.5-1.6,0.9c-0.2,0.1-0.4,0.3-0.6,0.5c-0.2,0.2-0.4,0.5-0.6,0.7c-0.3,0.2-0.5,0.5-0.7,0.8
		c-0.2,0.3-0.4,0.6-0.6,0.9c-0.1,0.3-0.3,0.6-0.3,0.9c-0.1,0.5,0,1.1-0.1,1.6c-0.1,0.8-0.1,1.7,0.4,2.4c0.4,0.6,0.7,1.3,1.2,1.8
		c0.4,0.4,0.9,0.9,1.4,1.2c0.5,0.3,1.1,0.6,1.6,0.9c0.3,0.2,0.7,0.3,1,0.4c0.2,0,0.3,0,0.5,0c0.3,0,0.5,0.1,0.8,0.1
		c0.4,0,0.9,0,1.3,0c0.4,0,0.8-0.2,1.2-0.3c0.4-0.1,0.8-0.4,1.1-0.6c0.4-0.2,0.8-0.4,1.1-0.7c0.9-0.8,1.6-1.8,2-2.4
		c0.2-0.6,0.5-1.1,0.4-1.8c0-0.2,0-0.3,0-0.5c0-0.4-0.1-0.9-0.2-1.4c-0.3-0.8-0.6-1.6-1.2-2.3c-0.2-0.3-0.4-0.6-0.7-0.8
		c-0.2-0.2-0.3-0.5-0.6-0.7c-0.3-0.3-0.6-0.6-1-0.9c-0.2-0.2-0.5-0.3-0.8-0.4c-0.1-0.5-0.4-1-0.5-1.5c-0.1-0.5-0.1-1.1,0-1.7
		c0-0.3,0-0.7,0-1c0-0.3,0-0.6,0-1c0-0.4-0.1-0.8-0.1-1.2c0-0.5,0.1-0.9,0.1-1.4c0-0.4-0.1-0.8-0.1-1.2c0-0.4,0-0.8,0-1.3
		c0-0.3,0-0.7,0-1c0-0.4-0.1-0.9-0.1-1.3c0-0.9,0.1-1.9,0-2.8c0.2,0.2,0.3,0.4,0.5,0.5c0.2,0.2,0.5,0.4,0.7,0.6
		c0.3,0.3,0.7,0.6,1,0.9c0.4,0.4,0.8,0.7,1.2,1.1c0.2,0.2,0.5,0.4,0.7,0.5c0.2,0.1,0.5,0.2,0.7,0.3c0.4,0.2,0.7,0.6,1.1,0.9
		c0.3,0.2,0.5,0.4,0.8,0.6c0.2,0.2,0.5,0.3,0.7,0.5c0.4,0.3,0.7,0.6,1.1,0.9c0.3,0.2,0.6,0.5,1,0.7c0.2,0.2,0.5,0.3,0.7,0.5
		c0.3,0.2,0.5,0.4,0.8,0.6c0.3,0.2,0.6,0.4,0.9,0.6c0.4,0.3,0.8,0.5,1.3,0.7c0.3,0.2,0.6,0.4,0.9,0.6c0.3,0.2,0.6,0.4,0.9,0.6
		c0.3,0.2,0.7,0.3,1,0.4c0.5,0.2,0.9,0.5,1.4,0.7c0.6,0.2,1.1,0.5,1.7,0.7c0.5,0.1,1,0.4,1.5,0.5c0.2,0,0.4,0.1,0.5,0.1
		c0.3,0,0.5,0.1,0.8,0.1c0.4,0.1,0.7,0.3,1.1,0.3c0.3,0.1,0.7,0.1,1,0.1c0,0.1,0,0.1,0.1,0.2c0.2,0.4,0.4,0.7,0.5,1.1
		c0.1,0.3,0.3,0.6,0.6,0.8c0.5,0.5,1.1,1,1.7,1.4c0.2,0.1,0.4,0.2,0.6,0.3c0.3,0.1,0.6,0.2,0.9,0.3c0.3,0.2,0.7,0.2,1,0.3
		c0.3,0.1,0.7,0.2,1.1,0.2c0.3,0,0.6,0,0.9,0c0.5-0.1,1-0.4,1.5-0.6c0.8-0.3,1.6-0.6,2.1-1.3c0.4-0.6,0.9-1.2,1.2-1.8
		c0.2-0.5,0.4-1.1,0.5-1.7c0.1-0.6,0.2-1.2,0.2-1.9C91.5,52.3,91.4,51.9,91.4,51.6z"/>
	<g>
		<path class="st2" d="M51.9,13.9c-0.4,0.2-0.9,0.3-1.3,0.6c-0.1,0.1-0.3,0.2-0.4,0.3c-0.3,0.3-0.5,0.7-0.7,1
			c-0.2,0.3-0.3,0.7-0.4,1c-0.1,0.3-0.1,0.8,0,1.1c0.1,0.4,0.4,0.7,0.6,1.1c0.2,0.3,0.3,0.6,0.6,0.8c0.5,0.4,1.1,0.7,1.8,0.7
			c0.4,0,0.8,0.1,1.1-0.1c0.4-0.1,0.6-0.4,0.9-0.6c0.5-0.5,1.2-0.9,1.5-1.6c0.2-0.5,0.3-1.1,0.3-1.7c0-0.6-0.2-1.1-0.6-1.6
			c-0.1-0.2-0.3-0.3-0.5-0.4c-0.2-0.1-0.3-0.2-0.4-0.3c-0.3-0.1-0.6-0.3-0.9-0.4C53.2,14,53,14,52.7,13.9
			C52.4,13.9,52.1,13.8,51.9,13.9z"/>
		<path class="st2" d="M52.6,21.7c-0.1,0-0.2,0-0.3,0l-0.2,0c-0.9,0-1.7-0.3-2.4-0.9c-0.4-0.3-0.6-0.8-0.8-1.1
			c-0.1-0.1-0.1-0.2-0.2-0.2c-0.2-0.3-0.5-0.7-0.5-1.2c0-0.3-0.1-1,0.1-1.5c0.1-0.4,0.3-0.8,0.5-1.1c0.2-0.4,0.5-0.9,0.9-1.3
			c0.1-0.1,0.3-0.3,0.4-0.4c0.4-0.3,0.8-0.5,1.2-0.7l0.3-0.1c0,0,0,0,0,0c0.5-0.2,0.9-0.2,1.4-0.1c0.3,0.1,0.6,0.1,1,0.3
			c0.3,0.1,0.6,0.3,0.9,0.4c0.2,0.1,0.3,0.2,0.4,0.3c0,0,0.1,0,0.1,0.1c0.3,0.1,0.5,0.3,0.8,0.6c0.5,0.7,0.8,1.4,0.8,2.2
			c0,0.8-0.2,1.5-0.4,2c-0.3,0.8-0.9,1.3-1.4,1.7c-0.1,0.1-0.2,0.2-0.3,0.3l-0.1,0.1c-0.3,0.2-0.6,0.5-1.1,0.7
			C53.2,21.7,52.9,21.7,52.6,21.7z M52.2,14.8L52,15c-0.3,0.1-0.6,0.2-0.7,0.4c-0.1,0.1-0.2,0.2-0.3,0.3c-0.1,0.2-0.3,0.4-0.5,0.7
			c-0.2,0.4-0.3,0.6-0.4,0.9c0,0.1,0,0.4,0,0.7c0,0.1,0.1,0.3,0.2,0.4c0.1,0.1,0.2,0.2,0.2,0.4c0.1,0.2,0.3,0.5,0.4,0.6
			c0.4,0.3,0.8,0.5,1.2,0.5l0.3,0c0.2,0,0.4,0,0.5,0c0.1,0,0.3-0.1,0.5-0.3l0.1-0.1c0.1-0.1,0.3-0.2,0.4-0.3
			c0.4-0.3,0.7-0.6,0.8-0.9c0.2-0.5,0.3-0.9,0.3-1.3c0-0.4-0.1-0.6-0.4-1c0,0-0.1-0.1-0.2-0.1c-0.1-0.1-0.3-0.2-0.4-0.2
			c-0.3-0.2-0.6-0.3-0.9-0.4c-0.2-0.1-0.4-0.1-0.6-0.2C52.4,14.9,52.3,14.8,52.2,14.8z"/>
	</g>
	<g>
		<path class="st2" d="M84.2,50.3c-0.4,0.2-0.9,0.3-1.3,0.6c-0.1,0.1-0.3,0.2-0.4,0.3c-0.3,0.3-0.5,0.7-0.7,1
			c-0.2,0.3-0.3,0.7-0.4,1c-0.1,0.3-0.1,0.8,0,1.1c0.1,0.4,0.4,0.7,0.6,1.1c0.2,0.3,0.3,0.6,0.6,0.8c0.5,0.4,1.1,0.7,1.8,0.7
			c0.4,0,0.8,0.1,1.1-0.1c0.4-0.1,0.6-0.4,0.9-0.6c0.5-0.5,1.2-0.9,1.5-1.6c0.2-0.5,0.3-1.1,0.3-1.7c0-0.6-0.2-1.1-0.6-1.6
			c-0.1-0.2-0.3-0.3-0.5-0.4C87,51.2,86.8,51,86.7,51c-0.3-0.1-0.6-0.3-0.9-0.4c-0.3-0.1-0.5-0.2-0.8-0.2
			C84.7,50.3,84.4,50.2,84.2,50.3z"/>
		<path class="st2" d="M84.9,58.1c-0.1,0-0.2,0-0.3,0l-0.2,0c-0.9,0-1.7-0.3-2.4-0.9c-0.4-0.3-0.6-0.8-0.8-1.1
			C81.1,56,81,55.9,81,55.8c-0.2-0.3-0.5-0.7-0.5-1.2c0-0.3-0.1-1,0.1-1.5c0.1-0.4,0.3-0.8,0.5-1.1c0.2-0.4,0.5-0.9,0.9-1.3
			c0.1-0.1,0.3-0.3,0.4-0.4c0.4-0.3,0.8-0.5,1.2-0.7l0.3-0.1c0,0,0,0,0,0c0.5-0.2,0.9-0.2,1.4-0.1c0.3,0.1,0.6,0.1,1,0.3
			c0.3,0.1,0.6,0.3,0.9,0.4c0.2,0.1,0.3,0.2,0.4,0.3c0,0,0.1,0,0.1,0.1c0.3,0.1,0.5,0.3,0.8,0.6c0.5,0.7,0.8,1.4,0.8,2.2
			c0,0.8-0.2,1.5-0.4,2c-0.3,0.8-0.9,1.3-1.4,1.7c-0.1,0.1-0.2,0.2-0.3,0.3L87,57.3c-0.3,0.2-0.6,0.5-1.1,0.7
			C85.5,58.1,85.2,58.1,84.9,58.1z M84.5,51.2l-0.2,0.1c-0.3,0.1-0.6,0.2-0.7,0.4c-0.1,0.1-0.2,0.2-0.3,0.3
			c-0.1,0.2-0.3,0.4-0.5,0.7c-0.2,0.4-0.3,0.6-0.4,0.9c0,0.1,0,0.4,0,0.7c0,0.1,0.1,0.3,0.2,0.4c0.1,0.1,0.2,0.2,0.2,0.4
			c0.1,0.2,0.3,0.5,0.4,0.6c0.4,0.3,0.8,0.5,1.2,0.5l0.3,0c0.2,0,0.4,0,0.5,0c0.1,0,0.3-0.1,0.5-0.3l0.1-0.1
			c0.1-0.1,0.3-0.2,0.4-0.3c0.4-0.3,0.7-0.6,0.8-0.9c0.2-0.5,0.3-0.9,0.3-1.3c0-0.4-0.1-0.6-0.4-1c0,0-0.1-0.1-0.2-0.1
			c-0.1-0.1-0.3-0.2-0.4-0.2c-0.3-0.2-0.6-0.3-0.9-0.4c-0.2-0.1-0.4-0.1-0.6-0.2C84.6,51.3,84.5,51.2,84.5,51.2z"/>
	</g>
	<g>
		<path class="st2" d="M55.8,64.2c0-0.5,0-1-0.1-1.4c-0.1-0.2-0.1-0.3-0.2-0.5c-0.1-0.3-0.4-0.7-0.7-1c-0.3-0.3-0.5-0.6-0.8-0.8
			c-0.3-0.2-0.7-0.4-1-0.5c-0.4-0.1-0.8,0.1-1.2,0.1c-0.3,0-0.7,0.1-1,0.2c-0.6,0.3-1.1,0.8-1.4,1.4c-0.1,0.3-0.4,0.7-0.4,1.1
			c0,0.4,0.1,0.7,0.2,1c0.2,0.7,0.3,1.5,0.9,2c0.4,0.4,0.9,0.7,1.4,0.9c0.6,0.2,1.1,0.3,1.7,0.1c0.2-0.1,0.4-0.2,0.5-0.3
			c0.1-0.1,0.3-0.2,0.5-0.3c0.2-0.2,0.5-0.4,0.7-0.7c0.2-0.2,0.4-0.4,0.5-0.7C55.7,64.7,55.8,64.5,55.8,64.2z"/>
		<path class="st2" d="M52.6,68c-0.5,0-0.9-0.1-1.3-0.3c-0.7-0.3-1.3-0.8-1.7-1.1c-0.6-0.6-0.9-1.3-1-2c0-0.1-0.1-0.3-0.1-0.4l0-0.1
			c-0.1-0.3-0.3-0.8-0.2-1.3c0-0.5,0.2-0.9,0.4-1.2l0.1-0.2c0.3-0.8,1-1.5,1.8-1.9c0.4-0.2,0.9-0.3,1.3-0.3c0.1,0,0.2,0,0.3,0
			c0.4-0.1,0.8-0.2,1.3,0c0.3,0.1,0.9,0.3,1.4,0.7c0.3,0.3,0.6,0.6,0.8,0.9l0.1,0.1c0.3,0.3,0.6,0.8,0.8,1.2
			c0.1,0.2,0.1,0.4,0.2,0.6c0.2,0.5,0.2,1,0.2,1.4l0,0.3c0,0.5-0.2,0.9-0.5,1.3c-0.2,0.2-0.4,0.5-0.7,0.8c-0.2,0.2-0.5,0.5-0.7,0.7
			c-0.1,0.1-0.3,0.2-0.4,0.3c0,0-0.1,0-0.1,0.1c-0.2,0.2-0.5,0.4-0.9,0.5C53.2,67.9,52.9,68,52.6,68z M52.8,61c-0.1,0-0.3,0-0.4,0.1
			c-0.1,0-0.3,0.1-0.4,0.1c-0.2,0-0.5,0.1-0.7,0.1c-0.4,0.2-0.7,0.5-0.9,0.9l-0.1,0.3c-0.1,0.2-0.2,0.4-0.2,0.5c0,0.1,0,0.3,0.1,0.5
			l0,0.1c0.1,0.2,0.1,0.3,0.1,0.5c0.1,0.4,0.3,0.9,0.5,1.1c0.4,0.3,0.8,0.6,1.1,0.8c0.3,0.1,0.6,0.2,1.1,0.1c0,0,0.1,0,0.2-0.1
			c0.1-0.1,0.2-0.2,0.4-0.2c0.3-0.2,0.5-0.4,0.7-0.7c0.2-0.2,0.3-0.3,0.4-0.5c0.1-0.1,0.1-0.2,0.1-0.3l0-0.3c0-0.3,0-0.6-0.1-0.8
			c0-0.1-0.1-0.3-0.1-0.4c-0.1-0.2-0.3-0.5-0.5-0.7l-0.1-0.1c-0.2-0.2-0.4-0.5-0.6-0.6C53.4,61.2,53.1,61.1,52.8,61
			C52.8,61,52.8,61,52.8,61z M54.9,64.2L54.9,64.2L54.9,64.2L54.9,64.2z"/>
	</g>
	<path class="st3" d="M51.9,13.1c-0.4,0.2-0.9,0.3-1.3,0.6c-0.1,0.1-0.3,0.2-0.4,0.3c-0.3,0.3-0.5,0.7-0.7,1c-0.2,0.3-0.3,0.7-0.4,1
		c-0.1,0.3-0.1,0.8,0,1.1c0.1,0.4,0.4,0.7,0.6,1.1c0.2,0.3,0.3,0.6,0.6,0.8c0.5,0.4,1.1,0.7,1.8,0.7c0.4,0,0.8,0.1,1.1-0.1
		c0.4-0.1,0.6-0.4,0.9-0.6c0.5-0.5,1.2-0.9,1.5-1.6c0.2-0.5,0.3-1.1,0.3-1.7c0-0.6-0.2-1.1-0.6-1.6c-0.1-0.2-0.3-0.3-0.5-0.4
		c-0.2-0.1-0.3-0.2-0.4-0.3c-0.3-0.1-0.6-0.3-0.9-0.4c-0.3-0.1-0.5-0.2-0.8-0.2C52.4,13.1,52.1,13,51.9,13.1z"/>
	<path class="st4" d="M84.2,49.5c-0.4,0.2-0.9,0.3-1.3,0.6c-0.1,0.1-0.3,0.2-0.4,0.3c-0.3,0.3-0.5,0.7-0.7,1c-0.2,0.3-0.3,0.7-0.4,1
		c-0.1,0.3-0.1,0.8,0,1.1c0.1,0.4,0.4,0.7,0.6,1.1c0.2,0.3,0.3,0.6,0.6,0.8c0.5,0.4,1.1,0.7,1.8,0.7c0.4,0,0.8,0.1,1.1-0.1
		c0.4-0.1,0.6-0.4,0.9-0.6c0.5-0.5,1.2-0.9,1.5-1.6c0.2-0.5,0.3-1.1,0.3-1.7c0-0.6-0.2-1.1-0.6-1.6c-0.1-0.2-0.3-0.3-0.5-0.4
		c-0.2-0.1-0.3-0.2-0.4-0.3c-0.3-0.1-0.6-0.3-0.9-0.4c-0.3-0.1-0.5-0.2-0.8-0.2C84.7,49.5,84.4,49.4,84.2,49.5z"/>
	<path class="st5" d="M55.8,63.4c0-0.5,0-1-0.1-1.4c-0.1-0.2-0.1-0.3-0.2-0.5c-0.1-0.3-0.4-0.7-0.7-1c-0.3-0.3-0.5-0.6-0.8-0.8
		c-0.3-0.2-0.7-0.4-1-0.5c-0.4-0.1-0.8,0.1-1.2,0.1c-0.3,0-0.7,0.1-1,0.2c-0.6,0.3-1.1,0.8-1.4,1.4c-0.1,0.3-0.4,0.7-0.4,1.1
		c0,0.4,0.1,0.7,0.2,1c0.2,0.7,0.3,1.5,0.9,2c0.4,0.4,0.9,0.7,1.4,0.9c0.6,0.2,1.1,0.3,1.7,0.1c0.2-0.1,0.4-0.2,0.5-0.3
		c0.1-0.1,0.3-0.2,0.5-0.3c0.2-0.2,0.5-0.4,0.7-0.7c0.2-0.2,0.4-0.4,0.5-0.7C55.7,63.9,55.8,63.6,55.8,63.4z"/>
</g>
</svg>
