<?xml version="1.0" encoding="utf-8"?>
<!-- Generator: Adobe Illustrator 27.3.1, SVG Export Plug-In . SVG Version: 6.00 Build 0)  -->
<svg version="1.1" id="Layer_1" xmlns="http://www.w3.org/2000/svg" xmlns:xlink="http://www.w3.org/1999/xlink" x="0px" y="0px"
	 viewBox="0 0 130 80" style="enable-background:new 0 0 130 80;" xml:space="preserve">
<style type="text/css">
	.st0{fill:#C49272;stroke:#000000;stroke-linecap:round;stroke-linejoin:round;stroke-miterlimit:10;}
	.st1{fill:#DAD8D8;stroke:#000000;stroke-linecap:round;stroke-linejoin:round;stroke-miterlimit:10;}
	.st2{fill:#70CEFF;stroke:#000000;stroke-linecap:round;stroke-linejoin:round;stroke-miterlimit:10;}
	.st3{fill:#FFEEBF;stroke:#000000;stroke-linecap:round;stroke-linejoin:round;stroke-miterlimit:10;}
	.st4{fill:none;stroke:#000000;stroke-linecap:round;stroke-linejoin:round;stroke-miterlimit:10;}
	.st5{fill:#C756B2;stroke:#000000;stroke-linecap:round;stroke-linejoin:round;stroke-miterlimit:10;}
	.st6{fill:#ACE3FF;}
	.st7{fill:#ACE3FF;stroke:#000000;stroke-linecap:round;stroke-linejoin:round;stroke-miterlimit:10;}
	.st8{fill:#FDC9DE;stroke:#000000;stroke-linecap:round;stroke-linejoin:round;stroke-miterlimit:10;}
	.st9{fill:#BCBABA;stroke:#000000;stroke-linecap:round;stroke-linejoin:round;stroke-miterlimit:10;}
	.st10{fill:none;}
	.st11{fill:#70CEFF;}
	.st12{fill:#FFE096;}
	.st13{fill:#FF87EB;}
</style>
<g>
	<path class="st0" d="M73.2,12.5c-0.2,0-0.5-0.1-0.7,0.1c-0.1,0-0.1,0.1-0.2,0.1c-0.1,0-0.1,0.1-0.1,0.2c0,0.2,0.1,0.3,0.2,0.4
		c0.1,0.1,0.4,0.1,0.5,0.1c0.2,0,0.3-0.1,0.4-0.2c0,0,0.1-0.1,0.1-0.1c0-0.1,0-0.1,0-0.2c0-0.1-0.1-0.2-0.1-0.3
		C73.3,12.6,73.2,12.7,73.2,12.5z"/>
	<path class="st0" d="M57.1,12.7c-0.2,0-0.4,0-0.6,0.1c-0.1,0-0.1,0-0.1,0.1c-0.1,0.1,0,0.3,0,0.4c0.2,0.3,0.7,0.3,0.9,0.2
		c0.1-0.1,0.2-0.2,0.2-0.3c0-0.1,0-0.2,0-0.3c0-0.1-0.1-0.1-0.2-0.1C57.1,12.7,57,12.7,57.1,12.7z"/>
	<path class="st0" d="M63.3,26.4c-0.1,0-0.2,0-0.3,0c-0.1,0-0.1,0-0.2,0c-0.1,0.1-0.1,0.1-0.1,0.2c0,0.4,0,0.8,0,1.1
		c0,0.4-0.1,0.8-0.3,1.1c-0.1,0.1-0.1,0.2-0.1,0.3c0,0.1,0.1,0.2,0.1,0.3c0.1,0.3,0.2,0.6,0.3,0.9c0.4,0.8,1.3,1.2,2.2,1.2
		c0.2,0,0.4,0,0.6,0c0.2-0.1,0.4-0.1,0.6-0.3c0.3-0.2,0.6-0.4,0.8-0.6c0.3-0.4,0.5-0.9,0.5-1.4c0-0.2-0.1-0.3-0.2-0.3
		c-0.2-0.2-0.5-0.3-0.7-0.5c-0.2-0.2-0.3-0.5-0.3-0.8c0-0.3,0-0.6,0-0.9c0,0,0-0.1,0-0.1c0-0.1-0.1-0.1-0.2-0.1c-0.2,0-0.5,0-0.8,0
		c-0.2,0-0.4-0.1-0.6-0.1C64.2,26.3,63.7,26.3,63.3,26.4z"/>
	<path class="st0" d="M68.7,28.5c0.2-0.4,0.5-0.8,0.7-1.2c0.1-0.3,0.3-0.6,0.4-0.9c0.2-0.5,0.2-0.9,0.4-1.4c0.2-0.7,0.6-1.4,0.9-2.1
		c0.2-0.3,0.4-0.6,0.6-0.9c0.1-0.2,0.2-0.5,0.3-0.7c0.1-0.2,0.2-0.4,0.2-0.7c0-0.1-0.1-0.3-0.1-0.4c0-0.1-0.1-0.3-0.1-0.4
		c-0.1-0.4-0.1-0.8-0.1-1.2c0-0.9,0.5-1.7,0.7-2.5c0.1-0.3,0.2-0.5,0.3-0.8c0.1-0.3,0.2-0.6,0.3-0.8c0.1-0.3,0.2-0.6,0.2-0.8
		c0-0.2,0-0.3,0-0.5c0-0.3,0-0.7,0-1c0.1-0.2,0.3-0.5,0.5-0.6c0.1,0,0.1-0.1,0.2-0.1c0.1,0,0.2,0,0.3,0c0.2,0,0.4,0.1,0.6,0.3
		c0.1,0.1,0.2,0.2,0.3,0.3c0.1,0.1,0.2,0.3,0.3,0.4c0.1,0.2,0.1,0.3,0.2,0.5c0.1,0.2,0.1,0.5,0.1,0.7c0.1,0.5,0,1-0.1,1.5
		c-0.1,0.2-0.1,0.5-0.2,0.7c0,0.3-0.1,0.5-0.2,0.8c-0.1,0.4-0.2,0.8-0.3,1.3c-0.1,0.2-0.1,0.4-0.2,0.6c-0.1,0.2-0.2,0.5-0.2,0.7
		c0,0.5-0.2,1-0.2,1.5c0,0.5,0,1,0,1.5c0,0.5,0,0.9,0,1.4c0,0.5-0.1,1-0.2,1.6c-0.1,0.5-0.3,1.1-0.5,1.6c-0.1,0.2-0.2,0.4-0.2,0.7
		c-0.1,0.2-0.2,0.5-0.3,0.7c-0.1,0.2-0.3,0.4-0.4,0.6c-0.1,0.2-0.3,0.5-0.5,0.7c-0.2,0.2-0.4,0.4-0.6,0.5c-0.1,0.1-0.3,0.1-0.4,0.2
		c-0.2,0.1-0.3,0.2-0.4,0.2c-0.3,0.1-0.5,0.1-0.8,0.2c-0.2,0-0.4,0-0.6-0.1c-0.2-0.1-0.3-0.2-0.4-0.3c-0.1-0.1-0.2-0.2-0.3-0.3
		c-0.1-0.3-0.1-0.6-0.1-0.9C68.6,28.8,68.6,28.7,68.7,28.5C68.6,28.5,68.6,28.4,68.7,28.5z"/>
	<path class="st0" d="M54.7,11.5c-0.2,0.4-0.5,0.9-0.5,1.4c0,0.2,0,0.4,0,0.6c0,0.5,0,0.9,0,1.4c0,0.3,0,0.5,0.1,0.8
		c0,0.2,0,0.5,0.1,0.7c0.1,0.4,0.2,0.9,0.3,1.3c0.1,0.5,0.2,0.9,0.3,1.4c0.1,0.3,0.2,0.7,0.3,1c0.1,0.3,0.1,0.7,0.1,1
		c0,0.4,0,0.9,0,1.3c0,0.4,0.1,0.8,0.1,1.2c0.1,0.3,0.1,0.6,0.1,1c0,0.3,0,0.5,0.1,0.8c0,0.3,0.1,0.6,0.2,0.9c0.1,0.5,0.3,1,0.4,1.5
		c0.1,0.4,0.3,0.8,0.5,1.2c0.1,0.2,0.3,0.3,0.4,0.5c0.1,0.1,0.3,0.3,0.4,0.3c0.3,0.1,0.7,0.2,1.1,0.2c0.3,0,0.5-0.2,0.7-0.4
		c0.1-0.1,0.2-0.2,0.2-0.3c0.1-0.1,0.1-0.3,0.1-0.4c0-0.2,0.1-0.3,0.1-0.4c0-0.1,0-0.3,0-0.4c0-0.3,0-0.6,0.1-0.9
		c0-0.3,0-0.6-0.1-0.9c0-0.4-0.1-0.8-0.2-1.1c-0.1-0.4-0.2-0.7-0.4-1c-0.1-0.2-0.1-0.3-0.2-0.5c-0.1-0.1-0.1-0.3-0.2-0.4
		c-0.1-0.3-0.2-0.6-0.4-0.9c-0.1-0.2-0.2-0.4-0.3-0.7c-0.1-0.1-0.1-0.3-0.2-0.4c-0.1-0.1-0.1-0.2-0.1-0.4c0-0.3-0.1-0.5-0.1-0.8
		c0-0.1,0-0.2,0-0.3c0-0.1,0-0.3,0-0.4c0-0.3-0.1-0.7-0.2-1c0-0.1,0-0.3-0.1-0.4c-0.1-0.1-0.1-0.3-0.2-0.4c-0.1-0.3-0.1-0.6-0.2-0.8
		c-0.1-0.3-0.2-0.5-0.3-0.8c-0.1-0.3-0.2-0.5-0.3-0.8c-0.1-0.3-0.2-0.5-0.2-0.8c0-0.3-0.1-0.5-0.2-0.8c0-0.3-0.1-0.5-0.1-0.8
		c0-0.2,0.1-0.4,0-0.6c-0.1-0.2-0.2-0.3-0.3-0.4c-0.1-0.1-0.3-0.1-0.5-0.1c-0.2,0-0.4,0-0.5,0.1C54.8,11.6,54.8,11.6,54.7,11.5
		C54.6,11.7,54.5,11.7,54.7,11.5z"/>
	<path class="st1" d="M97.4,10.9c-1.5,0.1-3.1,0.3-4.6,0.1c-0.8-0.1-1.6-0.1-2.3-0.1c-0.7,0-1.5-0.1-2.2-0.1c-0.8,0-1.7,0.1-2.5,0.1
		c-0.9,0-1.7-0.2-2.6-0.1c-0.9,0-1.7,0.1-2.5,0.1c-1.4,0-2.8,0.1-4.2,0c-0.7-0.1-1.3-0.1-2,0c-0.8,0-1.6-0.1-2.4-0.1
		c-0.8,0-1.7,0.1-2.5,0c-1-0.1-1.9-0.3-2.9-0.3c-0.7,0-1.4,0.1-2.1,0.1c-0.8,0-1.6,0-2.5,0.1c-0.7,0.1-1.4,0-2.1,0c-1-0.1-2,0-3,0.1
		c-0.9,0-1.9-0.1-2.8,0c-0.5,0.1-1,0.1-1.5,0.1c-0.8,0-1.4,0-2.2,0c-0.6,0-1.2,0-1.8,0.1c-1.1,0.1-2.3,0-3.4,0.1
		c-0.5,0-0.9,0.1-1.4,0.1c-0.5,0-0.9-0.1-1.4-0.1c-0.8,0-1.7,0-2.4,0.1c-0.7,0-1.5-0.1-2.2-0.2c-1.3-0.1-2.7-0.1-4.1-0.1
		c-0.5,0-0.9,0.1-1.3,0.4c-0.4,0.3-0.7,0.6-0.8,1c-0.3,1.4,2.9,0.6,4,0.7c1.1,0.1,2.2,0.1,3.2,0.1c0.6,0,1.2-0.1,1.8,0
		c0.6,0,1.4,0.1,2,0c0.7,0,1.3-0.1,2-0.1c0.6,0,1.2,0.1,1.9,0.1c1.1,0.1,2.3,0.1,3.4,0.1c0.6,0,1.1-0.1,1.7-0.1c0.6-0.1,1.2,0,1.7,0
		c0.6,0,1.2,0,1.8,0c0.6,0,1.1-0.1,1.7-0.1c1.3,0,2.6,0.1,3.9,0c0.5,0,1.1,0,1.7,0c0.7,0,1.4-0.1,2.1-0.1c1.5,0,3,0,4.6,0
		c1.4,0,2.7,0.2,4.1,0.2c1.7,0,3.3-0.1,4.9-0.2c0.8,0,1.6,0,2.3,0c0.6,0,1.2-0.1,1.8-0.1c1.2,0,2.4,0.1,3.6,0c1.1-0.1,2.1,0.1,3.1,0
		c0.7,0,1.4,0,2.1,0c0.4,0,0.8,0.1,1.2,0.1c0.4,0,0.7,0,1.1,0c0.5,0,1.1,0,1.6,0c0.5,0,1.1,0.1,1.7,0c0.5-0.1,0.8-0.2,1.1-0.4
		c0.3-0.3,0.5-0.4,0.4-0.8C98.1,11.1,97.7,11,97.4,10.9z"/>
	<path class="st0" d="M55,10.5c-0.2,0-0.4,0.1-0.5,0.2c-0.1,0.1-0.1,0.2-0.1,0.3c0,0.1,0,0.2,0,0.4c0,0.1,0.1,0.3,0.1,0.4
		c0,0.2,0.1,0.4,0.2,0.5c0,0.1,0.1,0.2,0.1,0.2c0.1,0.1,0.1,0.1,0.2,0.1c0.1,0,0.2,0.1,0.3,0.1c0,0,0.1-0.1,0.1-0.2
		c0,0,0.1-0.1,0.1-0.1c0.1,0,0.1,0,0.1,0c0.1,0.1,0.1,0.4,0.3,0.4c0.1,0,0.2,0,0.3,0c0.1-0.1,0.2-0.2,0.3-0.3c0,0,0.1-0.1,0.1-0.1
		c0.1,0,0.1,0.1,0.2,0.2c0.1,0.1,0.1,0.2,0.2,0.2c0.1,0,0.1-0.1,0.1-0.2c0.1-0.1,0.1-0.2,0.2-0.3c0.1-0.2,0.1-0.5,0.1-0.7
		c0-0.1,0-0.2-0.1-0.3c0-0.2,0-0.3-0.1-0.5c0-0.1-0.1-0.2-0.1-0.3c0-0.1,0-0.2-0.1-0.2c-0.1-0.1-0.2-0.1-0.3-0.1c-0.1,0-0.2,0-0.3,0
		c-0.1,0-0.1,0.1-0.2,0.2c-0.1-0.1-0.2-0.2-0.3-0.2c-0.1,0-0.3,0-0.4,0c-0.1,0-0.1,0.1-0.1,0.1c0,0-0.1,0-0.1,0
		C55.2,10.4,55.1,10.4,55,10.5z"/>
	<path class="st0" d="M58.1,52.2c-0.3,0.5-0.5,0.9-0.7,1.4c0,0.1-0.1,0.3-0.1,0.4c-0.1,0.3-0.1,0.6-0.1,1c-0.1,0.5-0.2,1-0.2,1.4
		c0,0.5,0,0.9,0,1.4c0,0.4-0.1,0.8-0.1,1.2c0,0.3,0.1,0.5,0.2,0.8c0.1,0.4,0.1,0.7,0.2,1.1c0.1,1,0,1.9-0.1,2.9c0,0.5,0,1-0.1,1.5
		c-0.1,0.5,0,1,0,1.5c0,0.9,0.1,1.8,0.2,2.7c0.1,0.5,0.1,0.9,0.2,1.4c0,0.4,0,0.9,0.1,1.3c0.1,0.5,0.3,1.1,0.8,1.4
		c0.1,0.1,0.3,0.1,0.4,0.1c0.2-0.1,0.4-0.2,0.5-0.3c0.2-0.2,0.2-0.7,0.3-1c0-0.2,0.1-0.4,0.1-0.5c0-0.2,0-0.4,0.1-0.6
		c0.1-0.5,0.2-0.9,0.3-1.4c0.1-0.6,0.2-1.1,0.4-1.7c0.2-0.5,0.3-1,0.5-1.5c0.1-0.3,0.2-0.5,0.3-0.8c0.1-0.3,0.2-0.6,0.2-0.9
		c0.1-0.4,0.2-0.9,0.2-1.3c0-0.2,0-0.5,0-0.7c0-0.3-0.1-0.5-0.1-0.8c0-0.2-0.1-0.4-0.1-0.7c0-0.1,0-0.3-0.1-0.4
		c-0.1-0.2-0.1-0.5-0.2-0.7c-0.1-0.3-0.2-0.6-0.2-0.9c0-0.5,0.2-0.9,0.3-1.4c0.2-0.6,0.4-1.2,0.6-1.7c0.1-0.3,0.2-0.6,0.2-0.9
		c0.1-0.3,0.1-0.6,0.1-0.9c0-0.3,0-0.6,0-0.8c0-0.2-0.1-0.5-0.2-0.7c-0.1-0.2-0.2-0.3-0.4-0.4c-0.2-0.1-0.4-0.3-0.5-0.4
		c-0.4-0.3-0.9-0.3-1.3-0.4C59,51.7,58.3,52,58.1,52.2z"/>
	<path class="st0" d="M67.9,53.2c-0.2,0.1-0.6,0.4-0.6,0.6c0,0,0,0.1,0,0.2c0,0.1,0,0.3,0,0.4c0,0.4,0,0.7,0,1.1
		c0.1,0.7,0.4,1.3,0.5,1.9c0.1,0.4,0.2,0.8,0.3,1.2c0,0.2,0.1,0.4,0.1,0.7c0.1,0.3,0,0.6,0,0.9c-0.1,0.5-0.2,1-0.3,1.5
		c-0.1,0.6-0.2,1.3-0.1,2c0.1,0.4,0.1,0.8,0.2,1.2c0.1,0.3,0.3,0.7,0.4,1c0.2,0.7,0.4,1.3,0.6,2c0.4,1.1,0.5,2.2,0.5,3.4
		c0,0.4-0.1,1.1,0.2,1.4c0.2,0.3,0.8,0.5,1.1,0.6c0.4,0.1,0.7-0.1,0.9-0.4c0.5-0.6,0.7-1.3,0.7-2.1c0-0.5,0-0.9-0.1-1.4
		c-0.1-0.6,0-1.1,0-1.7c0-0.6,0-1.1,0-1.7c0-0.6-0.1-1.2-0.1-1.8c0-0.5,0-1.1,0-1.6c0.1-0.7,0.1-1.4,0.1-2c0.1-0.7,0-1.4,0.1-2.1
		c0-0.3,0-0.6,0-0.9c0-0.3,0-0.6,0-0.9c0-0.3-0.1-0.6-0.2-0.9c-0.1-0.3-0.1-0.5-0.2-0.8c-0.2-0.4-0.3-0.7-0.6-1.1
		c-0.3-0.4-0.6-0.7-1-1c-0.2-0.2-0.3-0.2-0.6-0.2c-0.2,0-0.3-0.1-0.5-0.1c-0.3-0.1-0.6,0.1-0.8,0.1c-0.2,0.1-0.4,0.2-0.6,0.3
		C67.9,53.2,67.6,53.3,67.9,53.2z"/>
	<path class="st2" d="M59.4,43.7c-0.2,0.6-0.4,1.1-0.6,1.7c-0.1,0.4-0.3,0.8-0.5,1.2c-0.4,0.8-0.7,1.7-1,2.5c-0.1,0.5-0.2,1-0.4,1.4
		c-0.1,0.4-0.2,0.8-0.2,1.2c-0.1,0.8-0.4,1.7-0.4,2.5c0,0.2,0,0.6,0.2,0.7c0.2,0.2,0.7,0.2,1,0.4c0.4,0.1,0.8,0.3,1.1,0.5
		c0.4,0.2,0.9,0.2,1.4,0.3c0.5,0,0.9,0.2,1.4,0.3c0.4,0,0.8,0.2,1.1,0.1c0-0.2,0.1-0.4,0.2-0.6c0.1-0.3,0.2-0.5,0.3-0.8
		c0.2-0.6,0.3-1.1,0.5-1.7c0.2-0.4,0.3-0.8,0.5-1.2c0.2-0.3,0.4-0.5,0.6-0.8c0,0.1,0.1,0.1,0.1,0.2c0.2,0.3,0.3,0.6,0.5,0.9
		c0.1,0.2,0.3,0.5,0.4,0.7c0.1,0.2,0.2,0.5,0.3,0.8c0.1,0.5,0.3,1.1,0.4,1.6c0.1,0.2,0,0.7,0.3,0.9c0.1,0.1,0.4,0.1,0.5,0.1
		c0.5,0,1-0.1,1.5-0.2c0.5-0.1,1-0.2,1.5-0.2c0.4,0,0.8-0.1,1.2-0.2c0.1,0,0.3-0.1,0.4-0.1c0.1,0,0.3,0,0.4-0.1
		c0.2-0.1,0.4-0.1,0.6-0.2c0.2-0.1,0.4-0.2,0.6-0.2c0.1,0,0.2,0,0.3-0.1c0.1-0.1,0.1-0.2,0.1-0.3c0.1-0.3,0.1-0.5,0.1-0.8
		c0-0.3,0-0.6,0-0.9c0-0.4,0-0.6-0.1-1c0-0.2-0.1-0.3-0.2-0.4c-0.1-0.2-0.1-0.3-0.2-0.5c-0.2-0.3-0.3-0.7-0.4-1
		c-0.2-0.7-0.5-1.3-0.8-2c-0.1-0.3-0.2-0.6-0.3-0.9c-0.1-0.4-0.3-0.7-0.4-1c-0.2-0.6-0.5-1.1-0.9-1.6c-0.1-0.2-0.2-0.3-0.4-0.5
		c-0.2-0.2-0.5-0.3-0.8-0.4c-1-0.2-1.9-0.2-2.9-0.1c-1,0-2.1,0-3.1-0.1c-0.4,0-0.7,0-1,0c-0.3,0-0.6,0-0.9,0.1c-0.2,0-0.5,0-0.7,0
		c-0.2,0-0.4,0-0.6,0.1c-0.2,0-0.3,0.1-0.5,0.1C59.4,43.8,59.3,43.7,59.4,43.7z"/>
	<path class="st3" d="M58.4,70.9c-0.5,0-0.9,0-1.3,0.2c-0.2,0.1-0.3,0.1-0.4,0.3c-0.1,0.2-0.1,0.5-0.1,0.7c0,0.1,0.1,0.3,0.1,0.5
		c0,0.1-0.1,0.1-0.2,0.1c-0.2,0.1-0.3,0.2-0.5,0.3c-0.4,0.3-0.7,0.5-1.1,0.8c-0.3,0.2-0.4,0.5-0.6,0.8c-0.1,0.2-0.1,0.5-0.2,0.7
		c0,0.1,0,0.2,0,0.4c0,0.1,0,0.2,0,0.3c0,0.2,0.3,0.3,0.5,0.3c0.4,0.1,0.8,0.2,1.2,0.2c0.3,0,0.6,0,0.9,0c0.3,0,0.6-0.1,0.9-0.1
		c0.2-0.1,0.4-0.1,0.6-0.2c0.3-0.2,0.4-0.5,0.8-0.6c0.4-0.1,0.8-0.1,1.2-0.3c0.1,0,0.1-0.1,0.2-0.1c0-0.1,0.1-0.1,0.1-0.2
		c0.1-0.6,0-1.1-0.1-1.7c-0.1-0.6-0.4-0.5-0.9-0.5c-0.5,0-0.4-0.6-0.6-1C58.7,71.2,58.5,70.9,58.4,70.9z"/>
	<path class="st3" d="M72.9,71.1c-0.6-0.1-1.5-0.4-2,0c-0.3,0.2-0.5,0.7-0.5,1.1c-0.1-0.1-0.4-0.1-0.6,0c-0.3,0.2-0.3,0.7-0.3,1
		c0,0.5-0.1,0.9,0,1.3c0,0.3,0,0.6,0.2,0.8c0.2,0.1,0.4,0.1,0.6,0c0.2,0,0.4,0,0.6,0.1c0.3,0.1,0.3,0.3,0.4,0.5
		c0.1,0.1,0.2,0.1,0.4,0.2c0.2,0.1,0.4,0.2,0.6,0.2c0.7,0.3,1.5,0.2,2.2,0.1c0.3,0,0.5-0.2,0.7-0.3c0.2-0.2,0.4-0.4,0.4-0.7
		c0-0.2,0.1-0.3,0-0.5c-0.1-0.1-0.2-0.3-0.3-0.4c-0.2-0.3-0.4-0.5-0.7-0.7c-0.3-0.3-0.8-0.4-1.1-0.7c-0.3-0.3-0.3-0.9-0.3-1.3
		C73.1,71.6,73.1,71,72.9,71.1z"/>
	<path class="st4" d="M71.5,61.1"/>
	<path class="st4" d="M58.3,58.9c0.1,0.3,0.2,0.6,0.1,1"/>
	<path class="st4" d="M71.3,59c-0.1,0.5-0.3,0.8-0.1,1.2"/>
	<path class="st0" d="M75,10.3c-0.1-0.1-0.2-0.1-0.3-0.1c0,0-0.1,0-0.1,0c-0.1,0-0.1,0.1-0.1,0.2c0,0,0,0.1-0.1,0.1c0,0,0,0-0.1,0
		c0,0-0.1,0-0.1-0.1c-0.1-0.1-0.2-0.1-0.4-0.1c-0.1,0-0.2,0-0.3,0c-0.1,0-0.1,0-0.1,0.1c0,0-0.1,0.1-0.1,0.2c0,0-0.1,0-0.1-0.1
		c-0.1,0-0.2-0.1-0.2-0.1c-0.1,0-0.3,0-0.4,0.1c-0.1,0.1-0.1,0.2-0.2,0.3c0,0.2-0.1,0.4,0,0.6c0,0.2,0.1,0.5,0.2,0.7
		c0,0.1,0.1,0.2,0.2,0.3c0,0,0.1,0.1,0.1,0.1c0,0.1,0,0.1,0.1,0.2c0,0.1,0.1,0.1,0.2,0.2c0.1,0,0.1,0.1,0.2,0.1c0.1,0,0.2,0,0.3,0
		c0.1,0,0.2,0,0.3,0c0.1,0,0.2-0.1,0.2-0.2c0-0.1,0.1-0.1,0.1-0.2c0,0,0-0.1,0.1-0.1c0.1,0,0.1,0.1,0.2,0.2c0,0.1,0.1,0.1,0.1,0.2
		c0,0,0,0.1,0.1,0.1c0,0,0.1,0,0.1,0c0.1,0,0.1-0.1,0.2-0.1c0,0,0.1-0.1,0.1-0.1c0.1,0,0.1,0.1,0.1,0.1c0,0,0,0.1,0.1,0.1
		c0,0,0.1,0,0.1,0c0,0,0,0,0.1,0c0.1,0,0.1-0.1,0.1-0.1c0.1-0.1,0.1-0.2,0.1-0.3c0-0.1,0-0.2,0-0.4c0-0.1,0-0.3,0-0.4
		c0-0.1,0-0.1,0-0.2c0-0.1,0-0.2,0-0.2c0-0.1,0-0.2-0.1-0.3c0-0.1-0.1-0.2-0.1-0.2c-0.1-0.1-0.1-0.1-0.1-0.1c0,0-0.1-0.1-0.1-0.1
		C75.1,10.3,75.1,10.3,75,10.3z"/>
	<path class="st0" d="M64.3,19.9c-0.2,0-0.5-0.1-0.7,0c-0.1,0.1-0.2,0.1-0.3,0.2c-0.2,0.1-0.4,0.2-0.5,0.3c-0.3,0.2-0.6,0.6-0.7,0.9
		c-0.3,0.5-0.3,1.2-0.3,1.7c0,0.1,0,0.2-0.1,0.3c-0.1,0-0.2,0-0.3,0.1c-0.1,0.1-0.2,0.3-0.2,0.4c0,0.2-0.1,0.3-0.1,0.5
		c0,0.2,0.1,0.4,0.2,0.6c0.1,0.1,0.3,0.2,0.4,0.1c0.1,0,0.2-0.1,0.2-0.1c0,0.3,0.1,0.6,0.2,0.9c0.1,0.2,0.2,0.3,0.3,0.5
		c0.1,0.2,0.2,0.4,0.3,0.5c0.2,0.3,0.5,0.4,0.8,0.6c0.3,0.2,0.8,0.3,1.2,0.3c0.4,0.1,0.8-0.1,1.2-0.3c0.2-0.1,0.4-0.3,0.6-0.4
		c0.1-0.1,0.3-0.3,0.4-0.5c0.3-0.4,0.5-0.9,0.5-1.4c0-0.1,0-0.3,0.1-0.4c0.3,0.1,0.4,0.1,0.6,0c0.2-0.2,0.3-0.3,0.4-0.6
		c0.1-0.3,0.1-0.6-0.1-0.8c-0.1-0.1-0.2-0.2-0.3-0.3c-0.1-0.1-0.2,0-0.3,0c-0.1-0.1-0.1-0.4-0.2-0.6c-0.1-0.3-0.2-0.6-0.3-0.8
		c-0.1-0.1-0.2-0.2-0.3-0.4c-0.1-0.1-0.2-0.3-0.3-0.4c-0.1-0.1-0.1-0.1-0.2-0.2c-0.1-0.1-0.2-0.3-0.3-0.3c-0.1-0.1-0.2-0.1-0.3-0.2
		c-0.1,0-0.1-0.1-0.2-0.1c-0.1-0.1-0.2-0.1-0.4-0.2C64.9,19.9,64.5,19.8,64.3,19.9z"/>
	<path class="st5" d="M67.9,23.2c-0.2,0-0.5,0.2-0.7-0.1c-0.1-0.2-0.1-0.3-0.2-0.5c-0.2-0.2-0.4-0.5-0.4-0.8c0-0.1-0.1-0.3-0.1-0.4
		c0-0.1,0-0.1,0-0.2c0-0.1-0.1-0.2-0.3-0.2c-0.3,0-0.5,0-0.8,0.1c-0.4,0-0.7,0.1-1.1,0c-0.3,0-0.7-0.2-1-0.1
		c-0.3,0.1-0.5,0.2-0.7,0.3c-0.3,0.3-0.4,0.7-0.5,1.2c0,0.3,0,1.1-0.3,1.2c-0.3,0.1-0.3-0.3-0.4-0.4c-0.1-0.1-0.5-0.6-1.2-0.4
		c0-0.3,0.1-0.6,0.3-0.8c-0.4-0.1-0.7-0.4-0.4-0.7c0.1-0.2,0.7-0.1,0.7-0.4c0,0-0.1-0.1-0.1-0.1c-0.1-0.1-0.2-0.1-0.2-0.2
		c-0.1-0.1-0.1-0.1-0.1-0.2c0,0,0,0,0-0.1c0-0.1,0.2-0.2,0.3-0.2c0.1-0.1,0.3-0.1,0.4-0.2c0.2-0.1,0-0.2-0.1-0.3
		c-0.2-0.2-0.3-0.3-0.5-0.4c-0.1-0.1-0.2-0.1-0.3-0.2c0.1,0,0.1-0.1,0.2-0.1c0.2-0.1,0.4-0.2,0.6-0.3c0.4-0.2,0.8-0.3,1.2-0.4
		c0.4-0.1,0.8-0.1,1.2-0.1c0.2,0,0.3,0.1,0.5,0.1c0.1,0,0.1,0,0.2,0c0,0,0.1,0,0.1,0c0-0.1-0.1-0.2-0.2-0.3c0-0.1-0.1-0.2,0-0.2
		c0.2-0.1,0.4,0,0.6,0.1c0.3,0.1,0.5,0.1,0.8,0.3c0.2,0.2,0.4,0.4,0.6,0.6c0.2,0.2,0.3,0.8,0.5,1c0.1,0.1,0.2,0.1,0.3,0.1
		c1.1,0.2,1.5,1.9,1.3,2.8c0,0.2-0.1,0.3-0.2,0.5C68,23.1,67.9,23.2,67.9,23.2z"/>
	<path class="st6" d="M72.5,52.7c0.2,0.6,0.4,1.2,0.4,1.8c0,0.2-0.1,0.4-0.3,0.5c-0.2,0-0.3-0.2-0.4-0.3c-0.8-1.8-1.1-3.7-1.8-5.5
		c-0.5-1.4-1.4-2.8-1.6-4.3c0-0.3,0-0.7,0.3-0.9c0.2-0.1,0.4-0.1,0.5,0.1c0.1,0.2,0.1,0.5,0.1,0.7c0.1,0.3,0.2,0.7,0.3,1
		c0.5,1.5,1,3,1.5,4.5C71.8,51.1,72.1,51.9,72.5,52.7z"/>
	<path class="st7" d="M62.5,28.7c0.4,0.5,0.9,0.8,1.6,1c0.2,0,0.3,0.1,0.5,0.1c0.3,0,0.6-0.1,0.9-0.2c0.2-0.1,0.5-0.2,0.7-0.4
		c0.3-0.3,0.4-0.7,0.6-0.9c0.3-0.3,0.8-0.6,1.2-0.9c0.8-0.7,1.3-1.6,2.1-2.4c0.4-0.4,0.5-0.2,0.9-0.1c0.5,0.1,0.9,0,1.3,0.3
		c0.2,0.2,0.6,0.2,0.8,0.4c0.2,0.1,0.4,0.2,0.6,0.3c0.2,0.1,0.3,0.3,0.4,0.4c0.2,0.2,0.5,0.4,0.5,0.7c0,0.2,0,0.3-0.1,0.4
		c-0.5,0.5-1,0.9-1.3,1.6c-0.4,0.7-0.9,1.3-1.3,1.9c-0.7,1-0.8,2.3-0.8,3.6c0,0.8,0,1.7-0.1,2.5c-0.1,0.7-0.3,1.4-0.3,2.1
		c0,0.5,0.1,1,0.2,1.4c0.1,0.4,0.2,0.8,0.3,1.2c0.3,1,0.1,2.1-0.7,2.9c-0.6,0.6-1.4,0.9-2.1,1.1c-1.8,0.6-3.7,0.9-5.5,0.6
		c-1-0.1-2-0.5-2.9-1c-0.7-0.4-1.8-1.1-1.9-2c-0.1-0.4,0-0.7,0.1-1.1c0.4-2.8,0.6-5.7,0.4-8.5c0-0.8-0.1-1.6-0.4-2.3
		c-0.4-1-1.1-1.7-1.8-2.6c-0.5-0.6-0.9-1.2-1.2-1.9c-0.1-0.2-0.2-0.5-0.2-0.7c0.1-0.9,2.7-1.2,3.4-1.4c0.1,0,0.2-0.1,0.4-0.2
		c0.6-0.2,0.8,0,1.2,0.5c0.3,0.4,0.6,0.9,0.8,1.3c0.4,0.6,0.8,1.2,1.3,1.8C62.3,28.4,62.4,28.6,62.5,28.7z"/>
	<path class="st7" d="M64.3,51.2c0.2,0.1,0.4,0.3,0.6,0.5"/>
	<path class="st4" d="M70.8,73.2c-0.2-0.3-0.3-0.6-0.5-0.9"/>
	<path class="st4" d="M58.6,73.2c0.1-0.2,0.3-0.5,0.4-0.7"/>
	<g>
		<path class="st8" d="M94.5,6.4c-0.3,0-0.7-0.1-0.9,0.2c0,0.1-0.1,0.2-0.1,0.3c-0.1,0.1-0.1,0.3-0.1,0.4c-0.1,0.5-0.1,1-0.1,1.4
			c0,0.8,0,1.6,0,2.4c0,0.7,0.1,1.5,0,2.2c0,1.2-0.2,3.7,1.6,3.8c0.6,0,0.9-0.5,1.1-1c0.1-0.3,0.1-0.6,0.1-0.9c0-0.3,0-0.7,0-1
			c0-1.7,0.2-3.5,0.1-5.2c0-0.4-0.1-0.8-0.1-1.1c0-0.2,0-0.3-0.1-0.4c0-0.1,0-0.3-0.1-0.4c-0.1-0.2-0.3-0.4-0.5-0.5
			C95.1,6.3,94.9,6.4,94.5,6.4z"/>
		<path class="st9" d="M93.1,4.4c-0.4-0.4-0.6-0.8-1.2-0.9c-0.4-0.1-0.8-0.1-1.1-0.1c-0.4,0-0.9,0-1.3,0c-0.3,0-0.7,0-1,0
			c-0.3,0-0.6,0.1-0.8,0.2c-0.2,0.1-0.5,0.1-0.7,0.3c-0.2,0.1-0.5,0.3-0.6,0.5C86.1,4.6,86,4.8,85.9,5c-0.1,0.3,0,0.7,0,1
			c-0.2,2.5-0.1,5.1,0.1,7.7c0.1,1.1,0.2,2.3,0.2,3.4c0,0.4,0.1,0.7,0.5,1c0.3,0.3,0.5,0.5,0.8,0.7c0.3,0.1,0.6,0.2,0.9,0.2
			c0.4,0,0.8,0.1,1.3,0.1c0.2,0,0.5,0,0.7,0c0.2,0,0.4,0,0.7,0c0.4,0,0.7,0,1.1,0c0.5-0.1,1-0.3,1.2-0.8c0.1-0.2,0.2-0.5,0.2-0.7
			c0.4-1.4,0.1-3,0.1-4.5c-0.1-1.7-0.1-3.4-0.1-5c0-0.7,0-1.4,0-2.1C93.7,5.2,93.5,5,93.1,4.4z"/>
	</g>
	<g>
		<path class="st8" d="M35.5,6.4c0.3,0,0.7-0.1,0.9,0.2c0,0.1,0.1,0.2,0.1,0.3c0.1,0.1,0.1,0.3,0.1,0.4c0.1,0.5,0.1,1,0.1,1.4
			c0,0.8,0,1.6,0,2.4c0,0.7-0.1,1.5,0,2.2c0,1.2,0.2,3.7-1.6,3.8c-0.6,0-0.9-0.5-1.1-1c-0.1-0.3-0.1-0.6-0.1-0.9c0-0.3,0-0.7,0-1
			c0-1.7-0.2-3.5-0.1-5.2c0-0.4,0.1-0.8,0.1-1.1c0-0.2,0-0.3,0.1-0.4c0-0.1,0-0.3,0.1-0.4c0.1-0.2,0.3-0.4,0.5-0.5
			C34.9,6.3,35.1,6.4,35.5,6.4z"/>
		<path class="st9" d="M36.9,4.4c0.4-0.4,0.6-0.8,1.2-0.9c0.4-0.1,0.8-0.1,1.1-0.1c0.4,0,0.9,0,1.3,0c0.3,0,0.7,0,1,0
			c0.3,0,0.6,0.1,0.8,0.2c0.2,0.1,0.5,0.1,0.7,0.3c0.2,0.1,0.5,0.3,0.6,0.5C43.9,4.6,44,4.8,44.1,5c0.1,0.3,0,0.7,0,1
			c0.2,2.5,0.1,5.1-0.1,7.7c-0.1,1.1-0.2,2.3-0.2,3.4c0,0.4-0.1,0.7-0.5,1c-0.3,0.3-0.5,0.5-0.8,0.7c-0.3,0.1-0.6,0.2-0.9,0.2
			c-0.4,0-0.8,0.1-1.3,0.1c-0.2,0-0.5,0-0.7,0c-0.2,0-0.4,0-0.7,0c-0.4,0-0.7,0-1.1,0c-0.5-0.1-1-0.3-1.2-0.8
			c-0.1-0.2-0.2-0.5-0.2-0.7c-0.4-1.4-0.1-3-0.1-4.5c0.1-1.7,0.1-3.4,0.1-5c0-0.7,0-1.4,0-2.1C36.3,5.2,36.5,5,36.9,4.4z"/>
	</g>
	<g>
		<path class="st10" d="M63.9,35.3c0.1,0.1,0.1,0.3,0.2,0.4c0,0,0,0,0,0c0,0,0-0.1,0-0.1c0-0.2,0-0.4,0-0.6c0-0.1-0.1-0.3-0.2-0.4
			c-0.1-0.1-0.1-0.1-0.2-0.1c-0.1-0.1-0.2-0.1-0.3-0.2c0,0-0.1,0-0.1,0c0.1,0.1,0.1,0.2,0.2,0.3C63.7,34.8,63.8,35,63.9,35.3z"/>
		<path class="st10" d="M65.3,33.8c0.2,0.1,0.2,0.2,0.4,0.4c0,0.1,0.1,0.1,0.1,0.3c0,0,0,0,0,0.1c0,0,0,0,0,0
			c0.1-0.1,0.2-0.2,0.2-0.3c0-0.1,0.1-0.2,0.1-0.3c0-0.1,0.1-0.1,0.1-0.2c0-0.1,0-0.1-0.2-0.2c-0.1,0-0.2,0-0.3,0
			c-0.2,0-0.5,0-0.8,0c0,0-0.1,0-0.1,0c0.1,0.1,0.1,0.1,0.2,0.2C65.2,33.8,65.2,33.8,65.3,33.8z"/>
		<path class="st11" d="M65.3,38.1c-0.1,0-0.2,0-0.2,0c-0.1,0-0.3-0.1-0.4-0.2c-0.1-0.1-0.2-0.1-0.3-0.3c-0.1-0.1-0.1-0.2-0.1-0.4
			c-0.1-0.3-0.1-0.7-0.1-1c0-0.2,0-0.3,0-0.5c0,0,0,0,0,0c-0.1-0.1-0.1-0.3-0.2-0.4c-0.1-0.2-0.3-0.4-0.4-0.7
			c-0.1-0.1-0.1-0.2-0.2-0.3c-0.1-0.1-0.2-0.1-0.3-0.2C63,34,62.9,34,62.8,33.9c-0.1-0.1-0.3-0.1-0.4-0.2c-0.1-0.1-0.3-0.2-0.4-0.3
			c-0.2-0.2,0-0.6,0.1-0.8c0-0.1,0.1-0.1,0.1-0.2c0,0,0,0,0,0c-0.2-0.2-0.4-0.1-0.6-0.1c-0.3,0.1-0.6,0.2-0.6,0.6
			c0,0.2,0.1,0.4,0.2,0.5c0.1,0.2,0.2,0.4,0.4,0.7c0.1,0.2,0.3,0.4,0.4,0.6c0.2,0.3,0.3,0.6,0.5,0.9c0.1,0.3,0.3,0.6,0.4,0.9
			c0.2,0.3,0.3,0.6,0.5,0.9c0.2,0.3,0.3,0.5,0.5,0.7c0.1,0.1,0.2,0.3,0.3,0.4c0,0.1,0.1,0.1,0.2,0.2c0.2,0.2,0.4,0.4,0.7,0.3
			c0.1,0,0.1,0,0.2,0c0.1,0,0.2,0,0.3-0.1c0.1,0,0.1-0.1,0.2-0.2c0.1-0.1,0.1-0.3,0.1-0.4c0-0.1,0-0.2,0-0.3c0,0,0,0,0,0
			C65.4,38.1,65.3,38.1,65.3,38.1z"/>
		<path class="st11" d="M67.7,32.2c-0.2,0-0.5,0-0.7,0c-0.5,0-0.8,0-1.3,0c-0.4,0-0.9,0.1-1.3,0.1c-0.3,0-0.6,0-0.8,0.2c0,0,0,0,0,0
			c0.1,0,0.1,0.1,0.2,0.1c0.3,0.2,0.6,0.4,0.8,0.7c0.1,0.1,0.2,0.2,0.3,0.3c0,0,0,0,0,0c0,0,0.1,0,0.1,0c0.2,0,0.5,0,0.8,0
			c0.1,0,0.2,0,0.3,0c0.1,0,0.1,0.1,0.2,0.2c0,0.1-0.1,0.2-0.1,0.2c-0.1,0.1-0.1,0.2-0.1,0.3c-0.1,0.1-0.1,0.2-0.2,0.3c0,0,0,0,0,0
			c0,0.1,0,0.1,0,0.2c0,0.1,0,0.2,0,0.3c0,0.1,0,0.2,0,0.4c0,0.2,0,0.5,0,0.7c0,0.2,0,0.3,0,0.5c0,0,0,0,0,0c0.1,0,0.2-0.1,0.3-0.2
			c0.1-0.1,0.2-0.3,0.4-0.5c0.1-0.2,0.2-0.4,0.4-0.6c0.2-0.4,0.4-0.7,0.6-1.1c0.1-0.2,0.2-0.3,0.3-0.5c0.1-0.2,0.2-0.3,0.3-0.4
			c0.1-0.1,0.1-0.2,0.2-0.4c0,0,0-0.1,0-0.1C68.4,32.8,68.5,32.1,67.7,32.2z"/>
		<path class="st12" d="M65.6,36.6c-0.3-0.1-0.4-0.3-0.5-0.6c0-0.1,0-0.3,0-0.4c0-0.1,0.1-0.2,0.1-0.3c0.1-0.1,0.2-0.2,0.2-0.3
			c0.1-0.1,0.1-0.2,0.2-0.3c0-0.1,0.1-0.1,0.1-0.2c0,0,0,0,0-0.1c0-0.1-0.1-0.3-0.5-0.7c0,0-0.1-0.1-0.1-0.1
			c-0.1-0.1-0.1-0.1-0.2-0.2c-0.1,0-0.3,0-0.4,0c-0.3,0-0.5,0-0.8-0.1c-0.1-0.1-0.3-0.1-0.3-0.2c0-0.1-0.1-0.2-0.1-0.3
			c0-0.2,0.1-0.3,0.3-0.4c-0.1-0.1-0.3-0.2-0.5-0.3c-0.1-0.1-0.2-0.1-0.3-0.1c-0.1,0-0.3,0-0.4,0c-0.1,0-0.3,0.1-0.3,0.3
			c0,0,0,0,0,0c0.1,0.1,0.2,0.3,0.3,0.4c0.1,0.1,0.2,0.3,0.3,0.4c0.1,0.1,0.2,0.3,0.3,0.5c0,0.1,0.1,0.1,0.1,0.2
			c0.1,0.1,0.1,0.2,0.2,0.4c0,0,0,0.1,0.1,0.1c0,0,0.1,0,0.1,0c0.1,0,0.2,0.1,0.3,0.2c0.1,0,0.2,0.1,0.2,0.1
			c0.1,0.1,0.2,0.2,0.2,0.4c0,0.2,0,0.4,0,0.6c0,0,0,0.1,0,0.1c0.1,0.1,0.2,0.3,0.2,0.4c0.1,0.2,0.2,0.4,0.3,0.6
			c0.1,0.2,0.3,0.5,0.4,0.7c0.1,0.1,0.1,0.2,0.2,0.2c0.1,0.1,0.1,0.3,0.1,0.5c0.3-0.1,0.4-0.3,0.4-0.6c0-0.3,0-0.5,0-0.8
			C65.8,36.7,65.7,36.7,65.6,36.6z"/>
		<path class="st13" d="M62,33.4c0.1,0.1,0.3,0.2,0.4,0.3c0.1,0.1,0.3,0.1,0.4,0.2C62.9,34,63,34,63,34.1c0.1,0.1,0.2,0.2,0.3,0.2
			c0,0,0-0.1-0.1-0.1c-0.1-0.1-0.1-0.2-0.2-0.4c0-0.1-0.1-0.1-0.1-0.2c-0.1-0.2-0.2-0.3-0.3-0.5c-0.1-0.1-0.2-0.3-0.3-0.4
			c-0.1-0.1-0.2-0.3-0.3-0.4c0,0.1-0.1,0.1-0.1,0.2C62,32.8,61.8,33.1,62,33.4z"/>
		<path class="st13" d="M65.1,37.3c-0.2-0.2-0.3-0.4-0.4-0.7c-0.1-0.2-0.2-0.4-0.3-0.6c-0.1-0.1-0.2-0.3-0.2-0.4c0,0.2,0,0.3,0,0.5
			c0,0.4,0,0.7,0.1,1c0,0.1,0.1,0.2,0.1,0.4c0.1,0.1,0.2,0.2,0.3,0.3c0.1,0.1,0.3,0.1,0.4,0.2c0.1,0,0.2,0.1,0.2,0c0,0,0.1,0,0.1,0
			c0,0,0,0,0,0c0-0.2-0.1-0.3-0.1-0.5C65.3,37.5,65.2,37.4,65.1,37.3z"/>
		<path class="st13" d="M63.4,32.9c0,0.1,0,0.2,0.1,0.3c0.1,0.1,0.2,0.2,0.3,0.2c0.2,0.1,0.5,0.1,0.8,0.1c0.1,0,0.3,0,0.4,0
			c0,0,0,0,0,0c-0.1-0.1-0.2-0.2-0.3-0.3c-0.3-0.2-0.6-0.5-0.8-0.7c-0.1,0-0.1-0.1-0.2-0.1C63.5,32.6,63.4,32.7,63.4,32.9z"/>
		<path class="st13" d="M65.8,35.4c0-0.1,0-0.2,0-0.4c0-0.1,0-0.2,0-0.3c0-0.1,0-0.1,0-0.2c0,0.1-0.1,0.1-0.1,0.2
			c-0.1,0.1-0.1,0.2-0.2,0.3c-0.1,0.1-0.2,0.2-0.2,0.3c-0.1,0.1-0.1,0.2-0.1,0.3c0,0.1,0,0.3,0,0.4c0,0.3,0.2,0.5,0.5,0.6
			c0.1,0,0.2,0,0.3,0c0-0.2,0-0.3,0-0.5C65.9,35.9,65.8,35.7,65.8,35.4z"/>
	</g>
	<path class="st4" d="M56.1,74.4c-0.4-0.4-1-0.6-1.6-0.5"/>
	<path class="st4" d="M57.2,73.6c-0.1-0.1-0.5-0.5-0.8-0.6"/>
	<path class="st4" d="M71.7,74c0.3-0.3,0.7-0.9,1.2-0.9"/>
	<path class="st4" d="M73.2,74.9c0.4-0.4,0.8-0.9,1.5-0.8"/>
	<path class="st4" d="M67.7,32.2c-0.2,0-0.5,0-0.7,0c-0.5,0-0.8,0-1.3,0c-0.4,0-0.9,0.1-1.3,0.1c-0.3,0-0.6,0-0.8,0.2c0,0,0,0,0,0
		c-0.1-0.1-0.3-0.2-0.5-0.3c-0.1-0.1-0.2-0.1-0.3-0.1c-0.1,0-0.3,0-0.4,0c-0.1,0-0.3,0.1-0.3,0.3c0,0,0,0,0,0c0,0,0,0,0,0
		c-0.2-0.2-0.4-0.1-0.6-0.1c-0.3,0.1-0.6,0.2-0.6,0.6c0,0.2,0.1,0.4,0.2,0.5c0.1,0.2,0.2,0.4,0.4,0.7c0.1,0.2,0.3,0.4,0.4,0.6
		c0.2,0.3,0.3,0.6,0.5,0.9c0.1,0.3,0.3,0.6,0.4,0.9c0.2,0.3,0.3,0.6,0.5,0.9c0.2,0.3,0.3,0.5,0.5,0.7c0.1,0.1,0.2,0.3,0.3,0.4
		c0,0.1,0.1,0.1,0.2,0.2c0.2,0.2,0.4,0.4,0.7,0.3c0.1,0,0.1,0,0.2,0c0.1,0,0.2,0,0.3-0.1c0.1,0,0.1-0.1,0.2-0.2
		c0.1-0.1,0.1-0.3,0.1-0.4c0-0.1,0-0.2,0-0.3c0.3-0.1,0.4-0.3,0.4-0.6c0-0.3,0-0.5,0-0.8c0,0,0,0,0,0c0.1,0,0.2-0.1,0.3-0.2
		c0.1-0.1,0.2-0.3,0.4-0.5c0.1-0.2,0.2-0.4,0.4-0.6c0.2-0.4,0.4-0.7,0.6-1.1c0.1-0.2,0.2-0.3,0.3-0.5c0.1-0.2,0.2-0.3,0.3-0.4
		c0.1-0.1,0.1-0.2,0.2-0.4c0,0,0-0.1,0-0.1C68.4,32.8,68.5,32.1,67.7,32.2z"/>
</g>
</svg>
