<?xml version="1.0" encoding="utf-8"?>
<!-- Generator: Adobe Illustrator 27.2.0, SVG Export Plug-In . SVG Version: 6.00 Build 0)  -->
<svg version="1.1" id="Layer_1" xmlns="http://www.w3.org/2000/svg" xmlns:xlink="http://www.w3.org/1999/xlink" x="0px" y="0px"
	 viewBox="0 0 130 80" style="enable-background:new 0 0 130 80;" xml:space="preserve">
<style type="text/css">
	.st0{fill:#BCBABA;stroke:#000000;stroke-linecap:round;stroke-linejoin:round;stroke-miterlimit:10;}
	.st1{fill:#DAD8D8;stroke:#000000;stroke-linecap:round;stroke-linejoin:round;stroke-miterlimit:10;}
	.st2{fill:#FFBF0C;}
	.st3{fill:#00B1FF;}
	.st4{fill:#FF00D9;}
	.st5{fill:none;stroke:#000000;stroke-linecap:round;stroke-linejoin:round;stroke-miterlimit:10;}
	.st6{fill:#00B1FF;stroke:#00B1FF;stroke-linecap:round;stroke-linejoin:round;stroke-miterlimit:10;}
	.st7{opacity:0.7;fill:#FFFFFF;}
	.st8{fill:#70CEFF;stroke:#000000;stroke-linecap:round;stroke-linejoin:round;stroke-miterlimit:10;}
	.st9{fill:#FFE096;stroke:#000000;stroke-linecap:round;stroke-linejoin:round;stroke-miterlimit:10;}
	.st10{fill:#FFEEBF;stroke:#000000;stroke-linecap:round;stroke-linejoin:round;stroke-miterlimit:10;}
	.st11{fill:#FFFFFF;stroke:#000000;stroke-linecap:round;stroke-linejoin:round;stroke-miterlimit:10;}
	.st12{fill:#E7F6FD;}
	.st13{fill:#FFE096;}
	.st14{fill:#D7A2F6;}
	.st15{fill:#00B1FF;stroke:#000000;stroke-linecap:round;stroke-linejoin:round;stroke-miterlimit:10;}
</style>
<g>
	<g>
		<path class="st0" d="M34.9,6.3c-0.4-0.1-0.8-0.1-1.2-0.1c-0.2,0-0.3,0-0.5,0c-0.5,0-1,0-1.4,0c-0.2,0-0.5,0-0.7,0
			c-0.2,0-0.4,0-0.6,0c-0.4,0-0.9,0-1.3,0c-0.2,0-0.4,0-0.6,0c-0.2,0-0.4,0-0.6,0c-0.2,0-0.4,0-0.6,0c-0.3,0-0.5,0-0.8,0
			c-0.8,0-1.7,0-2.5,0c-0.4,0-0.8,0.1-1.2,0c-0.5,0-1,0-1.4,0c-0.5,0-1,0.1-1.5,0c-0.4,0-0.8,0-1.2-0.1c-1.2-0.1-2.5-0.1-3.7,0
			c-0.2,0-0.4,0-0.6,0.1c-0.2,0-0.3,0-0.5,0c-0.1,0-0.2,0-0.2,0c-0.1,0-0.2,0.1-0.3,0.2c-0.3,0.3-0.7,0.5-1.1,0.7
			c-0.3,0.2-0.6,0.5-0.9,0.8c-0.2,0.2-0.5,0.4-0.7,0.6C10.3,9,10,9.3,9.7,9.6c-0.3,0.3-0.5,0.6-0.8,0.9c-0.3,0.3-0.6,0.5-0.9,0.8
			c-0.3,0.3-0.6,0.6-0.9,1c-0.2,0.4-0.6,0.7-0.9,1c-0.1,0.1-0.1,0.2,0,0.3c0.1,0.2,0.2,0.5,0.3,0.8c0.3,0.6,0.7,1.1,1.2,1.5
			c0.8,0.6,1.7,0.9,2.6,1.2c0.7,0.3,1.3,0.5,2,0.6c0.9,0.2,1.8,0.3,2.8,0.4c0.9,0.1,1.9,0.3,2.8,0.3c0.4,0,0.8,0.1,1.2,0.1
			c0.6,0,1.2,0,1.7,0c0.9,0.1,1.7,0,2.6,0c1.1-0.1,2.2-0.1,3.3-0.2c1.1,0,2.1-0.1,3.2-0.2c1-0.1,2-0.1,3-0.3
			c0.8-0.1,1.6-0.3,2.3-0.4c0.4-0.1,0.8-0.2,1.2-0.3c0.3-0.1,0.6-0.1,0.9-0.2c0.7-0.2,1.4-0.4,2.1-0.9c0.3-0.2,0.6-0.3,0.9-0.5
			c0.2-0.1,0.4-0.3,0.6-0.5c0.2-0.1,0.4-0.2,0.5-0.4c0.1-0.1,0.2-0.2,0.3-0.3c0.2-0.2,0.3-0.3,0.4-0.5c0.1-0.1,0.1-0.3,0.2-0.4
			c0-0.1,0.1-0.1,0-0.2c0-0.1-0.3-0.2-0.3-0.3c-0.3-0.2-0.6-0.4-0.8-0.7c-0.1-0.1-0.2-0.2-0.3-0.3c-0.2-0.1-0.3-0.3-0.4-0.4
			c-0.2-0.1-0.4-0.3-0.5-0.4c-0.2-0.2-0.3-0.4-0.5-0.6c-0.2-0.3-0.5-0.6-0.7-0.9c-0.2-0.3-0.5-0.5-0.8-0.7c-0.2-0.2-0.4-0.4-0.7-0.6
			C37,8,36.5,7.6,36.1,7.2c-0.3-0.2-0.6-0.5-0.9-0.7C35.1,6.4,35,6.4,34.9,6.3z"/>
		<path class="st1" d="M6.1,13.7c0,2.3-0.2,4.6-0.2,6.9c0,1.7,0,3.4,0,5.2c0,1,0.1,2,0.1,3.1c0,0.5,0,1,0.1,1.5c0,0.5,0,1.1,0,1.6
			c0.2,1.9,0.2,3.9,0.3,5.9c0.1,1.9,0,3.9,0,5.8c0,2.6-0.1,5.2-0.1,7.8c0,2.2,0,4.3,0,6.5c0,1.1,0,2.3,0,3.4c0,1,0,2.1-0.1,3.2
			c-0.1,1-0.1,2.1-0.1,3.1C6.1,68.7,6,69.9,6,71c0,1.1-0.1,2.2-0.1,3.5c0.4,0,1.1,0,1.6,0c0.3,0,0.8-0.1,0.9,0.1
			c0.6,0,1.6-0.2,2.2,0c0.2,0.1,0.4,0.2,0.6,0.2c0.7,0.1,1.5,0,2.2,0c2.4,0,4.8,0,7.2,0c1.5,0,3-0.1,4.5-0.1c1.9,0,3.7,0.3,5.6,0.3
			c2.7,0,5.3,0,8,0c1.2,0,2.5,0.1,3.7,0c0.1-0.6,0.1-1.3,0.2-2c0.1-0.6,0.1-1.2,0.1-1.8c0-0.7-0.1-1.2-0.2-1.9
			c-0.2-0.7-0.1-1.5-0.2-2.2c-0.1-0.8-0.2-1.7-0.2-2.5c0-1-0.1-2-0.1-3c0-1.1,0-2.1,0-3.2c0-1.1,0.2-2.2,0.2-3.3
			c0-1.1-0.1-2.1,0-3.2c0.1-1.2,0.1-2.5,0.3-3.7c0.1-0.6,0.1-1.2,0.2-1.8c0.1-0.7,0.2-1.3,0.2-2c0-1.2,0.1-2.4,0.1-3.6
			c0-2.9,0-5.7-0.1-8.6c0-0.6,0-1.3,0-1.9c0-0.6-0.1-1.3-0.1-1.9c0-1.2-0.2-2.4-0.2-3.6c0-1.5,0-3,0-4.5c0-1.2-0.1-2.5,0.1-3.7
			c0.1-0.7,0.2-1.4,0.2-2.1c0-0.4,0-0.8-0.1-1.3c-0.8,0-1.6-0.2-2.4-0.1c-0.3,0-0.6,0.1-0.9,0.2c-0.4,0-0.9,0.1-1.3,0.1
			c-1.3,0-2.5,0-3.8,0c-2.9,0-5.7,0-8.6,0c-5,0-10.1,0-15.1,0c-0.9,0-1.7,0-2.6,0c-0.3,0-0.6,0-0.9,0c-0.1,0-0.3,0-0.5,0
			C6.1,13.5,6,13.6,6.1,13.7z"/>
		<g>
			<g>
				<rect x="10.2" y="38.8" class="st2" width="1.6" height="1.6"/>
				<rect x="11.8" y="38.8" class="st3" width="1.6" height="1.6"/>
				<rect x="10.2" y="40.4" class="st4" width="1.6" height="1.6"/>
				<rect x="11.8" y="40.4" class="st2" width="1.6" height="1.6"/>
				<rect x="13.4" y="38.8" class="st4" width="1.6" height="1.6"/>
				<rect x="15" y="38.8" class="st2" width="1.6" height="1.6"/>
				<rect x="13.4" y="40.4" class="st3" width="1.6" height="1.6"/>
				<rect x="15" y="40.4" class="st4" width="1.6" height="1.6"/>
				<rect x="16.6" y="38.8" class="st4" width="1.6" height="1.6"/>
				<rect x="18.2" y="38.8" class="st4" width="1.6" height="1.6"/>
				<rect x="16.6" y="40.4" class="st3" width="1.6" height="1.6"/>
				<rect x="18.2" y="40.4" class="st2" width="1.6" height="1.6"/>
				<rect x="19.8" y="38.8" class="st3" width="1.6" height="1.6"/>
				<rect x="21.4" y="38.8" class="st4" width="1.6" height="1.6"/>
				<rect x="19.8" y="40.4" class="st2" width="1.6" height="1.6"/>
				<rect x="21.4" y="40.4" class="st3" width="1.6" height="1.6"/>
				<rect x="23" y="38.8" class="st2" width="1.6" height="1.6"/>
				<rect x="24.6" y="38.8" class="st4" width="1.6" height="1.6"/>
				<rect x="23" y="40.4" class="st4" width="1.6" height="1.6"/>
				<rect x="24.6" y="40.4" class="st3" width="1.6" height="1.6"/>
				<rect x="26.2" y="38.8" class="st2" width="1.6" height="1.6"/>
				<rect x="27.8" y="38.8" class="st4" width="1.6" height="1.6"/>
				<rect x="26.2" y="40.4" class="st3" width="1.6" height="1.6"/>
				<rect x="27.8" y="40.4" class="st2" width="1.6" height="1.6"/>
				<rect x="29.4" y="38.8" class="st3" width="1.6" height="1.6"/>
				<rect x="31" y="38.8" class="st2" width="1.6" height="1.6"/>
				<rect x="29.4" y="40.4" class="st3" width="1.6" height="1.6"/>
				<rect x="31" y="40.4" class="st4" width="1.6" height="1.6"/>
				<rect x="32.6" y="38.8" class="st2" width="1.6" height="1.6"/>
				<rect x="34.2" y="38.8" class="st3" width="1.6" height="1.6"/>
				<rect x="32.6" y="40.4" class="st3" width="1.6" height="1.6"/>
				<rect x="34.2" y="40.4" class="st4" width="1.6" height="1.6"/>
				<rect x="35.8" y="38.8" class="st4" width="1.6" height="1.6"/>
				<rect x="37.4" y="38.8" class="st2" width="1.6" height="1.6"/>
				<rect x="35.8" y="40.4" class="st2" width="1.6" height="1.6"/>
				<rect x="37.4" y="40.4" class="st3" width="1.6" height="1.6"/>
			</g>
			<g>
				<rect x="37" y="53.3" class="st2" width="1.6" height="1.6"/>
				<rect x="35.4" y="53.3" class="st3" width="1.6" height="1.6"/>
				<rect x="37" y="54.9" class="st4" width="1.6" height="1.6"/>
				<rect x="35.4" y="54.9" class="st2" width="1.6" height="1.6"/>
				<rect x="33.8" y="53.3" class="st4" width="1.6" height="1.6"/>
				<rect x="32.2" y="53.3" class="st2" width="1.6" height="1.6"/>
				<rect x="33.8" y="54.9" class="st3" width="1.6" height="1.6"/>
				<rect x="32.2" y="54.9" class="st4" width="1.6" height="1.6"/>
				<rect x="30.6" y="53.3" class="st4" width="1.6" height="1.6"/>
				<rect x="29" y="53.3" class="st4" width="1.6" height="1.6"/>
				<rect x="30.6" y="54.9" class="st3" width="1.6" height="1.6"/>
				<rect x="29" y="54.9" class="st2" width="1.6" height="1.6"/>
				<rect x="27.4" y="53.3" class="st3" width="1.6" height="1.6"/>
				<rect x="25.8" y="53.3" class="st4" width="1.6" height="1.6"/>
				<rect x="27.4" y="54.9" class="st2" width="1.6" height="1.6"/>
				<rect x="25.8" y="54.9" class="st3" width="1.6" height="1.6"/>
				<rect x="24.2" y="53.3" class="st2" width="1.6" height="1.6"/>
				<rect x="22.6" y="53.3" class="st4" width="1.6" height="1.6"/>
				<rect x="24.2" y="54.9" class="st4" width="1.6" height="1.6"/>
				<rect x="22.6" y="54.9" class="st3" width="1.6" height="1.6"/>
				<rect x="21" y="53.3" class="st2" width="1.6" height="1.6"/>
				<rect x="19.4" y="53.3" class="st4" width="1.6" height="1.6"/>
				<rect x="21" y="54.9" class="st3" width="1.6" height="1.6"/>
				<rect x="19.4" y="54.9" class="st2" width="1.6" height="1.6"/>
				<rect x="17.8" y="53.3" class="st3" width="1.6" height="1.6"/>
				<rect x="16.2" y="53.3" class="st2" width="1.6" height="1.6"/>
				<rect x="17.8" y="54.9" class="st3" width="1.6" height="1.6"/>
				<rect x="16.2" y="54.9" class="st4" width="1.6" height="1.6"/>
				<rect x="14.6" y="53.3" class="st2" width="1.6" height="1.6"/>
				<rect x="13" y="53.3" class="st3" width="1.6" height="1.6"/>
				<rect x="14.6" y="54.9" class="st3" width="1.6" height="1.6"/>
				<rect x="13" y="54.9" class="st4" width="1.6" height="1.6"/>
				<rect x="11.4" y="53.3" class="st4" width="1.6" height="1.6"/>
				<rect x="9.8" y="53.3" class="st2" width="1.6" height="1.6"/>
				<rect x="11.4" y="54.9" class="st2" width="1.6" height="1.6"/>
				<rect x="9.8" y="54.9" class="st3" width="1.6" height="1.6"/>
			</g>
			<g>
				
					<rect x="37.4" y="47.8" transform="matrix(-1 -1.224647e-16 1.224647e-16 -1 76.3514 97.282)" class="st2" width="1.6" height="1.6"/>
				
					<rect x="35.8" y="47.8" transform="matrix(-1 -1.224647e-16 1.224647e-16 -1 73.151 97.282)" class="st3" width="1.6" height="1.6"/>
				
					<rect x="37.4" y="46.2" transform="matrix(-1 -1.224647e-16 1.224647e-16 -1 76.3514 94.0816)" class="st4" width="1.6" height="1.6"/>
				
					<rect x="35.8" y="46.2" transform="matrix(-1 -1.224647e-16 1.224647e-16 -1 73.151 94.0816)" class="st2" width="1.6" height="1.6"/>
				
					<rect x="34.2" y="47.8" transform="matrix(-1 -1.224647e-16 1.224647e-16 -1 69.9506 97.282)" class="st4" width="1.6" height="1.6"/>
				
					<rect x="32.6" y="47.8" transform="matrix(-1 -1.224647e-16 1.224647e-16 -1 66.7501 97.282)" class="st2" width="1.6" height="1.6"/>
				
					<rect x="34.2" y="46.2" transform="matrix(-1 -1.224647e-16 1.224647e-16 -1 69.9506 94.0816)" class="st3" width="1.6" height="1.6"/>
				
					<rect x="32.6" y="46.2" transform="matrix(-1 -1.224647e-16 1.224647e-16 -1 66.7501 94.0816)" class="st4" width="1.6" height="1.6"/>
				
					<rect x="31" y="47.8" transform="matrix(-1 -1.224647e-16 1.224647e-16 -1 63.5497 97.282)" class="st4" width="1.6" height="1.6"/>
				
					<rect x="29.4" y="47.8" transform="matrix(-1 -1.224647e-16 1.224647e-16 -1 60.3492 97.282)" class="st4" width="1.6" height="1.6"/>
				
					<rect x="31" y="46.2" transform="matrix(-1 -1.224647e-16 1.224647e-16 -1 63.5497 94.0816)" class="st3" width="1.6" height="1.6"/>
				
					<rect x="29.4" y="46.2" transform="matrix(-1 -1.224647e-16 1.224647e-16 -1 60.3492 94.0816)" class="st2" width="1.6" height="1.6"/>
				
					<rect x="27.8" y="47.8" transform="matrix(-1 -1.224647e-16 1.224647e-16 -1 57.1488 97.282)" class="st3" width="1.6" height="1.6"/>
				
					<rect x="26.2" y="47.8" transform="matrix(-1 -1.224647e-16 1.224647e-16 -1 53.9483 97.282)" class="st4" width="1.6" height="1.6"/>
				
					<rect x="27.8" y="46.2" transform="matrix(-1 -1.224647e-16 1.224647e-16 -1 57.1488 94.0816)" class="st2" width="1.6" height="1.6"/>
				
					<rect x="26.2" y="46.2" transform="matrix(-1 -1.224647e-16 1.224647e-16 -1 53.9483 94.0816)" class="st3" width="1.6" height="1.6"/>
				
					<rect x="24.6" y="47.8" transform="matrix(-1 -1.224647e-16 1.224647e-16 -1 50.7479 97.282)" class="st2" width="1.6" height="1.6"/>
				
					<rect x="23" y="47.8" transform="matrix(-1 -1.224647e-16 1.224647e-16 -1 47.5474 97.282)" class="st4" width="1.6" height="1.6"/>
				
					<rect x="24.6" y="46.2" transform="matrix(-1 -1.224647e-16 1.224647e-16 -1 50.7479 94.0816)" class="st4" width="1.6" height="1.6"/>
				
					<rect x="23" y="46.2" transform="matrix(-1 -1.224647e-16 1.224647e-16 -1 47.5474 94.0816)" class="st3" width="1.6" height="1.6"/>
				
					<rect x="21.4" y="47.8" transform="matrix(-1 -1.224647e-16 1.224647e-16 -1 44.347 97.282)" class="st2" width="1.6" height="1.6"/>
				
					<rect x="19.8" y="47.8" transform="matrix(-1 -1.224647e-16 1.224647e-16 -1 41.1466 97.282)" class="st4" width="1.6" height="1.6"/>
				
					<rect x="21.4" y="46.2" transform="matrix(-1 -1.224647e-16 1.224647e-16 -1 44.347 94.0816)" class="st3" width="1.6" height="1.6"/>
				
					<rect x="19.8" y="46.2" transform="matrix(-1 -1.224647e-16 1.224647e-16 -1 41.1466 94.0816)" class="st2" width="1.6" height="1.6"/>
				
					<rect x="18.2" y="47.8" transform="matrix(-1 -1.224647e-16 1.224647e-16 -1 37.9461 97.282)" class="st3" width="1.6" height="1.6"/>
				
					<rect x="16.6" y="47.8" transform="matrix(-1 -1.224647e-16 1.224647e-16 -1 34.7457 97.282)" class="st2" width="1.6" height="1.6"/>
				
					<rect x="18.2" y="46.2" transform="matrix(-1 -1.224647e-16 1.224647e-16 -1 37.9461 94.0816)" class="st3" width="1.6" height="1.6"/>
				
					<rect x="16.6" y="46.2" transform="matrix(-1 -1.224647e-16 1.224647e-16 -1 34.7457 94.0816)" class="st4" width="1.6" height="1.6"/>
				
					<rect x="15" y="47.8" transform="matrix(-1 -1.224647e-16 1.224647e-16 -1 31.5452 97.282)" class="st2" width="1.6" height="1.6"/>
				
					<rect x="13.4" y="47.8" transform="matrix(-1 -1.224647e-16 1.224647e-16 -1 28.3448 97.282)" class="st3" width="1.6" height="1.6"/>
				
					<rect x="15" y="46.2" transform="matrix(-1 -1.224647e-16 1.224647e-16 -1 31.5452 94.0816)" class="st3" width="1.6" height="1.6"/>
				
					<rect x="13.4" y="46.2" transform="matrix(-1 -1.224647e-16 1.224647e-16 -1 28.3448 94.0816)" class="st4" width="1.6" height="1.6"/>
				
					<rect x="11.8" y="47.8" transform="matrix(-1 -1.224647e-16 1.224647e-16 -1 25.1443 97.282)" class="st4" width="1.6" height="1.6"/>
				
					<rect x="10.2" y="47.8" transform="matrix(-1 -1.224647e-16 1.224647e-16 -1 21.9439 97.282)" class="st2" width="1.6" height="1.6"/>
				
					<rect x="11.8" y="46.2" transform="matrix(-1 -1.224647e-16 1.224647e-16 -1 25.1443 94.0816)" class="st2" width="1.6" height="1.6"/>
				
					<rect x="10.2" y="46.2" transform="matrix(-1 -1.224647e-16 1.224647e-16 -1 21.9439 94.0816)" class="st3" width="1.6" height="1.6"/>
			</g>
			<g>
				
					<rect x="37.3" y="62" transform="matrix(-1 -1.224647e-16 1.224647e-16 -1 76.1514 125.686)" class="st2" width="1.6" height="1.6"/>
				
					<rect x="35.7" y="62" transform="matrix(-1 -1.224647e-16 1.224647e-16 -1 72.951 125.686)" class="st3" width="1.6" height="1.6"/>
				
					<rect x="37.3" y="60.4" transform="matrix(-1 -1.224647e-16 1.224647e-16 -1 76.1514 122.4855)" class="st4" width="1.6" height="1.6"/>
				
					<rect x="35.7" y="60.4" transform="matrix(-1 -1.224647e-16 1.224647e-16 -1 72.951 122.4855)" class="st2" width="1.6" height="1.6"/>
				
					<rect x="34.1" y="62" transform="matrix(-1 -1.224647e-16 1.224647e-16 -1 69.7505 125.686)" class="st4" width="1.6" height="1.6"/>
				
					<rect x="32.5" y="62" transform="matrix(-1 -1.224647e-16 1.224647e-16 -1 66.5501 125.686)" class="st2" width="1.6" height="1.6"/>
				
					<rect x="34.1" y="60.4" transform="matrix(-1 -1.224647e-16 1.224647e-16 -1 69.7505 122.4855)" class="st3" width="1.6" height="1.6"/>
				
					<rect x="32.5" y="60.4" transform="matrix(-1 -1.224647e-16 1.224647e-16 -1 66.5501 122.4855)" class="st4" width="1.6" height="1.6"/>
				
					<rect x="30.9" y="62" transform="matrix(-1 -1.224647e-16 1.224647e-16 -1 63.3496 125.686)" class="st4" width="1.6" height="1.6"/>
				
					<rect x="29.3" y="62" transform="matrix(-1 -1.224647e-16 1.224647e-16 -1 60.1492 125.686)" class="st4" width="1.6" height="1.6"/>
				
					<rect x="30.9" y="60.4" transform="matrix(-1 -1.224647e-16 1.224647e-16 -1 63.3496 122.4855)" class="st3" width="1.6" height="1.6"/>
				
					<rect x="29.3" y="60.4" transform="matrix(-1 -1.224647e-16 1.224647e-16 -1 60.1492 122.4855)" class="st2" width="1.6" height="1.6"/>
				
					<rect x="27.7" y="62" transform="matrix(-1 -1.224647e-16 1.224647e-16 -1 56.9488 125.686)" class="st3" width="1.6" height="1.6"/>
				
					<rect x="26.1" y="62" transform="matrix(-1 -1.224647e-16 1.224647e-16 -1 53.7483 125.686)" class="st4" width="1.6" height="1.6"/>
				
					<rect x="27.7" y="60.4" transform="matrix(-1 -1.224647e-16 1.224647e-16 -1 56.9488 122.4855)" class="st2" width="1.6" height="1.6"/>
				
					<rect x="26.1" y="60.4" transform="matrix(-1 -1.224647e-16 1.224647e-16 -1 53.7483 122.4855)" class="st3" width="1.6" height="1.6"/>
				
					<rect x="24.5" y="62" transform="matrix(-1 -1.224647e-16 1.224647e-16 -1 50.5479 125.686)" class="st2" width="1.6" height="1.6"/>
				
					<rect x="22.9" y="62" transform="matrix(-1 -1.224647e-16 1.224647e-16 -1 47.3474 125.686)" class="st4" width="1.6" height="1.6"/>
				
					<rect x="24.5" y="60.4" transform="matrix(-1 -1.224647e-16 1.224647e-16 -1 50.5479 122.4855)" class="st4" width="1.6" height="1.6"/>
				
					<rect x="22.9" y="60.4" transform="matrix(-1 -1.224647e-16 1.224647e-16 -1 47.3474 122.4855)" class="st3" width="1.6" height="1.6"/>
				
					<rect x="21.3" y="62" transform="matrix(-1 -1.224647e-16 1.224647e-16 -1 44.147 125.686)" class="st2" width="1.6" height="1.6"/>
				
					<rect x="19.7" y="62" transform="matrix(-1 -1.224647e-16 1.224647e-16 -1 40.9465 125.686)" class="st4" width="1.6" height="1.6"/>
				
					<rect x="21.3" y="60.4" transform="matrix(-1 -1.224647e-16 1.224647e-16 -1 44.147 122.4855)" class="st3" width="1.6" height="1.6"/>
				
					<rect x="19.7" y="60.4" transform="matrix(-1 -1.224647e-16 1.224647e-16 -1 40.9465 122.4855)" class="st2" width="1.6" height="1.6"/>
				
					<rect x="18.1" y="62" transform="matrix(-1 -1.224647e-16 1.224647e-16 -1 37.7461 125.686)" class="st3" width="1.6" height="1.6"/>
				
					<rect x="16.5" y="62" transform="matrix(-1 -1.224647e-16 1.224647e-16 -1 34.5456 125.686)" class="st2" width="1.6" height="1.6"/>
				
					<rect x="18.1" y="60.4" transform="matrix(-1 -1.224647e-16 1.224647e-16 -1 37.7461 122.4855)" class="st3" width="1.6" height="1.6"/>
				
					<rect x="16.5" y="60.4" transform="matrix(-1 -1.224647e-16 1.224647e-16 -1 34.5456 122.4855)" class="st4" width="1.6" height="1.6"/>
				
					<rect x="14.9" y="62" transform="matrix(-1 -1.224647e-16 1.224647e-16 -1 31.3452 125.686)" class="st2" width="1.6" height="1.6"/>
				
					<rect x="13.3" y="62" transform="matrix(-1 -1.224647e-16 1.224647e-16 -1 28.1448 125.686)" class="st3" width="1.6" height="1.6"/>
				
					<rect x="14.9" y="60.4" transform="matrix(-1 -1.224647e-16 1.224647e-16 -1 31.3452 122.4855)" class="st3" width="1.6" height="1.6"/>
				
					<rect x="13.3" y="60.4" transform="matrix(-1 -1.224647e-16 1.224647e-16 -1 28.1448 122.4855)" class="st4" width="1.6" height="1.6"/>
				
					<rect x="11.7" y="62" transform="matrix(-1 -1.224647e-16 1.224647e-16 -1 24.9443 125.686)" class="st4" width="1.6" height="1.6"/>
				
					<rect x="10.1" y="62" transform="matrix(-1 -1.224647e-16 1.224647e-16 -1 21.7439 125.686)" class="st2" width="1.6" height="1.6"/>
				
					<rect x="11.7" y="60.4" transform="matrix(-1 -1.224647e-16 1.224647e-16 -1 24.9443 122.4855)" class="st2" width="1.6" height="1.6"/>
				
					<rect x="10.1" y="60.4" transform="matrix(-1 -1.224647e-16 1.224647e-16 -1 21.7439 122.4855)" class="st3" width="1.6" height="1.6"/>
			</g>
			<g>
				
					<rect x="10.2" y="69.2" transform="matrix(-1 -1.224647e-16 1.224647e-16 -1 21.9439 140.088)" class="st2" width="1.6" height="1.6"/>
				
					<rect x="11.8" y="69.2" transform="matrix(-1 -1.224647e-16 1.224647e-16 -1 25.1443 140.088)" class="st3" width="1.6" height="1.6"/>
				
					<rect x="10.2" y="67.6" transform="matrix(-1 -1.224647e-16 1.224647e-16 -1 21.9439 136.8875)" class="st4" width="1.6" height="1.6"/>
				
					<rect x="11.8" y="67.6" transform="matrix(-1 -1.224647e-16 1.224647e-16 -1 25.1443 136.8875)" class="st2" width="1.6" height="1.6"/>
				
					<rect x="13.4" y="69.2" transform="matrix(-1 -1.224647e-16 1.224647e-16 -1 28.3448 140.088)" class="st4" width="1.6" height="1.6"/>
				
					<rect x="15" y="69.2" transform="matrix(-1 -1.224647e-16 1.224647e-16 -1 31.5452 140.088)" class="st2" width="1.6" height="1.6"/>
				
					<rect x="13.4" y="67.6" transform="matrix(-1 -1.224647e-16 1.224647e-16 -1 28.3448 136.8875)" class="st3" width="1.6" height="1.6"/>
				
					<rect x="15" y="67.6" transform="matrix(-1 -1.224647e-16 1.224647e-16 -1 31.5452 136.8875)" class="st4" width="1.6" height="1.6"/>
				
					<rect x="16.6" y="69.2" transform="matrix(-1 -1.224647e-16 1.224647e-16 -1 34.7457 140.088)" class="st4" width="1.6" height="1.6"/>
				
					<rect x="18.2" y="69.2" transform="matrix(-1 -1.224647e-16 1.224647e-16 -1 37.9461 140.088)" class="st4" width="1.6" height="1.6"/>
				
					<rect x="16.6" y="67.6" transform="matrix(-1 -1.224647e-16 1.224647e-16 -1 34.7457 136.8875)" class="st3" width="1.6" height="1.6"/>
				
					<rect x="18.2" y="67.6" transform="matrix(-1 -1.224647e-16 1.224647e-16 -1 37.9461 136.8875)" class="st2" width="1.6" height="1.6"/>
				
					<rect x="19.8" y="69.2" transform="matrix(-1 -1.224647e-16 1.224647e-16 -1 41.1466 140.088)" class="st3" width="1.6" height="1.6"/>
				
					<rect x="21.4" y="69.2" transform="matrix(-1 -1.224647e-16 1.224647e-16 -1 44.347 140.088)" class="st4" width="1.6" height="1.6"/>
				
					<rect x="19.8" y="67.6" transform="matrix(-1 -1.224647e-16 1.224647e-16 -1 41.1466 136.8875)" class="st2" width="1.6" height="1.6"/>
				
					<rect x="21.4" y="67.6" transform="matrix(-1 -1.224647e-16 1.224647e-16 -1 44.347 136.8875)" class="st3" width="1.6" height="1.6"/>
				
					<rect x="23" y="69.2" transform="matrix(-1 -1.224647e-16 1.224647e-16 -1 47.5474 140.088)" class="st2" width="1.6" height="1.6"/>
				
					<rect x="24.6" y="69.2" transform="matrix(-1 -1.224647e-16 1.224647e-16 -1 50.7479 140.088)" class="st4" width="1.6" height="1.6"/>
				
					<rect x="23" y="67.6" transform="matrix(-1 -1.224647e-16 1.224647e-16 -1 47.5474 136.8875)" class="st4" width="1.6" height="1.6"/>
				
					<rect x="24.6" y="67.6" transform="matrix(-1 -1.224647e-16 1.224647e-16 -1 50.7479 136.8875)" class="st3" width="1.6" height="1.6"/>
				
					<rect x="26.2" y="69.2" transform="matrix(-1 -1.224647e-16 1.224647e-16 -1 53.9483 140.088)" class="st2" width="1.6" height="1.6"/>
				
					<rect x="27.8" y="69.2" transform="matrix(-1 -1.224647e-16 1.224647e-16 -1 57.1488 140.088)" class="st4" width="1.6" height="1.6"/>
				
					<rect x="26.2" y="67.6" transform="matrix(-1 -1.224647e-16 1.224647e-16 -1 53.9483 136.8875)" class="st3" width="1.6" height="1.6"/>
				
					<rect x="27.8" y="67.6" transform="matrix(-1 -1.224647e-16 1.224647e-16 -1 57.1488 136.8875)" class="st2" width="1.6" height="1.6"/>
				
					<rect x="29.4" y="69.2" transform="matrix(-1 -1.224647e-16 1.224647e-16 -1 60.3492 140.088)" class="st3" width="1.6" height="1.6"/>
				
					<rect x="31" y="69.2" transform="matrix(-1 -1.224647e-16 1.224647e-16 -1 63.5497 140.088)" class="st2" width="1.6" height="1.6"/>
				
					<rect x="29.4" y="67.6" transform="matrix(-1 -1.224647e-16 1.224647e-16 -1 60.3492 136.8875)" class="st3" width="1.6" height="1.6"/>
				
					<rect x="31" y="67.6" transform="matrix(-1 -1.224647e-16 1.224647e-16 -1 63.5497 136.8875)" class="st4" width="1.6" height="1.6"/>
				
					<rect x="32.6" y="69.2" transform="matrix(-1 -1.224647e-16 1.224647e-16 -1 66.7501 140.088)" class="st2" width="1.6" height="1.6"/>
				
					<rect x="34.2" y="69.2" transform="matrix(-1 -1.224647e-16 1.224647e-16 -1 69.9506 140.088)" class="st3" width="1.6" height="1.6"/>
				
					<rect x="32.6" y="67.6" transform="matrix(-1 -1.224647e-16 1.224647e-16 -1 66.7501 136.8875)" class="st3" width="1.6" height="1.6"/>
				
					<rect x="34.2" y="67.6" transform="matrix(-1 -1.224647e-16 1.224647e-16 -1 69.9506 136.8875)" class="st4" width="1.6" height="1.6"/>
				
					<rect x="35.8" y="69.2" transform="matrix(-1 -1.224647e-16 1.224647e-16 -1 73.151 140.088)" class="st4" width="1.6" height="1.6"/>
				
					<rect x="37.4" y="69.2" transform="matrix(-1 -1.224647e-16 1.224647e-16 -1 76.3514 140.088)" class="st2" width="1.6" height="1.6"/>
				
					<rect x="35.8" y="67.6" transform="matrix(-1 -1.224647e-16 1.224647e-16 -1 73.151 136.8875)" class="st2" width="1.6" height="1.6"/>
				
					<rect x="37.4" y="67.6" transform="matrix(-1 -1.224647e-16 1.224647e-16 -1 76.3514 136.8875)" class="st3" width="1.6" height="1.6"/>
			</g>
		</g>
		<g>
			<path class="st5" d="M38.6,38.7c-0.5,0-1-0.1-1.4,0c-0.1,0-0.2,0.1-0.4,0.1c-0.2,0-0.4,0-0.6,0c-0.5,0-0.9,0-1.4,0
				c-0.5,0-1,0.1-1.5,0.1c-0.7,0-1.4,0-2.1,0c-0.3,0-0.6-0.1-1-0.1c-0.4,0-0.8,0.1-1.2,0c-0.4,0-0.7-0.1-1.1-0.1c-0.4,0-0.9,0-1.3,0
				c-0.5,0-1,0-1.5,0c-0.6,0-1.3-0.1-1.9,0c-0.8,0-1.6,0-2.4,0c-0.8,0-1.5-0.1-2.3,0c-0.6,0.1-1.3-0.1-1.9,0c-0.2,0-0.4,0.1-0.5,0.1
				c-0.2,0-0.4,0-0.6,0c-0.5,0-1,0.1-1.4,0.1c-0.6,0.1-1.1,0-1.7-0.1c-0.4,0-0.9,0-1.3-0.1c-0.2,0-0.4,0-0.7,0c-0.1,0-0.2-0.1-0.2,0
				c-0.2,0.1-0.1,0.5-0.1,0.7c0,0.2-0.1,0.4,0,0.7c0,0.1,0.1,0.2,0.1,0.4c0,0.2,0,0.5,0,0.7c0,0.2,0,0.3-0.1,0.5
				c0,0.1-0.1,0.3,0,0.4c0.2,0.3,0.8,0,1,0c0.2,0,0.2,0,0.3,0c0.1,0,0.3,0,0.5,0c0.3,0,0.6,0,0.9,0c0.6,0,1.1,0.2,1.7,0.1
				c0.6,0,1.3,0.1,1.9,0c0.4-0.1,0.7-0.1,1.1-0.1c0.5,0,1,0.1,1.5,0c0.8-0.1,1.5,0,2.3-0.1c0.4,0,0.9,0,1.3,0c0.5,0,0.9,0,1.4,0
				c1.3,0,2.6,0.2,3.8,0.3c0.4,0,0.9-0.1,1.3-0.1c0.4,0,0.9,0,1.3,0c0.6,0,1.1,0,1.7,0c0.6,0,1.2-0.1,1.8,0c0.6,0.1,1.3-0.1,1.9-0.1
				c0.3,0,0.6,0.1,0.9,0c0.2,0,0.4-0.1,0.6,0c0.5,0.1,0.9,0.1,1.4,0.1c0.1,0,0.4,0.1,0.5-0.1c0-0.1-0.1-0.3-0.1-0.4
				c0-0.2,0-0.4,0-0.5c0-0.5-0.1-0.9-0.2-1.4c-0.1-0.2-0.1-0.4-0.1-0.6C38.6,39.1,38.7,38.9,38.6,38.7z"/>
			<path class="st5" d="M38.5,45.8c-0.4,0-0.8,0.1-1.3,0.1c-0.1,0-0.1,0-0.2,0c-0.2,0-0.5,0-0.7-0.1c-0.2,0-0.5,0-0.7,0
				c-0.3,0.1-0.6,0-0.8,0c-0.5,0-1,0-1.5,0c-0.4,0-0.8-0.1-1.1-0.1c-0.3,0-0.7,0-1,0c-0.2,0-0.4,0-0.6,0c-0.2,0-0.4,0-0.6,0
				c-0.2,0-0.4,0-0.6,0c-0.3,0-0.5,0-0.8,0c-0.8,0.1-1.6-0.1-2.4-0.1c-0.6,0-1.2,0-1.8,0c-0.1,0-0.3,0-0.5,0c-0.2,0-0.3,0.1-0.5,0.1
				c-0.4,0-0.7,0-1.1,0c-0.4,0-0.8,0-1.2,0c-0.4,0-0.7,0-1,0c-0.7,0-1.4-0.1-2.1,0c-0.3,0-0.6,0-0.9,0c-0.4,0-0.7,0-1.1,0
				c-0.6,0-1.2-0.1-1.8-0.1c-0.5,0-1-0.1-1.5-0.1c-0.4,0-0.8,0-1.2,0c-0.3,0-0.7-0.1-1,0c-0.1,0-0.2,0-0.3,0c0,0-0.1,0-0.2,0
				c-0.1,0.1,0,0.4,0,0.5c0,0.2,0,0.5,0,0.7c0,0.2,0,0.4,0,0.6c0,0.2-0.1,0.5-0.1,0.7c0,0.2-0.1,0.5,0,0.8c0,0.1,0,0.2,0,0.3
				c0,0.1,0,0.2,0,0.3c0,0,0.2,0.1,0.2,0.1c0.2,0.1,0.3,0.1,0.6,0c0.3-0.1,0.6,0,0.9-0.1c0.4,0,0.8-0.1,1.2-0.1c0.4,0,0.7-0.1,1.1,0
				c0.2,0,0.4,0,0.6-0.1c0.2,0,0.4,0,0.7,0c0.9,0,1.8,0.1,2.7,0.1c0.5,0,1,0,1.4,0c0.5,0,1,0,1.4,0c0.5,0,0.9,0,1.4,0
				c0.5,0,1,0.1,1.6,0.1c0.2,0,0.4,0,0.6,0c0.2,0,0.5,0,0.7,0c0.4,0,0.9,0,1.3,0c0.4,0,0.7,0.1,1.1,0c0.2,0,0.4,0,0.7-0.1
				c0.3,0,0.5,0,0.8,0c1-0.1,2.1-0.1,3.1-0.1c0.4,0,0.7,0,1.1,0c0.4,0,0.7,0,1.1,0c0.5,0,1.1,0,1.6,0.1c0.3,0,0.6,0,0.9,0
				c0.3,0,0.6,0.1,0.8,0c0.3,0,0.6,0.1,0.9,0c0.1,0,0.3,0,0.3-0.1c0.1-0.1,0.1-0.3,0.1-0.4c0-0.3,0.1-0.5,0.1-0.8
				c0-0.4,0-0.9-0.1-1.3c0-0.3-0.1-0.6-0.1-1C38.7,45.9,38.6,45.9,38.5,45.8z"/>
			<path class="st5" d="M38.6,53.1c-0.3,0-0.5-0.1-0.8-0.1c-0.1,0-0.2,0-0.4,0.1c-0.1,0-0.2,0-0.4,0c-0.4,0-0.8,0-1.2,0
				c-0.3,0-0.6,0-1,0.1c-0.2,0-0.3,0-0.5,0c-0.2,0-0.4,0-0.7,0c-0.4,0-0.9,0.1-1.3,0.1c-0.3,0-0.6,0-0.9,0c-0.3,0-0.7,0-1,0
				c-0.5,0-1,0-1.6,0c-0.3,0-0.5,0-0.8,0c-0.3,0-0.6,0-0.9,0c-0.3,0-0.5,0-0.7,0c-0.2,0-0.5,0-0.7,0c-0.3,0-0.5,0-0.8,0
				c-0.3,0-0.5,0-0.8,0c-0.4,0-0.8,0-1.2,0c-0.4,0-0.8-0.1-1.2-0.1c-0.4,0-0.8,0-1.1,0c-0.2,0-0.4,0-0.6,0c-0.2,0-0.4,0-0.7,0
				c-0.4,0-0.7,0-1.1,0c-0.2,0-0.3,0-0.5,0c-0.2,0-0.4,0-0.6-0.1c-0.3,0-0.7,0-1,0c-0.4,0-0.8,0-1.1,0c-0.3,0-0.6,0-0.9,0
				c-0.3,0-0.6-0.1-0.9-0.1c-0.3,0-0.6-0.1-0.9,0c-0.3,0-0.6,0-0.9,0c-0.3,0-0.6,0-0.9,0c-0.2,0-0.6-0.1-0.7,0
				c-0.1,0.1-0.1,0.3-0.1,0.4c0,0.2,0.1,0.5,0.1,0.7c0,0.4,0.1,0.8,0,1.2c0,0.3,0,0.5-0.1,0.8c0,0.3,0,0.8,0.4,0.8
				c0.2,0,0.4-0.1,0.7-0.1c0.3,0,0.6-0.1,1-0.2c0.3,0,0.6,0,0.9,0c0.3,0,0.6,0.1,0.9,0.1c0.3,0,0.6,0,0.9,0c0.3,0,0.5,0.1,0.8,0.1
				c0.3,0,0.6,0.1,0.9,0c0.3,0,0.6,0,0.9,0c0.3,0,0.7,0,1,0c0.4,0,0.7,0,1.1,0c0.4,0,0.8-0.1,1.1,0c0.2,0,0.4,0,0.7,0
				c0.2,0,0.4,0,0.6,0c0.4,0,0.8,0,1.2,0c0.4,0,0.9,0,1.3,0c1,0,1.9,0,2.9-0.1c0.5,0,0.9,0,1.4,0c0.4,0,0.8,0,1.2,0
				c0.3,0,0.6,0,0.9,0c0.3,0,0.6,0,0.9,0c0.6,0.1,1.2,0.1,1.7,0.1c0.6,0,1.3,0.1,1.9,0c0.1,0,0.3,0,0.4-0.1c0.1,0,0.2-0.1,0.3-0.1
				c0.2,0,0.4,0,0.5,0c0.2,0,0.3,0,0.5,0c0.1,0,0.3,0,0.4,0c0.4,0,0.8,0,1.3,0c0.1,0,0.2,0,0.3,0c0.1,0,0.1,0,0.1-0.1
				c0.1-0.2,0-0.4,0-0.6c0-0.1,0-0.3,0-0.4c0-0.1-0.1-0.2-0.1-0.4c0-0.1,0-0.2,0-0.3c0-0.1,0-0.3-0.1-0.4c0-0.1,0-0.2-0.1-0.3
				c0-0.1,0-0.2,0-0.3c0-0.1,0-0.3,0-0.4C38.7,53.4,38.8,53.2,38.6,53.1z"/>
			<path class="st5" d="M38.6,60.3c-0.9,0-1.8,0.1-2.7,0.1c-0.8,0-1.6,0-2.4,0c-0.4,0-0.9,0-1.3,0c-0.2,0-0.5,0-0.7,0
				c-0.3,0-0.5,0-0.8,0.1c-0.2,0-0.4,0-0.6,0c-0.2,0-0.3,0-0.5,0c-0.2,0-0.4,0-0.6,0c-0.2,0-0.4,0-0.6,0c-0.4,0-0.7-0.1-1.1-0.1
				c-0.5,0-1,0-1.5,0c-0.2,0-0.5,0-0.7,0c-0.2,0-0.4,0-0.7,0c-0.4,0-0.9,0-1.4,0c-0.8,0-1.6,0-2.4,0c-0.3,0-0.6,0-0.9,0
				c-0.3,0-0.6,0-1,0c-0.3,0-0.6,0-0.9,0c-0.4,0-0.8,0-1.2,0c-0.2,0-0.4,0.1-0.6,0.1c-0.2,0-0.4,0-0.6-0.1c-0.3,0-0.7-0.1-1-0.1
				c-0.3,0-0.5,0-0.8,0c-0.3,0-0.6,0-0.9,0c-0.5,0-1,0-1.5-0.1c-0.2,0-0.4,0-0.6,0c-0.1,0-0.2,0-0.3,0c-0.1,0-0.2,0.1-0.3,0.1
				c-0.1,0-0.2,0-0.3,0c-0.2,0.1-0.2,0.4-0.1,0.6c0.1,0.5,0.1,1,0,1.5c0,0.3-0.1,0.6,0,0.9c0,0.2,0,0.4,0.1,0.5c0,0.1,0,0.1,0,0.2
				c0.1,0.1,0.2,0.1,0.3,0.1c0.5,0,1.1-0.2,1.6-0.2c0.6,0,1.3-0.1,1.9-0.1c0.3,0,0.6,0,0.9,0c0.3,0,0.7,0.1,1,0.1c0.3,0,0.7,0,1,0
				c0.3,0,0.7,0,1,0c0.3,0,0.6-0.1,1,0c0.3,0,0.6,0.1,1,0.1c0.4,0,0.8,0,1.2,0c0.5,0,0.9,0,1.4,0.1c0.4,0,0.9-0.1,1.3,0
				c0.4,0,0.9,0,1.3,0c0.8,0,1.6-0.1,2.4-0.1c0.4,0,0.7,0,1.1,0c0.4,0,0.8,0,1.2,0c0.8,0,1.7,0,2.5,0.1c0.4,0,0.9,0,1.3,0
				c0.4,0,0.8,0,1.2,0c0.3,0,0.6,0,1,0c0.3,0,0.5,0,0.8,0c0.3,0,0.6,0,0.9,0c0.2,0,0.4,0,0.6,0c0.2,0,0.4,0,0.6,0
				c0.1,0,0.3,0,0.4-0.1c0.1-0.1,0.2-0.5,0.2-0.6c0-0.2-0.1-0.5-0.1-0.7c0-0.2,0-0.3,0-0.5c0-0.1,0-0.3,0-0.4c0-0.2,0-0.4,0-0.6
				c0-0.2,0-0.4-0.1-0.5c0-0.1-0.1-0.2-0.1-0.3C38.6,60.3,38.6,60.2,38.6,60.3z"/>
			<path class="st5" d="M38.6,67.5c-0.2-0.1-0.4-0.2-0.7-0.2c-0.1,0-0.1,0-0.2,0c-0.1,0-0.3,0-0.4,0c-0.4,0-0.7,0-1.1,0.1
				c-0.2,0-0.3,0-0.5,0c-0.2,0-0.4,0-0.5,0c-0.2,0-0.4,0-0.6,0c-0.2,0-0.4,0-0.6,0c-0.4,0-0.9,0.1-1.3,0.1c-0.5,0-1,0.1-1.6,0.1
				c-0.5,0-1.1-0.1-1.6-0.1c-0.2,0-0.5,0-0.7,0c-0.3,0-0.5,0-0.8,0c-0.9,0-1.8,0-2.7,0c-0.4,0-0.8,0-1.3,0c-0.4,0-0.8,0-1.2-0.1
				c-0.4,0-0.8,0-1.2-0.1c-0.4,0-0.9,0-1.3,0c-0.4,0-0.8,0-1.3,0c-0.4,0-0.8,0-1.2,0c-0.4,0-0.8,0-1.2,0c-0.3,0-0.7,0-1,0
				c-0.3,0-0.6,0.1-0.8,0.1c-0.3,0-0.6,0-0.9,0c-0.3,0-0.5,0.1-0.8,0c-0.3,0-0.6-0.1-0.9,0c-0.3,0-0.5,0-0.8,0c-0.3,0-0.5,0-0.8,0
				c-0.2,0-0.4-0.1-0.6,0c-0.2,0.1-0.3,0.2-0.3,0.4c-0.1,0.2,0,0.4,0,0.6c0,0.2,0,0.4,0.1,0.6c0,0.2,0.1,0.3,0,0.5
				c0,0.1,0,0.1,0,0.2c0,0.1,0,0.1,0,0.2c0,0.2,0,0.4,0,0.6c0,0.1,0,0.3,0.1,0.4c0,0.1,0.2,0.1,0.2,0.2c0.2,0.1,0.3,0.1,0.6,0.1
				c0.3,0,0.6,0,0.9,0c0.3,0,0.6,0,0.9,0c0.3,0,0.5-0.1,0.8,0c0.3,0.1,0.6,0.1,0.9,0c0.3,0,0.6,0,0.9,0c0.4,0,0.7,0,1.1,0
				c0.3,0,0.6,0,0.9,0c0.4,0,0.7,0,1.1,0c0.4,0,0.7,0,1.1,0.1c0.2,0,0.4,0,0.7,0c0.3,0,0.5,0,0.8-0.1c0.5,0,1,0,1.5,0
				c0.2,0,0.5,0,0.7-0.1c0.3,0,0.5,0,0.8,0c0.4,0,0.9,0.1,1.3,0c0.4-0.1,0.8,0,1.2,0c0.4,0,0.8,0,1.2,0c0.4,0,0.8,0,1.2,0.1
				c0.4,0,0.8,0,1.1,0c0.4,0,0.8,0,1.2,0c0.2,0,0.4,0,0.6,0c0.2,0,0.4,0,0.6,0c0.3,0,0.6,0,0.9,0.1c0.3,0,0.6,0,0.8,0
				c0.3,0,0.6,0,0.8,0c0.3,0,0.7,0,1,0c0.3,0,0.5,0,0.8,0.1c0.1,0,0.3,0,0.4,0c0.1,0,0.2,0,0.2,0c0.1,0,0.2,0,0.3,0
				c0.1,0,0.2,0,0.3,0c0.2,0,0.4,0,0.5,0c0.2,0,0.4,0.1,0.6,0c0.2-0.1,0.2-0.4,0.2-0.6c0-0.2-0.1-0.5-0.1-0.7
				c-0.1-0.4,0-0.8-0.1-1.2c0-0.3,0-0.6,0-0.9C38.8,67.7,38.8,67.6,38.6,67.5z"/>
		</g>
		<g>
			<g>
				<g>
					<g>
						<path class="st6" d="M28.3,20.5c-0.1,0.1-0.1,0.1-0.2,0.2c-0.1,0.2-0.2,0.5-0.3,0.7c-0.1,0.3-0.2,0.5-0.2,0.8
							c0,0.2,0,0.4,0,0.7c0,0.6,0,1.1-0.2,1.6c-0.1,0.5-0.3,1-0.6,1.5c-0.2,0.3-0.5,0.5-0.7,0.7c-0.2,0.2-0.4,0.3-0.7,0.4
							c-0.4,0.2-0.7,0.2-1.1,0.4c-0.1,0-0.2,0-0.4,0.1c0-0.4,0-0.9,0-1.3c0-0.6,0-1.3,0-2c0-0.5,0-1-0.1-1.5c0-0.4-0.1-0.7,0-1.1
							c0-0.1,0-0.3,0.1-0.4c0.1-0.1,0.3-0.2,0.4-0.2c0.1,0,0.3-0.1,0.4-0.1c0.2,0,0.4-0.1,0.5-0.1c-0.8,0-1.6,0-2.5,0
							c-0.5,0-0.9,0.1-1.4,0.1c0.3,0,0.6,0,0.8,0.2c0.2,0.1,0.2,0.3,0.3,0.5c0.1,0.3,0.1,0.6,0.1,0.9c0,0.4-0.1,0.8-0.1,1.1
							c0,1.3,0,2.6,0,3.9c-0.1,0-0.2,0-0.3,0c-0.3-0.1-0.7-0.2-1.1-0.4c-0.2-0.1-0.4-0.2-0.7-0.4c-0.3-0.2-0.5-0.4-0.7-0.7
							c-0.3-0.4-0.5-0.9-0.6-1.5c-0.1-0.5-0.1-1.1-0.2-1.6c0-0.2,0-0.4,0-0.7c0-0.3-0.1-0.6-0.2-0.8c-0.1-0.2-0.2-0.5-0.3-0.7
							c0-0.1-0.1-0.1-0.2-0.2c-0.2-0.3-0.6-0.3-0.9-0.4c0.1,0,0.2,0.1,0.3,0.3c0.1,0.2,0.2,0.4,0.3,0.6c0.2,0.5,0.2,1,0.2,1.5
							c0,0.3,0,0.6-0.1,0.8c-0.1,0.3-0.1,0.5-0.2,0.8c-0.2,0.5-0.1,1-0.1,1.5c0,0.5,0.2,1,0.5,1.4c0.1,0.1,0.3,0.3,0.4,0.4
							c0.2,0.2,0.4,0.2,0.6,0.3c0.4,0.1,0.8,0.3,1.2,0.5c0.4,0.2,0.9,0.2,1.4,0.2c0.3,0,0.5,0,0.8-0.1c0,0.2,0,0.4,0,0.7
							c0,0.2,0,0.5,0,0.7c0,0.2,0,0.3,0,0.5c0,0.2,0,0.3,0,0.5c0,0.2,0,0.4,0,0.6c0,0.2,0,0.4,0,0.6c0,0.1,0,0.2,0,0.3
							c0,0.1,0,0.3,0,0.4c0,0.3,0,0.5-0.2,0.7c-0.1,0.2-0.3,0.4-0.6,0.4c0.4,0,0.7,0,1.1,0c0.2,0,0.4,0,0.5,0c0.2,0,0.3,0,0.5,0
							c0.3,0,0.7-0.1,1-0.1c0.2,0,0.3,0,0.5,0c0.1,0,0.2,0,0.3,0c-0.4-0.1-0.8-0.1-1-0.4c-0.1-0.1-0.1-0.3-0.2-0.4
							C24,32.4,24,32.2,24,32c-0.1-0.6-0.1-1.3-0.1-1.9c0-0.6,0-1.3-0.1-1.9c0,0,0,0,0,0c0.3,0.1,0.6,0.1,0.9,0.1
							c0.5,0,0.9,0,1.4-0.2c0.4-0.2,0.8-0.3,1.2-0.5c0.2-0.1,0.4-0.1,0.6-0.3c0.1-0.1,0.3-0.3,0.4-0.4c0.3-0.4,0.5-0.9,0.5-1.4
							c0-0.5,0.1-1-0.1-1.5c-0.1-0.2-0.1-0.5-0.2-0.8c-0.1-0.2-0.1-0.5-0.1-0.8c0-0.5,0-1,0.2-1.5c0.1-0.2,0.2-0.4,0.3-0.6
							c0.1-0.1,0.2-0.3,0.3-0.3C28.8,20.2,28.5,20.2,28.3,20.5z"/>
					</g>
				</g>
				<path class="st6" d="M31.9,20.3c-0.2,0.1-0.4,0.3-0.3,0.6c1.3,2.4,2.6,3.9,4.3,6c-0.5,0.8-1.4,1.9-1.9,2.7
					c-0.7,1-1.4,1.8-2.2,2.7c-0.2,0.2-0.2,0.6-0.1,0.8c0,0.1,0.1,0.1,0.2,0.2c0.2,0.1,0.5,0.1,0.8,0c0.2-0.1,0.4-0.3,0.6-0.5
					c1.5-1.5,3-3.6,4.1-5.4c0.1-0.1,0.1-0.3,0.1-0.4c0-0.2-0.1-0.3-0.2-0.5c-0.6-0.8-0.8-1.3-1.4-2.2c-0.3-0.5-1.3-1.5-1.8-2.2
					c-0.6-0.8-0.7-0.9-1.6-1.9C32.3,20.2,32,20.3,31.9,20.3z"/>
				<path class="st6" d="M13.1,20.3c-0.2,0-0.3,0.1-0.4,0.2c-0.4,0.3-0.2,1-0.1,1.4c0,0.8,0,1.5,0,2.3c0,0.6-0.1,1.1-0.1,1.7
					c0,0.6,0,1.2,0,1.7c0,0.7,0,1.3,0,2c0,0.6-0.1,1.2-0.1,1.8c0,0.4,0.1,0.8,0.2,1.2c0,0.2,0.1,0.5,0.2,0.6
					c0.1,0.1,0.2,0.2,0.4,0.2c0.1,0,0.4,0.1,0.5,0c0.1-0.1,0.1-0.2,0.2-0.3c0.1-0.2,0.1-0.4,0.1-0.6c0.1-0.5,0.1-0.9,0-1.4
					c0-0.3,0-0.6-0.1-0.9c0-0.3,0-0.5,0-0.8c0-0.3-0.1-0.5-0.1-0.8c0-0.2,0-0.5,0.1-0.7c0-0.2,0-0.4,0-0.6c0-0.2,0-0.4,0-0.6
					c-0.1-1.1,0.1-2.2,0.1-3.3c0-0.4,0.1-0.7,0-1.1c0-0.2,0-0.3,0-0.5c0-0.2,0-0.3,0-0.5c0-0.3,0-0.7-0.3-1
					C13.4,20.3,13.3,20.3,13.1,20.3z"/>
			</g>
		</g>
	</g>
	<g>
		<path class="st5" d="M27,58.7c1.1-1,2-2,2.8-3.2c0.5-0.8,1-1.5,1.6-2.3c0.9-1,1.6-2,2.4-3.1c0.7-0.9,1.4-1.8,2.1-2.7
			c0.4-0.5,0.7-0.9,1-1.4c0.4-0.6,0.9-1.2,1.3-1.8c0.7-1,1.6-1.8,2.3-2.9c0.6-0.9,1.2-1.9,1.9-2.7c0.4-0.5,0.8-1,1.2-1.5
			c0.5-0.6,0.9-1.4,1.5-2c0.5-0.6,1-1.1,1.5-1.7c0.5-0.6,0.9-1.2,1.4-1.8c0.7-0.9,1.6-1.7,2.4-2.7c0.4-0.5,0.8-1.1,1.2-1.6
			c0.4-0.5,1-1,1.4-1.5c0.4-0.5,0.8-1,1.2-1.5c0.5-0.6,0.8-1.2,1.4-1.7c0.9-0.9,1.8-1.9,2.6-2.9c0.8-1,1.7-1.8,2.4-2.7
			c0.4-0.5,0.8-0.9,1.1-1.5c0.3-0.5,0.7-0.9,1.1-1.4c0.6-0.7,1.2-1.4,1.7-2.2"/>
		<path class="st5" d="M29.6,64.1c1.2-0.4,2.4-0.9,3.5-1.3c0.4-0.2,0.8-0.3,1.2-0.3c0.7-0.1,1.3,0,2,0c0.6,0,1.2-0.2,1.7-0.4
			c0.7-0.3,1.4-0.4,2.1-0.5c0.7-0.1,1.3-0.1,1.9-0.3c0.7-0.3,1.3-0.5,2.1-0.6c0.7-0.1,1.4-0.1,2.1-0.2c0.8-0.1,1.6-0.4,2.4-0.6
			c0.7-0.2,1.4-0.2,2-0.3c0.9-0.1,1.7-0.4,2.5-0.6c0.7-0.2,1.5-0.4,2.2-0.6c1.1-0.2,2.2-0.3,3.3-0.7c0.8-0.3,1.5-0.5,2.3-0.6
			c0.9-0.1,1.7-0.2,2.5-0.4c1.5-0.4,3.1-0.6,4.6-1c1.5-0.3,2.9-0.9,4.4-1.1c0.6-0.1,1.2-0.2,1.7-0.3c0.8-0.2,1.6-0.5,2.4-0.7
			c0.5-0.1,1.1-0.1,1.6-0.2c0.6-0.1,1.2-0.3,1.8-0.4c1.1-0.3,2.3-0.3,3.4-0.5c0.8-0.2,1.6-0.5,2.4-0.6"/>
		<path class="st7" d="M28.4,58.3c-0.5,0.1-1.1,0.2-1.5,0.5c-0.1,0.1-0.2,0.2-0.3,0.3c-0.1,0.2-0.3,0.3-0.4,0.5
			c-0.1,0.3-0.3,0.6-0.4,0.9c-0.1,0.3-0.3,0.7-0.3,1c0,0.4,0.2,0.8,0.4,1.1c0.5,0.9,1.6,1.7,2.6,1.8c0.5,0,1.2-0.3,1.5-0.6
			c0.4-0.4,1-0.7,1.2-1.2c0.2-0.4,0.5-1,0.4-1.4c-0.1-0.6-0.3-1.2-0.5-1.7c-0.2-0.6-0.9-1-1.4-1.2c-0.2-0.1-0.5-0.2-0.8-0.3
			c-0.1,0-0.3,0-0.4,0C28.3,58.2,27.9,58.1,28.4,58.3z"/>
		<path class="st5" d="M28.4,58.3c-0.5,0.1-1.1,0.2-1.5,0.5c-0.1,0.1-0.2,0.2-0.3,0.3c-0.1,0.2-0.3,0.3-0.4,0.5
			c-0.1,0.3-0.3,0.6-0.4,0.9c-0.1,0.3-0.3,0.7-0.3,1c0,0.4,0.2,0.8,0.4,1.1c0.5,0.9,1.6,1.7,2.6,1.8c0.5,0,1.2-0.3,1.5-0.6
			c0.4-0.4,1-0.7,1.2-1.2c0.2-0.4,0.5-1,0.4-1.4c-0.1-0.6-0.3-1.2-0.5-1.7c-0.2-0.6-0.9-1-1.4-1.2c-0.2-0.1-0.5-0.2-0.8-0.3
			c-0.1,0-0.3,0-0.4,0C28.3,58.2,27.9,58.1,28.4,58.3z"/>
	</g>
	<g>
		<path class="st8" d="M63.5,17c-0.7,0.7-1.4,1.3-1.8,2.2c-0.1,0.3-0.2,0.6-0.4,0.8c-0.4,0.7-1-0.4-1.3,0.3c-0.6,1.1-1,3.5-1.4,4.7
			c-0.2,0.6-0.2,1.9-0.3,2.5c-0.1,0.8-0.3,1.7-0.3,2.5c0,0.7,0,1.4,0,2.1c0,0.6-0.1,1.3,0,1.9c0.2,1.3,0.5,2.7,0.7,4
			c0.2,1.4,0.8,2.7,1.5,3.9c0.9,1.6,2.1,3,3.2,4.4c0.5,0.6,1,1.2,1.5,1.8c0.6,0.7,1.3,1.2,2.1,1.7c1.7,1.2,3.6,2,5.6,2.8
			c0.8,0.3,1.4,0.5,2.3,0.5c0.7,0,1.4,0.1,2,0.1c0.7,0,1.3,0,2-0.1c0.7-0.1,1.4,0,2.1-0.1c0.6-0.1,1.1-0.3,1.7-0.5
			c0.5-0.1,1-0.2,1.6-0.4c1.1-0.3,2.3-0.1,3.4-0.5c0.8-0.3,1.6-0.9,2.3-1.4c0.3-0.2,0.6-0.4,0.9-0.6c0.4-0.2,0.9-0.3,1.3-0.5
			c0.9-0.6,1.7-1.3,2.5-2c0.4-0.4,0.7-0.8,1-1.3c0.3-0.6,0.8-1,1.2-1.5c0.3-0.4,0.6-0.8,0.8-1.3c0.3-0.5,0.6-0.8,0.9-1.3
			c0.2-0.4,0.7-0.6,0.9-1c0.2-0.5,0.4-1,0.5-1.6c0.1-0.4,0.6-1.5,0.6-1.9c0.1-0.5,0.6-1.9,0.7-2.4c0.1-0.5,0.3-6.5,0.2-7.1
			c-0.1-0.5-1.3,5.9-1.2,5.4c0.2-1,0.2-1.8,0.1-2.8c0-0.5,0-1,0-1.5c-0.1-0.5-0.2-1.1-0.4-1.6c-0.3-1.3-0.9-2.5-1.4-3.7
			c-0.7-1.5-1.5-2.9-2.6-4.2c-0.9-1.1-1.6-2.3-2.6-3.3c-0.8-0.9-1.8-1.7-2.8-2.4c-0.4-0.3-0.9-0.5-1.3-0.8c-0.5-0.3-1-0.7-1.6-0.9
			c-1.8-0.9-3.8-1.7-5.9-1.9c-1.4-0.1-2.8-0.5-4.3-0.3c-0.7,0.1-1.4,0.2-2,0.4c-0.4,0.1-0.7,0.3-1.1,0.4c-0.3,0.1-0.6,0.1-1,0.2
			c-1.3,0.4-2.5,0.9-3.7,1.6c-0.6,0.3-1.1,0.7-1.7,1.1c-0.4,0.4-0.9,0.6-1.4,0.9c-0.8,0.5-1.5,1.1-2.2,1.7
			C63.4,16.8,63.1,18,63.5,17z"/>
		<path class="st9" d="M99.1,50.7c-0.2,0.4-0.3,1,0.1,1.5c0.1,0.2,0.3,0.3,0.4,0.5c0.3,0.3,0.6,0.6,0.9,1c0.7,0.7,1.4,1.5,2.1,2.2
			c1.5,1.5,2.9,2.9,4.4,4.4c3.3,3.3,6.6,6.7,10,10c0.4,0.3,0.7,0.7,1,1.1c0.2,0.2,0.5,0.5,0.8,0.8c0.3,0.4,0.8,0.9,1.2,1.1
			c0.4,0.2,0.8,0.4,1.2,0.4c0.4,0,0.8-0.1,1.1-0.3c0.5-0.3,1-0.8,1.4-1.3c0.2-0.3,0.2-0.7,0.3-1c0.1-0.4,0.3-0.9,0.1-1.4
			c-0.6-1.5-1.9-2.6-3-3.8c-0.8-0.9-1.7-1.7-2.6-2.6c-0.4-0.4-0.9-0.8-1.3-1.2c-0.4-0.3-0.7-0.7-1.3-1.1c-1.4-1.4-2.7-2.7-4.1-4.1
			c-0.5-0.5-1.1-1.1-1.6-1.6c-0.5-0.5-0.9-1-1.4-1.5c-1.2-1.2-2.3-2.3-3.5-3.5c-0.4-0.4-0.8-0.7-1.2-1c-0.3-0.3-0.6-0.5-0.9-0.7
			c-0.3-0.2-0.6-0.3-0.9-0.4c-0.4-0.1-0.6,0.1-0.9,0.2c-0.3,0.4-0.5,0.8-0.9,1.1c-0.2,0.1-0.3,0.3-0.4,0.5c-0.1,0.1-0.3,0.2-0.4,0.3
			C99.6,50.3,99.1,50.6,99.1,50.7z"/>
		<path class="st10" d="M96.3,43.3c-0.2,0.1-0.4,0.3-0.6,0.4c-0.1,0.1-0.1,0.2-0.2,0.3c-0.1,0.2-0.3,0.3-0.4,0.5
			c-0.2,0.3-0.4,0.5-0.6,0.7c-0.1,0.1-0.1,0.2-0.2,0.3c-0.1,0.1-0.1,0.1-0.1,0.2c0,0.1,0,0.1,0.1,0.2c0.1,0.1,0.2,0.3,0.3,0.4
			c0.3,0.3,0.7,0.6,1,0.9c0.1,0.1,0.2,0.3,0.4,0.4c0.1,0.1,0.3,0.2,0.4,0.3c0.2,0.2,0.4,0.5,0.7,0.7c0.2,0.1,0.4,0.3,0.5,0.5
			c0.2,0.2,0.3,0.3,0.4,0.5c0.1,0.1,0.2,0.3,0.3,0.4c0.1,0.1,0.2,0.2,0.3,0.3c0.1,0.1,0.1,0.2,0.2,0.3c0,0.1,0.1,0.1,0.2,0.2
			c0.1,0,0.3,0,0.5-0.1c0.1,0,0.2-0.2,0.4-0.2c0.4-0.2,0.7-0.4,1-0.7c0.1-0.1,0.2-0.2,0.3-0.3c0.1-0.1,0.2-0.2,0.3-0.3
			c0.1-0.1,0.1-0.2,0.2-0.3c0,0,0-0.1,0.1-0.1c0,0,0.1-0.1,0.1-0.1c0-0.1,0-0.2,0-0.2c0-0.1,0-0.2-0.1-0.3c-0.1-0.1-0.2-0.2-0.3-0.2
			c-0.2-0.1-0.4-0.3-0.6-0.4c-0.3-0.2-0.5-0.4-0.7-0.6c-0.4-0.2-0.6-0.6-1-0.9c-0.2-0.2-0.4-0.3-0.6-0.5c-0.2-0.2-0.4-0.3-0.6-0.5
			c-0.1-0.1-0.2-0.2-0.3-0.3c-0.1-0.1-0.1-0.2-0.2-0.3c-0.1-0.1-0.2-0.2-0.3-0.4c-0.1-0.2-0.2-0.4-0.4-0.5
			C96.5,43.4,96.5,43.3,96.3,43.3C96.3,43.3,96.2,43.3,96.3,43.3z"/>
		<g>
			<path class="st11" d="M62.7,14.4c-0.1,0.3-0.2,0.6-0.4,0.8c-0.4,0.7-0.7,1.3-1.1,2c-0.6,1.1-1.1,2.2-1.5,3.4
				c-0.2,0.6-0.3,1.3-0.4,2c-0.1,0.8-0.3,1.7-0.3,2.5c0,0.7,0,1.4,0,2.1c0,0.6-0.1,1.3,0,1.9c0.2,1.3,0.5,2.7,0.7,4
				c0.2,1.4,0.8,2.7,1.5,3.9c0.9,1.6,2.1,3,3.2,4.4c0.5,0.6,1,1.2,1.5,1.8c0.6,0.7,1.3,1.2,2.1,1.7c1.7,1.2,3.6,2,5.6,2.8
				c0.8,0.3,1.4,0.5,2.3,0.5c0.7,0,1.4,0.1,2,0.1c0.7,0,1.3,0,2-0.1c0.7-0.1,1.4,0,2.1-0.1c0.6-0.1,1.1-0.3,1.7-0.5
				c0.5-0.1,1-0.2,1.6-0.4c1.1-0.3,2.3-0.1,3.4-0.5c0.8-0.3,1.6-0.9,2.3-1.4c0.3-0.2,0.6-0.4,0.9-0.6c0.4-0.2,0.9-0.3,1.3-0.5
				c0.9-0.6,1.7-1.3,2.5-2c0.4-0.4,0.7-0.8,1-1.3c0.3-0.6,0.8-1,1.2-1.5c0.3-0.4,0.6-0.8,0.8-1.3c0.3-0.5,0.6-0.8,0.9-1.3
				c0.2-0.4,0.3-0.9,0.4-1.3c0.2-0.5,0.5-1,0.6-1.6c0.1-0.4,0-0.9,0.1-1.3c0.1-0.5,0.3-1,0.4-1.4c0.1-0.5,0.1-1,0.1-1.5
				c-0.1-0.5-0.1-1,0-1.5c0.2-1,0.2-1.8,0.1-2.8c0-0.5,0-1,0-1.5c-0.1-0.5-0.2-1.1-0.4-1.6c-0.3-1.3-0.9-2.5-1.4-3.7
				c-0.7-1.5-1.5-2.9-2.6-4.2c-0.9-1.1-1.6-2.3-2.6-3.3c-0.8-0.9-1.8-1.7-2.8-2.4c-0.4-0.3-0.9-0.5-1.3-0.8c-0.5-0.3-1-0.7-1.6-0.9
				c-1.8-0.9-3.8-1.7-5.9-1.9c-1.4-0.1-2.8-0.5-4.3-0.3c-0.7,0.1-1.4,0.2-2,0.4c-0.4,0.1-0.7,0.3-1.1,0.4c-0.3,0.1-0.6,0.1-1,0.2
				c-1.3,0.4-2.5,0.9-3.7,1.6c-0.6,0.3-1.1,0.7-1.7,1.1c-0.4,0.4-0.9,0.6-1.4,0.9c-0.8,0.5-1.5,1.1-2.2,1.7
				C65.4,11.1,63.1,13.5,62.7,14.4z"/>
			<path class="st12" d="M98.4,20.2c-0.3-0.9-0.6-1.8-1.2-2.5c-0.2-0.2-0.4-0.4-0.5-0.7c-0.4-0.6-0.8-1.2-1.3-1.8
				c-0.7-0.9-1.4-1.9-2.3-2.7c-0.4-0.4-1-0.8-1.5-1.2c-0.7-0.4-1.3-0.9-2-1.3c-0.5-0.3-1.2-0.6-1.7-0.9c-0.5-0.2-1-0.6-1.6-0.8
				C85.2,8,84,7.7,82.8,7.3c-1.3-0.4-2.5-0.5-3.8-0.4c-1.7,0.1-3.3,0.5-4.9,0.9C73.4,8,72.6,8.1,72,8.3c-0.8,0.2-1.5,0.6-2.2,1
				c-1.6,1-3.1,2.2-4.5,3.5c-0.6,0.5-1,1-1.3,1.7c-0.3,0.6-0.6,1.1-0.9,1.7c-0.3,0.6-0.5,1.1-0.7,1.7c-0.2,0.6-0.6,1.2-0.8,1.8
				c-0.1,0.5-0.2,1.1-0.3,1.6c-0.1,0.5-0.2,1-0.3,1.5c-0.2,1.1-0.9,2-1,3.1c-0.1,0.8,0.1,1.7,0.3,2.5c0,0.3,0.1,0.7,0.1,1
				c0,0.4-0.1,0.9-0.1,1.3c0.2,1,0.4,2,0.7,3c0.1,0.5,0.4,0.9,0.7,1.4c0.3,0.5,0.6,1.1,0.8,1.6c0.2,0.4,0.5,0.8,0.7,1.3
				c0.3,0.4,0.5,0.9,0.8,1.3c0.3,0.4,0.6,0.6,0.9,0.9c0.3,0.4,0.7,0.8,1,1.2c0.3,0.3,0.7,0.4,1,0.6c0.4,0.3,0.7,0.7,1,1
				c0.4,0.3,0.8,0.5,1.2,0.7c0.4,0.1,0.9,0.4,1.3,0.7c0.7,0.6,1.4,0.9,2.3,1.3c0.4,0.2,0.8,0.5,1.2,0.6c0.5,0.1,1,0.3,1.5,0.4
				c1.2,0.3,2.4,0.3,3.6,0.4c1.5,0.1,3-0.1,4.5-0.4c1.3-0.3,2.6-0.4,3.8-0.8c1.1-0.3,2.2-0.8,3.1-1.4c0.4-0.2,0.8-0.5,1.2-0.8
				c0.5-0.3,1-0.6,1.4-1c1.5-1.2,2.9-2.5,3.9-4.2c0.7-1.2,1.5-2.2,1.9-3.5c0.2-0.6,0.4-1.2,0.5-1.9c0-0.3,0.1-0.7,0.1-1
				c0-0.3,0.2-0.6,0.2-0.9c0.2-1.2,0.2-2.5,0.1-3.8c-0.1-0.6-0.1-1.2-0.3-1.9c-0.1-0.5-0.1-1-0.2-1.5c-0.1-0.9-0.4-1.7-0.6-2.6
				C98.7,20.2,97.7,19.5,98.4,20.2z"/>
		</g>
		<g>
			<g>
				<path d="M87,16L87,16 M87,16c0,0.2-0.1,0.3-0.1,0.5c0,0.2-0.1,0.5-0.1,0.8c0,0.2,0,0.4,0,0.6c0,0.2,0,0.4,0.1,0.7
					c0.1,0.2,0.1,0.4,0.1,0.6c0,0.1,0,0.2,0,0.3c0,0.1,0,0.2,0,0.3c0,0.2-0.1,0.4-0.1,0.6c0,0.2-0.1,0.4-0.1,0.7c0,0.2,0,0.4,0,0.6
					c0,0.2,0,0.4,0,0.6c0,0.2,0,0.4,0,0.6c0,0.2,0,0.5,0,0.7c0,0.3,0,0.5,0,0.8c0,0.3-0.1,0.6-0.1,0.9c0,0.5-0.1,0.9-0.1,1.4
					c0,0.1,0,0.2,0,0.3c0,0.1,0,0.3,0.1,0.4c0,0.3,0.1,0.5,0,0.8c0,0.1,0,0.2,0,0.4c0,0.1,0,0.2,0,0.3c0,0.3,0,0.6,0,0.9
					c0,0.3,0,0.6,0,0.9c0,0.2,0,0.4,0,0.5c0,0.2,0,0.4,0,0.6c0,0.3,0.1,0.6,0.1,0.9c0,0.3,0.1,0.5,0.1,0.8c0,0.1,0.1,0.3,0.1,0.4
					c0,0.1-0.2,0.3-0.3,0.4c-0.2,0.1-0.4,0.2-0.6,0.2c-0.1,0-0.2,0.1-0.3,0.1c-0.1,0-0.2,0.1-0.4,0.2c-0.1,0.1-0.2,0.1-0.3,0.2
					c-0.1,0-0.3,0.1-0.4,0.1C84.3,34.9,84.1,35,84,35c-0.2,0.1-0.4,0.1-0.6,0.2c-0.2,0.1-0.3,0.1-0.5,0.2c-0.2,0.1-0.3,0.2-0.5,0.2
					c-0.2,0.1-0.4,0.2-0.6,0.3c-0.2,0.1-0.4,0.1-0.6,0.2c-0.2,0.1-0.4,0.2-0.6,0.3c-0.2,0.1-0.4,0.2-0.5,0.2
					c-0.2,0.1-0.4,0.1-0.6,0.2c-0.2,0.1-0.3,0.1-0.5,0.1c-0.2,0-0.4,0.1-0.5,0.1c-0.2,0.1-0.4,0.1-0.6,0.2c-0.2,0.1-0.4,0.1-0.6,0.2
					c-0.2,0.1-0.4,0.2-0.5,0.2c-0.2,0-0.3,0-0.5,0.1c-0.2,0-0.3,0.1-0.5,0.1c-0.1,0-0.3,0.1-0.4,0.1c-0.2,0-0.3,0.1-0.5,0.2
					c-0.2,0.1-0.4,0.2-0.6,0.2c-0.1,0-0.3,0-0.4,0.1c-0.1,0,0-0.2,0-0.3c0-0.2,0-0.4,0-0.6c0-0.2,0-0.3,0-0.5c0-0.1,0-0.3,0-0.4
					c0-0.4,0.1-0.8,0.2-1.2c0-0.4,0-0.8,0.1-1.2c0-0.4,0-0.8,0-1.2c0-0.3,0-0.7-0.1-1c0-0.1,0-0.3-0.1-0.4c0-0.2,0-0.3,0-0.5
					c0-0.4,0.1-0.7,0.1-1.1c0-0.3-0.1-0.6-0.1-1c0-0.3,0-0.6,0-0.9c0-0.1,0-0.3,0-0.4c0-0.2,0-0.3,0-0.5c0-0.1,0-0.3,0-0.4
					c0-0.2,0-0.3,0.1-0.5c0.1-0.3,0-0.7,0-1c0-0.2,0-0.3,0-0.5c0-0.2,0-0.4,0-0.5c0-0.1,0-0.3,0-0.4c0-0.2,0-0.3,0-0.5
					c0-0.3,0-0.6,0-0.9c0-0.4-0.1-0.8,0-1.2c0-0.1,0-0.3,0-0.4c0-0.1,0-0.1,0.1-0.2c0,0,0-0.1,0-0.1c0.2-0.1,0.3-0.2,0.5-0.3
					c0,0,0.1,0,0.1,0c0.1,0,0.2-0.1,0.3-0.2c0.2-0.1,0.4-0.1,0.6-0.2c0.1-0.1,0.3-0.1,0.5-0.2c0.2,0,0.4-0.2,0.6-0.2
					c0.2-0.1,0.5-0.2,0.7-0.2c0.1-0.1,0.3-0.1,0.4-0.1c0.1,0,0.2-0.1,0.4-0.1c0.2-0.1,0.5-0.1,0.7-0.2c0.2-0.1,0.4-0.1,0.6-0.1
					c0.2-0.1,0.4-0.1,0.5-0.2c0.3-0.1,0.5-0.2,0.8-0.3c0.6-0.2,1.1-0.5,1.6-0.7c0.1,0,0.3-0.1,0.4-0.1c0.1,0,0.3-0.1,0.4-0.1
					c0.1,0,0.2-0.1,0.4-0.1c0.1-0.1,0.3-0.1,0.4-0.2c0.5-0.1,1-0.3,1.5-0.5c0.2-0.1,0.4-0.1,0.6-0.2c0.1,0,0.3-0.1,0.4-0.1
					c0.1-0.1,0.2-0.1,0.3-0.2C86.8,16.1,86.9,16,87,16 M73.8,20.8C73.8,20.8,73.8,20.8,73.8,20.8c0,0-0.1,0-0.1,0.1
					C73.8,20.8,73.8,20.8,73.8,20.8 M87,15C87,15,86.9,15,87,15c-0.2,0-0.3,0-0.4,0.1c-0.2,0.1-0.4,0.2-0.5,0.3c0,0-0.1,0.1-0.2,0.1
					c0,0-0.1,0-0.1,0l-0.1,0c-0.1,0-0.2,0.1-0.3,0.1c-0.1,0-0.2,0.1-0.3,0.1c-0.3,0.1-0.5,0.2-0.8,0.2c-0.3,0.1-0.5,0.2-0.7,0.2
					c-0.2,0-0.3,0.1-0.5,0.2l-0.1,0c-0.1,0-0.1,0-0.2,0.1c-0.2,0-0.3,0.1-0.4,0.1c0,0-0.1,0-0.1,0c0,0-0.1,0-0.1,0
					c-0.1,0-0.2,0-0.3,0.1c-0.3,0.1-0.6,0.2-0.9,0.4c-0.2,0.1-0.5,0.2-0.7,0.3c-0.1,0.1-0.3,0.1-0.4,0.2c-0.1,0-0.2,0.1-0.3,0.1
					c-0.1,0-0.2,0.1-0.3,0.1c-0.1,0-0.2,0.1-0.3,0.1c-0.1,0-0.2,0-0.2,0c-0.1,0-0.2,0-0.4,0.1c-0.1,0-0.2,0.1-0.4,0.1
					c-0.1,0-0.2,0.1-0.3,0.1c-0.1,0-0.2,0.1-0.4,0.1l-0.1,0l-0.1,0c-0.1,0-0.2,0.1-0.3,0.1l-0.2,0.1c-0.1,0.1-0.3,0.1-0.4,0.2
					c-0.1,0-0.2,0.1-0.3,0.1c-0.1,0-0.1,0.1-0.2,0.1c-0.3,0.1-0.6,0.2-0.8,0.3c0,0,0,0,0,0c0,0,0,0-0.1,0c-0.1,0-0.3,0.1-0.5,0.2
					c-0.1,0-0.1,0.1-0.2,0.1l0,0l0,0c-0.4,0.1-0.6,0.3-0.8,0.4c-0.1,0.1-0.2,0.2-0.3,0.2c-0.3,0.3-0.4,0.6-0.3,0.9
					c0,0.1,0,0.1,0,0.2l0,0.1c0,0.3,0,0.6,0,0.9c0,0.1,0,0.3,0,0.4c0,0.2,0,0.5,0,0.7l0,0.2c0,0,0,0.1,0,0.2c0,0.1,0,0.2,0,0.4
					c0,0.1,0,0.2,0,0.2c0,0,0,0.1,0,0.1c0,0.1,0,0.1,0,0.2c0,0.1,0,0.2,0,0.4c0,0.1,0,0.1,0,0.2c0,0.1,0,0.1,0,0.2
					c0,0.2,0,0.4,0,0.5c0,0.1,0,0.3,0,0.4c0,0.2-0.1,0.4-0.1,0.6c0,0.1,0,0.2,0,0.3l0,0.1c0,0.2,0,0.5,0,0.8c0,0,0,0.1,0,0.1
					c0,0.1,0,0.1,0,0.2c0,0.1,0,0.3,0,0.4c0,0.1,0,0.3,0,0.4c0,0.2,0,0.4,0.1,0.6c0,0.1,0,0.2,0,0.3c0,0.2,0,0.3,0,0.5
					c0,0.2,0,0.4-0.1,0.6c0,0.2,0,0.5,0,0.7c0,0.1,0,0.2,0,0.3c0,0.2,0,0.3,0,0.5c0,0.2,0,0.3,0,0.5l0,0.2c0,0.3,0.1,0.6,0,0.8
					c0,0.2,0,0.5,0,0.7c0,0.2,0,0.3,0,0.5c0,0.2,0,0.3-0.1,0.5c0,0.2-0.1,0.5-0.1,0.7c0,0.2,0,0.3,0,0.5c0,0.2,0,0.3,0,0.5l0,0.1
					c0,0.1,0,0.2,0,0.3c0,0.1,0,0.2,0,0.3c0,0.2,0,0.7,0.4,1c0.2,0.2,0.4,0.2,0.6,0.2c0.1,0,0.3,0,0.4-0.1l0,0c0.1,0,0.2,0,0.2-0.1
					c0.2,0,0.3-0.1,0.5-0.2c0.1,0,0.1-0.1,0.2-0.1l0.2-0.1l0.3-0.1c0.1,0,0.2-0.1,0.3-0.1c0,0,0.1,0,0.1,0c0.1,0,0.2-0.1,0.3-0.1
					c0,0,0.1,0,0.1,0c0,0,0.1,0,0.1,0c0.1,0,0.3,0,0.4-0.1c0.2,0,0.3-0.1,0.5-0.2c0.1,0,0.1,0,0.2-0.1c0.1,0,0.1,0,0.2-0.1
					c0.1,0,0.3-0.1,0.5-0.2c0.1,0,0.2,0,0.3-0.1l0.2,0l0.1,0c0.1,0,0.2-0.1,0.3-0.1c0.2,0,0.5-0.1,0.7-0.2c0,0,0.1,0,0.1,0
					c0.1,0,0.3-0.1,0.5-0.2c0.1,0,0.1-0.1,0.2-0.1c0.1,0,0.1-0.1,0.2-0.1c0.2-0.1,0.3-0.1,0.5-0.2c0.1,0,0.1-0.1,0.2-0.1
					c0,0,0.1,0,0.1,0c0.2,0,0.4-0.1,0.6-0.2c0.2-0.1,0.3-0.2,0.5-0.2c0.2-0.1,0.3-0.1,0.4-0.2c0,0,0.1,0,0.1-0.1
					c0.1-0.1,0.3-0.1,0.4-0.2c0.1,0,0.2-0.1,0.4-0.1l0.2-0.1c0.1,0,0.2-0.1,0.3-0.1c0,0,0.1,0,0.2-0.1c0,0,0.1,0,0.1,0
					c0.1,0,0.2,0,0.3-0.1c0.2-0.1,0.4-0.2,0.5-0.2l0,0c0,0,0.1,0,0.2-0.1l0.1,0c0,0,0.1,0,0.1-0.1c0,0,0,0,0.1,0c0,0,0.1,0,0.1,0
					c0.2-0.1,0.5-0.1,0.7-0.3c0.2-0.1,0.8-0.5,0.8-1.2c0-0.1,0-0.2,0-0.4c0,0,0-0.1,0-0.1c0-0.1,0-0.3,0-0.4c0-0.1,0-0.2,0-0.4
					c0-0.2,0-0.4,0-0.5c0-0.1,0-0.2,0-0.4c0-0.1,0-0.1,0-0.2c0-0.1,0-0.2,0-0.4c0-0.1,0-0.3,0-0.4c0-0.1,0-0.3,0-0.4
					c0-0.1,0-0.2,0-0.4c0-0.4,0.1-0.7,0-1.1l0,0c0-0.1,0-0.1,0-0.2c0-0.1,0-0.1,0-0.2c0,0,0-0.1,0-0.1c0-0.3,0-0.7,0-1
					c0-0.1,0-0.1,0-0.2c0,0,0-0.1,0-0.1c0,0,0-0.1,0-0.2l0-0.1c0-0.2,0-0.4,0-0.6c0-0.3,0-0.5,0-0.8c0-0.2,0-0.4,0.1-0.7
					c0-0.3,0.1-0.6,0.1-1c0-0.2,0-0.5,0-0.7c0-0.1,0-0.2,0-0.2c0-0.1,0-0.2,0-0.3c0.1-0.3,0.1-0.6,0-0.9c0-0.2,0-0.3,0-0.4
					c0-0.2,0-0.4,0.1-0.6c0-0.1,0-0.1,0-0.2c0-0.1,0.1-0.3,0.1-0.5l0-0.1c0-0.1,0-0.2,0-0.4c0-0.1,0-0.2,0-0.4l0-0.1
					c0-0.1,0-0.1,0-0.2c0-0.2,0-0.3-0.1-0.5c0-0.1,0-0.2-0.1-0.4l0-0.2c0-0.1,0-0.2,0-0.3c0-0.1,0-0.3,0-0.4c0-0.1,0-0.2,0-0.3
					c0-0.1,0-0.1,0-0.2c0-0.1,0-0.1,0.1-0.2c0-0.1,0.1-0.2,0.1-0.3C88,15.4,87.5,15,87,15C87,15,87,15,87,15L87,15z M87,17L87,17
					L87,17L87,17z"/>
			</g>
			<g>
				<path d="M79,23.1c0.1,0,0.1,0,0.2,0c0.4,0.1,0.8,0.1,1.2,0.2c0.4,0.1,0.8,0.2,1.2,0.3c0.2,0,0.5,0.1,0.7,0.2
					c0.2,0.1,0.5,0.2,0.7,0.2c0.2,0,0.4,0,0.6,0.1c0.2,0.1,0.4,0.1,0.7,0.2c0.2,0.1,0.5,0.1,0.7,0.2c0.3,0,0.6,0.1,0.9,0.1
					c0.5,0.1,1,0.2,1.5,0.4c0.5,0.2,1,0.4,1.5,0.5c0.2,0.1,0.5,0.1,0.7,0.2c0.3,0.1,0.5,0.2,0.8,0.2c0.3,0.1,0.7,0.2,1,0.3
					c0.1,0,0.3,0,0.4,0c0.1,0,0.3,0.1,0.4,0.1c0.2,0,0.5,0.1,0.7,0.1c0.2,0,0.4,0.1,0.6,0.2c0.2,0,0.3,0.1,0.5,0.1
					c0.2,0,0.3,0.1,0.5,0.1c0.1,0,0.2,0.1,0.3,0.1c0.1,0,0.1,0,0.2,0c0,0-0.1,0-0.1,0c-0.1,0-0.2,0.1-0.3,0.1
					c-0.3,0.1-0.6,0.2-0.9,0.2c-0.1,0-0.3,0.1-0.4,0.1c-0.1,0-0.2,0.1-0.4,0.1c-0.2,0.1-0.4,0.2-0.6,0.2C92.2,27.9,92,28,91.8,28
					c-0.2,0.1-0.4,0.1-0.6,0.2c-0.2,0.1-0.4,0.1-0.5,0.2c-0.5,0.2-0.9,0.3-1.4,0.5c-0.2,0.1-0.4,0.1-0.6,0.2
					c-0.2,0.1-0.4,0.2-0.7,0.2c-0.2,0.1-0.4,0.2-0.6,0.2c-0.2,0.1-0.5,0.1-0.7,0.2c-0.2,0.1-0.4,0.1-0.5,0.2
					c-0.3,0.1-0.5,0.1-0.8,0.2c-0.2,0.1-0.3,0.1-0.5,0.2c-0.2,0.1-0.4,0.2-0.7,0.3c-0.2,0-0.3,0.1-0.5,0.2c-0.1,0.1-0.3,0.1-0.4,0.2
					c-0.3,0.1-0.5,0.1-0.8,0.2c-0.2,0-0.3,0.1-0.5,0.2c-0.1,0-0.3,0-0.4,0.1c0,0-0.1,0-0.1,0c0,0-0.1,0-0.1-0.1
					c-0.2-0.1-0.5-0.2-0.7-0.3c-0.2,0-0.5,0-0.7-0.1c-0.2,0-0.4-0.1-0.7-0.2c-0.2,0-0.4-0.1-0.6-0.1c-0.2,0-0.4-0.1-0.6-0.2
					c-0.2-0.1-0.4-0.1-0.6-0.2c-0.1,0-0.2-0.1-0.3-0.1c-0.1,0-0.3-0.1-0.4-0.1c-0.2-0.1-0.4-0.1-0.6-0.2c-0.2-0.1-0.4-0.1-0.5-0.2
					c-0.8-0.2-1.5-0.6-2.4-0.7c-0.2,0-0.5-0.1-0.7-0.1c-0.3,0-0.5-0.1-0.8-0.2c-0.5-0.2-1-0.2-1.6-0.4c-0.3-0.1-0.6-0.1-0.8-0.2
					c-0.2-0.1-0.5-0.2-0.7-0.2c-0.2,0-0.4-0.1-0.6-0.2c-0.2,0-0.4-0.1-0.5-0.1c-0.3-0.1-0.5-0.2-0.8-0.2c-0.1,0-0.2,0-0.3,0
					c0,0,0,0,0,0c-0.1,0-0.1,0-0.2,0c0,0,0,0,0,0c0,0-0.1,0-0.4,0c0.7-0.1,1.4-0.3,2.1-0.7c0.1-0.1,0.2-0.1,0.3-0.2
					c0.1,0,0.2-0.1,0.4-0.1c0.2-0.1,0.5-0.2,0.7-0.2c0.3,0,0.6-0.1,0.8-0.2c0.1,0,0.3-0.1,0.4-0.1c0.2-0.1,0.4-0.1,0.6-0.1
					c0.3-0.1,0.6-0.2,0.9-0.3c0.4-0.2,0.9-0.3,1.3-0.4c0.4-0.1,0.8-0.3,1.2-0.4c0.2-0.1,0.3-0.1,0.5-0.1c0.2-0.1,0.4-0.2,0.6-0.2
					c0.1,0,0.3-0.1,0.4-0.1c0.1,0,0.3-0.1,0.4-0.2c0.3-0.1,0.5-0.2,0.8-0.3c0.2-0.1,0.5-0.2,0.7-0.3c0.1,0,0.2-0.1,0.3-0.1
					c0.1,0,0.2-0.1,0.3-0.1C78.8,23.1,78.9,23.1,79,23.1C79,23.1,79,23.1,79,23.1 M95.1,27C95.1,27,95.1,27,95.1,27
					C95.1,27,95.1,27,95.1,27C95.1,27,95.1,27,95.1,27C95.1,27,95.1,27,95.1,27 M79,22.1c0,0-0.1,0-0.2,0l-0.1,0
					c-0.1,0-0.2,0-0.4,0.1c-0.1,0-0.2,0.1-0.3,0.1l0,0c-0.1,0-0.2,0.1-0.4,0.1c-0.2,0.1-0.3,0.1-0.5,0.2c-0.1,0-0.2,0.1-0.3,0.1
					c-0.2,0.1-0.4,0.2-0.6,0.3L76.1,23c-0.1,0-0.1,0-0.2,0.1c-0.1,0-0.1,0.1-0.2,0.1c-0.1,0-0.1,0-0.2,0.1l-0.2,0.1
					c-0.2,0-0.3,0.1-0.4,0.2c-0.1,0-0.1,0-0.2,0.1c-0.1,0-0.1,0-0.2,0c-0.1,0-0.2,0.1-0.3,0.1c-0.4,0.1-0.8,0.3-1.2,0.4
					c-0.2,0.1-0.4,0.1-0.6,0.2c-0.2,0.1-0.5,0.1-0.7,0.2c-0.3,0.1-0.6,0.2-0.9,0.3c-0.1,0-0.1,0-0.2,0c-0.1,0-0.3,0.1-0.4,0.1
					c-0.1,0-0.1,0-0.2,0.1c-0.1,0-0.1,0-0.2,0.1c-0.1,0-0.2,0.1-0.3,0.1c-0.2,0-0.3,0.1-0.4,0.1c-0.3,0-0.5,0.1-0.7,0.2l-0.2,0.1
					c0,0-0.1,0-0.1,0c-0.1,0-0.2,0-0.3,0.1c-0.2,0.1-0.3,0.1-0.4,0.2l0,0c-0.7,0.4-1.2,0.5-1.7,0.6c-0.5,0-0.9,0.5-0.9,1
					c0,0.5,0.4,1,0.9,1c0.1,0,0.2,0,0.2,0c0.1,0,0.1,0,0.2,0c0.1,0,0.1,0,0.2,0c0,0,0,0,0,0c0,0,0,0,0,0c0.3,0.1,0.5,0.1,0.7,0.2
					c0.2,0.1,0.5,0.2,0.7,0.2c0.1,0,0.1,0,0.2,0.1c0.1,0,0.2,0.1,0.4,0.1c0.2,0,0.4,0.1,0.6,0.2c0.3,0.1,0.5,0.1,0.7,0.2l0.2,0
					c0.2,0,0.4,0.1,0.5,0.1c0.3,0.1,0.6,0.1,0.9,0.2c0.3,0.1,0.6,0.2,1,0.3c0.1,0,0.2,0,0.3,0c0.2,0,0.3,0.1,0.5,0.1
					c0.4,0,0.7,0.2,1.1,0.3c0.3,0.1,0.7,0.3,1.1,0.3c0.1,0,0.2,0.1,0.3,0.1l0.1,0c0.1,0,0.3,0.1,0.4,0.1c0.1,0,0.1,0,0.2,0.1
					c0.1,0,0.2,0.1,0.3,0.1c0,0,0.1,0,0.1,0c0,0,0.1,0,0.1,0l0.1,0l0.4,0.1l0.2,0.1l0.2,0.1c0.2,0.1,0.4,0.1,0.6,0.2l0.2,0l0.4,0.1
					c0.1,0,0.1,0,0.2,0.1c0.2,0,0.4,0.1,0.6,0.1c0.1,0,0.2,0,0.3,0c0.1,0,0.2,0,0.3,0c0.2,0,0.4,0.1,0.5,0.2
					c0.1,0.1,0.3,0.2,0.6,0.2c0.2,0,0.4,0,0.5-0.1c0.1,0,0.2,0,0.3-0.1c0.1,0,0.2-0.1,0.3-0.1c0,0,0.1,0,0.1,0
					c0.4-0.1,0.7-0.1,0.9-0.2c0.2-0.1,0.4-0.2,0.6-0.2c0,0,0.1,0,0.2-0.1l0.1,0c0.2,0,0.3-0.1,0.4-0.2c0.1,0,0.2-0.1,0.2-0.1
					c0.2-0.1,0.4-0.1,0.5-0.2l0.1,0c0.1,0,0.2-0.1,0.3-0.1c0.1,0,0.3-0.1,0.4-0.1c0.1,0,0.1,0,0.2-0.1c0.1,0,0.3-0.1,0.4-0.1
					c0.2-0.1,0.4-0.1,0.6-0.2c0.2,0,0.3-0.1,0.5-0.2c0.1,0,0.1-0.1,0.2-0.1c0.2,0,0.3-0.1,0.5-0.2c0.1,0,0.2-0.1,0.2-0.1
					c0.1,0,0.1,0,0.2-0.1c0.1,0,0.2-0.1,0.4-0.1c0.2-0.1,0.4-0.2,0.7-0.2c0.2-0.1,0.5-0.2,0.7-0.2c0.1,0,0.2-0.1,0.3-0.1
					c0.1,0,0.2-0.1,0.2-0.1l0.2,0c0.2,0,0.3-0.1,0.5-0.1c0.1,0,0.2-0.1,0.3-0.1c0.1,0,0.1,0,0.2-0.1c0.1,0,0.3-0.1,0.4-0.1
					c0.1,0,0.1-0.1,0.2-0.1c0,0,0.1,0,0.1,0c0.1,0,0.2,0,0.3-0.1c0.1,0,0.1,0,0.2,0c0.1,0,0.2,0,0.2-0.1c0.3-0.1,0.5-0.2,0.8-0.2
					c0.1,0,0.2-0.1,0.4-0.1c0.4-0.1,0.8-0.4,0.8-0.8c0.1-0.4-0.1-0.9-0.5-1.1c-0.1-0.1-0.3-0.1-0.4-0.1l-0.1,0l-0.1,0
					c-0.1,0-0.2-0.1-0.2-0.1c-0.1,0-0.3-0.1-0.4-0.1l-0.1,0c-0.1,0-0.3-0.1-0.4-0.1l-0.2-0.1c-0.2,0-0.3-0.1-0.5-0.1
					c-0.2,0-0.3-0.1-0.5-0.1c-0.1,0-0.2,0-0.2,0c0,0-0.1,0-0.1,0c-0.1,0-0.2-0.1-0.3-0.1c-0.1,0-0.2,0-0.3,0l-0.1,0
					c-0.2,0-0.5-0.1-0.8-0.2c-0.2-0.1-0.4-0.1-0.6-0.2l-0.2-0.1c-0.1,0-0.2-0.1-0.3-0.1c-0.2,0-0.3-0.1-0.5-0.1
					c-0.5-0.1-1-0.3-1.4-0.5c-0.5-0.2-1.1-0.3-1.7-0.4c-0.3-0.1-0.6-0.1-0.9-0.1c-0.2,0-0.4-0.1-0.6-0.1c-0.2-0.1-0.4-0.1-0.6-0.2
					c-0.2-0.1-0.4-0.1-0.6-0.1l-0.1,0c-0.1,0-0.2-0.1-0.3-0.1c-0.1,0-0.2-0.1-0.3-0.1c-0.2-0.1-0.5-0.1-0.8-0.2
					c-0.4-0.1-0.8-0.1-1.1-0.2c-0.3-0.1-0.5-0.1-0.8-0.2c-0.2,0-0.3,0-0.5-0.1C79.4,22.1,79.2,22.1,79,22.1L79,22.1z"/>
			</g>
			<g>
				<path d="M72.5,16.4c0.4,0.1,0.8,0.2,1.3,0.3c0.2,0,0.3,0.1,0.5,0.1c0.1,0,0.3,0,0.4,0.1c0.2,0,0.5,0.1,0.7,0.1
					c0.4,0.1,0.7,0.2,1.1,0.2c0.3,0.1,0.6,0.2,0.9,0.2c0.3,0.1,0.6,0.1,0.8,0.2c0.2,0.1,0.4,0.1,0.7,0.2c0.1,0,0.3,0.1,0.4,0.1
					c0.2,0.1,0.4,0.1,0.6,0.1c0.3,0.1,0.7,0.2,1,0.3c0.3,0.1,0.6,0.2,1,0.3c0.6,0.1,1.2,0.2,1.8,0.3c0.3,0,0.6,0.1,0.8,0.1
					c0.3,0.1,0.6,0.1,0.9,0.2c0.3,0.1,0.6,0.2,0.9,0.2c0.1,0,0.3,0,0.4,0.1c0.1,0,0.3,0.1,0.4,0.1c0.2,0.1,0.4,0.1,0.6,0.1
					c0.1,0,0.2,0.1,0.2,0.1c0.1,0.1,0.3,0.1,0.4,0.1c-0.1,0.3,0,0.6,0,0.8c0.1,0.4,0.1,0.8,0.1,1.1c0.1,0.3,0.1,0.6,0,0.9
					c0,0.2,0,0.3,0,0.5c0,0.2,0,0.4,0.1,0.6c0,0.2,0,0.3,0,0.5c0,0.2,0,0.3,0,0.5c0,0.4,0,0.8,0,1.1c0,0.2,0,0.3,0,0.5
					c0,0.2-0.1,0.4-0.1,0.5c0,0.4,0,0.7,0,1.1c0,0.2,0,0.4,0,0.6c0,0.2,0,0.3-0.1,0.5c0,0.3,0,0.7,0.1,1c0,0.1,0,0.3,0.1,0.4
					c0,0.2,0,0.3,0,0.5c0,0.3,0,0.7,0,1c0,0.4,0,0.7-0.1,1.1c0,0.4,0,0.8,0,1.2c0,0.3,0,0.5,0,0.8c0,0.2,0,0.4,0,0.7
					c0,0.2,0,0.4,0,0.5c0,0.2,0,0.4,0,0.6c0,0.1,0,0.3,0,0.4c0,0.1,0,0.1,0,0.2c0,0.1,0,0.1,0,0.2c-0.1,0-0.1,0-0.2-0.1
					c-0.1,0-0.2,0-0.3,0c-0.1,0-0.3-0.1-0.4-0.1c-0.1,0-0.2,0-0.3,0c-0.3,0-0.5-0.1-0.8-0.1c0,0,0,0,0,0c-0.1,0-0.1,0-0.2,0
					c-0.1,0-0.1,0-0.2,0c-0.1,0-0.2,0-0.3-0.1c-0.1,0-0.2,0-0.3,0c-0.2,0-0.4-0.1-0.5-0.1c-0.1,0-0.2,0-0.4,0
					c-0.4-0.1-0.7-0.2-1-0.3c-0.3-0.1-0.6-0.3-0.9-0.4c-0.2,0-0.3-0.1-0.5-0.1c-0.1-0.1-0.3-0.1-0.4-0.1c-0.1,0-0.3-0.1-0.4-0.1
					c-0.1-0.1-0.3-0.1-0.4-0.1c-0.3-0.1-0.6-0.3-0.9-0.3c-0.1,0-0.3,0-0.4-0.1c-0.1,0-0.3-0.1-0.5-0.1c-0.4-0.1-0.7-0.2-1.1-0.3
					c-0.2,0-0.4,0-0.6-0.1c-0.2-0.1-0.3-0.1-0.5-0.1c-0.2,0-0.4,0-0.6-0.1c-0.2,0-0.4-0.1-0.6-0.1c0,0,0,0,0,0c-0.1,0-0.1,0-0.2,0
					c-0.1,0-0.2,0-0.3,0c-0.2,0-0.3-0.1-0.5-0.1c-0.3,0-0.7-0.1-1-0.1c0,0-0.1,0-0.1,0c0,0-0.1,0-0.1,0c0,0-0.1,0-0.1,0
					c-0.1,0-0.1,0-0.2-0.1c0,0-0.1,0-0.1,0c-0.1,0-0.1-0.1-0.2-0.1c-0.1-0.1-0.2-0.1-0.3-0.2c-0.1,0-0.1-0.1-0.2-0.1
					c0,0-0.1,0-0.2-0.1c-0.1-0.1,0-0.2,0-0.3c0-0.2,0-0.5,0.1-0.7c0-0.3,0-0.6,0-0.9c0-0.1,0-0.3-0.1-0.4c0-0.2-0.1-0.4-0.1-0.6
					c0-0.3,0-0.7,0-1c0-0.1,0-0.3,0-0.4c0-0.2,0-0.4,0-0.6c0-0.3,0-0.6,0-0.9c0-0.4,0-0.9,0-1.3c0-0.3,0-0.6,0-0.9
					c-0.1-0.3,0-0.7,0-1.1c0-0.2,0-0.3,0-0.4c0-0.2,0-0.4,0-0.6c0-0.3-0.1-0.7-0.1-1c0-0.3,0-0.7,0-1c0-0.2,0-0.4,0-0.6
					c0-0.2,0-0.4,0.1-0.6c0-0.2,0.1-0.5,0.1-0.7c0-0.2,0-0.5,0-0.7c0-0.2,0.1-0.5,0.2-0.7c0-0.1,0-0.2,0-0.3c0-0.1,0-0.2,0-0.4
					c0-0.1-0.1-0.2-0.1-0.4c0-0.2,0-0.4,0-0.6C72.3,16.8,72.3,16.6,72.5,16.4 M72.5,15.4c-0.3,0-0.5,0.1-0.7,0.3
					c-0.4,0.4-0.4,0.9-0.5,1.1l0,0.1c0,0.2,0,0.4,0,0.6l0,0.1c0,0.2,0,0.4,0.1,0.5l0,0.1c0,0,0,0.1,0,0.1c0,0,0,0.1,0,0.1
					c0,0.1,0,0.1,0,0.2c0,0,0,0,0,0c0,0,0,0.1,0,0.1c-0.1,0.2-0.1,0.4-0.1,0.7c0,0.2,0,0.3,0,0.5c0,0.1,0,0.2,0,0.2
					c0,0.1,0,0.3,0,0.4l0,0.2c0,0.1,0,0.1,0,0.2c0,0.2,0,0.3,0,0.5c0,0.1,0,0.3,0,0.4l0,0.2c0,0.2,0,0.3,0,0.4c0,0.2,0,0.3,0,0.5
					c0,0.3,0,0.6,0,0.8c0,0.1,0,0.2,0,0.3c0,0.1,0,0.2,0,0.2c0,0.1,0,0.2,0,0.4c0,0.1,0,0.2,0,0.3c0,0,0,0,0,0.1
					c-0.1,0.3-0.1,0.9,0,1.4c0,0.1,0,0.4,0,0.6l0,0.2l0,0.2c0,0.4,0,0.8,0,1.2c0,0.2,0,0.3,0,0.6l0,0.2c0,0.1,0,0.2,0,0.3
					c0,0.1,0,0.2,0,0.3c0,0.1,0,0.2,0,0.3c0,0,0,0.1,0,0.1l0,0.2c0,0.3,0,0.6,0,0.9c0,0.2,0.1,0.5,0.1,0.7c0,0.1,0,0.2,0,0.2
					c0,0.1,0,0.2,0,0.3c0,0.2,0,0.4,0,0.5c0,0.2,0,0.4,0,0.6c-0.1,0.6,0.1,0.9,0.3,1.1c0.2,0.2,0.5,0.3,0.6,0.3c0,0,0,0,0,0
					c0,0,0,0,0,0c0,0,0.1,0.1,0.1,0.1c0,0,0,0,0,0c0.1,0.1,0.2,0.2,0.4,0.3l0.1,0l0.4-0.9L73,35.7c0.1,0,0.2,0.1,0.4,0.1
					c0.1,0,0.2,0,0.3,0l0.1,0c0.1,0,0.2,0,0.4,0c0.2,0,0.5,0,0.7,0.1c0.1,0,0.2,0,0.3,0.1c0.2,0.1,0.4,0.1,0.5,0.1
					c0.1,0,0.1,0,0.2,0c0,0,0.1,0,0.1,0c0.1,0,0.3,0,0.4,0.1c0.1,0,0.2,0,0.3,0l0.2,0c0.1,0,0.1,0,0.2,0.1c0.3,0.1,0.5,0.1,0.7,0.2
					l0.1,0c0.2,0,0.3,0.1,0.5,0.1c0.2,0,0.3,0.1,0.5,0.1c0.1,0,0.2,0,0.3,0.1c0.2,0.1,0.4,0.1,0.5,0.1l0.1,0c0.1,0,0.2,0.1,0.3,0.1
					c0.2,0.1,0.4,0.2,0.6,0.2l0.1,0c0.1,0,0.1,0,0.2,0c0.2,0.1,0.4,0.1,0.6,0.2c0.1,0,0.1,0,0.2,0c0.2,0.1,0.5,0.1,0.6,0.2
					c0.1,0,0.2,0.1,0.3,0.1c0.1,0.1,0.3,0.1,0.4,0.2l0.2,0.1c0.3,0.1,0.6,0.2,0.9,0.3c0.1,0,0.2,0,0.3,0l0.1,0c0.1,0,0.1,0,0.2,0
					c0.1,0,0.2,0.1,0.4,0.1c0.1,0,0.2,0,0.3,0c0.1,0,0.3,0.1,0.4,0.1c0.1,0,0.2,0,0.3,0c0.1,0,0.1,0,0.2,0c0,0,0.1,0,0.2,0
					c0.1,0,0.3,0.1,0.5,0.1c0.1,0,0.1,0,0.1,0c0,0,0.1,0,0.1,0c0.1,0,0.2,0.1,0.4,0.1c0.1,0,0.2,0,0.3,0c0,0,0.1,0,0.2,0
					c0.1,0,0.1,0,0.2,0c0.2,0,0.4-0.1,0.6-0.2c0.2-0.2,0.4-0.4,0.4-0.7c0-0.1,0-0.3,0-0.3c0,0,0,0,0-0.1c0-0.1,0-0.2,0-0.4
					c0-0.3,0-0.5,0-0.7c0-0.1,0-0.1,0-0.2c0-0.1,0-0.3,0-0.4c0-0.1,0-0.2,0-0.3c0-0.1,0-0.2,0-0.2c0-0.3,0-0.6,0-0.9
					c0-0.4,0-0.8,0-1.1l0-0.2c0-0.3,0-0.6,0-0.9c0-0.2,0-0.3,0-0.5c0-0.2,0-0.3,0-0.5l0-0.1c0-0.2,0-0.4,0-0.6c0-0.1,0-0.2,0-0.3
					c0-0.1,0-0.2,0-0.3c0-0.2,0-0.4,0-0.5l0-0.1c0-0.2,0-0.3,0.1-0.5c0-0.2,0-0.4,0-0.6l0-0.1c0-0.3,0-0.7,0-0.9c0-0.1,0-0.2,0-0.3
					c0-0.1,0-0.2,0-0.2c0-0.1,0-0.3,0-0.4c0,0,0-0.1,0-0.1c0-0.4,0-0.8,0-1.3c0-0.1,0-0.1,0-0.2c0-0.1,0-0.1,0-0.2
					c0-0.1,0-0.3,0-0.4l0-0.1c0-0.1,0-0.2,0-0.3c0-0.1,0-0.2,0-0.2c0-0.1,0-0.1,0-0.2c0-0.1,0-0.2,0-0.2c0-0.4,0-0.8-0.1-1.1
					c0-0.1,0-0.3,0-0.4c0-0.2,0-0.5-0.1-0.8c0-0.2-0.1-0.3,0-0.3c0.1-0.4-0.1-0.8-0.4-1.1c-0.2-0.2-0.5-0.2-0.6-0.2l-0.1,0L88.1,19
					L88,19c-0.2-0.1-0.3-0.1-0.5-0.1c-0.1,0-0.1,0-0.2,0c0,0-0.1,0-0.1,0c-0.1,0-0.2-0.1-0.3-0.1c-0.1,0-0.2,0-0.3-0.1
					c0,0-0.1,0-0.1,0c-0.3-0.1-0.5-0.1-0.7-0.2c-0.2-0.1-0.5-0.1-0.6-0.2c-0.1,0-0.2,0-0.3-0.1c-0.3-0.1-0.6-0.1-1-0.2
					c-0.5,0-1.1-0.1-1.7-0.3c-0.1,0-0.3-0.1-0.5-0.1c-0.1,0-0.3-0.1-0.4-0.1c-0.1,0-0.3-0.1-0.4-0.1c-0.2-0.1-0.4-0.1-0.7-0.2
					l-0.2,0c-0.1,0-0.2-0.1-0.4-0.1l-0.1,0c-0.1,0-0.3-0.1-0.4-0.1c-0.2,0-0.4-0.1-0.6-0.2c-0.2-0.1-0.4-0.1-0.6-0.2
					c-0.1,0-0.2,0-0.3-0.1l-0.2-0.1c-0.3-0.1-0.5-0.1-0.8-0.2c-0.1,0-0.3-0.1-0.4-0.1c-0.2,0-0.4-0.1-0.6-0.1c-0.1,0-0.2,0-0.2,0
					c-0.2,0-0.4-0.1-0.6-0.1l-0.1,0c-0.1,0-0.1,0-0.2,0c-0.1,0-0.2,0-0.2-0.1L74,15.7c-0.2-0.1-0.4-0.1-0.7-0.2
					c-0.2,0-0.4-0.1-0.6-0.1C72.7,15.4,72.6,15.4,72.5,15.4L72.5,15.4z"/>
			</g>
			<g>
				<path class="st13" d="M74,22.1c-0.1,0-0.2,0-0.2,0c-0.1,0-0.2,0-0.4-0.1c-0.1,0-0.2-0.1-0.4-0.2c-0.1-0.1-0.2-0.3-0.3-0.4
					c-0.1-0.2-0.1-0.3-0.1-0.6c0-0.1,0-0.2,0-0.3c0,0,0-0.1,0.1-0.2c0.1-0.2,0.3-0.4,0.5-0.4c0.2-0.1,0.3-0.1,0.3-0.1
					c0.1,0,0.2-0.1,0.3-0.1c0,0,0,0,0,0c0.2,0,0.3,0,0.5,0.1c0.1,0.1,0.2,0.1,0.3,0.3c0.1,0.1,0.2,0.2,0.2,0.3
					c0.1,0.2,0.1,0.3,0.1,0.4c0,0.2,0,0.4-0.1,0.6c0,0.1-0.1,0.2-0.2,0.3c-0.1,0.1-0.2,0.3-0.5,0.4C74.1,22.1,74.1,22.1,74,22.1z"/>
				<path d="M73.9,20.2c0.1,0,0.1,0,0.2,0c0.1,0,0.1,0.1,0.2,0.1c0.1,0.1,0.1,0.1,0.2,0.2c0,0.1,0,0.2,0,0.3c0,0.1,0,0.3-0.1,0.4
					c0,0.1-0.1,0.2-0.1,0.2c0,0.1-0.1,0.1-0.1,0.1c0,0-0.1,0-0.1,0c-0.1,0-0.1,0-0.2,0c-0.1,0-0.1,0-0.2-0.1c-0.1,0-0.2-0.1-0.2-0.1
					c-0.1-0.1-0.1-0.2-0.2-0.2c-0.1-0.1-0.1-0.2-0.1-0.4c0-0.1,0-0.1,0-0.1c0,0,0-0.1,0-0.1c0.1-0.1,0.2-0.2,0.3-0.3
					c0.1,0,0.2,0,0.2-0.1C73.8,20.2,73.8,20.2,73.9,20.2C73.9,20.2,73.9,20.2,73.9,20.2 M73.9,19.2c0,0-0.1,0-0.1,0
					c-0.2,0-0.3,0.1-0.4,0.1c-0.1,0-0.2,0.1-0.3,0.1c-0.2,0.1-0.5,0.3-0.7,0.7c-0.1,0.2-0.1,0.3-0.1,0.4c0,0.1,0,0.2,0,0.3
					c0,0.4,0.1,0.6,0.2,0.8c0.1,0.1,0.2,0.4,0.4,0.5c0.2,0.2,0.4,0.3,0.5,0.3c0.2,0.1,0.3,0.1,0.5,0.1c0.1,0,0.2,0,0.3,0
					c0.1,0,0.2,0,0.3,0c0.4-0.1,0.6-0.3,0.8-0.6c0.1-0.1,0.1-0.2,0.2-0.4c0.1-0.3,0.1-0.6,0.1-0.8c0-0.2,0-0.4-0.1-0.7
					c-0.1-0.2-0.2-0.3-0.3-0.4c-0.1-0.2-0.3-0.3-0.5-0.4C74.3,19.2,74.1,19.2,73.9,19.2L73.9,19.2z"/>
			</g>
			<g>
				<path class="st13" d="M66.1,28.6c-0.2,0-0.4,0-0.6-0.1c-0.2-0.1-0.6-0.3-0.7-0.8c0-0.2,0-0.4,0-0.5c0-0.1,0.1-0.2,0.1-0.3
					c0-0.1,0.1-0.2,0.2-0.3c0.2-0.1,0.3-0.2,0.5-0.2c0,0,0,0,0,0c0.1,0,0.1,0,0.2,0c0.3,0,0.4,0,0.5,0.1c0.1,0.1,0.3,0.1,0.5,0.3
					c0.3,0.4,0.4,0.9,0.2,1.4C66.8,28.4,66.5,28.6,66.1,28.6L66.1,28.6z"/>
				<path d="M65.9,26.8C65.9,26.8,65.9,26.8,65.9,26.8c0.2,0,0.3,0,0.3,0.1c0.1,0,0.2,0.1,0.3,0.2c0.2,0.2,0.2,0.6,0.1,0.8
					c-0.1,0.2-0.3,0.3-0.5,0.3c-0.1,0-0.2,0-0.3-0.1c-0.2-0.1-0.4-0.2-0.5-0.5c0-0.1,0-0.3,0-0.4c0-0.1,0-0.2,0.1-0.2
					c0,0,0-0.1,0.1-0.1c0.1-0.1,0.1-0.1,0.2-0.1C65.7,26.8,65.8,26.8,65.9,26.8C65.8,26.8,65.8,26.8,65.9,26.8 M65.9,25.8
					c-0.1,0-0.2,0-0.3,0c-0.3,0-0.6,0.1-0.9,0.3c-0.1,0.1-0.2,0.2-0.2,0.3l-0.1,0.1c0,0,0,0,0,0.1c0,0.1-0.1,0.3-0.1,0.5
					c0,0.2,0,0.5,0,0.7c0.1,0.7,0.7,1.1,1,1.2c0.2,0.1,0.5,0.2,0.8,0.2c0.6,0,1.1-0.3,1.4-0.8c0.3-0.6,0.2-1.5-0.2-2
					c-0.2-0.3-0.5-0.4-0.6-0.4C66.4,25.8,66.2,25.8,65.9,25.8L65.9,25.8L65.9,25.8z"/>
			</g>
			<g>
				<path class="st13" d="M78.7,24.3c-0.1,0-0.3,0-0.5-0.1c-0.2-0.1-0.3-0.2-0.3-0.3c-0.1-0.1-0.2-0.3-0.2-0.5c0-0.2,0-0.4,0-0.6
					c0-0.2,0.1-0.3,0.2-0.5c0.1-0.1,0.1-0.2,0.2-0.3c0,0,0-0.1,0.1-0.1c0.1-0.1,0.2-0.1,0.3-0.2c0.1,0,0.2,0,0.2,0
					c0.2,0,0.4,0,0.5,0.1c0.2,0.1,0.3,0.2,0.5,0.3c0.2,0.1,0.3,0.3,0.3,0.5c0,0.1,0,0.3,0,0.5c0,0.3-0.2,0.6-0.4,0.8
					c-0.1,0.1-0.3,0.3-0.5,0.3l-0.1-0.5l0,0.5C78.9,24.3,78.8,24.3,78.7,24.3C78.8,24.3,78.8,24.3,78.7,24.3z"/>
				<path d="M78.6,22.3c0.1,0,0.2,0,0.3,0.1c0.1,0.1,0.3,0.2,0.4,0.3c0.1,0,0.1,0.1,0.1,0.2c0,0.1,0,0.3,0,0.4
					c0,0.2-0.1,0.4-0.2,0.5c-0.1,0.1-0.1,0.1-0.2,0.1c0,0,0,0,0,0c0,0,0,0,0,0c-0.1,0-0.1,0-0.2,0c0,0,0,0-0.1,0
					c-0.1,0-0.2,0-0.3-0.1c-0.1-0.1-0.2-0.1-0.2-0.2c-0.1-0.1-0.1-0.1-0.1-0.2c0-0.1,0-0.3,0-0.4c0-0.1,0.1-0.2,0.1-0.3
					c0-0.1,0.1-0.1,0.1-0.2c0,0,0-0.1,0.1-0.1C78.5,22.3,78.5,22.3,78.6,22.3 M78.6,21.3c-0.1,0-0.2,0-0.4,0c-0.2,0-0.4,0.2-0.5,0.3
					c0,0.1-0.1,0.1-0.1,0.2c-0.1,0.1-0.1,0.2-0.2,0.3c-0.1,0.2-0.2,0.5-0.2,0.7c0,0.3,0,0.5,0,0.7c0.1,0.2,0.2,0.5,0.3,0.7
					c0.1,0.1,0.2,0.3,0.5,0.4c0.3,0.2,0.6,0.2,0.8,0.2c0,0,0.1,0,0.1,0l0.1,0l0.1,0c0,0,0,0,0,0c0.5,0,0.8-0.2,1-0.4
					c0.3-0.3,0.4-0.7,0.5-1.1c0-0.3,0-0.5,0-0.7c-0.1-0.3-0.3-0.6-0.5-0.8c-0.2-0.2-0.4-0.3-0.6-0.4C79.1,21.4,78.8,21.3,78.6,21.3
					L78.6,21.3z"/>
			</g>
			<g>
				<path class="st13" d="M87,25.2c-0.1,0-0.3,0-0.5-0.1c-0.2-0.1-0.3-0.2-0.3-0.3c-0.1-0.1-0.2-0.3-0.2-0.5c0-0.2,0-0.4,0-0.6
					c0-0.2,0.1-0.3,0.2-0.5c0.1-0.1,0.1-0.2,0.2-0.3c0,0,0-0.1,0.1-0.1c0.1-0.1,0.2-0.1,0.3-0.2c0.1,0,0.2,0,0.2,0
					c0.2,0,0.4,0,0.5,0.1c0.2,0.1,0.3,0.2,0.5,0.3c0.2,0.1,0.3,0.3,0.3,0.5c0,0.1,0,0.3,0,0.5c0,0.3-0.2,0.6-0.4,0.8
					c-0.1,0.1-0.3,0.3-0.6,0.3l-0.1-0.5l0,0.5C87.2,25.2,87.1,25.2,87,25.2C87.1,25.2,87,25.2,87,25.2z"/>
				<path d="M86.8,23.2c0.1,0,0.2,0,0.3,0.1c0.1,0.1,0.3,0.2,0.4,0.3c0.1,0,0.1,0.1,0.1,0.2c0,0.1,0,0.3,0,0.4
					c0,0.2-0.1,0.4-0.2,0.5c-0.1,0.1-0.1,0.1-0.2,0.1c0,0,0,0,0,0c0,0,0,0,0,0c-0.1,0-0.1,0-0.2,0c0,0,0,0-0.1,0
					c-0.1,0-0.2,0-0.3-0.1c-0.1-0.1-0.2-0.1-0.2-0.2c-0.1-0.1-0.1-0.1-0.1-0.2c0-0.1,0-0.3,0-0.4c0-0.1,0.1-0.2,0.1-0.3
					c0-0.1,0.1-0.1,0.1-0.2c0,0,0-0.1,0.1-0.1C86.8,23.2,86.8,23.2,86.8,23.2 M86.8,22.2c-0.1,0-0.2,0-0.4,0c-0.2,0-0.4,0.2-0.5,0.3
					c0,0.1-0.1,0.1-0.1,0.2c-0.1,0.1-0.1,0.2-0.2,0.3c-0.1,0.2-0.2,0.5-0.2,0.7c0,0.3,0,0.5,0,0.7c0.1,0.2,0.2,0.5,0.3,0.7
					c0.1,0.1,0.2,0.3,0.5,0.4c0.3,0.2,0.6,0.2,0.8,0.2c0,0,0.1,0,0.1,0l0.1,0l0.1,0c0,0,0,0,0,0c0.5,0,0.8-0.2,1-0.4
					c0.3-0.3,0.4-0.7,0.5-1.1c0-0.3,0-0.5,0-0.7c-0.1-0.3-0.3-0.6-0.5-0.8c-0.2-0.2-0.4-0.3-0.6-0.4C87.4,22.3,87.1,22.2,86.8,22.2
					L86.8,22.2z"/>
			</g>
			<g>
				<path class="st13" d="M72.6,17.4l0,0.5c0,0,0,0,0,0c-0.1,0-0.2,0-0.4,0c-0.3-0.1-0.5-0.3-0.5-0.4c-0.1-0.2-0.3-0.3-0.4-0.6
					c-0.1-0.2-0.1-0.3-0.1-0.4c0-0.1,0-0.2,0-0.3c0.1-0.4,0.3-0.6,0.5-0.8c0.1-0.1,0.5-0.3,0.8-0.3c0.2,0,0.4,0.1,0.6,0.2
					c0.3,0.2,0.5,0.5,0.5,0.7c0,0.2,0,0.5,0,0.7c0,0.3,0,0.7-0.4,1c-0.2,0.1-0.5,0.2-0.8,0.2V17.4z"/>
				<path d="M72.6,15.6c0.1,0,0.2,0,0.3,0.1c0.1,0.1,0.3,0.2,0.3,0.4c0,0.2,0,0.4,0,0.6c0,0.2,0,0.5-0.2,0.5
					c-0.2,0.1-0.3,0.2-0.5,0.2c0,0,0,0,0,0c0,0,0,0,0,0c0,0,0,0-0.1,0c-0.1,0-0.1,0-0.2,0c-0.1,0-0.2-0.1-0.3-0.2
					c-0.1-0.1-0.2-0.3-0.3-0.4c0-0.1,0-0.2,0-0.2c0-0.1,0-0.2,0-0.2c0.1-0.2,0.2-0.4,0.4-0.5C72.1,15.7,72.4,15.6,72.6,15.6
					 M72.6,14.6c-0.4,0-0.9,0.2-1.1,0.4c-0.3,0.3-0.5,0.6-0.6,0.9c0,0.1,0,0.1,0,0.2c0,0.1,0,0.3,0,0.4c0,0.1,0,0.3,0.1,0.6
					c0.1,0.3,0.3,0.5,0.4,0.7c0.1,0.1,0.4,0.4,0.8,0.6c0.2,0,0.3,0,0.4,0l0.1,0c0.4,0,0.8-0.2,1-0.3c0.7-0.4,0.7-1.1,0.7-1.3l0-0.1
					c0-0.3,0-0.5,0-0.8c-0.1-0.3-0.2-0.7-0.8-1.1C73.2,14.7,72.9,14.6,72.6,14.6L72.6,14.6z"/>
			</g>
			<g>
				<path class="st13" d="M72.6,35.4c-0.4,0-0.8-0.2-1.1-0.4c-0.4-0.3-0.4-0.7-0.4-0.9c0-0.2,0-0.4,0-0.6c0.1-0.2,0.2-0.3,0.2-0.4
					c0.2-0.2,0.4-0.3,0.7-0.3c0.1,0,0.2,0,0.3,0l0.1,0c0.1,0,0.2,0.1,0.3,0.2c0.2,0.1,0.4,0.2,0.5,0.4c0.2,0.2,0.2,0.5,0.2,0.6
					c0,0.3,0,0.5-0.1,0.7c-0.1,0.2-0.3,0.6-0.7,0.6C72.7,35.4,72.6,35.4,72.6,35.4z"/>
				<path d="M72.1,33.4c0.1,0,0.3,0,0.4,0c0.1,0.1,0.3,0.1,0.5,0.3C73,33.9,73,34,73,34.1c0,0.2,0,0.3-0.1,0.5
					c-0.1,0.1-0.1,0.3-0.3,0.4c0,0-0.1,0-0.1,0c-0.3,0-0.5-0.1-0.8-0.3c-0.2-0.1-0.2-0.3-0.2-0.5c0-0.1,0-0.3,0-0.4
					c0-0.1,0.1-0.2,0.1-0.2C71.9,33.4,72,33.4,72.1,33.4 M72.1,32.4c-0.6,0-0.9,0.3-1.1,0.5c-0.2,0.2-0.3,0.4-0.3,0.6
					c-0.1,0.3-0.1,0.5-0.1,0.6l0,0.1c0,0.5,0.2,0.9,0.5,1.2c0.4,0.4,0.9,0.6,1.4,0.6c0.1,0,0.1,0,0.2,0c0.7-0.1,1-0.7,1.1-0.9
					c0.2-0.4,0.2-0.7,0.2-0.9l0-0.1c0-0.2,0-0.6-0.2-0.9c-0.2-0.3-0.5-0.5-0.6-0.6c0,0,0,0,0,0c-0.2-0.1-0.4-0.2-0.6-0.2l-0.1,0
					C72.4,32.4,72.2,32.4,72.1,32.4L72.1,32.4z"/>
			</g>
			<g>
				<path class="st13" d="M88.4,39.2c-0.1,0-0.2,0-0.3,0c-0.4,0-0.7-0.2-1-0.5c-0.4-0.4-0.5-0.8-0.4-1.2c0.1-0.3,0.2-0.5,0.4-0.7
					c0.1-0.1,0.2-0.2,0.4-0.3c0.2-0.1,0.3-0.1,0.6-0.1c0.2,0,0.4,0,0.6,0.1l0.1,0c0.1,0,0.3,0.1,0.3,0.2c0,0,0,0,0,0
					c0.1,0.1,0.2,0.1,0.2,0.2c0.2,0.2,0.3,0.5,0.3,0.8c0,0.1,0,0.2,0,0.3c0,0.2-0.1,0.3-0.1,0.4c-0.1,0.3-0.2,0.5-0.5,0.7
					C88.9,39.2,88.5,39.2,88.4,39.2L88.4,39.2z"/>
				<path d="M88.2,36.8c0.2,0,0.5,0.1,0.6,0.1c0,0.1,0.2,0.1,0.3,0.3c0.1,0.2,0.2,0.3,0.2,0.5c0,0.1,0,0.2,0,0.3
					c0,0.1,0,0.2-0.1,0.3c-0.1,0.2-0.2,0.3-0.3,0.4c-0.1,0.1-0.3,0.1-0.4,0.1c-0.1,0-0.2,0-0.3,0c-0.2,0-0.4-0.2-0.6-0.3
					c-0.2-0.2-0.3-0.5-0.3-0.8c0-0.2,0.2-0.3,0.3-0.5c0.1-0.1,0.2-0.2,0.3-0.2C87.9,36.8,88,36.8,88.2,36.8 M88.2,35.8
					c-0.3,0-0.6,0.1-0.8,0.2c-0.2,0.1-0.4,0.3-0.5,0.4c-0.2,0.2-0.4,0.5-0.5,0.9c-0.1,0.4-0.1,1,0.5,1.7c0.4,0.4,0.8,0.7,1.3,0.7
					c0.1,0,0.2,0,0.3,0c0.4,0,0.8-0.1,1.1-0.4c0.3-0.2,0.5-0.5,0.6-0.8c0.1-0.1,0.1-0.3,0.1-0.6c0-0.1,0-0.2,0-0.3
					c0-0.4-0.1-0.8-0.4-1.1c-0.1-0.1-0.2-0.2-0.2-0.3c-0.2-0.2-0.4-0.4-0.7-0.4l-0.1,0C88.6,35.8,88.4,35.8,88.2,35.8L88.2,35.8z"/>
			</g>
			<g>
				<path class="st13" d="M86.6,35c-0.1,0-0.3,0-0.4-0.1c-0.5-0.2-0.7-0.7-0.8-1.1c0-0.2,0-0.3,0-0.5c0-0.1,0.1-0.2,0.1-0.3
					c0.2-0.3,0.4-0.4,0.6-0.5c0.1-0.1,0.2-0.1,0.3-0.1c0,0,0.1,0,0.2,0c0.1,0,0.3,0,0.5,0.1c0.2,0.1,0.4,0.3,0.4,0.5
					c0.1,0.2,0.2,0.3,0.2,0.6c0,0.2,0,0.4-0.1,0.6C87.5,34.7,87.1,35,86.6,35L86.6,35z"/>
				<path d="M86.5,32.9c0,0,0.1,0,0.1,0c0,0,0,0,0,0C86.5,33,86.4,32.9,86.5,32.9 M86.6,33c0.1,0,0.2,0,0.3,0.1
					c0.1,0.1,0.2,0.2,0.3,0.3c0.1,0.1,0.1,0.2,0.1,0.3c0,0.1,0,0.3,0,0.4c-0.1,0.3-0.4,0.4-0.6,0.4c-0.1,0-0.2,0-0.2,0
					c-0.3-0.1-0.4-0.4-0.5-0.7c0-0.1,0-0.2,0-0.3c0-0.1,0-0.1,0.1-0.2C86.1,33,86.4,33,86.6,33C86.6,33,86.6,33,86.6,33 M86.5,31.9
					c-0.2,0-0.4,0.1-0.5,0.2c-0.3,0.1-0.6,0.3-0.8,0.7c-0.1,0.2-0.2,0.4-0.2,0.5c-0.1,0.2-0.1,0.5,0,0.7c0.1,0.5,0.5,1.2,1.1,1.5
					c0.2,0.1,0.4,0.1,0.6,0.1c0.7,0,1.3-0.4,1.5-1c0.1-0.3,0.1-0.6,0.1-0.8l0-0.1c0-0.4-0.2-0.7-0.3-0.9c-0.2-0.3-0.4-0.5-0.6-0.6
					C87.1,32,86.9,32,86.7,32C86.5,31.9,86.5,31.9,86.5,31.9L86.5,31.9z"/>
			</g>
			<g>
				<path class="st13" d="M86.9,17.4c-0.4,0-0.7-0.2-1-0.5l-0.1-0.1c-0.1-0.1-0.1-0.2-0.2-0.3c-0.1-0.2-0.1-0.4-0.1-0.5
					c0-0.3,0.1-0.5,0.2-0.7c0.1-0.2,0.2-0.3,0.4-0.4c0.2-0.1,0.4-0.1,0.6-0.1c0.1,0,0.2,0,0.2,0l0.1,0c0.2,0,0.3,0.1,0.4,0.2
					c0,0,0,0,0,0c0.3,0.2,0.5,0.4,0.5,0.6c0.1,0.3,0.2,0.6,0.1,0.9c-0.1,0.3-0.3,0.5-0.4,0.6c-0.1,0.1-0.3,0.3-0.5,0.3
					c-0.1,0-0.1,0-0.2,0L86.9,17.4z"/>
				<path d="M86.8,15.3c0.1,0,0.2,0,0.3,0c-0.3,0.1,0,0,0.2,0.2c0.2,0.1,0.3,0.2,0.3,0.4c0.1,0.1,0.1,0.3,0.1,0.5
					c0,0.2-0.2,0.3-0.3,0.4c-0.1,0.1-0.2,0.2-0.3,0.2c0,0-0.1,0-0.1,0c-0.1,0-0.1,0-0.2,0c-0.2,0-0.4-0.1-0.5-0.3
					c-0.1-0.1-0.2-0.2-0.2-0.3c0-0.1,0-0.2,0-0.3c0-0.2,0-0.3,0.1-0.4c0.1-0.1,0.2-0.2,0.2-0.2C86.6,15.3,86.7,15.3,86.8,15.3
					 M86.8,14.3c-0.3,0-0.6,0.1-0.8,0.2c-0.2,0.1-0.4,0.3-0.5,0.5c-0.2,0.3-0.3,0.6-0.3,1c0,0.1,0,0.5,0.2,0.8
					c0.1,0.1,0.2,0.2,0.2,0.3l0.1,0.1c0.3,0.4,0.8,0.7,1.3,0.7c0.1,0,0.1,0,0.2,0c0.1,0,0.2,0,0.3,0c0.4-0.1,0.6-0.3,0.7-0.4
					c0.2-0.2,0.5-0.4,0.6-0.9c0.1-0.4,0-0.9-0.2-1.2c-0.1-0.2-0.3-0.5-0.7-0.8c-0.2-0.2-0.4-0.3-0.7-0.3l-0.1,0
					C87,14.3,86.9,14.3,86.8,14.3L86.8,14.3z"/>
			</g>
			<g>
				<path class="st13" d="M73.6,30.2c-0.1,0-0.3,0-0.5-0.1c-0.1-0.1-0.3-0.2-0.4-0.3c-0.1-0.2-0.1-0.4-0.1-0.6c0-0.3,0-0.5,0.1-0.7
					c0-0.1,0.1-0.2,0.2-0.3c0.2-0.3,0.6-0.4,0.8-0.4c0.1-0.1,0.2-0.1,0.4-0.1c0.1,0,0.3,0,0.6,0.3c0.2,0.2,0.5,0.4,0.4,0.9
					c0,0.5-0.4,0.9-0.5,1c-0.1,0.1-0.3,0.3-0.7,0.3L73.6,30.2z"/>
				<path d="M74,28.2c0.1,0,0.2,0.1,0.3,0.2c0.2,0.1,0.3,0.3,0.2,0.5c0,0.2-0.2,0.5-0.4,0.7c-0.1,0.1-0.2,0.2-0.4,0.2c0,0,0,0,0,0
					c0,0,0,0,0,0c-0.1,0-0.1,0-0.2,0c-0.1,0-0.2,0-0.3-0.1c-0.1,0-0.2-0.1-0.2-0.2C73,29.4,73,29.3,73,29.2c0-0.2,0-0.3,0.1-0.4
					c0-0.1,0.1-0.1,0.1-0.2C73.4,28.3,73.7,28.3,74,28.2C73.9,28.2,74,28.2,74,28.2 M74,27.2c-0.2,0-0.4,0.1-0.6,0.2
					c-0.3,0.1-0.7,0.2-1,0.6c-0.1,0.1-0.2,0.3-0.2,0.4c-0.1,0.2-0.2,0.5-0.2,0.8c0,0.2,0,0.5,0.2,0.9c0.1,0.2,0.3,0.4,0.6,0.5
					c0.3,0.2,0.6,0.2,0.8,0.2l0.1,0l0.1,0c0.6,0,0.9-0.3,1.1-0.4c0.2-0.2,0.7-0.7,0.7-1.3c0-0.5-0.2-1-0.6-1.3
					C74.6,27.3,74.3,27.2,74,27.2L74,27.2z"/>
			</g>
			<g>
				<path class="st13" d="M88.6,30.2c-0.2,0-0.4,0-0.6-0.2c-0.3-0.2-0.6-0.6-0.6-1c0-0.2,0-0.3,0-0.4c0-0.1,0.1-0.4,0.2-0.5
					c0.2-0.2,0.5-0.3,0.7-0.4c0.1,0,0.2-0.1,0.2-0.1c0,0,0.1,0,0.1,0c0.1,0,0.3,0,0.4,0.1c0.2,0.1,0.4,0.2,0.5,0.6
					c0.1,0.3,0.1,0.5,0.1,0.7c0,0.4-0.2,0.6-0.3,0.7C89.3,30,89.1,30.2,88.6,30.2C88.7,30.2,88.6,30.2,88.6,30.2z"/>
				<path d="M88.6,28.2C88.6,28.2,88.7,28.2,88.6,28.2C88.6,28.2,88.6,28.2,88.6,28.2 M88.7,28.2C88.7,28.2,88.7,28.2,88.7,28.2
					C88.7,28.2,88.7,28.2,88.7,28.2C88.7,28.2,88.7,28.2,88.7,28.2 M88.7,28.2c0,0,0.1,0,0.2,0.1c0.1,0.1,0.3,0.2,0.3,0.3
					c0.1,0.2,0.1,0.3,0.1,0.5c0,0.2-0.1,0.3-0.2,0.4c-0.1,0.1-0.2,0.2-0.4,0.2c0,0-0.1,0-0.1,0c-0.1,0-0.2,0-0.3-0.1
					c-0.2-0.1-0.4-0.4-0.4-0.6c0-0.1,0-0.2,0-0.3c0-0.1,0.1-0.2,0.1-0.3C88.2,28.3,88.5,28.2,88.7,28.2 M88.6,27.2
					c-0.1,0-0.3,0-0.4,0.1c-0.3,0.1-0.6,0.2-0.9,0.5c-0.2,0.2-0.3,0.6-0.4,0.7c0,0.2,0,0.4,0,0.5c0,0.6,0.3,1.2,0.8,1.5
					c0.3,0.2,0.6,0.2,0.9,0.2l0.1,0c0.6,0,1-0.4,1.2-0.5c0.1-0.1,0.5-0.5,0.5-1.1c0-0.2,0-0.6-0.2-0.9c-0.2-0.5-0.5-0.7-0.7-0.8
					c-0.2-0.1-0.5-0.2-0.6-0.2c0,0,0,0-0.1,0C88.7,27.2,88.7,27.2,88.6,27.2L88.6,27.2z M88.7,29.2L88.7,29.2L88.7,29.2L88.7,29.2z"
					/>
			</g>
			<g>
				<path class="st13" d="M80.6,19.8c-0.2,0-0.3,0-0.4-0.1c-0.4-0.1-0.7-0.4-0.8-0.8c-0.1-0.2,0-0.4,0-0.6c0-0.1,0-0.3,0.1-0.5
					c0.2-0.4,0.5-0.4,0.7-0.5c0,0,0.1,0,0.1,0c0.1,0,0.2,0,0.3,0.1c0.1,0,0.1,0,0.2,0c0.3,0.1,0.5,0.2,0.7,0.3
					c0.4,0.3,0.5,0.9,0.2,1.4c-0.1,0.2-0.4,0.5-0.6,0.6C80.8,19.8,80.7,19.8,80.6,19.8z"/>
				<path d="M80.2,17.8C80.1,17.9,80.2,17.9,80.2,17.8C80.3,17.9,80.3,17.9,80.2,17.8c0.1,0.1,0.1,0.1,0.1,0.1c0.1,0,0.1,0,0.2,0
					c0.2,0,0.4,0.1,0.5,0.2c0.2,0.2,0.2,0.5,0,0.8c-0.1,0.1-0.2,0.3-0.4,0.4c0,0-0.1,0-0.2,0c-0.1,0-0.2,0-0.3,0
					c-0.2-0.1-0.4-0.2-0.5-0.4c0-0.1,0-0.3,0-0.4c0-0.1,0-0.2,0.1-0.3C79.9,17.9,80,17.9,80.2,17.8 M80.2,16.8c-0.1,0-0.2,0-0.3,0
					l0,0c-0.2,0.1-0.7,0.2-1,0.8c-0.1,0.3-0.2,0.5-0.2,0.7c0,0.2,0,0.5,0,0.8c0.1,0.6,0.6,1,1.2,1.2c0.1,0,0.3,0.1,0.6,0.1
					c0.2,0,0.3,0,0.5-0.1c0.5-0.2,0.8-0.7,0.9-0.8c0.4-0.7,0.3-1.6-0.3-2c-0.3-0.3-0.7-0.4-0.9-0.4c0,0,0,0,0,0
					C80.6,16.8,80.4,16.8,80.2,16.8L80.2,16.8z M80.2,18.8L80.2,18.8L80.2,18.8L80.2,18.8z"/>
			</g>
			<g>
				<g>
					<g>
						<path class="st14" d="M74.1,39.7c-0.2,0-0.8,0-1.2-0.4c-0.3-0.3-0.3-0.7-0.3-1c0-0.2,0.1-0.4,0.2-0.6c0.2-0.3,0.4-0.5,0.8-0.5
							c0.1-0.1,0.2-0.1,0.5-0.1c0,0,0.1,0,0.1,0c0.4,0,0.7,0.3,0.9,0.5c0.2,0.3,0.2,0.5,0.2,0.8c0,0.1,0,0.2,0,0.2l0,0.1
							c0,0.2,0,0.4-0.1,0.6C74.9,39.7,74.4,39.7,74.1,39.7C74.2,39.7,74.1,39.7,74.1,39.7z"/>
						<path d="M74,37.6C74,37.6,74.1,37.6,74,37.6c0.3,0,0.5,0.1,0.6,0.3c0.1,0.1,0.1,0.3,0.1,0.4c0,0.1,0,0.2,0,0.3
							c0,0.1,0,0.2-0.1,0.3c-0.1,0.2-0.3,0.2-0.5,0.2c0,0-0.1,0-0.1,0c-0.3,0-0.6-0.1-0.8-0.3c-0.2-0.2-0.2-0.4-0.2-0.6
							c0-0.1,0-0.3,0.1-0.4c0.1-0.2,0.3-0.3,0.5-0.3c0.1,0,0.3,0,0.4,0C73.7,37.6,73.8,37.6,74,37.6 M74,36.6
							c-0.3,0-0.5,0.1-0.6,0.1c-0.6,0.1-0.9,0.5-1,0.7c-0.1,0.2-0.2,0.5-0.2,0.8c0,0.2,0,0.8,0.5,1.3c0.5,0.6,1.3,0.6,1.5,0.6l0.1,0
							c0.8,0,1.2-0.4,1.4-0.8c0.2-0.3,0.2-0.6,0.2-0.7l0-0.1c0-0.1,0-0.2,0-0.3c0-0.3,0-0.7-0.4-1.1c-0.3-0.4-0.8-0.6-1.3-0.6
							L74,36.6L74,36.6z"/>
					</g>
					<g>
						<path class="st14" d="M72.2,26.6c-0.2,0-0.4,0-0.6-0.1c-0.2-0.1-0.4-0.2-0.6-0.5c0-0.1-0.1-0.1-0.1-0.2
							c-0.1-0.1-0.1-0.2-0.1-0.3c0-0.2,0-0.4,0.1-0.5c0.2-0.3,0.5-0.6,0.9-0.8c0.2-0.1,0.4-0.1,0.6-0.1c0.4,0,0.8,0.2,1.1,0.6
							c0.2,0.3,0.2,0.5,0.2,0.7c0,0.4-0.1,0.7-0.2,0.9c-0.2,0.3-0.5,0.4-0.8,0.4C72.3,26.6,72.2,26.6,72.2,26.6z"/>
						<path d="M72.2,24.5c0.2,0,0.5,0.1,0.6,0.4c0.1,0.1,0.1,0.3,0.1,0.4c0,0.2,0,0.4-0.1,0.6c-0.1,0.1-0.3,0.2-0.4,0.2
							c-0.1,0-0.1,0-0.2,0c-0.1,0-0.3,0-0.4-0.1c-0.2-0.1-0.3-0.2-0.4-0.4c0,0-0.1-0.1-0.1-0.2c0,0,0-0.1,0-0.1c0,0,0-0.1,0-0.1
							c0.2-0.3,0.4-0.5,0.7-0.6C72,24.5,72.1,24.5,72.2,24.5 M72.2,23.5c-0.3,0-0.5,0.1-0.8,0.2c-0.4,0.2-0.8,0.5-1,0.9
							c-0.2,0.2-0.2,0.6-0.1,0.8c0,0.1,0,0.3,0.1,0.4c0,0,0,0.1,0.1,0.1c0.1,0.1,0.1,0.2,0.2,0.3c0.2,0.3,0.5,0.5,0.7,0.6
							c0.3,0.1,0.5,0.2,0.9,0.2c0.1,0,0.2,0,0.3,0c0.2,0,0.8-0.1,1.2-0.6c0.2-0.3,0.3-0.7,0.4-1.2c0-0.4-0.1-0.7-0.3-1
							C73.3,23.8,72.8,23.5,72.2,23.5L72.2,23.5z"/>
					</g>
					<g>
						<path class="st14" d="M81.6,32.8c-0.1,0-0.2,0-0.3,0c-0.3-0.1-0.6-0.3-0.8-0.6c-0.1-0.3-0.1-0.6-0.1-0.8c0-0.2,0-0.4,0.1-0.5
							c0-0.1,0-0.1,0.1-0.1c0.1-0.2,0.3-0.3,0.5-0.4c0.1-0.1,0.2-0.1,0.3-0.1c0.1,0,0.2,0,0.2,0c0.3,0.1,0.6,0.1,0.9,0.3
							c0.2,0.1,0.4,0.3,0.4,0.7c0,0.2,0,0.4-0.1,0.7C82.6,32.5,82.1,32.8,81.6,32.8L81.6,32.8z"/>
						<path d="M81.3,30.7C81.3,30.7,81.4,30.7,81.3,30.7c0.3,0.1,0.6,0.1,0.8,0.3c0.1,0.1,0.2,0.1,0.2,0.3c0,0.2,0,0.4-0.1,0.5
							c-0.1,0.3-0.4,0.5-0.7,0.5c-0.1,0-0.1,0-0.2,0c-0.2,0-0.4-0.2-0.5-0.3c-0.1-0.2-0.1-0.4-0.1-0.6c0-0.1,0-0.2,0.1-0.4
							c0.1-0.2,0.3-0.3,0.5-0.3C81.3,30.7,81.3,30.7,81.3,30.7 M81.3,29.7c-0.2,0-0.4,0.1-0.6,0.2c-0.2,0.1-0.4,0.3-0.6,0.5
							C80,30.5,80,30.6,80,30.7c-0.1,0.2-0.1,0.4-0.1,0.6c0,0.2,0,0.6,0.2,1c0.2,0.4,0.6,0.7,1.1,0.9c0.1,0,0.3,0.1,0.4,0.1
							c0.7,0,1.4-0.5,1.6-1.1c0.1-0.3,0.1-0.6,0.1-0.9c0-0.7-0.4-1-0.6-1.1c-0.3-0.2-0.7-0.3-1-0.4C81.6,29.7,81.5,29.7,81.3,29.7
							L81.3,29.7z"/>
					</g>
					<g>
						<path class="st14" d="M89.3,21.2c-0.1,0-0.2,0-0.3,0c-0.3-0.1-0.6-0.3-0.8-0.6C88,20.2,88,20,88.1,19.7c0-0.2,0-0.3,0.1-0.5
							c0-0.1,0-0.1,0.1-0.1c0.1-0.2,0.3-0.3,0.5-0.4c0.1-0.1,0.2-0.1,0.3-0.1c0.1,0,0.2,0,0.2,0c0.3,0.1,0.6,0.1,0.9,0.3
							c0.2,0.1,0.4,0.3,0.4,0.7c0,0.2,0,0.4-0.1,0.7C90.2,20.8,89.8,21.2,89.3,21.2L89.3,21.2z"/>
						<path d="M89,19.1C89,19.1,89.1,19.1,89,19.1c0.3,0.1,0.6,0.1,0.8,0.3c0.1,0.1,0.2,0.1,0.2,0.3c0,0.2,0,0.4-0.1,0.5
							c-0.1,0.3-0.4,0.5-0.7,0.5c-0.1,0-0.1,0-0.2,0c-0.2,0-0.4-0.2-0.5-0.3c-0.1-0.2-0.1-0.4-0.1-0.6c0-0.1,0-0.2,0.1-0.4
							c0.1-0.2,0.3-0.3,0.5-0.3C89,19.1,89,19.1,89,19.1 M89,18.1c-0.2,0-0.4,0.1-0.6,0.2c-0.2,0.1-0.4,0.3-0.6,0.5
							c-0.1,0.1-0.1,0.2-0.1,0.3c-0.1,0.2-0.1,0.4-0.1,0.6c0,0.2,0,0.6,0.2,1c0.2,0.4,0.6,0.7,1.1,0.9c0.1,0,0.3,0.1,0.4,0.1
							c0.7,0,1.4-0.5,1.6-1.1c0.1-0.3,0.1-0.6,0.1-0.9c0-0.7-0.4-1-0.6-1.1c-0.3-0.2-0.7-0.3-1-0.4C89.3,18.1,89.2,18.1,89,18.1
							L89,18.1z"/>
					</g>
				</g>
			</g>
			<g>
				<path class="st13" d="M94.6,28.4c-0.4,0-0.7-0.2-0.8-0.4c-0.4-0.3-0.4-0.7-0.3-1.2c0.1-0.2,0.2-0.4,0.3-0.5l0.5,0.2l-0.4-0.3
					c0.3-0.4,0.7-0.4,0.8-0.4l0.3,0c0.1,0,0.3,0.1,0.4,0.2c0,0,0.1,0,0.1,0c0.1,0.1,0.2,0.2,0.3,0.2c0.1,0.1,0.2,0.3,0.2,0.5
					c0,0.2,0,0.4,0,0.5l0,0.1c0,0.2,0,0.4-0.2,0.6C95.3,28.4,94.9,28.4,94.6,28.4C94.7,28.4,94.7,28.4,94.6,28.4z"/>
				<path d="M94.7,26.3c0.1,0,0.2,0,0.3,0c0,0,0,0,0,0c0.1,0.1,0.1,0.1,0.2,0.1c0,0,0.1,0.1,0.1,0.1c0.1,0.1,0.1,0.2,0.1,0.3
					c0,0.1,0,0.2,0,0.4c0,0.2,0,0.3-0.1,0.5c-0.2,0.2-0.4,0.2-0.6,0.2c0,0,0,0,0,0c-0.2,0-0.4-0.2-0.5-0.3c-0.2-0.2-0.2-0.4-0.1-0.6
					c0-0.1,0.1-0.3,0.2-0.4c0,0,0.1-0.1,0.1-0.1C94.4,26.3,94.5,26.3,94.7,26.3 M94.7,25.3c-0.7,0-1.1,0.3-1.3,0.6l0,0.1
					c-0.1,0.2-0.2,0.4-0.3,0.6c-0.3,0.7-0.1,1.4,0.4,1.8c0.2,0.2,0.6,0.5,1.2,0.5c0,0,0.1,0,0.1,0c0.6,0,1-0.2,1.4-0.6
					c0.3-0.4,0.3-0.8,0.3-0.9l0-0.1c0-0.2,0-0.4,0-0.7c-0.1-0.3-0.2-0.5-0.3-0.7c-0.1-0.1-0.2-0.3-0.4-0.4c0,0,0,0,0,0
					c-0.2-0.1-0.4-0.2-0.6-0.2c0,0,0,0,0,0l-0.1,0C94.8,25.3,94.8,25.3,94.7,25.3L94.7,25.3z"/>
			</g>
		</g>
		<path class="st15" d="M101.1,28.4c0.2-1,0.2-1.8,0.1-2.8c0-0.5,0-1,0-1.5c-0.1-0.5-0.2-1.1-0.4-1.6c-0.3-1.3-0.9-2.5-1.4-3.7
			c-0.7-1.5-1.5-2.9-2.6-4.2c-0.9-1.1-1.6-2.3-2.6-3.3c-0.8-0.9-1.8-1.7-2.8-2.4c-0.4-0.3-0.9-0.5-1.3-0.8c-0.5-0.3-1-0.7-1.6-0.9
			c-1.8-0.9-3.8-1.7-5.9-1.9c-1.4-0.1-2.8-0.5-4.3-0.3c-0.7,0.1-1.4,0.2-2,0.4c-0.4,0.1-0.7,0.3-1.1,0.4c-0.3,0.1-0.6,0.1-1,0.2
			c-1.3,0.4-2.5,0.9-3.7,1.6c-0.6,0.3-1.1,0.7-1.7,1.1c-0.4,0.4-0.9,0.6-1.4,0.9c-0.8,0.5-1.5,1.1-2.2,1.7c0,0-2.3,2.4-2.7,3.3
			c-0.1,0.3-0.2,0.6-0.4,0.8c-0.4,0.7-0.7,1.3-1.1,2c-0.6,1.1-1.1,2.2-1.5,3.4c-0.2,0.6-0.3,1.3-0.4,2c-0.1,0.8-0.3,1.7-0.3,2.5
			c0,0.7,0,1.4,0,2.1c0,0.6-0.1,1.3,0,1.9c0.2,1.3,0.5,2.7,0.7,4c0.2,1.4,0.8,2.7,1.5,3.9c0.9,1.6,2.1,3,3.2,4.4
			c0.5,0.6,1,1.2,1.5,1.8c0.6,0.7,1.3,1.2,2.1,1.7c1.7,1.2,3.6,2,5.6,2.8c0.8,0.3,1.4,0.5,2.3,0.5c0.7,0,1.4,0.1,2,0.1
			c0.7,0,1.3,0,2-0.1c0.7-0.1,1.4,0,2.1-0.1c0.6-0.1,1.1-0.3,1.7-0.5c0.5-0.1,1-0.2,1.6-0.4c1.1-0.3,2.3-0.1,3.4-0.5
			c0.8-0.3,1.6-0.9,2.3-1.4c0.3-0.2,0.6-0.4,0.9-0.6c0.4-0.2,0.9-0.3,1.3-0.5c0.9-0.6,1.7-1.3,2.5-2c0.4-0.4,0.7-0.8,1-1.3
			c0.3-0.6,0.8-1,1.2-1.5c0.3-0.4,0.6-0.8,0.8-1.3c0.3-0.5,0.6-0.8,0.9-1.3c0.2-0.4,0.3-0.9,0.4-1.3c0.2-0.5,0.5-1,0.6-1.6
			c0.1-0.4,0-0.9,0.1-1.3c0.1-0.5,0.3-1,0.4-1.4c0.1-0.5,0.1-1,0.1-1.5C101,29.4,101,28.9,101.1,28.4z M97.8,30.6
			c0,0.3-0.1,0.5-0.2,0.8c0,0.3-0.1,0.6-0.1,0.9c-0.1,0.6-0.3,1.1-0.4,1.7c-0.4,1.2-1.1,2.1-1.7,3.1c-0.9,1.5-2.2,2.7-3.5,3.8
			c-0.4,0.3-0.8,0.6-1.3,0.9c-0.4,0.2-0.7,0.5-1.1,0.7c-0.8,0.5-1.8,1-2.8,1.3c-1.1,0.3-2.3,0.5-3.4,0.7c-1.3,0.3-2.6,0.4-4,0.4
			c-1.1,0-2.2-0.1-3.3-0.3c-0.4-0.1-0.9-0.2-1.3-0.3c-0.4-0.1-0.7-0.4-1.1-0.5c-0.8-0.3-1.4-0.6-2.1-1.1c-0.3-0.3-0.7-0.5-1.1-0.6
			c-0.4-0.1-0.7-0.3-1.1-0.6c-0.3-0.3-0.6-0.6-0.9-0.9c-0.3-0.2-0.7-0.3-0.9-0.5c-0.4-0.3-0.6-0.7-0.9-1.1c-0.3-0.3-0.6-0.5-0.8-0.8
			c-0.3-0.4-0.4-0.8-0.7-1.2c-0.2-0.4-0.5-0.7-0.7-1.1c-0.2-0.5-0.4-1-0.8-1.5c-0.3-0.4-0.5-0.8-0.6-1.2c-0.2-0.9-0.4-1.8-0.6-2.7
			c-0.1-0.4,0.1-0.8,0.1-1.2c0-0.3-0.1-0.6-0.1-0.9c-0.1-0.7-0.3-1.5-0.2-2.3c0.1-1,0.7-1.8,0.9-2.8c0.1-0.4,0.2-0.9,0.3-1.3
			c0.1-0.5,0.1-1,0.2-1.4c0.2-0.6,0.5-1.1,0.7-1.6c0.2-0.5,0.4-1,0.6-1.5c0.2-0.5,0.6-1,0.8-1.5c0.3-0.6,0.7-1.1,1.2-1.5
			c1.2-1.2,2.5-2.3,4-3.2c0.6-0.4,1.3-0.7,2-0.9c0.6-0.2,1.3-0.3,1.9-0.5c1.4-0.3,2.9-0.7,4.4-0.8c1.2-0.1,2.3,0,3.5,0.3
			c1.1,0.4,2.2,0.7,3.2,1c0.5,0.2,0.9,0.5,1.4,0.7c0.5,0.2,1.1,0.5,1.6,0.8c0.6,0.4,1.2,0.8,1.8,1.2c0.5,0.3,0.9,0.7,1.3,1.1
			c0.8,0.8,1.4,1.6,2,2.5c0.4,0.5,0.8,1,1.1,1.6c0.2,0.2,0.3,0.4,0.5,0.6c0.5,0.6,0.8,1.5,1,2.2c0,0,0,0,0,0c0.2,0.2,0.4,0.6,0.5,1
			c0.2,0.8,0.4,1.6,0.5,2.3c0.1,0.5,0.1,0.9,0.2,1.4c0.1,0.6,0.2,1.1,0.2,1.7C98,28.4,98,29.5,97.8,30.6z"/>
	</g>
</g>
</svg>
