<?xml version="1.0" encoding="utf-8"?>
<!-- Generator: Adobe Illustrator 27.3.1, SVG Export Plug-In . SVG Version: 6.00 Build 0)  -->
<svg version="1.1" id="Layer_1" xmlns="http://www.w3.org/2000/svg" xmlns:xlink="http://www.w3.org/1999/xlink" x="0px" y="0px"
	 viewBox="0 0 130 80" style="enable-background:new 0 0 130 80;" xml:space="preserve">
<style type="text/css">
	.st0{fill:#70CEFF;stroke:#000000;stroke-linecap:round;stroke-linejoin:round;stroke-miterlimit:10;}
	.st1{fill:#FFFFFF;stroke:#000000;stroke-linecap:round;stroke-linejoin:round;stroke-miterlimit:10;}
	.st2{fill:#E7F6FD;}
	.st3{fill:#00B1FF;stroke:#000000;stroke-linecap:round;stroke-linejoin:round;stroke-miterlimit:10;}
	.st4{fill:#FFE096;stroke:#000000;stroke-linecap:round;stroke-linejoin:round;stroke-miterlimit:10;}
	.st5{fill:#FFEEBF;stroke:#000000;stroke-linecap:round;stroke-linejoin:round;stroke-miterlimit:10;}
	.st6{fill:none;stroke:#000000;stroke-linecap:round;stroke-linejoin:round;stroke-miterlimit:10;}
	.st7{fill:#FFE096;}
	.st8{fill:#D7A2F6;}
</style>
<g>
	<g>
		<g>
			<path class="st0" d="M64,17.8c-0.7,0.7-1.4,1.3-1.8,2.2c-0.1,0.3-0.2,0.6-0.4,0.8c-0.4,0.7-1-0.4-1.3,0.3c-0.6,1.1-1,3.5-1.4,4.7
				c-0.2,0.6-0.2,1.9-0.3,2.5c-0.1,0.8-0.3,1.7-0.3,2.5c0,0.7,0,1.4,0,2.1c0,0.6-0.1,1.3,0,1.9c0.2,1.3,0.5,2.7,0.7,4
				c0.2,1.4,0.8,2.7,1.5,3.9c0.9,1.6,2.1,3,3.2,4.4c0.5,0.6,1,1.2,1.5,1.8c0.6,0.7,1.3,1.2,2.1,1.7c1.7,1.2,3.6,2,5.6,2.8
				c0.8,0.3,1.4,0.5,2.3,0.5c0.7,0,1.4,0.1,2,0.1c0.7,0,1.3,0,2-0.1c0.7-0.1,1.4,0,2.1-0.1c0.6-0.1,1.1-0.3,1.7-0.5
				c0.5-0.1,1-0.2,1.6-0.4c1.1-0.3,2.3-0.1,3.4-0.5c0.8-0.3,1.6-0.9,2.3-1.4c0.3-0.2,0.6-0.4,0.9-0.6c0.4-0.2,0.9-0.3,1.3-0.5
				c0.9-0.6,1.7-1.3,2.5-2c0.4-0.4,0.7-0.8,1-1.3c0.3-0.6,0.8-1,1.2-1.5c0.3-0.4,0.6-0.8,0.8-1.3c0.3-0.5,0.6-0.8,0.9-1.3
				c0.2-0.4,0.7-0.6,0.9-1c0.2-0.5,0.4-1,0.5-1.6c0.1-0.4,0.6-1.5,0.6-1.9c0.1-0.5,0.6-1.9,0.7-2.4c0.1-0.5,0.3-6.5,0.2-7.1
				c-0.1-0.5-1.3,5.9-1.2,5.4c0.2-1,0.2-1.8,0.1-2.8c0-0.5,0-1,0-1.5c-0.1-0.5-0.2-1.1-0.4-1.6c-0.3-1.3-0.9-2.5-1.4-3.7
				c-0.7-1.5-1.5-2.9-2.6-4.2c-0.9-1.1-1.6-2.3-2.6-3.3c-0.8-0.9-1.8-1.7-2.8-2.4c-0.4-0.3-0.9-0.5-1.3-0.8c-0.5-0.3-1-0.7-1.6-0.9
				c-1.8-0.9-3.8-1.7-5.9-1.9c-1.4-0.1-2.8-0.5-4.3-0.3c-0.7,0.1-1.4,0.2-2,0.4c-0.4,0.1-0.7,0.3-1.1,0.4c-0.3,0.1-0.6,0.1-1,0.2
				c-1.3,0.4-2.5,0.9-3.7,1.6c-0.6,0.3-1.1,0.7-1.7,1.1c-0.4,0.4-0.9,0.6-1.4,0.9c-0.8,0.5-1.5,1.1-2.2,1.7
				C63.9,17.6,63.7,18.8,64,17.8z"/>
			<g>
				<path class="st1" d="M63.3,15.2c-0.1,0.3-0.2,0.6-0.4,0.8c-0.4,0.7-0.7,1.3-1.1,2c-0.6,1.1-1.1,2.2-1.5,3.4
					c-0.2,0.6-0.3,1.3-0.4,2c-0.1,0.8-0.3,1.7-0.3,2.5c0,0.7,0,1.4,0,2.1c0,0.6-0.1,1.3,0,1.9c0.2,1.3,0.5,2.7,0.7,4
					c0.2,1.4,0.8,2.7,1.5,3.9c0.9,1.6,2.1,3,3.2,4.4c0.5,0.6,1,1.2,1.5,1.8c0.6,0.7,1.3,1.2,2.1,1.7c1.7,1.2,3.6,2,5.6,2.8
					c0.8,0.3,1.4,0.5,2.3,0.5c0.7,0,1.4,0.1,2,0.1c0.7,0,1.3,0,2-0.1c0.7-0.1,1.4,0,2.1-0.1c0.6-0.1,1.1-0.3,1.7-0.5
					c0.5-0.1,1-0.2,1.6-0.4c1.1-0.3,2.3-0.1,3.4-0.5c0.8-0.3,1.6-0.9,2.3-1.4c0.3-0.2,0.6-0.4,0.9-0.6c0.4-0.2,0.9-0.3,1.3-0.5
					c0.9-0.6,1.7-1.3,2.5-2c0.4-0.4,0.7-0.8,1-1.3c0.3-0.6,0.8-1,1.2-1.5c0.3-0.4,0.6-0.8,0.8-1.3c0.3-0.5,0.6-0.8,0.9-1.3
					c0.2-0.4,0.3-0.9,0.4-1.3c0.2-0.5,0.5-1,0.6-1.6c0.1-0.4,0-0.9,0.1-1.3c0.1-0.5,0.3-1,0.4-1.4c0.1-0.5,0.1-1,0.1-1.5
					c-0.1-0.5-0.1-1,0-1.5c0.2-1,0.2-1.8,0.1-2.8c0-0.5,0-1,0-1.5c-0.1-0.5-0.2-1.1-0.4-1.6c-0.3-1.3-0.9-2.5-1.4-3.7
					c-0.7-1.5-1.5-2.9-2.6-4.2c-0.9-1.1-1.6-2.3-2.6-3.3C94,11.2,93,10.3,92,9.7c-0.4-0.3-0.9-0.5-1.3-0.8c-0.5-0.3-1-0.7-1.6-0.9
					C87.2,7,85.2,6.2,83.2,6c-1.4-0.1-2.8-0.5-4.3-0.3c-0.7,0.1-1.4,0.2-2,0.4c-0.4,0.1-0.7,0.3-1.1,0.4c-0.3,0.1-0.6,0.1-1,0.2
					c-1.3,0.4-2.5,0.9-3.7,1.6c-0.6,0.3-1.1,0.7-1.7,1.1c-0.4,0.4-0.9,0.6-1.4,0.9c-0.8,0.5-1.5,1.1-2.2,1.7
					C65.9,11.9,63.7,14.3,63.3,15.2z"/>
				<path class="st2" d="M98.9,21c-0.3-0.9-0.6-1.8-1.2-2.5c-0.2-0.2-0.4-0.4-0.5-0.7c-0.4-0.6-0.8-1.2-1.3-1.8
					c-0.7-0.9-1.4-1.9-2.3-2.7c-0.4-0.4-1-0.8-1.5-1.2c-0.7-0.4-1.3-0.9-2-1.3c-0.5-0.3-1.2-0.6-1.7-0.9c-0.5-0.2-1-0.6-1.6-0.8
					c-1.2-0.4-2.4-0.7-3.6-1.1c-1.3-0.4-2.5-0.5-3.8-0.4c-1.7,0.1-3.3,0.5-4.9,0.9c-0.7,0.2-1.4,0.3-2.1,0.5c-0.8,0.2-1.5,0.6-2.2,1
					c-1.6,1-3.1,2.2-4.5,3.5c-0.6,0.5-1,1-1.3,1.7c-0.3,0.6-0.6,1.1-0.9,1.7c-0.3,0.6-0.5,1.1-0.7,1.7c-0.2,0.6-0.6,1.2-0.8,1.8
					c-0.1,0.5-0.2,1.1-0.3,1.6c-0.1,0.5-0.2,1-0.3,1.5c-0.2,1.1-0.9,2-1,3.1c-0.1,0.8,0.1,1.7,0.3,2.5c0,0.3,0.1,0.7,0.1,1
					c0,0.4-0.1,0.9-0.1,1.3c0.2,1,0.4,2,0.7,3c0.1,0.5,0.4,0.9,0.7,1.4c0.3,0.5,0.6,1.1,0.8,1.6c0.2,0.4,0.5,0.8,0.7,1.3
					c0.3,0.4,0.5,0.9,0.8,1.3c0.3,0.4,0.6,0.6,0.9,0.9c0.3,0.4,0.7,0.8,1,1.2c0.3,0.3,0.7,0.4,1,0.6c0.4,0.3,0.7,0.7,1,1
					c0.4,0.3,0.8,0.5,1.2,0.7c0.4,0.1,0.9,0.4,1.3,0.7c0.7,0.6,1.4,0.9,2.3,1.3c0.4,0.2,0.8,0.5,1.2,0.6c0.5,0.1,1,0.3,1.5,0.4
					c1.2,0.3,2.4,0.3,3.6,0.4c1.5,0.1,3-0.1,4.5-0.4c1.3-0.3,2.6-0.4,3.8-0.8c1.1-0.3,2.2-0.8,3.1-1.4c0.4-0.2,0.8-0.5,1.2-0.8
					c0.5-0.3,1-0.6,1.4-1c1.5-1.2,2.9-2.5,3.9-4.2c0.7-1.2,1.5-2.2,1.9-3.5c0.2-0.6,0.4-1.2,0.5-1.9c0-0.3,0.1-0.7,0.1-1
					c0-0.3,0.2-0.6,0.2-0.9c0.2-1.2,0.2-2.5,0.1-3.8c-0.1-0.6-0.1-1.2-0.3-1.9c-0.1-0.5-0.1-1-0.2-1.5c-0.1-0.9-0.4-1.7-0.6-2.6
					C99.2,21,98.3,20.3,98.9,21z"/>
			</g>
			<path class="st3" d="M101.6,29.2c0.2-1,0.2-1.8,0.1-2.8c0-0.5,0-1,0-1.5c-0.1-0.5-0.2-1.1-0.4-1.6c-0.3-1.3-0.9-2.5-1.4-3.7
				c-0.7-1.5-1.5-2.9-2.6-4.2c-0.9-1.1-1.6-2.3-2.6-3.3C94,11.2,93,10.3,92,9.7c-0.4-0.3-0.9-0.5-1.3-0.8c-0.5-0.3-1-0.7-1.6-0.9
				C87.2,7,85.2,6.2,83.2,6c-1.4-0.1-2.8-0.5-4.3-0.3c-0.7,0.1-1.4,0.2-2,0.4c-0.4,0.1-0.7,0.3-1.1,0.4c-0.3,0.1-0.6,0.1-1,0.2
				c-1.3,0.4-2.5,0.9-3.7,1.6c-0.6,0.3-1.1,0.7-1.7,1.1c-0.4,0.4-0.9,0.6-1.4,0.9c-0.8,0.5-1.5,1.1-2.2,1.7c0,0-2.3,2.4-2.7,3.3
				c-0.1,0.3-0.2,0.6-0.4,0.8c-0.4,0.7-0.7,1.3-1.1,2c-0.6,1.1-1.1,2.2-1.5,3.4c-0.2,0.6-0.3,1.3-0.4,2c-0.1,0.8-0.3,1.7-0.3,2.5
				c0,0.7,0,1.4,0,2.1c0,0.6-0.1,1.3,0,1.9c0.2,1.3,0.5,2.7,0.7,4c0.2,1.4,0.8,2.7,1.5,3.9c0.9,1.6,2.1,3,3.2,4.4
				c0.5,0.6,1,1.2,1.5,1.8c0.6,0.7,1.3,1.2,2.1,1.7c1.7,1.2,3.6,2,5.6,2.8c0.8,0.3,1.4,0.5,2.3,0.5c0.7,0,1.4,0.1,2,0.1
				c0.7,0,1.3,0,2-0.1c0.7-0.1,1.4,0,2.1-0.1c0.6-0.1,1.1-0.3,1.7-0.5c0.5-0.1,1-0.2,1.6-0.4c1.1-0.3,2.3-0.1,3.4-0.5
				c0.8-0.3,1.6-0.9,2.3-1.4c0.3-0.2,0.6-0.4,0.9-0.6c0.4-0.2,0.9-0.3,1.3-0.5c0.9-0.6,1.7-1.3,2.5-2c0.4-0.4,0.7-0.8,1-1.3
				c0.3-0.6,0.8-1,1.2-1.5c0.3-0.4,0.6-0.8,0.8-1.3c0.3-0.5,0.6-0.8,0.9-1.3c0.2-0.4,0.3-0.9,0.4-1.3c0.2-0.5,0.5-1,0.6-1.6
				c0.1-0.4,0-0.9,0.1-1.3c0.1-0.5,0.3-1,0.4-1.4c0.1-0.5,0.1-1,0.1-1.5C101.5,30.2,101.5,29.7,101.6,29.2z M99.1,31.6
				c0,0.3-0.2,0.6-0.2,0.8c0,0.3-0.1,0.7-0.1,1c-0.1,0.6-0.3,1.2-0.5,1.8c-0.4,1.2-1.2,2.2-1.8,3.3c-0.9,1.6-2.3,2.8-3.6,3.9
				c-0.4,0.3-0.9,0.6-1.3,0.9c-0.4,0.2-0.7,0.5-1.1,0.7c-0.9,0.5-1.9,1-2.9,1.3c-1.2,0.3-2.4,0.5-3.6,0.7c-1.4,0.3-2.8,0.4-4.2,0.4
				c-1.2,0-2.3-0.1-3.4-0.3c-0.5-0.1-0.9-0.2-1.4-0.3c-0.4-0.1-0.8-0.4-1.2-0.5c-0.8-0.3-1.5-0.7-2.2-1.2c-0.3-0.3-0.8-0.5-1.2-0.6
				c-0.4-0.1-0.8-0.4-1.1-0.6c-0.4-0.3-0.6-0.6-1-0.9c-0.3-0.2-0.7-0.3-1-0.6c-0.4-0.3-0.7-0.8-1-1.1c-0.3-0.3-0.6-0.5-0.9-0.9
				c-0.3-0.4-0.4-0.8-0.7-1.2c-0.3-0.4-0.5-0.8-0.7-1.2c-0.3-0.5-0.5-1.1-0.8-1.5c-0.3-0.4-0.5-0.8-0.7-1.3
				c-0.2-0.9-0.5-1.9-0.6-2.8c-0.1-0.4,0.1-0.8,0.1-1.2c0-0.3-0.1-0.6-0.1-0.9c-0.1-0.8-0.3-1.6-0.2-2.4c0.1-1,0.7-1.9,0.9-2.9
				c0.1-0.5,0.2-0.9,0.3-1.4c0.1-0.5,0.1-1,0.3-1.5c0.2-0.6,0.5-1.1,0.7-1.7c0.2-0.5,0.4-1.1,0.7-1.6c0.3-0.5,0.6-1,0.8-1.6
				c0.3-0.7,0.7-1.1,1.3-1.6c1.3-1.2,2.7-2.4,4.2-3.3c0.6-0.4,1.3-0.8,2.1-1c0.6-0.2,1.3-0.3,2-0.5C76.5,9.4,78,9,79.6,8.9
				c1.3-0.1,2.4-0.1,3.6,0.3c1.1,0.4,2.3,0.7,3.4,1.1c0.5,0.2,1,0.5,1.5,0.7c0.5,0.2,1.1,0.5,1.6,0.8c0.6,0.4,1.2,0.8,1.8,1.2
				c0.5,0.3,1,0.7,1.4,1.1c0.8,0.8,1.4,1.7,2.1,2.6c0.4,0.5,0.8,1.1,1.2,1.6c0.2,0.2,0.3,0.4,0.5,0.6c0.6,0.7,0.8,1.5,1.1,2.3
				c0,0,0,0,0,0c0.2,0.2,0.4,0.6,0.5,1.1c0.2,0.8,0.4,1.6,0.5,2.4c0.1,0.5,0.1,1,0.2,1.5c0.1,0.6,0.2,1.1,0.2,1.7
				C99.3,29.3,99.3,30.5,99.1,31.6z"/>
		</g>
		<path class="st4" d="M99.6,51.5c-0.2,0.4-0.3,1,0.1,1.5c0.1,0.2,0.3,0.3,0.4,0.5c0.3,0.3,0.6,0.6,0.9,1c0.7,0.7,1.4,1.5,2.1,2.2
			c1.5,1.5,2.9,2.9,4.4,4.4c3.3,3.3,6.6,6.7,10,10c0.4,0.3,0.7,0.7,1,1.1c0.2,0.2,0.5,0.5,0.8,0.8c0.3,0.4,0.8,0.9,1.2,1.1
			c0.4,0.2,0.8,0.4,1.2,0.4c0.4,0,0.8-0.1,1.1-0.3c0.5-0.3,1-0.8,1.4-1.3c0.2-0.3,0.2-0.7,0.3-1c0.1-0.4,0.3-0.9,0.1-1.4
			c-0.6-1.5-1.9-2.6-3-3.8c-0.8-0.9-1.7-1.7-2.6-2.6c-0.4-0.4-0.9-0.8-1.3-1.2c-0.4-0.3-0.7-0.7-1.3-1.1c-1.4-1.4-2.7-2.7-4.1-4.1
			c-0.5-0.5-1.1-1.1-1.6-1.6c-0.5-0.5-0.9-1-1.4-1.5c-1.2-1.2-2.3-2.3-3.5-3.5c-0.4-0.4-0.8-0.7-1.2-1c-0.3-0.3-0.6-0.5-0.9-0.7
			c-0.3-0.2-0.6-0.3-0.9-0.4c-0.4-0.1-0.6,0.1-0.9,0.2c-0.3,0.4-0.5,0.8-0.9,1.1c-0.2,0.1-0.3,0.3-0.4,0.5c-0.1,0.1-0.3,0.2-0.4,0.3
			C100.1,51.1,99.6,51.4,99.6,51.5z"/>
		<path class="st5" d="M96.8,44.1c-0.2,0.1-0.4,0.3-0.6,0.4c-0.1,0.1-0.1,0.2-0.2,0.3c-0.1,0.2-0.3,0.3-0.4,0.5
			c-0.2,0.3-0.4,0.5-0.6,0.7c-0.1,0.1-0.1,0.2-0.2,0.3c-0.1,0.1-0.1,0.1-0.1,0.2c0,0.1,0,0.1,0.1,0.2c0.1,0.1,0.2,0.3,0.3,0.4
			c0.3,0.3,0.7,0.6,1,0.9c0.1,0.1,0.2,0.3,0.4,0.4c0.1,0.1,0.3,0.2,0.4,0.3c0.2,0.2,0.4,0.5,0.7,0.7c0.2,0.1,0.4,0.3,0.5,0.5
			c0.2,0.2,0.3,0.3,0.4,0.5c0.1,0.1,0.2,0.3,0.3,0.4c0.1,0.1,0.2,0.2,0.3,0.3c0.1,0.1,0.1,0.2,0.2,0.3c0,0.1,0.1,0.1,0.2,0.2
			c0.1,0,0.3,0,0.5-0.1c0.1,0,0.2-0.2,0.4-0.2c0.4-0.2,0.7-0.4,1-0.7c0.1-0.1,0.2-0.2,0.3-0.3c0.1-0.1,0.2-0.2,0.3-0.3
			c0.1-0.1,0.1-0.2,0.2-0.3c0,0,0-0.1,0.1-0.1c0,0,0.1-0.1,0.1-0.1c0-0.1,0-0.2,0-0.2c0-0.1,0-0.2-0.1-0.3c-0.1-0.1-0.2-0.2-0.3-0.2
			c-0.2-0.1-0.4-0.3-0.6-0.4c-0.3-0.2-0.5-0.4-0.7-0.6c-0.4-0.2-0.6-0.6-1-0.9c-0.2-0.2-0.4-0.3-0.6-0.5c-0.2-0.2-0.4-0.3-0.6-0.5
			c-0.1-0.1-0.2-0.2-0.3-0.3c-0.1-0.1-0.1-0.2-0.2-0.3c-0.1-0.1-0.2-0.2-0.3-0.4c-0.1-0.2-0.2-0.4-0.4-0.5
			C97.1,44.2,97,44.2,96.8,44.1C96.8,44.2,96.7,44.2,96.8,44.1z"/>
	</g>
	<g>
		<g>
			<g>
				<g>
					<path class="st3" d="M38,26.5c-0.1,0.2-0.2,0.3-0.3,0.5c-0.3,0.5-0.5,1-0.8,1.6c-0.2,0.6-0.4,1.2-0.5,1.9c0,0.5-0.1,1-0.1,1.5
						c-0.1,1.3-0.1,2.5-0.4,3.7c-0.3,1.2-0.7,2.3-1.4,3.3c-0.5,0.7-1.1,1.1-1.7,1.6c-0.5,0.4-0.9,0.7-1.5,0.9
						c-0.8,0.4-1.7,0.6-2.5,0.8c-0.3,0.1-0.6,0.1-0.8,0.1c0-1,0-2,0-3c0-1.5,0-3,0-4.5c-0.1-1.1-0.1-2.3-0.2-3.4
						c-0.1-0.8-0.1-1.7-0.1-2.5c0-0.3,0-0.7,0.1-0.9c0.2-0.2,0.6-0.4,0.9-0.5c0.3-0.1,0.6-0.1,1-0.2c0.4-0.1,0.8-0.3,1.1-0.3
						c-1.8,0-3.7,0-5.5,0c-1,0-2.1,0.3-3.1,0.2c0.6,0,1.3,0,1.9,0.4c0.4,0.3,0.5,0.8,0.7,1.2c0.2,0.6,0.2,1.3,0.2,2
						c0,0.9-0.1,1.7-0.1,2.6c0.1,3,0.1,5.9-0.1,8.9c-0.2,0-0.4,0-0.7-0.1c-0.8-0.3-1.7-0.5-2.5-0.8c-0.6-0.3-1-0.5-1.5-0.9
						c-0.6-0.5-1.2-0.9-1.7-1.6c-0.6-1-1.1-2.1-1.4-3.3c-0.3-1.2-0.3-2.5-0.4-3.7c0-0.5-0.1-1-0.1-1.5c0-0.7-0.2-1.3-0.5-1.9
						c-0.2-0.6-0.4-1.1-0.8-1.6c-0.1-0.2-0.2-0.3-0.3-0.5c-0.5-0.7-1.3-0.8-2-1c0.1,0,0.4,0.3,0.6,0.6c0.3,0.4,0.6,0.9,0.7,1.3
						c0.4,1.1,0.5,2.3,0.4,3.5c0,0.6-0.1,1.3-0.3,1.8c-0.2,0.6-0.2,1.2-0.4,1.8c-0.4,1.1-0.3,2.2-0.2,3.4c0.1,1.2,0.4,2.3,1.1,3.2
						c0.3,0.3,0.6,0.6,0.9,0.9c0.4,0.4,0.8,0.5,1.3,0.6c0.9,0.3,1.8,0.7,2.6,1.1c1,0.5,2,0.5,3,0.4c0.6-0.1,1.2-0.1,1.8-0.2
						c0,0.5,0,1-0.1,1.5c0,0.6,0,1.1,0,1.7c0,0.4,0,0.8,0,1.2c0,0.4,0,0.7,0,1.1c0,0.5-0.1,0.9-0.1,1.4c0,0.4-0.1,0.9,0,1.3
						c0,0.2,0,0.5,0.1,0.7c0,0.3-0.1,0.6,0,1c0,0.6,0,1.1-0.4,1.5c-0.3,0.4-0.8,0.9-1.3,0.9c0.8,0.1,1.6,0,2.4,0.1
						c0.4,0,0.8,0,1.2,0c0.4,0,0.7,0,1.1,0c0.8,0,1.5-0.1,2.3-0.2c0.4,0,0.7,0,1-0.1c0.2,0,0.5,0,0.6-0.1c-0.8-0.2-1.7-0.1-2.3-0.8
						c-0.2-0.2-0.3-0.6-0.4-0.9c-0.1-0.4-0.2-0.9-0.2-1.4c-0.2-1.5-0.2-2.9-0.1-4.4c0.1-1.5-0.1-2.9-0.1-4.4
						c0.7,0.1,1.4,0.2,2.1,0.2c1.1,0.1,2,0,3-0.4c0.9-0.4,1.7-0.8,2.6-1.1c0.5-0.2,0.9-0.3,1.3-0.6c0.3-0.3,0.6-0.6,0.9-0.9
						c0.7-0.9,1.1-2,1.1-3.2c0.1-1.2,0.2-2.3-0.2-3.4c-0.2-0.6-0.2-1.2-0.4-1.8c-0.2-0.6-0.2-1.2-0.3-1.8c-0.1-1.2,0-2.4,0.4-3.5
						c0.2-0.5,0.5-0.9,0.7-1.3c0.2-0.3,0.4-0.6,0.6-0.6C39.3,25.7,38.5,25.7,38,26.5z"/>
				</g>
			</g>
			<path class="st3" d="M44.2,26c-0.4,0.1-1,0.7-0.6,1.4c3,5.4,5.8,8.8,9.6,13.8C52,43,50,45.4,48.8,47.2c-1.6,2.3-3.1,4.1-4.9,6.3
				c-0.4,0.4-0.5,1.3-0.2,1.8c0.1,0.2,0.2,0.3,0.4,0.4c0.5,0.3,1.2,0.2,1.8-0.1s1-0.7,1.4-1.1c3.4-3.3,6.8-8.2,9.2-12.3
				c0.2-0.3,0.3-0.6,0.3-0.9c0-0.4-0.2-0.7-0.5-1c-1.3-1.8-1.9-3-3.2-4.9c-0.8-1.1-2.9-3.5-4-5c-1.4-1.9-1.6-2.2-3.5-4.3
				C45.2,25.6,44.5,25.8,44.2,26z"/>
			<path class="st3" d="M7,25.8c-0.3,0-0.7,0.2-0.9,0.4c-0.8,0.8-0.4,2.3-0.3,3.3c0.1,1.7,0,3.4-0.1,5.2c-0.1,1.3-0.2,2.6-0.1,3.9
				c0.1,1.3-0.1,2.7-0.1,4c0,1.5,0,3,0,4.5c0,1.4-0.1,2.7-0.1,4.1c0,0.9,0.2,1.8,0.4,2.7c0.1,0.5,0.2,1,0.4,1.5
				c0.2,0.3,0.4,0.5,0.8,0.5c0.3,0,0.9,0.2,1.2-0.1c0.2-0.2,0.3-0.5,0.4-0.8c0.2-0.4,0.2-0.8,0.2-1.3c0.1-1.1,0.1-2.1,0.1-3.2
				c0-0.7-0.1-1.4-0.2-2c-0.1-0.6,0-1.2,0-1.9c0-0.6-0.1-1.3-0.2-1.9c-0.1-0.5,0.1-1.1,0.1-1.6c0.1-0.5,0-1,0-1.4c0-0.4,0-0.9,0-1.3
				c-0.2-2.5,0.2-5,0.2-7.5c0-0.8,0.1-1.7,0-2.5c-0.1-0.4,0-0.7,0-1.1c0-0.4,0-0.7,0-1.1c-0.1-0.7,0-1.7-0.6-2.2
				C7.7,25.9,7.4,25.8,7,25.8z"/>
		</g>
	</g>
	<g>
		<path class="st6" d="M28.8,40.4c1.1-0.6,2.1-1.3,2.9-2.1c0.6-0.6,1.1-1.1,1.8-1.5c0.9-0.6,1.7-1.3,2.6-2c0.7-0.6,1.5-1.2,2.3-1.8
			c0.4-0.3,0.8-0.6,1.1-1c0.4-0.4,1-0.8,1.4-1.2c0.8-0.7,1.7-1.2,2.5-1.9c0.7-0.6,1.4-1.3,2.1-1.9c0.4-0.3,0.8-0.7,1.3-1
			c0.5-0.4,1-1,1.6-1.4c0.5-0.4,1.1-0.7,1.6-1.1c0.5-0.4,1-0.8,1.5-1.2c0.8-0.6,1.7-1.1,2.5-1.7c0.5-0.4,0.9-0.8,1.3-1.1
			c0.5-0.3,1-0.6,1.5-1c0.4-0.3,0.9-0.6,1.3-1c0.5-0.4,0.9-0.8,1.5-1.1c0.9-0.6,1.8-1.2,2.7-1.9c0.8-0.6,1.7-1.1,2.5-1.8
			c0.4-0.3,0.8-0.6,1.2-1c0.4-0.3,0.8-0.6,1.2-0.9c0.6-0.5,1.2-0.9,1.8-1.4"/>
		<path class="st6" d="M29.2,46.4c1.1,0,2.1,0,3.2,0c0.3,0,0.7,0,1,0.1c0.5,0.2,0.9,0.5,1.4,0.7c0.4,0.2,1,0.2,1.4,0.2
			c0.6,0,1.2,0.1,1.7,0.3c0.5,0.2,1,0.4,1.5,0.3c0.6,0,1.2,0,1.8,0.1c0.6,0.1,1.1,0.4,1.6,0.5c0.7,0.1,1.3,0.1,2,0.2
			c0.6,0.1,1.1,0.3,1.6,0.4c0.7,0.2,1.4,0.2,2.1,0.3c0.6,0,1.3,0.1,1.9,0.2c0.9,0.2,1.8,0.5,2.7,0.5c0.7,0,1.3,0.1,2,0.2
			c0.7,0.2,1.3,0.4,2.1,0.4c1.3,0.1,2.5,0.4,3.8,0.7c1.2,0.2,2.5,0.2,3.7,0.5c0.5,0.1,0.9,0.2,1.4,0.3c0.7,0.1,1.4,0.1,2,0.2
			c0.4,0.1,0.8,0.3,1.3,0.4c0.5,0.1,1,0.1,1.5,0.2c0.9,0.1,1.8,0.5,2.7,0.7c0.7,0.1,1.4,0.1,2,0.3"/>
		<path class="st0" d="M29.5,41.3c-0.4-0.1-0.9-0.2-1.3-0.1c-0.1,0-0.2,0.1-0.3,0.2c-0.2,0.1-0.3,0.2-0.4,0.3
			c-0.2,0.2-0.4,0.4-0.6,0.6c-0.2,0.2-0.4,0.5-0.6,0.7c-0.1,0.3-0.1,0.7,0,1c0.1,0.8,0.7,1.8,1.5,2.2c0.4,0.2,1,0.2,1.4,0
			c0.5-0.1,1-0.2,1.4-0.6c0.3-0.2,0.7-0.6,0.8-1c0.1-0.5,0.1-1,0.1-1.5c0-0.5-0.4-1.1-0.8-1.4c-0.2-0.2-0.4-0.3-0.6-0.4
			c-0.1-0.1-0.2-0.1-0.3-0.1C29.4,41.1,29.1,41,29.5,41.3z"/>
	</g>
	<g>
		<g>
			<path d="M87.5,16.8L87.5,16.8 M87.5,16.8c0,0.2-0.1,0.3-0.1,0.5c0,0.2-0.1,0.5-0.1,0.8c0,0.2,0,0.4,0,0.6c0,0.2,0,0.4,0.1,0.7
				c0.1,0.2,0.1,0.4,0.1,0.6c0,0.1,0,0.2,0,0.3c0,0.1,0,0.2,0,0.3c0,0.2-0.1,0.4-0.1,0.6c0,0.2-0.1,0.4-0.1,0.7c0,0.2,0,0.4,0,0.6
				c0,0.2,0,0.4,0,0.6c0,0.2,0,0.4,0,0.6c0,0.2,0,0.5,0,0.7c0,0.3,0,0.5,0,0.8c0,0.3-0.1,0.6-0.1,0.9c0,0.5-0.1,0.9-0.1,1.4
				c0,0.1,0,0.2,0,0.3c0,0.1,0,0.3,0.1,0.4c0,0.3,0.1,0.5,0,0.8c0,0.1,0,0.2,0,0.4c0,0.1,0,0.2,0,0.3c0,0.3,0,0.6,0,0.9
				c0,0.3,0,0.6,0,0.9c0,0.2,0,0.4,0,0.5c0,0.2,0,0.4,0,0.6c0,0.3,0.1,0.6,0.1,0.9c0,0.3,0.1,0.5,0.1,0.8c0,0.1,0.1,0.3,0.1,0.4
				c0,0.1-0.2,0.3-0.3,0.4c-0.2,0.1-0.4,0.2-0.6,0.2c-0.1,0-0.2,0.1-0.3,0.1c-0.1,0-0.2,0.1-0.4,0.2c-0.1,0.1-0.2,0.1-0.3,0.2
				c-0.1,0-0.3,0.1-0.4,0.1c-0.2,0.1-0.3,0.1-0.5,0.2c-0.2,0.1-0.4,0.1-0.6,0.2c-0.2,0.1-0.3,0.1-0.5,0.2c-0.2,0.1-0.3,0.2-0.5,0.2
				c-0.2,0.1-0.4,0.2-0.6,0.3c-0.2,0.1-0.4,0.1-0.6,0.2c-0.2,0.1-0.4,0.2-0.6,0.3c-0.2,0.1-0.4,0.2-0.5,0.2
				c-0.2,0.1-0.4,0.1-0.6,0.2c-0.2,0.1-0.3,0.1-0.5,0.1c-0.2,0-0.4,0.1-0.5,0.1c-0.2,0.1-0.4,0.1-0.6,0.2c-0.2,0.1-0.4,0.1-0.6,0.2
				c-0.2,0.1-0.4,0.2-0.5,0.2c-0.2,0-0.3,0-0.5,0.1c-0.2,0-0.3,0.1-0.5,0.1c-0.1,0-0.3,0.1-0.4,0.1c-0.2,0-0.3,0.1-0.5,0.2
				c-0.2,0.1-0.4,0.2-0.6,0.2c-0.1,0-0.3,0-0.4,0.1c-0.1,0,0-0.2,0-0.3c0-0.2,0-0.4,0-0.6c0-0.2,0-0.3,0-0.5c0-0.1,0-0.3,0-0.4
				c0-0.4,0.1-0.8,0.2-1.2c0-0.4,0-0.8,0.1-1.2c0-0.4,0-0.8,0-1.2c0-0.3,0-0.7-0.1-1c0-0.1,0-0.3-0.1-0.4c0-0.2,0-0.3,0-0.5
				c0-0.4,0.1-0.7,0.1-1.1c0-0.3-0.1-0.6-0.1-1c0-0.3,0-0.6,0-0.9c0-0.1,0-0.3,0-0.4c0-0.2,0-0.3,0-0.5c0-0.1,0-0.3,0-0.4
				c0-0.2,0-0.3,0.1-0.5c0.1-0.3,0-0.7,0-1c0-0.2,0-0.3,0-0.5c0-0.2,0-0.4,0-0.5c0-0.1,0-0.3,0-0.4c0-0.2,0-0.3,0-0.5
				c0-0.3,0-0.6,0-0.9c0-0.4-0.1-0.8,0-1.2c0-0.1,0-0.3,0-0.4c0-0.1,0-0.1,0.1-0.2c0,0,0-0.1,0-0.1c0.2-0.1,0.3-0.2,0.5-0.3
				c0,0,0.1,0,0.1,0c0.1,0,0.2-0.1,0.3-0.2c0.2-0.1,0.4-0.1,0.6-0.2c0.1-0.1,0.3-0.1,0.5-0.2c0.2,0,0.4-0.2,0.6-0.2
				c0.2-0.1,0.5-0.2,0.7-0.2c0.1-0.1,0.3-0.1,0.4-0.1c0.1,0,0.2-0.1,0.4-0.1c0.2-0.1,0.5-0.1,0.7-0.2c0.2-0.1,0.4-0.1,0.6-0.1
				c0.2-0.1,0.4-0.1,0.5-0.2c0.3-0.1,0.5-0.2,0.8-0.3c0.6-0.2,1.1-0.5,1.6-0.7c0.1,0,0.3-0.1,0.4-0.1c0.1,0,0.3-0.1,0.4-0.1
				c0.1,0,0.2-0.1,0.4-0.1c0.1-0.1,0.3-0.1,0.4-0.2c0.5-0.1,1-0.3,1.5-0.5c0.2-0.1,0.4-0.1,0.6-0.2c0.1,0,0.3-0.1,0.4-0.1
				c0.1-0.1,0.2-0.1,0.3-0.2C87.3,16.9,87.4,16.8,87.5,16.8 M74.4,21.6C74.4,21.6,74.4,21.6,74.4,21.6c0,0-0.1,0-0.1,0.1
				C74.3,21.6,74.3,21.6,74.4,21.6 M87.5,15.8C87.5,15.8,87.5,15.8,87.5,15.8c-0.2,0-0.3,0-0.4,0.1c-0.2,0.1-0.4,0.2-0.5,0.3
				c0,0-0.1,0.1-0.2,0.1c0,0-0.1,0-0.1,0l-0.1,0c-0.1,0-0.2,0.1-0.3,0.1c-0.1,0-0.2,0.1-0.3,0.1c-0.3,0.1-0.5,0.2-0.8,0.2
				c-0.3,0.1-0.5,0.2-0.7,0.2c-0.2,0-0.3,0.1-0.5,0.2l-0.1,0c-0.1,0-0.1,0-0.2,0.1c-0.2,0-0.3,0.1-0.4,0.1c0,0-0.1,0-0.1,0
				c0,0-0.1,0-0.1,0c-0.1,0-0.2,0-0.3,0.1c-0.3,0.1-0.6,0.2-0.9,0.4c-0.2,0.1-0.5,0.2-0.7,0.3c-0.1,0.1-0.3,0.1-0.4,0.2
				c-0.1,0-0.2,0.1-0.3,0.1c-0.1,0-0.2,0.1-0.3,0.1c-0.1,0-0.2,0.1-0.3,0.1c-0.1,0-0.2,0-0.2,0c-0.1,0-0.2,0-0.4,0.1
				c-0.1,0-0.2,0.1-0.4,0.1c-0.1,0-0.2,0.1-0.3,0.1c-0.1,0-0.2,0.1-0.4,0.1l-0.1,0l-0.1,0c-0.1,0-0.2,0.1-0.3,0.1l-0.2,0.1
				c-0.1,0.1-0.3,0.1-0.4,0.2c-0.1,0-0.2,0.1-0.3,0.1c-0.1,0-0.1,0.1-0.2,0.1c-0.3,0.1-0.6,0.2-0.8,0.3c0,0,0,0,0,0c0,0,0,0-0.1,0
				c-0.1,0-0.3,0.1-0.5,0.2c-0.1,0-0.1,0.1-0.2,0.1l0,0l0,0c-0.4,0.1-0.6,0.3-0.8,0.4c-0.1,0.1-0.2,0.2-0.3,0.2
				c-0.3,0.2-0.4,0.6-0.3,0.9c0,0.1,0,0.1,0,0.2l0,0.1c0,0.3,0,0.6,0,0.9c0,0.1,0,0.3,0,0.4c0,0.2,0,0.5,0,0.7l0,0.2
				c0,0,0,0.1,0,0.2c0,0.1,0,0.2,0,0.4c0,0.1,0,0.2,0,0.2c0,0,0,0.1,0,0.1c0,0.1,0,0.1,0,0.2c0,0.1,0,0.2,0,0.4c0,0.1,0,0.1,0,0.2
				c0,0.1,0,0.1,0,0.2c0,0.2,0,0.4,0,0.5c0,0.1,0,0.3,0,0.4c0,0.2-0.1,0.4-0.1,0.6c0,0.1,0,0.2,0,0.3l0,0.1c0,0.2,0,0.5,0,0.8
				c0,0,0,0.1,0,0.1c0,0.1,0,0.1,0,0.2c0,0.1,0,0.3,0,0.4c0,0.1,0,0.3,0,0.4c0,0.2,0,0.4,0.1,0.6c0,0.1,0,0.2,0,0.3
				c0,0.2,0,0.3,0,0.5c0,0.2,0,0.4-0.1,0.6c0,0.2,0,0.5,0,0.7c0,0.1,0,0.2,0,0.3c0,0.2,0,0.3,0,0.5c0,0.2,0,0.3,0,0.5l0,0.2
				c0,0.3,0.1,0.6,0,0.8c0,0.2,0,0.5,0,0.7c0,0.2,0,0.3,0,0.5c0,0.2,0,0.3-0.1,0.5c0,0.2-0.1,0.5-0.1,0.7c0,0.2,0,0.3,0,0.5
				c0,0.2,0,0.3,0,0.5c0,0,0,0.1,0,0.1c0,0.1,0,0.2,0,0.3c0,0.1,0,0.2,0,0.3c0,0.2,0,0.7,0.4,1c0.2,0.2,0.4,0.2,0.6,0.2
				c0.1,0,0.3,0,0.4-0.1l0,0c0.1,0,0.2,0,0.2-0.1c0.2,0,0.3-0.1,0.5-0.2c0.1,0,0.1-0.1,0.2-0.1l0.2-0.1l0.3-0.1
				c0.1,0,0.2-0.1,0.3-0.1c0,0,0.1,0,0.1,0c0.1,0,0.2-0.1,0.3-0.1c0,0,0.1,0,0.1,0c0,0,0.1,0,0.1,0c0.1,0,0.3,0,0.4-0.1
				c0.2,0,0.3-0.1,0.5-0.2c0.1,0,0.1,0,0.2-0.1c0.1,0,0.1,0,0.2-0.1c0.1,0,0.3-0.1,0.5-0.2c0.1,0,0.2,0,0.3-0.1l0.2,0l0.1,0
				c0.1,0,0.2-0.1,0.3-0.1c0.2,0,0.5-0.1,0.7-0.2c0,0,0.1,0,0.1,0c0.1,0,0.3-0.1,0.5-0.2c0.1,0,0.1-0.1,0.2-0.1
				c0.1,0,0.1-0.1,0.2-0.1c0.2-0.1,0.3-0.1,0.5-0.2c0.1,0,0.1-0.1,0.2-0.1c0,0,0.1,0,0.1,0c0.2,0,0.4-0.1,0.6-0.2
				c0.2-0.1,0.3-0.2,0.5-0.2c0.2-0.1,0.3-0.1,0.4-0.2c0,0,0.1,0,0.1-0.1c0.1-0.1,0.3-0.1,0.4-0.2c0.1,0,0.2-0.1,0.4-0.1l0.2-0.1
				c0.1,0,0.2-0.1,0.3-0.1c0,0,0.1,0,0.2-0.1c0,0,0.1,0,0.1,0c0.1,0,0.2,0,0.3-0.1c0.2-0.1,0.4-0.2,0.5-0.2l0,0c0,0,0.1,0,0.2-0.1
				l0.1,0c0,0,0.1,0,0.1-0.1c0,0,0,0,0.1,0c0,0,0.1,0,0.1,0c0.2-0.1,0.5-0.1,0.7-0.3c0.2-0.1,0.8-0.5,0.8-1.2c0-0.1,0-0.2,0-0.4
				c0,0,0-0.1,0-0.1c0-0.1,0-0.3,0-0.4c0-0.1,0-0.2,0-0.4c0-0.2,0-0.4,0-0.5c0-0.1,0-0.2,0-0.4c0-0.1,0-0.1,0-0.2c0-0.1,0-0.2,0-0.4
				c0-0.1,0-0.3,0-0.4c0-0.1,0-0.3,0-0.4c0-0.1,0-0.2,0-0.4c0-0.4,0.1-0.7,0-1.1l0,0c0-0.1,0-0.1,0-0.2c0-0.1,0-0.1,0-0.2
				c0,0,0-0.1,0-0.1c0-0.3,0-0.7,0-1c0-0.1,0-0.1,0-0.2c0,0,0-0.1,0-0.1c0,0,0-0.1,0-0.2l0-0.1c0-0.2,0-0.4,0-0.6c0-0.3,0-0.5,0-0.8
				c0-0.2,0-0.4,0.1-0.7c0-0.3,0.1-0.6,0.1-1c0-0.2,0-0.5,0-0.7c0-0.1,0-0.2,0-0.2c0-0.1,0-0.2,0-0.3c0.1-0.3,0.1-0.6,0-0.9
				c0-0.2,0-0.3,0-0.4c0-0.2,0-0.4,0.1-0.6c0-0.1,0-0.1,0-0.2c0-0.1,0.1-0.3,0.1-0.5l0-0.1c0-0.1,0-0.2,0-0.4c0-0.1,0-0.2,0-0.4
				l0-0.1c0-0.1,0-0.1,0-0.2c0-0.2,0-0.3-0.1-0.5c0-0.1,0-0.2-0.1-0.4l0-0.2c0-0.1,0-0.2,0-0.3c0-0.1,0-0.3,0-0.4c0-0.1,0-0.2,0-0.3
				c0-0.1,0-0.1,0-0.2c0-0.1,0-0.1,0.1-0.2c0-0.1,0.1-0.2,0.1-0.3C88.5,16.2,88,15.8,87.5,15.8C87.5,15.8,87.5,15.8,87.5,15.8
				L87.5,15.8z M87.5,17.8L87.5,17.8L87.5,17.8L87.5,17.8z"/>
		</g>
		<g>
			<path d="M79.6,23.9c0.1,0,0.1,0,0.2,0c0.4,0.1,0.8,0.1,1.2,0.2c0.4,0.1,0.8,0.2,1.2,0.3c0.2,0,0.5,0.1,0.7,0.2
				c0.2,0.1,0.5,0.2,0.7,0.2c0.2,0,0.4,0,0.6,0.1c0.2,0.1,0.4,0.1,0.7,0.2c0.2,0.1,0.5,0.1,0.7,0.2c0.3,0,0.6,0.1,0.9,0.1
				c0.5,0.1,1,0.2,1.5,0.4c0.5,0.2,1,0.4,1.5,0.5c0.2,0.1,0.5,0.1,0.7,0.2c0.3,0.1,0.5,0.2,0.8,0.2c0.3,0.1,0.7,0.2,1,0.3
				c0.1,0,0.3,0,0.4,0c0.1,0,0.3,0.1,0.4,0.1c0.2,0,0.5,0.1,0.7,0.1c0.2,0,0.4,0.1,0.6,0.2c0.2,0,0.3,0.1,0.5,0.1
				c0.2,0,0.3,0.1,0.5,0.1c0.1,0,0.2,0.1,0.3,0.1c0.1,0,0.1,0,0.2,0c0,0-0.1,0-0.1,0c-0.1,0-0.2,0.1-0.3,0.1
				c-0.3,0.1-0.6,0.2-0.9,0.2c-0.1,0-0.3,0.1-0.4,0.1c-0.1,0-0.2,0.1-0.4,0.1c-0.2,0.1-0.4,0.2-0.6,0.2c-0.2,0.1-0.4,0.1-0.6,0.2
				C92.2,28.9,92,29,91.8,29c-0.2,0.1-0.4,0.1-0.5,0.2c-0.5,0.2-0.9,0.3-1.4,0.5c-0.2,0.1-0.4,0.1-0.6,0.2c-0.2,0.1-0.4,0.2-0.7,0.2
				c-0.2,0.1-0.4,0.2-0.6,0.2c-0.2,0.1-0.5,0.1-0.7,0.2c-0.2,0.1-0.4,0.1-0.5,0.2c-0.3,0.1-0.5,0.1-0.8,0.2
				c-0.2,0.1-0.3,0.1-0.5,0.2c-0.2,0.1-0.4,0.2-0.7,0.3c-0.2,0-0.3,0.1-0.5,0.2c-0.1,0.1-0.3,0.1-0.4,0.2c-0.3,0.1-0.5,0.1-0.8,0.2
				c-0.2,0-0.3,0.1-0.5,0.2c-0.1,0-0.3,0-0.4,0.1c0,0-0.1,0-0.1,0c0,0-0.1,0-0.1-0.1c-0.2-0.1-0.5-0.2-0.7-0.3c-0.2,0-0.5,0-0.7-0.1
				c-0.2,0-0.4-0.1-0.7-0.2c-0.2,0-0.4-0.1-0.6-0.1c-0.2,0-0.4-0.1-0.6-0.2c-0.2-0.1-0.4-0.1-0.6-0.2c-0.1,0-0.2-0.1-0.3-0.1
				c-0.1,0-0.3-0.1-0.4-0.1c-0.2-0.1-0.4-0.1-0.6-0.2c-0.2-0.1-0.4-0.1-0.5-0.2c-0.8-0.2-1.5-0.6-2.4-0.7c-0.2,0-0.5-0.1-0.7-0.1
				c-0.3,0-0.5-0.1-0.8-0.2c-0.5-0.2-1-0.2-1.6-0.4c-0.3-0.1-0.6-0.1-0.8-0.2c-0.2-0.1-0.5-0.2-0.7-0.2c-0.2,0-0.4-0.1-0.6-0.2
				c-0.2,0-0.4-0.1-0.5-0.1c-0.3-0.1-0.5-0.2-0.8-0.2c-0.1,0-0.2,0-0.3,0c0,0,0,0,0,0c-0.1,0-0.1,0-0.2,0c0,0,0,0,0,0
				c0,0-0.1,0-0.4,0c0.7-0.1,1.4-0.3,2.1-0.7c0.1-0.1,0.2-0.1,0.3-0.2c0.1,0,0.2-0.1,0.4-0.1c0.2-0.1,0.5-0.2,0.7-0.2
				c0.3,0,0.6-0.1,0.8-0.2c0.1,0,0.3-0.1,0.4-0.1c0.2-0.1,0.4-0.1,0.6-0.1c0.3-0.1,0.6-0.2,0.9-0.3c0.4-0.2,0.9-0.3,1.3-0.4
				c0.4-0.1,0.8-0.3,1.2-0.4c0.2-0.1,0.3-0.1,0.5-0.1c0.2-0.1,0.4-0.2,0.6-0.2c0.1,0,0.3-0.1,0.4-0.1c0.1,0,0.3-0.1,0.4-0.2
				c0.3-0.1,0.5-0.2,0.8-0.3c0.2-0.1,0.5-0.2,0.7-0.3c0.1,0,0.2-0.1,0.3-0.1c0.1,0,0.2-0.1,0.3-0.1C79.3,23.9,79.4,23.9,79.6,23.9
				C79.5,23.9,79.6,23.9,79.6,23.9 M95.6,27.8C95.6,27.8,95.7,27.8,95.6,27.8C95.7,27.8,95.7,27.8,95.6,27.8
				C95.6,27.8,95.6,27.8,95.6,27.8C95.6,27.8,95.6,27.8,95.6,27.8 M79.6,22.9c0,0-0.1,0-0.2,0l-0.1,0c-0.1,0-0.2,0-0.4,0.1
				c-0.1,0-0.2,0.1-0.3,0.1l0,0c-0.1,0-0.2,0.1-0.4,0.1c-0.2,0.1-0.3,0.1-0.5,0.2c-0.1,0-0.2,0.1-0.3,0.1c-0.2,0.1-0.4,0.2-0.6,0.3
				l-0.2,0.1c-0.1,0-0.1,0-0.2,0.1c-0.1,0-0.1,0.1-0.2,0.1c-0.1,0-0.1,0-0.2,0.1l-0.2,0.1c-0.2,0-0.3,0.1-0.4,0.2
				c-0.1,0-0.1,0-0.2,0.1c-0.1,0-0.1,0-0.2,0c-0.1,0-0.2,0.1-0.3,0.1c-0.4,0.1-0.8,0.3-1.2,0.4C73.4,25,73.2,25,73,25.1
				c-0.2,0.1-0.5,0.1-0.7,0.2c-0.3,0.1-0.6,0.2-0.9,0.3c-0.1,0-0.1,0-0.2,0c-0.1,0-0.3,0.1-0.4,0.1c-0.1,0-0.1,0-0.2,0.1
				c-0.1,0-0.1,0-0.2,0.1c-0.1,0-0.2,0.1-0.3,0.1c-0.2,0-0.3,0.1-0.4,0.1c-0.3,0-0.5,0.1-0.7,0.2l-0.2,0.1c0,0-0.1,0-0.1,0
				c-0.1,0-0.2,0-0.3,0.1c-0.2,0.1-0.3,0.1-0.4,0.2l0,0c-0.7,0.4-1.2,0.5-1.7,0.6c-0.5,0-0.9,0.5-0.9,1c0,0.5,0.4,1,0.9,1
				c0.1,0,0.2,0,0.2,0c0.1,0,0.1,0,0.2,0c0.1,0,0.1,0,0.2,0c0,0,0,0,0,0c0,0,0,0,0,0c0.3,0.1,0.5,0.1,0.7,0.2
				c0.2,0.1,0.5,0.2,0.7,0.2c0.1,0,0.1,0,0.2,0.1c0.1,0,0.2,0.1,0.4,0.1c0.2,0,0.4,0.1,0.6,0.2c0.3,0.1,0.5,0.1,0.7,0.2l0.2,0
				c0.2,0,0.4,0.1,0.5,0.1c0.3,0.1,0.6,0.1,0.9,0.2c0.3,0.1,0.6,0.2,1,0.3c0.1,0,0.2,0,0.3,0c0.2,0,0.3,0.1,0.5,0.1
				c0.4,0,0.7,0.2,1.1,0.3c0.3,0.1,0.7,0.3,1.1,0.3c0.1,0,0.2,0.1,0.3,0.1l0.1,0c0.1,0,0.3,0.1,0.4,0.1c0.1,0,0.1,0,0.2,0.1
				c0.1,0,0.2,0.1,0.3,0.1c0,0,0.1,0,0.1,0c0,0,0.1,0,0.1,0l0.1,0l0.4,0.1l0.2,0.1l0.2,0.1c0.2,0.1,0.4,0.1,0.6,0.2l0.2,0l0.4,0.1
				c0.1,0,0.1,0,0.2,0.1c0.2,0,0.4,0.1,0.6,0.1c0.1,0,0.2,0,0.3,0c0.1,0,0.2,0,0.3,0c0.2,0,0.4,0.1,0.5,0.2c0.1,0.1,0.3,0.2,0.6,0.2
				c0.2,0,0.4,0,0.5-0.1c0.1,0,0.2,0,0.3-0.1c0.1,0,0.2-0.1,0.3-0.1c0,0,0.1,0,0.1,0c0.4-0.1,0.7-0.1,0.9-0.2
				c0.2-0.1,0.4-0.2,0.6-0.2c0,0,0.1,0,0.2-0.1l0.1,0c0.2,0,0.3-0.1,0.4-0.2c0.1,0,0.2-0.1,0.2-0.1c0.2-0.1,0.4-0.1,0.5-0.2l0.1,0
				c0.1,0,0.2-0.1,0.3-0.1c0.1,0,0.3-0.1,0.4-0.1c0.1,0,0.1,0,0.2-0.1c0.1,0,0.3-0.1,0.4-0.1c0.2-0.1,0.4-0.1,0.6-0.2
				c0.2,0,0.3-0.1,0.5-0.2c0.1,0,0.1-0.1,0.2-0.1c0.2,0,0.3-0.1,0.5-0.2c0.1,0,0.2-0.1,0.2-0.1c0.1,0,0.1,0,0.2-0.1
				c0.1,0,0.2-0.1,0.4-0.1c0.2-0.1,0.4-0.2,0.7-0.2c0.2-0.1,0.5-0.2,0.7-0.2c0.1,0,0.2-0.1,0.3-0.1c0.1,0,0.2-0.1,0.2-0.1l0.2,0
				c0.2,0,0.3-0.1,0.5-0.1c0.1,0,0.2-0.1,0.3-0.1c0.1,0,0.1,0,0.2-0.1c0.1,0,0.3-0.1,0.4-0.1c0.1,0,0.1-0.1,0.2-0.1c0,0,0.1,0,0.1,0
				c0.1,0,0.2,0,0.3-0.1c0.1,0,0.1,0,0.2,0c0.1,0,0.2,0,0.2-0.1c0.3-0.1,0.5-0.2,0.8-0.2c0.1,0,0.2-0.1,0.4-0.1
				c0.4-0.1,0.8-0.4,0.8-0.8c0.1-0.4-0.1-0.9-0.5-1.1c-0.1-0.1-0.3-0.1-0.4-0.1l-0.1,0l-0.1,0c-0.1,0-0.2-0.1-0.2-0.1
				c-0.1,0-0.3-0.1-0.4-0.1l-0.1,0c-0.1,0-0.3-0.1-0.4-0.1l-0.2-0.1c-0.2,0-0.3-0.1-0.5-0.1c-0.2,0-0.3-0.1-0.5-0.1
				c-0.1,0-0.2,0-0.2,0c0,0-0.1,0-0.1,0c-0.1,0-0.2-0.1-0.3-0.1c-0.1,0-0.2,0-0.3,0l-0.1,0c-0.2,0-0.5-0.1-0.8-0.2
				c-0.2-0.1-0.4-0.1-0.6-0.2l-0.2-0.1c-0.1,0-0.2-0.1-0.3-0.1c-0.2,0-0.3-0.1-0.5-0.1c-0.5-0.1-1-0.3-1.4-0.5
				c-0.5-0.2-1.1-0.3-1.7-0.4c-0.3-0.1-0.6-0.1-0.9-0.1c-0.2,0-0.4-0.1-0.6-0.1c-0.2-0.1-0.4-0.1-0.6-0.2c-0.2-0.1-0.4-0.1-0.6-0.1
				l-0.1,0c-0.1,0-0.2-0.1-0.3-0.1c-0.1,0-0.2-0.1-0.3-0.1c-0.2-0.1-0.5-0.1-0.8-0.2c-0.4-0.1-0.8-0.1-1.1-0.2
				c-0.3-0.1-0.5-0.1-0.8-0.2c-0.2,0-0.3,0-0.5-0.1C79.9,22.9,79.8,22.9,79.6,22.9L79.6,22.9z"/>
		</g>
		<g>
			<path d="M73,17.2c0.4,0.1,0.8,0.2,1.3,0.3c0.2,0,0.3,0.1,0.5,0.1c0.1,0,0.3,0,0.4,0.1c0.2,0,0.5,0.1,0.7,0.1
				c0.4,0.1,0.7,0.2,1.1,0.2c0.3,0.1,0.6,0.2,0.9,0.2c0.3,0.1,0.6,0.1,0.8,0.2c0.2,0.1,0.4,0.1,0.7,0.2c0.1,0,0.3,0.1,0.4,0.1
				c0.2,0.1,0.4,0.1,0.6,0.1c0.3,0.1,0.7,0.2,1,0.3c0.3,0.1,0.6,0.2,1,0.3c0.6,0.1,1.2,0.2,1.8,0.3c0.3,0,0.6,0.1,0.8,0.1
				c0.3,0.1,0.6,0.1,0.9,0.2c0.3,0.1,0.6,0.2,0.9,0.2c0.1,0,0.3,0,0.4,0.1c0.1,0,0.3,0.1,0.4,0.1c0.2,0.1,0.4,0.1,0.6,0.1
				c0.1,0,0.2,0.1,0.2,0.1c0.1,0.1,0.3,0.1,0.4,0.1c-0.1,0.3,0,0.6,0,0.8C89,22.2,89,22.6,89,23c0.1,0.3,0.1,0.6,0,0.9
				c0,0.2,0,0.3,0,0.5c0,0.2,0,0.4,0.1,0.6c0,0.2,0,0.3,0,0.5c0,0.2,0,0.3,0,0.5c0,0.4,0,0.8,0,1.1c0,0.2,0,0.3,0,0.5
				c0,0.2-0.1,0.4-0.1,0.5c0,0.4,0,0.7,0,1.1c0,0.2,0,0.4,0,0.6c0,0.2,0,0.3-0.1,0.5c0,0.3,0,0.7,0.1,1c0,0.1,0,0.3,0.1,0.4
				c0,0.2,0,0.3,0,0.5c0,0.3,0,0.7,0,1c0,0.4,0,0.7-0.1,1.1c0,0.4,0,0.8,0,1.2c0,0.3,0,0.5,0,0.8c0,0.2,0,0.4,0,0.7
				c0,0.2,0,0.4,0,0.5c0,0.2,0,0.4,0,0.6c0,0.1,0,0.3,0,0.4c0,0.1,0,0.1,0,0.2c0,0.1,0,0.1,0,0.2c-0.1,0-0.1,0-0.2-0.1
				c-0.1,0-0.2,0-0.3,0c-0.1,0-0.3-0.1-0.4-0.1c-0.1,0-0.2,0-0.3,0c-0.3,0-0.5-0.1-0.8-0.1c0,0,0,0,0,0c-0.1,0-0.1,0-0.2,0
				c-0.1,0-0.1,0-0.2,0c-0.1,0-0.2,0-0.3-0.1c-0.1,0-0.2,0-0.3,0c-0.2,0-0.4-0.1-0.5-0.1c-0.1,0-0.2,0-0.4,0c-0.4-0.1-0.7-0.2-1-0.3
				c-0.3-0.1-0.6-0.3-0.9-0.4c-0.2,0-0.3-0.1-0.5-0.1c-0.1-0.1-0.3-0.1-0.4-0.1c-0.1,0-0.3-0.1-0.4-0.1C81.8,37,81.6,37,81.5,37
				c-0.3-0.1-0.6-0.3-0.9-0.3c-0.1,0-0.3,0-0.4-0.1c-0.1,0-0.3-0.1-0.5-0.1c-0.4-0.1-0.7-0.2-1.1-0.3c-0.2,0-0.4,0-0.6-0.1
				C77.8,36,77.7,36,77.5,36c-0.2,0-0.4,0-0.6-0.1c-0.2,0-0.4-0.1-0.6-0.1c0,0,0,0,0,0c-0.1,0-0.1,0-0.2,0c-0.1,0-0.2,0-0.3,0
				c-0.2,0-0.3-0.1-0.5-0.1c-0.3,0-0.7-0.1-1-0.1c0,0-0.1,0-0.1,0c0,0-0.1,0-0.1,0c0,0-0.1,0-0.1,0c-0.1,0-0.1,0-0.2-0.1
				c0,0-0.1,0-0.1,0c-0.1,0-0.1-0.1-0.2-0.1c-0.1-0.1-0.2-0.1-0.3-0.2c-0.1,0-0.1-0.1-0.2-0.1c0,0-0.1,0-0.2-0.1
				c-0.1-0.1,0-0.2,0-0.3c0-0.2,0-0.5,0.1-0.7c0-0.3,0-0.6,0-0.9c0-0.1,0-0.3-0.1-0.4c0-0.2-0.1-0.4-0.1-0.6c0-0.3,0-0.7,0-1
				c0-0.1,0-0.3,0-0.4c0-0.2,0-0.4,0-0.6c0-0.3,0-0.6,0-0.9c0-0.4,0-0.9,0-1.3c0-0.3,0-0.6,0-0.9c-0.1-0.3,0-0.7,0-1.1
				c0-0.2,0-0.3,0-0.4c0-0.2,0-0.4,0-0.6c0-0.3-0.1-0.7-0.1-1c0-0.3,0-0.7,0-1c0-0.2,0-0.4,0-0.6c0-0.2,0-0.4,0.1-0.6
				c0-0.2,0.1-0.5,0.1-0.7c0-0.2,0-0.5,0-0.7c0-0.2,0.1-0.5,0.2-0.7c0-0.1,0-0.2,0-0.3c0-0.1,0-0.2,0-0.4c0-0.1-0.1-0.2-0.1-0.4
				c0-0.2,0-0.4,0-0.6C72.9,17.6,72.8,17.4,73,17.2 M73,16.2c-0.3,0-0.5,0.1-0.7,0.3c-0.4,0.4-0.4,0.9-0.5,1.1l0,0.1
				c0,0.2,0,0.4,0,0.6l0,0.1c0,0.2,0,0.4,0.1,0.5l0,0.1c0,0,0,0.1,0,0.1c0,0,0,0.1,0,0.1c0,0.1,0,0.1,0,0.2c0,0,0,0,0,0
				c0,0,0,0.1,0,0.1c-0.1,0.2-0.1,0.4-0.1,0.7c0,0.2,0,0.3,0,0.5c0,0.1,0,0.2,0,0.2c0,0.1,0,0.3,0,0.4l0,0.2c0,0.1,0,0.1,0,0.2
				c0,0.2,0,0.3,0,0.5c0,0.1,0,0.3,0,0.4l0,0.2c0,0.2,0,0.3,0,0.4c0,0.2,0,0.3,0,0.5c0,0.3,0,0.6,0,0.8c0,0.1,0,0.2,0,0.3
				c0,0.1,0,0.2,0,0.2c0,0.1,0,0.2,0,0.4c0,0.1,0,0.2,0,0.3c0,0,0,0,0,0.1c-0.1,0.3-0.1,0.9,0,1.4c0,0.1,0,0.4,0,0.6l0,0.2l0,0.2
				c0,0.4,0,0.8,0,1.2c0,0.2,0,0.3,0,0.6l0,0.2c0,0.1,0,0.2,0,0.3c0,0.1,0,0.2,0,0.3c0,0.1,0,0.2,0,0.3c0,0,0,0.1,0,0.1l0,0.2
				c0,0.3,0,0.6,0,0.9c0,0.2,0.1,0.5,0.1,0.7c0,0.1,0,0.2,0,0.2c0,0.1,0,0.2,0,0.3c0,0.2,0,0.4,0,0.5c0,0.2,0,0.4,0,0.6
				c-0.1,0.6,0.1,0.9,0.3,1.1c0.2,0.2,0.5,0.3,0.6,0.3c0,0,0,0,0,0c0,0,0,0,0,0c0,0,0.1,0.1,0.1,0.1c0,0,0,0,0,0
				c0.1,0.1,0.2,0.2,0.4,0.3l0.1,0l0.4-0.9l-0.3,0.9c0.1,0,0.2,0.1,0.4,0.1c0.1,0,0.2,0,0.3,0l0.1,0c0.1,0,0.2,0,0.4,0
				c0.2,0,0.5,0,0.7,0.1c0.1,0,0.2,0,0.3,0.1c0.2,0.1,0.4,0.1,0.5,0.1c0.1,0,0.1,0,0.2,0c0,0,0.1,0,0.1,0c0.1,0,0.3,0,0.4,0.1
				c0.1,0,0.2,0,0.3,0l0.2,0c0.1,0,0.1,0,0.2,0.1c0.3,0.1,0.5,0.1,0.7,0.2l0.1,0c0.2,0,0.3,0.1,0.5,0.1c0.2,0,0.3,0.1,0.5,0.1
				c0.1,0,0.2,0,0.3,0.1c0.2,0.1,0.4,0.1,0.5,0.1l0.1,0c0.1,0,0.2,0.1,0.3,0.1c0.2,0.1,0.4,0.2,0.6,0.2l0.1,0c0.1,0,0.1,0,0.2,0
				c0.2,0.1,0.4,0.1,0.6,0.2c0.1,0,0.1,0,0.2,0c0.2,0.1,0.5,0.1,0.6,0.2c0.1,0,0.2,0.1,0.3,0.1c0.1,0.1,0.3,0.1,0.4,0.2l0.2,0.1
				c0.3,0.1,0.6,0.2,0.9,0.3c0.1,0,0.2,0,0.3,0l0.1,0c0.1,0,0.1,0,0.2,0c0.1,0,0.2,0.1,0.4,0.1c0.1,0,0.2,0,0.3,0
				c0.1,0,0.3,0.1,0.4,0.1c0.1,0,0.2,0,0.3,0c0.1,0,0.1,0,0.2,0c0,0,0.1,0,0.2,0c0.1,0,0.3,0.1,0.5,0.1c0.1,0,0.1,0,0.1,0
				c0,0,0.1,0,0.1,0c0.1,0,0.2,0.1,0.4,0.1c0.1,0,0.2,0,0.3,0c0,0,0.1,0,0.2,0c0.1,0,0.1,0,0.2,0c0.2,0,0.4-0.1,0.6-0.2
				c0.2-0.2,0.4-0.4,0.4-0.7c0-0.1,0-0.3,0-0.3c0,0,0,0,0-0.1c0-0.1,0-0.2,0-0.4c0-0.3,0-0.5,0-0.7c0-0.1,0-0.1,0-0.2
				c0-0.1,0-0.3,0-0.4c0-0.1,0-0.2,0-0.3c0-0.1,0-0.2,0-0.2c0-0.3,0-0.6,0-0.9c0-0.4,0-0.8,0-1.1l0-0.2c0-0.3,0-0.6,0-0.9
				c0-0.2,0-0.3,0-0.5c0-0.2,0-0.3,0-0.5l0-0.1c0-0.2,0-0.4,0-0.6c0-0.1,0-0.2,0-0.3c0-0.1,0-0.2,0-0.3c0-0.2,0-0.4,0-0.5l0-0.1
				c0-0.2,0-0.3,0.1-0.5c0-0.2,0-0.4,0-0.6l0-0.1c0-0.3,0-0.7,0-0.9c0-0.1,0-0.2,0-0.3c0-0.1,0-0.2,0-0.2c0-0.1,0-0.3,0-0.4
				c0,0,0-0.1,0-0.1c0-0.4,0-0.8,0-1.3c0-0.1,0-0.1,0-0.2c0-0.1,0-0.1,0-0.2c0-0.1,0-0.3,0-0.4l0-0.1c0-0.1,0-0.2,0-0.3
				c0-0.1,0-0.2,0-0.2c0-0.1,0-0.1,0-0.2c0-0.1,0-0.2,0-0.2c0-0.4,0-0.8-0.1-1.1c0-0.1,0-0.3,0-0.4c0-0.2,0-0.5-0.1-0.8
				c0-0.2-0.1-0.3,0-0.3c0.1-0.4-0.1-0.8-0.4-1.1C89.2,20,89,20,88.8,19.9l-0.1,0l-0.2-0.1l-0.1,0c-0.2-0.1-0.3-0.1-0.5-0.1
				c-0.1,0-0.1,0-0.2,0c0,0-0.1,0-0.1,0c-0.1,0-0.2-0.1-0.3-0.1c-0.1,0-0.2,0-0.3-0.1c0,0-0.1,0-0.1,0c-0.3-0.1-0.5-0.1-0.7-0.2
				c-0.2-0.1-0.5-0.1-0.6-0.2c-0.1,0-0.2,0-0.3-0.1c-0.3-0.1-0.6-0.1-1-0.2c-0.5,0-1.1-0.1-1.7-0.3c-0.1,0-0.3-0.1-0.5-0.1
				c-0.1,0-0.3-0.1-0.4-0.1c-0.1,0-0.3-0.1-0.4-0.1c-0.2-0.1-0.4-0.1-0.7-0.2l-0.2,0c-0.1,0-0.2-0.1-0.4-0.1l-0.1,0
				c-0.1,0-0.3-0.1-0.4-0.1c-0.2,0-0.4-0.1-0.6-0.2c-0.2-0.1-0.4-0.1-0.6-0.2c-0.1,0-0.2,0-0.3-0.1L78,17.3
				c-0.3-0.1-0.5-0.1-0.8-0.2c-0.1,0-0.3-0.1-0.4-0.1c-0.2,0-0.4-0.1-0.6-0.1c-0.1,0-0.2,0-0.2,0c-0.2,0-0.4-0.1-0.6-0.1l-0.1,0
				c-0.1,0-0.1,0-0.2,0c-0.1,0-0.2,0-0.2-0.1l-0.2-0.1c-0.2-0.1-0.4-0.1-0.7-0.2c-0.2,0-0.4-0.1-0.6-0.1
				C73.2,16.2,73.1,16.2,73,16.2L73,16.2z"/>
		</g>
		<g>
			<path class="st7" d="M74.5,22.9c-0.1,0-0.2,0-0.2,0c-0.1,0-0.2,0-0.4-0.1c-0.1,0-0.2-0.1-0.4-0.2c-0.1-0.1-0.2-0.3-0.3-0.4
				c-0.1-0.2-0.2-0.4-0.1-0.6c0-0.1,0-0.2,0-0.2c0,0,0-0.1,0.1-0.2c0.1-0.2,0.3-0.4,0.5-0.4c0.2-0.1,0.3-0.1,0.3-0.1
				c0.1,0,0.2-0.1,0.3-0.1c0,0,0,0,0,0c0.2,0,0.3,0,0.5,0.1c0.1,0.1,0.2,0.1,0.3,0.3c0.1,0.1,0.2,0.2,0.2,0.3
				c0.1,0.2,0.1,0.3,0.1,0.4c0,0.2,0,0.4-0.1,0.6c0,0.1-0.1,0.2-0.2,0.3c-0.1,0.1-0.2,0.3-0.5,0.4C74.6,22.9,74.6,22.9,74.5,22.9z"
				/>
			<path d="M74.4,21c0.1,0,0.1,0,0.2,0c0.1,0,0.1,0.1,0.2,0.1c0.1,0.1,0.1,0.1,0.2,0.2c0,0.1,0,0.2,0,0.3c0,0.1,0,0.3-0.1,0.4
				c0,0.1-0.1,0.2-0.1,0.2c0,0.1-0.1,0.1-0.1,0.1c0,0-0.1,0-0.1,0c-0.1,0-0.1,0-0.2,0c-0.1,0-0.1,0-0.2-0.1c-0.1,0-0.2-0.1-0.2-0.1
				c-0.1-0.1-0.1-0.2-0.2-0.2c-0.1-0.1-0.1-0.2-0.1-0.4c0-0.1,0-0.1,0-0.1c0,0,0-0.1,0-0.1c0.1-0.1,0.2-0.2,0.3-0.3
				c0.1,0,0.2,0,0.2-0.1C74.3,21,74.3,21,74.4,21C74.4,21,74.4,21,74.4,21 M74.4,20c0,0-0.1,0-0.1,0c-0.2,0-0.3,0.1-0.4,0.1
				c-0.1,0-0.2,0.1-0.3,0.1c-0.2,0.1-0.5,0.3-0.7,0.7c-0.1,0.2-0.1,0.3-0.1,0.4c0,0.1,0,0.2,0,0.3c0,0.4,0.1,0.6,0.2,0.8
				c0.1,0.1,0.2,0.4,0.4,0.5c0.2,0.2,0.4,0.3,0.5,0.3c0.2,0.1,0.3,0.1,0.5,0.1c0.1,0,0.2,0,0.3,0c0.1,0,0.2,0,0.3,0
				c0.4-0.1,0.6-0.3,0.8-0.6c0.1-0.1,0.1-0.2,0.2-0.4c0.1-0.3,0.1-0.6,0.1-0.8c0-0.2,0-0.4-0.1-0.7c-0.1-0.2-0.2-0.3-0.3-0.4
				c-0.1-0.2-0.3-0.3-0.5-0.4C74.9,20,74.6,20,74.4,20L74.4,20z"/>
		</g>
		<g>
			<path class="st7" d="M66.6,29.4c-0.2,0-0.4,0-0.6-0.1c-0.2-0.1-0.6-0.3-0.7-0.8c0-0.2,0-0.4,0-0.5c0-0.1,0.1-0.2,0.1-0.3
				c0-0.1,0.1-0.2,0.2-0.3c0.2-0.1,0.3-0.2,0.5-0.2c0,0,0,0,0,0c0.1,0,0.1,0,0.2,0c0.3,0,0.4,0,0.5,0.1c0.1,0.1,0.3,0.1,0.5,0.3
				c0.3,0.4,0.4,0.9,0.2,1.4C67.4,29.2,67,29.4,66.6,29.4L66.6,29.4z"/>
			<path d="M66.4,27.6C66.4,27.6,66.5,27.6,66.4,27.6c0.2,0,0.3,0,0.3,0.1c0.1,0,0.2,0.1,0.3,0.2c0.2,0.2,0.2,0.6,0.1,0.8
				c-0.1,0.2-0.3,0.3-0.5,0.3c-0.1,0-0.2,0-0.3-0.1c-0.2-0.1-0.4-0.2-0.5-0.5c0-0.1,0-0.3,0-0.4c0-0.1,0-0.2,0.1-0.2
				c0,0,0-0.1,0.1-0.1c0.1-0.1,0.1-0.1,0.2-0.1C66.2,27.6,66.3,27.6,66.4,27.6C66.3,27.6,66.3,27.6,66.4,27.6 M66.4,26.6
				c-0.1,0-0.2,0-0.3,0c-0.3,0-0.6,0.1-0.9,0.3c-0.1,0.1-0.2,0.2-0.2,0.3L65,27.3c0,0,0,0,0,0.1c0,0.1-0.1,0.3-0.1,0.5
				c0,0.2,0,0.5,0,0.7c0.1,0.7,0.7,1.1,1,1.2c0.2,0.1,0.5,0.2,0.8,0.2c0.6,0,1.1-0.3,1.4-0.8c0.3-0.6,0.2-1.5-0.2-2
				c-0.2-0.3-0.5-0.4-0.6-0.4C66.9,26.6,66.7,26.6,66.4,26.6L66.4,26.6L66.4,26.6z"/>
		</g>
		<g>
			<path class="st7" d="M79.3,25.1c-0.1,0-0.3,0-0.5-0.1c-0.2-0.1-0.3-0.2-0.3-0.3c-0.1-0.1-0.2-0.3-0.2-0.5c0-0.2,0-0.4,0-0.6
				c0-0.2,0.1-0.3,0.2-0.5c0-0.1,0.1-0.2,0.2-0.3c0,0,0-0.1,0.1-0.1c0.1-0.1,0.2-0.1,0.3-0.2c0.1,0,0.2,0,0.2,0c0.2,0,0.4,0,0.5,0.1
				c0.2,0.1,0.3,0.2,0.5,0.3c0.2,0.1,0.3,0.3,0.3,0.5c0,0.1,0,0.3,0,0.5c0,0.3-0.2,0.6-0.4,0.8c-0.1,0.1-0.3,0.3-0.6,0.3l-0.1-0.5
				l0,0.5C79.4,25.1,79.4,25.1,79.3,25.1C79.3,25.1,79.3,25.1,79.3,25.1z"/>
			<path d="M79.1,23.1c0.1,0,0.2,0,0.3,0.1c0.1,0.1,0.3,0.2,0.4,0.3c0.1,0,0.1,0.1,0.1,0.2c0,0.1,0,0.3,0,0.4c0,0.2-0.1,0.4-0.2,0.5
				c-0.1,0.1-0.1,0.1-0.2,0.1c0,0,0,0,0,0c0,0,0,0,0,0c-0.1,0-0.1,0-0.2,0c0,0,0,0-0.1,0c-0.1,0-0.2,0-0.3-0.1
				c-0.1-0.1-0.2-0.1-0.2-0.2c-0.1-0.1-0.1-0.1-0.1-0.2c0-0.1,0-0.3,0-0.4c0-0.1,0.1-0.2,0.1-0.3c0-0.1,0.1-0.1,0.1-0.2
				c0,0,0-0.1,0.1-0.1C79,23.1,79,23.1,79.1,23.1 M79.1,22.1c-0.1,0-0.2,0-0.4,0c-0.2,0-0.4,0.2-0.5,0.3c0,0.1-0.1,0.1-0.1,0.2
				c-0.1,0.1-0.1,0.2-0.2,0.3c-0.1,0.2-0.2,0.5-0.2,0.7c0,0.3,0,0.5,0,0.7c0.1,0.2,0.2,0.5,0.3,0.7c0.1,0.1,0.2,0.3,0.5,0.4
				c0.3,0.2,0.6,0.2,0.8,0.2c0,0,0.1,0,0.1,0l0.1,0l0.1,0c0,0,0,0,0,0c0.5,0,0.8-0.2,1-0.4c0.3-0.3,0.4-0.7,0.5-1.1
				c0-0.3,0-0.5,0-0.7c-0.1-0.3-0.3-0.6-0.5-0.8c-0.2-0.2-0.4-0.3-0.6-0.4C79.6,22.2,79.3,22.1,79.1,22.1L79.1,22.1z"/>
		</g>
		<g>
			<path class="st7" d="M87.5,26c-0.1,0-0.3,0-0.5-0.1c-0.2-0.1-0.3-0.2-0.3-0.3c-0.1-0.1-0.2-0.3-0.2-0.5c0-0.2,0-0.4,0-0.6
				c0-0.2,0.1-0.3,0.2-0.5c0-0.1,0.1-0.2,0.2-0.3c0,0,0-0.1,0.1-0.1c0.1-0.1,0.2-0.1,0.3-0.2c0.1,0,0.2,0,0.2,0c0.2,0,0.4,0,0.5,0.1
				c0.2,0.1,0.3,0.2,0.5,0.3c0.2,0.1,0.3,0.3,0.3,0.5c0,0.1,0,0.3,0,0.5c0,0.3-0.2,0.6-0.4,0.8c-0.1,0.1-0.3,0.3-0.6,0.3l-0.1-0.5
				l0,0.5C87.7,26,87.6,26.1,87.5,26C87.6,26.1,87.6,26,87.5,26z"/>
			<path d="M87.4,24c0.1,0,0.2,0,0.3,0.1c0.1,0.1,0.3,0.2,0.4,0.3c0.1,0,0.1,0.1,0.1,0.2c0,0.1,0,0.3,0,0.4c0,0.2-0.1,0.4-0.2,0.5
				c-0.1,0.1-0.1,0.1-0.2,0.1c0,0,0,0,0,0c0,0,0,0,0,0c-0.1,0-0.1,0-0.2,0c0,0,0,0-0.1,0c-0.1,0-0.2,0-0.3-0.1
				c-0.1-0.1-0.2-0.1-0.2-0.2C87,25.2,87,25.1,86.9,25c0-0.1,0-0.3,0-0.4c0-0.1,0.1-0.2,0.1-0.3c0-0.1,0.1-0.1,0.1-0.2
				c0,0,0-0.1,0.1-0.1C87.3,24,87.3,24,87.4,24 M87.4,23c-0.1,0-0.2,0-0.4,0c-0.2,0-0.4,0.2-0.5,0.3c0,0.1-0.1,0.1-0.1,0.2
				c-0.1,0.1-0.1,0.2-0.2,0.3c-0.1,0.2-0.2,0.5-0.2,0.7c0,0.3,0,0.5,0,0.7c0.1,0.2,0.2,0.5,0.3,0.7c0.1,0.1,0.2,0.3,0.5,0.4
				c0.3,0.2,0.6,0.2,0.8,0.2c0,0,0.1,0,0.1,0l0.1,0l0.1,0c0,0,0,0,0,0c0.5,0,0.8-0.2,1-0.4c0.3-0.3,0.4-0.7,0.5-1.1
				c0-0.3,0-0.5,0-0.7c-0.1-0.3-0.3-0.6-0.5-0.8c-0.2-0.2-0.4-0.3-0.6-0.4C87.9,23.1,87.6,23,87.4,23L87.4,23z"/>
		</g>
		<g>
			<path class="st7" d="M73.1,18.2l0,0.5c0,0,0,0,0,0c-0.1,0-0.2,0-0.4,0c-0.3-0.1-0.5-0.3-0.5-0.4c-0.1-0.2-0.3-0.3-0.4-0.6
				c-0.1-0.2-0.1-0.3-0.1-0.4c0-0.1,0-0.2,0-0.3c0.1-0.4,0.3-0.6,0.5-0.8c0.1-0.1,0.5-0.3,0.8-0.3c0.2,0,0.4,0.1,0.6,0.2
				c0.3,0.2,0.5,0.5,0.5,0.7c0,0.2,0,0.5,0,0.7c0,0.3,0,0.7-0.4,1c-0.2,0.1-0.5,0.2-0.8,0.2V18.2z"/>
			<path d="M73.1,16.4c0.1,0,0.2,0,0.3,0.1c0.1,0.1,0.3,0.2,0.3,0.4c0,0.2,0,0.4,0,0.6c0,0.2,0,0.5-0.2,0.5
				c-0.2,0.1-0.3,0.2-0.5,0.2c0,0,0,0,0,0c0,0,0,0,0,0c0,0,0,0-0.1,0c-0.1,0-0.1,0-0.2,0c-0.1,0-0.2-0.1-0.3-0.2
				c-0.1-0.1-0.2-0.3-0.3-0.4c0-0.1,0-0.2,0-0.2c0-0.1,0-0.2,0-0.2c0.1-0.2,0.2-0.4,0.4-0.5C72.7,16.5,72.9,16.4,73.1,16.4
				 M73.1,15.4c-0.4,0-0.9,0.2-1.1,0.4c-0.3,0.3-0.5,0.6-0.6,0.9c0,0.1,0,0.1,0,0.2c0,0.1,0,0.3,0,0.4c0,0.1,0,0.3,0.1,0.6
				c0.1,0.3,0.3,0.5,0.4,0.7c0.1,0.1,0.4,0.4,0.8,0.6c0.2,0,0.3,0,0.4,0l0.1,0c0.4,0,0.8-0.2,1-0.3c0.7-0.4,0.7-1.1,0.7-1.3l0-0.1
				c0-0.3,0-0.5,0-0.8c-0.1-0.3-0.2-0.7-0.8-1.1C73.7,15.5,73.4,15.4,73.1,15.4L73.1,15.4z"/>
		</g>
		<g>
			<path class="st7" d="M73.1,36.2c-0.4,0-0.8-0.2-1.1-0.4c-0.4-0.3-0.4-0.7-0.4-0.9c0-0.2,0-0.4,0-0.6c0-0.1,0.1-0.3,0.2-0.4
				c0.2-0.2,0.4-0.3,0.7-0.3c0.1,0,0.2,0,0.3,0l0.1,0c0.1,0,0.2,0.1,0.3,0.2c0.2,0.1,0.4,0.2,0.5,0.4c0.2,0.2,0.2,0.5,0.2,0.6
				c0,0.3,0,0.5-0.1,0.7c-0.1,0.2-0.3,0.6-0.7,0.6C73.2,36.2,73.1,36.2,73.1,36.2z"/>
			<path d="M72.6,34.2c0.1,0,0.3,0,0.4,0c0.1,0.1,0.3,0.1,0.5,0.3c0.1,0.1,0.1,0.2,0.1,0.4c0,0.2,0,0.3-0.1,0.5
				c-0.1,0.1-0.1,0.3-0.3,0.4c0,0-0.1,0-0.1,0c-0.3,0-0.5-0.1-0.8-0.3c-0.2-0.1-0.2-0.3-0.2-0.5c0-0.1,0-0.3,0-0.4
				c0-0.1,0.1-0.2,0.1-0.2C72.4,34.2,72.5,34.2,72.6,34.2 M72.6,33.2c-0.6,0-0.9,0.3-1.1,0.5c-0.2,0.2-0.3,0.4-0.3,0.6
				c-0.1,0.3-0.1,0.5-0.1,0.6l0,0.1c0,0.5,0.2,0.9,0.5,1.2c0.4,0.4,0.9,0.6,1.4,0.6c0.1,0,0.1,0,0.2,0c0.7-0.1,1-0.7,1.1-0.9
				c0.2-0.4,0.2-0.7,0.2-0.9l0-0.1c0-0.2,0-0.6-0.2-0.9c-0.2-0.3-0.5-0.5-0.6-0.6c0,0,0,0,0,0c-0.2-0.1-0.4-0.2-0.6-0.2l-0.1,0
				C72.9,33.2,72.8,33.2,72.6,33.2L72.6,33.2z"/>
		</g>
		<g>
			<path class="st7" d="M88.9,40c-0.1,0-0.2,0-0.3,0c-0.4,0-0.7-0.2-0.9-0.5c-0.4-0.4-0.5-0.8-0.4-1.2c0.1-0.3,0.2-0.5,0.4-0.7
				c0.1-0.1,0.2-0.2,0.4-0.3c0.2-0.1,0.3-0.1,0.6-0.1c0.2,0,0.4,0,0.6,0.1l0.1,0c0.1,0,0.3,0.1,0.3,0.2c0,0,0,0,0,0
				c0.1,0.1,0.2,0.1,0.2,0.2c0.2,0.2,0.3,0.5,0.3,0.8c0,0.1,0,0.2,0,0.3c0,0.2-0.1,0.3-0.1,0.4c-0.1,0.3-0.2,0.5-0.5,0.7
				C89.4,40,89.1,40,88.9,40L88.9,40z"/>
			<path d="M88.7,37.6c0.2,0,0.5,0.1,0.6,0.1c0,0.1,0.2,0.1,0.3,0.3c0.1,0.2,0.2,0.3,0.2,0.5c0,0.1,0,0.2,0,0.3c0,0.1,0,0.2-0.1,0.3
				c-0.1,0.2-0.2,0.3-0.3,0.4c-0.1,0.1-0.3,0.1-0.4,0.1c-0.1,0-0.2,0-0.3,0c-0.2,0-0.4-0.2-0.6-0.3c-0.2-0.2-0.3-0.5-0.3-0.8
				c0-0.2,0.2-0.3,0.3-0.5c0.1-0.1,0.2-0.2,0.3-0.2C88.4,37.6,88.6,37.6,88.7,37.6 M88.7,36.6c-0.3,0-0.6,0.1-0.8,0.2
				c-0.2,0.1-0.4,0.3-0.5,0.4c-0.2,0.2-0.4,0.5-0.5,0.9c-0.1,0.4-0.1,1,0.5,1.7c0.4,0.4,0.8,0.7,1.3,0.7c0.1,0,0.2,0,0.3,0
				c0.4,0,0.8-0.1,1.1-0.4c0.3-0.2,0.5-0.5,0.6-0.8c0.1-0.1,0.1-0.3,0.1-0.6c0-0.1,0-0.2,0-0.3c0-0.4-0.1-0.8-0.4-1.1
				c-0.1-0.1-0.2-0.2-0.2-0.3c-0.2-0.2-0.4-0.4-0.7-0.4l-0.1,0C89.2,36.6,88.9,36.6,88.7,36.6L88.7,36.6z"/>
		</g>
		<g>
			<path class="st7" d="M87.1,35.8c-0.1,0-0.3,0-0.4-0.1c-0.5-0.2-0.7-0.7-0.8-1.1c0-0.2,0-0.3,0-0.5c0-0.1,0.1-0.2,0.1-0.3
				c0.2-0.3,0.4-0.4,0.6-0.5c0.1-0.1,0.2-0.1,0.3-0.1c0,0,0.1,0,0.2,0c0.1,0,0.3,0,0.5,0.1c0.2,0.1,0.3,0.3,0.4,0.5
				c0.1,0.2,0.2,0.3,0.2,0.6c0,0.2,0,0.4-0.1,0.6C88,35.5,87.6,35.8,87.1,35.8L87.1,35.8z"/>
			<path d="M87,33.8c0,0,0.1,0,0.1,0c0,0,0,0,0,0C87,33.8,86.9,33.8,87,33.8 M87.1,33.8c0.1,0,0.2,0,0.3,0.1
				c0.1,0.1,0.2,0.2,0.3,0.3c0.1,0.1,0.1,0.2,0.1,0.3c0,0.1,0,0.3,0,0.4c-0.1,0.3-0.4,0.4-0.6,0.4c-0.1,0-0.2,0-0.2,0
				c-0.3-0.1-0.4-0.4-0.5-0.7c0-0.1,0-0.2,0-0.3c0-0.1,0-0.1,0.1-0.2C86.6,33.8,86.9,33.8,87.1,33.8C87.1,33.8,87.1,33.8,87.1,33.8
				 M87,32.8C87,32.8,87,32.8,87,32.8c-0.2,0-0.4,0.1-0.5,0.2c-0.3,0.1-0.6,0.3-0.8,0.7c-0.1,0.2-0.2,0.4-0.2,0.5
				c-0.1,0.2-0.1,0.5,0,0.7c0.1,0.5,0.5,1.2,1.1,1.5c0.2,0.1,0.4,0.1,0.6,0.1c0.7,0,1.3-0.4,1.5-1c0.1-0.3,0.1-0.6,0.1-0.8l0-0.1
				c0-0.4-0.2-0.7-0.3-0.9c-0.2-0.3-0.4-0.5-0.6-0.6c-0.3-0.2-0.5-0.2-0.7-0.2C87.1,32.8,87,32.8,87,32.8L87,32.8z"/>
		</g>
		<g>
			<path class="st7" d="M87.5,18.2c-0.4,0-0.7-0.2-1-0.5l-0.1-0.1c-0.1-0.1-0.1-0.2-0.2-0.3c-0.1-0.2-0.1-0.4-0.1-0.5
				c0-0.3,0.1-0.5,0.2-0.7c0.1-0.2,0.2-0.3,0.4-0.4c0.2-0.1,0.4-0.1,0.6-0.1c0.1,0,0.2,0,0.2,0l0.1,0c0.2,0,0.3,0.1,0.4,0.2
				c0,0,0,0,0,0c0.3,0.2,0.5,0.4,0.5,0.6c0.1,0.3,0.2,0.6,0.1,0.9c-0.1,0.3-0.3,0.5-0.4,0.6c-0.2,0.1-0.3,0.3-0.5,0.3
				c-0.1,0-0.1,0-0.2,0L87.5,18.2z"/>
			<path d="M87.3,16.1c0.1,0,0.2,0,0.3,0c-0.3,0.1,0,0,0.2,0.2c0.2,0.1,0.3,0.2,0.3,0.4c0.1,0.1,0.1,0.3,0.1,0.5
				c0,0.2-0.2,0.3-0.3,0.4c-0.1,0.1-0.2,0.2-0.3,0.2c0,0-0.1,0-0.1,0c-0.1,0-0.1,0-0.2,0c-0.2,0-0.4-0.1-0.5-0.3
				c-0.1-0.1-0.2-0.2-0.2-0.3c0-0.1,0-0.2,0-0.3c0-0.2,0-0.3,0.1-0.4c0.1-0.1,0.2-0.2,0.2-0.2C87.1,16.1,87.2,16.1,87.3,16.1
				 M87.3,15.1c-0.3,0-0.6,0.1-0.8,0.2c-0.2,0.1-0.4,0.3-0.5,0.5c-0.2,0.3-0.3,0.6-0.3,1c0,0.1,0,0.5,0.2,0.8
				c0.1,0.1,0.2,0.2,0.2,0.3l0.1,0.1c0.3,0.4,0.8,0.7,1.3,0.7c0.1,0,0.1,0,0.2,0c0.1,0,0.2,0,0.3,0c0.4-0.1,0.6-0.3,0.7-0.4
				c0.2-0.2,0.5-0.4,0.6-0.9c0.1-0.4,0-0.9-0.2-1.2c-0.1-0.2-0.3-0.5-0.7-0.8c-0.2-0.2-0.4-0.3-0.7-0.3l-0.1,0
				C87.5,15.1,87.4,15.1,87.3,15.1L87.3,15.1z"/>
		</g>
		<g>
			<path class="st7" d="M74.1,31c-0.1,0-0.3,0-0.5-0.1c-0.1-0.1-0.3-0.2-0.4-0.3c-0.1-0.2-0.1-0.4-0.1-0.6c0-0.3,0-0.5,0.1-0.7
				c0-0.1,0.1-0.2,0.2-0.3c0.2-0.3,0.6-0.4,0.8-0.4c0.1-0.1,0.2-0.1,0.4-0.1c0.1,0,0.3,0,0.6,0.3c0.2,0.2,0.5,0.4,0.4,0.9
				c0,0.5-0.4,0.9-0.5,1c-0.1,0.1-0.3,0.3-0.7,0.3L74.1,31z"/>
			<path d="M74.5,29c0.1,0,0.2,0.1,0.3,0.2c0.2,0.1,0.3,0.3,0.2,0.5c0,0.2-0.2,0.5-0.4,0.7c-0.1,0.1-0.2,0.2-0.4,0.2c0,0,0,0,0,0
				c0,0,0,0,0,0c-0.1,0-0.1,0-0.2,0c-0.1,0-0.2,0-0.3-0.1c-0.1,0-0.2-0.1-0.2-0.2c-0.1-0.1-0.1-0.2-0.1-0.3c0-0.2,0-0.3,0.1-0.4
				c0-0.1,0.1-0.1,0.1-0.2C73.9,29.1,74.3,29.1,74.5,29C74.4,29,74.5,29,74.5,29 M74.5,28c-0.2,0-0.4,0.1-0.6,0.2
				c-0.3,0.1-0.7,0.2-1,0.6c-0.1,0.1-0.2,0.3-0.2,0.4c-0.1,0.2-0.2,0.5-0.2,0.8c0,0.2,0,0.5,0.2,0.9c0.1,0.2,0.3,0.4,0.6,0.5
				c0.3,0.2,0.6,0.2,0.8,0.2l0.1,0l0.1,0c0.6,0,0.9-0.3,1.1-0.4c0.2-0.2,0.7-0.7,0.7-1.3c0-0.5-0.2-1-0.6-1.3
				C75.1,28.1,74.8,28,74.5,28L74.5,28z"/>
		</g>
		<g>
			<path class="st7" d="M89.1,31c-0.1,0-0.4,0-0.6-0.2c-0.3-0.2-0.6-0.6-0.6-1c0-0.2,0-0.3,0-0.4c0-0.1,0.1-0.4,0.2-0.5
				c0.2-0.2,0.5-0.3,0.7-0.4c0.1,0,0.2-0.1,0.2-0.1c0,0,0.1,0,0.1,0c0.1,0,0.3,0,0.4,0.1c0.2,0.1,0.4,0.2,0.5,0.6
				c0.1,0.3,0.1,0.5,0.1,0.7c0,0.4-0.2,0.6-0.3,0.7C89.8,30.8,89.6,31,89.1,31C89.2,31,89.1,31,89.1,31z"/>
			<path d="M89.2,29C89.2,29,89.2,29,89.2,29C89.1,29,89.1,29,89.2,29 M89.2,29C89.2,29,89.2,29,89.2,29C89.2,29,89.2,29,89.2,29
				C89.2,29,89.2,29,89.2,29 M89.2,29c0,0,0.1,0,0.2,0.1c0.1,0.1,0.3,0.2,0.3,0.3c0.1,0.2,0.1,0.3,0.1,0.5c0,0.2-0.1,0.3-0.2,0.4
				c-0.1,0.1-0.2,0.2-0.4,0.2c0,0-0.1,0-0.1,0c-0.1,0-0.2,0-0.3-0.1c-0.2-0.1-0.4-0.4-0.4-0.6c0-0.1,0-0.2,0-0.3
				c0-0.1,0.1-0.2,0.1-0.3C88.7,29.1,89,29,89.2,29 M89.2,28c-0.1,0-0.3,0-0.4,0.1c-0.3,0.1-0.6,0.2-0.9,0.5
				c-0.2,0.2-0.3,0.6-0.4,0.7c0,0.2,0,0.4,0,0.5c0,0.6,0.3,1.1,0.8,1.5c0.3,0.2,0.6,0.2,0.9,0.2l0.1,0c0.6,0,1-0.4,1.2-0.5
				c0.1-0.1,0.5-0.5,0.5-1.1c0-0.2,0-0.6-0.2-0.9c-0.2-0.5-0.5-0.7-0.7-0.8C89.7,28,89.5,28,89.3,28c0,0,0,0,0,0c0,0,0,0,0,0
				c0,0,0,0,0,0c0,0,0,0,0,0c0,0,0,0,0,0c0,0,0,0,0,0C89.2,28,89.2,28,89.2,28L89.2,28z M89.2,30L89.2,30L89.2,30L89.2,30z"/>
		</g>
		<g>
			<path class="st7" d="M81.1,20.6c-0.2,0-0.3,0-0.4-0.1c-0.4-0.1-0.7-0.4-0.8-0.8c-0.1-0.2,0-0.4,0-0.6c0-0.1,0-0.3,0.1-0.5
				c0.2-0.4,0.5-0.4,0.7-0.5c0,0,0.1,0,0.1,0c0.1,0,0.2,0,0.3,0.1c0.1,0,0.1,0,0.2,0c0.3,0.1,0.5,0.2,0.7,0.3
				c0.4,0.3,0.5,0.9,0.2,1.4c-0.1,0.2-0.4,0.5-0.6,0.6C81.3,20.6,81.2,20.6,81.1,20.6z"/>
			<path d="M80.8,18.6C80.6,18.7,80.7,18.7,80.8,18.6C80.8,18.7,80.8,18.7,80.8,18.6c0.1,0.1,0.1,0.1,0.1,0.1c0.1,0,0.1,0,0.2,0
				c0.2,0,0.4,0.1,0.5,0.2c0.2,0.2,0.2,0.5,0,0.8c-0.1,0.1-0.2,0.3-0.4,0.4c0,0-0.1,0-0.2,0c-0.1,0-0.2,0-0.3,0
				c-0.2-0.1-0.4-0.2-0.5-0.4c0-0.1,0-0.3,0-0.4c0-0.1,0-0.2,0.1-0.3C80.4,18.7,80.5,18.7,80.8,18.6 M80.8,17.6c-0.1,0-0.2,0-0.3,0
				l0,0c-0.2,0.1-0.7,0.2-1,0.8c-0.1,0.3-0.2,0.5-0.2,0.7c0,0.2,0,0.5,0,0.8c0.1,0.6,0.6,1,1.2,1.2c0.1,0,0.3,0.1,0.6,0.1
				c0.2,0,0.3,0,0.5-0.1c0.5-0.2,0.8-0.7,0.9-0.8c0.4-0.7,0.3-1.6-0.3-2c-0.3-0.3-0.7-0.4-0.9-0.4c0,0,0,0,0,0
				C81.1,17.7,80.9,17.6,80.8,17.6L80.8,17.6z M80.8,19.6L80.8,19.6L80.8,19.6L80.8,19.6z"/>
		</g>
		<g>
			<g>
				<g>
					<path class="st8" d="M74.6,40.5c-0.2,0-0.8,0-1.2-0.4c-0.3-0.3-0.3-0.7-0.3-1c0-0.2,0.1-0.4,0.2-0.6c0.2-0.3,0.4-0.4,0.8-0.5
						c0.1-0.1,0.2-0.1,0.5-0.1c0,0,0.1,0,0.1,0c0.4,0,0.7,0.3,0.9,0.5c0.2,0.3,0.2,0.5,0.2,0.8c0,0.1,0,0.2,0,0.2l0,0.1
						c0,0.2,0,0.4-0.1,0.6C75.4,40.5,74.9,40.5,74.6,40.5C74.7,40.5,74.6,40.5,74.6,40.5z"/>
					<path d="M74.5,38.4C74.6,38.4,74.6,38.4,74.5,38.4c0.3,0,0.5,0.1,0.6,0.3c0.1,0.1,0.1,0.3,0.1,0.4c0,0.1,0,0.2,0,0.3
						c0,0.1,0,0.2-0.1,0.3C75.1,40,74.9,40,74.7,40c0,0-0.1,0-0.1,0c-0.3,0-0.6-0.1-0.8-0.3c-0.2-0.2-0.2-0.4-0.2-0.6
						c0-0.1,0-0.3,0.1-0.4c0.1-0.2,0.3-0.3,0.5-0.3c0.1,0,0.3,0,0.4,0C74.2,38.4,74.4,38.4,74.5,38.4 M74.5,37.4
						c-0.3,0-0.5,0.1-0.6,0.1c-0.6,0.1-0.9,0.5-1,0.7c-0.1,0.2-0.2,0.5-0.2,0.8c0,0.2,0,0.8,0.5,1.3c0.5,0.6,1.3,0.6,1.5,0.6l0.1,0
						c0.8,0,1.2-0.4,1.4-0.8c0.2-0.3,0.2-0.6,0.2-0.7l0-0.1c0-0.1,0-0.2,0-0.3c0-0.3,0-0.7-0.4-1.1c-0.3-0.4-0.8-0.6-1.3-0.6
						L74.5,37.4L74.5,37.4z"/>
				</g>
				<g>
					<path class="st8" d="M72.7,27.4c-0.2,0-0.4,0-0.6-0.1c-0.2-0.1-0.4-0.2-0.6-0.5c0-0.1-0.1-0.1-0.2-0.2
						c-0.1-0.1-0.1-0.2-0.1-0.3c0-0.2,0-0.4,0.1-0.5c0.2-0.3,0.5-0.6,0.9-0.8c0.2-0.1,0.4-0.1,0.6-0.1c0.4,0,0.8,0.2,1.1,0.6
						c0.2,0.3,0.2,0.5,0.2,0.7c0,0.4-0.1,0.7-0.2,0.9c-0.2,0.3-0.5,0.4-0.8,0.4C72.8,27.4,72.8,27.4,72.7,27.4z"/>
					<path d="M72.7,25.3c0.2,0,0.5,0.1,0.6,0.4c0.1,0.1,0.1,0.3,0.1,0.4c0,0.2,0,0.4-0.1,0.6c-0.1,0.1-0.3,0.2-0.4,0.2
						c-0.1,0-0.1,0-0.2,0c-0.1,0-0.3,0-0.4-0.1c-0.2-0.1-0.3-0.2-0.4-0.4c0,0-0.1-0.1-0.1-0.2c0,0,0-0.1,0-0.1c0,0,0-0.1,0-0.1
						c0.2-0.3,0.4-0.5,0.7-0.6C72.5,25.3,72.6,25.3,72.7,25.3 M72.7,24.3c-0.3,0-0.5,0.1-0.8,0.2c-0.4,0.2-0.8,0.5-1,0.9
						c-0.2,0.2-0.2,0.6-0.1,0.8c0,0.1,0,0.3,0.1,0.4c0,0,0,0.1,0.1,0.1c0.1,0.1,0.1,0.2,0.2,0.3c0.2,0.3,0.5,0.5,0.7,0.6
						c0.3,0.1,0.5,0.2,0.9,0.2c0.1,0,0.2,0,0.3,0c0.2,0,0.8-0.1,1.2-0.6c0.2-0.3,0.3-0.7,0.4-1.2c0-0.4-0.1-0.7-0.3-1
						C73.9,24.6,73.3,24.3,72.7,24.3L72.7,24.3z"/>
				</g>
				<g>
					<path class="st8" d="M82.1,33.6c-0.1,0-0.2,0-0.3,0c-0.3-0.1-0.6-0.3-0.8-0.6c-0.1-0.3-0.1-0.6-0.1-0.8c0-0.2,0-0.3,0.1-0.5
						c0-0.1,0-0.1,0.1-0.1c0.1-0.2,0.3-0.3,0.5-0.4c0.1-0.1,0.2-0.1,0.3-0.1c0.1,0,0.2,0,0.2,0c0.3,0.1,0.6,0.1,0.9,0.3
						c0.2,0.1,0.4,0.3,0.4,0.7c0,0.2,0,0.4-0.1,0.7C83.1,33.3,82.6,33.6,82.1,33.6L82.1,33.6z"/>
					<path d="M81.9,31.5C81.9,31.5,81.9,31.5,81.9,31.5c0.3,0.1,0.6,0.1,0.8,0.3c0.1,0.1,0.2,0.1,0.2,0.3c0,0.2,0,0.4-0.1,0.5
						c-0.1,0.3-0.4,0.5-0.7,0.5c-0.1,0-0.1,0-0.2,0c-0.2,0-0.4-0.2-0.5-0.3c-0.1-0.2-0.1-0.4-0.1-0.6c0-0.1,0-0.2,0.1-0.4
						c0.1-0.2,0.3-0.3,0.5-0.3C81.9,31.5,81.8,31.5,81.9,31.5 M81.9,30.5c-0.2,0-0.4,0.1-0.6,0.2c-0.2,0.1-0.4,0.3-0.6,0.5
						c-0.1,0.1-0.1,0.2-0.1,0.3c-0.1,0.2-0.1,0.4-0.1,0.6c0,0.2,0,0.6,0.2,1c0.2,0.4,0.6,0.7,1.1,0.9c0.1,0,0.3,0.1,0.4,0.1
						c0.7,0,1.4-0.5,1.6-1.1c0.1-0.3,0.1-0.6,0.1-0.9c0-0.7-0.4-1-0.6-1.1c-0.3-0.2-0.7-0.3-1-0.4C82.1,30.6,82,30.5,81.9,30.5
						L81.9,30.5z"/>
				</g>
				<g>
					<path class="st8" d="M89.8,22c-0.1,0-0.2,0-0.3,0c-0.3-0.1-0.6-0.3-0.8-0.6c-0.1-0.3-0.1-0.6-0.1-0.8c0-0.2,0-0.3,0.1-0.5
						c0-0.1,0-0.1,0.1-0.1c0.1-0.2,0.3-0.3,0.5-0.4c0.1-0.1,0.2-0.1,0.3-0.1c0.1,0,0.2,0,0.2,0c0.3,0.1,0.6,0.1,0.9,0.3
						c0.2,0.1,0.4,0.3,0.4,0.7c0,0.2,0,0.4-0.1,0.7C90.8,21.6,90.3,22,89.8,22L89.8,22z"/>
					<path d="M89.5,19.9C89.6,19.9,89.6,19.9,89.5,19.9c0.3,0.1,0.6,0.1,0.8,0.3c0.1,0.1,0.2,0.1,0.2,0.3c0,0.2,0,0.4-0.1,0.5
						c-0.1,0.3-0.4,0.5-0.7,0.5c-0.1,0-0.1,0-0.2,0c-0.2,0-0.4-0.2-0.5-0.3c-0.1-0.2-0.1-0.4-0.1-0.6c0-0.1,0-0.2,0.1-0.4
						c0.1-0.2,0.3-0.3,0.5-0.3C89.5,19.9,89.5,19.9,89.5,19.9 M89.5,18.9c-0.2,0-0.4,0.1-0.6,0.2c-0.2,0.1-0.4,0.3-0.6,0.5
						c-0.1,0.1-0.1,0.2-0.1,0.3c-0.1,0.2-0.1,0.4-0.1,0.6c0,0.2,0,0.6,0.2,1c0.2,0.4,0.6,0.7,1.1,0.9c0.1,0,0.3,0.1,0.4,0.1
						c0.7,0,1.4-0.5,1.6-1.1c0.1-0.3,0.1-0.6,0.1-0.9c0-0.7-0.4-1-0.6-1.1c-0.3-0.2-0.7-0.3-1-0.4C89.8,18.9,89.7,18.9,89.5,18.9
						L89.5,18.9z"/>
				</g>
			</g>
		</g>
		<g>
			<path class="st7" d="M95.2,29.2c-0.4,0-0.7-0.2-0.8-0.4c-0.4-0.3-0.4-0.7-0.3-1.2c0.1-0.2,0.2-0.3,0.2-0.5l0.5,0.2L94.4,27
				c0.3-0.4,0.7-0.4,0.8-0.4l0.3,0c0.1,0,0.3,0.1,0.4,0.2c0,0,0.1,0,0.1,0c0.1,0.1,0.2,0.2,0.3,0.2c0.1,0.1,0.2,0.2,0.2,0.5
				c0,0.2,0,0.4,0,0.5l0,0.1c0,0.2,0,0.4-0.2,0.6C95.9,29.2,95.4,29.2,95.2,29.2C95.2,29.2,95.2,29.2,95.2,29.2z"/>
			<path d="M95.2,27.1c0.1,0,0.2,0,0.3,0c0,0,0,0,0,0c0.1,0.1,0.1,0.1,0.2,0.1c0,0,0.1,0.1,0.1,0.1c0.1,0.1,0.1,0.2,0.1,0.3
				c0,0.1,0,0.2,0,0.4c0,0.2,0,0.3-0.1,0.5c-0.2,0.2-0.4,0.2-0.6,0.2c0,0,0,0,0,0c-0.2,0-0.4-0.2-0.5-0.3c-0.2-0.2-0.2-0.4-0.1-0.6
				c0-0.1,0.1-0.3,0.2-0.4c0,0,0.1-0.1,0.1-0.1C94.9,27.1,95.1,27.1,95.2,27.1 M95.2,26.1c-0.7,0-1.1,0.3-1.3,0.6l0,0.1
				c-0.1,0.2-0.2,0.4-0.3,0.6c-0.3,0.7-0.1,1.4,0.4,1.8c0.2,0.2,0.6,0.5,1.2,0.5c0,0,0.1,0,0.1,0c0.6,0,1-0.2,1.4-0.6
				c0.3-0.4,0.3-0.8,0.3-0.9l0-0.1c0-0.2,0-0.4,0-0.7c-0.1-0.3-0.2-0.5-0.3-0.7c-0.1-0.1-0.2-0.3-0.4-0.4c0,0,0,0,0,0
				c-0.2-0.1-0.4-0.2-0.6-0.2c0,0,0,0,0,0l-0.1,0C95.4,26.1,95.3,26.1,95.2,26.1L95.2,26.1z"/>
		</g>
	</g>
</g>
</svg>
