<?xml version="1.0" encoding="utf-8"?>
<!-- Generator: Adobe Illustrator 27.2.0, SVG Export Plug-In . SVG Version: 6.00 Build 0)  -->
<svg version="1.1" id="Layer_1" xmlns="http://www.w3.org/2000/svg" xmlns:xlink="http://www.w3.org/1999/xlink" x="0px" y="0px"
	 viewBox="0 0 130 80" style="enable-background:new 0 0 130 80;" xml:space="preserve">
<style type="text/css">
	.st0{fill:#70CEFF;stroke:#000000;stroke-linecap:round;stroke-linejoin:round;stroke-miterlimit:10;}
	.st1{fill:#F0EEEF;stroke:#000000;stroke-linecap:round;stroke-linejoin:round;stroke-miterlimit:10;}
	.st2{fill:#ACE3FF;stroke:#000000;stroke-linecap:round;stroke-linejoin:round;stroke-miterlimit:10;}
	.st3{fill:#C8ECFD;stroke:#000000;stroke-linecap:round;stroke-linejoin:round;stroke-miterlimit:10;}
	.st4{fill:none;stroke:#000000;stroke-linecap:round;stroke-linejoin:round;stroke-miterlimit:10;}
	.st5{fill:none;}
	.st6{fill:#FFE096;stroke:#000000;stroke-linecap:round;stroke-linejoin:round;stroke-miterlimit:10;}
	.st7{fill:#FF87EB;stroke:#000000;stroke-linecap:round;stroke-linejoin:round;stroke-miterlimit:10;}
	.st8{fill:#FFFFFF;stroke:#000000;stroke-linecap:round;stroke-linejoin:round;stroke-miterlimit:10;}
	.st9{fill:#BCBABA;stroke:#000000;stroke-linecap:round;stroke-linejoin:round;stroke-miterlimit:10;}
	.st10{fill:#FFEEBF;stroke:#000000;stroke-linecap:round;stroke-linejoin:round;stroke-miterlimit:10;}
</style>
<g>
	<g>
		<path class="st0" d="M70.8,15c-0.4,0-0.7,0-1.1,0c-0.1,0-0.2,0-0.1,0c-1.3-0.1-2.5-0.1-3.8-0.1c-0.6,0-1.2,0-1.8,0
			c-0.9,0-1.8-0.1-2.7,0c-1,0.1-2,0.2-2.9,0.3c-1.4,0.1-2.9,0-4.3,0.1c-1.2,0.1-2.3,0.1-3.5,0c-0.9,0-1.9,0-2.8-0.2
			c-0.5-0.1-1,0-1.5-0.1c-1.8-0.2-3.6-0.2-5.4-0.2c-2.1,0-4.2-0.1-6.3-0.2c-2.1,0-4.1-0.1-6.2-0.1c-1.3,0-2.6,0-3.9,0.1
			c-0.6,0-1.1,0-1.7,0c-0.7,0-1.4,0.2-2.2,0.2c-1.2,0.1-2.5,0.3-3.7,0.3c-0.9,0-1.7,0-2.5,0.3c-0.6,0.3-1.1,0.7-1.3,1.3
			c-0.3,0.7-0.5,1.4-0.6,2.2c-0.3,2.1-0.1,4.1,0,6.2c0.1,1,0.1,2.1,0.2,3.1c0.1,1.1,0,2.2,0.1,3.3c0,0.6,0,1.2,0,1.9
			c0,0.8,0.1,1.6,0.1,2.4c-0.1,1.6-0.1,3.2-0.2,4.8c0,0.6-0.1,1.3-0.1,1.9c0,0.6,0,1.2,0.1,1.8c0,0.9,0.2,1.8,0.2,2.7
			c0,0.9,0.2,1.7,0.2,2.6c0,0.4,0.1,0.8,0.2,1.3c0.1,0.4,0.1,0.8,0.1,1.2c0.1,0.6,0.2,1.3,0.6,1.9c0.5,0.7,1.4,0.8,2.2,1.1
			c0.5,0.2,1.2,0.3,1.7,0.4c0.8,0.1,1.5,0,2.2,0c1.4,0,2.8-0.2,4.2-0.3c1.1-0.1,2.3-0.3,3.4-0.3c0.4,0,0.8-0.1,1.3-0.1
			c0.6,0,1.2,0,1.9,0c0.5,0,0.9,0,1.4,0c0.5,0,0.9,0,1.4,0c1.2,0.1,2.5,0.2,3.7,0.3c4.6,0.3,9.3,0.1,14,0.3c2.1,0.1,4.2,0,6.4,0.1
			c0.4,0,0.9,0,1.3,0c0.4,0,0.9,0.1,1.3,0.1c2.1,0.1,4.1,0.1,6.2,0c0.9,0,1.8,0,2.6,0.1c0.5,0,1.1,0,1.6-0.3
			c0.3-0.2,0.6-0.3,0.9-0.6c0.4-0.3,0.6-0.8,0.7-1.3c0.3-0.9,0.3-1.9,0.3-2.8c0-0.9,0.1-1.9,0.1-2.8c0-0.6,0.1-1.2,0.2-1.8
			c0-0.7,0-1.5,0-2.2c0-1.1-0.4-2.1-0.5-3.2c-0.1-1.1-0.1-2.3-0.1-3.4c0-0.8,0-1.7,0-2.5c0-0.9,0-1.9,0-2.8c0-1.1,0-2.2-0.1-3.4
			c-0.1-1.1,0-2.2,0.1-3.4c0.1-0.8,0.2-1.5,0.2-2.2c0-0.8-0.1-1.7-0.1-2.5c0-0.9,0-1.8-0.1-2.7c0-0.6-0.1-1.2-0.4-1.8
			c-0.1-0.3-0.3-0.3-0.6-0.4C71.1,15.4,70.9,15.2,70.8,15z"/>
		<path class="st0" d="M13.5,56.1c-0.7,1-1.4,2-1.9,3.1c-0.3,0.6-0.6,1.2-1,1.7c-0.9,1.5-2.1,2.9-3.2,4.3c-0.5,0.7-1.1,1.4-1.6,2
			c-0.5,0.6-0.9,1.4-1.3,2c-0.4,0.6-0.8,1.2-1.3,1.9c-0.3,0.4-0.5,0.7-0.6,1.1c-0.2,0.6-0.1,1.3,0.1,1.8c0.3,0.7,0.9,0.9,1.6,1.1
			c0.4,0.1,0.9,0.2,1.3,0.2c0.7,0.1,1.5,0.2,2.2,0.2c0.8,0,1.6,0.1,2.4,0c0.5,0,1.1,0,1.6,0c0.6,0,1.1-0.1,1.7-0.1
			c2,0,4-0.1,5.9-0.2c1.2,0,2.3-0.1,3.5-0.1c1.5,0,3.1,0,4.6,0c1.1,0,2.2-0.1,3.3,0c1.4,0.1,2.8,0.1,4.3,0c1.8-0.1,3.5-0.2,5.3-0.3
			c1.8-0.1,3.6,0,5.4,0.1c4.9,0.2,9.8,0.3,14.7,0.4c1.1,0,2.1,0,3.2,0.1c1,0.1,2,0.2,3,0.2c0.9,0,1.7,0,2.6,0c1.1,0,2.2,0,3.2,0.1
			c1.7,0,3.3,0,5,0c1.7-0.1,3.4,0,5.1-0.4c0.8-0.2,1.4-0.5,2-1.1c0.4-0.5,0.9-1.3,0.7-1.9c-0.1-0.4-0.4-0.7-0.7-1
			c-0.3-0.3-0.6-0.7-0.8-1c-0.4-0.4-0.7-0.9-1.1-1.3c-0.4-0.4-0.8-0.8-1.1-1.3c-0.6-0.9-1.4-1.6-2-2.5c-0.4-0.5-0.8-0.9-1.1-1.4
			c-0.5-0.6-0.8-1.3-1.2-1.9c-0.7-1-1.5-1.9-2.3-2.8c-0.6-0.6-1.1-1.2-1.8-1.7c-0.5-0.4-0.9-0.8-1.5-1c-0.8-0.3-1.7-0.6-2.5-0.7
			c-1-0.1-2-0.2-3-0.1c-1.5,0.1-3,0.2-4.6,0.2c-0.9,0-1.8,0-2.7-0.1c-0.8,0-1.5-0.2-2.3-0.2c-1.9-0.1-3.9,0.1-5.8,0
			c-2.2,0-4.3-0.3-6.5-0.4c-2.2-0.1-4.5-0.2-6.8-0.1c-0.8,0-1.6,0-2.4,0.1C34.1,55,33.1,55,32.2,55c-1.7,0-3.3-0.1-5-0.2
			c-0.8,0-1.6,0-2.5,0c-0.8,0-1.6,0.1-2.5,0.3c-1.2,0.2-2.5,0.3-3.7,0.3c-0.8,0-1.5,0.1-2.3,0c-0.6,0-1.1-0.1-1.7,0
			c-0.2,0-0.5,0.1-0.7,0.2C13.3,55.8,13.1,56.5,13.5,56.1z"/>
		<path class="st1" d="M67.5,17.6c-1.6,0.1-3,0.2-4.6,0.1c-0.8,0-1.5-0.1-2.3-0.1c-2.5-0.1-4.9,0.1-7.4,0c-1.2-0.1-2.4-0.1-3.5-0.1
			c-1,0-2,0.1-2.9,0.1c-1.4,0-2.8,0-4.2,0c-1.3,0-2.5-0.1-3.8-0.1c-2.2,0-4.4,0.1-6.5,0.1c-1.4,0-2.7,0-4-0.1
			c-1.4-0.1-2.7,0.1-4,0.2c-1.6,0.1-3.1,0.1-4.7,0.1c-0.9,0-2.1-0.1-2.9,0.3c-0.6,0.3-1,1-1.1,1.5c-0.1,0.4-0.1,0.7-0.1,1.1
			c0,0.5-0.1,1.1,0,1.6c0.1,0.6,0.1,1.3,0.1,1.9c0,0.7,0,1.4,0,2.1c0.1,1.5,0,3,0.1,4.5c0.1,1.5,0.1,3.1,0.1,4.6c0,0.9,0,1.8,0,2.7
			c0,0.7,0,1.4,0,2.1c0,1.7-0.4,3.4-0.3,5c0.1,1.2,0.4,2.3,0.4,3.5c0,0.8,0,2.1,0.5,2.8c0.5,0.7,1.1,1.2,2,1.3
			c0.5,0.1,1,0.2,1.5,0.1c1,0,2.1-0.1,3.1-0.2c1-0.1,2-0.1,3-0.2c0.7,0,1.4,0,2.2,0c1,0,2,0,3,0c1.3,0,2.6,0.2,3.9,0.2
			c0.5,0,1.1-0.1,1.6-0.1c0.3,0,0.6,0,1,0c1,0,2,0,3-0.1c1,0,2-0.1,3,0c1.2,0.1,2.3,0.1,3.5,0.2c1.9,0.1,3.7-0.1,5.6,0
			c2.3,0.2,4.6,0.2,6.9,0.1c0.9,0,1.7-0.1,2.6-0.1c0.5,0,1,0.1,1.5,0.1c1.2,0,2.4,0.1,3.7,0c0.7,0,1.1-0.3,1.6-0.7
			c0.4-0.4,0.7-0.9,0.8-1.4c0.2-0.7,0.4-1.4,0.4-2.1c0-0.4,0-0.7,0-1.1C70,47.2,70,46.7,70,46.2c-0.1-1.9-0.3-3.8-0.1-5.6
			c0.1-0.8,0.1-1.6,0.1-2.4c0-0.4,0-0.8,0-1.2c0-0.3-0.1-0.6-0.1-0.9c-0.1-1.1-0.3-2.3-0.3-3.4c0-0.9,0-1.8,0-2.6
			c0-0.4-0.1-0.8-0.1-1.3c-0.1-0.6-0.1-1.3-0.1-1.9c0-0.9,0-1.8,0-2.8c0-1,0-2.1,0.1-3.1c0-0.5,0-1,0-1.6c0-0.3,0.1-0.7-0.1-1
			c-0.1-0.3-0.3-0.5-0.6-0.6c-0.1,0-0.2-0.1-0.3-0.1C67.7,17.5,67.4,17.6,67.5,17.6z"/>
		<path class="st2" d="M51.4,66.6c-0.1,0-0.1,0-0.2,0c-1.3-0.3-3.2,0-4.5,0c-3,0-5.9-0.1-8.9-0.2c-0.4,0-0.8,0-1.2-0.1
			c-0.4,0-0.8,0-1.2,0c-0.6,0-1.2-0.1-1.8-0.1c-0.5,0-1,0-1.4,0c-0.2,0-0.3,0-0.5,0.2c-0.3,0.2-0.5,0.6-0.8,0.8
			c-0.3,0.3-0.6,0.7-0.8,1.1c-0.3,0.4-0.6,0.7-0.8,1.1c-0.2,0.3-0.3,0.4,0.1,0.7c0.5,0.3,1.3,0.3,1.9,0.4c1.6,0.2,3.3,0.2,4.9,0.1
			c1.6,0,3.2,0,4.8,0c0.7,0,1.4,0,2.2,0.1c0.9,0,1.7,0,2.6,0c2.4,0.1,4.8,0.2,7.2,0.2c0.8,0,1.5,0,2.3-0.1c0.3-0.1,0.7-0.1,0.9-0.3
			c0.2-0.1,0.3-0.3,0.4-0.5c0.1-0.2,0.1-0.3-0.1-0.5c-0.3-0.2-0.6-0.4-0.9-0.6c-0.6-0.4-1.1-0.8-1.8-1.2
			C53.1,67.4,52.2,66.9,51.4,66.6z"/>
		<g>
			<path class="st3" d="M68.9,57.7c-1.4,0-2.8-0.1-4.3-0.2c-0.7,0-1.4-0.1-2.1-0.1c-1,0-2,0-3.1,0c-1.4,0-2.7,0-4.1,0
				c-0.9,0-1.7,0-2.6-0.1c-0.8-0.1-1.5-0.2-2.3-0.2c-2.4-0.1-4.8,0.3-7.2,0.2c-1,0-2-0.2-3-0.3c-1.8-0.1-3.7,0.1-5.5,0.1
				c-1.2-0.1-2.5-0.3-3.7-0.4c-1.3-0.2-2.7-0.2-4-0.2c-0.4,0-0.9,0-1.3,0c-0.4,0-0.8-0.1-1.2,0c-0.7,0.1-1.5,0.1-2.2,0.2
				c-0.6,0-1.3,0-1.9,0.1c-0.3,0.1-0.6,0-1,0.1c-0.3,0.1-0.6,0.1-0.9,0.1c-0.4,0-0.9,0-1.3,0c-0.3,0-0.6,0.1-0.9,0.1
				c-0.8,0.1-1.1,0.7-1.4,1.4c-1,2-2.4,3.7-3.4,5.6c-0.1,0.2-0.3,0.5-0.2,0.8c0.1,0.3,0.5,0.4,0.7,0.4c0.5,0.1,0.9,0.1,1.4,0.2
				c0.9,0.1,2,0.1,2.9,0c1.9-0.1,3.8,0,5.8,0.1c2.6,0.1,5.1-0.2,7.7-0.4c1.2-0.1,2.4-0.1,3.7-0.2c1.1-0.1,2.1-0.2,3.2-0.1
				c1.8,0,3.5,0.3,5.3,0.3c1.9,0,3.8,0,5.8,0c2.5,0.1,5,0.3,7.5,0.4c2.8,0.1,5.6-0.1,8.4-0.1c1.7,0,3.4,0,5,0.2c0.5,0.1,0.9,0,1.4,0
				c0.7,0,1.4,0.2,2.1,0.2c0.8,0,1.6,0.1,2.3-0.1c0.4-0.1,1-0.6,0.8-1.2c-0.1-0.2-0.4-0.4-0.6-0.6c-0.5-0.4-0.8-0.9-1.2-1.5
				c-0.6-0.9-1.3-1.6-2-2.5c-0.3-0.4-0.6-0.8-1-1.1c-0.2-0.2-0.4-0.5-0.7-0.7c-0.2-0.1-0.4-0.2-0.7-0.2c-0.1,0-0.2-0.1-0.3-0.1
				C68.8,57.8,68.7,57.8,68.9,57.7z"/>
			<path class="st4" d="M15.1,59.2c0.5-0.1,1-0.2,1.5-0.2c0.4,0,0.8,0,1.3,0.1c1,0.1,1.9-0.1,2.8-0.2c0.7-0.1,1.4-0.1,2.1-0.1
				c0.7,0,1.4-0.2,2-0.1c0.6,0.1,1.1,0.3,1.7,0.3c0.7,0.1,1.2,0.2,1.9,0.4c0.7,0.2,1.3,0.3,2,0.2c0.4,0,0.8,0,1.2,0
				c1.1,0,2.2-0.2,3.3,0.1c0.8,0.2,1.7,0,2.5,0c0.9-0.1,1.8-0.1,2.7-0.2c1.7-0.2,3.3-0.2,5-0.3c0.8,0,1.7,0,2.5,0.1
				c0.7,0.1,1.3,0.2,2,0.2c0.7,0,1.3-0.1,2-0.1c0.7,0,1.4,0.1,2,0.1c0.7,0,1.4,0.1,2.2,0.1c0.9,0,1.9,0,2.9-0.1
				c0.7,0,1.4-0.2,2.1-0.1c0.3,0,0.6,0.1,0.8,0.1c1.1,0,2.1,0,3.2,0.2c1.1,0.1,2.2,0.3,3.3,0.2c0.6,0,1.1-0.1,1.6-0.3
				c0.4-0.1,1-0.2,1.4-0.1"/>
			<path class="st4" d="M12.7,62.5c1.3-0.2,2.6-0.5,3.9-0.6c0.9,0,1.7-0.2,2.6-0.3c0.8-0.1,1.6-0.3,2.4-0.2c0.8,0,1.6,0.2,2.5,0.3
				c1.4,0.1,2.7,0.3,4.1,0.3c1.6,0,3.1,0,4.7,0.1c1.5,0.1,3.1,0.2,4.6,0.3c0.5,0,1,0,1.5,0c0.6,0,1.3,0.1,1.9,0
				c0.6,0,1.1-0.1,1.7-0.2c0.8,0,1.6,0,2.4,0.1c2.4,0,4.7,0,7.1,0c1.4,0,2.8-0.2,4.1,0c0.9,0.1,1.8,0.2,2.7,0.2c1.3,0,2.6,0,3.9-0.1
				c1.1,0,2.2,0.1,3.4,0.2c2.4,0.2,4.7-0.2,7.1-0.1"/>
			<path class="st4" d="M60.8,57.6c0.4,0.7,0.7,1.3,1.1,2c0.1,0.4,0.3,0.8,0.6,1.1c0.2,0.2,0.4,0.4,0.5,0.7c0.2,0.4,0.4,0.9,0.6,1.3
				c0.2,0.3,0.4,0.6,0.6,1c0.3,0.5,0.9,1.1,1,1.7"/>
			<path class="st4" d="M68.5,62.9c0.4,0.8,0.7,1.7,1.2,2.4"/>
			<path class="st4" d="M65.6,57.6c0.3,0.7,0.8,1.5,1.4,2.1"/>
			<path class="st4" d="M24,56.5c-0.5,1.3-0.7,2.3-1.4,3.6c-0.2,0.5-0.5,0.9-0.7,1.4c-0.4,0.7-0.7,1.5-1.1,2.3
				c-0.2,0.3-0.4,0.5-0.6,0.8c-0.1,0.3-0.1,0.6-0.3,0.8"/>
			<path class="st4" d="M17.3,62.1c-0.5,1.1-0.7,1.5-1.3,2.6c-0.1,0.3-0.2,0.5-0.4,0.8"/>
			<path class="st4" d="M19.8,56.7c-0.4,0.8-0.9,1.6-1.2,2.5C18.5,59.3,18.5,59.4,19.8,56.7z"/>
			<path class="st4" d="M29.6,56.7c-1,2.3-2,4.7-2.8,7.1c-0.1,0.2-0.6,1.4-0.4,1.6"/>
			<path class="st4" d="M56.9,57.5c0.1,1,0.1,2.1,0.5,3c0.2,0.6,0.5,1.1,0.8,1.7c0.4,0.8,0.4,1.8,0.9,2.6"/>
			<path class="st4" d="M34.6,57.1c-0.2,0.8-0.4,1.5-0.5,2.3c-0.1,0.4-0.2,0.8-0.2,1.2c0,0.2,0,0.4-0.1,0.7c0,0.3-0.2,0.4-0.3,0.7"
				/>
			<path class="st4" d="M39.6,57.2c-0.2,1.1-0.3,2.1-0.5,3.2c0,0.3-0.1,0.5-0.1,0.8c0,0.2,0,0.6,0.1,0.8"/>
			<path class="st4" d="M43.7,57.4c0.1,1.3,0.3,2.4,0.3,3.7c0,0.1,0,0.2,0.1,0.3c0.1,0.3,0.1,0.5,0.1,0.8"/>
			<path class="st4" d="M48.1,57.3c0.1,1.3,0.3,2.4,0.7,3.6c0.1,0.2,0.2,0.7,0.4,0.8"/>
			<path class="st4" d="M52.5,57.3c0.3,1.1,0.6,2.1,0.8,3.3c0.1,0.3,0.1,0.6,0.3,0.9c0.1,0.2,0.2,0.4,0.3,0.6"/>
		</g>
		<path class="st4" d="M5.1,72.3c1.6,0.1,3.2,0.1,4.7,0.1c0.9,0,1.7,0.1,2.5,0.1c1.6,0,3.2,0.1,4.8,0.2c1,0,2,0.1,3,0.1
			c1.2,0,2.5-0.2,3.7-0.1c1.2,0,2.4,0,3.6,0c1.5-0.1,3-0.1,4.5-0.2c1.2-0.1,2.5-0.3,3.7-0.2c0.7,0,1.3,0,2,0c3.5-0.1,7,0.3,10.6,0.4
			c1.2,0,2.5,0.1,3.7,0.1c1.1,0,2.2-0.1,3.2-0.2c1.4-0.1,2.8-0.1,4.2-0.1c2.2,0,4.4,0.1,6.5,0.1c1.9,0,3.7,0.2,5.6,0.1
			c1.7,0,3.4-0.1,5.1-0.1c0.9,0,1.8,0,2.7-0.1c0.5-0.1,1,0,1.5-0.3c0.2-0.1,0.3-0.2,0.4-0.3c0.1-0.2,0.2-0.4,0.3-0.5"/>
		<path class="st5" d="M39.7,34.9c0.2,0.4,0.4,0.9,0.6,1.3c0,0,0,0,0,0.1c0-0.1,0-0.2,0-0.2c0.1-0.6,0.2-1.2,0.1-1.7
			c-0.1-0.4-0.2-0.9-0.5-1.2c-0.2-0.2-0.4-0.3-0.6-0.5c-0.3-0.2-0.6-0.4-0.9-0.6c-0.1,0-0.2-0.1-0.2-0.1c0.2,0.3,0.3,0.6,0.5,0.9
			C38.9,33.5,39.3,34.2,39.7,34.9z"/>
		<path class="st5" d="M44,30.7c0.4,0.4,0.7,0.7,1.1,1.2c0,0.2,0.3,0.5,0.4,0.9c0,0.1,0,0.1,0,0.2c0,0,0-0.1,0.1-0.1
			c0.2-0.3,0.5-0.6,0.7-1c0.2-0.3,0.3-0.7,0.5-0.9c0.2-0.2,0.4-0.4,0.4-0.7c0-0.3-0.1-0.4-0.4-0.5c-0.3-0.1-0.6-0.1-0.9,0
			c-0.8,0-1.5,0-2.3,0c-0.2,0-0.3,0-0.4,0c0.2,0.2,0.4,0.3,0.5,0.5C43.8,30.5,43.9,30.6,44,30.7z"/>
		<path class="st2" d="M43.3,43.7c-0.2,0-0.5-0.1-0.7-0.2c-0.4-0.2-0.9-0.4-1.3-0.6c-0.4-0.2-0.7-0.4-0.9-0.8
			c-0.1-0.4-0.2-0.8-0.3-1.1c-0.2-1.1-0.2-2.1,0-3.2c0.1-0.5,0.1-1,0.2-1.6c0,0,0,0,0-0.1c-0.2-0.4-0.4-0.9-0.6-1.3
			c-0.4-0.7-0.7-1.4-1.1-2.1c-0.1-0.3-0.3-0.6-0.5-0.9c-0.4-0.2-0.7-0.5-1-0.7c-0.3-0.2-0.5-0.4-0.8-0.6c-0.4-0.2-0.8-0.4-1.1-0.7
			c-0.4-0.3-0.9-0.7-1.2-1.1c-0.5-0.7,0-1.8,0.3-2.4c0.1-0.2,0.2-0.3,0.3-0.5c0,0,0,0-0.1-0.1c-0.5-0.5-1.3-0.5-1.9-0.3
			c-0.8,0.3-1.8,0.6-2,1.6c-0.1,0.6,0.2,1.1,0.4,1.6c0.3,0.7,0.6,1.4,1,2.1c0.3,0.7,0.7,1.3,1,1.9c0.5,0.9,0.9,1.9,1.3,2.9
			c0.4,0.9,0.7,1.8,1.1,2.7c0.4,0.9,0.8,1.9,1.3,2.8c0.4,0.8,0.9,1.6,1.3,2.4c0.3,0.4,0.5,0.9,0.7,1.3c0.1,0.2,0.2,0.4,0.4,0.6
			c0.5,0.5,1.1,1.1,1.9,1.1c0.2,0,0.5-0.1,0.7-0.1c0.3-0.1,0.6-0.1,0.9-0.2c0.2-0.1,0.4-0.3,0.6-0.5c0.4-0.4,0.5-0.9,0.5-1.2
			c0-0.3,0-0.6-0.1-0.9c0,0,0,0-0.1,0C43.6,43.6,43.4,43.7,43.3,43.7z"/>
		<path class="st2" d="M53.6,27.8c-0.2-0.3-0.5-0.7-0.7-1c-0.2-0.1-0.3-0.3-0.5-0.4c-0.2-0.1-0.5-0.1-0.8-0.1c-0.6,0-1.2,0-1.8,0
			c-1.4-0.2-2.8-0.4-4.1-0.5c-1.3,0-2.6,0-4,0c-0.9,0-1.7,0-2.5,0.5c0,0,0,0,0,0c0.2,0.1,0.3,0.3,0.5,0.4c0.9,0.7,1.7,1.4,2.4,2.1
			c0.3,0.3,0.6,0.7,0.9,1c0,0,0,0,0,0c0.1,0,0.3,0,0.4,0c0.8,0,1.5,0,2.3,0c0.3,0,0.6,0,0.9,0c0.3,0.1,0.4,0.2,0.4,0.5
			c0,0.3-0.2,0.5-0.4,0.7c-0.2,0.3-0.3,0.6-0.5,0.9c-0.2,0.4-0.5,0.6-0.7,1c0,0,0,0.1-0.1,0.1c0,0.2,0,0.3,0,0.5
			c0,0.3-0.1,0.7-0.1,1c0,0.4,0,0.7,0,1.1c-0.1,0.7,0,1.5,0,2.2c0,0.5,0,1,0,1.6c0,0,0,0,0,0c0.4-0.1,0.7-0.2,1-0.5
			c0.5-0.4,0.8-1,1.2-1.5c0.4-0.6,0.8-1.1,1.2-1.6c0.8-1,1.5-2.2,2.2-3.3c0.3-0.5,0.6-0.9,0.9-1.4c0.3-0.5,0.6-0.8,0.9-1.3
			c0.2-0.3,0.4-0.7,0.6-1.1c0-0.1,0.1-0.2,0.1-0.4C53.7,28.1,53.6,27.9,53.6,27.8z"/>
		<path class="st6" d="M44.5,39.4c-0.8-0.3-1.2-1-1.3-1.8c0-0.4-0.1-0.9,0-1.2c0.1-0.4,0.2-0.6,0.4-0.9c0.2-0.3,0.5-0.6,0.8-0.9
			c0.3-0.3,0.5-0.6,0.7-0.9c0.1-0.2,0.3-0.4,0.4-0.6c0-0.1,0-0.1,0-0.2c-0.1-0.4-0.4-0.7-0.4-0.9c-0.4-0.5-0.6-0.8-1.1-1.2
			c-0.1-0.1-0.3-0.3-0.4-0.4c-0.2-0.2-0.4-0.3-0.5-0.5c-0.4,0-0.9,0.1-1.3,0c-0.8-0.1-1.6-0.1-2.3-0.5c-0.4-0.2-0.8-0.4-1-0.8
			c-0.1-0.3-0.2-0.7-0.2-1c0-0.6,0.5-1,0.9-1.3c-0.4-0.4-0.9-0.7-1.3-1c-0.3-0.2-0.5-0.3-0.8-0.3c-0.4,0-0.9,0-1.3,0.1
			c-0.5,0.1-0.8,0.4-1.1,0.8c0,0,0,0.1-0.1,0.1c0.3,0.4,0.5,0.8,0.8,1.2c0.3,0.5,0.6,0.9,0.9,1.4c0.3,0.5,0.6,0.9,0.8,1.4
			c0.1,0.2,0.1,0.4,0.2,0.5c0.2,0.4,0.4,0.8,0.6,1.1c0.1,0.1,0.1,0.2,0.2,0.4c0.1,0,0.2,0.1,0.2,0.1c0.3,0.2,0.6,0.4,0.9,0.6
			c0.2,0.2,0.4,0.3,0.6,0.5c0.3,0.3,0.4,0.8,0.5,1.2c0.1,0.6,0,1.2-0.1,1.7c0,0.1,0,0.2,0,0.2c0.2,0.4,0.4,0.9,0.7,1.3
			c0.3,0.6,0.6,1.1,0.8,1.7c0.3,0.7,0.7,1.5,1.1,2.2c0.2,0.3,0.4,0.5,0.5,0.8c0.2,0.4,0.3,0.9,0.3,1.4c0.8-0.2,1.3-0.9,1.4-1.8
			c0.1-0.8,0.2-1.6,0.2-2.4C45.1,39.5,44.8,39.5,44.5,39.4z"/>
		<path class="st7" d="M34,28.7c0.3,0.4,0.8,0.8,1.2,1.1c0.4,0.3,0.8,0.5,1.1,0.7c0.3,0.2,0.5,0.4,0.8,0.6c0.3,0.3,0.6,0.5,1,0.7
			c-0.1-0.1-0.1-0.2-0.2-0.4c-0.2-0.4-0.4-0.7-0.6-1.1c-0.1-0.2-0.2-0.3-0.2-0.5c-0.2-0.5-0.5-1-0.8-1.4c-0.3-0.5-0.6-0.9-0.9-1.4
			c-0.3-0.4-0.5-0.9-0.8-1.2c-0.1,0.2-0.2,0.3-0.3,0.5C34.1,27,33.5,28,34,28.7z"/>
		<path class="st7" d="M42.9,41.4c-0.4-0.7-0.8-1.4-1.1-2.2c-0.3-0.6-0.5-1.2-0.8-1.7c-0.2-0.4-0.4-0.9-0.7-1.3c0,0.5-0.1,1-0.2,1.6
			c-0.2,1.1-0.3,2.1,0,3.2c0.1,0.4,0.2,0.8,0.3,1.1c0.2,0.4,0.5,0.6,0.9,0.8c0.4,0.2,0.9,0.4,1.3,0.6c0.2,0.1,0.5,0.2,0.7,0.2
			c0.1,0,0.3-0.1,0.4-0.1c0,0,0,0,0.1,0c0-0.5-0.1-1-0.3-1.4C43.2,41.9,43,41.6,42.9,41.4z"/>
		<path class="st7" d="M38.3,27.6c0,0.3,0,0.7,0.2,1c0.2,0.4,0.6,0.6,1,0.8c0.7,0.4,1.5,0.4,2.3,0.5c0.4,0,0.9,0,1.3,0c0,0,0,0,0,0
			c-0.3-0.3-0.6-0.7-0.9-1c-0.7-0.8-1.6-1.5-2.4-2.1c-0.2-0.1-0.3-0.3-0.5-0.4C38.8,26.6,38.4,27,38.3,27.6z"/>
		<path class="st7" d="M45.4,35.6c0-0.4,0-0.7,0-1.1c0-0.3,0.1-0.7,0.1-1c0-0.2,0-0.3,0-0.5c-0.1,0.2-0.3,0.4-0.4,0.6
			c-0.2,0.3-0.4,0.6-0.7,0.9c-0.3,0.3-0.6,0.6-0.8,0.9c-0.2,0.3-0.4,0.6-0.4,0.9c-0.1,0.4-0.1,0.8,0,1.2c0.1,0.8,0.6,1.5,1.3,1.8
			c0.3,0.1,0.6,0.1,0.9,0.1c0-0.5,0-1,0-1.6C45.4,37.1,45.3,36.4,45.4,35.6z"/>
	</g>
	<g>
		<path class="st8" d="M99.6,4.5c0,0-4-1-5,2.9c-0.7,0-1.2-0.3-1.8-0.5c-0.5-0.1-1-0.1-1.5-0.2c-0.5-0.1-1-0.2-1.5-0.2
			c-0.9,0.1-2,1-2.1,1.9c-0.7,0-1.4-0.3-2-0.4c-0.8-0.2-1.6-0.4-2.4-0.5c-1.4-0.2-3-0.6-4.4,0c-0.4,0.2-0.8,0.6-1.1,0.9
			c-0.4,0.4-0.5,0.7-0.8,1.2c-0.5,0.7-0.6,1.3-0.7,2.1c-0.7,0-1.4-0.2-2.2-0.1c-0.8,0.1-1.6,0.2-2.3,0.5c-1.2,0.4-2,1.1-2.6,2.2
			c-0.6,1-0.9,2.5-0.8,3.7c0.1,0.6,0.5,1.2,0.9,1.8c-2,0.3-4.6,1.6-5.1,3.8c-0.3,1.2-0.4,2.3,0.1,3.5c0.1,0.2,0.1,0.5,0.2,0.7
			c0,0,0.3,0.5,0.2,0.5c0,0.4-0.6,0.4-0.9,0.6c-0.9,0.5-1.5,1-2,1.9c-0.4,0.7-0.7,2.1-0.6,2.9c0.3,1.5,1.9,2.8,3.1,3.3
			c1.1,0.4,2.7,0.1,3.9,0.2c-0.5,0.1-0.6,1.2-0.6,1.6c-0.2,1.2-0.3,2.2,0.3,3.3c0.7,1.2,1.5,2.2,2.7,2.9c1.1,0.6,2.4,1.3,3.7,1.7
			c2.2,0.7,4.6,0.8,6.8-0.1c1.2-0.5,1.7-1.2,1.9-2.4c0.3-0.1,0.5,0.2,0.8,0.4c0.7,0.6,1.3,1,2.2,1.3c1.7,0.6,3.8,1.3,5.5,0.5
			c1.1-0.5,2.1-1.4,2.6-2.5c0.3-0.6,0.5-1.3,0.8-1.9c0.4-0.1,0.6,0.4,0.9,0.7c0.6,0.6,1.3,1,1.9,1.5c1.2,0.9,2.3,1.2,3.7,1.4
			c1.6,0.2,3.8-0.5,4.7-2c1.3,2.2,4.1,3.9,6.6,4.3c2.5,0.4,4.7-1.9,5.8-3.9c0.6-1,0.7-1.9,1-3c0.5,0,1,0.1,1.5,0.2
			c1,0.1,1.6,0.2,2.6-0.2c1.8-0.7,2.8-1.6,3.5-3.4c0.2-0.5,0.3-1.1,0.3-1.6c0.1-1,0.4-2,0.1-2.9c-0.3-0.9-1.4-1.9-2.4-2
			c0-0.5,0.3-1,0.4-1.5c0.3-1.1,0.5-2.3,0.6-3.5c0.2-1.1-0.2-2.2-0.8-3.2c-0.8-1.5-1.7-2.8-3-4c-0.4-0.4-3.9-1.9-4.1-1.2
			c0.5-2.7-1.3-5.5-3.7-6.8c-2.4-1.3-5.4-1.3-8.1-0.7C105.7,6.6,102.9,5.5,99.6,4.5z"/>
		<path class="st8" d="M95.6,47.8c-0.1,0.5-0.1,0.9-0.1,1.4c0,0.8,0.2,1.2,0.9,1.7c1.1,0.8,2.8,0.4,3.7-0.6c0.7-0.8,1-1.1,0.9-2.1
			C100.7,47.1,96,46.3,95.6,47.8z"/>
		<path class="st8" d="M88.9,52.9c-0.1,0.9-0.4,2.1,0.4,2.6c0.7,0.5,2.4,0.7,3.1,0.1C93,55,93,54.2,93,53.5
			C93,53.2,90.4,51.7,88.9,52.9z"/>
		<path class="st8" d="M82.4,55.6c0.3-0.6,1-1.3,0.6-1.9c-0.3-0.6-1.4-1.3-2-1.1c-0.6,0.2-0.9,0.7-1.1,1.2
			C79.8,54,81,55.9,82.4,55.6z"/>
		<path class="st9" d="M90.9,15.8c-0.4-0.1-0.7,0-1,0.2c-0.1,0.8,0.1,1.6,0.3,2.4c0.1,0.8,0.4,1.6,0.6,2.4c0.1,0.5,0.3,1.1,0.6,1.6
			c0.1,0.1,0.1,0.3,0.2,0.4c0.1,0.1,0.3,0.2,0.4,0.2c0.3,0,0.5-0.5,0.6-0.7c0.1-0.3,0-0.7-0.1-1c-0.2-0.4-0.2-0.9-0.3-1.4
			c-0.1-0.5-0.2-0.9-0.3-1.4c-0.1-0.5-0.3-1-0.4-1.5c0-0.2,0-0.4-0.1-0.6C91.4,15.9,91.3,15.9,90.9,15.8z"/>
		<path class="st0" d="M92.2,13.2c-0.4-0.5-0.8-0.8-1.3-0.9c-0.3,0-0.5,0-0.8,0c-0.3,0-0.5,0-0.7,0.1c-0.4,0.2-0.8,0.4-1.1,0.7
			c-0.6,0.7-0.9,1.6-0.7,2.5c0.2,0.7,0.5,1.5,1.1,1.9c0.2,0.2,0.5,0.3,0.8,0.5c0.1,0.1,0.3,0.2,0.4,0.2c0.2,0,0.4,0,0.5-0.1
			c0.8-0.1,1.5-0.4,2-1c0.3-0.4,0.6-0.9,0.8-1.3c0.2-0.5,0.1-1-0.1-1.4c-0.1-0.2-0.2-0.5-0.3-0.7C92.4,13.1,91.9,12.9,92.2,13.2z"/>
		<path class="st9" d="M81.4,27.3c-0.5-0.8-0.7-1.7-1-2.6c-0.2-0.6-0.5-1.2-0.7-1.9c-0.2-0.4-0.3-0.9-0.5-1.3
			c-0.1-0.3-0.3-0.6-0.2-0.9c0.1-0.3,0.6-0.3,0.8-0.2c0.4,0.2,0.6,0.6,0.7,1c0.5,1.2,0.9,2.5,1.4,3.8c0.2,0.4,0.3,0.8,0.5,1.3
			c0.1,0.3,0.2,0.5,0.2,0.8C82.3,27.4,82,27.4,81.4,27.3z"/>
		<path class="st9" d="M91.2,22.1c-0.8,0.6-1.6,1.1-2.5,1.7c-0.5,0.4-0.9,0.7-1.4,1c-0.4,0.2-0.7,0.5-1.1,0.7
			c-0.4,0.3-0.8,0.5-1.2,0.8c-0.5,0.3-1.2,0.7-1.4,1.2c-0.1,0.3,0,1,0.2,1.2c0.3,0.3,1,0,1.3-0.2c0.3-0.2,0.5-0.4,0.7-0.6
			c0.2-0.2,0.4-0.4,0.6-0.6c0.3-0.3,0.6-0.6,1-0.9c0.8-0.6,1.7-1,2.4-1.6c0.5-0.5,1-0.8,1.5-1.2c0.2-0.2,0.5-0.4,0.6-0.8
			C91.9,22.8,91.7,21.9,91.2,22.1z"/>
		<path class="st9" d="M93.2,23c-0.2,0.4-0.6,0.7-0.2,1.1c0.1,0.1,0.2,0.2,0.3,0.3c0.2,0.2,0.4,0.5,0.7,0.7c0.4,0.4,1,0.6,1.5,0.8
			c1,0.4,1.8,1.2,2.7,1.6c0.3,0.1,0.6,0.3,0.8,0.3c0.3,0.1,0.4,0.3,0.6,0.4c0.4,0.2,0.7-0.2,0.7-0.6c0-0.4-0.3-0.7-0.7-0.9
			c-0.4-0.3-0.7-0.6-1.1-0.8c-1-0.5-2.2-0.8-3-1.5c-0.4-0.3-0.8-0.7-1.2-0.9C94.1,23.2,93.8,22.9,93.2,23z"/>
		<path class="st9" d="M105,28.9c-0.2,0.4-0.6,0.7-0.2,1.1c0.1,0.1,0.2,0.2,0.3,0.3c0.2,0.2,0.4,0.5,0.7,0.7c0.4,0.4,1,0.6,1.5,0.8
			c1,0.4,1.8,1.2,2.7,1.6c0.3,0.1,0.6,0.3,0.8,0.3c0.3,0.1,0.4,0.3,0.6,0.4c0.4,0.2,0.7-0.2,0.7-0.6c0-0.4-0.3-0.7-0.7-0.9
			c-0.4-0.3-0.7-0.6-1.1-0.8c-1-0.5-2.2-0.8-3-1.5c-0.4-0.3-0.8-0.7-1.2-0.9C105.9,29.1,105.6,28.7,105,28.9z"/>
		<path class="st9" d="M101.2,14.1c-0.3,0.2-0.5,0.5-0.6,0.9c0.5,0.6,1.3,1,1.9,1.4c0.7,0.5,1.4,0.8,2.2,1.2c0.5,0.3,1,0.5,1.6,0.6
			c0.2,0,0.3,0.1,0.5,0.1c0.1,0,0.4-0.1,0.5-0.1c0.2-0.2,0-0.7-0.1-0.9c-0.1-0.3-0.5-0.5-0.8-0.6c-0.4-0.2-0.8-0.5-1.3-0.7
			c-0.4-0.2-0.8-0.4-1.2-0.7c-0.4-0.3-1-0.5-1.4-0.7c-0.2-0.1-0.3-0.2-0.5-0.4C101.6,13.8,101.5,13.8,101.2,14.1z"/>
		<path class="st9" d="M102.6,26c0.4-0.8,0.9-1.6,1.4-2.4c0.3-0.4,0.5-0.8,0.7-1.2c0.4-0.6,0.7-1.2,1.1-1.7c0.2-0.2,0.2-0.4,0.4-0.6
			c0.1-0.1,0.3-0.3,0.5-0.4c0.3-0.2,0.7-0.3,0.9,0.1c0.2,0.4,0.3,0.8,0.1,1.2c-0.2,0.3-0.4,0.5-0.5,0.8c-0.2,0.3-0.5,0.6-0.7,0.9
			c-0.4,0.6-0.9,1.2-1.2,1.8c-0.3,0.5-0.5,1-0.9,1.4c-0.2,0.3-0.6,0.6-1,0.8c-0.1,0-0.3,0.2-0.4,0.1C102.8,26.8,102.7,26.5,102.6,26
			z"/>
		<path class="st9" d="M97.3,35.6c0.7-1.3,1.5-2.7,2.3-4c0.2-0.3,0.3-0.6,0.5-0.8c0.2-0.2,0.3-0.5,0.5-0.7c0.2-0.3,0.5-0.5,0.8-0.7
			c0.4-0.1,0.6,0.1,0.7,0.5c0.1,0.5-0.2,1.2-0.5,1.6c-0.2,0.3-0.4,0.5-0.6,0.7c-0.2,0.3-0.4,0.6-0.6,1c-0.4,0.5-0.9,1-1.2,1.5
			c-0.2,0.4-0.5,0.8-0.7,1.2c-0.2,0.3-0.3,0.4-0.7,0.5c-0.1,0-0.3,0.1-0.4,0C97.2,36.3,97.1,35.9,97.3,35.6z"/>
		<path class="st0" d="M78.2,17.5c-0.7,0.7-1.3,0.7-1.6,1.7c-0.1,0.2-0.1,0.4,0,0.6c0,0.3,0.1,0.6,0.2,0.9c0.1,0.4,0.2,0.9,0.5,1.3
			c0.1,0.2,0.4,0.4,0.6,0.5c0.3,0.2,0.8,0.2,1.1,0.2c0.4,0,0.7-0.1,1.1-0.2c0.3-0.1,0.7-0.2,0.9-0.5c0.2-0.3,0.5-0.6,0.6-0.9
			c0.1-0.3,0.2-0.5,0.2-0.8c0-0.3,0-0.6-0.1-0.9c-0.1-0.5-0.3-1-0.6-1.4c-0.3-0.4-0.7-0.6-1.1-0.8C79.4,17.2,78.4,17.2,78.2,17.5z"
			/>
		<path class="st7" d="M83.8,26.1c0.1,0.1-0.8-0.6-1-0.7c0,0-0.1,0-0.1,0c-0.1,0-0.2,0-0.3,0c-0.3,0-0.5,0.1-0.8,0.2
			c-0.2,0.1-0.5,0.1-0.7,0.2c-0.3,0.1-0.5,0.4-0.7,0.7c-0.4,0.5-0.6,1.1-0.5,1.8c0,0.4,0,0.7,0.1,1c0.1,0.4,0.2,0.9,0.5,1.2
			c0.5,0.5,1,0.9,1.7,0.8c0.6,0,1.1-0.3,1.7-0.5c0.3-0.1,0.6-0.2,0.8-0.4c0.2-0.2,0.2-0.4,0.3-0.7c0.2-0.5,0.3-1.1,0.1-1.7
			c-0.1-0.5-0.3-0.9-0.6-1.3c-0.2-0.2-0.3-0.4-0.5-0.6C83.7,26.1,83.5,25.9,83.8,26.1z"/>
		<path class="st10" d="M90.6,20.2c-0.5,0.5-1.1,0.9-1.2,1.6c0,0.4,0,0.7,0.1,1.1c0.1,0.4,0.2,0.8,0.4,1.1c0.1,0.3,0.4,0.5,0.7,0.7
			c0.4,0.3,1,0.5,1.5,0.5c0.3,0,0.5,0,0.8-0.1c0.2-0.1,0.6-0.1,0.8-0.3c0.2-0.2,0.4-0.4,0.5-0.7c0.2-0.3,0.3-0.5,0.4-0.8
			c0.1-0.2,0.2-0.5,0.2-0.7c0-0.2,0-0.4,0-0.6c-0.1-0.9-0.5-2-1.4-2.3C92.5,19.5,91.6,19.9,90.6,20.2z"/>
		<path class="st0" d="M100.1,11.3c-0.6,0-1.1,0.1-1.6,0.4c-0.2,0.2-0.3,0.4-0.5,0.6c-0.2,0.2-0.3,0.4-0.4,0.6
			c-0.1,0.4-0.3,0.8-0.2,1.3c0.1,0.9,0.6,1.8,1.4,2.2c0.6,0.3,1.4,0.6,2.1,0.5c0.3-0.1,0.6-0.1,0.9-0.2c0.1,0,0.3-0.1,0.4-0.2
			c0.1-0.1,0.2-0.3,0.3-0.4c0.4-0.6,0.7-1.3,0.6-2.1c-0.1-0.5-0.2-1-0.4-1.5c-0.2-0.5-0.6-0.7-1.1-0.9c-0.2-0.1-0.5-0.2-0.8-0.2
			C100.2,11.2,99.7,11.4,100.1,11.3z"/>
		<path class="st7" d="M112.8,30.9c-0.6,0-1.1,0.1-1.6,0.4c-0.2,0.2-0.3,0.4-0.5,0.6c-0.2,0.2-0.3,0.4-0.4,0.6
			c-0.1,0.4-0.3,0.8-0.2,1.3c0.1,0.9,0.6,1.8,1.4,2.2c0.6,0.3,1.4,0.6,2.1,0.5c0.3-0.1,0.6-0.1,0.9-0.2c0.1,0,0.3-0.1,0.4-0.2
			c0.1-0.1,0.2-0.3,0.3-0.4c0.4-0.6,0.7-1.3,0.6-2.1c-0.1-0.5-0.2-1-0.4-1.5c-0.2-0.5-0.6-0.7-1.1-0.9c-0.2-0.1-0.5-0.2-0.8-0.2
			C112.8,30.8,112.4,31,112.8,30.9z"/>
		<path class="st7" d="M105.4,16.8c-0.1,0.2-0.2,0.3-0.3,0.6c-0.1,0.4-0.1,0.8-0.1,1.3c0.1,0.8,0.5,1.6,1.2,2
			c0.6,0.3,1.4,0.4,2.1,0.4c0.3,0,0.7-0.2,1-0.3c0.3-0.1,0.5-0.3,0.7-0.6c0.4-0.4,0.8-1,0.8-1.7c0-0.7-0.3-1.5-0.7-2.1
			c-0.4-0.5-1-1-1.6-1.1C107.7,15,105.8,16.2,105.4,16.8z"/>
		<path class="st10" d="M94.4,35.8c-0.1,0.2-0.2,0.3-0.3,0.6C94,36.8,94,37.2,94,37.6c0.1,0.8,0.5,1.6,1.2,2
			c0.6,0.3,1.4,0.4,2.1,0.4c0.3,0,0.7-0.2,1-0.3c0.3-0.1,0.5-0.3,0.7-0.6c0.4-0.4,0.8-1,0.8-1.7c0-0.7-0.3-1.5-0.7-2.1
			c-0.4-0.5-1-1-1.6-1.1C96.7,34,94.8,35.3,94.4,35.8z"/>
		<path class="st0" d="M101,25.3c-0.4,0.2-1.2,0.3-1.5,0.8c-0.1,0.1-0.2,0.3-0.3,0.4c-0.1,0.3-0.2,0.7-0.3,1
			c-0.1,0.7,0.1,1.4,0.3,2.1c0.2,0.6,0.9,1.3,1.5,1.5c0.8,0.3,1.6,0.1,2.3-0.1c0.8-0.2,1.5-0.5,1.9-1.1c0.4-0.6,0.6-1.4,0.4-2.1
			c-0.2-0.7-0.5-1.5-1-2c-0.4-0.4-1-0.6-1.5-0.7c-0.5-0.1-0.8-0.2-1.3-0.1C101.4,25.1,101.2,25.2,101,25.3
			C100.6,25.4,100.1,25.5,101,25.3z"/>
	</g>
</g>
</svg>
