<?xml version="1.0" encoding="utf-8"?>
<!-- Generator: Adobe Illustrator 27.2.0, SVG Export Plug-In . SVG Version: 6.00 Build 0)  -->
<svg version="1.1" id="Layer_1" xmlns="http://www.w3.org/2000/svg" xmlns:xlink="http://www.w3.org/1999/xlink" x="0px" y="0px"
	 viewBox="0 0 130 80" style="enable-background:new 0 0 130 80;" xml:space="preserve">
<style type="text/css">
	.st0{fill:none;stroke:#000000;stroke-linecap:round;stroke-linejoin:round;stroke-miterlimit:10;}
	.st1{fill:#FF87EB;stroke:#000000;stroke-linecap:round;stroke-linejoin:round;stroke-miterlimit:10;}
	.st2{fill:#C3EBA8;stroke:#000000;stroke-linecap:round;stroke-linejoin:round;stroke-miterlimit:10;}
	.st3{fill:#FFE096;stroke:#000000;stroke-linecap:round;stroke-linejoin:round;stroke-miterlimit:10;}
	.st4{fill:#BCBABA;stroke:#000000;stroke-linecap:round;stroke-linejoin:round;stroke-miterlimit:10;}
	.st5{fill:#DAD8D8;stroke:#000000;stroke-linecap:round;stroke-linejoin:round;stroke-miterlimit:10;}
	.st6{fill:#70CEFF;stroke:#000000;stroke-linecap:round;stroke-linejoin:round;stroke-miterlimit:10;}
</style>
<g>
	<g>
		<path class="st0" d="M75.5,55.4c2.3,0.2,4.7,0.4,7,0.4c1.7,0,3.4-0.3,5-0.4c2.8-0.2,5.5-0.4,8.3-0.4c2.5,0,5.1-0.1,7.6,0.2
			c2.3,0.2,4.6,0.7,7,0.7c2.7,0,5.4,0.3,8.1,0.3c0.3,0,0.6,0,0.9,0c0.2,0,0.5,0,0.7-0.1"/>
		<path class="st0" d="M120.4,20.4c-4.3,0-8.6,0-12.9,0c-1.7,0-3.3-0.1-5,0c-1.6,0.1-3.2,0.2-4.8,0.3c-1.7,0.1-3.4,0.3-5.1,0.4
			c-1.3,0.1-2.6,0.1-3.9,0.1c-2.2,0-4.4,0-6.6,0c-0.8,0-1.6-0.2-2.4-0.3c-0.6-0.1-1.1-0.1-1.7-0.1c-0.7-0.1-1.5-0.2-2.2-0.2
			c-0.4,0-0.7-0.1-1.1-0.1c-0.3,0-0.8-0.1-1,0.1"/>
		<path class="st0" d="M120.4,37.9c-2.9,0-5.7,0.2-8.6,0.3c-2,0.1-4,0.4-6,0.4c-1.9,0-3.9,0.1-5.8,0c-2.1-0.1-4.2-0.1-6.3,0.1
			c-1.9,0.1-3.8,0-5.7,0c-1.7,0-3.5-0.2-5.2,0.2C81.5,39,80.4,39,79.2,39c-0.5,0-1.1-0.1-1.6-0.2c-0.7-0.1-1.5-0.1-2.2-0.2"/>
		<path class="st1" d="M61.1,12.2c1.6-0.1,3.3-0.2,4.9-0.5c0.7-0.1,1.4-0.3,2.1-0.3c1.4,0,2.7,0,4.1,0c0.8,0,1.6,0,2.4,0
			c0.3,0,0.7,0,1,0c0.1,1.3-0.1,2.7-0.1,4c0,2.1,0,4.2,0.1,6.3c0.1,1.5,0,3.1,0,4.6c0,1.6,0,3.2,0,4.8c0,1.7,0,3.3,0.1,5
			c0.1,1.6,0.1,3.3,0.1,4.9c0.1,3.4,0.1,6.8,0.1,10.2c0,2.8,0,5.5,0,8.3c0,1,0,2,0,3.1c0,0.4,0.1,1.3,0,1.6
			c-0.1,0.2-0.6,0.2-0.7,0.3c-0.5,0.1-1,0-1.5,0c-1.4,0-2.7,0-4.1,0c-1.6,0-3.2,0-4.8,0c-0.6,0-1.1,0-1.7,0.1
			c-0.3,0.1-0.8,0-1.1,0.2c-0.2-0.4-0.1-0.9-0.2-1.3c-0.1-0.7-0.2-1.4-0.3-2.1c-0.2-1.8-0.1-3.7-0.1-5.6c0-2,0-4,0-6
			c0-1.1,0.1-2.2,0.1-3.3c0-1.4,0.2-2.8,0.3-4.1c0.1-1.2,0.1-2.5,0.1-3.7c0-1.2,0-2.3,0-3.5c0-1,0-2.1,0-3.1c0-1-0.3-2.1-0.3-3.1
			c0-2.2,0.1-4.5-0.1-6.7c-0.1-0.9-0.1-1.8-0.1-2.7c0-0.8-0.1-1.6-0.1-2.4c0-1.1-0.2-2.1-0.2-3.2C61,13.3,61,12.5,61.1,12.2z"/>
		<path class="st2" d="M117.5,48.4c-1.4-0.2-2.8-0.3-4.2-0.3c-0.7,0-1.3,0-2,0c-1,0-2.1,0.2-3.1,0.2c-0.8,0-1.7,0-2.5,0
			c-0.3,0-0.7-0.1-1,0c-0.1,0.9,0,2.1,0,3c0,1.3,0,2.6,0,4c0,1.7,0,3.4,0,5.2c0,1.5,0.2,2.9,0.3,4.4c0.6,0.1,1.3,0,1.8-0.1
			c0.7-0.1,1.4-0.1,2.2-0.1c1.5,0,3,0.1,4.4,0c1.2-0.1,2.4-0.2,3.6-0.2c0.4,0,0.8,0.1,1.1,0c0.1-0.8,0-1.7,0-2.6c0-1-0.1-2-0.2-3
			c-0.1-1.7-0.3-3.5-0.3-5.2c0-1.2,0-2.3,0-3.5C117.7,49.3,117.8,48.4,117.5,48.4z"/>
		<path class="st3" d="M99.9,46.1c-1.6,0.1-3.3,0.1-4.9,0.7c-0.7,0.3-1.4,0.4-2.1,0.4c-1.2,0.1-2.5,0.1-3.7,0.2
			c-1.4,0.1-2.8,0.2-4.2,0.1c-0.1-0.4,0.1-1,0.1-1.4c0.1-1,0.2-2.1,0.2-3.1c0.1-2.1-0.1-4.2-0.1-6.2c-0.1-3.8-0.1-7.6-0.2-11.4
			c0-0.9-0.1-1.9,0-2.8c0.1-0.9,0.2-1.8,0.1-2.8c-0.1-1.6-0.1-3.1-0.1-4.7c0-1.1-0.2-2.3-0.1-3.4c0.3,0,0.5-0.1,0.7-0.1
			c0.3,0,0.7,0,1,0c0.6,0,1.2,0.2,1.8,0.2c1.8,0,3.6-0.2,5.4-0.2c1.2-0.1,2.4,0,3.6,0c0.5,0,1-0.1,1.5-0.1c0.1,1.1,0.1,2.3,0.1,3.4
			c0,1.2,0,2.4-0.1,3.7c-0.1,1.7,0.1,3.4,0.1,5.1c0.1,1.9,0.1,3.8,0.1,5.7c0,1.1,0.1,2.1,0.1,3.2c0,1.1,0,2.2,0.1,3.3
			c0.1,1.1,0.3,2.2,0.4,3.4c0,0.7,0,1.4,0.1,2.1c0,1.1,0,2.2,0,3.4C100,44.8,100.1,46.1,99.9,46.1z"/>
		<path class="st3" d="M121.9,37.7c0.8-0.1,1.7-0.1,2.5-0.2"/>
		<path class="st3" d="M122.4,55.9c0.4,0,0.8,0,1.2,0.1"/>
		<path class="st3" d="M125.8,56.1c0.9-0.1,1.8,0,2.8,0.1"/>
		<path class="st3" d="M126.4,37.8c0.4,0,0.8-0.1,1.2,0"/>
		<path class="st3" d="M121.5,20.5c0.8,0.1,1.5,0,2.3-0.2"/>
		<path class="st3" d="M125.8,20.2c0.6,0,1.2,0,1.8,0"/>
		<path class="st3" d="M128.3,20.4"/>
		<path class="st3" d="M127.2,56"/>
		<path class="st0" d="M65.6,33.1c0.2-0.2,0.3-0.2,0.5-0.1c0.2,0,0.4,0.1,0.6,0.2c0.2,0.1,0.3,0.2,0.5,0.3c0.3,0.2,0.6,0.5,0.8,0.9
			c0.3,0.7,0.7,1.4,0.8,2.1c0.1,0.7,0.1,1.5,0,2.3c0,0.3-0.1,0.6-0.2,0.9c-0.1,0.3-0.2,0.5-0.3,0.7c-0.2,0.4-0.4,0.8-0.8,1.1
			c-0.2,0.1-0.3,0.2-0.4,0.4c-0.1,0.1-0.2,0.3-0.4,0.4c-0.1,0.1-0.3,0.1-0.4,0.1c-0.2,0.1-0.5,0.3-0.8,0.3"/>
		<path class="st0" d="M73.2,32.6c-0.4,0-0.8,0-1.3,0.2c-0.2,0.1-0.5,0.2-0.7,0.4c-0.4,0.3-0.7,0.7-1.1,1.1
			c-0.3,0.4-0.5,0.8-0.7,1.2c-0.2,0.4-0.4,0.7-0.4,1.1C69.1,37,69,37.4,69,37.8c0,0.3,0,0.5,0.1,0.7c0.1,0.2,0.1,0.4,0.2,0.7
			c0.1,0.4,0.4,0.8,0.6,1.2c0.2,0.3,0.5,0.4,0.7,0.6c0.3,0.2,0.6,0.4,0.9,0.5c0.7,0.2,1.4-0.1,2.1,0"/>
		<path class="st0" d="M95.4,24.3c-0.5,1.2-1.1,2.3-1.7,3.4c-0.2,0.3-0.4,0.7-0.5,1c-0.2,0.4-0.5,0.8-0.7,1.2
			c-0.3,0.5-0.5,1-0.7,1.5c-0.2,0.3-0.3,0.5-0.5,0.8c-0.1,0.1-0.2,0.3-0.3,0.4c-0.4,0.4-1,0.3-1.4,0c-0.3-0.3-0.7-0.6-1-1
			c-0.4-0.5-0.5-1.2-0.6-1.9c-0.1-0.6-0.1-1.3,0.1-1.8c0.1-0.5,0.1-1.1,0.4-1.5c0.3-0.4,0.7-0.7,1.1-1c0.3-0.2,0.8-0.3,1.1-0.2
			c0.4,0.1,0.7,0.2,1,0.5c0.3,0.3,0.6,0.7,0.9,1c0.6,0.6,0.9,1.5,1.5,2.2c0.5,0.6,0.7,1.4,1.1,2.1c0.1,0.2,0.2,0.3,0.2,0.4
			c0,0.1,0.1,0.3,0.1,0.4c0.3-0.4,0.5-0.8,0.8-1.2c0.1-0.2,0.3-0.4,0.4-0.6"/>
		<path class="st0" d="M107,61.7c0.5,0.2,1,0.4,1.5,0.2c0.3-0.1,0.6-0.3,0.8-0.5c0.5-0.4,0.5-1,0.5-1.5c0-0.5,0-1-0.1-1.6
			c-0.1-0.6-0.3-1.1-0.4-1.7c-0.1-0.7-0.2-1.4-0.2-2.1c0-0.5-0.1-1.1,0.1-1.6c0.1-0.4,0.3-0.9,0.7-1.3c0.3-0.3,0.8-0.4,1.2-0.4
			c0.5,0,1-0.1,1.5-0.1c0.6,0,1.1,0.3,1.4,0.7c0.5,0.7,0.9,1.4,0.7,2.2c-0.1,0.3-0.2,0.5-0.4,0.8c-0.2,0.2-0.4,0.3-0.7,0.4
			c-0.4,0.2-0.9,0.5-1.4,0.5c1.2,0,2.2,0.1,2.7,1c0.4,0.7,0.6,1.8-0.1,2.5c-0.3,0.2-0.5,0.5-0.9,0.7c-0.3,0.2-0.5,0.1-0.9,0.1
			c-0.4-0.1-1.2-0.2-1.3-0.6"/>
	</g>
	<path class="st4" d="M51.9,26.8c1.9,1.4,3.8,2.8,5.6,4.5c1.2,1.1,2.4,2.1,3.6,3c0.5,0.4,1.1,0.8,1.6,1.3c0.3,0.3,0.6,0.5,0.8,0.7
		c0.5,0.4,1,1.1,1.6,1.3c-0.1-0.2-0.4,0.2-0.5,0.3c-0.6,0.5-1.3,0.8-2,1.3c-0.5,0.3-1,0.7-1.5,1.1c-0.5,0.4-1,0.6-1.5,1
		c-0.9,0.6-1.8,1.7-2.6,2.5c-0.8,0.8-1.4,0.7-2.1,1.5c-0.4,0.5-1.1,1.1-1.6,1.4c-0.2,0.1-1.5,0.5-1.5,0.8c0.7-2,1.3-4.4,2.2-6.3
		c-2.1,0.7-4.4,0.5-6.6,0.6c-1.1,0.1-2.3-0.1-3.4,0.1c-0.9,0.2-1.8,0.3-2.8,0.4c-1.6,0.1-3.1,0.5-4.7,0.3c-0.9-0.1-1.8-0.1-2.7,0.1
		c0.2-0.5,0-1.3-0.1-1.8c-0.1-0.8-0.3-1.5-0.3-2.3c0-1-0.1-1.9-0.1-2.9c0-0.8,0.1-1.7,0.2-2.6c0-0.3,0-0.4,0.2-0.4
		c0.3-0.1,0.7,0,1,0c1.1,0,2.1,0.1,3.2,0.2c1.4,0.1,2.9,0.1,4.3,0.1c1.3,0,2.6,0.2,3.8,0.6c0.6,0.2,1.2,0.1,1.8,0.3
		c1,0.2,2,0.1,3,0.2c1.2,0.2,2.3,0.4,3.5,0.3c-0.3,0-1.6-3.6-1.7-4c-0.2-0.5-0.3-1-0.5-1.5c-0.1-0.3-0.2-0.7-0.3-1
		C52,27.3,52,26.6,51.9,26.8z"/>
	<path class="st5" d="M42.5,53.4c0.5,0.4,0.8,1,1.1,1.6c0.3,0.4,0.7,0.8,0.6,1.3c-0.1,0.3-0.2,0.6-0.4,0.8c-0.9,1.4-1.9,2.9-2.5,4.5
		c-0.3,0.9-0.6,1.8-0.7,2.7c-0.1,0.6-0.2,2.1,0.2,2.5c-1.5,0-2.9,0.4-4.4,0.3c-0.9-0.1-5.5,0.1-6.4,0.1c-0.9,0.1-0.7,0.1-1.5,0.1
		c-1,0-2.1,0-3.1,0.1c-0.6,0-1.3,0.1-1.9,0.1c-0.6,0-1.3,0.1-2,0.1c-1,0-2-0.1-3,0.1c-0.5,0.1-1-0.1-1.5,0c-0.5,0-1,0.1-1.4,0.1
		c-1.4,0-2.7-0.1-4.1-0.1c-2.4,0.1-6.2,0.1-7.6-2.3c-0.7-1.3-0.9-2.8-1-4.2c-0.1-1.9-0.2-3.9-0.1-5.8c0-1.4,0.1-2.8,0.6-4.1
		C3.5,50.8,3.6,50.3,4,50c0.3-0.3,0.7-0.5,1-0.6c2.9-1.2,6.2-1.5,9.3-1.4c6.3,0.2,11.3,1.6,17.4,3c1.2,0.3,2.4,0.4,3.6,0.7
		c0.8,0.2,1.7,0.4,2.5,0.5c0.6,0.1,1.2,0.1,1.7,0.3c0.3,0.1,0.6,0,0.9,0.1c0.5,0.1,1,0.1,1.4,0.3C42.1,53.1,42.3,53.2,42.5,53.4z"/>
	<path class="st6" d="M36.7,68.3c-1.4,0.1-6.3,0.2-7.7,0.3c-1.3,0.1-1.7,0.1-2.9,0.1c-1.3,0-2.5-0.2-3.8-0.1c-1.1,0-2.3,0-3.4,0
		c-1.6-0.1-3.2,0-4.8-0.1c-1.2-0.1-2.3-0.2-3.5-0.2c-0.9,0-1.7-0.3-2.6-0.2c-1.4,0.2-3.2,0.7-4.1-0.3c-0.3-0.4-0.7-0.7-1-1.2
		c-0.3-0.6-0.6-1.4-0.7-2.2c-0.2-1.1-0.4-2.4-0.4-3.6c0-1.4-0.1-2.7-0.3-4.1c-0.2-1.7,0.2-3.5,0.2-5.2c0-2.1-0.1-4.2-0.1-6.3
		c-0.1-4.2-0.1-8.5-0.2-12.7C1.5,28,1.1,19.7,2.4,15.5c0.4-1.1,0.3-1.8,1.3-2.4s4.7-0.5,4.9,0.6c1.2-1.5,3.2-1.3,5.1-1.4
		c2.4-0.2,3.4,0,5-0.3c5.4-1.1,7.5-0.1,12.9,0c2.4,0,7.9-0.5,10.4-0.6c0.4,0,1.2-0.2,1.5,0c0.3,0.2,0.3,0.8,0.4,1.1
		c0.3,0.9,0.6,1.9,0.5,3c-0.1,0.4,0,0.8,0,1.1c0,1.1,0.1,2.3,0,3.4c-0.2,2.1,0.1,4,0,6c0,1,0.1,2,0.2,2.9c0.1,1,0,2,0,3
		c0,1.8-0.3,3.7-0.2,5.5c0.1,1.5,0,3.1,0,4.7c0,0.6,0,1.2,0.1,1.8c0.1,0.5,0.2,1,0.1,1.5c0,1,0.3,1.9,0.3,2.8c0.1,0.8-0.1,1.7,0,2.5
		c0.1,0.7,0.3,1.3,0.2,2.1c0,1,0.4,1.9,0,3c-0.1,0.2-0.2,0.4-0.4,0.5c-0.1,0.1-0.3,0.1-0.4,0.1c-5.4-0.2-11.2-0.1-16.7,0
		c-2,0-3-0.2-5-0.2c-1.6,0-3.1,0.1-4.7,0.1c-2.4,0-4.9-0.1-7.3-0.1c-0.3,0-0.9,0.2-1.2,0.1c-0.4-0.1-0.4-0.5-0.8-0.7
		c-0.8-0.4-1.6-0.5-2.4-0.3C6,55.4,5.5,55.7,5.2,56c-0.4,0.4-0.5,1-0.6,1.5c-0.2,1.4-0.3,2.8-0.2,4.2c0.1,1.2,0.3,2.5,1.2,3.5
		c0.8,0.9,2.4,1.3,3.3,0.4c-0.2,0.2,2,0.9,2.2,0.9c0.8,0.1,1.7,0.1,2.6,0.2c0.9,0.1,1.9,0,2.9,0.1c0.6,0,1.1-0.1,1.7-0.1
		c0.7,0,1.3,0.1,2,0c0.4,0,0.9-0.1,1.3-0.1c0.6,0,1.2,0,1.7,0c1,0,2.1-0.1,3.2-0.2c1.8-0.2,2.6-0.3,4.4-0.3c1.5,0,6.4,0.1,8,0
		c0.4,0,0.8,0,1.2,0c0.4,0,1-0.1,1.3,0.1c0.4,0.3,0.4,1.3-0.3,1.7c-0.4,0.2-1.1,0.1-1.4,0.1c-0.5,0-0.9,0.1-1.4,0.1
		C37.8,68.2,37.2,68.2,36.7,68.3z"/>
	<path class="st3" d="M24.3,29.5c-1.2-1.1-1.5-1.1-2.9-1.8c-1.5-0.8-3.3-0.1-3.6-0.1c-0.5,0.1-1,0.4-1.3,0.9
		c-0.3,0.6-0.3,1.2,0.3,1.2c0.5,0.1,1-0.3,1.5-0.4c0.7-0.1,1.5,0.1,2.1,0.2c0.6,0.2,1.2,0.6,1.7,1c0.6,0.4,1.1,1.1,1.4,1.7
		c0.7,1.5,0.2,3.7-0.5,5.3c-1.2,2.8-2.7,3.3-4,3.8c-0.2,0.1-0.5,0.3-0.7,0.3c-0.2,0.1-0.5,0-0.7,0.1c-0.4,0.1-0.9,0.3-0.9,0.8
		c-0.1,0.4,0.3,0.8,0.5,1c0.4,0.4,0.9,0.3,1.5,0.1c1.5-0.5,3.5-1.4,4.7-2.7c1.5-1.6,1.4-3.4,1.8-3.8c0,0.4,0.4,2.1,0.6,2.6
		c0.4,0.7,1.1,1.5,1.8,2c0.8,0.6,1.9,1.1,2.8,1.4c0.7,0.3,1.5,0.6,2.3,0.6c0.7,0,1.2-0.2,1.7-0.7c0.4-0.4,0.7-1,0.4-1.5
		c-0.4-0.5-0.8-0.3-1.4-0.2c-0.7,0.1-1.2,0.2-1.9,0c-1.3-0.5-3-1.2-3.6-2.5c-0.2-0.4-0.3-0.8-0.4-1.2c-0.2-0.8-0.5-1.5-0.6-2.3
		c-0.1-0.9-0.1-2.1,0.3-3.1c0.4-1,1.3-2.1,2.1-2.6c0.6-0.4,1.5-0.2,2.1,0c0.6,0.2,1,0.6,1.5,1c0.4,0.4,1,0.8,1.5,0.2
		c0.8-1,0.3-1.9-0.4-2.5c-1-0.9-2.4-1.6-3.8-1.1c-1.2,0.5-2.4,1.1-3.5,1.9c-0.5,0.4-0.8,1-1.2,1.6C25.2,30.7,24.4,29.6,24.3,29.5z"
		/>
	<path class="st0" d="M35.1,58.1c2,0,4-0.1,6,0c0.3,0,0.7-0.1,1,0c0.3,0,0.6,0.1,0.9,0"/>
	<path class="st0" d="M33.5,60.2c2.1-0.2,4.2-0.1,6.3-0.1c0.6,0,1.2,0.1,1.9,0"/>
	<path class="st0" d="M30.4,62.7c1,0,1.9,0,2.9,0c0.5,0,0.9-0.1,1.4,0c0.5,0,1.1,0.1,1.6,0c0.5,0,0.9-0.1,1.4,0c0.2,0,0.5,0.1,0.8,0
		c0.3,0,0.5,0,0.7,0c0.2,0,0.3,0.1,0.5,0.1c0.3,0,0.7-0.1,0.9,0"/>
	<path class="st0" d="M35,64.3c1.4,0,2.7,0.1,4,0.1c0.3,0,0.5,0,0.8,0c0.2,0,0.3,0,0.5,0"/>
	<path class="st0" d="M9,57.5c-0.8-0.1-1.7-0.2-2.5-0.2c-0.4,0-0.8,0-1.2,0C5.3,57.3,5.2,57.3,9,57.5z"/>
	<path class="st0" d="M11.3,59.4c-1.8-0.2-3.6-0.3-5.4-0.3c-0.3,0-0.8,0.1-1,0"/>
	<path class="st0" d="M12.1,61.4c-1.6,0-3.1-0.2-4.7-0.1c-0.4,0-0.7,0-1.1,0c-0.3,0-0.5,0-0.8,0c-0.2,0-0.5-0.1-0.8,0"/>
	<path class="st0" d="M9.8,63.5c-2.2-0.2-2.5,0-4.8,0"/>
	<path class="st0" d="M8.8,16.9c0,3.4-0.1,6.9-0.1,10.3c0,2.2-0.1,4.4-0.3,6.6c-0.1,1,0.1,2.9,0.1,3.9c0,2.2,0.4,3.5,0.7,5.7
		c0.2,1.4,0.2,2.9,0.2,4.3c0,1.6,0,3.1,0.1,4.7"/>
</g>
</svg>
