<?xml version="1.0" encoding="utf-8"?>
<!-- Generator: Adobe Illustrator 27.2.0, SVG Export Plug-In . SVG Version: 6.00 Build 0)  -->
<svg version="1.1" id="Layer_1" xmlns="http://www.w3.org/2000/svg" xmlns:xlink="http://www.w3.org/1999/xlink" x="0px" y="0px"
	 viewBox="0 0 130 80" style="enable-background:new 0 0 130 80;" xml:space="preserve">
<style type="text/css">
	.st0{fill:#DAD8D8;stroke:#000000;stroke-linecap:round;stroke-linejoin:round;stroke-miterlimit:10;}
	.st1{fill:#FFE096;stroke:#000000;stroke-linecap:round;stroke-linejoin:round;stroke-miterlimit:10;}
	.st2{fill:none;stroke:#000000;stroke-linecap:round;stroke-linejoin:round;stroke-miterlimit:10;}
	.st3{fill:#FFEEBF;}
</style>
<g>
	<path class="st0" d="M67.9,66.4C67.9,66.4,67.9,66.4,67.9,66.4c-0.3,0-0.7,0-1,0c-0.4,0-0.7-0.1-1-0.1c-0.2,0-0.4,0-0.6,0
		c-0.2,0-0.5,0-0.7,0c-0.4,0-0.7,0.1-1.1,0.2c-0.3,0-0.6,0.2-0.7,0.4c-0.1,0.2-0.2,0.3-0.3,0.6c0,0.2-0.1,0.4,0,0.6
		c0.2,0.4,0.5,0.8,0.8,1.2c0.2,0.2,0.4,0.3,0.7,0.4c0.3,0.1,0.5,0.3,0.8,0.3c0.4,0.1,0.9,0.1,1.3,0.1c0.4,0,0.8-0.2,1.2-0.4
		c0.4-0.3,0.7-0.6,0.9-1c0.1-0.2,0.2-0.4,0.2-0.6c0-0.2,0-0.4,0-0.7c0-0.2-0.1-0.4-0.2-0.6C68,66.6,67.9,66.5,67.9,66.4z"/>
	<path class="st1" d="M60.8,60.3c0-0.3,0-0.5-0.1-0.8c-0.2-0.8-0.4-1.6-0.7-2.4c-0.2-0.5-0.3-1.1-0.5-1.6c-0.4-1.2-1.2-2.1-1.8-3.2
		c-0.3-0.6-0.7-1.1-1-1.7c-0.4-0.6-0.7-1.2-1-1.7c-0.2-0.3-0.3-0.6-0.5-0.9c-0.2-0.4-0.4-0.8-0.6-1.2c-0.3-0.7-0.4-1.5-0.7-2.3
		c-0.5-1.8-0.9-3.6-0.8-5.5c0-0.4,0.1-0.9,0.2-1.3c0.1-0.5,0.4-1,0.5-1.6c0.3-0.9,0.8-1.8,1.3-2.6c0.6-0.8,1.1-1.7,1.9-2.4
		c0.4-0.3,0.7-0.7,1-1c0.4-0.4,0.8-0.6,1.2-0.8c0.4-0.2,0.7-0.5,1.1-0.6c0.2-0.1,0.5-0.2,0.7-0.3c0.2-0.1,0.4-0.3,0.7-0.4
		c0.3-0.1,0.6-0.1,0.9-0.2c0.3-0.1,0.6-0.1,1-0.1c0.3,0,0.7,0,1,0c0.4,0,0.7-0.1,1.1-0.1c0.3,0,0.7,0,1.1,0c0.4,0,0.8,0,1.2,0
		c0.6,0.1,1.2,0.4,1.8,0.6c0.6,0.2,1,0.6,1.5,0.9c0.3,0.2,0.5,0.3,0.7,0.5c0.2,0.2,0.4,0.5,0.6,0.7c0.3,0.3,0.5,0.6,0.7,0.9
		c0.3,0.3,0.5,0.5,0.7,0.9c0.2,0.4,0.5,0.8,0.7,1.2c0.2,0.4,0.4,0.8,0.6,1.2c0.5,0.9,0.8,1.9,1.2,2.9c1.1,2.9,0.2,6.6-1,9.3
		c-0.9,2.1-2.4,3.8-3.4,5.8c-1.2,2.4-1.6,4.9-2.2,7.5c0,0.1-0.1,0.2-0.1,0.4c0,0.1,0,0.3-0.1,0.4c-0.2,2-2.1,3.5-4.2,3.5
		c-0.8,0-1.4-0.4-2.1-0.6c-0.8-0.3-1.5-0.5-2.3-1c-0.1-0.1-0.2-0.1-0.3-0.2c-0.1-0.1-0.1-0.3-0.1-0.4C60.8,61.3,60.9,60.8,60.8,60.3
		z"/>
	<path class="st2" d="M65.1,1.5c-1.5,0-3-0.1-4.5,0.3C60,2,59.5,2.1,58.9,2.1c-1.3,0.1-2.5,0.6-3.7,0.9c-1.1,0.3-2.2,0.5-3.3,1
		c-1.1,0.5-2.3,0.9-3.4,1.4c-1.1,0.5-2.1,1.2-3.1,1.8c-1.2,0.7-2.5,1.5-3.4,2.5c-0.8,0.9-1.9,1.5-2.8,2.3c-0.6,0.5-1,1.1-1.5,1.7
		c-0.6,0.7-1.3,1.2-1.8,1.9c-0.8,0.9-1.3,1.9-2.1,2.9c-0.9,1.1-1.7,2.2-2.3,3.4c-0.6,1.1-1.3,2.2-1.8,3.4c-0.5,1-0.9,2-1.3,3.1
		c-1.3,3.6-2.2,7-2.2,10.8c0,2.1-0.4,4.3,0.1,6.4c0.5,2.3,0.8,4.5,1.6,6.7c0.3,0.9,0.7,1.8,1.1,2.7c0.5,1.4,1.3,2.6,1.8,4
		c0.4,1,0.9,1.8,1.4,2.6c0.6,0.9,1.4,1.6,2.1,2.4c1.5,2,3.4,3.7,5.1,5.6c0.4,0.4,0.7,0.8,1.2,1.1c0.3,0.2,0.7,0.3,0.9,0.6
		c0.4,0.4,0.7,0.8,1.1,1.1c0.5,0.4,1.2,0.7,1.7,1c0.9,0.5,1.7,1,2.7,1.4c1.1,0.4,2.2,0.8,3.3,1.2c2.1,0.8,4.3,1.4,6.5,1.7
		c0.8,0.1,1.6,0.3,2.5,0.4c0.8,0.1,1.6,0.1,2.4,0.2c1.9,0.1,3.8,0.3,5.7,0.3c2.1,0,4.3-0.3,6.4-0.8c0.7-0.2,1.4-0.3,2.1-0.5
		c0.7-0.2,1.3-0.4,2-0.6c1.5-0.5,2.9-1.2,4.2-2c0.9-0.5,1.8-0.9,2.7-1.3c0.5-0.2,0.9-0.5,1.2-0.9c0.2-0.3,0.4-0.5,0.7-0.8
		c0.4-0.4,1-0.7,1.5-1.1c1.4-0.9,2.4-2.1,3.7-3.2c0.9-0.8,1.8-1.5,2.6-2.5c0.5-0.6,1-1.1,1.5-1.8c0.6-0.8,1.2-1.6,1.7-2.5
		c0.3-0.5,0.6-0.9,1-1.4c0.3-0.4,0.6-0.7,0.8-1.1c0.4-0.8,0.7-1.8,1.2-2.6c0.5-0.9,0.8-1.8,1.2-2.7c0.7-1.6,1.1-3.4,1.4-5.1
		c0.7-3.7,0.5-7.4,0.5-11.1c0-1.9-0.2-3.7-0.8-5.5c-0.3-0.9-0.8-1.7-1.1-2.7c-0.3-1-0.7-1.9-1.1-2.9c-0.3-0.8-0.8-1.6-1.2-2.3
		c-0.4-0.7-0.9-1.3-1.3-2.1c-0.9-1.6-1.9-3.1-3-4.6c-0.4-0.6-1-1.1-1.4-1.7c-0.4-0.6-0.9-1.1-1.4-1.7c-0.9-1-2.1-1.8-3.1-2.7
		c-1.1-1-2.4-2-3.6-2.8c-0.6-0.4-1.4-0.8-2.1-1.1c-0.7-0.4-1.3-0.7-2-1.1c-1.1-0.6-2.5-1.1-3.7-1.4c-0.7-0.2-1.4-0.4-2.2-0.7
		c-0.7-0.2-1.5-0.3-2.3-0.5c-0.8-0.2-1.6-0.2-2.4-0.4c-0.7-0.2-1.3-0.3-2-0.4c-0.9-0.1-1.8-0.3-2.8-0.3C65.6,1.6,64.7,1.5,65.1,1.5z
		"/>
	<path class="st0" d="M70.1,63.5c-0.7-0.1-1.5-0.2-2.2-0.3c-0.3-0.1-0.6-0.1-1-0.1c-0.3,0-0.5-0.1-0.8-0.1c-0.2,0-0.4-0.1-0.5-0.1
		c-0.2,0-0.4,0-0.6,0c-0.4,0-0.8,0-1.2,0c-0.7,0-1.3,0.1-1.9,0.3c-0.2,0.1-0.4,0.2-0.6,0.2c-0.2,0-0.3,0.1-0.4,0.2
		c-0.3,0.2-0.6,0.5-0.7,0.8c-0.1,0.3-0.2,0.7-0.3,1c-0.1,0.6,0.2,1.2,0.7,1.5c0.2,0.2,0.5,0.3,0.8,0.4c0.2,0.1,0.3,0.1,0.5,0.2
		c0.2,0,0.5,0.1,0.7,0.1c0.5,0,1.1,0.1,1.6,0c0.5,0,1.1,0,1.6,0c0.5,0,1.1-0.1,1.6-0.1c0.5,0,0.9,0,1.4,0c0.2,0,0.3,0,0.5,0
		c0.2,0,0.4,0,0.5-0.1c0.3-0.1,0.6-0.2,0.8-0.5c0.2-0.2,0.3-0.5,0.4-0.8c0-0.1,0.1-0.2,0.1-0.3c0-0.1,0-0.2,0-0.3
		c0-0.2,0.1-0.4,0-0.6c-0.1-0.3-0.2-0.6-0.4-0.8c-0.1-0.1-0.1-0.2-0.2-0.3C70.2,63.6,70,63.5,70.1,63.5z"/>
	<path class="st2" d="M63.8,62.4c-0.3-0.5-0.4-0.9-0.5-1.5c0-0.1,0-0.2,0-0.4c0-0.4,0-0.7-0.1-1.1c-0.1-0.8-0.1-1.7-0.1-2.6
		c0-0.5,0-0.9,0-1.4c0.1-1.7,0.4-3.3,1.5-4.6c0.5-0.6,1.1-1.2,1.5-1.8c0.3-0.6,0.5-1.3,0.7-1.9c1-3.3,1.1-7,0-10.3
		c-0.2-0.5-0.4-1-0.8-1.4c-0.6-0.5-1.4-0.3-1.9,0.1c-0.6,0.5-0.8,1-1,1.7c-0.5,1.7-0.3,3.5-0.1,5.2c0.2,1.6-0.3,3.1,0.2,4.7
		c0.5,1.7,1.9,2.9,2.9,4.3c0.5,0.6,1,1.3,1,2.1c0.1,1,0.2,2.1,0.3,3.1c0,0.6,0,1.3,0,1.9c0,0.5,0,1-0.1,1.5c-0.1,0.3-0.2,0.7-0.3,1
		c0,0.2-0.1,0.5-0.1,0.7c-0.1,0.2-0.1,0.6-0.3,0.6"/>
	<path class="st2" d="M70.3,37.3c-1.2,0.4-2.4,0.9-3.4,1.6c-0.3,0.2-0.7,0.5-1.1,0.7c-0.3,0.2-0.7,0.3-1.1,0.5
		c-0.4,0.2-0.7,0.4-1.1,0.6c-0.3,0.2-0.6,0.5-0.9,0.7c-0.4,0.3-0.6,0.6-0.9,0.9c-0.3,0.2-0.6,0.5-0.8,0.8c-0.6,0.8-1.2,1.6-1.6,2.5
		c-0.3,0.6-0.5,1.3-0.3,1.9c0.1,0.4,0.4,0.5,0.8,0.5c0.9,0.1,1.6-0.4,2.3-0.9c0.6-0.5,1.2-0.9,1.8-1.3c0.4-0.2,0.7-0.5,1.1-0.7
		c0.4-0.2,0.8-0.4,1.2-0.7c0.4-0.3,0.8-0.5,1.2-0.8c0.4-0.2,0.8-0.4,1.1-0.7c0.3-0.2,0.5-0.4,0.8-0.7c0.4-0.3,0.6-0.6,0.9-1
		c0.5-0.5,0.8-1.1,1.1-1.7c0.1-0.4,0.4-0.9,0.4-1.3c0-0.2,0-0.5-0.2-0.7C71.2,37.1,70.4,37.4,70.3,37.3z"/>
	<path class="st2" d="M60.4,37.3c1.2,0.4,2.4,0.9,3.4,1.6c0.3,0.2,0.7,0.5,1.1,0.7c0.3,0.2,0.7,0.3,1.1,0.5c0.4,0.2,0.7,0.4,1.1,0.6
		c0.3,0.2,0.6,0.5,0.9,0.7c0.4,0.3,0.6,0.6,0.9,0.9c0.3,0.2,0.6,0.5,0.8,0.8c0.6,0.8,1.2,1.6,1.6,2.5c0.3,0.6,0.5,1.3,0.3,1.9
		c-0.1,0.4-0.4,0.5-0.8,0.5c-0.9,0.1-1.6-0.4-2.3-0.9c-0.6-0.5-1.2-0.9-1.8-1.3c-0.4-0.2-0.7-0.5-1.1-0.7c-0.4-0.2-0.8-0.4-1.2-0.7
		c-0.4-0.3-0.8-0.5-1.2-0.8c-0.4-0.2-0.8-0.4-1.1-0.7c-0.3-0.2-0.5-0.4-0.8-0.7c-0.4-0.3-0.6-0.6-0.9-1c-0.5-0.5-0.8-1.1-1.1-1.7
		c-0.1-0.4-0.4-0.9-0.4-1.3c0-0.2,0-0.5,0.2-0.7C59.5,37.1,60.3,37.4,60.4,37.3z"/>
	<g>
		<path class="st3" d="M81.6,44.5c-0.4-0.3-1,0.1-1.1,0.6c-0.1,0.5,0.1,1,0.4,1.3c0.4,0.5,1.1,0.8,1.7,1c2,0.8,4.1,1.3,6.3,1.3
			c0.5,0,1,0,1.3-0.4c0.4-0.5-0.1-1.3-0.6-1.7c-2.3-1.7-5.5-1.5-8.3-2.1"/>
		<path class="st3" d="M81.1,36.7c0.2,0,0.5,0,0.7-0.1c2.5-0.6,4.9-1.6,7.2-2.7c1.1-0.5,2.2-1,3.1-1.7c0.1-0.1,0.2-0.2,0.2-0.4
			c0-0.1-0.1-0.3-0.2-0.4c-0.8-0.8-2.1-0.6-3.2-0.4c-2.3,0.6-4.5,1.6-6.7,2.5C81.5,33.9,78.8,36.2,81.1,36.7z"/>
		<path class="st3" d="M82,17.9c-1.4,1-2.9,2-3.7,3.5c-0.7,1.2-0.9,2.5-1.1,3.8c-0.1,0.5-0.1,1.2,0.4,1.4c0.2,0.1,0.4,0,0.6,0
			c0.8-0.2,1.4-0.7,2-1.2c0.7-0.6,1.5-1.2,2.2-1.9c1.2-1.1,2.3-2.5,2.2-4.1c0-0.4-0.2-0.9-0.6-1.2c-0.4-0.3-1-0.3-1.6-0.3"/>
		<path class="st3" d="M38.7,45.1c-0.5,0.2-1.1,0.3-1.5,0.7c-0.4,0.3-0.7,0.9-0.5,1.4c0.2,0.8,1.2,1,2,1.1c2.8,0.1,5.6-0.6,8-2.2
			c0.3-0.2,0.7-0.5,0.7-0.9c0-0.5-0.6-0.9-1.1-1C43.8,43.5,41.1,44.3,38.7,45.1z"/>
		<path class="st3" d="M47.3,34.3c0.2,0,0.3-0.1,0.4-0.2c0.3-0.2,0.4-0.7,0.2-1c-0.2-0.3-0.5-0.6-0.8-0.8c-1.5-1.1-8.5-5.3-10.2-2.7
			C34.7,33.1,45.4,34.7,47.3,34.3z"/>
		<path class="st3" d="M47.3,18.3c0,1.1,0.7,2.2,1.3,3.1c1.1,1.7,2.4,3.2,3.9,4.6c0.4,0.4,1,0.8,1.5,0.5c0.4-0.3,0.4-0.9,0.3-1.4
			c-0.7-2.9-1.8-5.6-3.5-8.1C49.5,15.1,47.3,16,47.3,18.3z"/>
		<path class="st3" d="M63,21.9c0.2,0.7,0.6,1.5,1.4,1.7c0.5,0.1,1.1-0.2,1.4-0.6c0.3-0.4,0.5-1,0.6-1.5c0.3-1.6,0.4-9.1-2.4-8.5
			C61.2,13.5,62.5,20.1,63,21.9z"/>
	</g>
	<path class="st2" d="M38.2,46.7c2.4-0.6,4.9-1.3,7.3-1.7c0.3-0.1,0.7-0.1,1-0.1"/>
	<path class="st2" d="M38.6,30.5c2,0.7,3.9,1.5,5.9,2c0.9,0.2,1.8,0.4,2.7,0.7"/>
	<path class="st2" d="M81.5,35.5c2.6-1.1,5.3-2.4,7.9-3.4c0.5-0.2,1-0.2,1.5-0.4"/>
	<path class="st2" d="M81.1,44.9c1.7,0.6,3.3,1.2,4.9,1.9c0.6,0.3,1.2,0.5,1.8,0.6c0.5,0.1,1,0.2,1.6,0.3c0.1,0,0.3,0.1,0.4,0.1"/>
	<path class="st2" d="M49.5,17.3c0.7,1.5,1.4,2.9,2.2,4.3c0.5,0.9,0.9,1.9,1.4,2.9c0.2,0.5,0.4,1.1,0.8,1.6c0.1,0.1,0.1,0.1,0.2,0.2
		"/>
	<path class="st2" d="M64.6,13c0.1,2.5,0.3,4.9,0.2,7.4c0,0.8-0.2,1.7,0,2.6"/>
	<path class="st2" d="M83.1,18.9c-1.9,2-4.1,4-5.4,6.5c0,0,0.1-0.1,0.1-0.1"/>
	<path class="st3" d="M64,31.8c0.1,1.1,1.4,1.7,2.8,2.1c1.1,0.3,4.1,1.2,4.9-0.2c0.7-1.3,0.2-2.8-0.8-3.6C69.3,29,63.7,29.1,64,31.8
		z"/>
	<path class="st0" d="M72.3,61.2c-0.6-0.1-1.1-0.1-1.7-0.2c-0.3,0-0.6-0.1-0.9-0.1c-0.8-0.1-1.7-0.2-2.6-0.2c-0.2,0-0.4,0-0.6,0
		c-0.3,0-0.6,0-0.8,0c-0.5,0-1,0-1.4,0c-0.4,0-0.8,0-1.2,0c-0.4,0-0.8,0.1-1.2,0.1c-0.6,0-1.1,0.1-1.7,0.3c-0.5,0.2-0.9,0.3-1.3,0.6
		c-0.4,0.2-0.6,0.5-0.8,0.9c-0.2,0.3-0.3,0.7-0.2,1c0,0.4,0.4,0.6,0.7,0.8c0.2,0.1,0.3,0.2,0.5,0.3c0.2,0.1,0.4,0.1,0.6,0.1
		c0.5,0.1,1,0.2,1.6,0.2c0.3,0,0.5,0,0.8-0.1c0.3,0,0.7,0,1,0c0.4,0,0.7,0,1.1-0.1c0.5-0.1,0.9-0.1,1.4-0.1c0.4,0,0.7,0,1.1,0
		c0.4,0,0.8,0.1,1.2,0.1c0.4,0,0.7,0,1.1,0c0.4,0,0.8,0,1.1,0c0.6,0,1.1-0.1,1.7-0.3c0.2-0.1,0.5-0.2,0.7-0.3
		c0.2-0.1,0.3-0.3,0.4-0.4c0.1-0.2,0.2-0.3,0.3-0.5c0.1-0.2,0.1-0.3,0.1-0.5c0-0.2-0.1-0.3-0.1-0.4c0-0.2-0.1-0.3-0.1-0.5
		C72.9,61.3,72.3,61.2,72.3,61.2z"/>
</g>
</svg>
