<?xml version="1.0" encoding="utf-8"?>
<!-- Generator: Adobe Illustrator 27.2.0, SVG Export Plug-In . SVG Version: 6.00 Build 0)  -->
<svg version="1.1" id="Layer_1" xmlns="http://www.w3.org/2000/svg" xmlns:xlink="http://www.w3.org/1999/xlink" x="0px" y="0px"
	 viewBox="0 0 130 80" style="enable-background:new 0 0 130 80;" xml:space="preserve">
<style type="text/css">
	.st0{fill:#FF87EB;stroke:#000000;stroke-linecap:round;stroke-linejoin:round;stroke-miterlimit:10;}
	.st1{fill:#C8ECFD;stroke:#000000;stroke-linecap:round;stroke-linejoin:round;stroke-miterlimit:10;}
	.st2{fill:#70CEFF;stroke:#000000;stroke-linecap:round;stroke-linejoin:round;stroke-miterlimit:10;stroke-dasharray:0,0,0,0,0,0;}
	.st3{fill:none;stroke:#757575;stroke-width:2;stroke-linecap:round;stroke-linejoin:round;stroke-miterlimit:10;}
	.st4{fill:#FFE096;stroke:#000000;stroke-linecap:round;stroke-linejoin:round;stroke-miterlimit:10;}
</style>
<g>
	<path class="st0" d="M115.8,12.6c-3.4,0.2-6.8,0.4-10.1,0.3c-1.4,0-2.8-0.2-4.2-0.2c-1.4-0.1-2.8-0.1-4.2-0.3c-1-0.1-2-0.2-3-0.2
		c-1,0-2,0.2-2.9,0.2c-3.2,0.1-6.6-0.2-9.9-0.3c-1.5,0-2.9,0-4.4,0.1c-1.6,0.1-3.1-0.1-4.7-0.1c-2.4,0.1-4.7,0.4-7.1,0.3
		c-2.7-0.2-5.5,0.2-8.3,0c-2.7-0.1-5.4,0-8.1,0c-1.4,0-2.8,0.1-4.2,0.2c-1.7,0.1-3.3-0.1-5-0.1c-1,0-2.1,0.1-3.1,0.1
		c-1,0.1-1.9-0.1-2.9-0.2c-1.9-0.1-3.6,0-5.5,0c-1.4,0-2.9-0.1-4.3,0c-1.2,0-2.5-0.1-3.7-0.1c-0.9,0-1.8,0-2.7,0
		c-0.9,0-1.8-0.2-2.7-0.1c-0.3,0-1,0-1.3,0.1c-1.3,0.5-0.8,2.9-0.8,4c-0.1,2.3,0.1,4.5,0.3,6.8c0.1,1.3,0.1,2.6,0,3.9
		c-0.1,5.8-0.2,11.6,0.1,17.4c0.2,3.9,0.7,7.7,0.9,11.6c0.1,1.9-0.3,4.4-0.5,6.3c-0.2,1.4-0.4,2.8-0.1,4.2c0,0.2,0.1,0.4,0.2,0.6
		c0.2,0.3,0.7,0.3,1.1,0.3c2,0,3.9,0,5.9-0.1c2.1-0.2,4.3,0.4,6.5,0.2c2-0.2,3.9-0.1,5.9-0.1c2.2,0,4.3-0.1,6.5,0
		c2.5,0.1,4.9-0.2,7.4-0.2c2.6,0,5.2,0,7.8,0.2c4.6,0.3,9.2,0.1,13.8,0.3c4.6,0.1,9.3,0.4,13.9,0.1c2.5-0.1,5,0.2,7.5,0
		c1.4-0.1,2.7-0.1,4.1-0.1c1.5,0,3-0.2,4.4-0.2c1.7-0.1,3.5,0.2,5.2,0.1c1.1,0,2-0.2,3.1,0c2.9,0.4,5.7,0,8.5-0.1
		c0.3,0,0.7,0,0.9-0.2c0.3-0.3,0.4-0.8,0.4-1.3c0-4-0.1-8,0-11.9c0-1.3-0.4-2.5-0.4-3.8c0-0.7,0-1.3,0.1-2c0-0.8,0-1.6-0.1-2.4
		c-0.3-4.7,0.3-9.7,0.5-14.4c0-2,0.1-4,0.1-5.9c0-1.6-0.3-3.6,0.1-5.1c0.3-1.2,0.3-2.4,0.2-3.7c-0.1-0.8,0.1-1.7,0-2.5
		c-0.1-0.3-0.1-0.5-0.2-0.8C116.8,12.9,116.5,12.8,115.8,12.6z"/>
	<path class="st1" d="M113.5,15.9c-3.2-0.2-6.4,0-9.5,0.1c-1.2,0-2.3-0.1-3.4,0c-3,0.2-6.1-0.3-9.1-0.4c-3.2,0-6.5,0.1-9.6,0
		c-2,0-3.9-0.3-5.8-0.2c-1.1,0-2.2,0-3.3-0.1c-0.6,0-1.1-0.1-1.6,0c-0.6,0-1,0-1.6,0c-2.3,0-4.7,0-7-0.1c-1.9,0-3.8,0.3-5.8,0.2
		c-0.9,0-1.8-0.1-2.7-0.1c-1.3,0-2.5,0.2-3.8,0.1c-0.9-0.1-1.8,0-2.8,0c-0.9,0-1.7,0.2-2.6,0.2c-0.8,0-1.5-0.1-2.3,0
		c-0.8,0-1.5,0.1-2.3,0.1c-0.8,0-1.5,0-2.3,0c-0.7,0-1.3-0.1-2-0.1c-1.4,0-2.8,0.2-4.2,0.1c-1.4-0.1-2.8,0.1-4.2,0.1
		c-1.3,0-2.5-0.2-3.8-0.1c-1,0.1-2.2,0.2-3.2,0.2c-0.8,0-1.6,0-2.3,0c-1.1,0-1.4-0.1-1.6,1c-0.2,1.1,0,2.4,0,3.5c0,2.4,0,4.8,0,7.2
		c0,1.4,0,2.8,0,4.2c0,2.2,0.1,4.4,0.2,6.5c0.2,4.2,0.4,8.5,0.6,12.7c0.1,1.2,0.2,2.7,0.1,3.9c-0.1,0.7,0,1.3,0,2c0,2-0.1,4,0,6.1
		c0,0.1,0,0.2,0.1,0.3c0.1,0.1,0.2,0.1,0.4,0.1c2.6-0.1,5,0.4,7.6,0.5c2.1,0.1,4.3,0.3,6.4,0.1c1.5-0.1,3.3-0.2,4.8-0.1
		c1.6,0.1,3.3-0.1,5-0.1c0.8,0,1.7,0.1,2.5,0.2c1,0.1,2,0,3.1,0c1,0,2,0.1,3,0c1,0,2.1,0,3.1,0.1c1,0,2,0.1,3,0.2
		c0.8,0,1.5-0.1,2.3,0c0.7,0,1.3,0,2,0.1c0.8,0.1,1.7,0,2.5-0.1c1-0.2,2.1-0.3,3.2-0.3c0.7,0,1.4,0.1,2.1,0c0.9,0,1.7-0.2,2.5-0.2
		c1.4,0,2.8,0.1,4.3,0.1c1.3,0,2.6,0,3.9,0.1c1.4,0.1,2.9,0.1,4.3,0.2c0.9,0,1.7,0.1,2.6,0.1c0.7,0,1.3-0.1,1.9-0.1
		c1.2,0,2.5,0.1,3.7,0c1.4-0.1,2.7-0.4,4.2-0.3c1.6,0,3.2-0.1,4.8-0.2c1.2-0.1,2.4,0.1,3.6,0c0.9,0,1.9-0.1,2.8-0.1c1,0,2,0,2.9,0
		c0.7,0,1.3,0,2,0c0.3,0,0.5,0,0.8-0.2c0.6-0.6,0.2-1.7,0.1-2.5c-0.1-1.5,0.2-3.1,0.2-4.6c0.1-4.9-0.2-9.7-0.3-14.5
		c0-0.9-0.1-1.8-0.1-2.6c-0.3-5.2,0.2-10.5,0.3-15.7c0.1-1.8-0.2-3.4,0.3-5.2c0.1-0.5,0.2-0.9,0.2-1.4
		C113.6,16.5,113.7,16,113.5,15.9z"/>
	<path class="st2" d="M65.2,21.8c-0.4,0-0.8,0-1.2,0c-0.2,0-0.4,0-0.6,0.1c-0.2,0-0.5,0.1-0.7,0.2c-0.3,0.1-0.5,0.1-0.8,0.2
		c-0.4,0.2-0.9,0.2-1.3,0.4c-0.3,0.2-0.7,0.3-1,0.4c-0.7,0.2-1.4,0.6-2.1,1c-0.4,0.3-0.9,0.5-1.3,0.8c-0.3,0.2-0.7,0.4-1,0.7
		c-0.4,0.4-0.8,0.8-1.2,1.2c-0.2,0.2-0.3,0.4-0.5,0.6c-0.2,0.3-0.4,0.5-0.6,0.7c-0.3,0.5-0.6,1-1,1.5c-0.1,0.2-0.2,0.3-0.3,0.5
		c-0.1,0.2-0.2,0.4-0.3,0.6c-0.2,0.4-0.4,0.9-0.5,1.4c-0.1,0.4-0.3,0.9-0.4,1.3c-0.2,0.5-0.4,1.1-0.5,1.6c-0.1,0.4-0.2,0.8-0.2,1.2
		c0,0.7,0.1,1.5,0.2,2.2c0,0.8,0.2,1.6,0.5,2.4c0.2,0.8,0.6,1.5,1,2.3c0.3,0.8,0.8,1.4,1.2,2.1c0.4,0.7,0.8,1.3,1.3,1.9
		c0.2,0.3,0.5,0.5,0.8,0.8c0.1,0.1,0.3,0.2,0.5,0.4c0.1,0.1,0.3,0.3,0.4,0.4c0.5,0.5,1.1,0.8,1.7,1.1c0.1,0.1,0.3,0.1,0.4,0.2
		c0.1,0.1,0.3,0.1,0.4,0.2c0.1,0.1,0.3,0.1,0.4,0.2c0.2,0.1,0.3,0.1,0.4,0.2c0.5,0.3,1.2,0.4,1.7,0.7c0.3,0.1,0.7,0.2,1,0.4
		c0.4,0.2,0.8,0.2,1.1,0.3c0.2,0,0.4,0.1,0.5,0.1c0.2,0,0.4,0,0.6,0c0.4,0.1,0.8,0.1,1.2,0.1c1,0,2-0.1,2.9-0.3
		c0.4-0.1,0.8-0.2,1.2-0.3c0.5-0.1,1-0.2,1.5-0.4c0.6-0.2,1.2-0.6,1.8-0.8c0.4-0.2,0.9-0.5,1.3-0.7c0.4-0.2,0.8-0.5,1.1-0.8
		c0.3-0.2,0.6-0.5,0.8-0.8c0.1-0.2,0.3-0.3,0.4-0.5c0.2-0.2,0.4-0.4,0.5-0.6c0.2-0.3,0.5-0.7,0.7-1.1c0.1-0.2,0.3-0.4,0.4-0.6
		c0.1-0.2,0.2-0.4,0.3-0.7c0.3-0.5,0.5-1,0.8-1.4c0.1-0.2,0.3-0.4,0.4-0.6c0.1-0.2,0.2-0.4,0.3-0.7c0.1-0.2,0.1-0.3,0.1-0.5
		c0-0.3,0.2-0.5,0.2-0.8c0-0.2,0-0.4,0.1-0.6c0.1-0.2,0.1-0.5,0.1-0.7c0-0.2,0.1-0.4,0.1-0.6c0-0.2,0-0.4,0.1-0.6
		c0.1-0.3,0.1-0.7,0.1-1.1c0-0.4,0.1-0.8,0.1-1.2c0-0.5,0-1-0.1-1.4c0-0.1-0.1-0.2-0.1-0.4c-0.1-0.2-0.1-0.4-0.2-0.6
		c-0.1-0.3-0.2-0.7-0.3-1c-0.2-0.8-0.5-1.6-0.9-2.2c-0.2-0.3-0.3-0.5-0.5-0.8c-0.2-0.3-0.3-0.6-0.5-0.9c-0.4-0.6-0.8-1.2-1.3-1.8
		c-0.4-0.4-0.8-0.9-1.2-1.3c-0.2-0.2-0.6-0.5-0.8-0.7c-0.2-0.2-0.5-0.4-0.8-0.6c-0.1-0.1-0.3-0.2-0.4-0.3c-0.1-0.1-0.2-0.1-0.3-0.2
		c-0.2-0.2-0.4-0.3-0.6-0.4c-0.2-0.1-0.4-0.3-0.7-0.4c-0.3-0.2-0.6-0.3-1-0.4c-0.3-0.1-0.5-0.3-0.8-0.4c-0.3-0.1-0.6-0.2-0.8-0.2
		c-0.6-0.2-1.3-0.3-1.9-0.3c-0.2,0-0.5-0.1-0.7-0.1c-0.2,0-0.5,0-0.7,0C65.4,21.8,64.8,21.8,65.2,21.8z"/>
	<path class="st3" d="M61.1,32.3c0,0.4,0,0.8,0,1.2c0.1,1.3-0.1,2.7-0.1,4c0,1.5,0,3.1-0.2,4.6c0,0.6-0.1,1.3,0.2,1.9
		c0.5,1.1,1.5,0.8,2.3,0.4c0.4-0.2,0.8-0.4,1.2-0.6c0.4-0.2,0.7-0.5,1.1-0.7c0.5-0.3,1.1-0.6,1.7-0.9c0.5-0.2,1-0.5,1.5-0.7
		c0.5-0.3,1.1-0.6,1.6-0.9c0.5-0.3,0.9-0.6,1.3-0.9c0.3-0.2,0.5-0.3,0.8-0.5c0.1-0.1,0.2-0.2,0.4-0.3c0.3-0.3,0.6-0.7,0.6-1.2
		c0-0.1,0-0.8-2.3-2.1c-0.8-0.4-1.6-0.8-2.4-1.2c-1-0.5-2-1-3-1.5c-0.8-0.4-1.9-0.8-2.6-1.5c-0.2-0.1-0.4-0.2-0.6-0.3
		c-0.1,0-0.1,0-0.2-0.1C62.1,31.1,61,30.9,61.1,32.3z"/>
	<path class="st4" d="M60.7,31c0,0.4-0.1,0.9,0,1.3c0.1,1.4-0.1,2.9-0.1,4.3c0,1.6,0,3.3-0.2,4.9c0,0.7-0.1,1.4,0.2,2
		c0.5,1.1,1.6,0.9,2.5,0.4c0.4-0.2,0.9-0.4,1.3-0.7c0.4-0.2,0.8-0.5,1.2-0.7c0.6-0.3,1.2-0.7,1.8-1c0.5-0.3,1.1-0.5,1.6-0.8
		c0.6-0.3,1.1-0.6,1.7-0.9c0.5-0.3,1-0.6,1.4-0.9c0.3-0.2,0.5-0.3,0.8-0.5c0.1-0.1,0.3-0.2,0.4-0.3c0.3-0.3,0.7-0.8,0.6-1.3
		c0-0.1,0-0.9-2.4-2.2c-0.9-0.5-1.7-0.9-2.6-1.3c-1.1-0.5-2.2-1.1-3.2-1.6c-0.9-0.4-2.1-0.9-2.8-1.6c-0.2-0.1-0.5-0.3-0.7-0.3
		c-0.1,0-0.2,0-0.2-0.1C61.8,29.7,60.6,29.4,60.7,31z"/>
	<path class="st4" d="M109.7,58.3c0.5-0.4,0.9-0.8,1.2-1.4c-0.3-0.1-0.4-0.5-0.7-0.6c-0.3-0.1-0.7-0.3-1-0.3c-1.2,0-2.3,0.2-3.5,0.2
		c-1.4,0-2.8,0.3-4.2,0.4c-1.6,0.2-3.1,0-4.7,0.3c-1.7,0.3-2.6-0.3-4.3-0.1c-1.6,0.2-3.4-0.1-4.9,0.1c-0.5,0-5.4-0.1-6.4-0.3
		c-1.2-0.2-2.3-0.4-3.5-0.3c-0.8,0-1.7,0.1-2.5,0c-1-0.1-2.1,0.2-3.1,0.1c-1.8-0.1-3.6-0.6-5.4-0.5c-1,0-1.9,0-2.9,0
		c-1.2,0.1-2.5-0.3-3.8-0.3c-1,0-2-0.2-3-0.3c-0.8-0.1-1.6,0-2.5,0.1c-1,0.1-2-0.1-3-0.1c-1.2,0-2.4,0.3-3.6,0.2
		c-1.8-0.1-3.7-0.1-5.5-0.1c-1.3,0-2.5,0.2-3.8,0.3c-1,0-2.1-0.1-3.1,0c-1.1,0.1-2.2-0.2-3.3-0.1c-1.2,0-2.4,0.2-3.6,0.1
		c-0.5,0-1.1-0.2-1.7-0.1c-0.6,0.1-1.2,0.3-1.8,0.3c-0.9,0-1.9-0.3-2.9-0.2c-0.4,0-0.7,0-1.1,0.1c-0.3,0.1-0.5,0.3-0.7,0.5
		c-0.5,0.4-0.5,1-0.2,1.7c0.6,1,1.6,0.7,2.5,0.6c0.2,0,0.4,0,0.6,0.1c0.3,0.1,0.5,0,0.8,0c0.3,0.1,0.6,0.1,0.9,0.2
		c0.5,0.1,1.1,0.1,1.6,0.1c0.7,0,1.2,0.2,1.9,0.3c0.6,0.1,1.4,0,2-0.1c0.9-0.1,1.7-0.2,2.6-0.3c0.4,0,0.8,0.1,1.2,0.2
		c0.5,0,1.1,0,1.6,0c0.9-0.1,1.8-0.2,2.7-0.2c0.4,0,0.9,0.2,1.3,0.1c0.5,0,1.1,0,1.6-0.1c1-0.1,2,0,2.9,0c0.9,0,1.8,0,2.7-0.1
		c1-0.1,2,0.1,3,0.1c0.9,0,1.8-0.2,2.7,0c1.9,0.3,3.7,0.1,5.5,0.2c0.9,0.1,1.8,0,2.7,0c0.9,0,1.8,0.2,2.7,0.1
		c1.2-0.1,2.4-0.3,3.6-0.1c1.3,0.2,2.5,0.1,3.8,0.2c0.9,0.1,1.8,0.3,2.7,0.3c0.8-0.1,1.5-0.1,2.3-0.1c1.1,0,2.1-0.2,3.1-0.2
		c0.5,0,1-0.1,1.5-0.1c0.5,0,1,0.1,1.4,0.1c1.4,0.1,2.8-0.1,4.2,0.1c0.9,0.2,1.8,0.1,2.6,0.1c1.1,0,2.1,0.1,3.2,0.3
		c0.9,0.1,1.8,0,2.7,0.1c0.7,0.1,1.5,0.2,2.2,0.1c1.4-0.2,2.9-0.2,4.3-0.3c0.6,0,1.3-0.1,1.9-0.2c0.6-0.1,1.2,0,1.7,0
		c0.8-0.1,1.7,0,2.5-0.2c0.5-0.1,1-0.4,1.4-0.6C109.7,58.3,110.2,57.9,109.7,58.3z"/>
	<path class="st0" d="M42.3,53.7c-0.4-0.3-0.6-0.6-1-0.7c-0.1,0-0.1,0-0.2-0.1c-0.2,0-0.3-0.1-0.5,0c-0.3,0-0.7,0.1-1,0.2
		c-0.7,0.1-1.3,0.3-1.9,0.6c-0.2,0.1-0.5,0.2-0.7,0.4c-0.2,0.2-0.5,0.5-0.7,0.8c-0.3,0.5-0.5,1-0.6,1.5c-0.3,0.9-0.2,1.9,0.2,2.7
		c0.2,0.3,0.4,0.6,0.7,0.8c0.1,0.1,0.3,0.2,0.4,0.4c0.2,0.1,0.4,0.2,0.6,0.2c0.2,0,0.3,0.2,0.5,0.3c0.2,0.1,0.4,0.2,0.5,0.2
		c0.4,0.2,1,0.2,1.5,0.2c0.5,0,1-0.1,1.4-0.3c0.4-0.3,0.8-0.4,1.2-0.7c0.3-0.2,0.6-0.4,0.8-0.7c0.2-0.3,0.3-0.7,0.5-1.1
		c0.1-0.3,0.2-0.6,0.1-1c0-0.3-0.1-0.6-0.1-0.8c-0.1-0.3-0.2-0.6-0.2-0.9c-0.1-0.3-0.2-0.6-0.3-0.8c-0.2-0.3-0.4-0.7-0.8-0.9
		C42.3,53.8,42.1,53.7,42.3,53.7z"/>
	<g>
		<path class="st4" d="M92,33.4c0,0.2,0,0.5,0,0.7c0,0.8,0,1.6,0,2.4c0,0.9,0,1.8-0.1,2.8c0,0.4,0,0.8,0.1,1.1
			c0.2,0.6,0.5,0.5,0.9,0.2c0.2-0.1,0.3-0.2,0.4-0.4c0.1-0.1,0.3-0.3,0.4-0.4c0.2-0.2,0.4-0.4,0.6-0.5c0.2-0.2,0.4-0.3,0.6-0.4
			c0.2-0.2,0.4-0.3,0.6-0.5c0.2-0.2,0.3-0.3,0.5-0.5c0.1-0.1,0.2-0.2,0.3-0.3c0,0,0.1-0.1,0.1-0.2c0.1-0.2,0.2-0.4,0.2-0.7
			c0-0.1,0-0.5-0.8-1.2c-0.3-0.3-0.6-0.5-0.9-0.7c-0.4-0.3-0.8-0.6-1.1-0.9c-0.3-0.3-0.7-0.5-1-0.9c-0.1-0.1-0.2-0.1-0.2-0.2
			c0,0-0.1,0-0.1,0C92.4,32.7,92,32.5,92,33.4z"/>
		<path class="st4" d="M99.3,32.3c0,0.5,0,0.9,0,1.4c0,0.1,0,0.2,0,0.4c0,0.4,0,0.7,0,1.1c0,0.2,0,0.4,0,0.6c0,0.2,0,0.4,0,0.5
			c0,0.4,0,0.8,0,1.2c0,0.4,0,0.7,0,1.1c0,0.3,0.1,0.6,0.1,1c0,0.2,0,0.5,0,0.7c0,0.1,0,0.5,0.1,0.5c0,0-0.2,0-0.2,0
			c-0.1,0-0.2,0-0.3,0c-0.2,0-0.3,0-0.4,0.1c-0.2,0-0.3,0.1-0.5,0.1c-0.1,0-0.1,0-0.2,0c-0.1,0-0.1,0-0.2,0c0-0.2,0-0.5,0-0.7
			c0-0.3,0-0.6,0-0.9c0-0.6,0.1-1.2,0.1-1.8c0-0.1,0-0.3,0-0.4c0-0.2,0-0.3-0.1-0.5c0-0.4,0-0.7-0.1-1.1c0-0.2,0-0.3,0-0.5
			c0-0.2,0-0.3,0-0.5c0-0.3,0-0.6,0-0.8c0-0.3,0-0.6,0-0.9c0-0.1,0-0.2,0-0.3c0-0.1,0-0.2,0-0.3c0.1,0,0.1,0,0.2,0
			c0.1,0,0.2-0.1,0.3-0.1c0.1,0,0.2,0,0.2,0c0.1,0,0.2,0,0.3-0.1c0.2,0,0.3-0.2,0.5-0.2C99.1,32,99.2,32.1,99.3,32.3z"/>
	</g>
	<g>
		<path class="st4" d="M38.8,33.4c0,0.2,0,0.5,0,0.7c0,0.8,0,1.6,0,2.4c0,0.9,0,1.8,0.1,2.8c0,0.4,0,0.8-0.1,1.1
			c-0.2,0.6-0.5,0.5-0.9,0.2c-0.2-0.1-0.3-0.2-0.4-0.4c-0.1-0.1-0.3-0.3-0.4-0.4c-0.2-0.2-0.4-0.4-0.6-0.5c-0.2-0.2-0.4-0.3-0.6-0.4
			c-0.2-0.2-0.4-0.3-0.6-0.5c-0.2-0.2-0.3-0.3-0.5-0.5c-0.1-0.1-0.2-0.2-0.3-0.3c0,0-0.1-0.1-0.1-0.2c-0.1-0.2-0.2-0.4-0.2-0.7
			c0-0.1,0-0.5,0.8-1.2c0.3-0.3,0.6-0.5,0.9-0.7c0.4-0.3,0.8-0.6,1.1-0.9c0.3-0.3,0.7-0.5,1-0.9c0.1-0.1,0.2-0.1,0.2-0.2
			c0,0,0.1,0,0.1,0C38.4,32.7,38.8,32.5,38.8,33.4z"/>
		<path class="st4" d="M31.5,32.3c0,0.5,0,0.9,0,1.4c0,0.1,0,0.2,0,0.4c0,0.4,0,0.7,0,1.1c0,0.2,0,0.4,0,0.6c0,0.2,0,0.4,0,0.5
			c0,0.4,0,0.8,0,1.2c0,0.4,0,0.7,0,1.1c0,0.3-0.1,0.6-0.1,1c0,0.2,0,0.5,0,0.7c0,0.1,0,0.5-0.1,0.5c0,0,0.2,0,0.2,0
			c0.1,0,0.2,0,0.3,0c0.2,0,0.3,0,0.4,0.1c0.2,0,0.3,0.1,0.5,0.1c0.1,0,0.1,0,0.2,0c0.1,0,0.1,0,0.2,0c0-0.2,0-0.5,0-0.7
			c0-0.3,0-0.6,0-0.9c0-0.6-0.1-1.2-0.1-1.8c0-0.1,0-0.3,0-0.4c0-0.2,0-0.3,0.1-0.5c0-0.4,0-0.7,0.1-1.1c0-0.2,0-0.3,0-0.5
			c0-0.2,0-0.3,0-0.5c0-0.3,0-0.6,0-0.8c0-0.3,0-0.6,0-0.9c0-0.1,0-0.2,0-0.3c0-0.1,0-0.2,0-0.3c-0.1,0-0.1,0-0.2,0
			c-0.1,0-0.2-0.1-0.3-0.1c-0.1,0-0.2,0-0.2,0c-0.1,0-0.2,0-0.3-0.1c-0.2,0-0.3-0.2-0.5-0.2C31.7,32,31.6,32.1,31.5,32.3z"/>
	</g>
</g>
</svg>
