<?xml version="1.0" encoding="UTF-8" standalone="no"?>
<!-- Created with Inkscape (http://www.inkscape.org/) -->

<svg
   xmlns:dc="http://purl.org/dc/elements/1.1/"
   xmlns:cc="http://creativecommons.org/ns#"
   xmlns:rdf="http://www.w3.org/1999/02/22-rdf-syntax-ns#"
   xmlns:svg="http://www.w3.org/2000/svg"
   xmlns="http://www.w3.org/2000/svg"
   xmlns:sodipodi="http://sodipodi.sourceforge.net/DTD/sodipodi-0.dtd"
   xmlns:inkscape="http://www.inkscape.org/namespaces/inkscape"
   version="1.1"
   id="svg1870"
   xml:space="preserve"
   width="242.71426"
   height="274.14294"
   viewBox="0 0 242.71426 274.14294"
   sodipodi:docname="fano_no_labels.svg"
   inkscape:version="0.92.5 (2060ec1f9f, 2020-04-08)"><metadata
     id="metadata1876"><rdf:RDF><cc:Work
         rdf:about=""><dc:format>image/svg+xml</dc:format><dc:type
           rdf:resource="http://purl.org/dc/dcmitype/StillImage" /><dc:title></dc:title></cc:Work></rdf:RDF></metadata><defs
     id="defs1874"><clipPath
       clipPathUnits="userSpaceOnUse"
       id="clipPath1888"><path
         d="M 0,4.8916e-6 H 182.0357 V 205.6072 H 0 Z"
         id="path1886"
         inkscape:connector-curvature="0" /></clipPath></defs><sodipodi:namedview
     pagecolor="#ffffff"
     bordercolor="#666666"
     borderopacity="1"
     objecttolerance="10"
     gridtolerance="10"
     guidetolerance="10"
     inkscape:pageopacity="0"
     inkscape:pageshadow="2"
     inkscape:window-width="956"
     inkscape:window-height="1036"
     id="namedview1872"
     showgrid="false"
     inkscape:zoom="1.2174466"
     inkscape:cx="58.975951"
     inkscape:cy="181.64178"
     inkscape:window-x="960"
     inkscape:window-y="20"
     inkscape:window-maximized="0"
     inkscape:current-layer="g1878" /><g
     id="g1878"
     inkscape:groupmode="layer"
     inkscape:label="fano_no_labels"
     transform="matrix(1.3333333,0,0,-1.3333333,0,274.14293)"><g
       id="g1880" /><g
       id="g1882"><g
         id="g1884"
         clip-path="url(#clipPath1888)"><g
           id="g1890"
           transform="matrix(0.768397,0,0,-1,0,205.6072)"><path
             d="m 14.692,194.875 52.753,-91.367 52.747,-91.367 52.753,91.367 52.748,91.367 z"
             style="fill:none;stroke:#000000;stroke-width:1.71119106;stroke-linecap:round;stroke-linejoin:miter;stroke-miterlimit:4;stroke-dasharray:none;stroke-opacity:1"
             id="path1892"
             inkscape:connector-curvature="0" /></g><g
           id="g1894"
           transform="matrix(1,0,0,-1,0,205.6072)"><path
             d="m 145.266,141.645 c 0,28.98 -23.496,52.476 -52.481,52.476 -28.984,0 -52.48,-23.496 -52.48,-52.476 0,-28.985 23.496,-52.481 52.48,-52.481 28.985,0 52.481,23.496 52.481,52.481 z"
             style="fill:none;stroke:#000000;stroke-width:1.5;stroke-linecap:round;stroke-linejoin:miter;stroke-miterlimit:4;stroke-dasharray:none;stroke-opacity:1"
             id="path1896"
             inkscape:connector-curvature="0" /></g><g
           id="g1898"
           transform="matrix(1,0,0,-1,0,205.6072)"><path
             d="M 173.422,194.875 48.328,111.578"
             style="fill:none;stroke:#000000;stroke-width:1.5;stroke-linecap:butt;stroke-linejoin:miter;stroke-miterlimit:4;stroke-dasharray:none;stroke-opacity:1"
             id="path1900"
             inkscape:connector-curvature="0" /></g><g
           id="g1902"
           transform="matrix(1,0,0,-1,0,205.6072)"><path
             d="m 181.285,194.145 c 0,5.914 -4.797,10.71 -10.715,10.71 -5.918,0 -10.715,-4.796 -10.715,-10.71 0,-5.918 4.797,-10.715 10.715,-10.715 5.918,0 10.715,4.797 10.715,10.715 z"
             style="fill:#ffffff;fill-opacity:1;fill-rule:nonzero;stroke:#000000;stroke-width:1.5;stroke-linecap:round;stroke-linejoin:miter;stroke-miterlimit:4;stroke-dasharray:none;stroke-opacity:1"
             id="path1904"
             inkscape:connector-curvature="0" /></g><g
           id="g1906"
           transform="matrix(1,0,0,-1,0,205.6072)"><path
             d="M 136.387,111.578 11.289,194.875"
             style="fill:none;stroke:#000000;stroke-width:1.5;stroke-linecap:butt;stroke-linejoin:miter;stroke-miterlimit:4;stroke-dasharray:none;stroke-opacity:1"
             id="path1908"
             inkscape:connector-curvature="0" /></g><g
           id="g1910"
           transform="matrix(1,0,0,-1,0,205.6072)"><path
             d="m 22.18,194.145 c 0,5.914 -4.797,10.71 -10.715,10.71 -5.918,0 -10.715,-4.796 -10.715,-10.71 0,-5.918 4.797,-10.715 10.715,-10.715 5.918,0 10.715,4.797 10.715,10.715 z"
             style="fill:#ffffff;fill-opacity:1;fill-rule:nonzero;stroke:#000000;stroke-width:1.5;stroke-linecap:round;stroke-linejoin:miter;stroke-miterlimit:4;stroke-dasharray:none;stroke-opacity:1"
             id="path1912"
             inkscape:connector-curvature="0" /></g><g
           id="g1914"
           transform="matrix(1,0,0,-1,0,205.6072)"><path
             d="M 92.355,12.141 V 195.676"
             style="fill:none;stroke:#000000;stroke-width:1.5;stroke-linecap:butt;stroke-linejoin:miter;stroke-miterlimit:4;stroke-dasharray:none;stroke-opacity:1"
             id="path1916"
             inkscape:connector-curvature="0" /></g><g
           id="g1918"
           transform="matrix(1,0,0,-1,0,205.6072)"><path
             d="m 103.07,194.145 c 0,5.914 -4.797,10.71 -10.715,10.71 -5.914,0 -10.71,-4.796 -10.71,-10.71 0,-5.918 4.796,-10.715 10.71,-10.715 5.918,0 10.715,4.797 10.715,10.715 z"
             style="fill:#ffffff;fill-opacity:1;fill-rule:nonzero;stroke:#000000;stroke-width:1.5;stroke-linecap:round;stroke-linejoin:miter;stroke-miterlimit:4;stroke-dasharray:none;stroke-opacity:1"
             id="path1920"
             inkscape:connector-curvature="0" /></g><g
           id="g1922"
           transform="matrix(1,0,0,-1,0,205.6072)"><path
             d="m 59.008,110.559 c 0,5.918 -4.797,10.714 -10.715,10.714 -5.914,0 -10.711,-4.796 -10.711,-10.714 0,-5.914 4.797,-10.711 10.711,-10.711 5.918,0 10.715,4.797 10.715,10.711 z"
             style="fill:#ffffff;fill-opacity:1;fill-rule:nonzero;stroke:#000000;stroke-width:1.5;stroke-linecap:round;stroke-linejoin:miter;stroke-miterlimit:4;stroke-dasharray:none;stroke-opacity:1"
             id="path1924"
             inkscape:connector-curvature="0" /></g><g
           id="g1926"
           transform="matrix(1,0,0,-1,0,205.6072)"><path
             d="m 103.5,141.645 c 0,5.914 -4.797,10.71 -10.715,10.71 -5.918,0 -10.715,-4.796 -10.715,-10.71 0,-5.918 4.797,-10.715 10.715,-10.715 5.918,0 10.715,4.797 10.715,10.715 z"
             style="fill:#ffffff;fill-opacity:1;fill-rule:nonzero;stroke:#000000;stroke-width:1.5;stroke-linecap:round;stroke-linejoin:miter;stroke-miterlimit:4;stroke-dasharray:none;stroke-opacity:1"
             id="path1928"
             inkscape:connector-curvature="0" /></g><g
           id="g1930"
           transform="matrix(1,0,0,-1,0,205.6072)"><path
             d="m 146.785,110.559 c 0,5.918 -4.797,10.714 -10.715,10.714 -5.918,0 -10.715,-4.796 -10.715,-10.714 0,-5.914 4.797,-10.711 10.715,-10.711 5.918,0 10.715,4.797 10.715,10.711 z"
             style="fill:#ffffff;fill-opacity:1;fill-rule:nonzero;stroke:#000000;stroke-width:1.5;stroke-linecap:round;stroke-linejoin:miter;stroke-miterlimit:4;stroke-dasharray:none;stroke-opacity:1"
             id="path1932"
             inkscape:connector-curvature="0" /></g><g
           id="g1934"
           transform="matrix(1,0,0,-1,0,205.6072)"><path
             d="m 103.07,11.465 c 0,5.918 -4.797,10.715 -10.715,10.715 -5.914,0 -10.71,-4.797 -10.71,-10.715 0,-5.918 4.796,-10.715 10.71,-10.715 5.918,0 10.715,4.797 10.715,10.715 z"
             style="fill:#ffffff;fill-opacity:1;fill-rule:nonzero;stroke:#000000;stroke-width:1.5;stroke-linecap:round;stroke-linejoin:miter;stroke-miterlimit:4;stroke-dasharray:none;stroke-opacity:1"
             id="path1936"
             inkscape:connector-curvature="0" /></g></g></g><g
       id="g1938"><g
         id="g1940"
         transform="matrix(0.5454546,0,0,-0.5454546,0,205.6072)"><path
           d="m 173.7713,17.51725 c -0.3239,-0.03668 -0.6887,-0.04371 -1.0944,-0.02109 -0.4058,0.02262 -0.9056,0.16846 -1.4994,0.43751 -0.5939,0.26905 -0.9937,0.4752 -1.1995,0.61844 -0.2058,0.14325 -0.4878,0.37081 -0.846,0.68267 -0.3582,0.31187 -0.7685,0.68518 -1.2307,1.11994 -0.4623,0.43476 -0.9189,0.84401 -1.3697,1.22776 -0.4509,0.38375 -0.8806,0.72116 -1.2893,1.01224 -0.4087,0.29108 -0.7664,0.51944 -1.073,0.68509 -0.3067,0.16565 -0.5705,0.28225 -0.7914,0.34979 -0.2209,0.06754 -0.3023,0.0018 -0.2441,-0.19735 0.0581,-0.1991 0.223,-0.47776 0.4946,-0.83597 0.2716,-0.3582 0.6349,-0.78449 1.0898,-1.27884 0.455,-0.49436 0.9519,-0.98941 1.4908,-1.48515 0.539,-0.49574 1.3794,-1.23308 2.5212,-2.21202 1.1418,-0.97894 1.9652,-1.67425 2.4703,-2.08591 0.5051,-0.41167 0.9616,-0.77158 1.3696,-1.07971 0.408,-0.30814 0.7264,-0.53875 0.9551,-0.69184 0.2287,-0.15309 0.3934,-0.24748 0.4942,-0.28317 0.1008,-0.03569 0.1333,0.0099 0.0975,0.13676 -0.0357,0.12686 -0.1944,0.35559 -0.476,0.68619 -0.2816,0.3306 -0.6672,0.71929 -1.1567,1.16605 -0.4896,0.44676 -1.0307,0.89933 -1.6235,1.3577 -0.5929,0.45838 -1.1817,0.88575 -1.7665,1.28211 -0.5848,0.39637 -1.212,0.80186 -1.8816,1.21647 -0.6695,0.41462 -1.2967,0.79448 -1.8816,1.1396 -0.5848,0.34511 -1.1211,0.63886 -1.6089,0.88124 -0.4878,0.24238 -0.8981,0.41746 -1.231,0.52526 -0.333,0.10779 -0.578,0.17115 -0.735,0.19009 -0.157,0.01893 -0.2533,-0.04199 -0.2889,-0.18275 -0.0356,-0.14077 0.0258,-0.35778 0.1842,-0.65106 0.1584,-0.29327 0.4013,-0.61964 0.7288,-0.97912 0.3275,-0.35947 0.6826,-0.69983 1.0651,-1.02109 0.3826,-0.32126 0.7879,-0.64672 1.2157,-0.97638 0.4278,-0.32967 0.8189,-0.62409 1.1734,-0.88327 0.3544,-0.25917 0.6761,-0.5026 0.9652,-0.73027 0.289,-0.22767 0.6612,-0.54416 1.1164,-0.94947 0.4551,-0.4053 0.6611,-0.59363 0.6178,-0.56496 -0.0432,0.02866 -0.1514,0.10031 -0.3245,0.21496 -0.1731,0.11465 -0.395,0.24746 -0.6656,0.39844 -0.2707,0.15098 -0.5536,0.28459 -0.8487,0.40084 -0.2951,0.11625 -0.6937,0.22774 -1.196,0.33449 -0.5023,0.10674 -0.8159,0.2242 -0.9409,0.35236 -0.125,0.12816 -0.1395,0.16319 -0.0434,0.10509 0.0961,-0.05811 0.3364,-0.20337 0.7208,-0.43579 0.3844,-0.23242 0.6772,-0.39541 0.8783,-0.48898 0.2012,-0.09356 0.3398,-0.14788 0.4157,-0.16293 0.076,-0.01506 0.1192,-0.02362 0.1296,-0.02569 0.0105,-0.0021 0.008,0.003 -0.006,0.01511 -0.0145,0.01215 -0.0743,0.06235 -0.1794,0.15059 -0.1051,0.08824 -0.2839,0.28826 -0.5364,0.60005 -0.2525,0.31179 -0.5604,0.73519 -0.9236,1.27021 -0.3632,0.53502 -0.6352,0.95605 -0.8158,1.26308 -0.1807,0.30703 -0.3511,0.62773 -0.5112,0.96208 -0.1601,0.33436 -0.2971,0.65377 -0.4109,0.95825 -0.1138,0.30449 -0.1955,0.59525 -0.245,0.87228 -0.0496,0.27704 -0.0679,0.59546 -0.0551,0.95527 0.0129,0.3598 0.076,0.61174 0.1893,0.75582 0.1133,0.14407 0.3289,0.3301 0.6468,0.5581 0.3178,0.228 0.5662,0.39537 0.7452,0.50212 0.179,0.10675 0.5807,0.29181 1.2052,0.55518 0.6245,0.26337 1.1476,0.50718 1.5692,0.73143 0.4216,0.22426 0.7123,0.41422 0.8719,0.5699 0.1596,0.15567 0.3161,0.22189 0.4695,0.19865 0.1534,-0.02323 0.4311,-0.19107 0.833,-0.5035 0.4019,-0.31243 0.8075,-0.63666 1.2168,-0.97268 0.4094,-0.33603 0.8373,-0.65202 1.2837,-0.94798 0.4464,-0.29596 0.7577,-0.52278 0.9339,-0.68046 0.1761,-0.15768 0.3453,-0.3557 0.5073,-0.59406 0.1621,-0.23836 0.2922,-0.51203 0.3903,-0.82102 0.0981,-0.30899 0.1575,-0.57909 0.1783,-0.81029 0.0208,-0.2312 0.1227,-0.46486 0.3057,-0.70099 0.183,-0.23612 0.4479,-0.49465 0.7947,-0.7756 0.3467,-0.28095 0.6503,-0.51392 0.9106,-0.69892 0.2602,-0.185 0.4607,-0.33932 0.6012,-0.46295 0.1406,-0.12363 0.1952,-0.177 0.1638,-0.16011 -0.0313,0.0169 -0.1097,0.05913 -0.2351,0.1267 -0.1254,0.06757 -0.2639,0.2101 -0.4154,0.42759 -0.1516,0.21748 -0.2924,0.47547 -0.4224,0.77396 -0.13,0.29849 -0.3367,0.84381 -0.62,1.63594 -0.2834,0.79213 -0.5018,1.34508 -0.6552,1.65883 -0.1534,0.31376 -0.2896,0.55626 -0.4086,0.72752 -0.1191,0.17126 -0.2533,0.34391 -0.4027,0.51796 -0.1494,0.17405 -0.4023,0.40678 -0.7588,0.69819 -0.3565,0.29142 -0.7087,0.54616 -1.0567,0.76424 -0.3479,0.21807 -0.6022,0.35369 -0.7626,0.40687 -0.1605,0.05317 -0.4227,0.08435 -0.7866,0.09353 -0.3638,0.0092 -0.9136,0.007 -1.6491,-0.0066 -0.7356,-0.01358 -1.1573,0.01835 -1.265,0.09578 -0.1078,0.07744 -0.2098,0.2046 -0.3061,0.38149 -0.1384,0.25409 -0.2852,0.90373 -0.4406,1.94893"
           style="fill:none;stroke:#147a93;stroke-width:24;stroke-linecap:round;stroke-linejoin:round;stroke-miterlimit:10;stroke-dasharray:none;stroke-opacity:0.5"
           id="path1942"
           inkscape:connector-curvature="0" /></g><g
         id="g1944"
         transform="matrix(0.5454546,0,0,-0.5454546,0,205.6072)"><path
           d="m 256.5271,201.1215 c -0.0438,-0.2184 0.0264,-0.4359 0.2104,-0.6524 0.184,-0.2165 0.2959,-0.3939 0.3357,-0.5322 0.0399,-0.1383 0.002,-0.3025 -0.114,-0.4926 -0.1159,-0.1901 -0.2706,-0.3449 -0.4641,-0.4643 -0.1935,-0.1194 -0.4117,-0.1885 -0.6546,-0.2074 -0.2429,-0.0189 -0.4372,-0.0443 -0.583,-0.0762 -0.1457,-0.0319 -0.354,-0.1186 -0.6251,-0.2602 -0.271,-0.1415 -0.5614,-0.2711 -0.8711,-0.3887 -0.3097,-0.1176 -0.6262,-0.2056 -0.9497,-0.264 -0.3235,-0.0585 -0.675,-0.0963 -1.0546,-0.1137 -0.3797,-0.0174 -1.2262,-0.0261 -2.5395,-0.0262 -1.3134,-1e-4 -2.1025,0.0254 -2.3673,0.0764 -0.2648,0.051 -0.4985,0.0899 -0.7012,0.1166 -0.2027,0.0268 -0.3944,0.0721 -0.5753,0.1361 -0.1808,0.064 -0.3788,0.2043 -0.5938,0.4208 -0.2149,0.2165 -0.4627,0.5281 -0.7434,0.9346 -0.2806,0.4066 -0.4935,0.7151 -0.6386,0.9255 -0.1451,0.2104 -0.3369,0.5548 -0.5754,1.0332 -0.2385,0.4785 -0.4064,0.898 -0.5037,1.2588 -0.0973,0.3608 -0.1506,0.7477 -0.1599,1.1607 -0.009,0.4131 0.0303,0.739 0.1189,0.9777 0.0885,0.2387 0.2793,0.5348 0.5723,0.8881 0.2929,0.3533 0.5761,0.6884 0.8493,1.0053 0.2733,0.3169 0.5435,0.6194 0.8107,0.9078 0.2671,0.2883 0.5051,0.5295 0.7142,0.7236 0.209,0.194 0.3951,0.3425 0.5582,0.4453 0.1632,0.1027 0.6266,0.2207 1.3904,0.3538 0.7637,0.1331 1.3165,0.2038 1.6582,0.2121 0.3417,0.008 0.6457,-0.0105 0.912,-0.0566 0.2662,-0.046 0.5098,-0.1021 0.7308,-0.1682 0.221,-0.0661 0.4924,-0.1317 0.8142,-0.1969 0.3217,-0.0653 0.5722,-0.1472 0.7514,-0.246 0.1792,-0.0987 0.3637,-0.2378 0.5533,-0.4173 0.1897,-0.1794 0.3818,-0.3968 0.5763,-0.6521 0.1946,-0.2552 0.3678,-0.5578 0.5197,-0.9077 0.1519,-0.3499 0.286,-0.6875 0.4022,-1.0128 0.1161,-0.3253 0.2038,-0.6167 0.263,-0.874 0.0591,-0.2573 0.1146,-0.5697 0.1662,-0.9372 0.0517,-0.3675 0.0815,-0.8757 0.0892,-1.5245 0.008,-0.6488 -0.033,-1.1033 -0.1225,-1.3635 -0.0895,-0.2602 -0.2428,-0.5321 -0.4598,-0.8158 -0.2172,-0.2836 -0.4251,-0.4831 -0.624,-0.5985 -0.1989,-0.1153 -0.4455,-0.2204 -0.7399,-0.3153 -0.2944,-0.0949 -0.5837,-0.2322 -0.8681,-0.412 -0.2843,-0.1798 -0.5316,-0.3273 -0.742,-0.4426 -0.2103,-0.1153 -0.372,-0.2191 -0.4852,-0.3113 -0.1131,-0.0922 -0.2212,-0.1583 -0.3242,-0.1983 -0.103,-0.0399 -0.1682,-0.0652 -0.1956,-0.0759"
           style="fill:none;stroke:#147a93;stroke-width:24;stroke-linecap:round;stroke-linejoin:round;stroke-miterlimit:10;stroke-dasharray:none;stroke-opacity:0.5"
           id="path1946"
           inkscape:connector-curvature="0" /></g><g
         id="g1948"
         transform="matrix(0.5454546,0,0,-0.5454546,0,205.6072)"><path
           d="m 95.61263,202.2351 c -0.02199,0.0956 -0.13101,0.1501 -0.32707,0.1634 -0.13388,0.009 -0.20207,-0.0647 -0.20458,-0.2217 -0.0025,-0.1569 0.05262,-0.3746 0.16539,-0.6533 0.11277,-0.2787 0.17846,-0.5936 0.19707,-0.9448 0.01861,-0.3511 -1.4e-4,-0.6609 -0.05626,-0.9294 -0.05611,-0.2685 -0.10917,-0.4719 -0.15918,-0.6103 -0.05001,-0.1383 -0.17483,-0.3061 -0.37445,-0.5034 -0.19962,-0.1972 -0.35799,-0.3928 -0.47509,-0.5867 -0.11711,-0.1939 -0.22539,-0.3449 -0.32486,-0.4531 -0.09946,-0.1081 -0.26157,-0.2316 -0.48632,-0.3704 -0.22476,-0.1387 -0.52352,-0.2162 -0.89629,-0.2322 -0.37276,-0.0161 -0.72461,-0.0453 -1.05556,-0.0877 -0.33094,-0.0423 -0.62286,-0.1026 -0.87576,-0.181 -0.25289,-0.0783 -0.64932,-0.1506 -1.18926,-0.2169 -0.53995,-0.0663 -1.05639,-0.0999 -1.54933,-0.1009 -0.49293,-0.001 -0.8828,0.1365 -1.16961,0.4125 -0.2868,0.276 -0.52743,0.5222 -0.72186,0.7386 -0.19443,0.2164 -0.36,0.3757 -0.49672,0.4778 -0.13671,0.1021 -0.26622,0.1789 -0.38853,0.2304 -0.12231,0.0515 -0.31748,0.198 -0.58552,0.4394 -0.26804,0.2415 -0.49198,0.4975 -0.67182,0.7681 -0.17985,0.2705 -0.34687,0.5418 -0.50109,0.8138 -0.15421,0.2719 -0.27124,0.5457 -0.35109,0.8212 -0.07986,0.2754 -0.12402,0.6135 -0.13249,1.0143 -0.0085,0.4007 -0.0051,0.7392 0.01019,1.0154 0.01527,0.2762 0.05363,0.5087 0.1151,0.6974 0.06146,0.1887 0.19348,0.4639 0.39607,0.8254 0.20259,0.3615 0.39344,0.653 0.57255,0.8743 0.17912,0.2213 0.3052,0.4255 0.37823,0.6126 0.07303,0.187 0.16609,0.356 0.27917,0.5072 0.11307,0.1511 0.27476,0.3387 0.48507,0.5629 0.21032,0.2242 0.38606,0.3732 0.52723,0.4472 0.14116,0.0739 0.49907,0.1156 1.07373,0.1249 0.57467,0.009 1.07736,-0.0366 1.50806,-0.1377 0.43071,-0.1011 0.76829,-0.18 1.01275,-0.2365 0.24447,-0.0566 0.50391,-0.1539 0.77832,-0.2918 0.27441,-0.138 0.45522,-0.2037 0.5424,-0.1973 0.08719,0.007 0.15017,0.0701 0.18894,0.1907 0.03877,0.1205 0.05439,0.2205 0.04684,0.2998 -0.0075,0.0794 -0.11289,0.2107 -0.31605,0.3939 -0.20317,0.1833 -0.40967,0.334 -0.61951,0.452 -0.20984,0.1181 -0.42683,0.1899 -0.65097,0.2155 -0.22414,0.0256 -0.44194,0.0911 -0.65339,0.1966 -0.21145,0.1054 -0.37037,0.1906 -0.47677,0.2556 -0.1064,0.065 -0.29627,0.0984 -0.5696,0.1001 -0.27333,0.002 -0.54621,-0.0427 -0.81863,-0.1332 -0.27243,-0.0906 -0.55071,-0.2154 -0.83485,-0.3745 -0.28413,-0.1591 -0.58485,-0.3538 -0.90215,-0.5839 -0.3173,-0.2301 -0.54323,-0.4191 -0.67779,-0.567 -0.13455,-0.1478 -0.25737,-0.3299 -0.36844,-0.5461 -0.11107,-0.2162 -0.19273,-0.4403 -0.24496,-0.6723 -0.05223,-0.2319 -0.09628,-0.4778 -0.13215,-0.7375 -0.03588,-0.2598 -0.06519,-0.6006 -0.08793,-1.0226 -0.02275,-0.4219 -0.0516,-0.7664 -0.08657,-1.0334 -0.03496,-0.2671 -0.09116,-0.5452 -0.1686,-0.8345 -0.07744,-0.2892 -0.15213,-0.5395 -0.2241,-0.7507 -0.07196,-0.2113 -0.1168,-0.5532 -0.13452,-1.0256 -0.01772,-0.4724 0.02882,-0.8246 0.13961,-1.0566 0.1108,-0.2319 0.28166,-0.5352 0.51258,-0.9096 0.23093,-0.3745 0.40219,-0.6754 0.51377,-0.9029 0.11159,-0.2274 0.12337,-0.3474 0.03535,-0.3601 -0.08802,-0.0126 -0.23356,0.0534 -0.43663,0.1979 -0.20307,0.1446 -0.35838,0.2864 -0.46591,0.4255 -0.10754,0.1391 -0.29064,0.4805 -0.54929,1.0243 -0.25866,0.5439 -0.49317,1.0972 -0.70355,1.66 -0.21037,0.5628 -0.34217,1.0507 -0.39538,1.4637 -0.05323,0.4129 -0.07648,0.7751 -0.06977,1.0864 0.0067,0.3114 0.0586,0.5906 0.15564,0.8379 0.09705,0.2472 0.2484,0.5275 0.45406,0.8409 0.20566,0.3133 0.39381,0.5529 0.56443,0.7188 0.17062,0.1659 0.54453,0.4415 1.12171,0.8266 0.57718,0.3851 0.99223,0.6528 1.24514,0.8032 0.25291,0.1503 0.51216,0.284 0.77775,0.4009 0.26558,0.1169 0.60976,0.2271 1.03254,0.3305 0.42277,0.1035 0.92489,0.2168 1.50634,0.3399 0.58144,0.1232 1.17724,0.189 1.78738,0.1975 0.61015,0.008 1.1092,0.0161 1.49716,0.0229 0.38797,0.007 0.68824,-0.007 0.90083,-0.0416 0.21259,-0.0345 0.38766,-0.0824 0.52522,-0.1436 0.13757,-0.0612 0.31164,-0.1816 0.52223,-0.3611 0.21059,-0.1795 0.38308,-0.3714 0.51747,-0.5757 0.13439,-0.2043 0.21265,-0.365 0.23479,-0.4822 0.03104,-0.1644 -0.11493,-0.2333 -0.43793,-0.2066"
           style="fill:none;stroke:#147a93;stroke-width:24;stroke-linecap:round;stroke-linejoin:round;stroke-miterlimit:10;stroke-dasharray:none;stroke-opacity:0.5"
           id="path1950"
           inkscape:connector-curvature="0" /></g><g
         id="g1952"
         transform="matrix(0.5454546,0,0,-0.5454546,0,205.6072)"><path
           d="m 177.594,258.0672 c 0.0901,-0.6076 0.1313,-1.0159 0.1236,-1.2249 -0.005,-0.1449 -0.1136,-0.3929 -0.3252,-0.7442 -0.2115,-0.3512 -0.389,-0.6215 -0.5326,-0.8108 -0.1436,-0.1893 -0.343,-0.3936 -0.5982,-0.6129 -0.2552,-0.2193 -0.4651,-0.4152 -0.6297,-0.5877 -0.1647,-0.1725 -0.3612,-0.3094 -0.5896,-0.4108 -0.2284,-0.1015 -0.5608,-0.1952 -0.9972,-0.2813 -0.4364,-0.086 -0.8681,-0.2225 -1.2951,-0.4094 -0.427,-0.1869 -0.7725,-0.317 -1.0367,-0.3902 -0.2641,-0.0733 -0.7253,-0.1357 -1.3836,-0.1873 -0.6582,-0.0515 -1.1355,-0.0777 -1.4317,-0.0785 -0.2962,-8e-4 -0.6212,0.0519 -0.9751,0.1581 -0.3539,0.1062 -0.6023,0.2009 -0.7452,0.2841 -0.1428,0.0831 -0.3466,0.251 -0.6115,0.5036 -0.2648,0.2526 -0.5338,0.523 -0.8071,0.8112 -0.2733,0.2881 -0.5341,0.539 -0.7823,0.7526 -0.2483,0.2136 -0.4633,0.4235 -0.645,0.6299 -0.1817,0.2063 -0.3272,0.4289 -0.4366,0.6678 -0.1094,0.2389 -0.2111,0.5145 -0.3053,0.8269 -0.0941,0.3124 -0.1921,0.6927 -0.2939,1.1409 -0.1018,0.4482 -0.165,0.7999 -0.1895,1.055 -0.0245,0.2551 -0.0371,0.5145 -0.038,0.7781 -8e-4,0.2636 0.0557,0.5554 0.1697,0.8753 0.1139,0.32 0.3001,0.7252 0.5584,1.2156 0.2584,0.4904 0.5174,0.9249 0.7771,1.3033 0.2597,0.3785 0.4864,0.6693 0.68,0.8724 0.1936,0.2032 0.5705,0.5602 1.1308,1.071 0.5602,0.5109 0.9622,0.8475 1.2059,1.0097 0.2436,0.1623 0.5085,0.2887 0.7947,0.3794 0.2861,0.0907 0.6626,0.1447 1.1296,0.1618 0.467,0.0172 0.9521,0.0258 1.4554,0.0258 0.5033,0 0.845,-0.003 1.025,-0.009 0.18,-0.006 0.363,-0.0288 0.5491,-0.0681 0.186,-0.0393 0.3693,-0.0936 0.5499,-0.1628 0.1805,-0.0691 0.428,-0.2027 0.7424,-0.4006 0.3144,-0.198 0.6338,-0.431 0.9583,-0.6992 0.3245,-0.2682 0.5614,-0.4827 0.7106,-0.6437 0.1492,-0.161 0.3078,-0.375 0.4758,-0.642 0.1681,-0.2671 0.3799,-0.6464 0.6355,-1.1379 0.2557,-0.4916 0.4099,-0.7976 0.4626,-0.918 0.0757,-0.1727 0.3672,-0.351 0.8746,-0.5348"
           style="fill:none;stroke:#147a93;stroke-width:24;stroke-linecap:round;stroke-linejoin:round;stroke-miterlimit:10;stroke-dasharray:none;stroke-opacity:0.5"
           id="path1954"
           inkscape:connector-curvature="0" /></g><g
         id="g1956"
         transform="matrix(0.5454546,0,0,-0.5454546,0,205.6072)"><path
           d="m 30.38095,351.4056 c -0.11252,0.0725 -0.29009,0.0378 -0.5327,-0.1038 -0.24261,-0.1417 -0.41061,-0.2515 -0.50398,-0.3293 -0.09337,-0.0777 -0.22025,-0.2784 -0.38063,-0.602 -0.16039,-0.3235 -0.31497,-0.5782 -0.46375,-0.764 -0.14879,-0.1857 -0.27364,-0.3228 -0.37457,-0.4112 -0.10092,-0.0883 -0.24062,-0.1763 -0.41911,-0.2639 -0.17849,-0.0876 -0.39599,-0.1571 -0.6525,-0.2087 -0.25651,-0.0515 -0.52518,-0.0879 -0.806,-0.1091 -0.28082,-0.0211 -1.26355,-0.0321 -2.9482,-0.0328 -1.68466,-8e-4 -2.63566,0.0117 -2.85303,0.0374 -0.21736,0.0256 -0.52799,0.1063 -0.9319,0.2419 -0.40391,0.1356 -0.73343,0.2676 -0.98856,0.3959 -0.25512,0.1283 -0.47054,0.2947 -0.64625,0.4991 -0.17571,0.2045 -0.36122,0.4893 -0.55652,0.8544 -0.1953,0.3652 -0.41211,0.7211 -0.65045,1.068 -0.23834,0.3468 -0.42249,0.7012 -0.55245,1.0633 -0.12996,0.362 -0.24932,0.7372 -0.3581,1.1255 -0.10877,0.3883 -0.22792,0.7912 -0.35744,1.2087 -0.12953,0.4174 -0.21749,0.8327 -0.2639,1.2456 -0.04641,0.413 -0.07013,1.0321 -0.07114,1.8573 -10e-4,0.8253 0.02624,1.3427 0.08175,1.5525 0.05551,0.2097 0.12255,0.3824 0.20112,0.518 0.07857,0.1356 0.20027,0.293 0.36512,0.4724 0.16484,0.1793 0.37643,0.3564 0.63476,0.5313 0.25833,0.1748 0.50173,0.3194 0.7302,0.4336 0.22847,0.1142 0.45138,0.2463 0.66872,0.3963 0.21735,0.15 0.52461,0.3984 0.92179,0.7455 0.39719,0.347 0.72448,0.5972 0.98189,0.7506 0.25742,0.1534 0.51596,0.2623 0.77565,0.3266 0.25969,0.0643 0.54329,0.1008 0.85082,0.1093 0.30753,0.009 0.70228,-0.0495 1.18427,-0.1743 0.48198,-0.1248 0.93408,-0.2243 1.3563,-0.2984 0.42222,-0.0741 0.74612,-0.1663 0.97171,-0.2766 0.22558,-0.1103 0.38627,-0.2168 0.48206,-0.3195 0.0958,-0.1027 0.21328,-0.312 0.35245,-0.6277 0.13917,-0.3158 0.2867,-0.735 0.44258,-1.2575 0.15587,-0.5225 0.26661,-0.813 0.33222,-0.8713 0.09338,-0.0831 0.37968,-0.0281 0.85891,0.165"
           style="fill:none;stroke:#147a93;stroke-width:24;stroke-linecap:round;stroke-linejoin:round;stroke-miterlimit:10;stroke-dasharray:none;stroke-opacity:0.5"
           id="path1958"
           inkscape:connector-curvature="0" /></g><g
         id="g1960"
         transform="matrix(0.5454546,0,0,-0.5454546,0,205.6072)"><path
           d="m 173.4408,350.2118 c -0.184,0.0337 -0.2608,-0.0231 -0.2304,-0.1704 0.0219,-0.106 0.0699,-0.2063 0.1441,-0.3009 0.0742,-0.0945 0.1083,-0.1875 0.1024,-0.2788 -0.006,-0.0914 -0.1481,-0.2271 -0.4265,-0.4073 -0.2783,-0.1801 -0.6122,-0.3354 -1.0015,-0.466 -0.3893,-0.1305 -0.8039,-0.2569 -1.2438,-0.3794 -0.4398,-0.1224 -0.7997,-0.2168 -1.0797,-0.2832 -0.2799,-0.0663 -0.5642,-0.1109 -0.8527,-0.1337 -0.2886,-0.0228 -0.5634,-0.0342 -0.8246,-0.0343 -0.2611,-10e-5 -0.5467,0.0557 -0.8569,0.1672 -0.3101,0.1115 -0.5945,0.2484 -0.8532,0.4105 -0.2587,0.1621 -0.4682,0.3046 -0.6284,0.4274 -0.1602,0.1228 -0.3996,0.2814 -0.718,0.4757 -0.3184,0.1944 -0.5459,0.3554 -0.6825,0.4829 -0.1366,0.1275 -0.2762,0.3063 -0.4189,0.5362 -0.1426,0.2299 -0.2813,0.5429 -0.4159,0.9388 -0.1346,0.3959 -0.2388,0.8497 -0.3126,1.3614 -0.0738,0.5117 -0.119,1.0472 -0.1358,1.6065 -0.0168,0.5592 -0.005,0.9995 0.0352,1.321 0.0404,0.3215 0.1844,0.8097 0.4322,1.4648 0.2478,0.6551 0.437,1.1404 0.5676,1.456 0.1306,0.3156 0.2677,0.6221 0.4112,0.9195 0.1435,0.2975 0.3042,0.6029 0.4819,0.9162 0.1777,0.3134 0.3671,0.6086 0.5681,0.8856 0.201,0.277 0.459,0.5729 0.7741,0.8876 0.3152,0.3148 0.5874,0.5451 0.8167,0.6912 0.2293,0.146 0.4764,0.2711 0.7414,0.3753 0.2649,0.1042 0.5347,0.1793 0.8094,0.2254 0.2747,0.0461 0.6346,0.0735 1.0795,0.0822 0.4449,0.009 0.9016,-0.0393 1.37,-0.1439 0.4684,-0.1046 0.7751,-0.1781 0.9202,-0.2205 0.145,-0.0424 0.4063,-0.0835 0.784,-0.1234 0.3777,-0.0399 0.74,-0.0732 1.087,-0.0999 0.347,-0.0268 0.6526,-0.0917 0.9168,-0.1949 0.2642,-0.1032 0.5402,-0.2467 0.8279,-0.4305 0.2877,-0.1838 0.5067,-0.3388 0.6571,-0.465 0.1504,-0.1262 0.3429,-0.3287 0.5776,-0.6075 0.2347,-0.2788 0.46,-0.5761 0.6758,-0.8918 0.2158,-0.3158 0.3721,-0.566 0.469,-0.7507 0.0968,-0.1847 0.2433,-0.3594 0.4393,-0.5239 0.285,-0.2393 0.7791,-0.5413 1.4821,-0.9062"
           style="fill:none;stroke:#147a93;stroke-width:24;stroke-linecap:round;stroke-linejoin:round;stroke-miterlimit:10;stroke-dasharray:none;stroke-opacity:0.5"
           id="path1962"
           inkscape:connector-curvature="0" /></g><g
         id="g1964"
         transform="matrix(0.5454546,0,0,-0.5454546,0,205.6072)"><path
           d="m 316.9481,348.7161 c -0.1663,0.2013 -0.3372,0.185 -0.5128,-0.0492 -0.1262,-0.1682 -0.2585,-0.2998 -0.3971,-0.3949 -0.1385,-0.0951 -0.2926,-0.1581 -0.462,-0.1891 -0.1695,-0.0309 -0.439,-0.0465 -0.8085,-0.0466 -0.3695,0 -0.8796,0.0422 -1.5302,0.1267 -0.6507,0.0846 -1.2069,0.1419 -1.6688,0.1721 -0.4618,0.0302 -0.8201,0.0732 -1.0747,0.1289 -0.2547,0.0557 -0.6131,0.1917 -1.0752,0.4082 -0.4622,0.2164 -0.7791,0.3972 -0.9509,0.5424 -0.1718,0.1452 -0.3756,0.3703 -0.6114,0.6753 -0.2358,0.3051 -0.4711,0.6426 -0.7059,1.0127 -0.2348,0.37 -0.4533,0.9663 -0.6554,1.7887 -0.2021,0.8224 -0.337,1.4055 -0.4048,1.7491 -0.0678,0.3436 -0.1102,0.7475 -0.127,1.2117 -0.0168,0.4642 0.0131,0.8684 0.0897,1.2126 0.0767,0.3442 0.1302,0.6547 0.1606,0.9315 0.0305,0.2768 0.0465,0.7444 0.048,1.4027 0.002,0.6584 0.0368,1.0998 0.1058,1.3243 0.069,0.2245 0.1615,0.4337 0.2776,0.6277 0.1162,0.194 0.2471,0.3581 0.3927,0.4923 0.1457,0.1342 0.3047,0.2485 0.4769,0.343 0.1723,0.0945 0.5139,0.2154 1.0248,0.3627 0.5109,0.1473 0.9361,0.2528 1.2757,0.3165 0.3395,0.0637 0.635,0.1282 0.8862,0.1936 0.2513,0.0653 0.4737,0.11 0.6674,0.1341 0.1937,0.0241 0.4054,0.0366 0.6351,0.0377 0.2297,0.001 0.5502,-0.0455 0.9614,-0.1398 0.4113,-0.0942 0.7316,-0.1866 0.9611,-0.2771 0.2294,-0.0905 0.5318,-0.2829 0.9071,-0.577 0.3753,-0.2942 0.6961,-0.5235 0.9622,-0.6881 0.2662,-0.1646 0.4893,-0.3285 0.6692,-0.4916 0.18,-0.1631 0.3751,-0.3717 0.5855,-0.6257 0.2104,-0.2541 0.4238,-0.5952 0.6403,-1.0234 0.2166,-0.4281 0.3802,-0.7415 0.4909,-0.94 0.1108,-0.1985 0.2019,-0.4261 0.2735,-0.6829 0.0717,-0.2567 0.1788,-0.5359 0.3214,-0.8376 0.1426,-0.3017 0.2298,-0.5499 0.2617,-0.7446 0.032,-0.1947 0.048,-0.408 0.0482,-0.6399 10e-5,-0.2319 -0.0571,-0.443 -0.1716,-0.6334 -0.1145,-0.1904 -0.2078,-0.4259 -0.2799,-0.7064 -0.072,-0.2806 -0.0958,-0.3985 -0.0712,-0.3539 0.0352,0.0639 0.1457,0.2648 0.3316,0.6027"
           style="fill:none;stroke:#147a93;stroke-width:24;stroke-linecap:round;stroke-linejoin:round;stroke-miterlimit:10;stroke-dasharray:none;stroke-opacity:0.5"
           id="path1966"
           inkscape:connector-curvature="0" /></g></g></g></svg>