<?xml version="1.0" encoding="utf-8"?>
<!-- Generator: Adobe Illustrator 27.2.0, SVG Export Plug-In . SVG Version: 6.00 Build 0)  -->
<svg version="1.1" id="Layer_1" xmlns="http://www.w3.org/2000/svg" xmlns:xlink="http://www.w3.org/1999/xlink" x="0px" y="0px"
	 viewBox="0 0 300 200" style="enable-background:new 0 0 300 200;" xml:space="preserve">
<style type="text/css">
	.st0{fill:#FFE096;stroke:#000000;stroke-linecap:round;stroke-linejoin:round;stroke-miterlimit:10;}
	.st1{fill:#BCBABA;stroke:#000000;stroke-linecap:round;stroke-linejoin:round;stroke-miterlimit:10;}
	.st2{fill:#DAD8D8;stroke:#000000;stroke-linecap:round;stroke-linejoin:round;stroke-miterlimit:10;}
	.st3{fill:#E1EBA8;stroke:#000000;stroke-linecap:round;stroke-linejoin:round;stroke-miterlimit:10;}
	.st4{fill:#70CEFF;stroke:#000000;stroke-linecap:round;stroke-linejoin:round;stroke-miterlimit:10;}
	.st5{fill:#D7A2F6;stroke:#000000;stroke-linecap:round;stroke-linejoin:round;stroke-miterlimit:10;}
	.st6{fill:#FF87EB;stroke:#000000;stroke-linecap:round;stroke-linejoin:round;stroke-miterlimit:10;}
	.st7{fill:none;stroke:#000000;stroke-linecap:round;stroke-linejoin:round;stroke-miterlimit:10;}
	.st8{fill:#ACE3FF;stroke:#000000;stroke-linecap:round;stroke-linejoin:round;stroke-miterlimit:10;}
	.st9{fill:#C8ECFD;stroke:#000000;stroke-linecap:round;stroke-linejoin:round;stroke-miterlimit:10;}
	.st10{fill:#B7F2ED;stroke:#000000;stroke-linecap:round;stroke-linejoin:round;stroke-miterlimit:10;}
	.st11{fill:#F0EEEF;stroke:#000000;stroke-linecap:round;stroke-linejoin:round;stroke-miterlimit:10;}
	.st12{fill:#C756B2;stroke:#000000;stroke-linecap:round;stroke-linejoin:round;stroke-miterlimit:10;}
	.st13{fill:#FFB5F1;stroke:#000000;stroke-linecap:round;stroke-linejoin:round;stroke-miterlimit:10;}
	.st14{fill:#FFEEBF;stroke:#000000;stroke-linecap:round;stroke-linejoin:round;stroke-miterlimit:10;}
	.st15{fill:none;stroke:#FFFFFF;stroke-linecap:round;stroke-linejoin:round;stroke-miterlimit:10;}
</style>
<g>
	<g>
		<path class="st0" d="M50.2,139.3c-1.7-0.1-3.4-0.2-5.2-0.2c-0.9,0-1.7-0.1-2.6,0c-0.9,0.1-1.8,0.1-2.6,0.1c-0.9,0-1.7-0.1-2.6-0.1
			c-0.5,0-1,0.1-1.5,0.1c-0.4,0-0.8-0.1-1.3-0.1c-0.7,0-1.4,0-2.1,0c-0.7-0.1-1.4-0.1-2.1-0.2c-0.5-0.1-1-0.1-1.5-0.1
			c-0.6,0-1.3-0.1-1.9,0.2c-0.5,0.3-1,1-1.4,1.4c-0.6,0.6-1.2,1.3-1.8,2c-0.5,0.6-1.1,1.3-1.6,1.8c-0.5,0.5-1,0.9-1.5,1.3
			c-0.4,0.4-0.9,0.7-1.3,1.1c-0.2,0.2-0.5,0.3-0.6,0.5c0.3,0.3,0.6,0.7,0.8,1c0.5,0.6,0.9,1.2,1.5,1.7c1.5,1.4,3.1,2.7,5.1,3.6
			c1.2,0.5,2.3,0.7,3.6,0.9c0.8,0.1,1.5,0.3,2.3,0.3c0.6,0,1.2,0,1.7,0.1c0.8,0,1.6,0,2.4,0c0.8,0,1.6-0.2,2.4-0.4
			c0.6-0.1,1.2-0.1,1.8-0.2c0.6-0.1,1.2-0.3,1.9-0.4c1.1-0.2,2.1-0.7,3.1-0.9c0.9-0.2,1.8-0.5,2.7-0.7c1.5-0.3,2.8-1,4.2-1.5
			c0.6-0.2,1.1-0.4,1.6-0.8c0.4-0.3,0.8-0.6,1.3-0.8c0.4-0.2,0.8-0.7,1.3-0.8c-0.2-0.1-0.3-0.4-0.4-0.5c-0.4-0.5-0.7-1.1-1.1-1.6
			c-0.4-0.6-0.9-1.1-1.4-1.6c-0.4-0.5-0.6-1.2-1-1.8c-0.5-0.7-0.8-1.5-1.2-2.2C51,140.1,50.6,139.7,50.2,139.3z"/>
		<path class="st0" d="M18.9,166.6c0.6,0,1.1,0,1.7,0c0.6,0,1.2-0.1,1.8-0.1c0.2,0,0.4,0.1,0.6,0.1c0.7,0.1,1.2,0,1.9-0.1
			c0.4,0,0.9,0,1.3,0c0.4,0,0.8-0.1,1.2-0.1c0.8,0,1.5,0.1,2.3,0c0.5-0.1,0.9-0.1,1.5-0.1c0.6,0.1,1.1,0.1,1.6,0.1
			c1.3,0,2.6,0,3.9,0.1c0.6,0,1.3,0,1.9,0c0.4,0,0.7,0.1,1.1,0.1c0.3,0,0.7,0,1,0c1.1,0,2.2,0,3.3,0c0.6,0,1.2,0,1.8,0
			c0.6-0.1,1.1-0.1,1.7-0.1c1.8,0,3.6-0.1,5.4-0.2c1-0.1,1.9-0.2,2.9-0.2c0.4,0,1.3,0.2,1.4-0.3c0.1-0.4,0-1.1,0-1.5
			c-0.1-0.9,0.1-1.7,0-2.6c-0.1-0.5-0.1-1-0.2-1.5c-0.1-0.6-0.1-1.3-0.2-1.9c-0.1-0.7-0.1-1.4-0.2-2.1c-0.1-0.7-0.1-1.5-0.2-2.2
			c0-0.7-0.3-1.4-0.3-2.2c-0.1-0.6,0-1.2-0.1-1.7c-0.1-0.6-0.4-1.2-0.3-1.8c-0.2,0-0.3,0.1-0.5,0.1c-0.6,0.1-1.2,0-1.8,0
			c-1.4-0.1-2.9,0.1-4.3,0c-0.7,0-1.4-0.1-2.2,0c-0.7,0-1.3-0.1-2-0.1c-0.8,0-1.5,0-2.3,0c-0.4,0-0.8,0-1.1,0
			c-0.6,0-1.2-0.1-1.8-0.1c-0.4,0-0.9,0.1-1.3,0c-0.6,0-1.1-0.1-1.7-0.1c-1,0-1.9-0.1-2.8-0.1c-1.7,0-3.3-0.1-5-0.1
			c-0.7,0-1.3,0.1-2,0c-0.6-0.1-1.2,0-1.8,0c-0.5,0-1,0-1.6-0.1c-0.5-0.1-0.9,0-1.4,0c-0.5,0-1.1,0-1.6,0c-0.3,0-0.7,0-1,0
			c-0.4-0.1-0.9-0.2-1.3-0.3c-0.1,0.2,0.1,0.6,0.2,0.8c0.1,0.5,0.3,1,0.3,1.6c0.2,1.2,0.3,2.4,0.3,3.5c0,0.6-0.1,1.1-0.1,1.7
			c0,0.6,0.1,1.2,0.1,1.8c0,1-0.2,2-0.1,3c0.1,0.9-0.1,1.8-0.2,2.8c0,0.7-0.1,1.4-0.2,2.2C18.7,165.2,18.8,166.1,18.9,166.6z"/>
		<path class="st1" d="M47.4,162.1c-0.4,0.2-0.7,0.4-1,0.7c-0.7,0.5-1.2,1.2-1.6,2c-0.3,0.6-0.5,1.1-0.6,1.8c-0.1,0.6,0,1.3,0,2
			c0.1,1,0.8,2,1.6,2.7c0.8,0.7,1.9,1,3,0.9c0.5,0,1-0.1,1.5-0.3c0.4-0.2,0.8-0.5,1.2-0.7c0.8-0.5,1.4-1.2,2-1.9
			c0.5-0.5,0.8-1.3,0.8-2c0-0.4-0.1-0.8-0.2-1.2c-0.1-0.4-0.1-0.8-0.4-1.2c-0.3-0.4-0.6-0.8-0.8-1.1c-0.2-0.3-0.5-0.6-0.8-0.8
			C51.1,162.2,48.1,161.7,47.4,162.1z"/>
		<path class="st2" d="M48.2,163.4c-0.3,0-0.7,0.2-1,0.4c-0.3,0.3-0.6,0.5-0.8,0.9c-0.4,0.5-0.6,1.1-0.7,1.7c-0.1,0.6-0.2,1.1,0,1.7
			c0.1,0.3,0.2,0.6,0.3,0.9c0.1,0.2,0.2,0.5,0.4,0.7c1,1,2.6,0.7,3.9,0.6c0.8-0.1,1.4-0.6,1.8-1.3c0.4-0.5,0.8-1.2,0.7-1.9
			c-0.1-0.4-0.2-0.9-0.4-1.3c-0.3-0.6-0.5-1.4-1.1-1.8c-0.3-0.2-0.7-0.3-1-0.4C49.6,163.6,48.9,163.4,48.2,163.4z"/>
		<path class="st3" d="M49.2,166c-0.4,0.2-1.1,0.4-0.9,0.9c0,0.1,0.1,0.2,0.1,0.2c0.2,0.3,0.4,0.5,0.7,0.5c0.3,0.1,0.7,0,0.9-0.2
			C50.4,167.1,49.8,166.1,49.2,166z"/>
		<path class="st1" d="M28.7,161.1c-0.7,0-1.1-0.1-1.7,0.1c-0.3,0.1-0.5,0.2-0.8,0.4c-0.4,0.2-0.8,0.3-1.1,0.5
			c-0.5,0.2-0.9,0.6-1.2,1.1c-0.3,0.4-0.6,0.8-0.7,1.2c-0.2,0.6-0.1,1.2-0.1,1.8c0,1,0.2,1.9,0.8,2.8c0.5,0.8,1.4,1.3,2.2,1.8
			c0.4,0.2,0.7,0.4,1.1,0.5c0.6,0.2,1.3,0.4,2,0.4c0.3,0,0.5-0.1,0.8-0.2c0.3-0.1,0.6-0.1,0.9-0.2c0.8-0.2,1.3-0.6,1.9-1.1
			c0.8-0.8,1.6-2,1.8-3.1c0.1-0.5,0.1-1-0.1-1.4c-0.2-0.6-0.6-1-0.8-1.6c-0.2-0.5-0.6-0.9-1-1.4c-0.2-0.3-0.5-0.7-0.8-0.9
			c-0.4-0.3-0.8-0.5-1.3-0.6c-0.3-0.1-0.6-0.1-0.9-0.1C29.2,161,28.7,160.9,28.7,161.1z"/>
		<path class="st3" d="M29.4,164.9c-0.1,0-0.2,0-0.3,0c-0.7,0-1.4,0.3-1.6,1.1c-0.1,0.3,0,0.6,0.1,0.8c0.4,0.6,1.1,0.5,1.7,0.3
			c0.5-0.2,0.9-0.5,0.9-1.1c0-0.4-0.1-1-0.5-1.1C29.6,164.9,29.5,164.9,29.4,164.9z"/>
		<path class="st4" d="M43.1,151.4c-0.7,0.5-1.5,1.1-2.3,1.5c-0.4,0.2-0.9,0.4-1.4,0.6c-0.8,0.3-1.5,0.7-2.3,1.1
			c-0.8,0.5-1.5,0.7-2.4,1.1c-0.5,0.2-1.1,0.5-1.6,0.8c-0.2,0.1-0.5,0.2-0.7,0.4c-0.5,0.5,0.4,1.8,0.6,2.2c0.3,0.5,0.6,1.1,0.9,1.6
			c0.1,0.2,0.2,0.4,0.3,0.7c0.1,0.2,0.1,0.4,0.2,0.5c0.7-0.3,1.4-0.6,2.1-0.9c0.7-0.3,1.4-0.5,2-0.7c0.6-0.2,1.2-0.5,1.8-0.8
			c0.6-0.2,1.2-0.4,1.8-0.6c0.5-0.2,1-0.5,1.5-0.7c0.4-0.1,0.8-0.2,1.2-0.4c0.1-0.1,0.3-0.1,0.4-0.2c0.2-0.3-0.2-1-0.4-1.3
			c-0.1-0.4-0.3-0.7-0.4-1.1c-0.1-0.4-0.3-0.8-0.4-1.2c-0.2-0.6-0.1-1.2-0.3-1.7C43.9,151.9,43.6,151.6,43.1,151.4z"/>
		<path class="st5" d="M56,152.1c-0.7-0.3-1.5-0.5-2.2-0.7c-0.1,0-0.3-0.1-0.4-0.1c-0.2,0.3-0.2,0.8-0.3,1.2
			c-0.1,0.7-0.3,1.3-0.5,1.9c-0.2,0.6-0.3,1.2-0.5,1.8c-0.1,0.2-0.3,0.6-0.1,0.7c0.1,0.2,0.4,0.2,0.6,0.2c0.7,0.2,1.4,0.4,2.1,0.7
			c0.5,0.2,0.9,0.4,1.4,0.6c0.1,0.1,0.4,0.2,0.5,0.2L56,152.1z"/>
		<path class="st6" d="M43.6,141.2c-2.1-0.1-4.3-0.1-6.4,0.1c-0.6,0.1-1.2,0-1.8,0.1c-0.3,0-0.6,0.1-1,0.2c-1,0.1-2.1,0.3-3.1,0.3
			c-0.1,0-0.2,0-0.3,0c-0.2,0.1,0.1,0.4,0.2,0.6c0.4,0.7,0.9,1.3,1.1,2c0.4,0,0.7,0,1.1,0c0.8,0,1.6,0,2.5,0c0.7,0,1.3,0,2,0
			c0.7,0,1.4-0.2,2.2-0.2c0.7-0.1,1.4-0.1,2-0.3c0.6-0.1,1.2,0,1.8,0c0.5,0,1-0.1,1.4-0.1c0.2,0,0.5,0.1,0.8,0
			c-0.6-0.6-1.2-1.2-1.8-1.8c-0.2-0.2-0.5-0.4-0.6-0.7C43.5,141.4,43.5,141.2,43.6,141.2z"/>
		<path class="st7" d="M38.6,139.2c-0.2,0.6-0.5,1.4-0.6,2.1"/>
		<path class="st7" d="M36.8,144.7c-0.4,0.7-0.8,1.4-1.1,2.2C35.7,147,35.6,147.2,36.8,144.7z"/>
		<path class="st7" d="M38,147.8c-0.3,1.5-0.1,3.1,0,4.6c0,0.2,0,0.5,0,0.7c0,0.2,0.1,0.4,0,0.6"/>
		<path class="st7" d="M38.5,160.5c0,1.1-0.1,2.2,0,3.2c0.1,0.5,0.1,0.9,0.1,1.3c0,0.3,0,0.7-0.1,1"/>
		<path class="st7" d="M34.2,143.1c-0.7-0.5-1.6-1.4-2.6-1.2c-0.3,0-0.5,0.2-0.7,0.3c-0.5,0.2-1.1,0.4-1.6,0.3
			c-0.4-0.1-0.7-0.4-1-0.6c-0.2-0.2-0.4-0.3-0.7-0.3c-0.4,0-0.7,0.2-1,0.3c-0.8,0.2-1.3,0.1-1.9-0.3c-0.4-0.2-0.9-0.5-1.3-0.7
			c-0.5-0.2-1.1-0.4-1.7-0.5c-0.6-0.1-1.2-0.3-1.7-0.3c-0.6,0-1.2,0-1.8,0c-1.2,0.1-2.3,1-3.2,1.9c-0.8,0.8-1.4,1.6-1.8,2.6
			c-0.5,1.2-0.9,2.5-1.1,3.8c-0.1,0.7,0,1.4,0.2,2.1c0.1,0.4,0.2,0.7,0.2,1c0,0.4-0.1,0.8,0,1.2c0.1,0.6,0.6,1.2,0.8,1.7
			c0.2,0.6,0.5,1,1.1,1.3c0.8,0.5,1.8,0.7,2.6,1c0.3,0.1,0.4,0.3,0.7,0.4c0.1,0.1,0.3,0.1,0.4,0.2c0.2,0.1,0.8,0.2,0.9,0.2"/>
		<path class="st7" d="M21.4,145c-0.7-0.6-1.2-1.3-1.5-2.2c-0.2-0.6-0.2-1.2-0.2-1.8c0.1-1.4,0.5-3,1.1-4.3c0.3-0.8,0.8-1.6,1.7-1.8
			c0.9-0.2,1.9-0.4,2.8-0.5c0.6-0.1,1.2-0.2,1.8,0.2c0.5,0.3,0.8,0.8,1.4,1c0.5,0.1,1,0.2,1.5,0.3c0.7,0.2,1.4,0.3,2.1,0.6
			c0.6,0.3,1.1,0.7,1.6,1.1c0.5,0.4,1,0.8,1.2,1.4c0.2,0.5,0.6,0.9,0.9,1.4c0.1,0.2,0.2,0.5,0.4,0.7c0.2,0.2,0.3,0.4,0.4,0.7
			c0.3,0.5,0.5,1.1,0.5,1.7"/>
		<path class="st7" d="M39.7,143.2c0.1-1,0.1-2.2,0.3-3.2c0.1-0.7,0.5-1.2,0.8-1.8c0.2-0.4,0.5-0.8,0.8-1.2c0.2-0.3,0.5-0.8,0.8-1
			c0,0,0,0,0,0"/>
		<path class="st3" d="M44.2,133.5c-0.8,0.2-2.1,0.5-2.1,1.6c0,0.2-0.1,0.8,0.1,1c0.2,0.2,0.7,0,0.9,0c0.3,0,0.5-0.1,0.8-0.2
			c0.4-0.2,0.6-0.3,0.8-0.6c0.2-0.3,0.6-0.7,0.6-1C45.3,133.5,44.4,132.7,44.2,133.5z"/>
		<path class="st7" d="M46.7,132.4c-0.5,0.2-1.3,0.4-1.6,0.8"/>
	</g>
	<g>
		<path class="st1" d="M92.3,126.5c-0.2-0.1-0.4-0.2-0.6-0.3c-0.3,0-0.7,0-1,0c-0.7,0-1.5,0.1-2.2,0.1c-0.9,0-1.8,0.1-2.6,0.1
			c-1.9,0-4,0.1-5.9,0.5c-1,0.2-2.1,0.1-3.1,0.4c-0.8,0.2-1.6,0.3-2.4,0.4c-1.1,0.1-2.3,0.2-3.4,0.4c-0.3,0.1-0.7,0.1-1,0.2
			c-0.3,0.1-0.6,0.3-0.8,0.3c-0.1,0.5-0.1,1-0.1,1.6c0.1,0.6,0.2,1.2,0.2,1.9c0.1,0.8,0,1.7,0,2.5c0,0.5,0.1,0.9,0.1,1.4
			c0,0.8-0.1,1.6,0,2.4c0.1,0.9,0.3,1.8,0.3,2.7c0,0.7,0,1.3,0,2c0.1,0.7,0.1,1.3,0.1,2c0,0.5-0.1,1.1-0.2,1.6c-0.1,0.8,0,1.7,0,2.5
			c-0.1,0.8-0.1,1.5-0.2,2.3c-0.2,1.1-0.1,2.2-0.1,3.4c0,1.2,0.1,2.3,0.1,3.5c0,0.9-0.1,1.8-0.2,2.7c0,0.6,0,1.2,0,1.8
			c0,0.1-0.1,0.4-0.1,0.5c0,0.1,0.3,0.2,0.3,0.2c0.5,0.3,1.1,0.6,1.6,0.9c0.6,0.3,1.2,0.6,1.9,0.8c1.1,0.2,2.2,0.5,3.3,0.7
			c2.4,0.5,4.8,0.7,7.3,0.6c0.9,0,1.7-0.1,2.6-0.1c0.4,0,0.8-0.1,1.2-0.3c0.5-0.1,1.1-0.2,1.7-0.3c0.8-0.2,1.5-0.5,2.3-0.6
			c0.9-0.2,1.7-0.6,2.5-0.8c0.5-0.1,1.1-0.3,1.6-0.5c0.2-0.1,0.3-0.2,0.5-0.3c0.3-0.2,0.7-0.3,1-0.4c0.5-0.2,1-0.5,1.5-0.7
			c0.2-0.1,0.3-0.3,0.3-0.5c0.1-0.8,0.2-1.7,0.3-2.5c0-1.2,0-2.5,0.1-3.7c0-0.4-0.1-0.7-0.1-1.1c-0.1-0.4,0-0.8,0-1.3
			c0.1-0.9,0.1-1.9,0-2.8c-0.1-0.5-0.2-1-0.2-1.6c0-0.5-0.1-1-0.2-1.6c-0.1-0.4-0.2-0.8-0.2-1.3c0-0.5,0-1,0-1.5
			c-0.1-1-0.3-2.1-0.2-3.1c0.1-1.1-0.1-2.3-0.1-3.4c0-1.1-0.1-2.1-0.1-3.2c0-1,0-2,0-3.1c-0.1-1.3-0.2-2.6-0.4-3.8
			c-0.1-0.6,0-1.2-0.1-1.6c-1-0.2-2-0.3-3-0.1c-0.5,0.1-1,0.1-1.5,0.2C92.4,126.5,91.8,126.7,92.3,126.5z"/>
		<path class="st5" d="M84.5,153.1c-1,0-2,0-3,0.5c-0.3,0.2-0.6,0.4-0.9,0.5c-0.5,0.3-1,0.5-1.4,0.8c-1,0.7-1.9,1.7-2.7,2.6
			c-0.5,0.6-1.1,1.2-1.5,1.9c-0.4,0.7-0.9,1.4-1.3,2.1c-1.2,2.1-2.9,4-3.8,6.2c-0.2,0.4-0.4,0.9-0.4,1.3c0,0.4,0,0.7,0.1,1.1
			c0.2,0.7,0.5,1.1,1.1,1.5c0.9,0.6,2.1,0.7,3.2,0.6c0.8-0.1,1.6,0,2.3,0c0.4,0,0.7-0.1,1.1-0.1c0.6,0,1.2,0,1.7-0.1
			c0.8-0.1,1.6-0.2,2.4-0.2c0.8,0,1.6,0,2.4-0.1c0.7-0.1,1.4-0.1,2.1-0.1c0.6,0,1.2-0.1,1.8-0.2c0.6-0.1,1.3-0.2,1.9-0.2
			c0.7,0,1.3,0,2-0.1c0.5-0.1,0.9,0,1.4-0.1c0.4,0,0.8-0.1,1.1-0.1c0.7,0,1.5,0,1.9-0.7c0.4-0.7,0.4-1.5,0.1-2.3
			c-0.2-0.6-0.3-1.2-0.4-1.8c-0.1-0.4-0.2-0.7-0.3-1.1c-0.1-0.5-0.3-1-0.4-1.4c-0.4-1.2-1-2.4-1.5-3.6c-0.3-0.5-0.5-1.1-0.8-1.6
			c-0.3-0.5-0.6-0.9-0.9-1.3c-0.2-0.3-0.4-0.6-0.6-0.8c-0.3-0.3-0.6-0.5-0.8-0.7c-0.3-0.3-0.6-0.5-0.9-0.7c-0.3-0.2-0.6-0.4-0.9-0.5
			c-0.7-0.4-1.4-0.9-2.1-1.2C85.7,153.1,84.8,153.1,84.5,153.1z"/>
		<path class="st8" d="M88.3,157.3c-0.4-0.5-0.9-0.9-1.4-1.3c-0.5-0.4-0.8-0.4-1.4-0.4c-0.9,0-2.2-0.3-3.1,0c-0.7,0.3-1.5,1-2,1.6
			c-0.9,1.1-1.9,2-2.7,3.2c-0.4,0.6-0.8,1.2-1.3,1.7c-0.4,0.5-0.8,1-1.2,1.5c-0.6,0.7-1.2,1.5-1.7,2.3c-0.2,0.3-0.4,0.7-0.6,1
			c-0.2,0.4-0.5,0.8-0.6,1.2c-0.1,0.5,0.2,0.8,0.6,1.1c0.3,0.2,0.5,0.2,0.8,0.3c0.4,0.1,0.7,0.2,1.1,0.2c0.4,0,0.8,0,1.1,0
			c0.6,0,1.3,0,1.9-0.1c0.7-0.1,1.4,0,2.1-0.2c0.7-0.2,1.4-0.2,2.2-0.3c1.4-0.1,2.9-0.3,4.3-0.3c0.7,0,1.3-0.1,2-0.1
			c0.3,0,0.6,0.1,0.9,0c0.4,0,0.7-0.2,1.1-0.2c0.4-0.1,0.8-0.1,1.1-0.2c0.3,0,0.7,0,1.1-0.2c1.4-0.5,0.7-2.2,0.3-3.2
			c-0.1-0.4-0.2-0.8-0.4-1.2c-0.2-0.4-0.4-0.9-0.6-1.3c-0.3-0.5-0.5-1-0.8-1.5c-0.3-0.4-0.6-0.8-1-1.2c-0.4-0.4-0.7-0.9-1.1-1.3
			C88.9,158.1,88.7,157.7,88.3,157.3z"/>
		<path class="st1" d="M75.2,163.6c-0.2,0.2-0.3,0.4-0.4,0.7c-0.2,0.4-0.2,1-0.3,1.5c-0.1,0.9,0,1.7,0.7,2.4
			c0.5,0.5,1.4,0.8,2.1,0.9c0.8,0.1,1.8-0.3,2.5-0.7c0.6-0.3,1.1-0.9,1.2-1.6c0.1-0.9-0.1-1.7-0.4-2.4c-0.3-0.5-0.7-0.9-1.3-1.2
			c-0.2-0.1-0.5-0.3-0.7-0.4C78.5,162.6,75.8,162.9,75.2,163.6z"/>
		<path class="st1" d="M84.6,155.5c-0.8,0-1.4-0.1-2.1,0.3c-0.2,0.1-0.4,0.2-0.5,0.3c-0.4,0.3-0.9,0.6-1.3,1
			c-0.5,0.5-0.8,1.1-1.1,1.7c-0.2,0.4-0.3,0.9-0.4,1.4c-0.1,0.6-0.1,1.1,0,1.7c0.1,0.4,0.3,0.9,0.5,1.2c0.3,0.4,0.7,0.6,1.1,0.9
			c0.8,0.7,1.9,0.9,2.9,0.8c0.5-0.1,1.2,0,1.7-0.2c0.6-0.2,1.1-0.4,1.6-0.7c0.7-0.3,1.2-0.8,1.6-1.5c0.2-0.4,0.4-0.7,0.5-1.1
			c0.1-0.4,0.1-0.7,0.1-1.1c0-0.4,0-0.6-0.1-1c-0.1-0.3-0.2-0.6-0.3-0.9c-0.4-0.8-1.1-1.4-1.7-2c-0.3-0.3-0.6-0.4-0.9-0.6
			C85.6,155.4,84.8,155.7,84.6,155.5z"/>
		<path class="st1" d="M89,162.6c-0.4,0.2-0.7,0.3-1,0.6c-0.2,0.2-0.4,0.5-0.5,0.8c-0.1,0.3-0.1,0.6-0.2,0.9
			c-0.1,0.2-0.1,0.5-0.2,0.7c0,0.3-0.1,0.6,0,0.9c0.1,0.4,0.4,0.7,0.7,0.9c0.3,0.3,0.7,0.4,1.1,0.5c0.3,0.1,0.7,0.3,1,0.3
			c0.7,0,1.4-0.6,1.8-1.1c0.4-0.4,0.8-1,0.9-1.6c0.1-0.5,0.2-1.1,0-1.5c-0.1-0.2-0.3-0.3-0.4-0.5C92,163.3,90.2,162.1,89,162.6z"/>
		<path class="st0" d="M83,159c-0.2,0.4-0.5,0.9-0.6,1.4c0,0.6,0.3,1,0.7,1.4c0.4,0.4,0.8,0.4,1.4,0.3c0.4-0.1,0.7-0.2,0.9-0.6
			c0.2-0.3,0.5-0.7,0.5-1.1c0.1-0.3,0-0.7,0-1.1C85.9,158.7,83.4,158.3,83,159z"/>
		<path class="st0" d="M77.9,165c-0.6,0.2-1.4,0.3-1.4,1.1c0,0.3,0.1,0.5,0.4,0.7c0.3,0.2,0.6,0.2,0.9,0.2c0.5,0,0.7,0,0.9-0.5
			c0.1-0.3,0-0.7,0-1C78.7,164.9,78.6,164.8,77.9,165z"/>
		<path class="st0" d="M90,164.4c-0.4,0.3-1,0.5-1,1.1c0,0.2,0.1,0.3,0.2,0.5c0.2,0.4,0.6,0.4,1,0.3c0.4-0.1,0.5-0.2,0.7-0.5
			C91.1,165.4,90.8,164.5,90,164.4z"/>
		<path class="st2" d="M95.9,124.5c-1-0.3-2.1-0.7-3.2-0.6c-0.6,0-1.2,0.1-1.9,0.1c-0.7,0-1.3-0.1-2-0.1c-0.7,0-1.3,0.1-2,0.1
			c-0.7,0-1.5,0-2.2,0c-0.9,0-1.8,0.1-2.7,0.1c-0.9,0-1.7,0-2.6,0.1c-0.6,0.1-1.2,0.2-1.9,0.3c-0.9,0.1-1.7,0.4-2.5,0.6
			c-0.6,0.1-1.2,0.2-1.8,0.5c-0.4,0.2-0.9,0.3-1.4,0.5c-0.6,0.2-1.1,0.5-1.6,0.9c-0.4,0.4-1.3,1-1.2,1.7c0,0.3,0.2,0.7,0.4,1
			c0.5,0.8,1.8,0.8,2.6,0.9c1.2,0.2,2.5,0.4,3.7,0.4c0.9,0,1.7,0,2.5-0.1c0.5-0.1,1,0,1.6,0c0.4,0,0.9-0.1,1.3,0
			c0.7,0,1.4,0,2.1-0.1c0.7-0.1,1.5,0,2.2-0.1c0.7-0.1,1.4,0,2.1-0.1c0.7-0.1,1.4-0.2,2.1-0.3c0.7-0.1,1.4-0.3,2.1-0.4
			c0.8-0.1,1.5-0.4,2.2-0.7c0.7-0.2,1.4-0.5,2-1.1c0.6-0.5,1.9-1.5,1.2-2.4c-0.2-0.3-0.4-0.5-0.6-0.7c-0.1-0.1-0.2-0.2-0.4-0.3
			C96.1,124.6,95.9,124.5,95.9,124.5C95.5,124.3,95.2,124.4,95.9,124.5z"/>
		<path class="st6" d="M82.8,118.5c-0.6,0.1-1.7,0.2-1.9,0.9c-0.1,0.2,0,0.6,0.1,0.8c0.1,0.3,0.4,0.5,0.8,0.6c0.5,0.2,1,0.3,1.5,0.1
			c0.4-0.2,0.7-0.4,1-0.7c0.3-0.3,0.3-0.6,0.1-1C84.2,118.8,83.4,118,82.8,118.5z"/>
		<path class="st7" d="M82.7,121.4c0,0.6,0.1,1.2,0.2,1.8c0,0.3,0,0.5,0.1,0.8c0.1,0.2,0.1,0.5,0.1,0.7c0,0.2,0,0.5,0,0.7
			c0,0.2,0,0.5,0.1,0.6c0.1,0.2,0.2,0.4,0.2,0.6"/>
		<path class="st7" d="M97.7,132.4c-0.6,0.2-1.2,0.5-1.8,0.7c-0.4,0.2-0.8,0.4-1.3,0.5c-0.5,0.1-1,0.1-1.6,0.3
			c-0.8,0.2-1.5,0.4-2.3,0.4c-0.5,0-1.1,0.3-1.6,0.4c-0.8,0.2-1.6,0.3-2.4,0.6c-0.6,0.2-1.2,0.1-1.8,0.1c-0.4,0-0.7,0.1-1.1,0.1
			c-0.7,0-1.4,0-2.2-0.1c0.2,0.4,0.2,0.9,0.2,1.3c0,0.7,0.2,1.5,0.2,2.2c0,0.6-0.2,1.3-0.2,1.9c-0.1,0.7-0.2,1.4-0.2,2.1
			c0.1,1,0,2,0.1,3c0,0.5,0,0.9,0.2,1.4c0.1,0.2,0.1,0.2,0.3,0.3c0.5,0.3,1.2,0.4,1.8,0.5c0.5,0.1,0.9,0,1.4,0c0.6,0,1.2,0.1,1.8,0
			c0.6,0,1.3,0,1.9,0c0.4,0,0.9-0.1,1.3-0.2c1.2-0.1,2.3-0.5,3.5-0.7c0.6-0.1,1.1-0.3,1.6-0.5c0.4-0.2,0.8-0.3,1.2-0.4
			c0.4-0.2,0.9-0.5,1.3-0.8"/>
		<path class="st0" d="M91.5,139.8c-0.7,0.1-1.4,0.1-2,0.5c-0.2,0.1-0.4,0.2-0.5,0.4c-0.1,0.4,0,1,0.2,1.4c0.2,0.3,0.4,0.6,0.7,0.7
			c0.5,0.3,1.2,0.2,1.8,0.2c0.5,0,1-0.1,1.5-0.2c0.5,0,1,0,1.4-0.1c0.4-0.1,0.8-0.3,1.2-0.4c0.4-0.1,0.9-0.2,1.3-0.3
			c0.3-0.1,0.7-0.3,1-0.4c0.3-0.2,0.6-0.5,0.9-0.7c0.4-0.3,1-0.8,1.3-1.2c0.2-0.3,0.1-0.8,0.1-1.1c0-0.4-0.1-0.5-0.5-0.7
			c-0.3-0.2-0.6-0.2-0.9-0.3c-0.2-0.1-0.7-0.3-0.9-0.2c-0.3,0.1-0.1,1-0.1,1.2c0,0.2,0.1,0.7,0,0.9c-0.1,0.1-0.4,0.2-0.6,0.3
			c-0.3,0.1-0.5,0.1-0.8,0.2c-0.5,0.1-0.9,0.5-1.5,0.5c-0.4,0-0.9,0.1-1.3,0.2c-0.4,0.1-0.8,0.2-1.2,0.2c-0.3,0-0.7,0-1-0.1
			C91.3,140.5,91.6,140.1,91.5,139.8z"/>
		<path class="st7" d="M73.9,131c-0.1,1-0.1,2-0.1,3c0,0.5,0,0.9,0,1.3c0,0.3,0,0.6-0.1,0.9c0,0.3-0.1,0.6-0.1,0.9
			c0,0.2,0,0.5,0,0.7c0,0.3-0.1,0.7-0.1,1c0,0.6,0.1,1.3,0.2,2c0.1,0.5,0,0.9,0,1.4c0,0.5,0.2,0.9,0.2,1.4c0,0.8-0.1,1.6-0.1,2.4
			c0,0.3,0.1,0.5,0.1,0.8c0,0.6,0,1.1,0,1.7c0,0.6,0.1,1.2,0,1.8c-0.1,0.4-0.1,0.9-0.1,1.4c0,1-0.1,1.9-0.3,2.8
			c-0.1,0.4-0.1,0.8,0,1.2c0,0.3,0,0.6,0,0.9c0,0.4,0,0.7,0,1.1c0,0.3-0.1,0.7-0.1,1c0,0.3,0,0.6,0,0.9c0,0.4,0,0.8,0,1.2
			c0,0.2-0.1,0.7,0.1,0.9"/>
		<path class="st6" d="M85.1,137.6c-0.2,0.2-1,0.9-0.8,1.3c0.1,0.2,0.3,0.3,0.5,0.4c0.3,0.1,0.8,0.1,1.1,0c0.3-0.1,0.5-0.3,0.5-0.7
			c0-0.2,0-0.5-0.1-0.8C86.1,137.5,85.6,137,85.1,137.6z"/>
		<path class="st6" d="M85.9,143.3c-0.4,0.1-1.4,0.3-1.4,0.9c0,0.2,0,0.6,0.1,0.8c0.2,0.3,0.4,0.5,0.8,0.5c0.4,0.1,1,0.2,1.2-0.2
			c0.2-0.3,0.2-0.7,0.1-1C86.6,144,86.1,143.1,85.9,143.3z"/>
	</g>
	<g>
		<g>
			<path class="st9" d="M143.4,122.8c-0.1-1.3,0-2.5-0.4-3.8c-0.2-0.7-0.1-1.4-0.3-2.1c-0.1-0.7-0.3-1.3-0.6-2
				c-0.2-0.7-0.3-1.3-0.5-2c-0.2-0.6-0.5-1.2-0.8-1.8c-0.3-0.6-0.5-1.2-0.9-1.7c-0.4-0.6-0.9-1.1-1.3-1.6c-1-1-2.1-1.9-3.4-2.6
				c-1-0.5-2-1.3-3.2-1.5c-1.3-0.3-2.7-0.3-4-0.3c-1,0-2,0.3-2.9,0.6c-0.8,0.2-1.6,0.3-2.3,0.6c-1.4,0.5-2.6,1-3.9,1.6
				c-1.1,0.5-2,1.1-2.7,2c-1.2,1.4-2,3-2.8,4.6c-0.8,1.7-1.3,3.6-1.8,5.4c-0.3,1-0.3,2.1-0.5,3.1c-0.1,1-0.4,2-0.7,3
				c-0.5,1.8-0.8,3.6-1,5.5c0,0.6-0.1,1.2-0.2,1.7c2.4,0.1,4.8,0.2,7.2,0.1c1.7-0.1,3.5-0.1,5.3-0.1c1.1,0,2.1,0.1,3.2-0.1
				c1-0.2,1.9-0.1,2.8-0.1c1,0,1.9-0.1,2.8-0.2c1-0.1,2,0,2.9-0.1c2.9-0.4,5.8-0.5,8.8-0.6c0.5,0,1.1-0.1,1.6-0.1
				c-0.1-1.3-0.1-2.6-0.1-3.9C143.6,125.2,143.5,124,143.4,122.8z"/>
			<path class="st4" d="M133.3,131c-1,0.1-2,0-2.9,0.1c-0.9,0.1-1.8,0.2-2.8,0.2c-1,0-1.9-0.1-2.8,0.1c-1.1,0.2-2.1,0.1-3.2,0.1
				c-1.8,0-3.5,0-5.3,0.1c-2.4,0.1-4.8,0-7.2-0.1c-0.1,1-0.2,1.9-0.1,2.9c0.1,1.5-0.1,3-0.1,4.6c0,0.8,0,1.5,0,2.3
				c0,0.7-0.1,1.3-0.1,2c0,1.2,0.4,2.4,0.3,3.7c-0.1,1.1,0,2.2,0.1,3.3c0.1,1.4-0.2,2.7-0.4,4.1c-0.2,1.2,0.2,2.5,0.3,3.8
				c0.1,0.9,0.1,1.8,0.2,2.7c0,0.4-0.1,1,0.4,1.2c0.4,0.2,1-0.1,1.5-0.1c0.8-0.1,1.6,0.1,2.5-0.1c0.8-0.2,1.5-0.4,2.3-0.4
				c0.7,0,1.4,0.1,2.1,0c0.9,0,1.8-0.2,2.8-0.2c0.8,0,1.7-0.1,2.5-0.1c2.5,0,5-0.1,7.5-0.5c1.6-0.2,3.1-0.2,4.7-0.4
				c2.1-0.2,4.1-0.2,6.2-0.1c1.2-0.2,1.2-0.4,1.2-0.7c0.1-1,0-2,0.1-3c0-0.8,0.2-1.5,0.3-2.3c0.1-0.9,0.1-1.8,0.2-2.7c0-1,0-2,0-3.1
				c0-0.6,0.1-1.2,0.2-1.9c0-0.7,0-1.5,0.1-2.2c0.1-1.6,0.5-3.2,0.2-4.8c-0.2-1.5-0.2-3-0.3-4.4c-0.2-1.5,0.2-3,0.1-4.5
				c0-0.1,0-0.2,0-0.3c-0.6,0-1.1,0.1-1.6,0.1C139.1,130.5,136.2,130.6,133.3,131z"/>
		</g>
		<path class="st1" d="M127.2,152.2c-2.1-0.3-4.1-0.5-5.9,0.6c-0.5,0.3-1.1,0.6-1.7,0.8c-1.7,0.8-2.6,2.5-3.6,3.9
			c-0.3,0.4-0.6,0.9-0.8,1.4c-0.2,0.6-0.2,1.1-0.3,1.7c-0.1,1.1-0.5,2.1-0.3,3.3c0.1,0.4,0.3,0.7,0.4,1c0.1,0.3,0.2,0.7,0.3,1
			c0.5,0.8,1.1,1.6,1.8,2.2c0.3,0.3,0.7,0.6,1,0.9c0.5,0.4,1,0.7,1.5,1.1c0.9,0.6,2,0.8,3.1,1.2c0.6,0.2,1.1,0.3,1.7,0.3
			c0.7,0,1.5,0,2.2-0.1c0.6-0.1,1.1-0.3,1.6-0.5c0.7-0.3,1.4-0.6,2.1-0.9c0.7-0.3,1.3-0.6,1.9-1c0.5-0.3,0.9-0.9,1.3-1.3
			c0.7-0.8,1.4-1.8,1.7-2.7c0.3-0.8,0.5-1.8,0.4-2.7c-0.2-0.9-0.2-1.9-0.5-2.7c-0.2-0.5-0.4-1.1-0.7-1.6c-0.2-0.3-0.5-0.7-0.6-1
			c-0.4-0.8-1.2-1.5-1.9-2.1c-0.6-0.6-1.3-1.1-2-1.6C128.8,152.7,127.6,152.3,127.2,152.2z"/>
		<path class="st3" d="M126.1,156.5c-1.1,0-2.2-0.1-3.2,0.4c-0.4,0.2-0.8,0.4-1.2,0.7c-0.4,0.3-0.6,0.6-0.8,1
			c-0.4,0.5-0.6,1.3-0.6,1.9c-0.1,1.7,0,3.3,1.5,4.4c0.8,0.6,1.9,0.9,2.9,1c1.3,0.1,2.3-0.5,3.3-1.2c1.3-1,2.5-3,2-4.7
			c-0.3-0.8-0.7-1.5-1.3-2.1C128.1,157.1,127,156.5,126.1,156.5z"/>
		<path class="st3" d="M141.3,113.1c-1.5-0.2-2.7-0.3-4.2-0.2c-0.9,0.1-1.8,0.1-2.7,0.1c-1.1,0.1-2.3,0.2-3.4,0.3
			c-0.8,0.1-1.6,0.3-2.3,0.6c-0.6,0.2-1.2,0.4-1.6,0.8c-0.7,0.6-0.8,1.6-0.9,2.5c-0.1,1,0,1.9,0.1,2.9c0.1,0.7,0.2,1.7,0.6,2.3
			c0.5,0.8,1.5,1,2.4,1.3c2.8,0.7,5.7,0,8.6-0.1c0.7,0,1.3-0.1,2,0c0.5,0,1.1,0,1.6,0c0.5,0,1-0.3,1.5-0.2L141.3,113.1z"/>
		<path class="st3" d="M118.9,125.5c-1,0.2-1.8,0.5-2.6,1.2c-0.5,0.5-0.8,1.1-1.1,1.7c-0.3,0.8-0.4,1.8-0.4,2.6c0,0.9-0.1,1.8,0,2.7
			c0.2,2.5,0.7,4.9,0.9,7.3c0.1,1.1,0.4,2.2,0.8,3.2c0.3,0.8,0.5,1.6,0.9,2.3c0.2,0.3,0.4,0.6,0.7,0.8c0.3,0.2,0.5,0.3,0.8,0.5
			c0.3,0.3,0.9,0.3,1.3,0.2c0.4-0.1,0.6-0.6,0.7-0.9c0.3-0.7,0.5-1.4,0.6-2.2c0.2-1,0.5-1.9,0.9-2.9c0.3-0.9,0.7-1.7,1-2.6
			c0.3-1,0.6-2.1,0.8-3.1c0.1-0.5,0.1-1,0.2-1.4c0.1-0.6,0.2-1.2,0.2-1.8c0-0.9,0-1.8-0.2-2.6c-0.1-0.4-0.1-0.9-0.2-1.3
			c-0.1-0.2-0.2-0.4-0.2-0.6c-0.1-0.2-0.1-0.4-0.2-0.6c-0.4-1.1-1.5-1.7-2.4-2.3c-0.4-0.2-0.8-0.4-1.2-0.4c-0.2,0-0.5-0.1-0.6-0.1
			c-0.1,0-0.2,0.1-0.3,0.1C119.1,125.4,118.8,125.4,118.9,125.5z"/>
		<path class="st10" d="M119.2,128.4c-0.7,0.3-1.5,0.4-1.8,1.1c-0.1,0.3-0.1,0.5-0.2,0.7c0,0.5,0,0.8,0.2,1.3
			c0.3,0.6,0.7,1.1,1.2,1.5c0.2,0.1,0.4,0.3,0.6,0.4c0.3,0.1,0.5,0,0.8-0.1c0.4-0.2,0.9-0.4,1.2-0.8c0.2-0.2,0.5-0.5,0.6-0.8
			c0.1-0.3,0.1-0.7,0.2-1c0-0.3-0.1-0.6-0.1-0.9c-0.1-0.5-0.3-0.8-0.7-1.2c-0.3-0.3-0.8-0.4-1.2-0.4c-0.2,0-0.4,0-0.6,0
			C119,128.4,118.9,128.5,119.2,128.4z"/>
		<path class="st10" d="M143.5,134.7c-0.4,0.1-0.7,0.1-1.1,0.2c-0.4,0.1-0.8,0.1-1.3,0.1c-0.2,0-0.5,0.1-0.7,0.1c-0.5,0-1,0-1.5,0.1
			c-0.5,0.1-1,0-1.5,0.1c-0.4,0-0.8,0.1-1.2,0.1c-0.3,0-0.7,0.1-1,0.1c-0.4,0-0.7,0.1-1.1,0.1c-0.4,0.1-0.7,0.1-1.1,0.1
			c-0.4,0-0.8,0.1-1.2,0.1c-1,0-2,0-3-0.1c-0.1,0-0.3,0-0.4,0c-0.1,0-0.2-0.1-0.3,0c-0.1,0-0.1,0.1-0.1,0.2c0,0.2,0,0.5,0,0.7
			c0,0.2,0.1,0.4,0.1,0.6c0,0.2,0,0.4,0,0.6c0,0.6,0,1.1,0,1.7c0,0.4,0.1,0.8,0,1.2c0,0.1-0.1,0.2,0,0.3c0.1,0.1,0.4,0.1,0.5,0.1
			c0.3,0,0.5,0.1,0.7,0.1c0.4,0.1,0.8,0.1,1.1,0.1c0.8,0,1.6,0.1,2.5,0c0.3,0,0.6,0,0.9,0c0.4,0,0.8-0.1,1.1-0.1
			c0.3,0,0.5,0,0.8-0.1c0.4,0,0.8-0.2,1.2-0.2c0.4,0,0.8-0.1,1.2-0.2c0.4-0.1,0.9-0.1,1.3-0.1c0.7-0.1,1.4-0.2,2.1-0.3
			c0.2,0,0.4-0.1,0.6-0.1c0.2,0,0.4,0,0.6,0c0.1,0,0.3-0.1,0.4-0.1c0.1,0,0.2-0.1,0.3-0.1L143.5,134.7z"/>
		<path class="st3" d="M138,142.9c-0.7,0-1.4-0.1-2,0c-0.4,0-0.7,0-1.1,0.1c-0.4,0-0.8,0.2-1.2,0.2c-0.3,0-0.7,0.1-1,0.1
			c-0.6,0.1-1.2,0.1-1.8,0.2c-0.5,0.1-1,0-1.5,0c-0.1,0-0.3,0-0.4,0c-0.1,0-0.2,0-0.2,0c-0.1,0-0.1,0.2-0.1,0.2c0,0.2,0,0.4,0,0.7
			c0,0.3,0,0.6,0,0.9c0,0.1,0.1,0.2,0.1,0.3c0.1,0.1,0.4,0.1,0.6,0c0.4,0,0.9,0.1,1.3,0.1c0.5,0,1.1,0,1.6-0.1c0.4,0,0.8,0,1.2,0
			c0.3,0,0.6-0.1,0.9-0.1c0.4,0,0.8,0,1.2,0c0.5-0.1,1,0,1.5-0.1c0.2,0,0.3,0,0.5-0.1c0.1,0,0.1-0.1,0.2-0.2
			c0.1-0.3,0.1-0.6,0.2-0.8c0.1-0.3,0.1-0.5,0.2-0.8C138.1,143.3,138.2,143.1,138,142.9z"/>
		<path class="st3" d="M143.7,142.2c-0.4,0.1-0.8,0.3-1.2,0.3c-0.3,0-0.6,0-0.9,0c-0.2,0-0.4,0-0.7,0.1c-0.2,0-0.4,0-0.6,0.1
			c0.1,0.5,0.1,1,0.1,1.6c0,0.2,0,0.3,0,0.5c0,0.1,0,0.2,0,0.3c0,0.1,0.2,0.2,0.3,0.2c0.3,0,0.6-0.1,1-0.1c0.3,0,0.7,0,1,0
			c0.2,0,0.3,0,0.5-0.1c0.1,0,0.2,0,0.3,0"/>
		<path class="st11" d="M142.2,114.9c-0.4-0.1-0.7-0.2-1.1-0.2c-0.1,0-0.3,0-0.4,0c-0.3,0-0.7,0-1,0c-0.2,0-0.5,0-0.7,0
			c-0.3,0-0.5-0.1-0.7-0.1c-0.4,0-0.8,0.1-1.2,0.1c-0.5,0-1,0.1-1.5,0.1c-0.5,0-0.9,0-1.4,0.1c-0.5,0.1-1,0-1.4,0.1
			c-0.6,0.1-1.3,0.1-1.8,0.3c-1,0.4-2.4,0.7-2.5,2c0,0.4,0,0.9,0,1.3c0,0.5,0.1,1,0.1,1.5c0,0.4,0.2,0.7,0.4,1
			c0.3,0.4,0.7,0.3,1.1,0.4c0.4,0,0.8,0,1.2,0c0.3,0,0.6,0.1,0.9,0.1c0.2,0,0.5,0,0.7,0.1c0.2,0,0.4,0.1,0.6,0.1
			c0.3,0,0.5,0,0.7-0.1c0.3,0,0.6,0,0.9,0c0.6,0,1.3-0.1,1.9-0.1c1.3,0,2.6-0.2,3.9-0.3c0.4,0,0.8,0,1.2-0.1c0.3,0,0.5-0.1,0.8-0.1
			L142.2,114.9z"/>
		<path class="st7" d="M128.4,138.3c1,0.1,2.1,0,3.1,0.1c0.1,0,0.2,0,0.4-0.1c0.4-0.1,0.8,0,1.2,0c0.4,0,0.8-0.1,1.2,0
			c0.2,0,0.4,0,0.6,0c0.5-0.1,1.1,0,1.6-0.1c0.3-0.1,0.7-0.1,1-0.1c0.2,0,0.4,0,0.7,0c0.2,0,0.5-0.1,0.7-0.1c0.4-0.1,0.9,0,1.3-0.1
			c0.3-0.1,0.7-0.1,1-0.1c0.4,0,0.7-0.1,1.1-0.2c0.3-0.1,0.6-0.1,0.9-0.3"/>
		<path class="st7" d="M131,143.8c0.2,0.3,0.4,0.6,0.4,1C131.5,144.9,131.5,145,131,143.8z"/>
		<path class="st7" d="M134.8,143.5c0.1,0.5,0.2,0.9,0.2,1.4C135,145,135,145.2,134.8,143.5z"/>
		<path class="st7" d="M142.2,143c0.1,0.3,0.1,0.6,0.1,1c0,0.2-0.1,0.4,0,0.5C142.2,144.6,142.2,144.7,142.2,143z"/>
		<path class="st7" d="M120.5,153.5c0.3,0.5,0.7,1.1,1.3,1.2c0.4,0,0.7-0.1,1-0.3c0.3-0.2,0.5-0.6,0.6-1c0.1-0.2,0.1-0.5,0.1-0.7
			c0-0.2,0.1-0.4-0.1-0.6"/>
		<path class="st7" d="M128.9,153.2c-0.1,0.8-0.4,1.6,0.1,2.2c0.3,0.4,0.7,0.4,1.2,0.3c0.3-0.1,0.5-0.2,0.8-0.4
			c0.2-0.1,0.4-0.2,0.6-0.3"/>
		<path class="st7" d="M134,158.2c-0.5,0.4-1.4,0.8-1.4,1.6c0,0.3,0.1,0.4,0.2,0.7c0.2,0.4,0.5,0.7,1,0.8c0.3,0.1,0.7,0.2,0.9,0.1
			c0.1,0,0.3-0.2,0.4,0"/>
		<path class="st7" d="M134.6,166c-0.6-0.3-1.3-0.8-1.8-0.3c-0.2,0.2-0.4,0.4-0.5,0.6c-0.2,0.4-0.4,1-0.4,1.5c0,0.3-0.1,0.5,0.1,0.7
			c0.1,0.1,0.2,0.2,0.1,0.3"/>
		<path class="st7" d="M127.9,171c-0.2-0.5-0.5-0.9-0.9-1.2c-0.1-0.1-0.3-0.1-0.4-0.1c-0.3,0-0.6,0-0.9,0c-0.4,0-0.7,0.1-1,0.3
			c-0.2,0.2-0.4,0.4-0.6,0.7c-0.1,0.1-0.2,0.2-0.1,0.3"/>
		<path class="st7" d="M118.9,169.5c0.2-0.4,0.5-0.8,0.6-1.3c0-0.1,0-0.3-0.1-0.4c-0.2-0.3-0.4-0.8-0.8-1c-0.3-0.2-0.8-0.3-1.2-0.3
			c-0.5,0-0.8,0.1-1.2,0.4"/>
		<path class="st7" d="M116.3,157.4c0.3,0.9,0.8,1.8,0.3,2.8c-0.2,0.3-0.4,0.5-0.7,0.7c-0.3,0.2-0.9,0.4-1.2,0.2"/>
		<path class="st2" d="M126.4,158.6c-0.9-0.2-1.9-0.3-2.7,0.2c-0.3,0.2-0.6,0.4-0.8,0.7c-0.4,0.5-0.6,1.1-0.5,1.7
			c0.1,0.5,0.2,1,0.6,1.3c0.3,0.2,0.6,0.3,0.8,0.4c0.3,0.1,0.6,0.4,0.9,0.4c0.7,0.1,1.4-0.3,1.9-0.7c0.2-0.2,0.5-0.4,0.7-0.6
			c0.2-0.2,0.3-0.5,0.3-0.8c0.2-0.6-0.1-1.3-0.4-1.8c-0.1-0.2-0.2-0.3-0.4-0.4C126.8,158.9,126.5,158.8,126.4,158.6z"/>
	</g>
	<g>
		<path class="st2" d="M189,132.3c0.9,0.6,1.8,1.3,2.8,1.9c0.2,0.1,0.4,0.2,0.5,0.4c-0.4,0.6-1.2,1.5-1,2.2c0.2,0.5,0.8,1.1,1.4,1.3
			c0.4,0.1,1,0.2,1.5,0.1c0.3,0,0.3-0.1,0.4-0.3c0.2-0.3,0.4-0.6,0.7-0.9c-0.3,0.1-1.1-0.6-1.2-0.8c-0.3-0.6,0-1.3,0.4-1.8
			c0.3-0.5,1.1-0.5,1.6-0.4c0.3,0.1,0.6,0.3,0.8,0.5c0.1,0.1,0.4,0.4,0.4,0.6c0-0.1,0.3-0.6,0.4-0.7c0.3-0.4,0.5-0.8,0.8-1.1
			c0.1-0.2,0.3-0.3,0.3-0.5c0-0.4-0.7-0.8-1-1c-0.4-0.3-0.7-0.3-1.2-0.3c-0.4,0-0.9,0.1-1.3,0.2c-0.3,0.1-0.6,0.2-0.8,0.4
			c-0.2,0.2-0.3,0.4-0.5,0.5c-0.7-0.3-1.2-0.9-1.7-1.4c-0.8-0.8-1.8-1-2.9-1.2c-0.7-0.2-1.2-0.1-1.5,0.6c-0.1,0.4-0.1,0.8,0.3,1.1
			C188.6,131.7,189.9,131.8,189,132.3z"/>
		<path class="st2" d="M160.1,125.6c-1,0.6-1.9,1.1-2.8,1.7c-0.2,0.1-0.4,0.3-0.5,0.4c-0.2,0.2-0.4,0.4-0.6,0.6
			c-0.9-0.4-1.9-0.9-2.9-0.8c-0.8,0.1-1.5,0.4-2,0.9c-0.2,0.2-0.3,0.3-0.5,0.5c-0.1,0.1-0.2,0.1-0.3,0.2c0.3,0.3,0.5,0.6,0.9,0.9
			c0.2,0.2,0.5,0.3,0.7,0.5c0-0.5,1.5-0.7,1.9-0.8c0.5,0,1.1,0.1,1.4,0.5c0.4,0.4,0.4,0.9,0.1,1.3c-0.2,0.3-0.5,0.6-0.7,0.8
			c-0.1,0.1-0.5,0.5-0.7,0.5c0.2-0.3,1.2,0.7,1.3,0.8c0.3,0.3,0.6,0.6,1,0.8c0-0.2,0.3-0.3,0.4-0.4c0.3-0.2,0.7-0.4,0.9-0.6
			c0.4-0.3,0.8-0.7,0.8-1.2c0-0.4-0.2-0.8-0.3-1.2c-0.1-0.3-0.2-0.5-0.2-0.8c0-0.2-0.1-0.4-0.2-0.5c0.1-0.3,0.5-0.4,0.7-0.6
			c0.4-0.3,0.7-0.5,1.1-0.8c0.5-0.3,0.9-0.5,1.2-0.9C161.3,126.9,161.5,125.8,160.1,125.6z"/>
		<path class="st1" d="M171.4,167.6c-1.3,0.1-2.6,0.1-3.6,0.9c-0.3,0.3-0.6,0.6-0.8,0.9c-0.3,0.5-0.3,1,0,1.5c0.4,0.6,1,1.1,1.7,1.5
			c0.8,0.4,2,0.3,2.8,0.1c1.2-0.4,3-1.2,2.6-2.7c-0.1-0.4-0.4-0.8-0.7-1.1C172.7,168,171.9,167.2,171.4,167.6z"/>
		<path class="st1" d="M182.2,167.6c-0.8-0.1-1.5-0.3-2.1,0.1c-0.3,0.2-0.5,0.4-0.7,0.6c-0.3,0.3-0.7,0.7-0.9,1.2
			c-0.2,0.5-0.1,1.1,0.2,1.6c0.4,0.7,1.3,1.1,2,1.3c0.4,0.1,0.7,0.3,1.2,0.2c0.6-0.1,1.1-0.4,1.6-0.6c0.4-0.1,0.8-0.2,1.1-0.4
			c0.3-0.2,0.5-0.4,0.8-0.7c0.5-0.5,0.1-1.2-0.2-1.7c-0.3-0.6-0.9-1-1.4-1.5C182.9,167.1,182.2,167.1,182.2,167.6z"/>
		<path class="st12" d="M172.7,146.8c0,1,0,2,0,3c0,0.5-0.1,1-0.1,1.5c0,0.9,0.3,1.7,0.2,2.6c-0.1,0.5-0.2,1-0.2,1.5
			c0,0.3,0,0.7-0.1,1c-0.1,0.7-0.2,1.4-0.3,2.1c-0.1,0.9,0,1.7,0.1,2.7c0,0.3,0.1,0.6,0.1,1c0,0.2,0,0.4,0.1,0.5
			c0.1,0.1,0.4,0,0.6,0c0.4,0,0.8,0.1,1.2,0.1c0.8,0.1,1.5-0.1,2.2-0.1c0.8,0,1.6,0.1,2.5,0c0.8-0.1,1.5-0.1,2.3-0.1
			c0.4,0,0.8,0.1,1.2,0.1c0.1-0.4,0.1-0.8,0-1.2c0-0.5-0.3-1.1-0.4-1.6c-0.2-1.3-0.4-2.6-0.4-3.9c0-0.6,0.1-1.1,0.2-1.7
			c0.1-0.6,0.1-1.3,0-2c-0.1-0.6-0.1-1.2-0.1-1.9c0-0.5-0.2-1-0.3-1.5c-0.3-0.9-0.2-1.6-0.1-2.5"/>
		<path class="st6" d="M175.6,147.3c0.1,0.9,0.3,1.8,0.2,2.7c0,0.7,0,1.3,0.1,2c0.1,0.6,0.1,1,0.1,1.6c0,0.8,0,1.7,0.1,2.5
			c0,0.6,0.2,2.7,1.2,2.6c0.5-0.1,0.9-0.4,1.2-0.8c0.4-0.6,0.2-1.3,0.3-2c0.1-0.7,0-1.5-0.1-2.2c-0.2-1,0.1-2,0.2-2.9
			c0.2-0.8,0.4-1.6,0.5-2.4c0-0.3,0-0.6,0-0.8C179.4,147.2,179.3,146.9,175.6,147.3z"/>
		<path class="st6" d="M190.3,169.8c-0.6-0.4-1.2-0.6-1.8-0.6c-0.2,0-0.4,0-0.6,0c-0.2,0-0.5,0-0.7,0c-0.5,0-1.1,0-1.6,0
			c-1.4,0-2.8,0-4.2,0c-1.4,0-2.8,0.1-4.2,0.2c-1,0.1-1.9,0-2.9,0c-0.5,0-1,0.1-1.5,0.1c-0.5,0-1,0-1.5,0c-1.1,0-2.1,0.1-3.1,0.2
			c-0.8,0-1.6,0.2-2.5,0.2c-0.7,0.1-1.4-0.1-2.2,0c-0.5,0-1,0.1-1.4,0.1c0.2-0.3,0.9-0.7,1.2-0.9c0.5-0.4,1.1-0.7,1.6-1.2
			c0.5-0.4,1-0.7,1.5-1.2c0.6-0.5,1.2-1,1.8-1.4c0.5-0.4,1.1-0.8,1.5-1.2c0.4-0.4,0.8-0.8,1.2-1.2c0.3-0.3,0.6-0.6,0.9-0.9
			c0.2-0.2,0.6-0.4,0.8-0.7c0.3,0.2,0.8,0.2,1.1,0.3c0.6,0.1,1.3,0.1,1.9,0c1-0.1,2.1-0.1,3.1-0.2c0.7,0,1.4-0.1,2.2-0.2
			c0.4,0,1-0.1,1.4,0c0.1,0.3,0.4,0.6,0.6,0.9c0.3,0.4,0.7,0.8,1.1,1.1c0.4,0.3,0.7,0.7,1.1,1.1c0.5,0.4,1,0.9,1.5,1.3
			c0.5,0.4,0.9,0.9,1.4,1.2c0.4,0.3,0.7,0.8,1.1,1.1c0.3,0.4,0.7,0.7,1,1.1C190.2,169.4,190.5,169.5,190.3,169.8z"/>
		<path class="st13" d="M166.9,115c-0.4,0.2-0.9,0.3-1.3,0.5c-0.7,0.4-1.4,0.8-2,1.3c-0.3,0.3-0.6,0.6-1,0.8
			c-0.6,0.5-1.2,0.9-1.7,1.3c-0.9,0.8-1.8,1.7-2.7,2.6c-0.5,0.5-1.1,1-1.5,1.6c-0.3,0.3-0.6,0.6-0.9,1c-0.2,0.2-0.1,0.4,0,0.6
			c0.3,0.6,0.8,1.2,1.3,1.8c0.6,0.7,1.4,1.3,2,2c0.5,0.5,0.8,1,1.4,1.3c0.2,0.1,0.4,0.1,0.7,0c0.6-0.4,1.2-0.9,1.8-1.3
			c0.7-0.5,1.5-1,2.2-1.5c0.6-0.4,1.4-0.7,2-1.1c0.2-0.2,0.7-0.4,0.8-0.7c0-0.1-0.1-0.2-0.1-0.3c-0.1-0.3,0-0.6-0.1-0.9
			c-0.1-0.4-0.2-0.8-0.2-1.2c0-0.5,0-0.9,0-1.4c0-0.9-0.2-1.7-0.3-2.6c-0.1-0.6,0-1.3,0.1-1.9C167.5,116.3,167.7,115.7,166.9,115z"
			/>
		<path class="st12" d="M172.3,100.6c0.3,0.7,0.6,1.3,0.6,2.1c0,0.4-0.1,0.8-0.1,1.2c-0.1,0.6-0.2,1.3-0.1,1.9c0.1,0.5,0,0.9,0,1.3
			c2.7,0.5,5.4,0.2,8.1,0.3c0.7,0,1.5,0.2,2.2,0.1c0.6-0.1,1.1-0.1,1.7,0c0.2,0,0.5,0.1,0.6-0.1c0.1-0.3-0.2-0.8-0.2-1.1
			c-0.2-1.2,0.4-2.4,0.2-3.6c0-0.3-0.2-1.1-0.5-1.3c-0.2-0.1-0.8,0.1-1,0.2c-0.8,0.2-1.6,0.1-2.4,0.1c-1.3,0-2.6-0.1-3.8-0.1
			c-1.1,0-2.3,0-3.4,0C173.9,101.7,173.5,101.7,172.3,100.6z"/>
		<path class="st6" d="M190.3,85.1c-2.1-0.3-4.1-0.4-6.2-0.4c-0.5,0-1-0.1-1.6-0.1c-0.8-0.1-1.5,0-2.3-0.1c-0.7,0-1.4-0.2-2-0.2
			c-0.7,0-1.3,0.1-2,0.1c-1.2,0-2.4-0.1-3.7,0c-0.9,0-1.8,0.2-2.7,0.3c-0.4,0.1-0.9,0.1-1.3,0.2c-0.2,0-0.6,0.1-0.7,0.2
			c-0.4,0.2-0.3,0.7-0.3,1.1c0,0.6,0,1.2,0,1.8c0,0.5,0,1,0,1.5c0,0.9,0.2,1.9,0.1,2.8c0,0.8-0.1,1.6-0.1,2.4c0,0.8,0.1,1.5,0.1,2.3
			c0,0.7,0,1.5,0.1,2.3c0.1,0.4,0.2,0.9,0.3,1.3c0,0.3,0,0.7,0,1c0,0.3,0.1,0.6,0.2,0.9c0.1,0.3,0.4,0.5,0.8,0.5c0.7,0,1.4,0,2.1,0
			c0.9,0,1.7,0.1,2.6,0c0.8-0.1,1.6,0.1,2.4,0.1c0.4,0,0.9,0,1.3,0c0.6,0,1.1,0.1,1.7,0.1c1,0.1,1.9,0.1,2.9,0.1c1,0,2-0.2,3,0
			c1.1,0.2,2.2,0,3.3,0.3c0.5,0.1,1.1,0.1,1.6,0c0.2,0,0.6-0.2,0.7-0.3c0.2-0.2,0-0.7,0-0.9c0-1-0.3-2.1-0.3-3.1
			c0-0.5,0.1-0.9,0.1-1.4c0-0.2-0.1-0.4-0.1-0.6c0-0.3,0.1-0.6,0.1-0.9c0-0.6,0-1.2,0.1-1.9c0.1-1.3,0.1-2.6,0.1-3.9
			c0-1.2,0-2.4-0.1-3.6C190.3,86.3,190.4,85.7,190.3,85.1z"/>
		<path class="st6" d="M190.6,106.6c-1.3-0.1-2.5-0.2-3.8-0.1c-0.3,0-0.6,0-0.9,0c-0.9-0.1-1.8-0.1-2.7-0.1c-1,0-2-0.1-3-0.1
			c-1.1,0-2.1-0.2-3.2-0.1c-0.9,0-1.8-0.1-2.7,0c-0.9,0.1-1.8,0.1-2.7,0.1c-0.8,0-1.5,0.1-2.3,0.2c-0.8,0.1-1.6,0-2.4,0
			c-0.4,0-0.9,0.1-1.3,0.1c-0.3,0-0.7,0.1-1,0.2c-0.2,0.1-0.3,0.3-0.5,0.4c-0.3,0.3-0.1,0.6,0,0.9c0.1,0.6,0,1.3,0,1.9
			c0,0.8,0.1,1.5,0.2,2.3c0.1,0.7,0,1.4,0,2.1c0,0.9,0.1,1.7,0.1,2.6c0,0.9-0.2,1.7-0.1,2.6c0.1,0.9,0,1.8-0.1,2.7
			c-0.1,0.7,0,1.4,0,2c0,0.9,0,1.8,0.1,2.6c0.1,0.9,0.2,1.8,0.2,2.7c0,0.5,0,0.9,0,1.4c0,0.5,0.1,0.9,0.1,1.4c0.1,0.8,0,1.7,0,2.5
			c0,0.9,0.1,1.8,0.1,2.8c0,0.9-0.1,1.8,0.1,2.8c0.1,0.4,0.1,0.8,0.1,1.2c0,0.6-0.1,1.2,0,1.8c0.1,0.9,0.3,1.8,0.3,2.6
			c0,0.3-0.2,0.5,0.1,0.5c0.1,0,0.4,0,0.5,0c0.4,0,0.8,0,1.3,0.1c0.9,0,1.7,0.1,2.6,0.2c0.8,0.1,1.5,0.1,2.3,0.1
			c0.9,0,1.8,0.1,2.7,0c1.1-0.1,2.2,0,3.4,0c0.6,0,1.1,0,1.7,0c0.6,0,1.2,0.1,1.9,0.1c1-0.1,2,0.1,3,0.1c0.9,0,1.8,0.1,2.7,0.1
			c0.5,0,1.1,0,1.6-0.1c0.3-0.1,0.5-0.2,0.8-0.3c0.2,0,0.6-0.2,0.8-0.1c0.2-0.1,0.1-0.2,0.1-0.4c0-0.3,0.1-0.5,0.1-0.8
			c0-0.3,0-0.6-0.1-1c-0.1-0.3-0.3-0.6-0.3-1c-0.1-0.4-0.1-0.8-0.1-1.2c0-1.1,0.1-2.1-0.1-3.1c-0.2-1.5,0.2-3.1,0-4.6
			c-0.1-1,0-1.9,0.1-2.9c0.1-0.8,0-1.6,0.1-2.3c0.1-1.5,0.2-3.1-0.1-4.6c-0.2-0.9-0.1-1.8-0.2-2.7c-0.1-1-0.1-1.9,0-2.9
			c0.1-1-0.1-1.9-0.1-2.9c0-0.4,0-0.8,0-1.2c0-0.5,0-1,0-1.5c-0.1-1.4,0.3-2.7,0.3-4.1c0-0.6,0-1.2,0.1-1.8
			C190.2,107.3,190.3,106.8,190.6,106.6z"/>
		<path class="st13" d="M175.2,109.7c-0.4,0.2-0.7,0.6-1,0.9c-0.6,0.6-0.9,1.4-1.1,2.2c-0.1,0.4-0.2,0.7-0.2,1.1c0,0.4,0,0.8,0,1.2
			c-0.1,0.9-0.4,1.7-0.5,2.5c-0.1,0.7-0.1,1.3-0.1,2c0,0.7-0.2,1.4-0.2,2.1c0.1,1.3,0.1,2.7,0.3,4c0,0.3,0,0.7,0.2,0.9
			c0.2,0.3,0.5,0.5,0.8,0.7c0.8,0.5,1.6,1,2.4,1.4c0.9,0.5,1.7,1.1,2.5,1.6c1.2,0.6,2.4,1.3,3.7,1.8c0.6,0.2,1.1,0.5,1.6,0.7
			c0.5,0.3,1.1,0.4,1.6,0.7c0.3,0.2,0.4,0.3,0.7,0.1c0.7-0.4,1.4-0.9,2.1-1.3c0.6-0.4,1.1-0.8,1.7-1.2c0.5-0.3,0.9-0.7,1.3-1.1
			c0.3-0.3,0.6-0.7,0.8-1c0.2-0.2,0.4-0.4,0.3-0.7c-0.1-0.7-1.2-1.1-1.7-1.4c-1-0.5-1.8-1.2-2.8-1.7c-0.6-0.3-1.2-0.7-1.7-1.1
			c-0.5-0.4-1.1-0.6-1.6-0.9c-0.8-0.4-1.8-0.8-2.4-1.4c-0.2-0.2-0.1-0.3,0-0.5c0.2-0.5,0.3-1,0.3-1.5c0-0.8-0.2-1.5-0.2-2.3
			c0-0.6,0.1-1.1,0-1.7c-0.1-1.2-0.2-2.5-0.5-3.7c-0.2-0.7-0.6-1.6-1.2-2.1C179.7,109.6,176.4,109.2,175.2,109.7z"/>
		<path class="st0" d="M177.3,84.4c0.1,1.4,0.3,2.8,0.3,4.2c0,0.2,0,0.4,0,0.6c0,0.4,0.2,0.8,0.2,1.2c0.1,0.4,0,0.8,0.1,1.1
			c-0.2-0.1-0.3-0.2-0.5-0.2c-0.3-0.1-0.8,0-1.1,0.1c-0.6,0.3-1,0.8-1.1,1.4c-0.1,1.3,0.8,2.8,2.3,2.7c1.3-0.1,2.3-1.1,2.1-2.3
			c-0.1-0.5-0.5-1.2-1-1.5c-0.3-0.3-1.1-0.7-1.6-0.4"/>
		<path class="st7" d="M177.5,95.9c0.2,0.9,0.2,1.7,0.1,2.6c0,0.2,0,0.5,0.1,0.7c0.1,0.4,0.2,0.7,0.2,1c0,0.4,0.1,0.7,0.1,1.1
			c0,0.3,0,0.6,0,0.9c0,0.2,0,0.6,0.1,0.8"/>
		<path class="st1" d="M191.2,89.8c-0.6-0.2-1.2-0.4-1.8-0.3c-0.3,0.1-0.4,0.2-0.6,0.2c-0.3,0.1-0.5,0.3-0.7,0.4
			c-0.4,0.3-0.7,0.7-0.9,1.2c-0.2,0.4-0.3,0.6-0.3,1c0,0.5,0,1-0.1,1.5c0,0.7,0.1,1.6,0.4,2.3c0.3,0.6,0.4,1.3,1.1,1.8
			c0.8,0.6,1.7,0.9,2.7,0.7c0.6-0.1,1.1-0.6,1.3-1.1c0.2-0.3,0.1-0.8,0.1-1.1c0-0.5,0.1-1,0.1-1.5c0-0.8-0.3-1.7-0.3-2.5
			c0-0.6,0.3-1.3,0-1.9C192,89.9,191.6,89.7,191.2,89.8z"/>
		<path class="st0" d="M173.8,74.9c-0.8,0.3-1.2,0.8-1.4,1.4c-0.3,0.4-0.3,0.9-0.1,1.4c0.2,0.3,0.5,0.4,0.9,0.5c0.7,0.2,1.4,0.1,2,0
			c0.6-0.1,1-0.4,0.9-1c-0.1-0.7-0.5-1.5-1-2c-0.2-0.2-0.3-0.4-0.6-0.5C174.1,74.6,173.5,74.9,173.8,74.9z"/>
		<path class="st7" d="M181.9,84.3c-0.8-0.6-2-1.4-1.8-2.5c0-0.2,0.3-0.7,0.2-0.9c-0.1-0.3-0.2-0.2-0.5-0.1c-0.7,0.2-1.5,0.4-2.1,0
			c-0.3-0.1-0.3-0.3-0.3-0.6c-0.1-0.3-0.2-0.6-0.3-1c-0.1-0.4-0.3-1-0.7-1.3"/>
		<path class="st14" d="M189.7,110c-0.8-0.1-1.6-0.3-2.5-0.1c-0.2,0.1-0.4,0.1-0.6,0.1c-0.3,0-0.7,0.1-1,0.1
			c-0.4,0.1-1.1,0.1-1.4,0.3c-0.4,0.2-0.3,0.6-0.3,1c0.1,0.8,0.5,1.6,0.6,2.4c0.2,1.4,0.1,2.8,0.1,4.2c0,0.3,0,0.6,0.2,0.9
			c0.4,0.5,1,0.5,1.7,0.5c0.8,0,1.7-0.1,2.5-0.1c0.4,0,0.6-0.1,1-0.1L189.7,110z"/>
		<path class="st7" d="M177,129.9c0.2,1,0.3,2,0.4,3.1c0,0.4,0.1,0.8,0.1,1.2c0,0.9-0.3,1.8-0.3,2.7c0,0.4,0.1,0.8,0.1,1.2
			c0,0.4,0,0.8-0.1,1.2c-0.1,0.7-0.1,1.5,0,2.2c0.1,1.1,0,2.2-0.1,3.3c0,0.2,0,0.5,0,0.7c0,0.2,0,0.5,0.1,0.6"/>
		<path class="st14" d="M164.9,131.5c1.1,0.1,2.2,0.3,3.4,0.3c0.2,0,0.4,0,0.6,0c0.3,0,0.5,0.1,0.8,0.1c0.5,0,0.9-0.2,1.4-0.1
			c0.3,0,0.8,0.1,1,0.3c0.6,0.5,0.3,1.5,0.3,2.1c0,0.5,0,0.9,0.1,1.3c0,0.5,0,1,0,1.6c-0.1,1-0.3,2.1-0.3,3.1c0,0.6,0,1.3,0,1.9
			c0,0.4,0,0.7-0.5,0.8c-0.6,0.2-1.2,0.1-1.7,0.1c-0.5,0-1,0-1.5,0c-0.6,0-1.2,0.1-1.8,0.1c-0.3,0-0.6,0-0.9,0
			c-0.2,0-0.5,0.1-0.6-0.1L164.9,131.5z"/>
		<path class="st14" d="M177.2,109.5c-0.1,0.8-0.2,1.6-0.1,2.5c0,0.4,0,0.9,0,1.3c0,0.3,0,0.7,0,1c0,0.3-0.1,0.5-0.1,0.8
			c0,0.2,0,0.5,0,0.7c0,0.3,0,0.7,0,1c0,0.4,0.1,0.9,0.1,1.3c0,0.8,0,1.5,0,2.3c0,0.3,0.1,0.7,0.1,1c0,0.2,0.1,0.3,0,0.6
			c-0.3,0.1-0.6,0.2-0.8,0.4c0,0.1-0.1,0.2-0.1,0.3c-0.1,0.2-0.1,0.4-0.1,0.7c0,0.3,0.3,0.6,0.6,0.8c0.6,0.3,1.5,0.2,1.9-0.4
			c0.2-0.2,0.1-0.7,0.1-0.9c0-0.3-0.1-0.5-0.2-0.7c-0.2-0.3-0.4-0.4-0.7-0.4c-0.2,0-0.5,0-0.7,0.1c-0.2,0-0.4,0.1-0.5,0.3"/>
		<path class="st7" d="M178.8,124.1c0.5,0.3,1.1,0.7,1.6,1.1c0.2,0.1,0.4,0.3,0.6,0.4c0.3,0.2,0.7,0.4,1,0.6c0.3,0.3,0.7,0.4,1,0.7
			c0.3,0.2,0.5,0.4,0.8,0.6c0.3,0.2,0.6,0.4,0.9,0.5c0.3,0.2,0.5,0.3,0.8,0.4c0.3,0.1,0.5,0.3,0.7,0.5c0.2,0.1,0.4,0.2,0.6,0.3
			c0.3,0.2,0.6,0.3,0.9,0.5c0.3,0.2,0.6,0.4,0.9,0.6c0.3,0.1,0.5,0.3,0.7,0.4c0.1,0.1,0.2,0.2,0.2,0.2"/>
		<path class="st7" d="M158.5,127.3c0.2-0.1,0.4-0.2,0.6-0.3c0.3-0.2,0.6-0.5,0.9-0.7c0.2-0.2,0.4-0.4,0.6-0.6
			c0.2-0.2,0.5-0.4,0.7-0.6c0.3-0.3,0.7-0.6,1-0.9c0.2-0.2,0.5-0.4,0.7-0.6c0.2-0.2,0.5-0.4,0.7-0.6c0.1-0.1,0.2-0.1,0.3-0.2
			c0.1,0,0.1-0.1,0.2-0.1"/>
		<path class="st7" d="M184.4,112.9c0.9,0.1,1.7,0.1,2.5-0.1c0.2,0,0.5-0.1,0.7,0c0.2,0,0.4,0,0.6,0c0.2,0,0.4-0.1,0.7,0
			c0.1,0,0.1,0,0.2,0"/>
		<path class="st7" d="M184.9,116.4c0.9,0,1.7-0.1,2.6-0.1c0.4,0,0.9,0,1.3,0c0.1,0,0.6,0.1,0.7,0"/>
		<path class="st7" d="M168.5,131.7c-0.1,1.2-0.1,2.4,0.1,3.6c0.1,0.5,0.1,1,0.1,1.6c0,0.4,0,0.9,0.1,1.3c0,0.4,0.1,0.8,0.1,1.3
			c0,0.4,0,0.8,0,1.2c0,0.7,0.1,1.4,0.1,2"/>
		<path class="st11" d="M192.5,96.4c-0.4,0.2-0.8,0.6-1.3,0.5c-0.1,0-0.2-0.1-0.3-0.1c-0.2,0-0.4-0.1-0.6-0.2
			c-0.3-0.2-0.6-0.6-0.9-0.9c-0.3-0.3-0.4-0.7-0.4-1.1c0-0.3,0.1-0.5,0.1-0.8c0-0.2,0.1-0.5,0.1-0.7c0.1-0.3,0.2-0.7,0.3-1
			c0.2-0.3,0.6-0.6,1-0.8c0.3-0.2,0.8-0.3,1.2-0.2c0.2,0,0.3,0.1,0.5,0.2L192.5,96.4z"/>
	</g>
</g>
<g>
	<path class="st7" d="M19.5,46.2c0.1-1.8,0.1-3.5,0-5.3c-0.1-0.9-0.2-1.8-0.1-2.7c0.1-1.8,0.3-3.5,0.2-5.3c0-0.6,0-1.1,0-1.6
		c0-0.8-0.1-1.6-0.1-2.3c0-0.7,0-1.5,0.1-2.2c0.1-0.4,0-0.8,0.1-1.2c0.7,0.6,1.3,1.3,1.8,2c0.4,0.6,0.7,1.2,1.3,1.7
		c0.7,0.7,1.2,1.6,1.8,2.4c0.5,0.6,1,1.1,1.5,1.6c0.3,0.4,0.6,0.7,0.9,1.1c0.5,0.6,1,2.1,1.5,2.7c0.3,0.4,0.5,0.8,0.8,1.3
		c0.5,0.8,1.2,1.4,1.7,2.1c0.5,0.7,1.2,1.3,1.7,2c0.4,0.6,0.9,1.1,1.3,1.7c0.3,0.5,0.8,0.8,1.1,1.3c0-0.4,0-0.8-0.1-1.2
		c-0.1-1.8-0.3-3.7-0.3-5.5c0-2-0.2-4-0.2-6c0-1-0.3-2.9-0.2-3.9c0-0.6,0-1.2,0-1.9c0-0.5,0.1-0.9,0.1-1.4c0-0.4,0-0.8,0-1.3"/>
	<path class="st7" d="M42.3,25.1c-0.1,2-0.1,3.9-0.1,5.9c0,1.3-0.1,2.5,0,3.8c0,1.6-0.2,3.3-0.1,4.9c0,1,0,2.1,0,3.1
		c0,0.6,0,1.1,0.1,1.7c0,0.2,0,0.5,0,0.7"/>
	<path class="st7" d="M60.2,27c-1.1-0.6-2.2-1.3-3.5-1.6c-0.6-0.1-1.2-0.1-1.8-0.2c-1.2-0.1-2.2,0.4-3.2,1c-0.8,0.4-1.6,0.9-2.1,1.7
		c-0.4,0.6-0.6,1.2-0.7,1.8c-0.2,0.9-0.2,2,0.4,2.7c0.4,0.5,1.1,1,1.6,1.4c0.7,0.5,1.7,0.7,2.5,0.9c0.6,0.2,1.2,0.2,1.9,0.4
		c0.7,0.2,1.3,0.3,1.8,0.7c0.6,0.4,1.4,0.7,1.8,1.2c0.9,1.2,1.7,2.2,1.5,3.8c-0.1,1.4-0.6,2.8-1.6,3.7c-1.1,1-2.7,1.4-4.2,1.4
		c-1.5,0-3-0.5-4.4-0.9c-0.5-0.2-1.1-0.3-1.6-0.7c-0.5-0.3-0.9-0.9-1-1.5"/>
	<path class="st7" d="M76,25c-0.9-0.2-1.9-0.5-2.8-0.3c-0.4,0.1-0.9,0.3-1.2,0.5c-0.7,0.3-1.3,0.7-2,1.1c-0.7,0.5-1.4,0.9-2,1.5
		c-0.6,0.6-1,1.3-1.5,2c-0.6,0.9-1.1,1.9-1.5,2.9c-0.4,1.3-0.3,2.5-0.1,3.8c0.2,0.9,0.4,1.8,0.8,2.7c0.5,1.3,0.8,2.6,1.7,3.6
		c0.6,0.6,1.1,1.4,1.8,1.8c1.3,0.7,2.6,0.9,4,1c0.8,0,1.7,0.1,2.5,0c1-0.1,1.8-0.6,2.7-0.9c1.6-0.7,2.9-1.6,3.9-2.9
		c0.9-1.1,1.6-2.4,1.9-3.7c0.2-0.6,0.3-1.2,0.3-1.8c0-0.5-0.1-0.9-0.2-1.4c-0.2-2-0.6-3.9-1.8-5.6c-0.7-1-1.7-2-2.7-2.8
		c-0.5-0.3-1-0.6-1.5-0.8c-0.3-0.2-0.7-0.3-1-0.5C76.5,25,75.6,25.1,76,25z"/>
	<path class="st7" d="M77.2,45.3c-2.9,1-5.8,2.1-8.6,3.3c1.5-0.3,3-0.5,4.5-0.3c1.9,0.2,3.6,1.1,5.4,1.7c1.8,0.5,3.8,0.7,5.7,0.5
		c0.8-0.1,1.6-0.3,2.2-0.8c0.6-0.5,1-1.4,0.6-2.1"/>
</g>
<g>
	<path class="st7" d="M225.2,25.2c-1.3,0-2.5,0.1-3.8,0.2c-0.5,0-1.1,0.1-1.6,0c-0.5-0.1-0.8,0-1.3,0c-0.5,0.1-1,0-1.5,0
		c-0.7-0.1-1.4,0-2.1,0c-0.3,0-0.7-0.1-1-0.1c-0.1,0-0.2-0.1-0.3,0c0.3,0.9,0.1,1.4,0.1,2.3c0,0.5,0.1,1.7,0,2.2
		c-0.1,0.6,0.1,1,0,1.6c-0.2,1.3-0.2,2.5-0.2,3.8c0,0.5,0,0.9-0.1,1.4c0,0.6,0,1.2,0,1.7c0,0.5-0.1,1-0.1,1.4c0,0.5,0.1,1.1,0.1,1.6
		c0.1,0.9-0.1,1.8,0.1,2.7c0.1,0.6,0,1.3,0,1.9"/>
	<path class="st7" d="M223.9,35.1c-1.6-0.1-3.3,0-4.9-0.2c-0.4,0-0.8-0.1-1.1-0.1c-0.6,0-1.2,0.1-1.8,0.1c-0.5,0-0.9,0.1-1.4,0.1
		c-0.3,0-0.6-0.1-0.8-0.1"/>
	<path class="st7" d="M229.6,25.2c1.2,0,2.4,0,3.6,0c0.5,0,1-0.1,1.5,0c0.9,0,1.8,0.2,2.7,0.3c0.5,0,1,0.1,1.5,0
		c0.4,0,0.8-0.1,1.2-0.1c0.6,0,1.3,0.1,1.9,0c0.9-0.1,1.8-0.1,2.8-0.2c0,0-0.1,0-0.1,0"/>
	<path class="st7" d="M237,25.3c0.2,0.7,0.4,1.4,0.4,2.1c0,0.3,0,0.6,0,1c-0.1,0.8-0.1,1.7-0.1,2.5c0,0.6-0.1,1.3-0.2,1.9
		c-0.1,0.5,0,1,0,1.5c0,1,0.1,1.9,0.1,2.9c0,0.6,0.1,1.2,0,1.8c0,0.5-0.1,1.1-0.2,1.6c-0.1,0.6,0,1.2-0.1,1.8c0,0.6,0,1.2,0,1.8
		c0,0.2,0.1,0.5,0.1,0.8c0,0.2,0,0.4,0,0.6"/>
	<path class="st7" d="M288.4,27c-1.4-1-3.1-1.7-4.9-2c-3-0.5-6.1,0.7-8.5,2.4c-0.5,0.3-0.9,0.7-1.3,1.2c-0.4,0.5-0.7,1-0.9,1.6
		c-0.7,1.6-1.3,3.3-1.3,5.1c0,2.3,1.1,4.4,2.1,6.5c0.3,0.6,0.6,1.2,1.1,1.7c1,1,2.7,1.5,4,1.9c0.7,0.2,1.3,0.3,2,0.3
		c0.7-0.1,1.4-0.1,2-0.1c0.6,0,1.2-0.2,1.8-0.3c1-0.2,2-0.7,2.8-1.4c0.3-0.3,0.7-0.7,0.9-1.1c0.1-0.1,0.1-0.3,0.2-0.4"/>
	<path class="st7" d="M259.3,25c-0.9-0.2-1.9-0.5-2.8-0.3c-0.4,0.1-0.9,0.3-1.2,0.5c-0.7,0.3-1.3,0.7-2,1.1c-0.7,0.5-1.4,0.9-2,1.5
		c-0.6,0.6-1,1.3-1.5,2c-0.6,0.9-1.1,1.9-1.5,2.9c-0.4,1.3-0.3,2.5-0.1,3.8c0.2,0.9,0.4,1.8,0.8,2.7c0.5,1.3,0.8,2.6,1.7,3.6
		c0.6,0.6,1.1,1.4,1.8,1.8c1.3,0.7,2.6,0.9,4,1c0.8,0,1.7,0.1,2.5,0c1-0.1,1.8-0.6,2.7-0.9c1.6-0.7,2.9-1.6,3.9-2.9
		c0.9-1.1,1.6-2.4,1.9-3.7c0.2-0.6,0.3-1.2,0.3-1.8c0-0.5-0.1-0.9-0.2-1.4c-0.2-2-0.6-3.9-1.8-5.6c-0.7-1-1.7-2-2.7-2.8
		c-0.5-0.3-1-0.6-1.5-0.8c-0.3-0.2-0.7-0.3-1-0.5C259.8,25,258.9,25.1,259.3,25z"/>
	<path class="st7" d="M260.5,45.3c-2.9,1-5.8,2.1-8.6,3.3c1.5-0.3,3-0.5,4.5-0.3c1.9,0.2,3.6,1.1,5.4,1.7c1.8,0.5,3.8,0.7,5.7,0.5
		c0.8-0.1,1.6-0.3,2.2-0.8c0.6-0.5,1-1.4,0.6-2.1"/>
</g>
<g>
	<path class="st4" d="M242.9,85.7c-0.7,0.1-1.3,0.1-1.9,0.5c-0.2,0.2-0.4,0.3-0.6,0.4c-0.5,0.3-0.8,0.7-1.2,1
		c-0.8,0.7-1.4,1.5-2.1,2.3c-0.7,0.7-1.2,1.5-1.7,2.3c-0.6,1-1.2,2-1.8,3c-0.5,0.9-1,1.9-1.6,2.7c-0.4,0.6-1,1.1-1.5,1.7
		c-1.1,1.3-1.7,2.9-1.9,4.6c-0.2,2.1,0.1,4.2,0.1,6.3c0,1.5-0.1,3-0.7,4.4c-0.3,0.7-0.7,1.3-1,2c-0.4,0.9-0.7,1.8-0.9,2.7
		c-0.2,0.7-0.1,1.4-0.1,2c0,0.8-0.1,1.5-0.3,2.2c-0.1,0.3-0.2,0.5-0.3,0.7c-0.1,0.2-0.2,0.5-0.2,0.7c0,0.3,0.3,0.5,0.6,0.5
		c0.4,0.1,0.7,0.2,1.1,0.2c0.5-0.1,1.2-0.3,1.7-0.6c0.3-0.1,0.6-0.3,0.9-0.5c0.3-0.2,0.6-0.3,0.9-0.5c0.3-0.3,0.5-0.7,0.8-1
		c0.3-0.4,0.6-0.7,0.8-1.1c0.6-1.2,0.5-2.6,0.6-3.9c0.2-1.2,0.1-2.4,0.4-3.6c0.2-0.8,0.4-1.6,0.7-2.3c0.3-0.6,0.5-1.3,0.7-2
		c0.3-0.8,0.6-1.5,0.9-2.3c0.3-0.6,0.4-1.2,0.6-1.8c0.1-0.2,0.1-0.5,0.2-0.7c0-0.3,0.1-0.6,0.2-1c0.1-0.5,0.2-1,0.2-1.5
		c0.1-0.4,0-0.9,0.2-1.4c0.1-0.2,0.2-0.4,0.3-0.6c0.2-0.3,0.4-0.6,0.7-0.9c0.3-0.4,0.7-0.7,1.1-1.1c0.4-0.4,0.7-0.7,1-1.1
		c0.8-0.8,1.7-1.6,2.3-2.6c0.3-0.4,0.5-0.9,0.8-1.3c0.3-0.5,0.6-1.1,0.8-1.7c0.1-0.4,0.2-0.8,0.3-1.3c0.1-0.5,0.3-1,0.4-1.5
		c0.1-0.7,0.2-1.5,0-2.2c-0.1-0.2-0.1-0.5-0.2-0.8c-0.1-0.2-0.3-0.4-0.5-0.5c-0.1-0.1-0.3-0.2-0.4-0.3
		C243.2,86.1,242.9,85.9,242.9,85.7z"/>
	<path class="st4" d="M241.5,70.3c-0.3,1.4-0.3,2.8-0.5,4.2c-0.1,0.8-0.3,1.5-0.3,2.3c0,1.3-0.2,2.5-0.4,3.8
		c-0.2,1.1-0.3,2.2-0.7,3.2c-0.2,0.4-0.4,0.8-0.6,1.2c-0.2,0.4-0.3,0.6-0.7,0.8c-0.3,0.2-0.5,0.6-0.8,0.8c-0.2,0.1-0.4,0.3-0.6,0.5
		c-0.6,0.7-0.7,1.7-0.9,2.5c-0.3,1.1-0.4,2.2-0.1,3.3c0.1,0.2,0.1,0.5,0.2,0.7c0.1,0.3,0.1,0.6,0.2,0.9c0.1,0.6,0.2,1.1,0.4,1.6
		c0.2,0.6,0.3,1.1,0.6,1.7c0.2,0.6,0.2,1.2,0.3,1.8c0.2,0.6,0.4,1.3,0.5,1.9c0.2,0.8,0.2,1.6,0.4,2.3c0.1,0.3,0.1,0.6,0.2,0.8
		c0.1,0.3,0.2,0.7,0.3,1c0.2,0.6,0.3,1.2,0.3,1.8c0.1,1.1,0.2,2.2,0.2,3.3c-0.1,1.3-0.3,2.6-0.5,3.9c-0.1,0.8-0.2,1.6-0.3,2.3
		c-0.1,0.4-0.1,0.8-0.1,1.2c0,0.8,0.4,1.4,0.8,1.9c0.3,0.4,0.6,0.9,1,1.2c0.6,0.5,1.1,0.9,1.8,1.2c0.5,0.3,1,0.6,1.6,0.7
		c0.5,0.1,1,0.3,1.5,0.3c0.5,0.1,0.9,0.1,1.4,0.1c0.6,0,1.1,0.1,1.7,0.2c0.5,0.1,1.1,0.1,1.6,0.2c0.5,0.1,1,0.1,1.5,0
		c0.4-0.1,0.7-0.2,1-0.4c0.2-0.1,0.5-0.2,0.7-0.4c0.2-0.2,0.3-0.7,0.3-0.9c0.1-0.4,0.1-0.9,0.1-1.3c0.3-2.1,0.5-4.3,0.5-6.5
		c-0.1-1.3,0-2.5,0.1-3.8c0.2-1.3,0.1-2.5,0.2-3.8c0.1-1.3-0.1-2.7,0-4c0-0.6,0-1.3,0-1.9c0-0.6-0.2-1.1-0.3-1.6
		c-0.1-0.5-0.2-0.9-0.3-1.4c-0.1-0.6,0-1.2-0.2-1.7c-0.2-0.5-0.3-1-0.5-1.5c-0.2-0.5-0.3-1-0.4-1.6c-0.1-0.5-0.4-0.9-0.6-1.4
		c-0.2-0.4-0.3-0.9-0.6-1.3c-0.4-0.7-0.8-1.3-1.2-2c-0.5-1-1.3-1.9-1.9-2.9c-0.4-0.7-0.6-1.5-0.7-2.3c-0.2-1.1-0.2-2.2,0-3.2
		c0.1-0.5,0.1-1,0.1-1.5c0-0.5,0.1-1,0.1-1.6c0-0.6,0-1.1,0-1.7c0-0.6-0.2-1.2-0.4-1.8c-0.2-0.5-0.3-1.1-0.6-1.5
		c-0.3-0.5-0.8-1-1.2-1.3c-0.3-0.2-0.7-0.4-1.1-0.6c-0.3-0.2-0.6-0.3-1-0.3C242.7,69.7,242,69.6,241.5,70.3z"/>
	<path class="st4" d="M244.4,116.2c-0.4,0-0.8,0-1.2,0.1c-0.3,0.1-0.5,0.2-0.7,0.4c-0.2,0.1-0.4,0.2-0.6,0.4
		c-0.4,0.3-0.8,0.6-1.1,1.1c-0.4,0.6-0.3,1.4-0.5,2.1c-0.3,1-0.3,2.1-0.5,3.2c-0.2,1-0.1,2.1-0.3,3.1c-0.2,1-0.3,2.1-0.4,3.1
		c0,0.5-0.1,0.9-0.2,1.4c-0.1,0.5-0.1,0.9-0.1,1.4c-0.2,1.6-0.2,3.2-0.5,4.7c-0.2,1.1-0.4,2.3-1.1,3.2c-0.9,1.2-1.9,2.3-2.8,3.5
		c-0.5,0.7-0.9,1.3-1.3,2c-0.4,0.8-0.8,1.6-1.1,2.4c-0.3,0.8-0.5,1.6-0.6,2.5c-0.2,0.7-0.3,1.4-0.3,2.1c-0.1,0.9-0.1,1.8-0.1,2.7
		c-0.1,1-0.3,2-0.4,3c-0.1,0.9-0.1,1.7-0.2,2.6c0,0.4-0.1,0.9-0.2,1.3c-0.1,0.3-0.4,0.6-0.6,0.9c-0.5,0.9-1,1.8-1.2,2.8
		c-0.2,0.8-0.2,1.5,0.2,2.2c0.3,0.5,0.7,0.8,1.2,1.2c0.5,0.4,0.9,0.7,1.4,1c0.5,0.3,1,0.7,1.6,1c0.5,0.4,1.1,0.7,1.6,1.1
		c0.9,0.7,1.9,1.4,3,1.8c0.5,0.1,1.1,0.4,1.6,0.4c0.5,0,1,0,1.5,0c0.9,0,1.8-0.3,2.7-0.6c0.6-0.2,1.1-0.6,1.3-1.2
		c0.1-0.5-0.1-1-0.6-1.3c-0.5-0.3-1.2-0.5-1.7-0.8c-0.7-0.5-1.4-1-1.9-1.7c-0.4-0.5-0.9-0.9-1.2-1.4c-0.2-0.2-0.3-0.5-0.5-0.7
		c-0.2-0.2-0.4-0.4-0.5-0.6c-0.6-0.7-1.4-1.3-2.1-2c-0.5-0.5-0.9-1-0.8-1.8c0-0.4,0.3-0.9,0.5-1.3c0.3-0.5,0.4-1.1,0.6-1.6
		c0.2-0.5,0.4-1,0.6-1.6c0.2-0.6,0.5-1.1,0.8-1.7c0.6-1.5,1.4-3,2.1-4.5c0.5-1.1,1-2.1,1.3-3.3c0.1-0.5,0.3-1,0.5-1.5
		c0.1-0.3,0.2-0.5,0.3-0.8c0.2-0.3,0.4-0.6,0.6-0.8c0.3-0.6,0.6-1,0.8-1.7c0.1-0.5,0.2-0.9,0.5-1.4c0.5-0.7,1-1.3,1.5-2
		c0.4-0.6,0.9-1.3,1.2-1.9c0.4-0.8,0.9-1.6,1.3-2.3c0.5-0.9,1.1-1.8,1.6-2.7c0.4-0.7,0.7-1.4,1-2.1c0.6-1.5,1.2-3,1.3-4.7
		c0.1-1.7-0.1-3.4-0.4-5.1c-0.3-1.8-1.1-3.4-2.5-4.5c-0.4-0.3-0.9-0.6-1.4-0.7c-0.4-0.1-0.8-0.1-1.3-0.1
		C245.2,116.5,244.1,116.1,244.4,116.2z"/>
	<path class="st4" d="M238.1,83.4c-0.5,0.6-1,1-1.1,1.8c-0.1,0.3-0.1,0.6-0.2,0.9c-0.1,0.6,0,1.1,0.2,1.7c0.2,0.6,0.4,1.1,0.5,1.7
		c0.2,0.7,0.5,1.3,0.8,1.9c0.2,0.8,0.4,1.5,0.7,2.2c0.2,0.4,0.4,0.7,0.5,1.1c0.1,0.4,0.2,0.8,0.4,1.2c0.2,0.4,0.4,0.8,0.5,1.2
		c0.1,0.4,0.2,0.8,0.3,1.1c0.2,0.7,0.6,1.4,0.8,2.1c0.2,0.7,0.6,1.3,1,1.9c0.4,0.7,0.7,1.4,1.2,2.1c0.3,0.5,0.6,1.2,0.9,1.7
		c0.4,0.6,0.7,1.3,1.3,1.8c0.2,0.2,0.5,0.4,0.7,0.6c0.2,0.2,0.4,0.5,0.6,0.7c0.5,0.5,1.1,0.8,1.8,1.1c0.7,0.3,1.4,0.5,2.1,0.8
		c0.7,0.2,1.3,0.6,1.9,0.8c0.2,0.1,0.5,0.1,0.8,0.2c0.3,0.1,0.6,0.2,0.9,0.3c0.5,0.2,1.1,0.3,1.6,0.5c1,0.4,2.1,0.7,3,1.2
		c0.8,0.4,1.7,0.7,2.4,1.2c0.6,0.4,0.9,0.9,1.1,1.6c0.2,0.6,0.4,1.2,0.6,1.7c0.2,0.6,0.7,1,1.1,1.3c0.2,0.2,0.5,0.4,0.7,0.6
		c0.2,0.2,0.4,0.5,0.6,0.7c0.2,0.2,0.4,0.4,0.6,0.6c0.2,0.3,0.4,0.5,0.5,0.8c0.3,0.5,0.8,0.8,1.4,0.5c0.5-0.4,0.8-1.3,1-1.8
		c0.3-0.8,0.5-1.6,0.6-2.4c0-0.4,0-0.7,0-1.1c0-0.4-0.1-0.6-0.2-1c-0.1-0.3-0.2-0.6-0.5-0.8c-0.2-0.3-0.4-0.6-0.6-0.9
		c-0.4-0.5-1-0.9-1.5-1.3c-1.1-0.8-2.4-1.2-3.2-2.3c-0.4-0.4-0.7-0.9-1.1-1.3c-0.4-0.4-0.8-0.7-1.3-1.1c-0.4-0.3-0.7-0.7-1.1-1
		c-0.4-0.3-0.8-0.7-1.2-1c-0.9-0.6-1.8-1.2-2.8-1.7c-0.5-0.3-1-0.5-1.4-0.8c-0.4-0.3-0.8-0.5-1.2-0.7c-0.7-0.4-1.4-0.8-2.1-1.3
		c-0.3-0.2-0.6-0.4-1-0.6c-0.3-0.2-0.5-0.5-0.7-0.8c-0.4-0.6-0.8-1.1-1-1.8c-0.3-1-0.5-1.9-0.6-3c0-0.5-0.1-1-0.3-1.5
		c-0.2-0.6-0.3-1.2-0.5-1.8c-0.1-0.5-0.2-1.1-0.4-1.6c-0.2-0.6-0.4-1.2-0.5-1.8c-0.1-0.5-0.3-1-0.4-1.5c-0.2-0.5-0.5-0.8-0.7-1.3
		c-0.3-0.8-0.9-1.5-1.5-2.2c-0.4-0.5-1-0.7-1.6-0.9c-0.4-0.1-0.9-0.3-1.3-0.3c-0.5,0-1,0-1.5,0c-0.4,0-0.8,0-1.2,0.1
		C238.4,83.4,238.1,83.5,238.1,83.4z"/>
	<path class="st4" d="M246.9,62.7c-0.5,0-1.2-0.2-1.6,0c-0.1,0-0.2,0.1-0.3,0.1c-0.2,0.1-0.4,0.2-0.6,0.3c-0.5,0.3-1,0.5-1.4,0.7
		c-0.4,0.2-0.8,0.4-1.2,0.7c-0.4,0.3-0.8,0.7-1,1.2c-0.3,0.5-0.6,1-0.7,1.5c-0.2,0.6-0.2,1.1-0.3,1.7c-0.1,1,0,2.2,0.6,3.2
		c0.2,0.3,0.3,0.5,0.4,0.8c0.1,0.4,0.2,0.8,0.5,1.2c0.3,0.6,0.8,1,1.2,1.5c0.2,0.3,0.5,0.5,0.7,0.7c0.2,0.2,0.4,0.4,0.6,0.6
		c0.4,0.3,0.9,0.7,1.4,1c0.8,0.4,1.5,0.9,2.2,1.3c0.8,0.5,1.6,0.8,2.5,1.1c0.6,0.3,1.4,0.5,2,0.6c0.2,0.1,0.5,0,0.7,0
		c0.2,0,0.6,0.1,0.8,0c0.2-0.1,0.4-0.4,0.5-0.5c0.2-0.4,0.3-0.8,0.4-1.2c0.1-0.4,0.2-0.8,0.2-1.2c0.1-0.6,0.1-1.1,0.1-1.7
		c0.1-0.6,0-1.2,0-1.9c0-0.5,0-1.1,0.1-1.6c0-0.5-0.1-1,0-1.5c0-0.5-0.1-1.1-0.2-1.6c-0.1-0.4-0.3-0.7-0.4-1.1
		c-0.1-0.4-0.2-0.8-0.4-1.2c-0.1-0.3-0.3-0.6-0.5-0.8c-0.2-0.2-0.3-0.5-0.5-0.7c-0.4-0.6-0.9-1-1.4-1.5c-0.3-0.2-0.5-0.4-0.8-0.6
		c-0.3-0.2-0.6-0.2-0.9-0.3c-0.5-0.2-0.9-0.3-1.4-0.5c-0.3-0.1-0.6-0.1-0.8-0.1c-0.1,0-0.3,0-0.4,0
		C246.7,62.7,246.4,62.5,246.9,62.7z"/>
	<path class="st4" d="M242.5,112.6c-0.6,0-1.1,0-1.5,0.4c-0.3,0.2-0.5,0.5-0.7,0.8c-0.4,0.6-0.9,1.1-1.3,1.7
		c-0.6,0.9-0.8,1.9-1.1,2.9c-0.1,0.3-0.2,0.7-0.2,1c0,0.6,0.2,1.1,0.3,1.6c0.1,0.6,0.1,1.1,0.4,1.7c0.2,0.5,0.4,1,0.7,1.5
		c0.4,0.7,0.8,1.3,1.4,1.9c0.2,0.2,0.5,0.4,0.7,0.7c0.2,0.3,0.5,0.6,0.7,0.8c0.8,0.7,2,1,2.8,1.8c0.2,0.2,0.4,0.5,0.6,0.7
		c0.3,0.3,0.6,0.6,0.8,0.9c0.4,0.6,0.7,1.2,1,1.8c0.2,0.3,0.4,0.6,0.6,0.9c0.2,0.4,0.4,0.8,0.6,1.2c0.2,0.4,0.5,0.7,0.7,1
		c0.2,0.4,0.4,0.8,0.7,1.1c0.2,0.3,0.5,0.7,0.8,1c0.3,0.3,0.5,0.7,0.7,1.1c0.4,0.6,1,1.1,1.4,1.7c0.4,0.5,0.9,1,1.1,1.7
		c0.1,0.7,0,1.4-0.1,2.1c-0.1,0.9-0.2,1.7-0.3,2.6c-0.1,1.1,0,2.2,0.2,3.3c0.1,0.5,0.1,1,0.2,1.5c0.2,0.6,0.4,1.1,0.7,1.7
		c0.4,0.9,0.8,1.9,1.4,2.7c0.4,0.7,0.6,1.4,1.1,2.1c0.4,0.5,0.8,1,1,1.6c0.2,0.7,0.5,1.3,0.8,1.9c0.3,0.7,0.3,1.5,0.4,2.2
		c0.1,0.8,0.2,1.6,0.2,2.5c0,0.7-0.2,1.4-0.2,2.1c0,0.5-0.1,1.1-0.2,1.6c-0.1,0.6-0.2,1.2-0.2,1.8c-0.1,1.1,0.4,2.1,1.2,2.8
		c0.9,0.7,2.1,0.8,3.2,0.7c1.3-0.1,2.7-0.2,4-0.2c0.7,0,1.4-0.1,2.2-0.1c0.8,0,1.6-0.1,2.4-0.1c0.7,0,1.4,0,2,0c0.3,0,0.6,0,0.9,0
		c0.3-0.1,0.5-0.2,0.8-0.3c0.2-0.1,0.5-0.1,0.7-0.2c0.2-0.1,0.3-0.3,0.4-0.5c0.2-0.3,0.4-0.7,0.4-1.1c-0.1-0.7-0.7-1.4-1.2-1.8
		c-0.7-0.5-1.5-0.7-2.3-1c-0.8-0.3-1.8-0.5-2.7-0.7c-0.5-0.1-1-0.2-1.4-0.3c-0.4-0.1-0.9-0.2-1.3-0.4c-0.7-0.3-1.4-0.6-1.9-1.1
		c-0.6-0.7-1.2-1.6-1.2-2.6c0-0.8-0.1-1.6-0.1-2.4c0-0.9-0.2-1.9-0.2-2.8c-0.1-0.9-0.2-1.9-0.3-2.8c-0.1-0.8-0.3-1.6-0.5-2.5
		c-0.1-0.4,0-0.7-0.1-1.1c0-0.3-0.1-0.7-0.1-1c-0.1-0.7-0.2-1.5-0.3-2.2c-0.1-0.8-0.1-1.5-0.2-2.3c-0.1-0.6-0.1-1.2-0.2-1.8
		c-0.3-1.2-0.3-2.5-0.7-3.7c-0.2-0.7-0.4-1.4-0.7-2c-0.3-0.6-0.5-1.3-0.8-1.9c-0.4-0.7-0.6-1.5-0.9-2.3c-0.3-0.8-0.8-1.6-1-2.4
		c-0.1-0.4-0.2-0.8-0.3-1.2c-0.1-0.5-0.3-0.9-0.5-1.3c-0.2-0.4-0.2-0.8-0.3-1.3c-0.1-0.4-0.2-0.8-0.4-1.3c-0.2-0.8-0.5-1.6-0.7-2.4
		c-0.2-0.6-0.4-1.3-0.6-1.9c-0.3-0.7-0.4-1.4-0.7-2.2c-0.3-0.7-0.5-1.5-0.8-2.2c-0.3-0.7-0.5-1.4-0.9-2.1c-0.5-0.6-0.7-1.4-1.2-2
		c-0.4-0.5-0.8-0.9-1.2-1.3c-0.4-0.4-1-0.7-1.5-1c-0.9-0.5-1.9-1-2.9-1.3c-0.7-0.2-1.5-0.2-2.2-0.2c-0.3,0-0.5,0-0.8,0.1
		c-0.2,0-0.3,0.1-0.5,0.1C242.8,112.6,242.7,112.5,242.5,112.6C242.2,112.6,241.8,112.8,242.5,112.6z"/>
	<g>
		<path class="st15" d="M260.4,139.9c-0.7-0.1-1.3,0-1.9,0.2c-0.1,0.1-0.3,0.2-0.4,0.3c-0.2,0.1-0.3,0.2-0.5,0.3
			c-0.3,0.2-0.6,0.5-0.8,0.8c-0.5,0.6-0.7,1.3-0.8,2c-0.3,1.4,1.1,2.2,2.2,2.7c0.5,0.2,1.1,0.4,1.6,0.3c0.5-0.1,1-0.4,1.5-0.6
			c0.6-0.2,0.9-0.8,1.1-1.4"/>
		<path class="st15" d="M253.9,143.8c0.7,0.1,1.4,0.4,2,0.1C256,143.9,256.1,143.8,253.9,143.8z"/>
		<path class="st15" d="M243,143c-0.4-0.4-0.8-0.6-1.3-0.7c-0.1,0-0.2,0.1-0.3,0.1c-0.2,0.1-0.3,0.1-0.5,0.2
			c-0.3,0.2-0.6,0.5-0.8,0.8c-0.3,0.3-0.6,0.7-0.7,1.1c-0.1,0.3,0.1,0.7,0.2,1c0.1,0.5,0.5,0.8,0.8,1.1c0.2,0.1,0.3,0.2,0.5,0.3
			c0.1,0,0.4,0.1,0.5,0.2"/>
		<path class="st15" d="M237.7,140.8c0.2,0.9,0.4,1.8,1.1,2.4c0.2,0.2,0.4,0.3,0.7,0.5C239.8,143.8,240.1,143.9,237.7,140.8z"/>
		<path class="st15" d="M258.5,174c-0.1-0.5-0.2-1-0.1-1.5c0-0.2,0.2-0.4,0.2-0.6c0.1-0.3,0.4-0.6,0.7-0.7c0.7-0.4,1.6-0.6,2.4-0.6
			c0.4,0,0.7,0,1.1,0.1c0.3,0.1,0.5,0.3,0.8,0.5c0.5,0.4,0.8,0.8,1.1,1.3c0.3,0.6,0.5,1.3,0.4,2c0,0.2,0,0.4,0,0.6
			c0,0.2-0.2,0.2-0.2,0.4"/>
		<path class="st15" d="M272.7,170.3c-0.4,0.2-0.9,0.3-1.2,0.7c-0.1,0.2-0.2,0.4-0.3,0.5c-0.1,0.3-0.2,0.6-0.3,0.9
			c-0.1,0.5-0.1,0.9,0,1.4c0.1,0.3,0.2,0.6,0.3,0.9c0.1,0.2,0.3,0.4,0.3,0.5"/>
		<path class="st15" d="M265.4,173.5c0.9,0,1.7,0,2.6,0.2c0.3,0.1,0.6,0.1,0.9,0.1c0.3,0,0.5-0.1,0.7-0.2c0.1,0,0.3,0,0.4-0.1"/>
		<path class="st15" d="M242.4,171.5c-0.8-0.2-1.4-0.5-2.2-0.2c-0.3,0.1-0.5,0.3-0.7,0.5c-0.5,0.4-0.7,0.8-0.7,1.5
			c0,0.6,0.3,1.3,0.7,1.8"/>
		<path class="st15" d="M229.7,164.4c0.5,0,1.2-0.2,1.7,0.2c0.1,0.1,0.2,0.3,0.3,0.4c0.3,0.4,0.5,1,0.6,1.6c0.2,0.7,0.2,1.5,0.1,2.2
			c0,0.3-0.1,0.6-0.2,0.9c-0.1,0.2-0.1,0.4-0.2,0.6c-0.1,0.3-0.3,0.2-0.5,0.3"/>
		<path class="st15" d="M233.2,169.2c0.5,0.6,0.9,1.1,1.5,1.4c0.3,0.2,0.6,0.4,0.9,0.6c0.4,0.3,0.8,0.5,1.3,0.8
			c0.4,0.2,0.9,0.2,1.2,0.5"/>
		<path class="st15" d="M230.3,161.2c0.6,0.4,1.2,0.8,1.8,1.3c0.2,0.2,0.4,0.3,0.6,0.5c0.3,0.2,0.6,0.3,1,0.5
			c0.2,0.1,0.4,0.2,0.7,0.3c0.2,0,0.3,0,0.5,0.1"/>
		<path class="st15" d="M238.7,143c-0.6,0.5-1.2,0.9-1.6,1.6c-0.1,0.2-0.3,0.5-0.4,0.7c-0.3,0.6-0.6,1.2-0.9,1.8
			c-0.5,1.3-1,2.6-1.4,4c-0.4,1.7-0.7,3.4-1,5.1c-0.2,1.4-0.4,2.9-0.6,4.3c0,0.2-0.2,1.8-0.5,1.8"/>
		<path class="st15" d="M235.9,147.2c0.2,0.4,0.5,0.8,0.9,1.2c0.3,0.2,0.5,0.4,0.8,0.5c0.2,0.1,0.5,0.3,0.7,0.4
			c0.4,0.3,0.9,0.5,1.4,0.7c0.3,0.1,0.6,0.2,0.9,0.2"/>
		<path class="st15" d="M234.2,152.9c0.4,0.6,0.6,1,1.2,1.3c0.2,0.1,0.5,0.2,0.7,0.3c0.3,0.1,0.7,0.2,1,0.3c0.3,0.1,0.6,0.1,0.9,0.1
			"/>
		<path class="st15" d="M233.2,158.3c0.6,0.7,1.1,1.3,2,1.6c0.2,0.1,0.3,0.1,0.5,0.1C235.9,160.1,236,160.2,233.2,158.3z"/>
		<path class="st15" d="M236,170.4c0.3-1.2,0.4-2.4,1.4-3"/>
		<path class="st15" d="M266.8,172.8c-0.2-0.7-0.4-1.3-0.1-2c0.1-0.2,0.1-0.4,0.2-0.6c0.1-0.2,0.2-0.3,0.3-0.5
			c0.1-0.2,0.2-0.4,0.4-0.5"/>
		<path class="st15" d="M259.6,168.7c0.8,0,1.7,0,2.5-0.2c0.3-0.1,0.5-0.1,0.8-0.1c0.4-0.1,0.7-0.2,1-0.4c0.4-0.2,0.7-0.5,1.1-0.8"
			/>
		<path class="st15" d="M256.2,145.4c-0.4,0.4-0.8,0.8-0.9,1.4c0,0.1,0,0.3,0,0.4c0,0.4,0,0.7,0.1,1.1c0.2,0.8,0.2,1.7,0.5,2.6
			c0.1,0.4,0.2,0.8,0.3,1.2c0.1,0.4,0.3,0.9,0.5,1.3c0.3,0.7,0.3,1.5,0.6,2.2c0.8,1.7,1.5,3.5,2.1,5.3c0.3,0.8,0.5,1.6,0.8,2.4
			c0.3,0.8,0.3,1.6,0.5,2.4c0.1,0.6,0.3,1.2,0.3,1.7c0,0.4-0.1,0.8-0.1,1.2"/>
		<path class="st15" d="M256.1,151.1c1.3,0.2,2.6,0.5,3.9,0.2c0.4-0.1,0.7-0.2,1.1-0.3c0.3-0.1,0.6-0.1,0.8-0.2
			c0.2-0.1,0.4-0.2,0.6-0.3c0.2-0.1,0.5-0.3,0.5-0.5"/>
		<path class="st15" d="M258.4,157.1c0.7,0.1,1.3,0.2,2,0.1c0.3-0.1,0.5-0.1,0.8-0.2c0.2-0.1,0.4-0.1,0.6-0.2c0.3-0.1,0.7-0.1,1-0.3
			c0.2-0.1,0.4-0.3,0.6-0.4"/>
		<path class="st15" d="M260.7,163.5c0.9,0,1.6,0.1,2.4-0.2c0.3-0.1,0.5-0.3,0.8-0.4c0.3-0.1,0.5-0.1,0.7-0.4"/>
		<path class="st15" d="M238.7,136.7c0.5,0.6,1,1.3,1.7,1.7c0.3,0.2,0.7,0.4,1.1,0.6c0.4,0.2,0.9,0.5,1.3,0.7c0.5,0.2,1,0.4,1.5,0.5
			c0.5,0.1,1,0,1.4-0.1"/>
		<path class="st15" d="M239.2,132.1c0.5,0.6,1,1,1.6,1.5c0.3,0.2,0.6,0.4,0.9,0.6c0.3,0.2,0.6,0.5,1,0.7c0.4,0.2,0.9,0.5,1.3,0.7
			c0.7,0.3,1.4,0.4,2.1,0.4c0.3,0,0.6,0.1,1,0.2c0.1,0,0.3,0.1,0.5,0.1c0.1,0,0.2,0,0.4,0"/>
		<path class="st15" d="M259.1,136.5c-1.1,0.1-2.2,0.3-3.3,0.8c-0.4,0.2-0.8,0.4-1.1,0.5c-0.6,0.3-1.2,0.7-1.8,1
			c-0.5,0.3-1,0.6-1.4,1"/>
		<path class="st15" d="M256.8,129.1c-0.8,0.1-1.6,0.1-2.4,0.3c-0.3,0.1-0.7,0.2-1,0.3c-0.5,0.2-1,0.3-1.5,0.5
			c-0.9,0.3-1.8,0.7-2.6,1.2c-0.7,0.4-1.3,0.9-1.9,1.4"/>
		<path class="st15" d="M255.2,123.2c-1.4-0.2-3-0.3-4.5,0.1c-0.7,0.2-1.3,0.4-1.9,0.7c-0.7,0.3-1.4,0.7-2.1,1.1
			c-0.5,0.3-1,0.7-1.5,1.1c-0.8,0.7-1.7,1.2-2.1,2.2c0,0,0,0,0,0"/>
		<path class="st15" d="M242.5,117c-0.8,0.3-1.8,0.7-1.9,1.7c-0.1,0.4,0.1,0.8,0.3,1.1c0.4,0.7,1,1.2,1.8,1.4
			c0.6,0.2,1.3,0.3,1.8-0.2c0.4-0.4,0.6-1,0.6-1.6c0-0.8-0.6-1.7-1.3-2.1c-0.2-0.1-0.5-0.2-0.7-0.2
			C242.8,117.1,242.6,117.1,242.5,117z"/>
		<path class="st15" d="M241.4,113.3c-0.1,0.5-0.2,0.9-0.3,1.4c0,0.2,0,0.4,0,0.6c0,0.2,0,0.4,0.1,0.6c0,0.2,0.1,0.4,0.1,0.6
			c0,0.2,0.2,0.6,0.1,0.7"/>
		<path class="st15" d="M244,121.3c0.1,0.4,0.2,0.8,0.4,1.2c0.1,0.3,0.4,0.5,0.5,0.7c0.1,0.2,0.2,0.3,0.4,0.5
			c0.2,0.3,0.4,0.5,0.7,0.8c0.2,0.2,0.5,0.5,0.8,0.7"/>
		<path class="st15" d="M239.7,110.7c0.8-0.1,1.6-0.1,2.4-0.2c0.3,0,0.6-0.1,0.9-0.1c0.5-0.1,1.1-0.1,1.6-0.1c0.8-0.1,1.6,0,2.4,0
			c0.6,0,1.1,0.2,1.6,0.2c0.2,0,0.7,0,0.9,0"/>
		<path class="st15" d="M239.2,105.4c0.6-0.4,1.4-0.6,2.1-0.7c0.3,0,0.6-0.1,0.9-0.1c0.2,0,0.4,0,0.6,0c0.1,0,0.3-0.1,0.5,0"/>
		<path class="st15" d="M238.1,98.7c0.5-0.3,0.9-0.5,1.4-0.6c0.2,0,0.3,0,0.4-0.1C240.3,98,240.5,98,238.1,98.7z"/>
		<path class="st15" d="M248.6,96.8c0.7-0.1,1.5-0.3,2.2-0.3c0.2,0,0.3,0,0.4,0c0.3,0,0.6,0,0.9,0.1c0.2,0.1,0.3,0.1,0.5,0.1
			c0.1,0,0.4,0,0.5,0.1"/>
		<path class="st15" d="M250.8,102.3c0.9,0,1.9-0.1,2.7,0.2c0.2,0.1,0.4,0.1,0.7,0.2"/>
		<path class="st15" d="M247.7,92.7c0.6-0.1,1.2-0.1,1.8-0.1c0.2,0,0.4,0,0.6,0c0.1,0,0.2,0.1,0.3,0.1c0.2,0,0.5,0,0.7,0
			c0.2,0,0.4,0.1,0.6,0.1"/>
		<path class="st15" d="M244.5,78c-0.2,0.4-0.3,0.9-0.2,1.4c0,0.2,0,0.4,0.1,0.5c0,0.1,0,0.2,0,0.3c0,0.3,0,0.6,0,0.9
			c0,0.5,0,1-0.1,1.4c-0.2,0.5-0.4,1.1-0.5,1.6"/>
		<path class="st15" d="M246.4,87.5c0.5-0.2,1-0.6,1.5-0.6c0.2,0,0.3,0,0.5,0C248.6,86.8,248.8,86.9,246.4,87.5z"/>
		<path class="st15" d="M263,116.3c-0.1-0.5-0.2-0.9,0-1.3c0.1-0.2,0.2-0.3,0.3-0.5c0.1-0.2,0.3-0.4,0.4-0.6
			c0.2-0.3,0.6-0.6,0.9-0.7c0.2-0.1,0.6-0.2,0.8-0.2c0.1,0,0.3,0.1,0.4,0.1"/>
		<path class="st15" d="M264.7,116.7c0.5,0.6,0.9,1.2,1,2c0,0.1,0,0.2,0.1,0.4c0,0.3,0,0.6,0,0.8c0,0.2,0,0.5-0.1,0.7
			c0,0.1,0,0.3,0,0.4"/>
		<path class="st15" d="M228.3,115.6c0.4,0.5,0.7,1.1,1.2,1.4c0.2,0.1,0.4,0.3,0.6,0.4c0.4,0.2,0.8,0.2,1.2,0.4
			c0.2,0.1,0.4,0.2,0.6,0.1c0.2,0,0.3-0.1,0.4-0.1"/>
		<path class="st15" d="M230.9,100.6c0.5,0.2,0.9,0.4,1.1,1c0.1,0.3,0.1,0.7,0.1,1.1c0,0.3-0.1,0.6-0.2,0.9c-0.2,0.6-0.6,1.2-1,1.7
			c-0.4,0.4-0.7,0.7-1.2,0.9c-0.3,0.1-0.3,0.1-0.5,0"/>
		<path class="st15" d="M232.4,103.3c0.8-0.2,1.7-0.5,2.6-0.3c0.2,0,0.4,0.1,0.6,0.2c0.3,0.1,0.6,0.2,0.9,0.3c0,0,0,0,0,0"/>
		<path class="st15" d="M249.5,106.5c0-0.9,0-1.6,0.5-2.3c0.2-0.2,0.3-0.5,0.5-0.7c0.2-0.2,0.4-0.4,0.6-0.5c0.2-0.1,0.4-0.2,0.6-0.4
			"/>
		<path class="st15" d="M250.2,109c0.8,0.3,1.7,0.4,2.5,0.8c0.2,0.1,0.5,0.1,0.7,0.2c0.6,0.2,1.2,0.4,1.8,0.5
			c0.4,0.1,0.8,0.2,1.2,0.3c0.4,0.1,0.7,0.3,1.1,0.4c0.4,0.1,0.8,0.2,1.2,0.4c0.3,0.1,0.6,0.2,0.9,0.4c0.5,0.2,1,0.5,1.5,0.7
			c0.3,0.1,0.5,0.3,0.7,0.5c0.2,0.2,0.4,0.4,0.6,0.6c0.1,0.1,0.2,0.3,0.4,0.4"/>
		<path class="st15" d="M261.9,109.7c-0.6,0.4-1.1,0.8-1.4,1.5C260.5,111.3,260.5,111.4,261.9,109.7z"/>
		<path class="st15" d="M257.3,106.3c-0.6,0.5-1,0.9-1.4,1.6c-0.1,0.2-0.3,0.4-0.4,0.7c-0.1,0.2-0.3,0.5-0.3,0.7
			c-0.1,0.2-0.1,0.5-0.1,0.7"/>
		<path class="st15" d="M249.2,100.6c-0.6,0-1.1,0.1-1.6,0.2c-0.3,0.1-0.7,0.3-1,0.4c-0.4,0.2-0.8,0.4-1.2,0.7
			c-0.4,0.3-0.8,0.6-1.2,0.9c-0.3,0.3-0.6,0.7-0.8,1.1"/>
		<path class="st15" d="M248.2,95.4c-0.7,0-1.2,0-1.8,0.2c-0.2,0.1-0.3,0.1-0.5,0.2c-0.3,0.1-0.7,0.3-1,0.5
			c-0.7,0.4-1.3,0.7-1.9,1.3c-0.4,0.4-0.8,0.9-1.1,1.5c-0.1,0.1-0.5,0.9-0.5,0.9"/>
		<path class="st15" d="M246.9,90.5c-0.7-0.1-1.5-0.4-2.2-0.2c-0.3,0.1-0.6,0.2-0.9,0.3c-0.5,0.2-1,0.3-1.5,0.5
			c-0.6,0.2-1.1,0.5-1.6,0.9c-0.4,0.3-0.7,0.6-0.9,1c-0.1,0.2-0.2,0.4-0.3,0.6c0,0,0,0,0,0.1"/>
		<path class="st15" d="M245,86c-0.5-0.1-1.1-0.2-1.6-0.1c-0.2,0-0.4,0.1-0.7,0.2c-0.4,0.1-0.8,0.4-1.1,0.6c-0.8,0.4-1.4,1-2,1.6
			c-0.5,0.5-1,1-1.3,1.6c-0.1,0.3-0.2,0.6-0.3,0.9"/>
		<path class="st15" d="M229.9,105.6c0,0.7-0.1,1.3,0.1,1.9c0.1,0.2,0.2,0.5,0.3,0.7c0.1,0.2,0.1,0.4,0.2,0.7c0.2,0.5,0.2,1,0.2,1.5
			c0,0.4,0,0.8,0,1.3c0,0.4-0.1,0.9-0.2,1.3c-0.1,0.8-0.2,1.6-0.5,2.3c-0.1,0.2-0.1,0.5-0.2,0.7c-0.1,0.2-0.3,0.4-0.4,0.7"/>
		<path class="st15" d="M230.7,108.4c0.8-0.4,1.4-0.7,2.3-0.6c0.3,0,0.6,0.1,0.9,0.1c0.3,0.1,0.5,0.1,0.8,0.3
			c0.1,0.1,0.2,0.2,0.3,0.3c0.1,0.1,0.2,0.1,0.3,0.2"/>
		<path class="st15" d="M231,112.8c0.7,0,1.3,0,1.9,0.4c0.1,0.1,0.2,0.1,0.2,0.2C233.3,113.4,233.4,113.5,231,112.8z"/>
		<path class="st15" d="M228.5,119c-0.4,1.2-0.7,2.4-1.3,3.6c-0.2,0.3-0.3,0.7-0.5,1c-0.3,0.4-0.5,0.9-0.7,1.3"/>
		<path class="st15" d="M230.1,121.8c-0.4,0.8-0.8,1.5-1.2,2.3c-0.1,0.3-0.3,0.6-0.4,0.9c-0.1,0.2-0.3,0.5-0.4,0.7
			c-0.3,0.3-0.5,0.6-0.8,0.8"/>
		<path class="st15" d="M267.9,118.3c0,1,0.1,2,0,3c0,0.2-0.1,0.4-0.1,0.6c0,0.3,0,0.6-0.3,0.8"/>
		<path class="st15" d="M232.7,98c0.7,0.2,1.4,0.5,2.1,0.6c0.1,0,0.2,0,0.4,0.1c0.2,0.1,0.4,0.2,0.6,0.4c0.2,0.2,0.5,0.3,0.7,0.5
			c0.2,0.1,0.4,0.4,0.6,0.5c0.1,0.1,0.4,0.4,0.4,0.4"/>
		<path class="st15" d="M234.5,95.1c0.6,0.2,1.2,0.3,1.7,0.7C236.2,95.8,236.3,95.9,234.5,95.1z"/>
		<path class="st15" d="M247,63.4c-0.5,0.4-0.9,0.7-1.1,1.3c0,0.1-0.1,0.3-0.1,0.4c-0.1,0.3-0.1,0.6-0.2,1c-0.1,0.6-0.1,1.2-0.2,1.7
			c0,0.4-0.1,0.8,0,1.3c0,0.3,0.1,0.6,0.1,0.9c-0.6,0.3-1.3,0.6-1.4,1.4c0,0.2,0,0.5,0,0.8c0.1,0.5,0.2,1.1,0.6,1.5
			c0.3,0.4,0.6,0.5,1,0.4c0.3,0,0.7-0.2,0.9-0.5c0.4-0.6,0.3-1.5,0.1-2.2c-0.1-0.2-0.1-0.4-0.2-0.5c-0.1-0.1-0.2-0.3-0.3-0.4
			c-0.2-0.3-0.4-0.5-0.7-0.7"/>
		<path class="st15" d="M245.7,70.1c1.3-0.1,2.6-0.1,3.9-0.1c0.4,0,0.7,0,1.1,0c0.5,0,1.2,0,1.7-0.2c0.5-0.1,1-0.2,1.4-0.5"/>
		<path class="st15" d="M245.3,74.1c0.6,0.1,1.2,0.2,1.8,0.2c0.4,0,0.8,0,1.2,0.1c0.4,0.1,0.8,0.2,1.3,0.1c0.8,0,1.5,0.1,2.3,0
			c0.5-0.1,1-0.2,1.6-0.3c0.2,0,0.3-0.1,0.5-0.1c0.2-0.1,0.3-0.3,0.5-0.3"/>
	</g>
	<g>
		<path class="st5" d="M260.3,138.9c-0.6-0.1-1.2,0-1.8,0.2c-0.1,0.1-0.3,0.2-0.4,0.3c-0.2,0.1-0.3,0.2-0.5,0.3
			c-0.3,0.2-0.6,0.5-0.8,0.8c-0.4,0.6-0.7,1.3-0.8,2c-0.3,1.4,1,2.2,2.1,2.7c0.5,0.2,1,0.4,1.5,0.3c0.5-0.1,1-0.4,1.5-0.6
			c0.6-0.2,0.9-0.8,1-1.4"/>
		<path class="st7" d="M253.9,142.8c0.7,0.1,1.4,0.4,2,0.1C256,142.9,256.1,142.9,253.9,142.8z"/>
		<path class="st5" d="M243,142.5c-0.3-0.3-0.7-0.6-1.2-0.6c-0.1,0-0.2,0.1-0.3,0.1c-0.2,0.1-0.3,0.1-0.5,0.2
			c-0.3,0.2-0.5,0.5-0.7,0.7c-0.2,0.3-0.5,0.7-0.6,1.1c0,0.3,0.1,0.7,0.1,0.9c0.1,0.5,0.4,0.8,0.8,1.1c0.1,0.1,0.3,0.2,0.5,0.3
			c0.1,0,0.4,0.1,0.4,0.2"/>
		<path class="st7" d="M237.7,139.8c0.3,1,0.5,2,1.5,2.6c0.3,0.2,0.6,0.4,0.9,0.5"/>
		<path class="st7" d="M258.6,173.5c-0.1-0.5-0.2-1.1-0.2-1.6c0-0.2,0.2-0.5,0.2-0.7c0.2-0.4,0.4-0.6,0.7-0.8
			c0.7-0.4,1.7-0.6,2.5-0.6c0.4,0,0.8,0,1.2,0.2c0.3,0.1,0.5,0.3,0.8,0.5c0.5,0.4,0.9,0.9,1.2,1.4c0.4,0.7,0.5,1.4,0.4,2.1
			c0,0.2,0,0.5,0,0.7c0,0.2-0.2,0.3-0.2,0.4"/>
		<path class="st7" d="M271.8,169.8c-0.4,0.2-0.9,0.3-1.2,0.7c-0.1,0.2-0.2,0.4-0.3,0.5c-0.1,0.3-0.2,0.6-0.3,0.9
			c-0.1,0.5-0.1,0.9,0,1.4c0.1,0.3,0.2,0.6,0.3,0.9c0.1,0.2,0.3,0.4,0.3,0.5"/>
		<path class="st7" d="M265.4,172.5c0.8,0,1.6,0,2.4,0.2c0.3,0,0.6,0.1,0.9,0.1c0.2,0,0.4-0.1,0.7-0.2c0.1,0,0.3,0,0.4-0.1"/>
		<path class="st7" d="M241.4,170.7c-0.7-0.2-1.2-0.5-1.9-0.2c-0.2,0.1-0.5,0.3-0.6,0.5c-0.4,0.4-0.6,0.8-0.6,1.5
			c0,0.6,0.2,1.3,0.6,1.8"/>
		<path class="st7" d="M229.7,163.4c0.6,0,1.5-0.2,2,0.3c0.1,0.1,0.3,0.3,0.4,0.5c0.4,0.5,0.6,1.2,0.7,1.9c0.2,0.8,0.2,1.8,0.1,2.6
			c0,0.3-0.2,0.7-0.3,1c-0.1,0.2-0.1,0.5-0.2,0.7c-0.2,0.3-0.3,0.3-0.6,0.4"/>
		<path class="st7" d="M233.2,168.2c0.5,0.6,0.9,1.1,1.5,1.4c0.3,0.2,0.6,0.4,0.9,0.6c0.4,0.3,0.8,0.5,1.3,0.8
			c0.4,0.2,0.9,0.2,1.2,0.5"/>
		<path class="st7" d="M230.3,160.2c0.6,0.4,1.2,0.8,1.8,1.3c0.2,0.2,0.4,0.3,0.6,0.5c0.3,0.2,0.6,0.3,1,0.5
			c0.2,0.1,0.4,0.2,0.7,0.3c0.2,0,0.3,0,0.5,0.1"/>
		<path class="st7" d="M238.4,142.1c-0.6,0.5-1.2,0.9-1.6,1.6c-0.1,0.2-0.2,0.5-0.4,0.7c-0.3,0.6-0.6,1.2-0.9,1.8
			c-0.5,1.3-1,2.6-1.4,3.9c-0.4,1.6-0.7,3.3-1,5c-0.2,1.4-0.4,2.8-0.6,4.3c0,0.2-0.2,1.8-0.5,1.8"/>
		<path class="st7" d="M235.9,146.2c0.2,0.4,0.5,0.8,0.9,1.2c0.3,0.2,0.5,0.4,0.8,0.5c0.2,0.1,0.5,0.3,0.7,0.4
			c0.4,0.3,0.9,0.5,1.4,0.7c0.3,0.1,0.6,0.2,0.9,0.2"/>
		<path class="st7" d="M234.2,151.9c0.4,0.6,0.6,1,1.2,1.3c0.2,0.1,0.5,0.2,0.7,0.3c0.3,0.1,0.7,0.2,1,0.3c0.3,0.1,0.6,0.1,0.9,0.1"
			/>
		<path class="st7" d="M233.2,157.3c0.6,0.7,1.1,1.3,2,1.6c0.2,0.1,0.3,0.1,0.5,0.1C235.9,159.1,236,159.2,233.2,157.3z"/>
		<path class="st7" d="M235.6,169.9c0.3-1.2,0.4-2.4,1.4-3"/>
		<path class="st7" d="M267.6,172.4c-0.1-0.7-0.2-1.2-0.1-1.9c0-0.2,0.1-0.4,0.1-0.6c0-0.2,0.1-0.3,0.2-0.4c0.1-0.2,0.1-0.3,0.2-0.5
			"/>
		<path class="st7" d="M259.6,167.7c0.8,0,1.6,0,2.4-0.2c0.3-0.1,0.5-0.1,0.8-0.1c0.3-0.1,0.7-0.2,1-0.3c0.4-0.2,0.7-0.4,1-0.7"/>
		<path class="st7" d="M256.5,144.5c-0.4,0.4-0.8,0.8-0.9,1.4c0,0.1,0,0.3,0,0.4c0,0.4,0,0.7,0.1,1.1c0.2,0.8,0.2,1.7,0.5,2.6
			c0.1,0.4,0.2,0.8,0.3,1.2c0.1,0.4,0.3,0.9,0.5,1.3c0.3,0.7,0.3,1.5,0.6,2.2c0.8,1.7,1.5,3.5,2.1,5.3c0.3,0.8,0.5,1.6,0.8,2.4
			c0.3,0.8,0.3,1.6,0.5,2.4c0.1,0.6,0.3,1.2,0.3,1.7c0,0.4-0.1,0.8-0.1,1.2"/>
		<path class="st7" d="M256.1,150.1c1.2,0.2,2.5,0.5,3.7,0.2c0.4-0.1,0.7-0.2,1-0.3c0.3-0.1,0.5-0.1,0.8-0.2
			c0.2-0.1,0.4-0.2,0.6-0.3c0.1-0.1,0.5-0.3,0.5-0.5"/>
		<path class="st7" d="M258.4,156.2c0.7,0.1,1.3,0.2,2,0.1c0.3-0.1,0.5-0.1,0.8-0.2c0.2-0.1,0.4-0.1,0.6-0.2c0.3-0.1,0.7-0.1,1-0.3
			c0.2-0.1,0.4-0.3,0.6-0.4"/>
		<path class="st7" d="M260.7,162.5c0.8,0,1.5,0.1,2.3-0.2c0.3-0.1,0.5-0.3,0.8-0.4c0.3-0.1,0.5-0.1,0.7-0.4"/>
		<path class="st7" d="M238.7,135.7c0.5,0.6,1,1.3,1.7,1.7c0.3,0.2,0.7,0.4,1.1,0.6c0.4,0.2,0.9,0.5,1.3,0.7c0.5,0.2,1,0.4,1.5,0.5
			c0.5,0.1,1,0,1.4-0.1"/>
		<path class="st7" d="M239.2,131.2c0.5,0.6,1,1,1.6,1.5c0.3,0.2,0.6,0.4,0.9,0.6c0.3,0.2,0.6,0.5,1,0.7c0.4,0.2,0.9,0.5,1.3,0.7
			c0.7,0.3,1.4,0.4,2.1,0.4c0.3,0,0.6,0.1,1,0.2c0.1,0,0.3,0.1,0.5,0.1c0.1,0,0.2,0,0.4,0"/>
		<path class="st7" d="M259.1,135.6c-1.1,0.1-2.2,0.3-3.3,0.8c-0.4,0.2-0.8,0.4-1.1,0.5c-0.6,0.3-1.2,0.7-1.8,1
			c-0.5,0.3-1,0.6-1.4,1"/>
		<path class="st7" d="M256.8,128.1c-0.8,0.1-1.6,0.1-2.4,0.3c-0.3,0.1-0.7,0.2-1,0.3c-0.5,0.2-1,0.3-1.5,0.5
			c-0.9,0.3-1.8,0.7-2.6,1.2c-0.7,0.4-1.3,0.9-1.9,1.4"/>
		<path class="st7" d="M254.8,122.2c-1.4-0.2-2.9-0.3-4.3,0.1c-0.6,0.2-1.3,0.4-1.9,0.7c-0.7,0.3-1.4,0.7-2,1.1
			c-0.5,0.3-1,0.7-1.4,1.1c-0.8,0.7-1.6,1.2-2,2.2c0,0,0,0,0,0"/>
		<path class="st7" d="M241.8,112.9c-0.1,0.5-0.2,0.9-0.3,1.4c0,0.2,0,0.4,0,0.6c0,0.2,0,0.4,0.1,0.6c0,0.2,0.1,0.4,0.1,0.6
			c0,0.2,0.2,0.6,0.1,0.7"/>
		<path class="st7" d="M244,120.3c0.1,0.4,0.2,0.8,0.4,1.2c0.1,0.3,0.4,0.5,0.5,0.7c0.1,0.2,0.2,0.3,0.4,0.5
			c0.2,0.3,0.4,0.5,0.7,0.8c0.2,0.2,0.5,0.5,0.8,0.7"/>
		<path class="st7" d="M239.7,109.7c0.6-0.1,1.3-0.1,1.9-0.2c0.2,0,0.5-0.1,0.7-0.1c0.4-0.1,0.9-0.1,1.3-0.1c0.6-0.1,1.3,0,1.9,0
			c0.5,0,0.9,0.2,1.3,0.2c0.2,0,0.5,0,0.7,0"/>
		<path class="st7" d="M239.2,104.4c0.6-0.4,1.4-0.6,2.1-0.7c0.3,0,0.6-0.1,0.9-0.1c0.2,0,0.4,0,0.6,0c0.1,0,0.3-0.1,0.5,0"/>
		<path class="st7" d="M237.6,98c0.5-0.3,0.9-0.5,1.4-0.6c0.2,0,0.3,0,0.4-0.1C239.7,97.3,240,97.3,237.6,98z"/>
		<path class="st7" d="M248.6,95.8c0.7-0.1,1.5-0.3,2.2-0.3c0.2,0,0.3,0,0.4,0c0.3,0,0.6,0,0.9,0.1c0.2,0.1,0.3,0.1,0.5,0.1
			c0.1,0,0.4,0,0.5,0.1"/>
		<path class="st7" d="M250.3,101.3c1,0,2.1-0.1,3.1,0.3c0.3,0.1,0.5,0.2,0.8,0.2"/>
		<path class="st7" d="M247.7,91.7c0.6-0.1,1.2-0.1,1.8-0.1c0.2,0,0.4,0,0.6,0c0.1,0,0.2,0.1,0.3,0.1c0.2,0,0.5,0,0.7,0
			c0.2,0,0.4,0.1,0.6,0.1"/>
		<path class="st7" d="M243.8,77.1c-0.2,0.4-0.3,0.9-0.2,1.4c0,0.2,0,0.4,0.1,0.5c0,0.1,0,0.2,0,0.3c0,0.3,0,0.6,0,0.9
			c0,0.5,0,1-0.1,1.4c-0.2,0.5-0.4,1.1-0.5,1.6"/>
		<path class="st7" d="M245.9,86.6c0.5-0.2,1-0.6,1.5-0.6c0.2,0,0.3,0,0.5,0C248.1,86,248.3,86.1,245.9,86.6z"/>
		<path class="st7" d="M262.5,115.8c-0.1-0.5-0.2-0.9,0-1.3c0.1-0.2,0.2-0.3,0.3-0.5c0.1-0.2,0.3-0.4,0.4-0.6
			c0.2-0.3,0.6-0.6,0.9-0.7c0.2-0.1,0.6-0.2,0.8-0.2c0.1,0,0.3,0.1,0.4,0.1"/>
		<path class="st7" d="M265.1,116.2c0.5,0.6,0.9,1.2,1,2c0,0.1,0,0.2,0.1,0.4c0,0.3,0,0.6,0,0.8c0,0.2,0,0.5-0.1,0.7
			c0,0.1,0,0.3,0,0.4"/>
		<path class="st7" d="M228.3,114.6c0.4,0.5,0.7,1.1,1.2,1.4c0.2,0.1,0.4,0.3,0.6,0.4c0.4,0.2,0.8,0.2,1.2,0.4
			c0.2,0.1,0.4,0.2,0.6,0.1c0.2,0,0.3-0.1,0.4-0.1"/>
		<path class="st7" d="M232.4,102.3c0.8-0.2,1.7-0.5,2.6-0.3c0.2,0,0.4,0.1,0.6,0.2c0.3,0.1,0.6,0.2,0.9,0.3c0,0,0,0,0,0"/>
		<path class="st7" d="M248.9,105.8c0-0.9,0-1.6,0.5-2.3c0.2-0.2,0.3-0.5,0.5-0.7c0.2-0.2,0.4-0.4,0.6-0.5c0.2-0.1,0.4-0.2,0.6-0.4"
			/>
		<path class="st7" d="M250.2,108.1c0.8,0.3,1.7,0.4,2.5,0.8c0.2,0.1,0.5,0.1,0.7,0.2c0.6,0.2,1.2,0.4,1.8,0.5
			c0.4,0.1,0.8,0.2,1.2,0.3c0.4,0.1,0.7,0.3,1.1,0.4c0.4,0.1,0.8,0.2,1.2,0.4c0.3,0.1,0.6,0.2,0.9,0.4c0.5,0.2,1,0.5,1.5,0.7
			c0.3,0.1,0.5,0.3,0.7,0.5c0.2,0.2,0.4,0.4,0.6,0.6c0.1,0.1,0.2,0.3,0.4,0.4"/>
		<path class="st7" d="M261.5,109.2c-0.6,0.4-1.1,0.8-1.4,1.5C260.1,110.9,260.1,111,261.5,109.2z"/>
		<path class="st7" d="M257,105.6c-0.6,0.5-1,0.9-1.4,1.6c-0.1,0.2-0.3,0.4-0.4,0.7c-0.1,0.2-0.3,0.5-0.3,0.7
			c-0.1,0.2-0.1,0.5-0.1,0.7"/>
		<path class="st7" d="M249.2,99.7c-0.6,0-1.1,0.1-1.6,0.2c-0.3,0.1-0.7,0.3-1,0.4c-0.4,0.2-0.8,0.4-1.2,0.7
			c-0.4,0.3-0.8,0.6-1.2,0.9c-0.3,0.3-0.6,0.7-0.8,1.1"/>
		<path class="st7" d="M248.2,94.4c-0.7,0-1.2,0-1.8,0.2c-0.2,0.1-0.3,0.1-0.5,0.2c-0.3,0.1-0.7,0.3-1,0.5c-0.7,0.4-1.3,0.7-1.9,1.3
			c-0.4,0.4-0.8,0.9-1.1,1.5c-0.1,0.1-0.5,0.9-0.5,0.9"/>
		<path class="st7" d="M246.9,89.6c-0.7-0.1-1.5-0.4-2.2-0.2c-0.3,0.1-0.6,0.2-0.9,0.3c-0.5,0.2-1,0.3-1.5,0.5
			c-0.6,0.2-1.1,0.5-1.6,0.9c-0.4,0.3-0.7,0.6-0.9,1c-0.1,0.2-0.2,0.4-0.3,0.6c0,0,0,0,0,0.1"/>
		<path class="st7" d="M244.7,85c-0.5-0.1-1.1-0.2-1.6-0.1c-0.2,0-0.4,0.1-0.7,0.2c-0.4,0.1-0.8,0.4-1.1,0.6c-0.8,0.4-1.4,1-2,1.6
			c-0.5,0.5-1,1-1.3,1.6c-0.1,0.3-0.2,0.6-0.3,0.9"/>
		<path class="st7" d="M230.2,104.7c0,0.7-0.1,1.3,0.1,1.9c0.1,0.2,0.2,0.5,0.3,0.7c0.1,0.2,0.1,0.4,0.2,0.7c0.2,0.5,0.2,1,0.2,1.5
			c0,0.4,0,0.8,0,1.3c0,0.4-0.1,0.9-0.2,1.3c-0.1,0.8-0.2,1.6-0.5,2.3c-0.1,0.2-0.1,0.5-0.2,0.7c-0.1,0.2-0.3,0.4-0.4,0.7"/>
		<path class="st7" d="M230.7,107.5c0.8-0.4,1.4-0.7,2.3-0.6c0.3,0,0.6,0.1,0.9,0.1c0.3,0.1,0.5,0.1,0.8,0.3
			c0.1,0.1,0.2,0.2,0.3,0.3c0.1,0.1,0.2,0.1,0.3,0.2"/>
		<path class="st7" d="M231,111.8c0.7,0,1.3,0,1.9,0.4c0.1,0.1,0.2,0.1,0.2,0.2C233.3,112.5,233.4,112.5,231,111.8z"/>
		<path class="st7" d="M228.3,118.4c-0.4,1.2-0.7,2.4-1.3,3.6c-0.2,0.3-0.3,0.7-0.5,1c-0.3,0.4-0.5,0.9-0.7,1.3"/>
		<path class="st7" d="M230.1,120.9c-0.4,0.8-0.8,1.5-1.2,2.3c-0.1,0.3-0.3,0.6-0.4,0.9c-0.1,0.2-0.3,0.5-0.4,0.7
			c-0.3,0.3-0.5,0.6-0.8,0.8"/>
		<path class="st7" d="M268.5,117.9c0,1,0.1,2,0,3c0,0.2-0.1,0.4-0.1,0.6c0,0.3,0,0.6-0.3,0.8"/>
		<path class="st7" d="M232.7,97c0.7,0.2,1.4,0.5,2.1,0.6c0.1,0,0.2,0,0.4,0.1c0.2,0.1,0.4,0.2,0.6,0.4c0.2,0.2,0.5,0.3,0.7,0.5
			c0.2,0.1,0.4,0.4,0.6,0.5c0.1,0.1,0.4,0.4,0.4,0.4"/>
		<path class="st7" d="M234.5,94.1c0.6,0.2,1.2,0.3,1.7,0.7C236.2,94.8,236.3,94.9,234.5,94.1z"/>
		<path class="st5" d="M253.8,68.4c-0.4,0.3-1,0.3-1.4,0.5c-0.5,0.2-1.2,0.2-1.7,0.2c-0.4,0-0.7,0-1.1,0c-1.3,0-2.6,0-3.9,0.1
			c0,0.1-0.1,0.2-0.2,0.3c-0.2,0.2-0.5,0.3-0.7,0.5c-0.1,0.1-0.3,0.2-0.4,0.3c-0.1,0.1-0.1,0.3-0.1,0.4c-0.2,1,0.2,2.4,1.1,2.5
			c0.6,0.1,1.2,0.2,1.8,0.2c0.4,0,0.8,0,1.2,0.1c0.4,0.1,0.8,0.2,1.3,0.1c0.8,0,1.5,0.1,2.3,0c0.5-0.1,1-0.2,1.6-0.3
			c0.2,0,0.3-0.1,0.5-0.1c0.2-0.1,0.3-0.3,0.5-0.3c0.2-0.8,0.3-1.5,0.4-2.3c0-0.1,0-0.2,0-0.3c0-0.1,0-0.2-0.1-0.3
			C254.4,69.4,254.1,68.9,253.8,68.4z"/>
		<path class="st5" d="M242.5,116c-0.8,0.3-1.8,0.7-1.9,1.7c-0.1,0.4,0.1,0.8,0.3,1.1c0.4,0.7,1,1.2,1.8,1.4
			c0.6,0.2,1.3,0.3,1.8-0.2c0.4-0.4,0.6-1,0.6-1.6c0-0.8-0.6-1.7-1.3-2.1c-0.2-0.1-0.5-0.2-0.7-0.2
			C242.8,116.1,242.6,116.1,242.5,116z"/>
		<path class="st5" d="M230.9,99.6c0.5,0.2,0.9,0.4,1.1,1c0.1,0.3,0.1,0.7,0.1,1.1c0,0.3-0.1,0.6-0.2,0.9c-0.2,0.6-0.6,1.2-1,1.7
			c-0.4,0.4-0.7,0.7-1.2,0.9c-0.3,0.1-0.3,0.1-0.5,0c-0.3,0.1-0.6-0.2-0.7-0.4c-0.1-0.3-0.1-0.6,0-0.8c0.2-0.8,0.4-1.5,0.7-2.3
			c0.2-0.5,0.3-0.9,0.6-1.3c0.2-0.2,0.3-0.4,0.5-0.5C230.6,99.5,230.7,99.5,230.9,99.6z"/>
		<path class="st5" d="M249.6,109.5c0.2-0.2,0.2-0.4,0.2-0.6c0.1-0.4,0.1-0.9,0-1.3c-0.1-0.6-0.6-1-1.1-1.3
			c-0.3-0.2-0.7-0.4-1.1-0.5c-0.1-0.1-0.3-0.1-0.4-0.1c-0.8-0.2-1.4,0.4-2,0.9c0,0.5,0.5,0.8,0.8,1.1c0.2,0.2,0.3,0.5,0.5,0.7
			c0.2,0.3,0.5,0.5,0.8,0.6c0.5,0.4,1,0.7,1.5,1.1c0.1,0.1,0.3,0.2,0.4,0.2C249.4,110.1,249.6,109.7,249.6,109.5z"/>
	</g>
	<g>
		<path class="st7" d="M237.4,97.8c-0.2-0.6-0.4-1.1-0.6-1.7c-0.2-0.5-0.3-1.1-0.4-1.6c-0.1-0.3-0.1-0.6-0.2-0.9
			c-0.1-0.2-0.1-0.5-0.2-0.7c-0.1-0.5-0.2-1.1-0.1-1.6c-0.2,0.3-0.4,0.7-0.7,1c-0.6,1-1.2,2-1.8,3c-0.5,0.9-1,1.9-1.6,2.7
			c-0.4,0.6-1,1.1-1.5,1.7c-1.1,1.3-1.7,2.9-1.9,4.6c-0.2,2.1,0.1,4.2,0.1,6.3c0,1.5-0.1,3-0.7,4.4c-0.3,0.7-0.7,1.3-1,2
			c-0.4,0.9-0.7,1.8-0.9,2.7c-0.2,0.7-0.1,1.4-0.1,2c0,0.8-0.1,1.5-0.3,2.2c-0.1,0.3-0.2,0.5-0.3,0.7c-0.1,0.2-0.2,0.5-0.2,0.7
			c0,0.3,0.3,0.5,0.6,0.5c0.4,0.1,0.7,0.2,1.1,0.2c0.5-0.1,1.2-0.3,1.7-0.6c0.3-0.1,0.6-0.3,0.9-0.5c0.3-0.2,0.6-0.3,0.9-0.5
			c0.3-0.3,0.5-0.7,0.8-1c0.3-0.4,0.6-0.7,0.8-1.1c0.6-1.2,0.5-2.6,0.6-3.9c0.2-1.2,0.1-2.4,0.4-3.6c0.2-0.8,0.4-1.6,0.7-2.3
			c0.3-0.6,0.5-1.3,0.7-2c0.3-0.8,0.6-1.5,0.9-2.3c0.3-0.6,0.4-1.2,0.6-1.8c0.1-0.2,0.1-0.5,0.2-0.7c0-0.3,0.1-0.6,0.2-1
			c0.1-0.5,0.2-1,0.2-1.5c0.1-0.4,0-0.9,0.2-1.4c0.1-0.2,0.2-0.4,0.3-0.6c0.2-0.3,0.4-0.6,0.7-0.9c0.1-0.1,0.1-0.1,0.2-0.2
			c-0.1-0.2-0.1-0.4-0.2-0.6C237.6,99,237.7,98.4,237.4,97.8z"/>
		<path class="st7" d="M241.4,83.3c0.4,0,0.9,0.2,1.3,0.3c0.6,0.2,1.2,0.5,1.6,0.9c0.6,0.7,1.1,1.3,1.5,2.2c0.2,0.4,0.5,0.8,0.7,1.3
			c0.2,0.5,0.3,1,0.4,1.5c0.1,0.6,0.3,1.2,0.5,1.8c0.2,0.5,0.3,1.1,0.4,1.6c0.2,0.6,0.3,1.2,0.5,1.8c0.1,0.5,0.2,1,0.3,1.5
			c0.1,1,0.3,2,0.6,3c0.2,0.7,0.6,1.2,1,1.8c0.2,0.3,0.4,0.6,0.7,0.8c0.3,0.2,0.6,0.4,1,0.6c0.7,0.5,1.4,0.8,2.1,1.3
			c0.1,0.1,0.3,0.2,0.4,0.2c0-0.4,0-0.7,0-1.1c0-0.6,0-1.3,0-1.9c0-0.6-0.2-1.1-0.3-1.6c-0.1-0.5-0.2-0.9-0.3-1.4
			c-0.1-0.6,0-1.2-0.2-1.7c-0.2-0.5-0.3-1-0.5-1.5c-0.2-0.5-0.3-1-0.4-1.6c-0.1-0.5-0.4-0.9-0.6-1.4c-0.2-0.4-0.3-0.9-0.6-1.3
			c-0.4-0.7-0.8-1.3-1.2-2c-0.5-1-1.3-1.9-1.9-2.9c-0.4-0.7-0.6-1.5-0.7-2.3c-0.2-1.1-0.2-2.2,0-3.2c0-0.2,0.1-0.5,0.1-0.8
			c-0.2-0.1-0.3-0.2-0.5-0.2c-0.7-0.5-1.5-0.9-2.2-1.3c-0.5-0.3-1-0.6-1.4-1c-0.2-0.2-0.4-0.4-0.6-0.6c-0.2-0.3-0.5-0.5-0.7-0.7
			c-0.4-0.5-0.9-0.9-1.2-1.5c0-0.1-0.1-0.1-0.1-0.2c0,0.2,0,0.5-0.1,0.7c-0.1,0.8-0.3,1.5-0.3,2.3c0,1.3-0.2,2.5-0.4,3.8
			c-0.1,0.9-0.3,1.8-0.5,2.7c0,0,0,0,0.1,0C240.4,83.3,240.9,83.2,241.4,83.3z"/>
		<path class="st7" d="M241,113c0.4-0.4,0.8-0.4,1.3-0.4c0.1,0,0.1,0,0.2-0.1c0.2,0,0.3,0,0.5,0c0.2,0,0.3-0.1,0.5-0.1
			c0.3-0.1,0.5-0.1,0.8-0.1c0.7,0,1.5,0,2.2,0.2c1,0.3,2,0.7,2.9,1.3c0.5,0.3,1.1,0.6,1.5,1c0.4,0.4,0.9,0.9,1.2,1.3
			c0.5,0.6,0.7,1.3,1.2,2c0.3,0.4,0.4,0.7,0.6,1.1c0.2-1.6,0.3-3.2,0.2-4.8c0-0.8,0-1.6,0-2.4c-0.1-0.1-0.3-0.1-0.4-0.2
			c-0.2-0.1-0.5-0.1-0.8-0.2c-0.7-0.3-1.3-0.6-1.9-0.8c-0.7-0.2-1.4-0.4-2.1-0.8c-0.6-0.3-1.3-0.6-1.8-1.1c-0.2-0.2-0.4-0.5-0.6-0.7
			c-0.2-0.2-0.5-0.4-0.7-0.6c-0.5-0.5-0.9-1.2-1.3-1.8c-0.3-0.5-0.6-1.2-0.9-1.7c-0.4-0.7-0.7-1.4-1.2-2.1c-0.4-0.6-0.7-1.2-1-1.9
			c-0.3-0.7-0.6-1.4-0.8-2.1c-0.1-0.4-0.2-0.8-0.3-1.1c-0.1-0.4-0.3-0.8-0.5-1.2c-0.2-0.4-0.3-0.8-0.4-1.2c-0.2-0.4-0.4-0.8-0.5-1.1
			c-0.4-0.7-0.5-1.5-0.7-2.2c-0.2-0.7-0.6-1.2-0.8-1.9c-0.1-0.6-0.4-1.1-0.5-1.7c0-0.1,0-0.2-0.1-0.3c-0.4,0.7-0.5,1.5-0.7,2.2
			c-0.2,0.6-0.2,1.1-0.3,1.7c0,0.5,0,1.1,0.1,1.6c0.1,0.2,0.1,0.5,0.2,0.7c0.1,0.3,0.1,0.6,0.2,0.9c0.1,0.6,0.2,1.1,0.4,1.6
			c0.2,0.6,0.3,1.1,0.6,1.7c0.2,0.6,0.2,1.2,0.3,1.8c0.1,0.2,0.1,0.4,0.2,0.6c0.1,0.4,0.2,0.8,0.3,1.3c0.2,0.8,0.2,1.6,0.4,2.3
			c0.1,0.3,0.1,0.6,0.2,0.8c0.1,0.3,0.2,0.7,0.3,1c0.2,0.6,0.3,1.2,0.3,1.8c0.1,1.1,0.2,2.2,0.2,3.3c-0.1,1.3-0.3,2.6-0.5,3.9
			c0,0.2-0.1,0.5-0.1,0.7c0.4-0.5,0.8-1,1.1-1.5C240.5,113.5,240.7,113.3,241,113z"/>
		<path class="st7" d="M247.7,133.7c-0.2-0.3-0.4-0.6-0.6-0.9c-0.4-0.6-0.7-1.2-1-1.8c-0.2-0.3-0.5-0.6-0.8-0.9
			c-0.2-0.2-0.4-0.5-0.6-0.7c-0.8-0.8-2-1-2.8-1.8c-0.3-0.2-0.5-0.6-0.7-0.8c-0.2-0.2-0.5-0.4-0.7-0.7c-0.3-0.3-0.6-0.6-0.8-1
			c0,0.5-0.1,0.9-0.1,1.4c-0.2,1-0.3,2.1-0.4,3.1c0,0.5-0.1,0.9-0.2,1.4c-0.1,0.5-0.1,0.9-0.1,1.4c-0.2,1.6-0.2,3.2-0.5,4.7
			c-0.2,1.1-0.4,2.3-1.1,3.2c-0.9,1.2-1.9,2.3-2.8,3.5c-0.5,0.7-0.9,1.3-1.3,2c-0.4,0.8-0.8,1.6-1.1,2.4c-0.3,0.8-0.5,1.6-0.6,2.5
			c-0.2,0.7-0.3,1.4-0.3,2.1c-0.1,0.9-0.1,1.8-0.1,2.7c-0.1,1-0.3,2-0.4,3c-0.1,0.9-0.1,1.7-0.2,2.6c0,0.4-0.1,0.9-0.2,1.3
			c-0.1,0.3-0.4,0.6-0.6,0.9c-0.5,0.9-1,1.8-1.2,2.8c-0.2,0.8-0.2,1.5,0.2,2.2c0.3,0.5,0.7,0.8,1.2,1.2c0.5,0.4,0.9,0.7,1.4,1
			c0.5,0.3,1,0.7,1.6,1c0.5,0.4,1.1,0.7,1.6,1.1c0.9,0.7,1.9,1.4,3,1.8c0.5,0.1,1.1,0.4,1.6,0.4c0.5,0,1,0,1.5,0
			c0.9,0,1.8-0.3,2.7-0.6c0.6-0.2,1.1-0.6,1.3-1.2c0.1-0.5-0.1-1-0.6-1.3c-0.5-0.3-1.2-0.5-1.7-0.8c-0.7-0.5-1.4-1-1.9-1.7
			c-0.4-0.5-0.9-0.9-1.2-1.4c-0.2-0.2-0.3-0.5-0.5-0.7c-0.2-0.2-0.4-0.4-0.5-0.6c-0.6-0.7-1.4-1.3-2.1-2c-0.5-0.5-0.9-1-0.8-1.8
			c0-0.4,0.3-0.9,0.5-1.3c0.3-0.5,0.4-1.1,0.6-1.6c0.2-0.5,0.4-1,0.6-1.6c0.2-0.6,0.5-1.1,0.8-1.7c0.6-1.5,1.4-3,2.1-4.5
			c0.5-1.1,1-2.1,1.3-3.3c0.1-0.5,0.3-1,0.5-1.5c0.1-0.3,0.2-0.5,0.3-0.8c0.2-0.3,0.4-0.6,0.6-0.8c0.3-0.6,0.6-1,0.8-1.7
			c0.1-0.5,0.2-0.9,0.5-1.4c0.5-0.7,1-1.3,1.5-2c0.4-0.6,0.9-1.3,1.2-1.9c0.4-0.8,0.9-1.6,1.3-2.3c0.3-0.5,0.6-1,0.9-1.4
			c-0.1-0.1-0.1-0.1-0.2-0.2C248,134.5,247.9,134.1,247.7,133.7z"/>
		<path class="st7" d="M237.5,89.4c0.2,0.7,0.5,1.3,0.8,1.9c0.2,0.8,0.4,1.5,0.7,2.2c0.2,0.4,0.4,0.7,0.5,1.1
			c0.1,0.4,0.2,0.8,0.4,1.2c0.2,0.4,0.4,0.8,0.5,1.2c0.1,0.4,0.2,0.8,0.3,1.1c0.2,0.7,0.6,1.4,0.8,2.1c0.2,0.7,0.6,1.3,1,1.9
			c0.4,0.7,0.7,1.4,1.2,2.1c0.3,0.5,0.6,1.2,0.9,1.7c0.4,0.6,0.7,1.3,1.3,1.8c0.2,0.2,0.5,0.4,0.7,0.6c0.2,0.2,0.4,0.5,0.6,0.7
			c0.5,0.5,1.1,0.8,1.8,1.1c0.7,0.3,1.4,0.5,2.1,0.8c0.7,0.2,1.3,0.6,1.9,0.8c0.2,0.1,0.5,0.1,0.8,0.2c0.1,0,0.3,0.1,0.4,0.2
			c0.2,0.1,0.3,0.1,0.5,0.2c0.5,0.2,1.1,0.3,1.6,0.5c1,0.4,2.1,0.7,3,1.2c0.8,0.4,1.7,0.7,2.4,1.2c0.6,0.4,0.9,0.9,1.1,1.6
			c0.2,0.6,0.4,1.2,0.6,1.7c0.2,0.6,0.7,1,1.1,1.3c0.2,0.2,0.5,0.4,0.7,0.6c0.2,0.2,0.4,0.5,0.6,0.7c0.2,0.2,0.4,0.4,0.6,0.6
			c0.2,0.3,0.4,0.5,0.5,0.8c0.3,0.5,0.8,0.8,1.4,0.5c0.5-0.4,0.8-1.3,1-1.8c0.3-0.8,0.5-1.6,0.6-2.4c0-0.4,0-0.7,0-1.1
			c0-0.4-0.1-0.6-0.2-1c-0.1-0.3-0.2-0.6-0.5-0.8c-0.2-0.3-0.4-0.6-0.6-0.9c-0.4-0.5-1-0.9-1.5-1.3c-1.1-0.8-2.4-1.2-3.2-2.3
			c-0.4-0.4-0.7-0.9-1.1-1.3c-0.4-0.4-0.8-0.7-1.3-1.1c-0.4-0.3-0.7-0.7-1.1-1c-0.4-0.3-0.8-0.7-1.2-1c-0.9-0.6-1.8-1.2-2.8-1.7
			c-0.5-0.3-1-0.5-1.5-0.8c-0.3-0.2-0.5-0.3-0.8-0.5c-0.1-0.1-0.3-0.2-0.4-0.2c-0.7-0.4-1.4-0.8-2.1-1.3c-0.3-0.2-0.6-0.4-1-0.6
			c-0.3-0.2-0.5-0.5-0.7-0.8c-0.4-0.6-0.8-1.1-1-1.8c-0.3-1-0.5-1.9-0.6-3c0-0.5-0.1-1-0.3-1.5c-0.2-0.6-0.3-1.2-0.5-1.8
			c-0.1-0.5-0.2-1.1-0.4-1.6c-0.2-0.6-0.4-1.2-0.5-1.8c-0.1-0.5-0.3-1-0.4-1.5c-0.2-0.5-0.5-0.8-0.7-1.3c-0.3-0.8-0.9-1.5-1.5-2.2
			c-0.4-0.5-1-0.7-1.6-0.9c-0.4-0.1-0.9-0.3-1.3-0.3c-0.5,0-1,0-1.5,0c0,0,0,0-0.1,0c-0.4,0-0.8,0-1.2,0.1c-0.3,0.1-0.6,0.1-0.6,0
			c-0.5,0.6-1,1-1.1,1.8c-0.1,0.3-0.1,0.6-0.2,0.9c0,0.5,0,0.9,0.1,1.4c0,0.1,0,0.2,0.1,0.3C237.1,88.3,237.3,88.8,237.5,89.4z"/>
		<path class="st7" d="M246.7,62.7c0.1,0,0.1,0,0.2,0C246.6,62.6,246.6,62.6,246.7,62.7z"/>
		<path class="st7" d="M242.3,75.4c0.2,0.3,0.5,0.5,0.7,0.7c0.2,0.2,0.4,0.4,0.6,0.6c0.4,0.3,0.9,0.7,1.4,1c0.8,0.4,1.5,0.9,2.2,1.3
			c0.2,0.1,0.3,0.2,0.5,0.2c0.6,0.3,1.3,0.6,2,0.9c0.6,0.3,1.4,0.5,2,0.6c0.2,0.1,0.5,0,0.7,0c0.2,0,0.6,0.1,0.8,0
			c0.2-0.1,0.4-0.4,0.5-0.5c0.2-0.4,0.3-0.8,0.4-1.2c0.1-0.4,0.2-0.8,0.2-1.2c0.1-0.6,0.1-1.1,0.1-1.7c0.1-0.6,0-1.2,0-1.9
			c0-0.5,0-1.1,0.1-1.6c0-0.5-0.1-1,0-1.5c0-0.5-0.1-1.1-0.2-1.6c-0.1-0.4-0.3-0.7-0.4-1.1c-0.1-0.4-0.2-0.8-0.4-1.2
			c-0.1-0.3-0.3-0.6-0.5-0.8c-0.2-0.2-0.3-0.5-0.5-0.7c-0.4-0.6-0.9-1-1.4-1.5c-0.3-0.2-0.5-0.4-0.8-0.6c-0.3-0.2-0.6-0.2-0.9-0.3
			c-0.5-0.2-0.9-0.3-1.4-0.5c-0.3-0.1-0.6-0.1-0.8-0.1c-0.1,0-0.3,0-0.4,0c-0.1,0-0.2-0.1-0.3-0.1c-0.5,0-1-0.1-1.5,0
			c-0.1,0-0.2,0.1-0.3,0.1c-0.2,0.1-0.4,0.2-0.6,0.3c-0.5,0.3-1,0.5-1.4,0.7c-0.4,0.2-0.8,0.4-1.2,0.7c-0.4,0.3-0.8,0.7-1,1.2
			c-0.3,0.5-0.6,1-0.7,1.5c-0.2,0.6-0.2,1.1-0.3,1.7c-0.1,1,0,2.2,0.6,3.2c0.2,0.3,0.3,0.5,0.4,0.8c0.1,0.3,0.2,0.7,0.4,1
			c0,0.1,0.1,0.1,0.1,0.2C241.5,74.5,241.9,74.9,242.3,75.4z"/>
		<path class="st7" d="M275.5,171.2c-0.7-0.5-1.5-0.7-2.3-1c-0.8-0.3-1.8-0.5-2.7-0.7c-0.5-0.1-1-0.2-1.4-0.3
			c-0.4-0.1-0.9-0.2-1.3-0.4c-0.7-0.3-1.4-0.6-1.9-1.1c-0.6-0.7-1.2-1.6-1.2-2.6c0-0.8-0.1-1.6-0.1-2.4c0-0.9-0.2-1.9-0.2-2.8
			c-0.1-0.9-0.2-1.9-0.3-2.8c-0.1-0.8-0.3-1.6-0.5-2.5c-0.1-0.4,0-0.7-0.1-1.1c0-0.3-0.1-0.7-0.1-1c-0.1-0.7-0.2-1.5-0.3-2.2
			c-0.1-0.8-0.1-1.5-0.2-2.3c-0.1-0.6-0.1-1.2-0.2-1.8c-0.3-1.2-0.3-2.5-0.7-3.7c-0.2-0.7-0.4-1.4-0.7-2c-0.3-0.6-0.5-1.3-0.8-1.9
			c-0.4-0.7-0.6-1.5-0.9-2.3c-0.3-0.8-0.8-1.6-1-2.4c-0.1-0.4-0.2-0.8-0.3-1.2c-0.1-0.5-0.3-0.9-0.5-1.3c-0.2-0.4-0.2-0.8-0.3-1.3
			c-0.1-0.4-0.2-0.8-0.4-1.3c-0.2-0.8-0.5-1.6-0.7-2.4c-0.2-0.6-0.4-1.3-0.6-1.9c-0.3-0.7-0.4-1.4-0.7-2.2c-0.3-0.7-0.5-1.5-0.8-2.2
			c-0.1-0.3-0.2-0.6-0.3-0.9c-0.2-0.4-0.3-0.8-0.6-1.1c-0.5-0.6-0.7-1.4-1.2-2c-0.4-0.5-0.8-0.9-1.2-1.3c-0.4-0.4-1-0.7-1.5-1
			c-0.9-0.5-1.9-1-2.9-1.3c-0.7-0.2-1.5-0.2-2.2-0.2c-0.3,0-0.5,0-0.8,0.1c-0.2,0-0.3,0.1-0.5,0.1c-0.2,0-0.3,0-0.5,0
			c-0.1,0-0.1,0-0.2,0.1c-0.5,0-0.9,0.1-1.3,0.4c-0.3,0.2-0.5,0.5-0.7,0.8c-0.4,0.5-0.8,1-1.1,1.5c-0.1,0.1-0.1,0.2-0.2,0.2
			c-0.6,0.9-0.8,1.9-1.1,2.9c-0.1,0.3-0.2,0.7-0.2,1c0,0.6,0.2,1.1,0.3,1.6c0.1,0.6,0.1,1.1,0.4,1.7c0.2,0.5,0.4,1,0.7,1.5
			c0.2,0.3,0.4,0.6,0.6,0.9c0.3,0.4,0.5,0.7,0.8,1c0.2,0.2,0.5,0.4,0.7,0.7c0.2,0.3,0.5,0.6,0.7,0.8c0.8,0.7,2,1,2.8,1.8
			c0.2,0.2,0.4,0.5,0.6,0.7c0.3,0.3,0.6,0.6,0.8,0.9c0.4,0.6,0.7,1.2,1,1.8c0.2,0.3,0.4,0.6,0.6,0.9c0.2,0.4,0.4,0.8,0.6,1.2
			c0,0.1,0.1,0.2,0.2,0.2c0.2,0.3,0.4,0.5,0.6,0.8c0.2,0.4,0.4,0.8,0.7,1.1c0.2,0.3,0.5,0.7,0.8,1c0.3,0.3,0.5,0.7,0.7,1.1
			c0.4,0.6,1,1.1,1.4,1.7c0.4,0.5,0.9,1,1.1,1.7c0.1,0.7,0,1.4-0.1,2.1c-0.1,0.9-0.2,1.7-0.3,2.6c-0.1,1.1,0,2.2,0.2,3.3
			c0.1,0.5,0.1,1,0.2,1.5c0.2,0.6,0.4,1.1,0.7,1.7c0.4,0.9,0.8,1.9,1.4,2.7c0.4,0.7,0.6,1.4,1.1,2.1c0.4,0.5,0.8,1,1,1.6
			c0.2,0.7,0.5,1.3,0.8,1.9c0.3,0.7,0.3,1.5,0.4,2.2c0.1,0.8,0.2,1.6,0.2,2.5c0,0.7-0.2,1.4-0.2,2.1c0,0.5-0.1,1.1-0.2,1.6
			c-0.1,0.6-0.2,1.2-0.2,1.8c-0.1,1.1,0.4,2.1,1.2,2.8c0.9,0.7,2.1,0.8,3.2,0.7c1.3-0.1,2.7-0.2,4-0.2c0.7,0,1.4-0.1,2.2-0.1
			c0.8,0,1.6-0.1,2.4-0.1c0.7,0,1.4,0,2,0c0.3,0,0.6,0,0.9,0c0.3-0.1,0.5-0.2,0.8-0.3c0.2-0.1,0.5-0.1,0.7-0.2
			c0.2-0.1,0.3-0.3,0.4-0.5c0.2-0.3,0.4-0.7,0.4-1.1C276.6,172.3,276,171.6,275.5,171.2z"/>
	</g>
	<path class="st7" d="M245.2,69"/>
	<path class="st7" d="M246.7,62.9c-0.5,0.4-0.9,0.7-1.1,1.3c0,0.1-0.1,0.3-0.1,0.4c-0.1,0.3-0.1,0.6-0.2,0.9
		c-0.1,0.5-0.1,1.1-0.2,1.7c0,0.4-0.1,0.8,0,1.2c0,0.3,0.1,0.5,0.1,0.8c0,0,0,0,0,0"/>
	<path class="st5" d="M245.2,69c0.3,0.2,0.5,0.4,0.7,0.6c0.1,0.1,0.2,0.3,0.3,0.4c0.1,0.2,0.1,0.4,0.2,0.5c0.2,0.6,0.3,1.5-0.1,2.1
		c-0.2,0.3-0.6,0.4-0.9,0.4c-0.4,0-0.8-0.1-1-0.4c-0.3-0.4-0.4-1-0.6-1.5c0-0.2,0-0.5,0-0.7c0.1-0.7,0.9-1,1.4-1.3
		c0-0.3,0-0.6-0.1-0.8c-0.1-0.4,0-0.8,0-1.2c0-0.6,0-1.1,0.2-1.7"/>
	<path class="st5" d="M245.2,69.2c-0.6,0.3-1.3,0.6-1.4,1.3c0,0.2,0,0.5,0,0.7c0.1,0.5,0.2,1.1,0.6,1.5c0.3,0.3,0.6,0.5,1,0.4
		c0.3,0,0.7-0.2,0.9-0.4c0.4-0.6,0.3-1.5,0.1-2.1c-0.1-0.2-0.1-0.4-0.2-0.5c-0.1-0.1-0.2-0.3-0.3-0.4c-0.2-0.3-0.4-0.4-0.7-0.6
		L245.2,69.2z"/>
</g>
</svg>