<?xml version="1.0" encoding="utf-8"?>
<!-- Generator: Adobe Illustrator 27.2.0, SVG Export Plug-In . SVG Version: 6.00 Build 0)  -->
<svg version="1.1" id="Layer_1" xmlns="http://www.w3.org/2000/svg" xmlns:xlink="http://www.w3.org/1999/xlink" x="0px" y="0px"
	 viewBox="0 0 450 175" style="enable-background:new 0 0 450 175;" xml:space="preserve">
<style type="text/css">
	.st0{fill:#DAD8D8;stroke:#000000;stroke-linecap:round;stroke-linejoin:round;stroke-miterlimit:10;}
	.st1{fill:#BCBABA;stroke:#000000;stroke-linecap:round;stroke-linejoin:round;stroke-miterlimit:10;}
	.st2{fill:#70CEFF;stroke:#000000;stroke-linecap:round;stroke-linejoin:round;stroke-miterlimit:10;}
	.st3{fill:#FF87EB;stroke:#000000;stroke-linecap:round;stroke-linejoin:round;stroke-miterlimit:10;}
	.st4{fill:#F0EEEF;stroke:#000000;stroke-linecap:round;stroke-linejoin:round;stroke-miterlimit:10;}
	.st5{fill:none;stroke:#000000;stroke-linecap:round;stroke-linejoin:round;stroke-miterlimit:10;}
	.st6{fill:#AEFDD9;stroke:#000000;stroke-linecap:round;stroke-linejoin:round;stroke-miterlimit:10;}
	.st7{fill:#FFE096;stroke:#000000;stroke-linecap:round;stroke-linejoin:round;stroke-miterlimit:10;}
	.st8{fill:#FDC9DE;stroke:#000000;stroke-linecap:round;stroke-linejoin:round;stroke-miterlimit:10;}
	.st9{fill:#C3EBA8;stroke:#000000;stroke-linecap:round;stroke-linejoin:round;stroke-miterlimit:10;}
	.st10{fill:#ACE3FF;stroke:#000000;stroke-linecap:round;stroke-linejoin:round;stroke-miterlimit:10;}
	.st11{fill:#FFB5F1;stroke:#000000;stroke-linecap:round;stroke-linejoin:round;stroke-miterlimit:10;}
	.st12{fill:#8AFDBD;}
	.st13{fill:#FFE096;}
	.st14{fill:#FBAFBA;}
	.st15{fill:#7FD3FF;}
	.st16{fill:#FF87EB;}
</style>
<g>
	<g>
		<path class="st0" d="M207.4,49.3c-1.1-0.3-2.3-0.6-3.3-1.1c-0.3-0.1-0.7-0.2-0.9-0.4c-0.3-0.2-0.5-0.5-0.7-0.7
			c-0.2-0.2-0.5-0.5-0.5-0.8c0-0.5,1.5-1,1.9-1.1c0.9-0.3,1.8-0.3,2.6-0.8c0.7-0.4,1.4-0.6,2.2-0.9c0.4-0.1,0.7-0.3,1.1-0.5
			c0.4-0.1,0.8-0.1,1.3-0.1c0.7,0,1.4-0.1,2.1-0.1c0.7,0,1.4,0,2,0c1.4,0,2.8-0.3,4.2-0.3c1.1,0,2.2,0.1,3.2,0.3
			c0.9,0.1,1.8,0.2,2.7,0.2c2.6,0,5.1,0,7.7,0c2.1,0,4.2-0.1,6.2-0.1c2.3,0,4.6,0.1,6.9,0.1c1.4,0,2.8,0.1,4.2,0.3
			c0.9,0.1,2,0,2.8,0.3c1,0.4,2,0.8,2.9,1.4c0.3,0.2,0.7,0.4,1.1,0.5c0.3,0.1,0.7,0.1,0.9,0.4c0.8,0.8,0.4,1.9-0.5,2.2
			c-1.8,0.6-3.9,0.3-5.8,0.3c-2.4,0-4.9,0.1-7.3,0.1c-1.2,0-2.4-0.1-3.6-0.1c-1.4,0-2.8,0-4.3-0.1c-2.4-0.1-4.9-0.1-7.3,0.2
			c-1.9,0.2-3.7,0.3-5.6,0.3c-3.4,0-6.8,0-10.3,0.3c-0.8,0.1-1.7,0.2-2.5,0.2c-0.7,0-1.4,0-2.1,0C207.7,49.4,206.7,49.3,207.4,49.3z
			"/>
		<path class="st1" d="M230.7,45.9c-1.6-0.1-3.2-0.2-4.8,0c-0.4,0-0.9,0-1.3,0c-0.9,0-1.9,0-2.8-0.1c-0.8-0.1-1.7,0-2.6-0.1
			c-0.4,0-0.8-0.1-1.2-0.1c-0.6,0-1.2,0.2-1.8,0.2c-1.3,0-2.6,0.2-3.9,0.3c-1.1,0-2.1,0-3.2,0c-1.6,0-3.1-0.1-4.6-0.1
			c-0.7,0-1.3,0-2,0c-0.6,0-0.8,0.5-0.9,1c-0.6,1.7-0.3,3.4,0.1,5.1c0.4,2,0.3,4,0.3,6c0,0.8-0.1,1.6-0.1,2.5c0,0.8,0.1,1.7,0.1,2.5
			c0,1.1-0.3,2.3-0.4,3.4c-0.1,1-0.2,2-0.3,3c-0.3,3.3-0.1,6.6,0.2,9.8c0.1,1.5,0.2,3.1,0.3,4.6c0.1,1.6,0.3,3.3,0.3,5
			c0,1.7,0.2,3.4,0.2,5.2c0,1.7-0.1,3.3-0.1,5c0,3.7-0.1,7.4-0.1,11c0,3.1,0.2,6.1-0.1,9.2c-0.2,2.2-0.2,4.5-0.2,6.7
			c0,0.5,0,1.1,0.1,1.7c0.1,0.6,0.1,1.3,0.3,1.9c1,1.9,3.7,2.3,5.6,2.6c3.1,0.4,6.3,0,9.4,0c1.7,0,3.4,0,5.1,0
			c0.8,0,1.7,0.1,2.5,0.1c0.8,0,1.5-0.2,2.3-0.2c3.2,0,6.4-0.1,9.6-0.1c1.9,0,3.7-0.1,5.6-0.1c1.7,0,3.4,0,5.1,0
			c1.5,0,2.8-0.3,4.3-0.4c0.9-0.1,1.8,0,2.7-0.1c0.8-0.1,1.5,0,2.3,0c0.4,0,1.2,0.2,1.6,0c0.4-0.2,0.7-0.8,0.9-1.2
			c0.3-0.6,0.4-0.9,0.4-1.6c0-0.7-0.1-1.4-0.2-2.1c-0.1-1-0.1-1.9,0-2.9c0.2-2.1,0.4-4.2,0.4-6.4c0-1.2,0.2-2.5,0.2-3.7
			c0-1.6,0-3.2,0-4.8c0-6.3-0.3-12.5-0.3-18.8c0-2.4-0.2-4.9-0.4-7.3c-0.1-1.5-0.1-3.1-0.1-4.6c0-1.5-0.3-3-0.4-4.5
			c-0.2-2.6-0.2-5.3,0.1-7.9c0.3-2.2,0.4-4.4,0.5-6.6c0.2-1.8-0.1-3.7,0.1-5.5c0.1-1.1,0-2.2,0.1-3.2c0.1-0.7,0-1.3-0.1-2
			c0-0.5,0-1-0.3-1.4c-0.2-0.3-0.5-0.5-0.7-0.7c-0.3-0.3-0.6-0.3-1-0.3c-0.6,0.1-1.3,0.1-1.9,0.1c-1.7,0-3.4-0.2-5.1-0.2
			c-1.3,0-2.5,0-3.8,0c-1,0-2.1,0.1-3.1,0.1c-0.8,0-1.7-0.1-2.6-0.1c-1,0-1.9,0.1-2.8,0.1c-1.6,0-3.1,0.2-4.7,0.2
			C232.6,46.3,231.6,46,230.7,45.9z"/>
		<path class="st2" d="M224,55.4c-0.6,1.1-1,2.4-1.8,3.4c-0.3,0.4-0.6,0.8-0.8,1.2c-0.2,0.5-0.5,1-0.6,1.4c0.7,0.1,1.5-0.1,2.2-0.2
			c0.7-0.1,1.4-0.1,2.1,0c0.6,0.1,1.2,0.1,1.8,0.1c0.4,0,1,0.1,1.4-0.1c-0.2,0-0.4-0.3-0.5-0.4c-0.3-0.4-0.5-0.7-0.7-1.1
			c-0.4-0.8-0.8-1.6-1.4-2.3c-0.4-0.5-0.7-1-1-1.5c-0.1-0.2-0.2-0.4-0.3-0.6C224.2,55.2,224.2,55,224,55.4z"/>
		<path class="st3" d="M223.8,93.4c-0.8,1.1-1.4,2.2-2.1,3.4c-0.4,0.6-0.8,1.2-1,1.8c-0.3,0.6-0.4,1.2-0.6,1.8c0.6,0.1,1.2,0,1.8,0
			c0.5,0,1,0.1,1.6,0.1c0.4,0,0.8-0.1,1.3-0.1c0.6-0.1,1.2,0,1.8,0c0.3,0,0.8,0,1.1-0.2c-0.2-0.1-0.2-0.4-0.3-0.5
			c-0.2-0.3-0.4-0.7-0.6-1c-0.4-0.9-0.7-1.8-1.2-2.6c-0.4-0.6-0.8-1.2-1.2-1.8c-0.2-0.2-0.5-0.7-0.5-0.9
			C223.9,93.3,223.9,93.3,223.8,93.4z"/>
		<path class="st4" d="M223.9,59.2c-1,0.1-2.2,0-3.2,0.4c-0.3,0.1-0.6,0.3-0.9,0.4c-0.5,0.2-1.1,0.5-1.6,0.8
			c-0.9,0.5-1.8,1.2-2.5,1.9c-0.7,0.7-1.3,1.4-1.8,2.3c-0.6,1.1-1.3,2.1-1.5,3.3c-0.2,1.3-0.4,2.5-0.4,3.9c0,1.2,0.1,2.7,0.6,3.9
			c0.5,1,1,2,1.7,2.9c0.7,1,1.8,1.7,2.9,2.4c0.5,0.3,0.9,0.7,1.4,0.9c0.6,0.3,1.2,0.5,1.8,0.8c1.1,0.5,2.1,0.5,3.3,0.6
			c0.8,0.1,1.5,0.1,2.4-0.1c0.7-0.2,1.4-0.2,2.1-0.5c0.6-0.2,1.3-0.4,1.9-0.6c0.6-0.2,1.4-0.4,1.9-0.8c1-0.8,1.9-1.8,2.8-2.8
			c0.4-0.5,0.6-1.2,0.9-1.8c0.4-0.8,0.6-1.6,0.9-2.3c0.3-0.7,0.5-1.2,0.5-2c0-0.6,0-1.2-0.1-1.9c-0.1-0.6-0.1-1.2-0.2-1.9
			c-0.1-0.8-0.3-1.5-0.5-2.3c-0.2-0.8-0.6-1.5-0.9-2.2c-0.3-0.6-0.8-1.1-1.3-1.6c-0.6-0.5-1.1-1-1.7-1.5c-0.5-0.4-1-0.6-1.6-0.8
			C228,59.6,225.6,59,223.9,59.2z"/>
		<path class="st4" d="M223.6,97.3c-0.8,0-1.9-0.2-2.7,0.1c-0.4,0.1-0.7,0.3-1.1,0.5c-0.5,0.3-1.1,0.6-1.6,0.9
			c-0.5,0.3-1,0.7-1.5,1.1c-0.7,0.5-1.4,1-1.9,1.7c-0.3,0.4-0.6,0.9-0.9,1.4c-0.4,0.7-0.7,1.4-1.1,2.1c-0.7,1.2-0.9,2.9-1,4.3
			c0,1.5,0,3,0.4,4.5c0.2,0.7,0.6,1.3,0.8,1.9c0.3,0.7,0.4,1.2,0.9,1.8c0.3,0.4,0.6,1,0.9,1.4c0.4,0.4,1,0.7,1.5,1
			c1.1,0.7,2.1,1.6,3.4,2c1.2,0.3,2.5,0.7,3.8,0.8c1.4,0,2.5-0.3,3.8-0.7c0.9-0.3,1.7-0.6,2.6-1c0.5-0.2,1.1-0.4,1.6-0.7
			c0.5-0.3,0.9-0.7,1.4-1c0.9-0.8,1.8-2.2,2.1-3.3c0.2-0.7,0.6-1.4,0.8-2.2c0.2-0.7,0.4-1.4,0.6-2.1c0.2-1,0.2-2.3,0.1-3.3
			c-0.1-0.6-0.2-1.2-0.4-1.7c-0.2-0.6-0.5-1.2-0.6-1.7c-0.2-0.7-0.5-1.3-0.8-1.9c-0.3-0.6-0.6-1.2-1.2-1.6c-0.3-0.2-0.6-0.4-0.9-0.7
			c-0.2-0.2-0.4-0.5-0.6-0.7c-0.5-0.5-1.2-0.8-1.9-1.1c-0.6-0.3-1.1-0.6-1.7-0.8c-0.7-0.3-1.4-0.4-2.1-0.6c-0.6-0.2-1.2-0.4-1.9-0.4
			C223.5,97.1,222.6,97,223.6,97.3z"/>
		<path class="st5" d="M251.1,64.8c-0.6,1.7-1.3,3.5-2.5,4.9c-0.6,0.7-1.2,1.5-1.8,2.3c-0.9,1.3-2,2.1-3.4,2.6
			c-0.6,0.2-1.4,0.5-2,0.4c-0.5-0.1-0.9-0.6-1.1-1c-0.5-0.7-0.8-1.3-0.8-2.2c0-0.9,0.2-1.9,0.5-2.7c0.2-0.6,0.7-1.4,1.3-1.8
			c0.5-0.4,1.1-0.4,1.7-0.5c0.8-0.1,1.3,0.2,1.9,0.5c0.7,0.3,1.4,0.6,2,1.1c0.5,0.5,0.8,1.1,1.2,1.6c0.5,0.7,0.9,1.4,1.3,2.2
			c0.3,0.6,0.7,1.1,1.2,1.7c0.2,0.3,0.4,0.6,0.8,0.8c0.6-0.6,1-1.4,1.4-2.1c0.2-0.3,0.4-0.7,0.6-1"/>
		<path class="st5" d="M238.7,119.5c1.1-0.4,2.1-0.6,2.9-1.6c0.3-0.4,0.5-0.8,0.7-1.2c0.3-0.7,0.4-1.5,0.5-2.3
			c0.2-1.6,0.1-3.3,0.1-4.9c0-0.9-0.1-1.7-0.1-2.6c-0.1-0.9,0.1-1.7,0.2-2.6c0.2-1.2,0.5-2.4,1.2-3.4c0.7-1,2-1.1,3.1-1.1
			c1.4,0,2.2,0.9,2.7,2.2c0.5,1.2-0.1,2.7-0.8,3.8c-0.3,0.5-1.1,1.2-1.8,1.2c0.9-0.1,2.1,0.5,2.5,1.3c0.7,1.3,0.1,3.3-0.3,4.7
			c-0.4,1.1-1.6,0.8-2.4,0.5c-0.4-0.2-1.5-0.5-1.4-1"/>
		<path class="st5" d="M214.4,71.7c1.2,0.1,2.3,0.2,3.4-0.1c0.3-0.1,0.5-0.1,0.8-0.1c0.6,0,1.2,0,1.8,0c1.2,0,2.5-0.1,3.7-0.1
			c1.9,0.1,3.9-0.1,5.8,0.1c0.3,0,0.5,0.1,0.8,0.1c0.3,0,0.5,0,0.8,0.1c0.4,0,0.8,0,1.1,0c0.7,0,1.4,0,2.2,0"/>
		<path class="st5" d="M223.9,63c-0.1,1.6-0.1,3.1-0.1,4.6c0,0.8-0.1,1.7,0,2.5c0.1,1.7,0.3,3.4,0.3,5.2c0,0.6,0,1.2,0.1,1.8
			c0.1,0.5,0,1,0,1.5c0.1,0.8,0.1,1.5,0.1,2.3"/>
		<path class="st5" d="M231.3,65.3c-0.9,0.7-1.7,1.5-2.7,2.2c-0.5,0.3-1,0.6-1.4,1c-0.7,0.5-1.2,1.2-1.9,1.8
			c-0.6,0.5-1.2,0.8-1.7,1.3c-0.4,0.4-0.8,0.9-1.3,1.3c-1,1-1.7,2.2-2.8,3.1c-0.5,0.4-1,0.8-1.3,1.4"/>
		<path class="st5" d="M217.7,64.9c1,1.3,2.1,2.4,3.2,3.5c0.6,0.6,1.3,0.8,1.8,1.5c0.5,0.6,1,1.2,1.5,1.8c0.6,0.8,1.6,1.1,2.2,1.9
			c0.5,0.6,1.1,1.1,1.7,1.7c0.2,0.2,0.5,0.4,0.7,0.7c0.1,0.2,0.2,0.3,0.4,0.5c0.3,0.3,0.6,0.6,0.9,0.9c0.3,0.3,0.8,0.4,1,0.8"/>
		<path class="st5" d="M223.9,101.8c-0.1,1.3-0.3,2.6-0.1,3.9c0.1,0.6,0.1,1.3,0.1,1.9c0,1,0,2.1,0.1,3.1c0,1-0.2,2-0.1,3
			c0.1,0.7,0,1.4,0,2.1c0,0.5,0,1,0.1,1.6c0,0.3,0.1,0.5,0.1,0.8c0,0.7-0.1,1.4-0.1,2.1c0,0.1,0,0,0,0"/>
		<path class="st5" d="M214.1,110.4c1.3-0.2,2.5-0.3,3.8-0.3c0.5,0,1.1,0.1,1.6,0.1c1,0,2-0.1,2.9,0c1.1,0.1,2.3,0.1,3.4,0.2
			c1,0.1,2,0,3,0c1.2,0,2.5-0.2,3.7-0.2c0.3,0,0.5,0.1,0.8,0.1c0.3,0,0.7-0.1,1,0.1"/>
		<path class="st5" d="M230.8,103c-0.9,0.7-1.7,1.4-2.6,2.1c-0.5,0.4-1,0.9-1.5,1.4c-0.7,0.8-1.3,1.5-2.1,2.2
			c-0.8,0.7-1.3,1.6-2.1,2.4c-0.7,0.7-1.3,1.2-1.9,2c-0.3,0.5-0.6,0.9-1,1.3c-0.4,0.4-0.8,0.7-1.1,1.2c-0.4,0.5-0.9,0.9-1.2,1.4"/>
		<path class="st5" d="M217.3,103.7c0.4,0.6,0.8,1.3,1.4,1.8c0.3,0.2,0.6,0.4,0.8,0.6c0.4,0.3,0.6,0.7,0.9,1.1
			c0.5,0.6,1.2,0.6,1.7,1.2c0.2,0.2,0.4,0.5,0.7,0.8c0.3,0.3,0.5,0.5,0.8,0.8c0.5,0.6,0.9,1.2,1.4,1.7c1.1,0.9,1.9,2.1,3,3
			c0.5,0.4,1,0.9,1.5,1.4c0.3,0.3,0.8,0.6,1,1"/>
		<path class="st1" d="M225,66.6c-0.4-0.1-1.9-0.5-2.5-0.2c-0.1,0.1-0.2,0.1-0.4,0.2c-0.2,0.1-0.4,0.2-0.5,0.3
			c-0.5,0.3-0.9,0.7-1.2,1.2c-0.4,0.8-0.9,1.8-1.1,2.7c-0.1,0.6,0,0.9,0.1,1.4c0.2,0.5,0.4,0.9,0.7,1.4c0.2,0.3,0.3,0.7,0.5,1.1
			c0.2,0.4,0.7,0.7,1.1,0.9c0.5,0.3,1.1,0.4,1.6,0.6c0.5,0.2,1.1,0.3,1.7,0.3c0.6,0,1-0.1,1.5-0.3c0.4-0.2,1-0.4,1.3-0.8
			c0.4-0.4,0.8-0.8,1.1-1.3c0.2-0.5,0.5-1.1,0.5-1.6c0.2-1.1,0.1-2.3-0.2-3.3c-0.4-1.2-1.3-1.6-2.3-2.2c-0.3-0.2-0.6-0.3-0.9-0.4
			C225.6,66.5,224.5,66.1,225,66.6z"/>
		<path class="st0" d="M224.8,68.3c-0.5-0.1-1.6-0.7-2.1-0.3c-0.2,0.1-0.3,0.2-0.4,0.4c-0.2,0.3-0.5,0.5-0.6,0.9
			c-0.2,0.6-0.4,1.3-0.3,1.9c0.1,0.8,0.8,1.5,1.5,1.9c0.4,0.2,0.8,0.2,1.2,0.3c0.6,0.1,1.1,0.2,1.6,0.1c0.8-0.1,1.6-0.7,2.1-1.4
			c0.3-0.5,0.6-1.5,0.3-2.1c-0.2-0.5-1-0.8-1.4-1C225.5,68.3,224.5,67.6,224.8,68.3z"/>
		<path class="st1" d="M224.6,104.5c-0.3,0-1.8-0.1-2.4,0.2c-0.2,0.1-0.3,0.3-0.5,0.4c-0.4,0.3-0.9,0.6-1.2,1
			c-0.4,0.5-0.8,1-1.2,1.6c-0.7,1-1.1,2.1-1,3.3c0.1,1.1,0.8,2.4,1.5,3.2c0.3,0.3,0.5,0.7,0.9,0.9c0.5,0.3,1.1,0.4,1.6,0.6
			c0.6,0.2,1.2,0.4,1.9,0.4c0.9,0.1,1.4-0.3,2.1-0.7c1.1-0.6,2.3-1.5,2.7-2.7c0.3-1,0.4-2.3,0.1-3.3c-0.3-1-0.8-1.9-1.4-2.8
			c-0.5-0.7-1-1.3-1.9-1.7c-0.3-0.2-0.7-0.2-1-0.2C224.1,104.5,223.2,104.5,224.6,104.5z"/>
		<path class="st0" d="M224.8,106.7c-0.9-0.1-1.7-0.4-2.5,0.1c-0.3,0.2-0.7,0.5-0.9,0.7c-0.5,0.5-0.8,1.1-0.9,1.8
			c-0.1,0.8-0.1,1.6,0.3,2.3c0.4,0.7,1.2,1.1,1.9,1.4c1.5,0.5,3.2-0.3,4.2-1.4c0.7-0.8,0.8-1.9,0.5-2.9c-0.2-0.5-0.4-0.8-0.9-1.2
			C225.5,106.7,224.4,106.6,224.8,106.7z"/>
	</g>
	<g>
		<g>
			<path class="st5" d="M44.7,111.8c5.3,0.3,10.6,0.6,15.9,0.5c3.8,0,7.6-0.4,11.4-0.6c6.3-0.2,12.6-0.6,18.9-0.5
				c5.8,0,11.5-0.1,17.3,0.3c5.3,0.3,10.5,0.9,15.8,1c6.1,0,12.1,0.4,18.2,0.4c0.6,0,1.3,0,1.9,0c0.5,0,1.2,0,1.6-0.2"/>
			<path class="st5" d="M155.5,62.6c-10.6,0-21.2,0-31.8,0c-4.1,0-8.2-0.1-12.3,0c-3.9,0.1-7.8,0.3-11.7,0.4
				c-4.2,0.1-8.3,0.4-12.5,0.5c-3.2,0.1-6.4,0.1-9.6,0.1c-5.4,0-10.9,0-16.4,0c-2,0-4-0.3-6-0.5c-1.4-0.1-2.7-0.1-4.1-0.2
				c-1.8-0.1-3.6-0.2-5.4-0.3c-0.9,0-1.8-0.1-2.8-0.1c-0.7,0-1.9-0.1-2.5,0.1"/>
			<path class="st5" d="M135.1,87.1c-5.8,0-11.6,0.2-17.4,0.4c-4,0.2-8.1,0.5-12.2,0.5c-3.9,0-7.9,0.1-11.7,0
				c-4.2-0.2-8.5-0.1-12.7,0.1c-3.8,0.2-7.7,0-11.5,0c-3.4,0-7-0.3-10.4,0.2c-2.4,0.3-4.8,0.3-7.2,0.3c-1.1,0-2.1-0.2-3.2-0.3
				c-1.4-0.1-3-0.2-4.4-0.2"/>
			<path class="st6" d="M157.3,76.5c-3.1-0.2-6.2-0.1-9.3-0.1c-0.8,0-1.7,0-2.5,0c-0.7,0-1.4-0.2-2.1-0.3c-1.6-0.1-3.3-0.3-4.9-0.3
				c-0.6,0-1.3,0.1-1.9,0c-0.3,0-0.7-0.3-1-0.2c-0.3,2-0.2,4.1-0.2,6.1c0,2.7-0.1,5.5-0.1,8.2c0,2.9,0,5.9,0.3,8.7
				c1.3,0.2,2.7-0.1,4.1-0.1c1.2,0,2.4-0.2,3.6-0.2c1.5,0,3,0,4.4,0c2.5,0,5,0.1,7.5,0.1c1,0,2,0.1,2.9,0c0.2-1.2,0-2.5,0-3.7
				c0-1.1-0.1-2.1-0.2-3.2c-0.2-2.9,0-5.8,0-8.8C158,80.7,158,78.6,157.3,76.5z"/>
			<path class="st7" d="M18.2,51.1c2.9-0.1,5.8-0.3,8.7-0.7c1.2-0.2,2.5-0.4,3.7-0.4c2.4,0,4.8,0,7.2,0c1.4,0,2.8,0,4.2,0
				c0.6,0,1.3-0.1,1.9,0c0.3,1.9-0.2,3.8-0.2,5.6c0,3-0.1,5.9,0.2,8.9c0.2,2.1,0,4.3,0,6.4c0,2.3,0,4.5,0,6.8c0,2.3,0,4.7,0.2,7
				c0.2,2.3,0.1,4.6,0.3,6.9c0.2,4.8,0.1,9.6,0.1,14.4c0,3.9,0,7.7,0,11.6c0,1.4,0,2.9,0,4.3c0,0.5,0.2,1.9-0.1,2.3
				c-0.2,0.2-1,0.3-1.3,0.4c-0.9,0.1-1.8,0-2.7,0c-2.4,0-4.9,0-7.3,0c-2.8,0-5.7,0-8.5,0c-1,0-2,0-3,0.1c-0.6,0.1-1.5,0.1-2,0.3
				c-0.3-0.5-0.2-1.2-0.3-1.8c-0.2-1-0.4-2-0.5-3c-0.4-2.6-0.3-5.2-0.3-7.8c0-2.8,0-5.7,0-8.5c0-1.6,0.2-3.1,0.2-4.7
				c0-1.9,0.3-3.9,0.5-5.8c0.2-1.7,0.2-3.5,0.2-5.2c0-1.6,0-3.3,0-4.9c0-1.4,0-2.9,0-4.3c0-1.5-0.5-2.9-0.5-4.4
				c0-3.1,0.1-6.3-0.2-9.4c-0.1-1.2-0.1-2.5-0.2-3.7c0-1.1-0.2-2.3-0.2-3.4c0-1.5-0.3-3-0.3-4.5C18,52.6,18,51.6,18.2,51.1z"/>
			<path class="st8" d="M157.1,50.9c-1.2-0.5-2.5-0.7-3.8-0.7c-0.6,0-1.2,0-1.8,0.1c-0.6,0-1.3,0-1.9,0c-1.3,0-2.6,0-3.9,0
				c-1.8,0-3.5,0-5.3-0.1c-1.2-0.1-2.4-0.1-3.6-0.1c-0.7,0-1.6,0.1-2.3,0c-0.2,0.3-0.1,0.9-0.1,1.3c0,0.8,0,1.7,0,2.5
				c0,1.8,0,3.6,0,5.5c0,1.4,0,2.8,0,4.2c0,1.1,0.2,2.1,0.2,3.2c0,1.4,0,2.9,0.1,4.3c0,0.5,0,1.4,0.4,1.8c0.2,0.2,0.5,0.1,0.7,0.1
				c0.7,0,1.3,0,2,0c1.6,0,3.1-0.1,4.7-0.2c2.1-0.1,4.3-0.2,6.4-0.2c1.9,0,3.7,0,5.6,0c0.8,0,1.9,0.2,2.7,0c0.1-0.9,0-1.9,0-2.9
				c0-1.4,0-2.9,0-4.3c0-2.5,0-5,0-7.6C157.2,55.2,157.2,52.7,157.1,50.9z"/>
			<path class="st9" d="M158.2,101.9c-2.5-0.3-4.9-0.5-7.5-0.5c-1.2,0-2.3,0-3.5,0c-1.9,0-3.7,0.2-5.5,0.3c-1.5,0-3,0-4.4,0
				c-0.6,0-1.2-0.1-1.8,0c-0.2,1.3,0,2.9,0,4.2c0,1.9,0,3.7,0,5.6c0,2.4,0,4.8,0,7.2c0,2.1,0.4,4.1,0.5,6.1c1,0.1,2.2,0,3.3-0.1
				c1.3-0.2,2.6-0.2,3.8-0.2c2.6,0,5.3,0.1,7.9,0c2.1-0.1,4.2-0.3,6.3-0.3c0.6,0,1.4,0.1,2,0c0.2-1.1,0-2.4,0-3.6
				c0-1.4-0.2-2.8-0.3-4.2c-0.2-2.4-0.5-4.9-0.5-7.3c0-1.6,0-3.3,0-4.9C158.5,103.3,158.7,102,158.2,101.9z"/>
			<path class="st10" d="M122.1,75.6c-2.9,0-5.8,0.1-8.7-0.6c-1.2-0.3-2.5-0.4-3.7-0.4c-2.2,0-4.4,0-6.6,0c-2.5,0-5.1-0.1-7.6,0.1
				c-0.1,0.6,0.2,1.4,0.3,2c0.2,1.5,0.5,2.9,0.6,4.4c0.2,2.9,0.1,5.8,0.1,8.8c0,5.3,0.2,10.6,0.2,16c0,1.3-0.1,2.7,0.1,4
				c0.1,1.3,0.4,2.5,0.4,3.9c0,2.2,0,4.4,0,6.5c0,1.5-0.2,3.2,0,4.7c0.4,0,0.9,0.1,1.3,0.1c0.6,0,1.2,0,1.8,0
				c1.1-0.1,2.1-0.4,3.2-0.4c3.2-0.1,6.4,0,9.6,0c2.1,0,4.2-0.2,6.3-0.2c0.9,0,1.8,0.1,2.7,0c0.2-1.5,0-3.2,0-4.7
				c0-1.7-0.1-3.4-0.3-5.1c-0.2-2.3,0-4.8,0-7.1c0-2.7,0-5.3-0.1-8c-0.1-1.5,0-3,0-4.5c0-1.5-0.1-3.1,0.1-4.6
				c0.2-1.6,0.5-3.2,0.5-4.8c0-1,0-2,0-3c0-1.6-0.1-3.2-0.1-4.7C122.2,77.4,122.5,75.6,122.1,75.6z"/>
			<path class="st11" d="M83.4,98.7c-2.9,0.1-5.8,0.1-8.6,1c-1.2,0.4-2.4,0.5-3.7,0.6c-2.2,0.1-4.4,0.2-6.6,0.2
				c-2.5,0.1-5,0.3-7.5,0.2c-0.2-0.6,0.2-1.4,0.2-2c0.1-1.5,0.3-2.9,0.4-4.4c0.1-2.9-0.1-5.8-0.2-8.7c-0.2-5.3-0.2-10.6-0.4-16
				c0-1.3-0.2-2.6-0.1-4c0.1-1.3,0.3-2.5,0.2-3.9c-0.1-2.2-0.2-4.4-0.2-6.5c-0.1-1.5-0.3-3.2-0.2-4.7c0.4,0,0.9-0.2,1.3-0.2
				c0.6,0,1.2-0.1,1.8-0.1c1.1,0,2.1,0.3,3.2,0.3c3.2,0,6.4-0.2,9.6-0.3c2.1-0.1,4.2,0.1,6.3,0c0.9,0,1.8-0.1,2.7-0.1
				c0.2,1.5,0.1,3.2,0.2,4.7c0.1,1.7,0,3.4-0.1,5.1c-0.1,2.3,0.2,4.8,0.2,7.1c0.1,2.7,0.2,5.3,0.2,8c0,1.5,0.1,3,0.2,4.5
				c0.1,1.5,0,3.1,0.2,4.6c0.2,1.6,0.6,3.1,0.7,4.8c0,1,0.1,2,0.1,3c0.1,1.6,0,3.2,0.1,4.7C83.4,96.9,83.7,98.7,83.4,98.7z"/>
		</g>
		<path class="st5" d="M25.8,80.6c1,0.2,1.6,0.4,2.3,1c0.5,0.4,0.9,0.9,1.4,1.3c0.9,0.8,1.1,1.6,1.4,2.8c0.4,2,0.3,4-0.4,6
			c-0.2,0.6-0.5,1.1-0.9,1.5c-0.6,0.5-1.3,1-2,1.4c-0.7,0.4-1.8,0.8-2.5,0.3"/>
		<path class="st5" d="M39.2,79.6c-1.1,0.3-2.2,0.5-3.2,1.2c-0.5,0.3-0.9,0.8-1.3,1.2c-0.6,0.7-1.2,1.4-1.7,2.2
			c-0.5,0.8-0.6,1.6-0.7,2.6c-0.1,0.9-0.2,1.9,0.1,2.7c0.4,1.4,1.7,2.8,3.2,3c0.8,0.1,1.6,0.1,2.4,0c0.6-0.1,1.2-0.3,1.8-0.4
			c0.4-0.1,0.9-0.1,1.3-0.1"/>
		<path class="st5" d="M75.6,68c-1.5,1.6-2.3,3.6-3.3,5.5c-0.6,1.1-1.4,2.1-2.2,3.2c-1,1.3-2.3,2.3-4,2.3c-1.5,0.1-2.5-0.9-3-2.3
			c-0.7-1.8-0.3-3.4,0.6-5c0.7-1.2,2-2,3.3-1.3c0.7,0.3,1.5,0.7,2.1,1.2c0.6,0.5,1,1.2,1.6,1.8c0.5,0.6,1.1,1.1,1.6,1.7
			c0.3,0.3,0.6,0.7,1,1c0.3,0.3,0.6,0.6,0.8,1c0.2,0.2,0.3,0.6,0.5,0.7c0.9-0.7,1.4-1.8,2-2.7c0,0,0,0.1,0,0.1"/>
		<path class="st5" d="M104.5,111.4c0.6,0,1,0.1,1.4-0.4c0.2-0.3,0.3-0.7,0.4-1.1c0.3-1,0.2-2.2,0.2-3.2c0-2.4-0.5-4.9-0.8-7.3
			c-0.3-2.2-0.3-4.4-0.5-6.6c-0.1-1.2-0.2-2.6,0.8-3.5c0.5-0.4,1-0.6,1.6-0.7c0.8-0.1,1.7-0.3,2.4-0.2c1.5,0.1,2.5,1.3,2.7,2.8
			c0.2,1.3-0.1,2.7-1.1,3.6c-0.5,0.5-1.2,0.6-1.8,1c1.7,0.2,3.3,1.3,4.1,2.8c0.8,1.8,1.5,4.7,0.4,6.5c-1,1.5-3.8,0.9-4.5-0.6"/>
		<path class="st5" d="M140,64c-0.3,0.5-0.6,0.6-0.9,0.4c1.1-1.5,1.8-3.3,3.3-4.5c1.5-1.2,3.8-1.6,5.6-0.8c1.5,0.7,3,1.5,3.6,3.2
			c0.1,0.3,0.7,1.9,0.2,2"/>
		<path class="st5" d="M153,56.6c-1.1,0.7-2.1,1.3-2.9,2.4c-0.3,0.4-0.6,0.8-1,1.2c-0.7,0.8-1.4,1.6-1.9,2.5
			c-0.3,0.4-0.6,0.8-0.8,1.2c-0.1,0.2-0.3,0.5-0.3,0.7c-0.4-0.3-1.4-0.2-1.6-0.5c-0.2-0.3,0.4-0.8,0.6-0.9c0.5-0.4,1.2-0.5,1.8-0.5
			c0.7,0,0.6,0.2,0.5,0.7c0,0.4,0.2,0.7,0.2,1c-0.2,0-0.4-0.2-0.6-0.3c-0.3-0.1-0.5-0.1-0.8-0.2c-0.5,0-1.3,0.1-1.6,0.5
			c0.2,0,0.2-0.1,0.4-0.2c0.3-0.2,0.7-0.3,1.1-0.4c0.2,0,1.8-0.3,1.7,0.2"/>
		<path class="st5" d="M140.4,90.8c0.6-1.8,1.1-3.4,2.5-4.6c0.6-0.5,1.3-0.8,2.1-1c1.6-0.4,3.3,0,4.8,0.9c0.6,0.4,1.2,0.9,1.6,1.5
			c0.4,0.6,0.6,1.3,0.9,1.9c0.2,0.4,0.4,0.9,0.6,1.3c0.1,0.2,0.2,0.3,0.2,0.5"/>
		<path class="st5" d="M153,82.5c-1.4,0.7-2.7,1.5-3.8,2.6c-0.8,0.9-1.5,2.1-2.1,3.2c-0.4,0.7-1.2,1.6-1.2,2.5
			c-0.5-0.3-1.4-0.4-0.8-1c0.6-0.6,1.8-1,2.6-0.7c0.4,0.2,0.7,0.7,0.6,1.1c-1.1,0.3-2.2,0.5-3.4,0.5c0.4,0.1,0.8-0.4,1.1-0.6
			c0.6-0.2,1.4-0.1,2.1-0.1"/>
		<path class="st5" d="M141.6,117.8c0.1-0.8,0.1-1.9,0.4-2.7c0.1-0.3,0.4-0.6,0.6-0.8c0.6-0.7,1.2-1.5,2.1-1.9
			c0.7-0.4,1.6-0.4,2.4-0.4c0.9,0,1.7,0.1,2.5,0.4c1.4,0.5,2.2,1.8,3.1,2.9c0.4,0.4,0.8,0.8,1,1.4c0,0.1,0.1,0.5,0.1,0.4"/>
		<path class="st5" d="M154.9,107.3c-1.9,1.7-3.3,3.8-4.7,5.9c-0.8,1.2-1.8,2.1-2.7,3.3c-0.3,0.4-0.2,0.3-0.7,0.4
			c-0.5,0.1-1,0.3-1.4,0.5c0.6-0.8,0.9-1.7,2.1-1.7c0.7,0,1.8,0,2,0.9c0.3,1-2.5-0.2-2.6,0.3"/>
	</g>
	<g>
		<g>
			<path class="st12" d="M342.7,114.7c-0.3,0.3-0.7,0.6-1.1,0.8c-0.3,0.2-0.6,0.3-0.9,0.4c-0.7,0.4-1.4,0.8-2.2,1.2
				c-0.9,0.5-1.9,0.7-2.8,1.2c-0.5,0.3-0.9,0.4-1.5,0.5c-0.4,0.1-0.8,0.3-1.2,0.4c-0.4,0.1-0.7,0.1-1.1,0.2c-0.7,0.2-1.3,0.4-2,0.6
				c-0.8,0.2-1.6,0.1-2.4,0.5c-0.6,0.3-1.2,0.2-1.8,0.2c-0.4,0-0.9-0.1-1.3-0.2c-0.2-0.1-0.4-0.2-0.7-0.2c-0.3-0.1-0.6,0-0.8-0.1
				c-0.9-0.2-1.8-0.5-2.6-0.8c-0.4-0.1-0.7-0.3-1.1-0.5c-0.2-0.1-0.7-0.3-0.8-0.6c0.1-0.1,0.2,0,0.4-0.1c0.4-0.1,0.8-0.3,1.2-0.4
				c0.6-0.3,1.2-0.5,1.9-0.5c0.3,0,0.5,0,0.7,0c0.2,0,0.3-0.1,0.5-0.1c0.2,0,0.5,0,0.7,0c0.7-0.1,1.4-0.3,2-0.6
				c0.5-0.2,0.9-0.6,1.3-0.9c0.8-0.5,1.6-1.1,2.3-1.7c0.8-0.7,1.3-1.8,2.2-2.2c1.7-0.8,3.5-1.5,5.2-2.3c1.1-0.6,2.3-1.2,3.3-2
				c0.9-0.6,1.6-1.4,2.5-2.1c1-0.8,1.9-1.7,3-2.4c1.3-0.8,2.6-1.5,4-2c0.9-0.3,1.9-0.6,2.9-0.7c1-0.1,2-0.3,3-0.2
				c0.9,0.1,1.8,0.3,2.7,0.4c0.9,0.1,1.7-0.1,2.6-0.2c1-0.2,1.9-0.5,2.8-0.8c0.4-0.1,0.8-0.2,1.2-0.3c0.4-0.1,0.9-0.3,1.3-0.3
				c0.6,0,1.3,0.1,1.9,0.2c0.6,0.1,1.3,0.3,1.8,0.5c1,0.4,2,1,2.8,1.8c0.9,0.8,1.9,1.5,2.9,2.3c0.5,0.4,0.9,0.9,1.2,1.5
				c0.2,0.4,0.4,0.9,0.6,1.3c0.2,0.3,0.4,0.7,0.6,1.1c0.2,0.4,0.3,0.8,0.4,1.2c0.1,0.3,0.3,0.7,0.8,0.9c-0.9-0.2-2-0.2-2.8-0.5
				c-1-0.4-2-0.8-3-1.2c-1.1-0.5-2.3-0.9-3.6-1c-1.2,0-2.3,0.2-3.5,0.3c-1.3,0.1-2.6,0.4-3.9,0.5c-0.6,0-1.1,0.1-1.7,0.2
				c-0.6,0-1.3,0.1-1.9,0.1c-1.8,0.2-3.5,0.1-5.2,0.5c-0.7,0.2-1.4,0.4-2.2,0.6c-0.6,0.1-1.1,0.3-1.7,0.6c-0.4,0.2-0.7,0.4-1,0.7
				C346.7,111.8,344.6,113.1,342.7,114.7z"/>
			<path class="st13" d="M359,97.8c-1.8,0.6-3.5,1.4-5.3,1.7c-1,0.2-2.1,0.4-3.1,0.3c-0.7,0-1.3,0.1-2,0.2c-2.3,0.3-4.9,0.4-7,1.6
				c-1.2,0.7-2.1,1.9-3.2,2.8c-1.1,0.9-2.2,1.8-3.1,2.9c-0.3,0.3-0.5,0.7-0.8,1c-0.2,0.3-0.4,0.5-0.7,0.7c-0.5,0.5-1,1.2-1.3,1.8
				c-0.2,0.3-0.4,0.6-0.6,1c-0.3,0.5-0.7,0.8-1,1.3c-0.6,0.7-1.2,1.4-1.9,2c-0.4,0.4-0.8,0.8-1.2,1.2c0.2,0.4-0.3,1.3,0.1,1.3
				c1.3,0.1,3.2-1,4.4-1.5c0.5-0.2,1.1-0.4,1.6-0.6c0.7-0.3,1.3-0.6,1.9-1c0.7-0.5,1.4-1,2.1-1.5c0.8-0.6,1.6-1.3,2.5-1.7
				c1.5-0.6,2.4-2.1,3.9-2.7c0.4-0.1,0.7-0.3,1.1-0.5c0.6-0.3,1.1-0.7,1.7-0.9c0.3-0.1,0.7-0.1,1-0.2c0.5-0.1,0.9-0.2,1.4-0.3
				c0.8-0.2,1.7-0.1,2.5-0.2c1-0.2,1.9-0.3,2.9-0.4c0.8-0.1,1.6,0.1,2.4,0.1c0.2,0,0.4,0,0.6,0c0.2,0,0.4,0.1,0.6,0.1
				c0.5,0,0.9,0,1.4,0.2c0.4,0.1,0.7,0.1,1.1,0c0.7-0.1,1.3,0.1,2,0c0.6-0.1,1.2-0.1,1.8-0.2c0.7-0.1,1.3-0.3,2-0.4
				c1.3-0.1,2.6-0.2,3.9-0.1c0.5,0.1,1.1,0.1,1.6,0.3c0.6,0.2,1.2,0.4,1.8,0.6c0.5,0.2,1.1,0.4,1.6,0.6c0.4,0.1,0.8,0.1,1.1,0.2
				c0.3,0,0.4,0.1,0.6-0.2c0.1-0.2,0.2-0.5,0.1-0.7c-0.2-0.8-0.9-1.3-1.5-1.8c-0.6-0.6-0.9-1.3-1.2-2.1c-0.1-0.3-0.2-0.5-0.4-0.8
				c-0.2-0.2-0.4-0.3-0.7-0.4c-0.2-0.1-0.5-0.1-0.7-0.2c-0.3-0.2-0.6-0.5-0.9-0.7c-0.8-0.5-1.8-0.8-2.7-1.2
				c-0.8-0.3-1.7-0.5-2.6-0.7c-1.1-0.3-2.2-0.3-3.4-0.4c-0.4,0-0.8,0-1.1,0c-0.4,0-0.8-0.1-1.2-0.1c-0.6,0-1.2,0-1.7,0.1
				c-0.2,0-0.5,0-0.7,0c-0.1,0-0.3,0-0.4,0.1C358.4,98.1,358.1,98,359,97.8z"/>
			<path class="st14" d="M366.3,90.9c-0.6-0.1-1.2-0.3-1.8-0.2c-0.2,0-0.4,0.1-0.6,0.1c-0.5,0-1,0-1.6,0.2c-0.8,0.2-1.7,0.2-2.4,0.6
				c-0.5,0.3-1,0.6-1.6,0.9c-0.6,0.3-1.2,0.7-1.7,1.1c-0.5,0.3-0.9,0.8-1.3,1.2c-0.3,0.3-0.6,0.7-1,1c-0.2,0.2-0.5,0.3-0.8,0.4
				c-0.5,0.3-1,0.8-1.5,1.2c-0.4,0.4-0.9,0.5-1.3,0.7c-0.2,0.1-0.5,0.3-0.7,0.3c-0.4,0.1-0.6,0.3-1,0.4c-0.5,0.3-1.5,0.4-1.4,1.2
				c0.1,0.4,0.3,0.9,0.6,1.2c0.6,0.5,1.4,0.9,2.1,1.2c2.2,0.7,4.5,0.5,6.6-0.2c1.1-0.3,2.1-0.9,3.2-1.2c0.5-0.1,1-0.2,1.5-0.4
				c0.5-0.1,0.9-0.4,1.4-0.5c0.7-0.1,1.1,0.1,1.8,0.2c0.8,0.1,1.5,0.3,2.3,0.5c1.3,0.4,2.7,0.8,3.9,1.5c0.5,0.2,1,0.5,1.4,0.7
				c0.4,0.2,1,0.4,1.5,0.5c0.3,0,0.6,0,0.8-0.2c0.1-0.1,0.5-0.3,0.5-0.4c0.1-0.2-0.1-0.5-0.2-0.7c-0.1-0.4-0.2-0.6-0.4-0.9
				c-0.2-0.4-0.5-0.7-0.6-1.2c-0.1-0.2-0.2-0.4-0.3-0.6c-0.1-0.3-0.2-0.6-0.2-0.9c-0.2-0.7-0.5-1.4-0.9-2c-0.5-0.8-0.9-1.6-1.5-2.3
				c-0.6-0.6-1.1-1.2-1.8-1.7c-0.6-0.4-1.1-1-1.8-1.3C366.7,91.1,365.7,91,366.3,90.9z"/>
			<path class="st15" d="M334.1,108.7c-0.7,0.1-1.4,0.3-2-0.1c-0.2-0.1-0.4-0.3-0.7-0.4c-0.5-0.3-1.1-0.5-1.6-0.7
				c-0.9-0.3-1.9-0.4-2.8-0.2c-1.1,0.3-2.2,0.5-3.3,0.5c-0.6,0-0.6,0.1-0.8,0.7c-0.6,1.7-1.3,3.3-1.8,5c-0.2,0.5-0.4,0.9-0.5,1.4
				c-0.3,0.9-0.9,1.5-1.3,2.3c-0.2,0.3-0.4,1.1-0.7,1.3c-0.2,0.1-0.3,0-0.4,0.1c0.3,0.2,1,0.1,1.3,0.1c0.8-0.1,1.5-0.2,2.3-0.4
				c0.6-0.2,1.1,0,1.6-0.1c0.4,0,0.7-0.2,1.1-0.3c0.4-0.1,0.8-0.1,1.2-0.4c0.5-0.3,1.1-0.7,1.6-1.1c0.8-0.6,1.5-1.4,2.3-2
				c0.5-0.4,1.1-0.8,1.5-1.4c0.5-0.6,1.1-1.1,1.6-1.7c0.5-0.6,1.1-1.2,1.5-1.8C334.1,109,334.3,108.4,334.1,108.7z"/>
			<path class="st15" d="M418.3,100.7c-0.5-0.2-0.9-0.4-1.5-0.3c-0.2,0.1-0.4,0.1-0.6,0.2c-0.4,0.1-0.8,0.1-1.2,0.2
				c-0.6,0.1-1.3,0.1-1.9-0.1c-0.7-0.2-1.4-0.5-1.9-0.9c-0.6-0.4-1.3-0.8-1.8-1.4c-0.4-0.4-0.9-0.7-1.3-1.1c-0.5-0.5-1-0.8-1.6-1.2
				c-0.5-0.2-1-0.5-1.6-0.6c-1-0.1-2.1-0.2-3.1,0c-1.3,0.2-2.3,0.7-3.4,1.4c-1.8,1.1-3.1,2.7-4.9,3.8c-1,0.6-1.9,1.4-2.8,2.1
				c-0.9,0.7-1.7,1.4-2.5,2.2c-0.5,0.6-1.3,1-1.9,1.4c-0.5,0.3-1.1,0.6-1.7,0.8c-0.3,0.1-0.5,0.1-0.9,0.1c-0.5,0-1,0-1.5-0.1
				c-0.4-0.1-0.7-0.2-1.1-0.3c-0.4-0.1-0.8-0.1-1.2-0.2c-0.4-0.1-0.6-0.1-0.9,0.1c-0.3,0.3-0.8,0.8-0.7,1.2c0.1,0.5,0.5,1.1,0.8,1.5
				c0.4,0.5,0.7,1,1,1.5c0.7,1.1,1.3,2.3,2.3,3.2c1.1,1.1,2.4,1.8,3.9,2.3c0.6,0.3,1.3,0.5,1.9,0.8c0.7,0.4,1.3,0.5,2.1,0.6
				c0.5,0,0.9,0,1.3,0c0.5,0,0.9-0.3,1.3-0.4c0.8-0.2,1.5-0.4,2.1-1c0.3-0.3,0.6-0.6,0.9-0.9c0.4-0.3,0.8-0.6,1.1-0.9
				c0.3-0.3,0.6-0.6,0.9-0.9c0.4-0.4,0.9-0.7,1.3-1.2c0.6-0.7,1.3-1.4,1.8-2.1c0.5-0.7,0.9-1.5,1.4-2.2c0.4-0.6,0.9-1.2,1.5-1.7
				c0.7-0.5,1.5-0.8,2.4-0.9c0.6-0.1,1.3,0,1.9,0.1c0.5,0,1,0,1.5-0.1c0.7-0.1,1.4-0.2,2-0.2c0.6,0,1.1-0.3,1.7-0.5
				c1.3-0.4,2.1-1.5,3.2-2.2c0.4-0.2,0.9-0.4,1.3-0.7c0.3-0.2,0.5-0.5,0.6-0.8C418.9,101.1,418.7,100.5,418.3,100.7z"/>
			<path class="st12" d="M350,96.4c-1-0.2-1.9-0.3-2.9-0.4c-0.1,0-0.3,0-0.4-0.1c-0.4-0.1-0.7-0.2-1.1-0.4c-0.6-0.2-1.1-0.5-1.7-0.6
				c-1.4-0.3-3.1-0.4-4.5,0.3c-0.7,0.4-1.4,0.4-2.1,0.7c-0.6,0.2-1.2,0.6-1.8,0.8c-0.7,0.3-1.5,0.5-2.2,0.7
				c-1.1,0.3-2.3,0.4-3.2,1.1c-0.5,0.3-0.9,0.6-1.4,0.9c-0.6,0.4-1.3,0.7-1.8,1.2c-0.8,0.8-1.7,1.9-2.2,3c-0.4,0.8-0.8,1.6-1.1,2.5
				c-0.2,0.4-0.6,1.8-0.3,2.2c0.1,0.1,0.2,0.1,0.3,0.2c0.4,0.1,0.9,0,1.3-0.1c1-0.2,2.1-0.4,3.2-0.3c1.1,0,2.1,0.3,3,0.9
				c0.2,0.1,0.3,0.2,0.5,0.3c0.4,0.2,1,0.1,1.4-0.1c1.2-0.6,2-1.8,2.8-2.8c1-1.3,2.3-2.4,3.5-3.5c0.6-0.5,1.2-0.9,2-1.2
				c0.9-0.3,1.8-0.7,2.7-0.9c1-0.2,1.9-0.5,2.9-0.6c2-0.3,3.7-1.4,5.2-2.6c0.1-0.1,0.2-0.1,0.2-0.3c0-0.1,0-0.2-0.1-0.3
				c-0.5-0.6-1.6-0.1-2.3-0.1C349.4,96.8,348.7,96.8,350,96.4z"/>
			<path class="st12" d="M397.4,92.8c-0.9-0.4-1.7-0.8-2.7-0.8c-0.4,0-0.9-0.1-1.3-0.1c-0.8-0.1-1.5-0.1-2.3-0.3
				c-0.6-0.2-1.3-0.2-1.9-0.3c-0.9-0.2-1.8-0.3-2.7-0.1c-1.1,0.3-1.9,1.1-2.7,1.9c-0.5,0.5-1.1,0.9-1.7,1.2c-0.7,0.3-1.4,0.7-2.1,1
				c-0.7,0.3-1.5,0.6-2.3,0.9c-0.6,0.2-1.2,0.3-1.9,0.4c-0.7,0.1-1.2,0.2-1.9-0.1c-0.3-0.1-0.4-0.2-0.6,0c-0.2,0.1-0.5,0.3-0.5,0.5
				c0,0.2,0.2,0.5,0.3,0.7c0.2,0.3,0.3,0.6,0.5,0.9c0.5,0.7,0.8,1.4,1.1,2.1c0.3,0.7,0.6,1.4,0.7,2.1c0.1,0.8,0.7,1.2,1.1,1.8
				c0.2,0.3,0.5,0.6,0.6,1c0.2,0.4,0.2,0.8,0.3,1.2c0.2,0.4,0.5,1,0.8,1.3c0.4,0.3,0.9,0.4,1.4,0.8c0.6,0.5,1.3,0.8,2,1.1
				c0.5,0.2,1,0.2,1.4,0.4c0.6,0.2,1.2,0.1,1.9,0c0.7-0.1,1.1-0.4,1.7-0.8c0.3-0.2,0.6-0.4,0.9-0.5c0.4-0.2,0.8-0.5,1.1-0.8
				c0.6-0.5,1.3-1,1.8-1.5c0.3-0.3,0.6-0.6,0.8-0.9c0.3-0.4,0.7-0.7,1.1-1.1c0.9-1.1,1.6-2.3,2.5-3.4c0.5-0.6,1.3-1.1,1.9-1.6
				c0.6-0.5,1.3-1,2-1.4c1-0.5,1.9-0.8,3-1c0.7-0.1,1.4-0.1,2.1-0.3c0.6-0.2,1.3-0.3,1.9-0.3c0,0,0.9-0.4,0.8-0.5
				c-0.4-0.5-2.4-1.4-3-1.7c-0.7-0.4-1.6-0.7-2.4-0.8c-0.6-0.1-1.2-0.1-1.7-0.2C398.3,93.1,396.9,92.8,397.4,92.8z"/>
			<path class="st13" d="M395.8,92.5c-1.7-0.4-3.3-0.6-4.9-1.1c-0.4-0.1-0.7-0.3-1-0.4c-0.2-0.1-0.5-0.1-0.8-0.2
				c-0.8-0.1-1.4-0.1-2.1-0.6c-0.6-0.4-1.2-0.9-1.8-1.4c-0.4-0.3-0.8-0.7-1.2-1.1c-0.5-0.4-1-0.8-1.4-1.3c-0.4-0.4-0.9-0.9-1.2-1.3
				c-0.3-0.4-0.7-2.3-1.1-2.7c-0.7-0.8-1-0.5-1.8-1.3c-1-1-1.9-1.8-3.2-2.2c-0.9-0.3-1.9-0.4-2.9-0.3c-0.4,0-0.8,0-1.2,0
				c-1.3,0-2.6,0.1-1.5,0.1c-2.1-0.3-4.1-0.7-6.2-0.1c-1.9,0.5-3.6,1.6-5.2,2.6c-0.8,0.5-1.6,0.9-2.4,1.3c-0.8,0.4-1.5,0.8-2.3,1
				c-0.7,0.2-1.5,0.4-2.3,0.5c-0.8,0.1-1.6-0.1-2.3-0.1c-0.9-0.1-1.9-0.2-2.8-0.2c-0.6,0-1.2-0.2-1.8-0.2c-0.5,0-1.2,0.3-1.7,0.6
				c-0.4,0.3-0.7,0.6-1,0.9c-0.5,0.6-0.7,1.2-1,1.9c-0.6,1.7-0.8,3.6-1.7,5.2c-0.4,0.8-0.6,1.7-1,2.5c-0.2,0.4-0.4,1-0.7,1.4
				c-0.2,0.3-0.5,0.6-0.7,0.9c-0.3,0.3-0.6,0.5-1,0.6c-0.3,0.1-0.7,0-0.8,0.3c0.4,0.3,1,0.4,1.5,0.5c1.1,0.3,1.9,1.2,2.9,1.7
				c0.3,0.1,0.5,0.2,0.8,0.4c0.4,0.2,0.8,0.6,1.2,0.8c0.9,0.4,2.2-0.4,3-0.7c1.2-0.3,2.5-0.6,3.7-1c0.4-0.2,1-0.2,1.3-0.5
				c0.3-0.2,0.6-0.5,0.9-0.7c0.4-0.3,0.8-0.5,1.3-0.7c0.9-0.5,1.7-1.2,2.5-1.8c0.7-0.5,1.5-0.8,2.2-1.4c0.6-0.5,1.3-1.1,2-1.5
				c0.7-0.4,1.5-0.8,2.2-1.2c0.6-0.4,1.3-0.6,2-0.7c0.5-0.1,1-0.4,1.4-0.4c0.3,0,0.7,0,1.1,0c0.6,0,1.2,0.2,1.7,0.3
				c0.6,0.2,1.2,0.4,1.7,0.6c0.6,0.3,1,0.8,1.5,1.2c0.6,0.4,1.1,0.8,1.5,1.5c0.4,0.5,0.7,1.1,1.1,1.6c0.3,0.4,0.5,1,0.8,1.4
				c0.3,0.5,1.3,2.7,1.7,3.2c0.8,1.2,1.4,0.3,2.9,0.3c1.6-0.1,3.2-0.6,4.6-1.3c0.6-0.3,1.3-0.5,1.9-0.8c1.5-0.8,3-1.4,4.3-2.4
				c0.5-0.4,1-0.9,1.5-1.2c1.3-0.8,2.9-0.9,4.4-0.9c0.7,0,1.6,0,2.1-0.5c0.1-0.1,0.3-0.4,0.2-0.5C396.3,92.7,396,92.6,395.8,92.5z"
				/>
			<path class="st14" d="M356.4,68.5c-1,0.1-1.8,0.1-2.8,0.3c-0.4,0.1-0.7,0.2-1.1,0.2c-0.6,0.1-1.1,0.3-1.7,0.6
				c-0.7,0.4-1.6,0.4-2.3,0.8c-1.3,0.7-2.6,1.6-3.3,3c-0.4,0.7-0.9,1.4-1.2,2.1c-0.5,1.1-0.9,2.2-1.3,3.3c-0.4,1-0.8,2-1.1,3.1
				c-0.3,1,0,0.9,0,2c0,0.3-0.9,1.6-0.8,1.9c0.1,0.3,0,0.7,0.1,1.1c0.2,0.7,0.5,1.4,0.8,2c0.3,0.6,1,1,1.6,1.4
				c0.8,0.4,1.5,0.7,2.4,0.7c0.8,0,1.4-0.3,2.2,0c0.7,0.2,1.3,0.5,2,0.8c0.7,0.3,1.5,0.5,2.2,0.7c0.9,0.2,1.6-0.2,2.3-0.6
				c0.8-0.4,1.7-0.6,2.5-1.2c0.3-0.2,0.6-0.6,1-0.8c0.5-0.5,1.1-0.9,1.7-1.3c0.5-0.4,1-0.7,1.5-1c0.5-0.3,1-0.6,1.5-0.8
				c0.8-0.3,1.5-0.1,2.4-0.1c0.9,0.1,1.8,0,2.7,0c0.5,0,1.1,0.1,1.6,0.1c0.6,0,1.1-0.2,1.6-0.2c1.2,0,2.1-0.6,3.2-1
				c0.5-0.2,0.9-0.4,1.4-0.6c1-0.3,2.1-0.3,3-0.8c0.2-0.1,0.4-0.3,0.6-0.4c0.4-0.3,0.7-0.6,0.9-1c0.2-0.6-0.1-0.9-0.3-1.4
				c-0.2-0.4-0.4-0.8-0.6-1.3c-0.1-0.2-0.2-0.5-0.3-0.7c-0.1-0.3-0.4-0.5-0.5-0.8c-0.3-0.6-0.6-1.2-0.9-1.7
				c-0.2-0.4-0.5-0.8-0.8-1.2c-0.2-0.3-0.3-0.7-0.5-1c-0.5-0.8-1-1.6-1.7-2.2c-0.9-1-2.2-1.4-3.4-1.8c-0.9-0.3-1.8-0.4-2.7-0.6
				c-0.9-0.2-1.7-0.3-2.6-0.4c-1.6-0.2-3.3-0.3-4.9-0.6c-1-0.1-2-0.4-3-0.6c-0.4-0.1-0.8-0.2-1.2-0.2
				C355.4,68.2,354.4,68.4,356.4,68.5z"/>
			<path class="st16" d="M362.8,64.8c-1.5,0-2.8,0.1-4.2,0.4c-0.6,0.1-1.2,0.3-1.9,0.4c-1.1,0.1-2.1,0.7-3.2,1
				c-0.9,0.2-1.8,0.8-2.6,1.3c-0.8,0.5-1.6,1.1-2.3,1.7c-0.7,0.6-1.3,1.2-2,1.8c-0.6,0.6-0.9,1.2-1.3,1.9c-0.3,0.7-0.6,1.4-0.9,2.1
				c-0.1,0.3-0.3,0.8-0.3,1.1c-0.1,0.9,0.8,1.6,1.7,1.6c0.8,0,1.5,0.1,2.2,0.4c0.5,0.2,0.9,0.5,1.4,0.7c0.7,0.3,1.4,0.6,2.1,0.9
				c0.6,0.2,1.4,0.2,2,0.2c0.9,0,1.8-0.1,2.6-0.3c1.9-0.7,3.9-1.2,5.6-2.4c0.8-0.6,1.6-1.3,2.6-1.7c0.9-0.4,1.7-0.7,2.6-0.8
				c0.5-0.1,1,0,1.5-0.1c0.5-0.1,1.1-0.1,1.6-0.2c0.6-0.1,1.3-0.2,1.9-0.5c0.9-0.5,2.1-1.5,1.5-2.6c-0.2-0.5-0.6-1-1-1.4
				c-0.2-0.2-0.5-0.3-0.7-0.5c-0.2-0.2-0.4-0.4-0.6-0.5c-0.4-0.3-0.8-0.6-1.2-0.9c-0.8-0.6-1.6-1.3-2.5-1.7
				c-0.7-0.3-1.5-0.6-2.3-0.9c-0.4-0.1-0.7-0.3-1-0.4c-0.1,0-0.3-0.1-0.4-0.1C362.8,64.6,362,64.7,362.8,64.8z"/>
		</g>
		<g>
			<path class="st5" d="M341.5,35.5c-0.7-0.5-1.5-1.1-2.3-1.2c-0.2,0-0.4,0-0.7,0c-0.6,0-1.2,0-1.8,0.1c-1,0.2-1.7,0.8-2.3,1.6
				c-0.4,0.5-0.5,1-0.7,1.6c-0.2,0.5-0.4,1-0.5,1.6c-0.1,0.6-0.2,1.3-0.2,1.9c0,0.5,0.2,1,0.4,1.5c0.3,0.8,0.5,1.4,1.1,2.1
				c0.4,0.4,0.9,0.8,1.4,1c0.7,0.4,1.4,0.3,2.1,0.2c0.5-0.1,0.9,0,1.3-0.2c0.3-0.2,0.5-0.4,0.7-0.6c0.3-0.2,0.7-0.4,1-0.6"/>
			<path class="st5" d="M348.7,34.6c-0.9,0.4-1.6,0.6-2.2,1.4c-0.2,0.3-0.4,0.5-0.6,0.8c-0.3,0.6-0.5,1.3-0.6,2
				c-0.1,0.5-0.1,1-0.1,1.5c0,0.8-0.1,1.6,0.2,2.4c0.4,1,1,2.1,1.9,2.7c0.2,0.1,0.5,0.1,0.7,0.2c0.3,0.1,0.5,0.2,0.8,0.3
				c0.6,0.2,1.3,0.1,1.9,0.1c0.7-0.1,1.2-0.1,1.9-0.3c0.6-0.2,1.2-0.5,1.7-0.9c0.8-0.7,1.7-1.5,1.9-2.6c0.5-2.2-0.2-5-1.8-6.4
				c-0.3-0.3-0.7-0.6-1.1-0.8c-0.4-0.2-0.9-0.2-1.4-0.2c-0.4,0-0.8-0.2-1.2-0.3C350.1,34.1,349.2,33.9,348.7,34.6z"/>
			<path class="st5" d="M365.4,36.7c-0.4-0.6-1-1.1-1.6-1.6c-0.2-0.1-0.3-0.1-0.5-0.1c-0.3-0.1-0.5-0.2-0.8-0.3
				c-0.5-0.1-1.1-0.1-1.6-0.1c-1.2,0-1.6,1.1-1.7,2.1c-0.1,0.6-0.1,1.2,0.1,1.7c0.3,0.6,0.6,1.1,1.3,1.3c0.7,0.2,1.4,0.3,2,0.5
				c0.7,0.2,1.7,0.1,2.3,0.5c0.3,0.2,0.4,0.5,0.5,0.7c0.1,0.2,0.3,0.4,0.5,0.7c0.2,0.4,0.3,0.9,0.2,1.3c-0.1,0.5-0.5,1.2-0.9,1.6
				c-0.5,0.5-0.9,0.5-1.5,0.7c-0.5,0.1-0.9,0.3-1.5,0.3c-0.4,0-0.7-0.1-1.1-0.2c-0.5-0.1-1-0.3-1.3-0.7c-0.2-0.4-0.4-0.9-0.5-1.3"/>
			<path class="st5" d="M370,29.8c0,1.3,0,2.5-0.2,3.8c-0.1,0.5-0.1,1-0.1,1.5c0,1.1,0.1,2.3,0.1,3.4c0,1.5,0,3,0.4,4.4
				c0.2,0.5,0.2,1,0.5,1.5c0.2,0.3,0.5,0.6,0.8,0.9c0.4,0.3,0.9,0.5,1.3,0.5c0.3,0,0.6,0,0.8-0.1c0.4-0.2,0.9-0.6,1.3-0.9"/>
			<path class="st5" d="M368.1,34.6c1.2,0,2.4,0.1,3.6-0.1c0.6-0.1,1.2-0.1,1.9-0.1c0.4,0,0.7-0.1,1-0.3"/>
		</g>
		<path class="st5" d="M316,119.2c0.5-0.3,1-0.5,1.6-0.8c1-0.4,1.5-1.3,2.2-2.2c1.1-1.5,1.7-3.5,2.4-5.2c0.7-1.9,1.3-3.9,2-5.9
			c0.5-1.2,1.2-2.1,1.9-3.3c0.7-1.2,1.4-1.9,2.7-2.7c1.2-0.7,2.9-1.3,4.3-1.4c0.8-0.1,1.6-0.3,2.4-0.6c1.2-0.5,2.2-0.9,2.7-2.2
			c0.6-1.5,1.2-2.8,1.9-4.2c1-2.2,0.9-4.9,1.5-7.2c0.4-1.7,0.8-3.3,1.2-5c0.3-1.5,0.9-2.6,1.7-3.9c0.9-1.5,2.2-2.8,3.4-4
			c1.2-1.1,2.7-2,4-3c1.6-1.2,3.4-1.8,5.2-2.4c0.9-0.3,1.7-0.5,2.6-0.6c2.5-0.4,4.8,0.3,7.2,1c1.7,1.3,3.3,2.8,5.2,3.8
			c0.3,0.2,0.6,0.3,0.9,0.6c0.5,0.5,0.8,1,1.2,1.5c0.5,0.8,1,1.6,1.6,2.4c0.7,0.9,1.5,1.6,2.1,2.6c1.1,1.7,1.7,3.7,2.6,5.5
			c0.3,0.7,0.7,1.4,1.1,2.1c0.5,0.8,0.8,1.6,1.3,2.3c1.3,1.8,3,3,5,3.8c1.1,0.4,2.2,0.8,3.4,1c1.1,0.2,2.2,0.3,3.3,0.6
			c1.6,0.4,3.2,0.6,4.8,1c1.2,0.3,2.4,0.7,3.6,1c0.7,0.2,1.2,0.5,1.9,0.8c0.6,0.2,1,0.4,1.7,0.8c1.5,0.9,2.7,1.9,3.5,3"/>
		<path class="st5" d="M409.2,98.1c0.4,0.4,1.7,1.5,2.3,1.9c1.2,0.8,2.5,0.9,3.9,0.7c0.7-0.1,3.4-0.9,3.4,0.2c0,0.8-0.9,1.2-1.4,1.5
			c-0.9,0.5-1.6,1.3-2.5,1.8c-1.8,1.1-4.2,1.7-6.4,1.9c-1.6,0.1-2.9-0.2-4.2,0.9c-2.1,1.8-3.7,4.1-5.4,6.3c-0.6,0.9-1.4,1.8-2.2,2.5
			c-0.6,0.4-1.3,0.9-1.9,1.2c-1.1,0.5-2.4,0.7-3.7,0.8c-0.7,0.1-1.4-0.1-2.2-0.3c-1.2-0.2-2.4-0.4-3.5-0.8c-1.4-0.6-2.3-2.1-3.3-3.2
			c-1.1-1.2-2-2.4-2.7-3.9c-1.4-3-3.1-5.8-4.7-8.6c-0.8-1.4-1-3.1-1.8-4.5c-0.7-1.1-1.6-2.2-2.5-3.2c-1.8-2.1-5-2.8-7.6-2.4
			c-1.9,0.3-3.4,1-4.9,2.2c-1.4,1-2.8,2-4.1,3.1c-1.7,1.3-3.4,2.3-5.2,3.3c-1.4,0.8-2.9,0.9-4.5,1.1c-3,0.4-5.2,2.9-6.9,5.1
			c-1.1,1.4-2.6,2.5-3.5,3.9c-0.9,1.4-1.9,2.8-3.2,3.9c-0.8,0.7-1.7,1.4-2.4,2.2c-0.5,0.5-1,1.1-1.6,1.4c-2.9,1.7-6.5,1.6-8.8,1.5
			c2.5,0.5,5,1.1,7.4,1.6c0.6,0.1,1.2,0.2,1.8,0.2c1.7,0,3.7-0.4,5.3-0.9c1.5-0.4,3-0.9,4.5-1.4c1.5-0.5,3-1.2,4.3-2
			c1.2-0.8,2-1.9,3.2-2.7c1.3-0.9,2.6-1.7,3.8-2.8c1.8-1.7,3.8-2.5,6.2-2.4c3.9,0,7.8,0.3,11.6-0.7c3-0.8,5.9-0.4,8.8,0.7
			c0.7,0.3,1.5,0.5,2.2,0.7c0.6,0.2,1.1,0.6,1.7,0.8c0.6,0.2,1.3,0.1,1.9,0.1"/>
		<path class="st5" d="M370.6,68.8c-1.5,0-4,0.1-5.5,0.6c-0.4,0.1-0.8,0.3-1.1,0.5c-0.5,0.2-0.9,0.3-1.3,0.5c-1.1,0.5-2.2,1-3.2,1.6
			c-0.9,0.6-1.4,1.2-1.9,2.1c-0.6,1-1.4,1.9-2.1,2.9c-1.3,1.8-2.4,3.8-2.8,6c-0.4,2.2-1.1,4.2-2.2,6.1c-0.6,1.1-1.4,2-2.2,3
			c-0.9,1.1-1.5,2.3-2.6,3.2c-1.7,1.4-3.7,2.5-5.7,3.2c-2,0.6-3.4,1.4-4.9,2.9c-1.2,1.2-2.4,2.1-3,3.8c-0.4,1.2-0.8,2.3-1,3.6
			c-0.2,1-0.1,2-0.1,3"/>
		<path class="st5" d="M378.6,78.5c-1.8-1-3.3-2.4-5.4-2.8c-0.9-0.2-2.1-0.3-3-0.1c-1.3,0.3-2.5,1.4-3.3,2.5c-1,1.5-1.8,3.1-2.8,4.5
			c-0.4,0.5-0.8,1.1-1.3,1.6c-0.5,0.5-1,0.7-1.6,0.9c-1.5,0.7-2.9,1.3-3.9,2.6c-1,1.3-2,2.5-2.8,3.9c-0.7,1.2-1.2,2.3-1.5,3.7
			c-0.1,0.6-0.1,0.7-0.4,1.3"/>
		<path class="st5" d="M383.4,87.5c-0.8-0.8-1.6-1.8-2.7-2.1c-0.4-0.1-0.8-0.3-1.2-0.4c-0.6-0.2-1.2-0.2-1.9-0.2c-1,0-2.1,0-3,0.5
			c-1,0.5-1.4,1.5-2.2,2.1c-0.8,0.6-1.7,0.9-2.4,1.6c-0.7,0.6-1.5,1-2.3,1.4c-0.2,0.1-0.5,0.3-0.7,0.4c-0.2,0.2,0.2-0.1,0,0"/>
		<path class="st5" d="M395.8,92.3c-1.2-0.2-3.9-0.4-5.1-0.2c-0.3,0.1-0.6,0.1-0.9,0.2c-0.6,0.2-1.2,0.5-1.8,0.7
			c-0.9,0.3-1.6,1.5-2.1,2.3c-1.1,1.8-2.4,3.8-4.5,4.6c-0.8,0.3-1.5,0.7-2.3,0.9c-0.7,0.2-1.5,0.3-2.3,0.3c-0.7,0-1.3-0.4-1.9-0.5"
			/>
		<path class="st5" d="M407.9,96.9c-0.2,0-1.7-0.2-2.9-0.1c-0.5,0-0.9,0.2-1.4,0.4c-0.8,0.3-1.6,0.5-2.3,1c-0.9,0.6-1.6,1.4-2.3,2.2
			c-0.5,0.6-1,1.1-1.5,1.8c-1,1.3-1.8,2.8-3,4.1c-0.7,0.7-1.2,1.5-2,2c-0.9,0.6-1.8,1.1-2.7,1.6c-1.3,0.7-2.5,1.3-4,1.3
			c-0.5,0-1.2,0.1-1.7-0.1c-0.4-0.2-0.8-0.5-1.3-0.6c-0.4-0.1-0.9-0.1-1.3-0.2c-0.5-0.1-0.8-0.4-1.2-0.6c-0.4-0.2-1.2-0.4-1.7-1.5"
			/>
		<path class="st5" d="M327.8,100.6c1.3-0.2,2.8-0.6,4.1,0.1c0.2,0.1,0.5,0.3,0.7,0.5c0.4,0.3,0.8,0.7,1.3,1.1
			c0.6,0.5,1,1.1,1.5,1.7c0.3,0.3,0.5,0.5,0.9,0.6c0.3,0.1,0.7,0.1,0.9,0.3"/>
		<path class="st5" d="M337.6,96.3c1.1,0,2.2,0,3.2,0.6c0.3,0.2,0.6,0.4,0.9,0.6c0.4,0.3,0.7,0.5,1.1,0.8c0.7,0.5,1.3,1,1.9,1.4
			c0.4,0.3,0.8,0.2,1,0.6"/>
		<path class="st5" d="M341.5,84.4c1.9,0.1,3.3,0.3,4.8,1.3c0.9,0.6,1.8,1.2,2.6,1.8c0.7,0.5,1.6,1,2.4,1.5c0.8,0.5,1.4,1.2,2.2,1.8
			c1,0.7,2,1.4,3.1,2.1c0.4,0.3,0.8,0.2,1.3,0.2"/>
		<path class="st5" d="M344.4,74.8c0.3-0.1,1.3-0.6,1.6-0.7c0.6-0.3,1.2-0.3,1.8-0.1c0.8,0.1,1.5,0.3,2.3,0.6
			c0.5,0.2,1.1,0.3,1.6,0.5c0.9,0.4,1.8,1,2.7,1.5c1.4,0.8,2.6,2,3.7,3.2c1.6,1.6,3,3.4,4.6,5c0.8,0.8,1.5,1.7,2.4,2.5
			c0.6,0.6,1.1,1.1,1.5,1.9c0.3,0.5,0.5,1.1,1,1.5c0.5,0.4,1,0.9,1.6,1.2c0.7,0.3,1.4,0.4,2.2,0.4c0.9,0,1.6-0.3,2.4-0.6
			c1-0.4,2.3-0.4,3.4-0.2c1.3,0.2,2.6,0.5,3.6,1.3c1.2,0.9,2.2,1.9,3.3,3c1,1,1.9,2.1,2.7,3.3c0.6,0.9,1.1,1.8,1.5,2.8
			c0.3,0.5,0.4,1.1,0.7,1.6c0.3,0.6,0.7,1.1,1,1.7c0.7,1.3,1.3,2.6,2.3,3.7c0.4,0.5,0.9,1,1.3,1.5c0.4,0.4,0.7,0.9,1.1,1.3
			c0.6,0.6,1.6,1.3,2.4,1.6c0.6,0.2,1.4,0.1,2.1,0.1"/>
		<path class="st5" d="M405.4,106.1c-1.5-0.8-2.8-1.5-4.1-2.6c-0.4-0.3-0.6-0.7-1-1.1c-0.5-0.4-0.9-0.7-1.4-1.1
			c-1.1-0.9-1.9-2.1-3-3c-1.3-1.1-2.1-2.6-3.5-3.6c-0.5-0.3-1.1-0.6-1.5-1c-0.5-0.4-0.9-0.9-1.4-1.3c-0.8-0.6-1.5-1-2.2-1.7
			c-0.3-0.3-0.6-0.5-0.9-0.7c-0.3-0.2-0.5-0.5-0.7-0.7c-0.6-0.5-1.6-0.6-2.3-0.9c-2.1-0.8-4.6-0.4-6.7-1.5c-1-0.5-1.8-1.4-2.6-2
			c-0.5-0.4-1-0.8-1.3-1.3c-0.4-0.7-0.8-1.4-1.2-2c-1.6-2.2-2.2-5-3.8-7.2c-0.4-0.5-0.8-1-1.2-1.6c-0.4-0.5-0.7-1.2-1.2-1.6
			c-0.5-0.4-1-0.9-1.5-1.3c-0.6-0.5-1.2-1-1.8-1.5c-0.8-0.6-1.8-1-2.8-1.4c-0.6-0.2-1.4-0.4-2.1-0.4c-0.8,0-2.9-0.2-3.6,0"/>
		<path class="st5" d="M322.2,110.8c1.4-0.1,2.7-0.3,4-0.6c0.5-0.1,1-0.2,1.5-0.2c0.2,0,0.4,0.1,0.6,0.1c0.5,0.2,1,0.5,1.5,0.8
			c0.7,0.4,0.6,0.9,1.4,1.2"/>
		<path class="st5" d="M331.9,119.6c1.5-0.6,3.2-1.1,3.9-2.7c0.2-0.3,0.3-0.7,0.5-1c0.3-0.6,0.4-1.1,0.4-1.7c0-1.1,0-2.1-0.3-3.1
			c-0.4-1.2-0.6-2.7-0.6-4"/>
		<path class="st5" d="M347.2,111.2c0.4-1,0.5-1.3,1-2.3c0.1-0.3,0.2-0.5,0.3-0.9c0.2-0.6,0.1-1.2,0.2-1.9c0.1-1.2,0.1-2.4,0.1-3.6
			c0-0.8,0-1.7,0.2-2.5c0.1-0.3,1-1.7,1.4-1.7"/>
		<path class="st5" d="M358.3,108.3c1.1-1,2-1.7,2.2-3.2c0.1-0.6,0.1-1.1,0.2-1.7c0.1-0.8,0.3-1.6,0.2-2.5c0-1.6,0.2-3.1,0.2-4.7
			c0-1.1,0.3-2.2,0.7-3.3c0.1-0.4,0.8-2.3,1.4-2.2"/>
		<path class="st5" d="M369.7,106.6c0.4-0.9,0.8-1.8,0.9-2.8c0-0.5,0.1-0.9,0.2-1.4c0.1-1,0.4-2.1,0.7-3.1c0.2-0.6,0.5-1.2,0.9-1.7
			c0.1-0.2,0.2-0.4,0.5-0.4"/>
		<path class="st5" d="M377,105.1c-1.5-0.1-3,0.2-4.3-0.7c-0.7-0.5-1.4-1.1-2.1-1.5c-1.7-0.9-3.3-2.1-5.1-2.6
			c-0.9-0.3-1.9-0.3-2.8-0.5c-0.9-0.2-1.9-0.3-2.8-0.4c-1-0.1-1.9,0.1-2.9,0.4c-1,0.3-2,0.6-3,0.9c-1.1,0.4-2,0.8-2.9,1.4
			c-0.6,0.3-1.2,0.6-1.8,1c-0.5,0.3-1,0.8-1.5,1.1c-1,0.7-2,1.4-3,2.1c-1.1,0.8-2.3,1.4-3.2,2.4c-0.9,0.9-1.8,1.7-2.7,2.6
			c-0.7,0.7-1.4,1.3-2.2,1.8c-0.7,0.4-1.2,0.9-1.9,1.4c-0.8,0.6-1.7,0.9-2.6,1.3c-0.8,0.4-1.5,0.9-2.3,1.2c-0.5,0.2-0.9,0.2-1.4,0.2
			c-0.3,0-0.4,0-0.7-0.1c-0.3-0.2-0.7,0-0.9-0.3"/>
		<path class="st5" d="M352.1,56.1c0.7-1,1.3-2,2-2.9c0.2-0.3,0.4-0.6,0.6-0.8c0.4-0.4,0.7-0.7,1-1.2c0.1-0.2,0.3-0.6,0.5-0.6
			c0.4,0,0.9,0.9,1.1,1.1c0.8,0.8,1.5,1.5,2.2,2.4c0.4,0.6,1,1.2,1.5,1.7"/>
		<path class="st5" d="M356.5,65.4c0.1-1.4-0.1-2.1-0.1-3.5c0-0.6-0.1-1.1-0.1-1.7c0-1.5-0.1-2.9-0.1-4.4c0-1,0-2.1,0.1-3.1
			c0.1-0.5-0.1-1.8,0.2-2.2"/>
		<path class="st5" d="M357.1,108.6c0,1.5,0.2,2.9,0.2,4.4"/>
		<path class="st5" d="M318.6,135.2c1.5-0.9,2.9-1.6,4.4-2.5c0.5-0.2,0.9-0.5,1.3-0.8c0.9-0.7,1.9-1.1,2.9-1.7
			c1.1-0.6,2.1-1.3,3.1-1.8c1.3-0.6,2.3-1.5,3.6-2.2c3.7-2,7.4-4,11.1-6.1c0.8-0.4,1.6-0.8,2.4-1.2c0.8-0.4,1.4-1,2.2-1.4
			c0.8-0.3,1.5-0.7,2.2-1.1c0.5-0.4,1-0.7,1.6-0.9c1.4-0.7,2.8-1.5,4.1-2.4"/>
		<path class="st5" d="M415,113.1c-2.4,0.1-4.9,0.3-7.3,0.2c-0.6,0-1.3-0.2-1.9-0.2c-1.1-0.1-2.1,0.2-3.2,0.2
			c-1.1,0-2.2-0.1-3.3,0.1"/>
		<path class="st5" d="M381.2,112.8c-1.6-0.1-2.5,0.1-4.1-0.1c-0.6-0.1-1.1-0.1-1.7-0.1c-1,0-1.9,0-2.9-0.1
			c-2.2-0.2-4.5,0.1-6.8,0.1c-2.5-0.1-4.9-0.1-7.4,0.4c-0.3,0.1-0.7,0.2-1,0.1c0,0,0.1,0,0.1,0"/>
		<path class="st5" d="M411,110.4c1.1,0.9,2.2,1.8,3.5,2.4c0.4,0.2,0.8,0.2,1.1,0.3C415.6,113.2,415.6,113.2,411,110.4z"/>
		<path class="st5" d="M411.1,117.3c1.2-1.3,2.4-2.7,3.8-3.8C415.3,113.1,415.6,112.8,411.1,117.3z"/>
		<path class="st5" d="M321.6,129.8c-0.8,1.2-1.6,2.3-2.3,3.6c-0.1,0.3-0.3,0.6-0.4,0.9c-0.3,0.4-0.6,0.9-0.9,1.3
			C317.9,135.6,317.9,135.6,321.6,129.8z"/>
		<path class="st5" d="M324.4,135.5c-1.4-0.2-2.7-0.5-4.1-0.3c-0.3,0-0.6,0.1-0.9,0.1C318.9,135.2,318.5,135.1,324.4,135.5z"/>
		<path class="st5" d="M314.3,133.8c-1.1,2.5-2.6,4.7-4.6,6.7c-0.8,0.7-1.4,1.6-2.2,2.4c-0.7,0.8-2.4,2.1-3.6,1.7
			c-0.6-0.2-1.1-0.7-1.4-1.2c-0.6-0.8-0.7-1.4-0.6-2.4c0.2-1.9,0.5-3.7,1.7-5.2c1.3-1.6,4.8-1.5,6.1,0c0.3,0.3,0.4,0.7,0.7,1
			c0.3,0.4,0.6,0.7,0.8,1.2c0.3,0.6,0.5,1.1,0.9,1.7c0.2,0.4,0.6,0.8,0.7,1.2c0.3,0.9,0.7,1.6,1.1,2.5c0.2,0.4,0.4,0.7,0.6,1.1
			c0.1,0.1,0.2,0.2,0.3,0.3c0.1,0.1,0.1,0.3,0.2,0.4c0.2-0.2,0.4-0.5,0.5-0.7c0.4-0.5,0.9-1,1.2-1.5c0.3-0.5,0.6-0.9,1-1.4
			c0.1-0.1,0.1-0.2,0.2-0.3"/>
		<path class="st5" d="M419.3,126.3c1.3-0.5,2.2-1.3,2.9-2.4c0.1-0.4,0.3-0.7,0.4-1.1c0.1-0.3,0.1-0.7,0.2-1.1
			c0.2-1.1,0.3-2.2,0.5-3.3c0.1-1.1,0.1-2.2,0.1-3.3c0-1.2,0.1-2.3,0.2-3.5c0.1-1.2,0.2-2.4,0.3-3.5c0.1-0.8,0-1.6,0.2-2.4
			c0.3-1.6,1.1-2.9,2.1-4.1c0.8-1,2.1-1.2,3.2-0.6c1.1,0.7,1.7,2.1,1.8,3.4c0.1,1.2-0.1,3-1,3.9c-0.5,0.5-1.6,0.9-2.3,0.8
			c0.7,0,1.7,0.5,2.2,1c0.9,0.8,1.6,2.1,1.9,3.2c0.3,1,0.1,2.5-0.4,3.4c-0.4,0.6-0.9,0.6-1.5,0.9c-0.6,0.2-1.1,0.7-1.8,0.6
			c-0.4-0.1-0.8-0.3-1.2-0.6c-0.3-0.3-1.2-1.2-1.1-1.8"/>
	</g>
</g>
</svg>
