<?xml version="1.0" encoding="utf-8"?>
<!-- Generator: Adobe Illustrator 27.2.0, SVG Export Plug-In . SVG Version: 6.00 Build 0)  -->
<svg version="1.1" id="Layer_1" xmlns="http://www.w3.org/2000/svg" xmlns:xlink="http://www.w3.org/1999/xlink" x="0px" y="0px"
	 viewBox="0 0 450 175" style="enable-background:new 0 0 450 175;" xml:space="preserve">
<style type="text/css">
	.st0{fill:none;stroke:#000000;stroke-linecap:round;stroke-linejoin:round;stroke-miterlimit:10;}
	.st1{fill:#AEFDD9;stroke:#000000;stroke-linecap:round;stroke-linejoin:round;stroke-miterlimit:10;}
	.st2{fill:#FFE096;stroke:#000000;stroke-linecap:round;stroke-linejoin:round;stroke-miterlimit:10;}
	.st3{fill:#FDC9DE;stroke:#000000;stroke-linecap:round;stroke-linejoin:round;stroke-miterlimit:10;}
	.st4{fill:#C3EBA8;stroke:#000000;stroke-linecap:round;stroke-linejoin:round;stroke-miterlimit:10;}
	.st5{fill:#70CEFF;stroke:#000000;stroke-linecap:round;stroke-linejoin:round;stroke-miterlimit:10;}
	.st6{fill:#B7F2ED;stroke:#000000;stroke-linecap:round;stroke-linejoin:round;stroke-miterlimit:10;}
	.st7{fill:#D7A2F6;stroke:#000000;stroke-linecap:round;stroke-linejoin:round;stroke-miterlimit:10;}
	.st8{fill:#FF87EB;stroke:#000000;stroke-linecap:round;stroke-linejoin:round;stroke-miterlimit:10;}
	.st9{fill:#F0EEEF;stroke:#000000;stroke-linecap:round;stroke-linejoin:round;stroke-miterlimit:10;}
	.st10{fill:#BCBABA;stroke:#000000;stroke-linecap:round;stroke-linejoin:round;stroke-miterlimit:10;}
	.st11{fill:#FFB5F1;stroke:#000000;stroke-linecap:round;stroke-linejoin:round;stroke-miterlimit:10;}
	.st12{fill:#FFFFFF;}
</style>
<g>
	<g>
		<path class="st0" d="M184.1,86.5c5.3,0.2,10.5,0.4,15.7,0.4c3.8,0,7.5-0.3,11.3-0.4c6.2-0.2,12.4-0.4,18.7-0.4
			c5.7,0,11.4-0.1,17.1,0.2c5.2,0.3,10.4,0.7,15.6,0.7c6,0,12,0.3,18,0.3c0.6,0,1.3,0,1.9,0c0.5,0,1.2,0,1.6-0.1"/>
		<path class="st0" d="M269.8,49.9c-7.9,0-15.8,0-23.7,0c-3.1,0-6.1-0.1-9.2,0c-2.9,0.1-5.8,0.2-8.7,0.3c-3.1,0.1-6.2,0.3-9.3,0.4
			c-2.4,0.1-4.8,0.1-7.2,0.1c-4.1,0-8.1,0-12.2,0c-1.5,0-3-0.3-4.5-0.3c-1-0.1-2-0.1-3.1-0.2c-1.4-0.1-2.7-0.2-4-0.2
			c-0.7,0-1.3-0.1-2.1-0.1c-0.5,0-1.4-0.1-1.8,0.1"/>
		<path class="st0" d="M273.8,68.1c-5.7,0-11.4,0.2-17.2,0.3c-4,0.1-8,0.4-12,0.4c-3.9,0-7.8,0.1-11.6,0c-4.2-0.1-8.4-0.1-12.6,0.1
			c-3.8,0.2-7.6,0-11.4,0c-3.4,0-6.9-0.2-10.3,0.2c-2.4,0.2-4.7,0.2-7.1,0.2c-1.1,0-2.1-0.1-3.2-0.2c-1.4-0.1-2.9-0.2-4.3-0.2"/>
		<path class="st0" d="M269.8,125.1c-7.9,0-15.8,0-23.7,0c-3.1,0-6.1,0.1-9.2,0c-2.9-0.1-5.8-0.2-8.7-0.3c-3.1-0.1-6.2-0.3-9.3-0.4
			c-2.4-0.1-4.8-0.1-7.2-0.1c-4.1,0-8.1,0-12.2,0c-1.5,0-3,0.3-4.5,0.3c-1,0.1-2,0.1-3.1,0.2c-1.4,0.1-2.7,0.2-4,0.2
			c-0.7,0-1.3,0.1-2.1,0.1c-0.5,0-1.4,0.1-1.8-0.1"/>
		<path class="st0" d="M273.8,106.9c-5.7,0-11.4-0.2-17.2-0.3c-4-0.1-8-0.4-12-0.4c-3.9,0-7.8-0.1-11.6,0c-4.2,0.1-8.4,0.1-12.6-0.1
			c-3.8-0.2-7.6,0-11.4,0c-3.4,0-6.9,0.2-10.3-0.2c-2.4-0.2-4.7-0.2-7.1-0.2c-1.1,0-2.1,0.1-3.2,0.2c-1.4,0.1-2.9,0.2-4.3,0.2"/>
		<path class="st1" d="M285,60.2c-2.3-0.1-4.6-0.1-6.9-0.1c-0.6,0-1.2,0-1.8,0c-0.5,0-1-0.2-1.6-0.2c-1.2-0.1-2.4-0.2-3.7-0.2
			c-0.5,0-0.9,0-1.4,0c-0.2,0-0.5-0.2-0.7-0.1c-0.2,1.5-0.2,3-0.2,4.6c0,2-0.1,4.1-0.1,6.1c0,2.2,0,4.4,0.2,6.5c1,0.2,2-0.1,3-0.1
			c0.9,0,1.8-0.1,2.7-0.1c1.1,0,2.2,0,3.3,0c1.9,0,3.7,0.1,5.6,0.1c0.7,0,1.5,0.1,2.2,0c0.1-0.9,0-1.9,0-2.7c0-0.8-0.1-1.6-0.1-2.4
			c-0.1-2.2,0-4.4,0-6.5C285.5,63.4,285.5,61.8,285,60.2z"/>
		<path class="st2" d="M167.5,80.6c2.2-0.1,4.3-0.2,6.5-0.5c0.9-0.1,1.8-0.3,2.7-0.3c1.8,0,3.6,0,5.4,0c1,0,2.1,0,3.1,0
			c0.5,0,0.9,0,1.4,0c0.2,1.3-0.1,2.7-0.1,4.1c0,2.1-0.1,4.3,0.1,6.4c0.1,1.5,0,3.1,0,4.7c0,1.6,0,3.3,0,4.9c0,1.7,0,3.4,0.1,5.1
			c0.1,1.7,0.1,3.3,0.2,5c0.2,3.5,0.1,6.9,0.1,10.4c0,2.8,0,5.6,0,8.4c0,1,0,2.1,0,3.1c0,0.4,0.2,1.4,0,1.6c-0.1,0.2-0.7,0.3-1,0.3
			c-0.7,0.1-1.4,0-2,0c-1.8,0-3.6,0-5.4,0c-2.1,0-4.2,0-6.3,0c-0.7,0-1.5,0-2.2,0.1c-0.4,0.1-1.1,0-1.5,0.2
			c-0.2-0.4-0.2-0.9-0.2-1.3c-0.1-0.7-0.3-1.4-0.4-2.1c-0.3-1.9-0.2-3.8-0.2-5.6c0-2,0-4.1,0-6.1c0-1.1,0.1-2.2,0.2-3.4
			c0-1.4,0.2-2.8,0.4-4.2c0.2-1.2,0.2-2.5,0.2-3.8c0-1.2,0-2.4,0-3.6c0-1,0-2.1,0-3.1c0-1.1-0.4-2.1-0.4-3.2c0-2.3,0.1-4.6-0.1-6.8
			c-0.1-0.9-0.1-1.8-0.1-2.7c0-0.8-0.1-1.6-0.2-2.5c0-1.1-0.2-2.2-0.2-3.2C167.4,81.7,167.4,81,167.5,80.6z"/>
		<path class="st3" d="M284.8,41.2c-0.9-0.3-1.8-0.5-2.8-0.5c-0.5,0-0.9,0-1.4,0c-0.5,0-1,0-1.4,0c-1,0-1.9,0-2.9,0
			c-1.3,0-2.6,0-3.9-0.1c-0.9-0.1-1.8-0.1-2.7-0.1c-0.6,0-1.2,0.1-1.7,0c-0.1,0.2-0.1,0.7-0.1,0.9c0,0.6,0,1.3,0,1.9
			c0,1.4,0,2.7,0,4.1c0,1,0,2.1,0,3.1c0,0.8,0.1,1.6,0.2,2.4c0,1.1,0,2.1,0.1,3.2c0,0.4,0,1.1,0.3,1.3c0.1,0.1,0.4,0.1,0.5,0.1
			c0.5,0,1,0,1.5,0c1.2,0,2.3-0.1,3.5-0.2c1.6-0.1,3.2-0.1,4.8-0.1c1.4,0,2.8,0,4.2,0c0.6,0,1.4,0.2,2,0c0.1-0.7,0-1.4,0-2.1
			c0-1.1,0-2.1,0-3.2c0-1.9,0-3.8,0-5.6C284.9,44.3,284.9,42.5,284.8,41.2z"/>
		<path class="st4" d="M285.6,79.1c-1.9-0.2-3.7-0.4-5.6-0.4c-0.9,0-1.7,0-2.6,0c-1.4,0-2.7,0.2-4.1,0.2c-1.1,0-2.2,0-3.3,0
			c-0.4,0-0.9-0.1-1.3,0c-0.2,1,0,2.1,0,3.1c0,1.4,0,2.8,0,4.1c0,1.8,0,3.6,0,5.4c0,1.5,0.3,3.1,0.4,4.6c0.8,0.1,1.7,0,2.4-0.1
			c0.9-0.1,1.9-0.1,2.9-0.1c1.9,0,3.9,0.1,5.9,0c1-0.1,2.1-0.2,3.1-0.2c0.6,0,2.1,0.2,2.5-0.2c0.4-0.5,0-2.2,0-2.8
			c0-1,0.1-2,0.2-2.9c0.2-1.8-0.2-3.6-0.2-5.4c0-1.2,0-2.4,0-3.6C285.9,80.1,286,79.2,285.6,79.1z"/>
		<path class="st1" d="M285,114.8c-2.3,0.1-4.6,0.1-6.9,0.1c-0.6,0-1.2,0-1.8,0c-0.5,0-1,0.2-1.6,0.2c-1.2,0.1-2.4,0.2-3.7,0.2
			c-0.5,0-0.9,0-1.4,0c-0.2,0-0.5,0.2-0.7,0.1c-0.2-1.5-0.2-3-0.2-4.6c0-2-0.1-4.1-0.1-6.1c0-2.2,0-4.4,0.2-6.5c1-0.2,2,0.1,3,0.1
			c0.9,0,1.8,0.1,2.7,0.1c1.1,0,2.2,0,3.3,0c1.9,0,3.7-0.1,5.6-0.1c0.7,0,1.5-0.1,2.2,0c0.1,0.9,0,1.9,0,2.7c0,0.8-0.1,1.6-0.1,2.4
			c-0.1,2.2,0,4.4,0,6.5C285.5,111.6,285.5,113.2,285,114.8z"/>
		<path class="st3" d="M284.8,133.8c-0.9,0.3-1.8,0.5-2.8,0.5c-0.5,0-0.9,0-1.4,0c-0.5,0-1,0-1.4,0c-1,0-1.9,0-2.9,0
			c-1.3,0-2.6,0-3.9,0.1c-0.9,0.1-1.8,0.1-2.7,0.1c-0.6,0-1.2-0.1-1.7,0c-0.1-0.2-0.1-0.7-0.1-0.9c0-0.6,0-1.3,0-1.9
			c0-1.4,0-2.7,0-4.1c0-1,0-2.1,0-3.1c0-0.8,0.1-1.6,0.2-2.4c0-1.1,0-2.1,0.1-3.2c0-0.4,0-1.1,0.3-1.3c0.1-0.1,0.4-0.1,0.5-0.1
			c0.5,0,1,0,1.5,0c1.2,0,2.3,0.1,3.5,0.2c1.6,0.1,3.2,0.1,4.8,0.1c1.4,0,2.8,0,4.2,0c0.6,0,1.4-0.2,2,0c0.1,0.7,0,1.4,0,2.1
			c0,1.1,0,2.1,0,3.2c0,1.9,0,3.8,0,5.6C284.9,130.7,284.9,132.5,284.8,133.8z"/>
		<path class="st5" d="M237,78.5C237,78.5,237,78.4,237,78.5c-1-1.3-3.8-0.6-5.1-0.6c-4.5,0-9.1,0.1-13.6,0.1
			c-0.8,3.6-0.1,7.3-0.1,10.9c0,4,0.2,7.9,0.2,11.9c0,1-0.1,2,0,3c0.1,1,0.3,1.9,0.3,2.9c0,1.6,0,3.2,0,4.9c0,1.2-0.1,2.4,0,3.5
			c0.3,0,0.6,0.1,1,0.1c0.5,0,0.9,0,1.4,0c0.8,0,1.6-0.3,2.4-0.3c2.4-0.1,4.8,0,7.2,0c1.6,0,3.1-0.2,4.7-0.2c0.7,0,1.4,0.1,2,0
			c0.1-1.1,0-2.4,0-3.5c0-1.3-0.1-2.5-0.2-3.8c-0.2-1.7,0-3.6,0-5.3c0-2,0-4-0.1-6c-0.1-1.1,0-2.2,0-3.3c0-1.1-0.1-2.3,0-3.4
			c0.1-1.2,0.4-2.4,0.4-3.6c0-0.7,0-1.5,0-2.2C237.3,82.3,237.8,79.6,237,78.5z"/>
		<path class="st6" d="M212,59.2c-0.4-0.2-2,0-2.4,0c-1.9,0-3.7,0-5.6,0c-3.7,0-7.5,0-11.2-0.1c0,3.6,0.2,7.1,0.2,10.7
			c0,4,0.2,7.9,0.2,11.9c0,1-0.1,2,0,3c0.1,1,0.3,1.9,0.3,2.9c0,1.6,0,3.2,0,4.9c0,0.7-0.1,1.4-0.1,2.1c0,1,0,1,0.9,1.1
			c1.5,0.2,3.3-0.1,4.9-0.1c4.3,0,8.7,0.4,12.9,0c0.1-1.1,0-2.4,0-3.5c0-1.3-0.1-2.5-0.2-3.8c-0.2-1.7,0-3.6,0-5.3c0-2,0-4-0.1-6
			c-0.1-1.1,0-2.2,0-3.3c0-1.1-0.1-2.3,0-3.4c0.1-1.2,0.4-2.4,0.4-3.6c0-0.7,0-1.5,0-2.2c0-1.2-0.1-2.4-0.1-3.5
			C212,60.4,212.3,59.5,212,59.2C212,59.2,212,59.2,212,59.2z"/>
		<path class="st7" d="M262.5,76.7c-2.2,0.1-4.3,0.1-6.4,0.7c-0.9,0.3-1.8,0.4-2.8,0.4c-1.6,0.1-3.3,0.1-4.9,0.2
			c-1.6,0.1-3.4-0.3-4.9,0.1c-0.4-1.7-0.3-3.1-0.2-4.7c0.1-2.2-0.1-4.4-0.2-6.5c-0.1-4-0.1-7.9-0.3-11.9c0-1-0.1-2-0.1-3
			c0.1-1,0.2-1.9,0.2-2.9c-0.1-1.6-0.1-3.2-0.2-4.9c0-1.1-0.2-2.4-0.1-3.5c0.3,0,0.6-0.1,1-0.1c0.5,0,0.9-0.1,1.4,0
			c0.8,0,1.6,0.2,2.4,0.2c2.4,0,4.8-0.2,7.1-0.3c1.6-0.1,3.1,0,4.7,0c0.7,0,1.4-0.1,2-0.1c0.2,1.1,0.1,2.4,0.1,3.5
			c0,1.3,0,2.5-0.1,3.8c-0.1,1.7,0.1,3.6,0.2,5.3c0.1,2,0.2,4,0.1,6c0,1.1,0.1,2.2,0.1,3.3c0,1.1,0,2.3,0.2,3.4
			c0.2,1.2,0.4,2.3,0.5,3.6c0,0.7,0.1,1.5,0.1,2.2c0,1.2,0,2.4,0,3.5C262.6,75.4,262.8,76.7,262.5,76.7z"/>
		<path class="st8" d="M186.8,76.7c-0.4,0.2-2.3-0.1-2.7-0.1c-2.5,0-4.9,0-7.4,0c-2.6,0-5.1,0.1-7.7,0c-1.5-0.1-2,0.1-1.9-1.4
			c0-1.1,0.1-2.2,0.4-3.3c0.4-1.6,0-3.4-0.1-5.1c-0.1-4-0.1-7.9-0.3-11.9c0-1-0.1-2-0.1-3c0.1-1,0.2-1.9,0.2-2.9
			c-0.1-1.6-0.1-3.2-0.2-4.9c0-1.1-0.2-2.4-0.1-3.5c0.3,0,0.6-0.1,1-0.1c0.5,0,0.9-0.1,1.4,0c0.8,0,1.6,0.2,2.4,0.2
			c2.4,0,4.8-0.2,7.1-0.3c1.6-0.1,3.1,0,4.7,0c0.7,0,1.4-0.1,2-0.1c0.2,1.1,0.1,2.4,0.1,3.5c0,1.3,0,2.5-0.1,3.8
			c-0.1,1.7,0.1,3.6,0.2,5.3c0.1,2,0.2,4,0.1,6c0,1.1,0.1,2.2,0.1,3.3c0,1.1,0,2.3,0.2,3.4c0.2,1.2,0.4,2.3,0.5,3.6
			c0,0.7,0.1,1.5,0.1,2.2c0,1.2,0,2.4,0,3.5C186.8,75.5,187.1,76.4,186.8,76.7C186.8,76.7,186.8,76.7,186.8,76.7z"/>
		<path class="st0" d="M179.8,54.5c-0.4,1.4-0.8,2.6-1.7,3.9c-0.6,0.9-1.3,2-2.2,2.8c-0.8,0.7-2,1.3-2.9,0.3c-0.9-1-1-2.7-0.3-3.9
			c0.4-0.7,1.2-1.5,2.1-1.1c0.5,0.2,1,0.7,1.5,1c0.4,0.3,0.6,0.7,0.9,1.1c0.6,0.8,1.2,1.7,1.4,2.6c0,0.1,0.1,0.8,0.3,0.9
			c0.1,0,0.4-0.3,0.4-0.4c0.3-0.3,0.5-0.9,0.9-1.1c0,0,0,0.1-0.1,0.1"/>
		<path class="st0" d="M172.8,118.2c0.4,0,1.2,0.1,1.5-0.3c0.2-0.2,0.2-0.8,0.2-1c0.1-1.1,0-2.2,0-3.3c0-1,0-2-0.1-2.9
			c0-1-0.2-2-0.3-3c-0.1-1.7-0.1-3.5,0.1-5.2c0.1-1.2,0.2-2.7,1.2-3.6c0.6-0.5,1.4-0.6,2.1-0.4c0.4,0.1,0.8,0.3,1.1,0.6
			c0.4,0.3,0.5,0.9,0.6,1.4c0.1,1.1-0.1,2.1-0.6,3.1c-0.1,0.3-0.7,1.4-1.1,1.2c0.3-0.1,0.7-0.1,1-0.1c0.6,0,1.2,0.1,1.6,0.5
			c1.3,1,0.9,3.2,0.3,4.4c-0.2,0.4-0.4,1-0.8,1.2c-0.3,0.2-0.9,0.2-1.2,0.2c-0.9,0-1.3-0.4-1.8-1.1"/>
		<path class="st0" d="M271.8,53.2c0.2-1.1,0.3-1.9,0.9-2.8c0.2-0.2,0.4-0.5,0.6-0.7c0.5-0.5,1-0.9,1.7-1.2c0.6-0.3,1.2-0.5,1.9-0.5
			c0.7,0,1.4,0.3,2.1,0.5c0.6,0.3,1.2,0.6,1.8,1c0.4,0.3,0.6,0.6,0.9,1.1c0.3,0.5,0.5,0.9,0.5,1.5"/>
		<path class="st0" d="M281.4,45.6c-0.6,0.6-1.3,1.2-1.7,2c-0.3,0.6-0.7,1.1-1.2,1.6c-0.5,0.6-1.2,1.1-1.5,1.8
			c-0.1,0.3-0.2,0.5-0.4,0.8c-0.1,0.1-0.1,0.4-0.3,0.4c0-0.1,0-0.1,0-0.2c0.3,0,0.4,0,0.5,0.2c0.1,0.1,0.2,0.4,0.1,0.6
			c-0.1,0.1-0.7,0.1-0.9,0.1c-0.2-0.1-0.5-0.3-0.6-0.5c-0.3-0.7,1-0.6,1.3-0.5c0.1,0.1,0.7,0.3,0.5,0.5c-0.1,0.1-0.5,0.1-0.6,0.1"/>
		<path class="st0" d="M271.8,53.2c0.2-1.1,0.3-1.9,0.9-2.8c0.2-0.2,0.4-0.5,0.6-0.7c0.5-0.5,1-0.9,1.7-1.2c0.6-0.3,1.2-0.5,1.9-0.5
			c0.7,0,1.4,0.3,2.1,0.5c0.6,0.3,1.2,0.6,1.8,1c0.4,0.3,0.6,0.6,0.9,1.1c0.3,0.5,0.5,0.9,0.5,1.5"/>
		<path class="st0" d="M281.4,45.6c-0.6,0.6-1.3,1.2-1.7,2c-0.3,0.6-0.7,1.1-1.2,1.6c-0.5,0.6-1.2,1.1-1.5,1.8
			c-0.1,0.3-0.2,0.5-0.4,0.8c-0.1,0.1-0.1,0.4-0.3,0.4c0-0.1,0-0.1,0-0.2c0.3,0,0.4,0,0.5,0.2c0.1,0.1,0.2,0.4,0.1,0.6
			c-0.1,0.1-0.7,0.1-0.9,0.1c-0.2-0.1-0.5-0.3-0.6-0.5c-0.3-0.7,1-0.6,1.3-0.5c0.1,0.1,0.7,0.3,0.5,0.5c-0.1,0.1-0.5,0.1-0.6,0.1"/>
		<path class="st0" d="M272.6,72c0.1-0.7,0.3-1.3,0.5-1.9c0.1-0.2,0.3-0.4,0.4-0.6c0.2-0.3,0.3-0.6,0.5-0.8c0.4-0.4,1-0.7,1.5-1
			c0.5-0.3,1.1-0.4,1.7-0.3c0.6,0,1.3,0,1.9,0.3c0.5,0.2,0.8,0.6,1.2,0.9c0.5,0.4,1,0.8,1.4,1.4c0.3,0.5,0.4,1.1,0.7,1.6"/>
		<path class="st0" d="M282.8,65.4c-0.6,0.5-1.3,1.1-2,1.6c-0.5,0.4-1,0.8-1.4,1.3c-0.4,0.4-0.8,0.8-1.2,1.2
			c-0.3,0.3-0.6,0.5-0.8,0.8c-0.2,0.3-0.4,0.8-0.6,1.1c-0.3,0.4-0.4,0.2-0.6-0.3c-0.2-0.6,0.3-1.2,0.9-0.8c0.4,0.3,0.9,1.3,0.1,1.3
			c-0.3,0-1.2-0.3-0.6-0.6c0.2-0.1,0.6-0.1,0.8,0.1c0.3,0.4-0.1,0.6-0.3,0.8"/>
		<path class="st0" d="M272.8,91.8c0.6-1.6,1.1-3.2,2.6-4.3c1.2-0.8,2.6-0.9,4-0.6c1.3,0.3,1.9,1.2,2.7,2.2c0.5,0.6,0.9,1.4,1.2,2.2
			c0,0,0,0,0,0"/>
		<path class="st0" d="M282.8,84.8c-0.9,1.2-1.9,2.2-2.9,3.3c-0.6,0.6-1.2,1-1.7,1.6c-0.3,0.4-0.8,1-0.8,1.5c-0.1,0-0.2,0-0.4,0
			c-0.2-0.5,0.6-0.7,0.9-0.6c0.3,0,1.3,0.3,1.2,0.8c-0.4,0-0.8,0.2-1.2,0.3c-0.5,0.1-1.1,0-1.6,0.2c0.4-0.6,1.4-0.2,1.9-0.4
			c-0.3,0-0.5,0-0.8,0.1"/>
		<path class="st0" d="M272.6,111c0.2-0.7,0.3-1.5,0.7-2.2c0.2-0.3,0.5-0.7,0.7-1c0.3-0.4,0.7-0.9,1.3-1.1c1.1-0.4,2.4,0,3.5,0.3
			c0.5,0.1,1,0.3,1.4,0.6c0.4,0.3,0.5,0.7,0.7,1.2c0.2,0.5,0.4,1,0.7,1.4c0.1,0.2,0.3,0.4,0.3,0.6"/>
		<path class="st0" d="M282,104.1c-0.7,0.5-1.3,1-1.9,1.6c-0.3,0.4-0.6,0.8-0.8,1.1c-0.4,0.4-0.8,0.8-1.1,1.3
			c-0.4,0.5-0.7,1.2-1,1.7c-0.2,0.3-0.6,0.7-1,0.8c-0.2-0.6,1.1-0.8,1.4-0.9c0.4,0,1.4,0.1,1.1,0.7c-0.1,0.3-0.8,0.2-1.1,0.3
			c-0.4,0-0.8,0.2-1.2,0.1c-0.1-0.4,0.8-0.4,1-0.4"/>
		<path class="st0" d="M271.8,129.9c0.3-0.6,0.5-1.2,0.9-1.7c0.2-0.3,0.5-0.5,0.8-0.7c0.5-0.4,0.9-0.7,1.5-0.8
			c1.2-0.1,2.4,0.1,3.6,0.5c0.9,0.3,1.4,1,2.1,1.6c0.2,0.2,0.4,0.3,0.6,0.6c0.1,0.1,0.2,0.3,0.3,0.3"/>
		<path class="st0" d="M281,121.6c-1.8,2.1-3.3,4.3-4.5,6.8c-0.2,0.5-0.6,0.9-0.8,1.4c-0.2-0.2-0.8,0-1,0.2c0.2-0.4,2.3-0.7,2.3-0.3
			c0,0.4-1.2,0.6-1.4,0.6"/>
		<path class="st0" d="M228,88.7c-0.7,0.6-2.2,1.7-2.1,2.9c0,0.3,0.1,0.6,0.2,0.8c0.2,0.8,0.9,1.3,1.4,1.9c0.3,0.3,0.7,0.6,1.1,0.9
			c0.3,0.2,0.6,0.4,0.9,0.6c0.6,0.6,1.1,1.4,1.5,2.2c0.3,0.6,0.6,1.2,0.6,1.8c0.1,0.6-0.1,1.3-0.3,1.9c-0.3,1.1-0.7,2.2-1.9,2.5
			c-0.7,0.2-1.6,0.2-2.3,0c-0.8-0.2-1.6-0.6-2.3-1.2c-1-0.8-1.6-2-1.2-3.3c0.3-1.2,1.5-2,2.5-2.6c0.4-0.3,0.8-0.5,1.2-0.8
			c0.2-0.1,0.5-0.3,0.7-0.2"/>
		<path class="st0" d="M255.4,56.3c-0.3-0.5-0.5-1-1-1.3c-0.2-0.1-0.5-0.2-0.8-0.2c-0.4,0-0.7-0.1-1.1,0c-0.7,0.3-1.4,0.8-2,1.3
			c-0.8,0.7-1.3,1.5-1.5,2.5c-0.3,1-0.2,1.9,0,2.9c0.2,0.8,0.5,1.6,1.2,2.1c0.5,0.4,1.3,0.9,2,0.9c0.9,0,1.9-0.4,2.6-0.9
			c0.3-0.2,0.5-0.3,0.7-0.6c0.1-0.1,0.3-0.3,0.4-0.5"/>
		<path class="st0" d="M253.8,60.2c-0.5-0.2-1-0.4-1.6-0.4c-0.1,0-0.3,0-0.4,0c-0.3,0-0.6,0-0.9,0c-0.5,0-1,0-1.4,0.1
			c-0.4,0.1-0.7,0.2-1.1,0.2"/>
		<path class="st0" d="M197.2,72.6c0.3-0.7,0.4-0.9,1-1.1c0.3-0.1,0.6-0.2,0.9-0.2c0.7,0,1.3,0.4,1.9,0.8c0.7,0.5,1.3,1,1.9,1.6
			c0.3,0.3,0.5,0.6,0.7,1c0.2,0.4,0.3,1,0.4,1.5c0.4,1.5,0.8,3.3,0.4,4.9c-0.1,0.7-0.3,1.3-0.5,1.9c-0.1,0.2-0.1,0.5-0.3,0.5
			c-0.3,0-0.5-0.9-0.5-1.1c-0.1-0.7-0.2-1.5-0.2-2.3c0-1.2,0-2.4,0.1-3.5c0.2-2.4,1.7-4.1,3.8-6.3"/>
	</g>
	<g>
		<path class="st9" d="M85.2,67.9c-0.1-0.9-0.2-1.8-0.3-2.7c-0.1-0.6-0.2-1.3-0.3-2c-0.1-0.4-0.2-0.7-0.2-1.1
			c-0.7,0.2-1.4,0.6-2,0.8c-0.6,0.2-1.3,0.3-1.9,0.4c-0.9,0.2-1.6,0.6-2.4,0.9c-0.7,0.3-1.5,0.5-2.2,0.9c-0.7,0.4-1.5,0.7-2.1,1.2
			c-0.5,0.3-0.9,0.7-1.4,0.9c-0.5,0.3-0.9,0.6-1.2,0.9c-0.2-0.1-0.4-0.2-0.6-0.2c-0.5-0.2-1-0.5-1.6-0.6c-0.6-0.2-1.2-0.3-1.9-0.5
			c-1.3-0.3-2.6-0.3-3.9-0.4c-1.2-0.1-2.4-0.3-3.6-0.3c-0.5,0-1-0.1-1.5-0.1c-0.5,0-1,0-1.5,0c-1.6-0.1-3.3-0.5-2.1-0.2
			c-1.7-0.2-3.6-0.3-5.3-0.1c-1.4,0.2-2.9,0.4-4.3,0.8c-1.5,0.4-3,1.1-4.4,1.8c-0.7,0.3-1.5,0.6-2.1,1.1c-0.8,0.6-1.6,1.2-2.4,1.7
			c-0.4,0.3-0.8,0.5-1.2,0.9c-0.4,0.4-0.7,0.8-1.1,1.1c-0.4,0.4-0.8,0.7-1.2,1.1c-0.3,0.4-0.6,0.8-0.9,1.1c-0.7,0.7-1.2,1.4-1.6,2.2
			c-0.5,0.8-1.1,1.5-1.6,2.3c-0.3,0.6-0.6,1.2-0.8,1.9c-0.3,0.7-0.7,1.3-0.9,2c-0.5,1.3-1,2.7-1,4.2c0,0.7,0,1.4,0,2.2
			c0.1,0.9,0.2,1.7,0.3,2.5c0.1,1,0.2,2,0.5,2.9c0.3,0.9,0.6,1.8,1,2.7c0.3,0.8,0.6,1.6,1,2.3c0.5,0.8,1,1.6,1.5,2.4
			c0.9,1.3,1.9,2.5,3,3.6c0.5,0.5,1.2,0.9,1.8,1.3c0.6,0.4,1.3,0.7,1.9,1.1c0.5,0.3,0.9,0.5,1.4,0.7c0.5,0.2,1,0.3,1.5,0.5
			c0.7,0.2,1.4,0.3,2.1,0.5c0.8,0.2,1.6,0.4,2.5,0.7c1.5,0.5,3.1,0.7,4.7,0.8c0.7,0.1,1.4,0.1,2.1,0.1c0.8,0.1,1.6,0.2,2.4,0.2
			c0.8,0,1.6,0.1,2.5,0.1c0.9,0,1.9,0.1,2.8,0c2.4-0.2,4.7-0.8,7-1.4c0.5-0.1,1-0.4,1.5-0.6c0.8-0.3,1.6-0.8,2.3-1.2
			c0.8-0.4,1.4-1,2.1-1.5c0.5-0.4,1-0.7,1.4-1.2c0.4-0.5,0.8-0.9,1.3-1.3c0.4-0.4,0.8-0.9,1.1-1.4c0.4-0.5,0.8-0.9,1.1-1.3
			c0.4-0.6,0.8-1.3,1.3-1.9c0.2-0.3,0.4-0.6,0.6-0.9c0.2-0.3,0.3-0.6,0.5-0.9c0.4-0.7,0.8-1.4,1.1-2.2c0.3-0.6,0.6-1.3,0.8-1.9
			c0.2-0.6,0.3-1.1,0.4-1.7c0.3-1,0.4-2,0.7-3c0.2-1,0.2-2,0.3-3.1c0.2-2.1,0.1-4.1-0.4-6.1c0-0.1,0-0.2-0.1-0.3
			c0.3-0.4,0.7-0.8,1-1.2c0.7-0.9,1.1-2,1.5-3c0.3-0.9,0.6-1.9,0.8-2.8c0.3-1.1,0.5-2.2,0.6-3.3C85.5,69.8,85.3,68.8,85.2,67.9z"/>
		<path class="st10" d="M55.4,65.5c-2.9,0.1-3.8,0.1-6.7,0.4c-0.4,0-4,0.3-7.4,2.2c-0.6,0.4-1.3,0.7-2,1c-0.3,0.2-0.6,0.3-0.9,0.5
			c-0.3-0.2-0.7-0.5-1-0.8c-0.5-0.5-1-1-1.7-1.4c-0.5-0.3-1-0.6-1.4-0.9c-0.6-0.5-1.4-0.8-2.1-1.2c-0.7-0.4-1.4-0.6-2.2-0.9
			c-0.8-0.3-1.6-0.7-2.4-0.9c-0.6-0.2-1.3-0.2-1.9-0.4c-0.7-0.3-1.3-0.6-2-0.8c0,0.4-0.2,0.7-0.2,1.1c-0.1,0.6-0.2,1.3-0.3,2
			c-0.1,0.9-0.2,1.8-0.3,2.7c-0.1,0.9-0.3,1.9-0.2,2.9c0.1,1.1,0.3,2.2,0.6,3.3c0.3,0.9,0.5,1.9,0.8,2.8c0.4,1,0.8,2.1,1.5,3
			c0.5,0.6,0.9,1.2,1.5,1.8c-0.1,0.2-0.2,0.4-0.3,0.6c-0.4,1-0.7,2.1-1.1,3.1c-0.2,0.5-0.2,1.1-0.2,1.6c-0.1,0.7-0.2,1.4-0.1,2.1
			c0.1,1.1,0.2,2.2,0.5,3.2c0.1,0.5,0.3,0.9,0.5,1.4c0.1,0.2,0.2,0.4,0.3,0.6c0.1,0.2,0.3,0.4,0.5,0.6c0.4,0.4,0.8,1,1.2,1.4
			c0.3,0.2,0.6,0.5,0.8,0.7c0.3,0.2,0.6,0.5,0.9,0.7c0.2,0.1,0.5,0.2,0.7,0.3c0.2,0.1,0.3,0.2,0.5,0.3c0.4,0.2,0.8,0.3,1.3,0.4
			c0.8,0.2,1.6,0.4,2.4,0.4c0.3,0,0.7,0,1-0.1c0.2-0.1,0.5-0.2,0.7-0.3c0.5-0.3,1-0.6,1.4-1c0.5-0.5,0.9-0.9,1.2-1.5
			c0.3-0.5,0.6-1,1-1.5c0.5-0.5,0.9-1.1,1.4-1.5c0.6-0.4,1.2-0.9,1.9-1.2c0.8-0.4,1.6-0.7,2.5-1c0.8-0.3,1.6-0.4,2.4-0.7
			c0.8-0.3,1.7-0.6,2.3-1.2c0.8-0.7,1.3-1.6,1.8-2.5c0.4-0.8,0.8-1.7,1-2.6c0.3-1.2,0.6-2.4,0.7-3.6c0.2-1.3,0.1-2.7,0.3-4
			c0.2-1.2,0.4-2.3,0.6-3.4c0.2-1.1,0.5-2.1,0.9-3.1c0.3-0.7,0.8-1.3,1.4-1.8c0.8-0.6,3.4-1.1,4.3-1.3
			C62.3,66.1,58.1,65.4,55.4,65.5z"/>
		<path class="st3" d="M39,74.9c-0.6-0.6-1.2-1.3-1.9-1.7c-0.3-0.2-0.6-0.4-0.9-0.5c-0.4-0.3-0.9-0.5-1.4-0.7
			c-1.1-0.4-2.3-0.9-3.4-1.1c-0.7-0.1-1.4-0.3-2.1-0.3c-0.5,0-0.6,0.5-0.7,1c-0.2,0.9-0.3,1.9-0.3,2.8c0,1,0.1,2,0.3,3
			c0.2,0.9,0.4,1.9,0.9,2.7c0.3,0.5,0.6,0.9,0.9,1.3c0.5-1.1,0.4-2.3,0.8-3.4c0.2-0.5,0.4-1.1,1-1.1c0.6,0,1.2,0.3,1.8,0.2
			c0.3-1.1,0.6-2.1,1.7-2.5c0.6-0.2,1.2-0.3,1.9-0.2C37.9,74.3,38.8,74.4,39,74.9z"/>
		<path class="st3" d="M69.2,74.9c0.6-0.6,1.2-1.3,1.9-1.7c0.3-0.2,0.6-0.4,0.9-0.5c0.4-0.3,0.9-0.5,1.4-0.7
			c1.1-0.4,2.3-0.9,3.4-1.1c0.7-0.1,1.4-0.3,2.1-0.3c0.5,0,0.6,0.5,0.7,1c0.2,0.9,0.3,1.9,0.3,2.8c0,1-0.1,2-0.3,3
			c-0.2,0.9-0.4,1.9-0.9,2.7c-0.3,0.5-0.6,0.9-0.9,1.3c-0.5-1.1-0.4-2.3-0.8-3.4c-0.2-0.5-0.4-1.1-1-1.1c-0.6,0-1.2,0.3-1.8,0.2
			c-0.3-1.1-0.6-2.1-1.7-2.5c-0.6-0.2-1.2-0.3-1.9-0.2C70.4,74.3,69.5,74.4,69.2,74.9z"/>
		<g>
			<g>
				<path class="st2" d="M54.9,75.7C54,75.9,53,76,52.1,76.3c-0.5,0.2-1.1,0.4-1.6,0.7c-0.4,0.2-0.8,0.4-1.1,0.6
					c-0.3,0.2-0.6,0.4-0.9,0.6c-0.6,0.4-1.2,0.8-1.6,1.4c-0.4,0.4-0.8,0.8-1.1,1.2c-0.2,0.3-0.4,0.6-0.6,1c-0.2,0.3-0.4,0.6-0.5,0.9
					c-0.2,0.5-0.4,1-0.5,1.5c-0.1,0.4,0.1,0.8,0.3,1.2c0.3,0.4,0.7,0.8,1.1,1c0.8,0.3,1.5-0.2,1.9-1c0.6-1.1,1-2.3,1.5-3.4
					c0.4-0.7,1-1.1,1.6-1.6c0.6-0.5,1.2-0.7,1.9-1c0.8-0.3,1.5-0.3,2.3-0.3c0.9,0,1.7,0.3,2.5,0.7c0.4,0.2,0.8,0.4,1.1,0.7
					c0.3,0.4,0.6,0.7,0.9,1.2c0.5,0.8,0.6,1.7,0.5,2.6c-0.1,0.8-0.5,1.6-0.9,2.3c-0.4,0.8-0.8,1.5-1.4,2.2c-0.4,0.4-0.8,0.7-1.1,1.1
					c-0.4,0.5-0.9,1-1.4,1.4c-0.3,0.3-0.6,0.8-0.9,1.1c-0.4,0.4-0.8,0.7-1.1,1.1c-0.2,0.3-0.4,0.7-0.6,1c-0.2,0.4-0.4,0.7-0.6,1.1
					c-0.2,0.5-0.4,1.1-0.5,1.6c0,0.3,0,0.6,0.2,0.9c0.2,0.3,0.6,0.4,0.8,0.5c0.3,0.1,0.6,0.2,0.9,0.1c0.5-0.2,1-0.5,1.2-0.9
					c0.3-0.4,0.4-0.8,0.5-1.2c0.2-0.5,0.4-1,0.5-1.5c0.2-0.5,0.5-0.9,0.8-1.3c0.5-0.5,0.9-1,1.4-1.5c0.2-0.3,0.4-0.5,0.6-0.8
					c0.2-0.3,0.5-0.5,0.8-0.7c0.7-0.5,1.2-1.1,1.7-1.8c0.4-0.6,1-1.2,1.3-1.8c0.3-0.6,0.3-1.2,0.6-1.8c0.3-0.5,0.5-1.1,0.6-1.7
					c0.1-0.6,0-1.2-0.1-1.9c-0.1-0.7-0.4-1.4-0.8-2c-0.3-0.6-0.8-1.3-1.4-1.7c-0.6-0.4-1.3-0.8-1.9-1c-0.7-0.3-1.4-0.7-2.2-0.8
					C55.8,75.7,54.6,75.9,54.9,75.7z"/>
				<path class="st2" d="M53.2,101.4c-0.9,0-1.7,0.1-2.2,0.9c-0.2,0.4-0.3,0.8-0.3,1.3c0,0.5,0.2,0.9,0.4,1.3
					c0.1,0.2,0.2,0.3,0.3,0.4c0.1,0.1,0.3,0.3,0.5,0.3c0.2,0.1,0.4,0,0.6,0.1c0.2,0,0.4,0.1,0.7,0c0.5,0,1-0.4,1.3-0.7
					c0.5-0.6,0.7-1.4,0.5-2.1c-0.1-0.4-0.2-0.8-0.6-1c-0.1-0.1-0.3-0.2-0.5-0.2C53.3,101.4,52.8,101.3,53.2,101.4z"/>
			</g>
		</g>
	</g>
	<g>
		<g>
			<path class="st9" d="M427,113c-0.1-0.9-0.2-1.8-0.3-2.7c-0.1-0.6-0.2-1.3-0.3-2c-0.1-0.4-0.2-0.7-0.2-1.1c-0.7,0.2-1.4,0.6-2,0.8
				c-0.6,0.2-1.3,0.3-1.9,0.4c-0.9,0.2-1.6,0.6-2.4,0.9c-0.7,0.3-1.5,0.5-2.2,0.9c-0.7,0.4-1.5,0.7-2.1,1.2
				c-0.5,0.3-0.9,0.7-1.4,0.9c-0.5,0.3-0.9,0.6-1.2,0.9c-0.2-0.1-0.4-0.2-0.6-0.2c-0.5-0.2-1-0.5-1.6-0.6c-0.6-0.2-1.2-0.3-1.9-0.5
				c-1.3-0.3-2.6-0.3-3.9-0.4c-1.2-0.1-2.4-0.3-3.6-0.3c-0.5,0-1-0.1-1.5-0.1c-0.5,0-1,0-1.5,0c-1.6-0.1-3.3-0.5-2.1-0.2
				c-1.7-0.2-3.6-0.3-5.3-0.1c-1.4,0.2-2.9,0.4-4.3,0.8c-1.5,0.4-3,1.1-4.4,1.8c-0.7,0.3-1.5,0.6-2.1,1.1c-0.8,0.6-1.6,1.2-2.4,1.7
				c-0.4,0.3-0.8,0.5-1.2,0.9c-0.4,0.4-0.7,0.8-1.1,1.1c-0.4,0.4-0.8,0.7-1.2,1.1c-0.3,0.4-0.6,0.8-0.9,1.1
				c-0.7,0.7-1.2,1.4-1.6,2.2c-0.5,0.8-1.1,1.5-1.6,2.3c-0.3,0.6-0.6,1.2-0.8,1.9c-0.3,0.7-0.7,1.3-0.9,2c-0.5,1.3-1,2.7-1,4.2
				c0,0.7,0,1.4,0,2.2c0.1,0.9,0.2,1.7,0.3,2.5c0.1,1,0.2,2,0.5,2.9c0.3,0.9,0.6,1.8,1,2.7c0.3,0.8,0.6,1.6,1,2.3
				c0.5,0.8,1,1.6,1.5,2.4c0.9,1.3,1.9,2.5,3,3.6c0.5,0.5,1.2,0.9,1.8,1.3c0.6,0.4,1.3,0.7,1.9,1.1c0.5,0.3,0.9,0.5,1.4,0.7
				c0.5,0.2,1,0.3,1.5,0.5c0.7,0.2,1.4,0.3,2.1,0.5c0.8,0.2,1.6,0.4,2.5,0.7c1.5,0.5,3.1,0.7,4.7,0.8c0.7,0.1,1.4,0.1,2.1,0.1
				c0.8,0.1,1.6,0.2,2.4,0.2c0.8,0,1.6,0.1,2.5,0.1c0.9,0,1.9,0.1,2.8,0c2.4-0.2,4.7-0.8,7-1.4c0.5-0.1,1-0.4,1.5-0.6
				c0.8-0.3,1.6-0.8,2.3-1.2c0.8-0.4,1.4-1,2.1-1.5c0.5-0.4,1-0.7,1.4-1.2c0.4-0.5,0.8-0.9,1.3-1.3c0.4-0.4,0.8-0.9,1.1-1.4
				c0.4-0.5,0.8-0.9,1.1-1.3c0.4-0.6,0.8-1.3,1.3-1.9c0.2-0.3,0.4-0.6,0.6-0.9c0.2-0.3,0.3-0.6,0.5-0.9c0.4-0.7,0.8-1.4,1.1-2.2
				c0.3-0.6,0.6-1.3,0.8-1.9c0.2-0.6,0.3-1.1,0.4-1.7c0.3-1,0.4-2,0.7-3c0.2-1,0.2-2,0.3-3.1c0.2-2.1,0.1-4.1-0.4-6.1
				c0-0.1,0-0.2-0.1-0.3c0.3-0.4,0.7-0.8,1-1.2c0.7-0.9,1.1-2,1.5-3c0.3-0.9,0.6-1.9,0.8-2.8c0.3-1.1,0.5-2.2,0.6-3.3
				C427.2,115,427.1,114,427,113z"/>
			<path class="st10" d="M397.2,110.6c-2.9,0.1-3.8,0.1-6.7,0.4c-0.4,0-4,0.3-7.4,2.2c-0.6,0.4-1.3,0.7-2,1
				c-0.3,0.2-0.6,0.3-0.9,0.5c-0.3-0.2-0.7-0.5-1-0.8c-0.5-0.5-1-1-1.7-1.4c-0.5-0.3-1-0.6-1.4-0.9c-0.6-0.5-1.4-0.8-2.1-1.2
				c-0.7-0.4-1.4-0.6-2.2-0.9c-0.8-0.3-1.6-0.7-2.4-0.9c-0.6-0.2-1.3-0.2-1.9-0.4c-0.7-0.3-1.3-0.6-2-0.8c0,0.4-0.2,0.7-0.2,1.1
				c-0.1,0.6-0.2,1.3-0.3,2c-0.1,0.9-0.2,1.8-0.3,2.7c-0.1,0.9-0.3,1.9-0.2,2.9c0.1,1.1,0.3,2.2,0.6,3.3c0.3,0.9,0.5,1.9,0.8,2.8
				c0.4,1,0.8,2.1,1.5,3c0.5,0.6,0.9,1.2,1.5,1.8c-0.1,0.2-0.2,0.4-0.3,0.6c-0.4,1-0.7,2.1-1.1,3.1c-0.2,0.5-0.2,1.1-0.2,1.6
				c-0.1,0.7-0.2,1.4-0.1,2.1c0.1,1.1,0.2,2.2,0.5,3.2c0.1,0.5,0.3,0.9,0.5,1.4c0.1,0.2,0.2,0.4,0.3,0.6c0.1,0.2,0.3,0.4,0.5,0.6
				c0.4,0.4,0.8,1,1.2,1.4c0.3,0.2,0.6,0.5,0.8,0.7c0.3,0.2,0.6,0.5,0.9,0.7c0.2,0.1,0.5,0.2,0.7,0.3c0.2,0.1,0.3,0.2,0.5,0.3
				c0.4,0.2,0.8,0.3,1.3,0.4c0.8,0.2,1.6,0.4,2.4,0.4c0.3,0,0.7,0,1-0.1c0.2-0.1,0.5-0.2,0.7-0.3c0.5-0.3,1-0.6,1.4-1
				c0.5-0.5,0.9-0.9,1.2-1.5c0.3-0.5,0.6-1,1-1.5c0.5-0.5,0.9-1.1,1.4-1.5c0.6-0.4,1.2-0.9,1.9-1.2c0.8-0.4,1.6-0.7,2.5-1
				c0.8-0.3,1.6-0.4,2.4-0.7c0.8-0.3,1.7-0.6,2.3-1.2c0.8-0.7,1.3-1.6,1.8-2.5c0.4-0.8,0.8-1.7,1-2.6c0.3-1.2,0.6-2.4,0.7-3.6
				c0.2-1.3,0.1-2.7,0.3-4c0.2-1.2,0.4-2.3,0.6-3.4c0.2-1.1,0.5-2.1,0.9-3.1c0.3-0.7,0.8-1.3,1.4-1.8c0.8-0.6,3.4-1.1,4.3-1.3
				C404,111.2,399.8,110.5,397.2,110.6z"/>
			<path class="st11" d="M397.5,139.8c-0.8-0.1-1.7-0.2-2.5,0c-0.2,0-0.4,0.1-0.6,0.2c-0.4,0.1-0.8,0.2-1.2,0.4
				c-0.3,0.2-0.8,0.3-0.8,0.7c0,0.8,0.4,1.1,1,1.6c0.5,0.4,1,0.7,1.5,1c0.2,0.1,0.3,0.1,0.5,0.2c0.2,0.1,0.3,0.2,0.5,0.2
				c0.3,0,0.4-0.1,0.6-0.3c0.3-0.2,0.7-0.4,1-0.6c0.5-0.2,0.9-0.6,1.3-1c0.3-0.3,0.7-0.6,0.9-1.1c0.1-0.4,0.1-0.7-0.3-0.9
				c-0.2-0.1-0.4-0.1-0.6-0.2C398.1,139.7,397.3,139.6,397.5,139.8z"/>
			<path class="st5" d="M404,133.2c-0.1-1-0.3-2.1,0.1-3.1c0.2-0.4,0.5-0.8,0.8-1.1c0.5-0.5,1.1-1.1,1.7-1.3
				c0.7-0.3,1.4-0.4,2.1-0.4c0.6,0.1,1.1,0.4,1.6,0.6c0.6,0.2,1.1,0.4,1.5,0.9c0.3,0.5,0.5,1,0.7,1.6c0.1,0.4,0.3,0.9,0.3,1.3
				c0,0.4-0.2,0.8-0.5,1.1c-0.1,0.2-0.2,0.3-0.4,0.4c-0.1,0.1-0.3,0.2-0.5,0.2c-0.2,0.1-0.5,0.1-0.8,0.1c-0.4,0-0.8,0-1.2,0
				c-1.3,0-2.5,0-3.8,0c-0.3,0-0.6,0-0.9,0C404.5,133.4,404,133.5,404,133.2z"/>
			<path class="st5" d="M387.8,133.2c0.1-1,0.3-2.1-0.1-3.1c-0.2-0.4-0.5-0.8-0.8-1.1c-0.5-0.5-1.1-1.1-1.7-1.3
				c-0.7-0.3-1.4-0.4-2.1-0.4c-0.6,0.1-1.1,0.4-1.6,0.6c-0.6,0.2-1.1,0.4-1.5,0.9c-0.3,0.5-0.5,1-0.7,1.6c-0.1,0.4-0.3,0.9-0.3,1.3
				c0,0.4,0.2,0.8,0.5,1.1c0.1,0.2,0.2,0.3,0.4,0.4c0.1,0.1,0.3,0.2,0.5,0.2c0.2,0.1,0.5,0.1,0.8,0.1c0.4,0,0.8,0,1.2,0
				c1.3,0,2.5,0,3.8,0c0.3,0,0.6,0,0.9,0C387.3,133.4,387.7,133.5,387.8,133.2z"/>
			<path class="st12" d="M385.1,128.7c-0.3,0.1-0.8,0.1-0.9,0.5c0,0.1,0,0.2-0.1,0.3c0,0.1,0,0.3,0,0.4c0,0.2,0.1,0.6,0.3,0.7
				c0.2,0.1,0.5,0.2,0.7,0.2c0.3,0,0.6-0.3,0.7-0.5c0.3-0.4,0.4-0.9,0.1-1.3c-0.1-0.2-0.2-0.4-0.5-0.4
				C385.3,128.5,385,128.5,385.1,128.7z"/>
			<path class="st12" d="M409.9,128.7c-0.3,0.1-0.8,0.1-0.9,0.5c0,0.1,0,0.2-0.1,0.3c0,0.1,0,0.3,0,0.4c0,0.2,0.1,0.6,0.3,0.7
				c0.2,0.1,0.5,0.2,0.7,0.2c0.3,0,0.6-0.3,0.7-0.5c0.3-0.4,0.4-0.9,0.1-1.3c-0.1-0.2-0.2-0.4-0.5-0.4
				C410.1,128.5,409.8,128.5,409.9,128.7z"/>
			<path class="st0" d="M389.6,148.4c0.7,0.6,1.3,0.9,2.2,1c0.4,0,0.9,0.1,1.3,0c0.8-0.1,1.3-1,1.7-1.5c0.4-0.5,0.7-1.1,0.9-1.8
				c0.1-0.3,0.2-0.6,0.3-0.9c0.1-0.1,0.1-0.3,0.1-0.4c0-0.1,0-0.2,0.1-0.5c0,0.6,0,1.2,0.1,1.8c0,0.2,0.1,0.5,0.1,0.7
				c0.1,0.5,0.3,1,0.5,1.4c0.2,0.4,0.6,0.6,1,0.9c0.3,0.2,0.7,0.3,1.1,0.4c0.8,0.2,1.8,0.1,2.5-0.4c0.3-0.2,0.5-0.4,0.7-0.7
				c0.1-0.1,0.2-0.2,0.2-0.4c0-0.1,0.2-0.3,0.1-0.4"/>
			<path class="st3" d="M380.8,120c-0.6-0.6-1.2-1.3-1.9-1.7c-0.3-0.2-0.6-0.4-0.9-0.5c-0.4-0.3-0.9-0.5-1.4-0.7
				c-1.1-0.4-2.3-0.9-3.4-1.1c-0.7-0.1-1.4-0.3-2.1-0.3c-0.5,0-0.6,0.5-0.7,1c-0.2,0.9-0.3,1.9-0.3,2.8c0,1,0.1,2,0.3,3
				c0.2,0.9,0.4,1.9,0.9,2.7c0.3,0.5,0.6,0.9,0.9,1.3c0.5-1.1,0.4-2.3,0.8-3.4c0.2-0.5,0.4-1.1,1-1.1c0.6,0,1.2,0.3,1.8,0.2
				c0.3-1.1,0.6-2.1,1.7-2.5c0.6-0.2,1.2-0.3,1.9-0.2C379.6,119.4,380.5,119.5,380.8,120z"/>
			<path class="st3" d="M411,120c0.6-0.6,1.2-1.3,1.9-1.7c0.3-0.2,0.6-0.4,0.9-0.5c0.4-0.3,0.9-0.5,1.4-0.7c1.1-0.4,2.3-0.9,3.4-1.1
				c0.7-0.1,1.4-0.3,2.1-0.3c0.5,0,0.6,0.5,0.7,1c0.2,0.9,0.3,1.9,0.3,2.8c0,1-0.1,2-0.3,3c-0.2,0.9-0.4,1.9-0.9,2.7
				c-0.3,0.5-0.6,0.9-0.9,1.3c-0.5-1.1-0.4-2.3-0.8-3.4c-0.2-0.5-0.4-1.1-1-1.1c-0.6,0-1.2,0.3-1.8,0.2c-0.3-1.1-0.6-2.1-1.7-2.5
				c-0.6-0.2-1.2-0.3-1.9-0.2C412.1,119.4,411.2,119.5,411,120z"/>
			<path class="st0" d="M383.3,131.7c-0.3-0.9-0.4-1.8-0.4-2.7c0-0.5,0-1,0.4-1.4"/>
			<path class="st0" d="M408,131.7c-0.3-0.9-0.4-1.8-0.4-2.7c0-0.5,0-1,0.4-1.4"/>
			<g>
				<g>
					<path class="st0" d="M402.1,143.2c2.6-2.4,6.1-3.4,9.5-4.4"/>
					<path class="st0" d="M403.5,145.1c1.8-0.8,3.8-1.3,5.8-1.4"/>
					<path class="st0" d="M404.4,146.6c1.1-0.2,2.4,0.1,3.3,0.8"/>
				</g>
				<g>
					<path class="st0" d="M390.9,143.2c-2.6-2.4-6.1-3.4-9.5-4.4"/>
					<path class="st0" d="M389.5,145.1c-1.8-0.8-3.8-1.3-5.8-1.4"/>
					<path class="st0" d="M388.6,146.6c-1.1-0.2-2.4,0.1-3.3,0.8"/>
				</g>
			</g>
		</g>
		<g>
			<path class="st9" d="M427,22.8c-0.1-0.9-0.2-1.8-0.3-2.7c-0.1-0.6-0.2-1.3-0.3-2c-0.1-0.4-0.2-0.7-0.2-1.1
				c-0.7,0.2-1.4,0.6-2,0.8c-0.6,0.2-1.3,0.3-1.9,0.4c-0.9,0.2-1.6,0.6-2.4,0.9c-0.7,0.3-1.5,0.5-2.2,0.9c-0.7,0.4-1.5,0.7-2.1,1.2
				c-0.5,0.3-0.9,0.7-1.4,0.9c-0.5,0.3-0.9,0.6-1.2,0.9c-0.2-0.1-0.4-0.2-0.6-0.2c-0.5-0.2-1-0.5-1.6-0.6c-0.6-0.2-1.2-0.3-1.9-0.5
				c-1.3-0.3-2.6-0.3-3.9-0.4c-1.2-0.1-2.4-0.3-3.6-0.3c-0.5,0-1-0.1-1.5-0.1c-0.5,0-1,0-1.5,0c-1.6-0.1-3.3-0.5-2.1-0.2
				c-1.7-0.2-3.6-0.3-5.3-0.1c-1.4,0.2-2.9,0.4-4.3,0.8c-1.5,0.4-3,1.1-4.4,1.8c-0.7,0.3-1.5,0.6-2.1,1.1c-0.8,0.6-1.6,1.2-2.4,1.7
				c-0.4,0.3-0.8,0.5-1.2,0.9c-0.4,0.4-0.7,0.8-1.1,1.1c-0.4,0.4-0.8,0.7-1.2,1.1c-0.3,0.4-0.6,0.8-0.9,1.1
				c-0.7,0.7-1.2,1.4-1.6,2.2c-0.5,0.8-1.1,1.5-1.6,2.3c-0.3,0.6-0.6,1.2-0.8,1.9c-0.3,0.7-0.7,1.3-0.9,2c-0.5,1.3-1,2.7-1,4.2
				c0,0.7,0,1.4,0,2.2c0.1,0.9,0.2,1.7,0.3,2.5c0.1,1,0.2,2,0.5,2.9c0.3,0.9,0.6,1.8,1,2.7c0.3,0.8,0.6,1.6,1,2.3
				c0.5,0.8,1,1.6,1.5,2.4c0.9,1.3,1.9,2.5,3,3.6c0.5,0.5,1.2,0.9,1.8,1.3c0.6,0.4,1.3,0.7,1.9,1.1c0.5,0.3,0.9,0.5,1.4,0.7
				c0.5,0.2,1,0.3,1.5,0.5c0.7,0.2,1.4,0.3,2.1,0.5c0.8,0.2,1.6,0.4,2.5,0.7c1.5,0.5,3.1,0.7,4.7,0.8c0.7,0.1,1.4,0.1,2.1,0.1
				c0.8,0.1,1.6,0.2,2.4,0.2c0.8,0,1.6,0.1,2.5,0.1c0.9,0,1.9,0.1,2.8,0c2.4-0.2,4.7-0.8,7-1.4c0.5-0.1,1-0.4,1.5-0.6
				c0.8-0.3,1.6-0.8,2.3-1.2c0.8-0.4,1.4-1,2.1-1.5c0.5-0.4,1-0.7,1.4-1.2c0.4-0.5,0.8-0.9,1.3-1.3c0.4-0.4,0.8-0.9,1.1-1.4
				c0.4-0.5,0.8-0.9,1.1-1.3c0.4-0.6,0.8-1.3,1.3-1.9c0.2-0.3,0.4-0.6,0.6-0.9c0.2-0.3,0.3-0.6,0.5-0.9c0.4-0.7,0.8-1.4,1.1-2.2
				c0.3-0.6,0.6-1.3,0.8-1.9c0.2-0.6,0.3-1.1,0.4-1.7c0.3-1,0.4-2,0.7-3c0.2-1,0.2-2,0.3-3.1c0.2-2.1,0.1-4.1-0.4-6.1
				c0-0.1,0-0.2-0.1-0.3c0.3-0.4,0.7-0.8,1-1.2c0.7-0.9,1.1-2,1.5-3c0.3-0.9,0.6-1.9,0.8-2.8c0.3-1.1,0.5-2.2,0.6-3.3
				C427.2,24.7,427.1,23.7,427,22.8z"/>
			<path class="st10" d="M397.2,20.3c-2.9,0.1-3.8,0.1-6.7,0.4c-0.4,0-4,0.3-7.4,2.2c-0.6,0.4-1.3,0.7-2,1c-0.3,0.2-0.6,0.3-0.9,0.5
				c-0.3-0.2-0.7-0.5-1-0.8c-0.5-0.5-1-1-1.7-1.4c-0.5-0.3-1-0.6-1.4-0.9c-0.6-0.5-1.4-0.8-2.1-1.2c-0.7-0.4-1.4-0.6-2.2-0.9
				c-0.8-0.3-1.6-0.7-2.4-0.9c-0.6-0.2-1.3-0.2-1.9-0.4c-0.7-0.3-1.3-0.6-2-0.8c0,0.4-0.2,0.7-0.2,1.1c-0.1,0.6-0.2,1.3-0.3,2
				c-0.1,0.9-0.2,1.8-0.3,2.7c-0.1,0.9-0.3,1.9-0.2,2.9c0.1,1.1,0.3,2.2,0.6,3.3c0.3,0.9,0.5,1.9,0.8,2.8c0.4,1,0.8,2.1,1.5,3
				c0.5,0.6,0.9,1.2,1.5,1.8c-0.1,0.2-0.2,0.4-0.3,0.6c-0.4,1-0.7,2.1-1.1,3.1c-0.2,0.5-0.2,1.1-0.2,1.6c-0.1,0.7-0.2,1.4-0.1,2.1
				c0.1,1.1,0.2,2.2,0.5,3.2c0.1,0.5,0.3,0.9,0.5,1.4c0.1,0.2,0.2,0.4,0.3,0.6c0.1,0.2,0.3,0.4,0.5,0.6c0.4,0.4,0.8,1,1.2,1.4
				c0.3,0.2,0.6,0.5,0.8,0.7c0.3,0.2,0.6,0.5,0.9,0.7c0.2,0.1,0.5,0.2,0.7,0.3c0.2,0.1,0.3,0.2,0.5,0.3c0.4,0.2,0.8,0.3,1.3,0.4
				c0.8,0.2,1.6,0.4,2.4,0.4c0.3,0,0.7,0,1-0.1c0.2-0.1,0.5-0.2,0.7-0.3c0.5-0.3,1-0.6,1.4-1c0.5-0.5,0.9-0.9,1.2-1.5
				c0.3-0.5,0.6-1,1-1.5c0.5-0.5,0.9-1.1,1.4-1.5c0.6-0.4,1.2-0.9,1.9-1.2c0.8-0.4,1.6-0.7,2.5-1c0.8-0.3,1.6-0.4,2.4-0.7
				c0.8-0.3,1.7-0.6,2.3-1.2c0.8-0.7,1.3-1.6,1.8-2.5c0.4-0.8,0.8-1.7,1-2.6c0.3-1.2,0.6-2.4,0.7-3.6c0.2-1.3,0.1-2.7,0.3-4
				c0.2-1.2,0.4-2.3,0.6-3.4c0.2-1.1,0.5-2.1,0.9-3.1c0.3-0.7,0.8-1.3,1.4-1.8c0.8-0.6,3.4-1.1,4.3-1.3
				C404,20.9,399.8,20.2,397.2,20.3z"/>
			<path class="st11" d="M397.5,49.5c-0.8-0.1-1.7-0.2-2.5,0c-0.2,0-0.4,0.1-0.6,0.2c-0.4,0.1-0.8,0.2-1.2,0.4
				c-0.3,0.2-0.8,0.3-0.8,0.7c0,0.8,0.4,1.1,1,1.6c0.5,0.4,1,0.7,1.5,1c0.2,0.1,0.3,0.1,0.5,0.2c0.2,0.1,0.3,0.2,0.5,0.2
				c0.3,0,0.4-0.1,0.6-0.3c0.3-0.2,0.7-0.4,1-0.6c0.5-0.2,0.9-0.6,1.3-1c0.3-0.3,0.7-0.6,0.9-1.1c0.1-0.4,0.1-0.7-0.3-0.9
				c-0.2-0.1-0.4-0.1-0.6-0.2C398.1,49.4,397.3,49.3,397.5,49.5z"/>
			<g>
				<path class="st0" d="M412.8,35.4c-0.4,0.5-0.7,0.9-1.2,1.3c-0.2,0.2-0.5,0.5-0.7,0.7c-0.6,0.6-1.2,1.1-1.8,1.7
					c-0.5,0.5-1,1-1.5,1.5c-0.3,0.3-0.5,0.5-0.8,0.7c-0.2,0.2-0.4,0.4-0.6,0.7c-0.5,0.4-0.8,0.9-1.3,1.4c-0.4,0.4-0.7,0.8-1.1,1.1
					c-0.4,0.3-0.7,0.7-1,1.1c-0.1,0.1-0.2,0.2-0.4,0.3"/>
				<path class="st0" d="M402.4,35.7c0.3,0.3,0.7,0.6,1.1,0.9c0.1,0.1,0.3,0.3,0.4,0.5c0.1,0.1,0.3,0.3,0.4,0.4
					c0.2,0.2,0.4,0.4,0.5,0.6c0.3,0.3,0.6,0.6,0.9,0.9c0.3,0.3,0.6,0.5,0.9,0.7c0.2,0.1,0.3,0.3,0.5,0.4c0.2,0.2,0.3,0.3,0.5,0.4
					c0.3,0.3,0.6,0.5,0.9,0.8c0.3,0.3,0.6,0.6,1,0.8c0.2,0.1,0.4,0.2,0.5,0.4c0.1,0.1,0.3,0.2,0.4,0.4c0.3,0.2,0.6,0.4,0.9,0.6
					c0.2,0.2,0.4,0.3,0.6,0.5c0.2,0.1,0.4,0.2,0.6,0.4c0.1,0.1,0.2,0.2,0.3,0.3c0.2,0.2,0.4,0.4,0.6,0.6"/>
			</g>
			<g>
				<path class="st0" d="M387.9,35.4c-0.4,0.5-0.7,0.9-1.2,1.3c-0.2,0.2-0.5,0.5-0.7,0.7c-0.6,0.6-1.2,1.1-1.8,1.7
					c-0.5,0.5-1,1-1.5,1.5c-0.3,0.3-0.5,0.5-0.8,0.7c-0.2,0.2-0.4,0.4-0.6,0.7c-0.5,0.4-0.8,0.9-1.3,1.4c-0.4,0.4-0.7,0.8-1.1,1.1
					c-0.4,0.3-0.7,0.7-1,1.1c-0.1,0.1-0.2,0.2-0.4,0.3"/>
				<path class="st0" d="M377.4,35.7c0.3,0.3,0.7,0.6,1.1,0.9c0.1,0.1,0.3,0.3,0.4,0.5c0.1,0.1,0.3,0.3,0.4,0.4
					c0.2,0.2,0.4,0.4,0.5,0.6c0.3,0.3,0.6,0.6,0.9,0.9c0.3,0.3,0.6,0.5,0.9,0.7c0.2,0.1,0.3,0.3,0.5,0.4c0.2,0.2,0.3,0.3,0.5,0.4
					c0.3,0.3,0.6,0.5,0.9,0.8c0.3,0.3,0.6,0.6,1,0.8c0.2,0.1,0.4,0.2,0.5,0.4c0.1,0.1,0.3,0.2,0.4,0.4c0.3,0.2,0.6,0.4,0.9,0.6
					c0.2,0.2,0.4,0.3,0.6,0.5c0.2,0.1,0.4,0.2,0.6,0.4c0.1,0.1,0.2,0.2,0.3,0.3c0.2,0.2,0.4,0.4,0.6,0.6"/>
			</g>
			<path class="st3" d="M380.8,29.7c-0.6-0.6-1.2-1.3-1.9-1.7c-0.3-0.2-0.6-0.4-0.9-0.5c-0.4-0.3-0.9-0.5-1.4-0.7
				c-1.1-0.4-2.3-0.9-3.4-1.1c-0.7-0.1-1.4-0.3-2.1-0.3c-0.5,0-0.6,0.5-0.7,1c-0.2,0.9-0.3,1.9-0.3,2.8c0,1,0.1,2,0.3,3
				c0.2,0.9,0.4,1.9,0.9,2.7c0.3,0.5,0.6,0.9,0.9,1.3c0.5-1.1,0.4-2.3,0.8-3.4c0.2-0.5,0.4-1.1,1-1.1c0.6,0,1.2,0.3,1.8,0.2
				c0.3-1.1,0.6-2.1,1.7-2.5c0.6-0.2,1.2-0.3,1.9-0.2C379.6,29.1,380.5,29.2,380.8,29.7z"/>
			<g>
				<path class="st0" d="M396.3,53.6c0,0.4-0.3,0.9-0.6,1.1c-0.4,0.2-0.8,0.4-1.2,0.5c-2.4,0.8-4.4,2.9-5,5.4"/>
				<path class="st0" d="M396.2,54.1c0,0.4,0.3,0.9,0.6,1.1c0.4,0.2,0.8,0.4,1.2,0.5c2.4,0.8,4.4,2.9,5,5.4"/>
				<path class="st11" d="M397.9,59.4c0,1.2,0,2.6,0.9,3.5c0.2,0.2,0.5,0.4,0.9,0.4c0.6,0,1.1-0.4,1.4-0.9c0.7-0.8,1.2-1.7,1.5-2.7
					c0.1-0.1,0.1-0.3,0.1-0.5c0-0.1-0.1-0.2-0.2-0.3c-1.1-1.3-2.8-2.7-4.5-3c-0.2,0.4-0.1,1.2-0.1,1.6
					C397.9,58.1,397.9,58.7,397.9,59.4z"/>
			</g>
			<path class="st9" d="M399.9,60.7c-0.3-1.2,0.5-2.5,0.4-3.8"/>
			<path class="st3" d="M411,29.7c0.6-0.6,1.2-1.3,1.9-1.7c0.3-0.2,0.6-0.4,0.9-0.5c0.4-0.3,0.9-0.5,1.4-0.7
				c1.1-0.4,2.3-0.9,3.4-1.1c0.7-0.1,1.4-0.3,2.1-0.3c0.5,0,0.6,0.5,0.7,1c0.2,0.9,0.3,1.9,0.3,2.8c0,1-0.1,2-0.3,3
				c-0.2,0.9-0.4,1.9-0.9,2.7c-0.3,0.5-0.6,0.9-0.9,1.3c-0.5-1.1-0.4-2.3-0.8-3.4c-0.2-0.5-0.4-1.1-1-1.1c-0.6,0-1.2,0.3-1.8,0.2
				c-0.3-1.1-0.6-2.1-1.7-2.5c-0.6-0.2-1.2-0.3-1.9-0.2C412.1,29.1,411.2,29.2,411,29.7z"/>
			<g>
				<g>
					<path class="st0" d="M402.1,53.2c2.6-2.4,6.1-3.4,9.5-4.4"/>
					<path class="st0" d="M403.5,55.1c1.8-0.8,3.8-1.3,5.8-1.4"/>
					<path class="st0" d="M404.4,56.6c1.1-0.2,2.4,0.1,3.3,0.8"/>
				</g>
				<g>
					<path class="st0" d="M390.9,53.2c-2.6-2.4-6.1-3.4-9.5-4.4"/>
					<path class="st0" d="M389.5,55.1c-1.8-0.8-3.8-1.3-5.8-1.4"/>
					<path class="st0" d="M388.6,56.6c-1.1-0.2-2.4,0.1-3.3,0.8"/>
				</g>
			</g>
		</g>
	</g>
	<path class="st6" d="M148,85.1c-1.5-1.3-3.2-2.1-4.6-3.6c-0.7-0.7-1.3-1.4-2.1-1.9c-0.5-0.3-1.1-0.6-1.6-0.9c-1-0.5-1.9-1.2-2.7-2
		c-0.9-1-1.7-1.2-2.8-1.7c-0.4-0.2-3.5-2.2-3.5-2.6c0,1.8-0.4,3.4-0.3,5.3c0.1,1.2,0.2,2.3,0.2,3.5c-1.2,0-2.4,0.1-3.6,0.1
		c-4,0-7.9,0.1-11.9,0.1c-1,0-2,0-3,0c-1,0.1-1.9,0.2-2.9,0.2c-1.6,0-3.2,0-4.9,0c-1.2,0-2.4-0.1-3.5,0c0,0.2-0.1,0.4-0.1,0.7
		c0,0.3,0,0.6,0,0.9c0,0.5,0.3,1,0.3,1.6c0.1,1.6,0,3.1,0,4.7c0,1,0.2,2.1,0.2,3.1c0,0.4-0.1,0.9,0,1.3c1.1,0.1,2.4,0,3.5,0
		c1.3,0,2.5-0.1,3.8-0.1c1.7-0.1,3.6,0,5.3,0c2,0,4,0,6,0c1.1,0,2.2,0,3.3,0c1.1,0,2.3,0,3.4,0c1.2,0.1,2.4,0.2,3.6,0.2
		c0.2,0,0.4,0,0.5,0c0,2.9-0.1,5.8-0.1,8.8c0-0.4,2.7-2,3.1-2.2c2-1.5,3.9-2.9,5.8-4.5c1.4-1.2,3.4-1.6,4.8-2.7
		c1.5-1.2,2.7-2.5,4.3-3.6c0.9-0.7,1.9-1.4,2.8-2.1C151.1,87.8,148.3,85.3,148,85.1z"/>
	<g>
		<g>
			<path class="st6" d="M345,44.1c-1.9-0.4-3.9-0.4-5.8-1c-0.9-0.3-1.8-0.7-2.7-0.8c-0.6-0.1-1.2,0-1.8-0.1c-1.1,0-2.2-0.2-3.3-0.6
				c-1.3-0.4-2-0.3-3.3-0.2c-0.5,0-4.1-0.3-4.3-0.7c0.9,1.6,1.2,3.2,2.2,4.8c0.6,1,1.2,2,1.8,3c-1.1,0.6-2.1,1.2-3.2,1.7
				c-3.5,1.8-7,3.7-10.5,5.5c-0.9,0.4-1.8,0.9-2.6,1.4c-0.8,0.5-1.6,1-2.5,1.5c-1.4,0.7-2.9,1.5-4.3,2.2c-1,0.5-2.2,1-3.1,1.6
				c0.1,0.2,0.1,0.4,0.2,0.6c0.1,0.3,0.3,0.5,0.4,0.8c0.3,0.5,0.7,0.8,1,1.3c0.8,1.3,1.4,2.8,2.2,4.2c0.5,0.9,1.1,1.8,1.6,2.7
				c0.2,0.4,0.4,0.8,0.6,1.2c1.1-0.4,2.1-1.1,3.1-1.6c1.2-0.6,2.2-1.2,3.3-1.9c1.5-0.9,3.2-1.6,4.7-2.4c1.8-0.9,3.5-1.8,5.3-2.8
				c1-0.5,2-1,2.9-1.5c1-0.5,2-1.1,3.1-1.5c1.1-0.5,2.2-0.9,3.3-1.4c0.2-0.1,0.3-0.2,0.5-0.2c1.3,2.6,2.6,5.2,3.9,7.8
				c-0.2-0.4,1.5-3,1.7-3.4c1.1-2.2,2.1-4.4,3.1-6.7c0.7-1.7,2.3-2.9,3-4.6c0.8-1.7,1.3-3.5,2.1-5.2c0.5-1,1-2.1,1.6-3.1
				C349,45.1,345.4,44.2,345,44.1z"/>
			<path class="st6" d="M345,130.9c-1.9,0.4-3.9,0.4-5.8,1c-0.9,0.3-1.8,0.7-2.7,0.8c-0.6,0.1-1.2,0-1.8,0.1c-1.1,0-2.2,0.2-3.3,0.6
				c-1.3,0.4-2,0.3-3.3,0.2c-0.5,0-4.1,0.3-4.3,0.7c0.9-1.6,1.2-3.2,2.2-4.8c0.6-1,1.2-2,1.8-3c-1.1-0.6-2.1-1.2-3.2-1.7
				c-3.5-1.8-7-3.7-10.5-5.5c-0.9-0.4-1.8-0.9-2.6-1.4c-0.8-0.5-1.6-1-2.5-1.5c-1.4-0.7-2.9-1.5-4.3-2.2c-1-0.5-2.2-1-3.1-1.6
				c0.1-0.2,0.1-0.4,0.2-0.6c0.1-0.3,0.3-0.5,0.4-0.8c0.3-0.5,0.7-0.8,1-1.3c0.8-1.3,1.4-2.8,2.2-4.2c0.5-0.9,1.1-1.8,1.6-2.7
				c0.2-0.4,0.4-0.8,0.6-1.2c1.1,0.4,2.1,1.1,3.1,1.6c1.2,0.6,2.2,1.2,3.3,1.9c1.5,0.9,3.2,1.6,4.7,2.4c1.8,0.9,3.5,1.8,5.3,2.8
				c1,0.5,2,1,2.9,1.5c1,0.5,2,1.1,3.1,1.5c1.1,0.5,2.2,0.9,3.3,1.4c0.2,0.1,0.3,0.2,0.5,0.2c1.3-2.6,2.6-5.2,3.9-7.8
				c-0.2,0.4,1.5,3,1.7,3.4c1.1,2.2,2.1,4.4,3.1,6.7c0.7,1.7,2.3,2.9,3,4.6c0.8,1.7,1.3,3.5,2.1,5.2c0.5,1,1,2.1,1.6,3.1
				C349,129.9,345.4,130.8,345,130.9z"/>
		</g>
	</g>
</g>
</svg>
