<?xml version="1.0" encoding="utf-8"?>
<!-- Generator: Adobe Illustrator 27.2.0, SVG Export Plug-In . SVG Version: 6.00 Build 0)  -->
<svg version="1.1" id="Layer_1" xmlns="http://www.w3.org/2000/svg" xmlns:xlink="http://www.w3.org/1999/xlink" x="0px" y="0px"
	 viewBox="0 0 300 200" style="enable-background:new 0 0 300 200;" xml:space="preserve">
<style type="text/css">
	.st0{fill:none;stroke:#000000;stroke-linecap:round;stroke-linejoin:round;stroke-miterlimit:10;}
	.st1{fill:#FF87EB;stroke:#000000;stroke-linecap:round;stroke-linejoin:round;stroke-miterlimit:10;}
	.st2{fill:#C3EBA8;stroke:#000000;stroke-linecap:round;stroke-linejoin:round;stroke-miterlimit:10;}
	.st3{fill:#FFE096;stroke:#000000;stroke-linecap:round;stroke-linejoin:round;stroke-miterlimit:10;}
	.st4{fill:#BCBABA;stroke:#000000;stroke-linecap:round;stroke-linejoin:round;stroke-miterlimit:10;}
	.st5{fill:#DAD8D8;stroke:#000000;stroke-linecap:round;stroke-linejoin:round;stroke-miterlimit:10;}
	.st6{fill:#70CEFF;stroke:#000000;stroke-linecap:round;stroke-linejoin:round;stroke-miterlimit:10;}
</style>
<g>
	<g>
		<g>
			<path class="st0" d="M181.6,122.3c4.8,0.3,9.6,0.5,14.4,0.5c3.4,0,6.9-0.4,10.3-0.5c5.7-0.2,11.4-0.5,17.1-0.5
				c5.2,0,10.4-0.1,15.6,0.3c4.8,0.3,9.5,0.9,14.3,0.9c5.5,0,11,0.4,16.5,0.4c0.6,0,1.2,0,1.7,0c0.4,0,1.1,0,1.5-0.2"/>
			<path class="st0" d="M273.5,77.1c-8.8,0-17.6,0-26.4,0c-3.4,0-6.8-0.1-10.3,0c-3.2,0.1-6.5,0.3-9.7,0.3
				c-3.5,0.1-6.9,0.4-10.4,0.5c-2.7,0.1-5.3,0.1-8,0.1c-4.5,0-9.1,0-13.6,0c-1.7,0-3.3-0.3-5-0.4c-1.1-0.1-2.3-0.1-3.4-0.2
				c-1.5-0.1-3-0.2-4.5-0.3c-0.8,0-1.5-0.1-2.3-0.1c-0.6,0-1.6-0.1-2.1,0.1"/>
			<path class="st0" d="M273.5,99.7c-5.9,0-11.8,0.2-17.6,0.4c-4.1,0.1-8.2,0.5-12.4,0.5c-4,0-8,0.1-11.9,0
				c-4.3-0.2-8.6-0.1-12.9,0.1c-3.9,0.2-7.8,0-11.7,0c-3.5,0-7.1-0.2-10.6,0.2c-2.4,0.3-4.8,0.3-7.3,0.3c-1.1,0-2.2-0.2-3.2-0.3
				c-1.4-0.1-3-0.2-4.4-0.2"/>
			<path class="st1" d="M157.3,66.6c2.7-0.1,5.3-0.3,8-0.6c1.1-0.1,2.3-0.3,3.4-0.3c2.2,0,4.4,0,6.7,0c1.3,0,2.6,0,3.9,0
				c0.6,0,1.2-0.1,1.7,0c0.2,1.7-0.2,3.5-0.2,5.2c0,2.7-0.1,5.5,0.2,8.2c0.2,1.9,0,4,0,5.9c0,2.1,0,4.1,0,6.2c0,2.2,0,4.3,0.2,6.5
				c0.2,2.1,0.1,4.2,0.2,6.3c0.2,4.4,0.1,8.8,0.1,13.2c0,3.6,0,7.1,0,10.7c0,1.3,0,2.6,0,4c0,0.5,0.2,1.7-0.1,2.1
				c-0.2,0.2-0.9,0.3-1.2,0.3c-0.8,0.1-1.7,0-2.5,0c-2.2,0-4.5,0-6.7,0c-2.6,0-5.2,0-7.8,0c-0.9,0-1.9,0-2.8,0.1
				c-0.5,0.1-1.4,0.1-1.9,0.3c-0.3-0.5-0.2-1.1-0.3-1.7c-0.1-0.9-0.3-1.8-0.5-2.7c-0.3-2.4-0.2-4.8-0.2-7.2c0-2.6,0-5.2,0-7.8
				c0-1.4,0.2-2.9,0.2-4.3c0-1.8,0.2-3.6,0.5-5.3c0.2-1.6,0.2-3.2,0.2-4.8c0-1.5,0-3,0-4.6c0-1.3,0-2.7,0-4c0-1.3-0.5-2.7-0.5-4
				c0-2.9,0.1-5.8-0.1-8.7c-0.1-1.1-0.1-2.3-0.1-3.4c0-1-0.2-2.1-0.2-3.1c0-1.4-0.3-2.7-0.3-4.1C157.1,67.9,157.1,67,157.3,66.6z"/>
			<path class="st2" d="M256.6,113.3c-2.3-0.3-4.5-0.4-6.9-0.4c-1.1,0-2.1,0-3.2,0c-1.7,0-3.4,0.2-5.1,0.3c-1.4,0-2.7,0-4.1,0
				c-0.5,0-1.1-0.1-1.6,0c-0.2,1.2,0,2.7,0,3.9c0,1.7,0,3.4,0,5.1c0,2.2,0,4.4,0,6.7c0,1.9,0.3,3.8,0.5,5.7c1,0.1,2.1,0,3-0.1
				c1.2-0.1,2.4-0.2,3.5-0.2c2.4,0,4.8,0.1,7.2,0c1.9-0.1,3.9-0.3,5.8-0.3c0.6,0,1.3,0.1,1.8,0c0.2-1.1,0-2.2,0-3.3
				c0-1.3-0.1-2.6-0.2-3.9c-0.2-2.3-0.5-4.5-0.5-6.8c0-1.5,0-3,0-4.5C256.9,114.5,257.1,113.3,256.6,113.3z"/>
			<path class="st3" d="M220.8,110.3c-2.7,0.1-5.4,0.1-7.9,0.9c-1.1,0.3-2.2,0.5-3.4,0.5c-2,0.1-4,0.1-6.1,0.2
				c-2.3,0.1-4.6,0.2-6.9,0.1c-0.2-0.5,0.1-1.3,0.2-1.9c0.1-1.3,0.3-2.7,0.4-4c0.1-2.7-0.1-5.4-0.2-8c-0.2-4.9-0.2-9.8-0.3-14.7
				c0-1.2-0.2-2.4-0.1-3.6c0.1-1.2,0.3-2.3,0.2-3.6c-0.1-2-0.1-4-0.2-6c-0.1-1.4-0.3-2.9-0.1-4.3c0.4,0,0.8-0.1,1.2-0.2
				c0.6,0,1.1-0.1,1.7-0.1c1,0,2,0.3,3,0.3c2.9,0,5.9-0.2,8.8-0.3c1.9-0.1,3.9,0.1,5.8,0c0.8,0,1.7-0.1,2.5-0.1
				c0.2,1.4,0.1,2.9,0.2,4.3c0.1,1.6,0,3.1-0.1,4.7c-0.1,2.2,0.1,4.4,0.2,6.5c0.1,2.5,0.2,4.9,0.2,7.4c0,1.4,0.1,2.7,0.1,4.1
				c0.1,1.4,0,2.8,0.2,4.2c0.2,1.5,0.6,2.9,0.6,4.4c0,0.9,0.1,1.8,0.1,2.7c0.1,1.4,0,2.9,0.1,4.4
				C220.8,108.7,221.1,110.3,220.8,110.3z"/>
		</g>
		<path class="st3" d="M276.1,99.6c1.7-0.1,3.4-0.2,5.1-0.3"/>
		<path class="st3" d="M275,123c0.8-0.1,1.6,0,2.4,0.1"/>
		<path class="st3" d="M280.1,123.2c1.9-0.1,3.8,0,5.6,0.2"/>
		<path class="st3" d="M283.9,99.9c0.8-0.1,1.6-0.1,2.4,0"/>
		<path class="st3" d="M275.9,77.2c1.6,0.1,3.1,0,4.7-0.2"/>
		<path class="st3" d="M283.3,77.1c1.3,0,2.5,0,3.8,0"/>
		<path class="st3" d="M287.5,100c0.4,0,0.9,0,1.3,0"/>
		<path class="st3" d="M289.7,77.1c0.3,0,0.6,0,0.9,0"/>
		<path class="st3" d="M287.4,123.1c0.8,0,1.5,0,2.3-0.1"/>
		<path class="st0" d="M164.6,93.5c0.3-0.2,0.6-0.3,0.9-0.1c0.3,0,0.7,0.1,1,0.3c0.3,0.1,0.5,0.3,0.8,0.4c0.5,0.3,0.9,0.7,1.3,1.2
			c0.6,0.9,1.1,1.7,1.3,2.8c0.2,0.9,0.2,2,0,2.9c-0.1,0.4-0.2,0.8-0.3,1.2c-0.1,0.3-0.3,0.6-0.6,0.9c-0.4,0.5-0.7,1-1.3,1.4
			c-0.2,0.2-0.5,0.3-0.7,0.5c-0.2,0.2-0.4,0.4-0.6,0.5c-0.2,0.1-0.5,0.1-0.7,0.2c-0.4,0.1-0.9,0.3-1.3,0.3"/>
		<path class="st0" d="M177.1,92.9c-0.7,0-1.4,0-2.1,0.3c-0.4,0.1-0.8,0.3-1.1,0.5c-0.7,0.4-1.2,0.9-1.7,1.5c-0.5,0.5-0.8,1-1.2,1.6
			c-0.3,0.5-0.6,0.9-0.7,1.4c-0.1,0.5-0.2,1-0.2,1.5c0,0.3,0,0.6,0.1,1c0.1,0.3,0.2,0.6,0.3,0.9c0.2,0.6,0.6,1,1,1.5
			c0.3,0.4,0.8,0.6,1.2,0.8c0.5,0.3,0.9,0.6,1.5,0.7c1.1,0.3,2.3-0.1,3.5,0"/>
		<path class="st0" d="M212.8,82.7c-0.7,1.4-1.5,2.6-2.4,3.9c-0.3,0.4-0.5,0.8-0.8,1.2c-0.3,0.5-0.7,0.9-1,1.4
			c-0.4,0.6-0.7,1.2-1.1,1.8c-0.2,0.3-0.5,0.6-0.7,0.9c-0.1,0.1-0.2,0.3-0.4,0.4c-0.6,0.4-1.4,0.3-2,0c-0.5-0.3-1-0.7-1.4-1.1
			c-0.5-0.6-0.7-1.4-0.9-2.2c-0.1-0.6-0.1-1.5,0.1-2.1c0.2-0.6,0.2-1.3,0.6-1.8c0.4-0.5,1-0.8,1.6-1.1c0.5-0.3,1.1-0.3,1.7-0.2
			c0.5,0.1,1,0.3,1.4,0.6c0.5,0.3,0.9,0.8,1.3,1.2c0.8,0.7,1.4,1.8,2.2,2.5c0.7,0.7,1,1.7,1.6,2.5c0.1,0.2,0.2,0.3,0.3,0.5
			c0,0.1,0.1,0.3,0.1,0.4c0.4-0.4,0.7-0.9,1.1-1.4c0.2-0.2,0.4-0.5,0.5-0.7"/>
		<path class="st0" d="M242.2,130.5c0.5,0.2,0.9,0.6,1.4,0.2c0.3-0.2,0.5-0.4,0.7-0.6c0.5-0.6,0.4-1.3,0.4-2c0-0.7,0-1.4-0.1-2.1
			c-0.1-0.8-0.3-1.6-0.3-2.4c-0.1-0.9-0.2-1.9-0.2-2.8c0-0.7-0.1-1.4,0.1-2.2c0.1-0.6,0.3-1.3,0.6-1.7c0.3-0.4,0.7-0.5,1.2-0.5
			c0.5,0,1-0.1,1.5-0.1c0.6,0,1,0.4,1.3,0.9c0.5,1,0.9,1.9,0.7,3c-0.1,0.4-0.2,0.7-0.4,1.1c-0.2,0.2-0.4,0.4-0.7,0.6
			c-0.4,0.3-0.8,0.7-1.3,0.6c1.1,0,2.1,0.2,2.6,1.3c0.4,1,0.6,2.5-0.1,3.3c-0.3,0.3-0.5,0.7-0.9,0.9c-0.3,0.2-0.5,0.2-0.8,0.1
			c-0.4-0.1-1.2-0.2-1.3-0.8"/>
	</g>
	<path class="st4" d="M132.2,89.8c2.4,1.4,4.9,2.8,7.1,4.5c1.5,1.1,3,2.1,4.6,3c0.7,0.4,1.4,0.8,2,1.3c0.3,0.3,0.7,0.5,1.1,0.7
		c0.6,0.4,1.3,1.1,2,1.3c-0.1-0.2-0.5,0.2-0.6,0.3c-0.8,0.5-1.7,0.8-2.5,1.3c-0.6,0.3-1.2,0.7-1.8,1.1c-0.6,0.4-1.3,0.6-1.9,1
		c-1.1,0.6-2.2,1.7-3.3,2.5c-1,0.8-1.6,1.1-2.5,2c-0.5,0.5-1.5,0.6-2.1,0.9c-0.3,0.1-1.9,0.5-2,0.8c0.9-2,1.6-4.4,2.8-6.3
		c-2.7,0.7-5.5,0.5-8.3,0.6c-1.4,0.1-2.9-0.1-4.3,0.1c-1.2,0.2-2.3,0.3-3.5,0.4c-2,0.1-3.9,0.5-5.9,0.3c-1.1-0.1-2.3-0.1-3.4,0.1
		c0.2-0.5,0-1.3-0.1-1.8c-0.1-0.8-0.4-1.5-0.3-2.3c0-1-0.1-1.9-0.1-2.9c0-0.8,0.1-1.7,0.3-2.6c0.1-0.3,0-0.4,0.3-0.4
		c0.4-0.1,0.9,0,1.3,0c1.3,0,2.7,0.1,4,0.2c1.8,0.1,3.7,0.1,5.5,0.1c1.6,0,3.3,0.2,4.8,0.6c0.7,0.2,1.5,0.1,2.2,0.3
		c1.2,0.2,2.5,0.1,3.8,0.2c1.5,0.2,2.9,0.4,4.4,0.3c-0.4,0-2-3.6-2.2-4c-0.2-0.5-0.4-1-0.6-1.5c-0.2-0.3-0.3-0.7-0.4-1
		C132.3,90.3,132.3,89.6,132.2,89.8z"/>
	<g>
		<path class="st5" d="M97.1,107.8c0.6,0.6,1.2,1.1,1.8,1.8c0.2,0.2,0.3,0.5,0.5,0.6c0.2,0.2,0.4,0.3,0.6,0.4
			c0.3,0.1,0.5,0.2,0.6,0.4c0.3,0.3,0.7,0.6,0.9,1c0.3,0.5,0,0.8-0.3,1.3c-0.2,0.4-0.4,0.7-0.7,1.1c-0.2,0.4-0.6,0.6-0.8,1
			c-0.3,0.5-0.5,1.1-0.6,1.6c-0.1,0.7-0.4,1.3-0.5,2c-0.1,0.6-0.3,1.2-0.3,1.9c0,0.8,0.1,1.5,0.2,2.3c0.1,0.7,0.1,1.5,0.4,2.1
			c0.2,0.4,0.8,1,1.3,0.9c-2.1,0.5-4,1.7-6.1,2.1c-1.4,0.3-2.8,0.8-4.2,1.3c-1.2,0.4-2.4,0.7-3.6,1.1c-1.5,0.4-3,0.8-4.5,1.3
			c-0.9,0.3-1.7,0.6-2.6,0.8c-1,0.2-1.8,0.6-2.8,0.9c-1.4,0.5-2.9,0.7-4.3,1.3c-0.7,0.3-1.5,0.3-2.2,0.5c-0.7,0.2-1.4,0.5-2,0.6
			c-2,0.5-4,0.9-6,1.5c-2,0.6-4.2,1.2-6.3,1.3c-1.5,0.1-3.4-0.1-4.7-1c-0.8-0.6-1.5-1.2-2.3-1.7c-1-0.8-1.6-1.7-2.1-2.9
			c-2.7-6.5-1-14.9,5.1-18.9c4-2.6,9.1-3.6,13.8-4c4.6-0.4,9.2-0.6,13.8-1c1.9-0.1,3.9-0.4,5.8-0.5c1.3-0.1,2.7-0.2,4.1-0.4
			c0.9-0.2,1.8-0.3,2.7-0.4c0.5,0,0.9-0.2,1.4-0.3c0.7-0.1,1.6-0.2,2.4-0.1C96.5,108,97.2,108,97.1,107.8z"/>
		<path class="st6" d="M95.5,129.3c0.1,0.2-1.4,0.6-1.7,0.7c-0.5,0.2-0.9,0.5-1.4,0.7c-0.8,0.4-1.8,0.6-2.7,0.9
			c-1.9,0.6-3.7,1.2-5.6,1.7c-1.9,0.4-3.7,0.8-5.6,1.3c-1.6,0.5-3.3,1-4.9,1.3c-2.4,0.5-4.7,1.2-7.1,1.7c-1.8,0.4-3.5,0.7-5.3,1.1
			c-1.3,0.3-2.7,0.3-4,0.8c-1.9,0.7-4.1,2.1-6.1,1.2c-0.8-0.3-1.7-0.6-2.4-1.1c-1-0.6-2-1.5-2.8-2.4c-1.2-1.3-2.4-2.7-3.4-4.1
			c-1.2-1.7-2.4-3.2-3.7-4.8c-0.7-0.9-1.2-1.9-1.8-2.9c-0.5-0.8-1.3-1.4-1.9-2.1c-1.2-1.5-2.3-3.1-3.5-4.7c-0.6-0.8-1.4-1.6-2.1-2.4
			c-0.6-0.8-1.1-1.7-1.7-2.5c-0.6-1-1.5-2-2.3-2.8c-0.9-0.9-1.4-1.9-2-3c-0.6-1.2-1.5-2.1-2.4-3.1c-0.7-0.8-1.2-1.7-1.8-2.7
			c-1-1.9-2.7-3.3-3.8-5c-1-1.6-2.1-3.1-3.2-4.6c-0.4-0.6-1-1.2-1.3-1.8c-0.4-0.7-0.5-1.4-0.7-2.1c-0.4-1.3-0.8-2.5-0.9-3.8
			c0-0.9,0.1-1.9,0.1-2.8c0-1.6,0.1-3.3,0.4-4.8c0.2-1.3,0.4-2.5,0.8-3.8c0.5-1.5,1.6-2.4,2.9-3.4c0.6-0.4,1.3-1,2-1.1
			c0.9-0.2,2-0.1,2.9,0c0.3,0,0.7,0.2,1,0.2c0.3-0.1,0.2-0.2,0.4-0.4c0.2-0.2,0.6-0.3,0.8-0.6c0.3-0.2,0.5-0.5,0.9-0.7
			c2-1.1,4.4-1.4,6.6-2c4.2-1.1,8.5-1.8,12.7-2.7c2.7-0.6,5.4-1.1,8.1-1.7c1.2-0.3,2.4-0.5,3.6-0.7c2.8-0.5,5.6-0.8,8.1-1.4
			c1.5,1.3,3.6,2.5,4.7,4.3c0.3,0.5,0.6,0.9,1,1.3c1.1,1.3,2.3,2.6,3.2,4c1.6,2.5,3.7,4.6,5.4,7c0.9,1.2,2,2.2,3,3.3
			c1,1.1,1.8,2.4,2.8,3.5c1.7,2.1,3,4.4,4.7,6.5c1.5,1.8,2.8,3.7,4.3,5.5c0.6,0.7,1.1,1.4,1.8,2c0.6,0.5,1.1,1.1,1.6,1.7
			c0.9,1.2,2.1,2,3,3.1c0.8,0.9,1.4,2,2.2,2.9c0.7,0.8,1.6,1.4,2.2,2.3c0.5,0.7,0.9,1.5,1.4,2.2c0.6,0.9,1.3,2,1.2,3.1
			c-0.1,0.7-0.9,0.9-1.5,1c-1,0.3-2.1,0.2-3.2,0.2c-1.3,0-2.7,0.5-3.9,0.7c-1,0.2-2,0.4-3,0.7c-1.3,0.3-2.7,0.3-4,0.7
			c-3.1,0.8-6.2,1.5-9.2,2.4c-2.9,0.8-5.9,1.3-8.8,2.1c-2.2,0.6-4.5,1.3-6.7,1.9c-0.7,0.2-1.5,0.3-2.2,0.6c-0.3,0.1-0.6,0.3-0.9,0.4
			c0-0.7-0.4-1.9-0.9-2.4c-0.7-0.7-1.7-0.6-2.5-0.2c-1.4,0.6-2.5,1.7-3.3,3c-0.5,0.7-0.9,1.4-1.2,2.2c-0.4,0.9-0.5,2-0.7,3
			c-0.3,1.4-0.4,2.7-0.4,4.1c0,0.5-0.1,1.2,0,1.7c0.1,0.5,0.4,1,0.6,1.4c0.3,0.8,0.7,1.6,1.4,2.1c0.5,0.4,1.2,0.5,1.9,0.4
			c0.7-0.1,1.4-0.5,2-0.7c0.3-0.1,0.5-0.2,0.7-0.4c0.3-0.2,0.4-0.7,0.7-0.8c0,1.2,1.4,1.3,2.3,1c0.6-0.2,1.2-0.4,1.8-0.6
			c0.8-0.3,1.7-0.3,2.6-0.4c1.4-0.3,2.8-0.7,4.2-1c0.8-0.2,1.6-0.5,2.4-0.7c1-0.3,1.9-0.4,2.9-0.7c0.6-0.2,1.2-0.5,1.8-0.6
			c0.8-0.2,1.7-0.4,2.6-0.6c1.5-0.4,3-0.9,4.4-1.5c2.5-1,5.1-1.7,7.6-2.5c2.1-0.6,4.4-1,6.5-1.8c0.6-0.2,1.2-0.3,1.8-0.4
			c0.6-0.1,1.4-0.5,2-0.4c0.7,0.1,1.3,0.9,1.2,1.6c-0.1,1.1-1.8,0.9-2.6,1.1c-0.6,0.1-1.2,0.3-1.8,0.4c-0.3,0.1-0.6,0.1-0.9,0.2
			C95.8,128.9,94.9,129.4,95.5,129.3z"/>
		<path class="st0" d="M20.3,70.5c1.3,1.4,2.7,2.8,3.9,4.4c0.3,0.4,0.6,0.9,0.9,1.4c0.7,0.8,1.4,1.6,2.1,2.4
			c0.8,0.9,1.2,1.9,1.9,2.8c0.8,1.1,1.8,1.9,2.6,2.9c0.7,0.8,1.3,1.8,2,2.6c1,1,1.9,2,2.9,3c1.6,1.7,3.3,3.4,4.7,5.2
			c1.3,1.7,2.6,3.3,3.9,5c1.2,1.6,2.1,3.4,3.3,5c1.8,2.2,3.1,4.8,5.2,6.7c0.9,0.8,1.5,1.8,2.2,2.7c0.6,0.7,1.2,1.9,2,2.4"/>
		<path class="st3" d="M55.3,80c-2.3-0.6-4.6-1.1-7-1.5c-0.6-0.1-1.2-0.1-1.8,0c-0.5,0.1-1,0.3-1.5,0.5c-0.4,0.1-0.8,0.2-1.2,0.4
			c-0.7,0.3-1.3,0.9-1.4,1.7c-0.1,0.8,0.1,1.6,1.1,1.5c0.8-0.1,1.3-0.8,1.9-1.1c0.9-0.4,2.2-0.5,3.2-0.5c1,0,2.1,0.3,3,0.6
			c1,0.3,2.2,0.9,3,1.7c1.8,1.7,2.2,4.7,2.1,7c-0.1,2-1.6,4.5-3.1,5.7c-0.3,0.2-0.5,0.5-0.8,0.6c-0.3,0.2-0.6,0.2-1,0.4
			c-0.5,0.3-1.1,0.8-0.9,1.4c0.1,0.6,0.8,0.9,1.3,1.1c0.9,0.4,1.4,0.1,2.3-0.4c2-1.2,3.5-3.1,4.2-5.4c0.2-0.8,0.6-1.5,0.8-2.3
			c0.2-0.8,0.2-1.7,0.4-2.4c0.3,0.5,0.2,1.1,0.6,1.6c0.5,0.6,1,1,1.6,1.4c1,0.8,2.4,1.5,3.6,1.8c1.5,0.4,3.3,0.6,4.8,0.7
			c1.2,0.1,2.5,0.2,3.7-0.1c1-0.3,1.7-0.7,2.1-1.6c0.3-0.7,0.5-1.6-0.2-2c-0.8-0.5-1.4-0.1-2.1,0.3c-0.9,0.5-1.7,0.7-2.8,0.7
			c-2.1-0.1-5-0.4-6.6-1.8c-0.5-0.4-0.8-0.9-1.2-1.4c-0.7-0.9-1.5-1.7-2.1-2.7c-0.7-1.2-1.3-2.6-1.2-4c0.1-1.4,0.7-3.1,1.7-4.2
			c0.7-0.7,2.1-0.8,3-0.8c0.9,0.1,1.8,0.3,2.6,0.7c0.8,0.3,1.8,0.7,2.3-0.3c0.7-1.5-0.6-2.5-1.9-3c-1.9-0.7-4.4-1.1-6.1,0.1
			c-1.5,1.1-3,2.3-4.1,3.8c-0.6,0.8-0.6,1.6-0.9,2.5C56.2,80.2,55.6,80,55.3,80z"/>
		<path class="st0" d="M88.1,118.2c3-0.7,5.9-1.5,8.8-2c0.5-0.1,1-0.3,1.5-0.4c0.4-0.1,1-0.1,1.4-0.3"/>
		<path class="st0" d="M86.3,121c3-0.9,6.2-1.5,9.3-2.2c0.9-0.2,1.9-0.2,2.8-0.6"/>
		<path class="st0" d="M83.3,124.9c1.4-0.3,2.9-0.6,4.3-1c0.7-0.2,1.3-0.4,2-0.5c0.8-0.1,1.6-0.3,2.4-0.5c0.7-0.2,1.3-0.4,2-0.5
			c0.4,0,0.8-0.1,1.1-0.2c0.4-0.1,0.7-0.2,1-0.2c0.3,0,0.6,0,0.8-0.1c0.4-0.1,0.9-0.4,1.4-0.3"/>
		<path class="st0" d="M90.6,125.8c2-0.5,4-0.9,5.9-1.4c0.4-0.1,0.8-0.2,1.1-0.4c0.2-0.1,0.5-0.1,0.7-0.2"/>
		<path class="st0" d="M57.3,122.8c-1,0.1-2,0.3-3,0.6c-0.4,0.1-0.9,0.2-1.3,0.4C52.9,123.8,52.8,123.8,57.3,122.8z"/>
		<path class="st0" d="M61.3,124.9c-2.7,0.5-5.4,1.1-8.1,1.7c-0.4,0.1-1.1,0.4-1.5,0.4"/>
		<path class="st0" d="M61.9,128.2c-2.4,0.4-4.7,0.7-7.1,1.1c-0.5,0.1-1,0.2-1.6,0.3c-0.4,0.1-0.7,0.1-1.1,0.2
			c-0.3,0.1-0.8,0.1-1.1,0.2"/>
		<path class="st0" d="M63.1,131.6c-3.3,0.3-6.7,0.9-9.9,1.5c-0.6,0.1-1.2,0.2-1.8,0.5"/>
		<path class="st0" d="M60.5,133.9c-1.9,0.3-3.9,0.6-5.8,0.7c-0.5,0-0.9,0.1-1.4,0.1c-0.3,0.1-1.1,0.3-1.3,0.2"/>
		<path class="st0" d="M16,85.1c2-0.1,3.9-0.8,5.5-2c0.8-0.4,1.2-1,1.2-1.9c0-0.8-0.5-1.4-1.3-1.6c-1.6-0.2-2.4,1.7-2.7,3
			c-0.6,2.7,1.1,6.1-0.9,8.5c-0.1,0.2-0.8,1-1.2,0.8c-0.4-0.1-0.2-0.7-0.1-0.9c0.3-0.8,1.2-1.7,1.9-2.3c1.3-1.1,3-1.9,4.7-1.4
			c0.7,0.2,2,0.8,1.7,1.8c-0.2,0.6-1,1.2-1.5,1.6c-0.5,0.5-1.2,1.1-1.3,1.9c-0.1,0.8,0.5,1.3,1.1,1.7c0.9,0.6,1.9,0.9,3,0.7
			c0.7-0.1,2-0.3,2.4-1c-0.4-0.3-1.8,0.5-2.2,0.7c-0.7,0.5-1.9,1.4-1.1,2.3c0.8,1,2.4,1.1,3.5,1c1.3-0.1,3-0.2,3.9,1.1
			c0.6,0.9,0.2,1.5-0.7,2c-1.1,0.5-2.4,0.5-3.5,1.2c-1.6,1.1-0.4,3,0.7,3.8c1.5,1,3.5,1.8,5.3,1.2c0.9-0.3,1.7-0.7,2.6-1
			c0.6-0.2,1.2-0.5,1.8-0.3c0.9,0.3,1.4,1.2,1.8,2c0.3,0.7,0.9,1.7,0.7,2.5c-0.4,1.2-2.2,1.1-3.1,1.3c-1.3,0.2-2.4,0.9-2.1,2.4
			c0.3,1.2,1.4,2.2,2.7,2.2c1,0,1.6-0.2,2.3-0.9c0.4-0.4,0.8-0.8,1.2-1c0.1,0.2,0.1,0.5,0,0.7c-0.1,0.5-0.1,0.9-0.1,1.4
			c0,0.5,0,1.9,0.6,2.2c0.1,0,0.3,0,0.4,0c0.1,0.1,0.2,0.4,0.2,0.5c0.4,0.9,1.3,1.2,2,1.7"/>
	</g>
</g>
</svg>
