<?xml version="1.0" encoding="UTF-8" standalone="no"?>
<!-- Created with Inkscape (http://www.inkscape.org/) -->

<svg
   version="1.1"
   id="svg579"
   width="243.1647"
   height="82.375549"
   viewBox="0 0 243.16469 82.375549"
   sodipodi:docname="fourier_adder_adjoint.svg"
   inkscape:version="1.2.2 (b0a8486541, 2022-12-01)"
   xmlns:inkscape="http://www.inkscape.org/namespaces/inkscape"
   xmlns:sodipodi="http://sodipodi.sourceforge.net/DTD/sodipodi-0.dtd"
   xmlns="http://www.w3.org/2000/svg"
   xmlns:svg="http://www.w3.org/2000/svg">
  <defs
     id="defs583">
    <clipPath
       id="clipPath6880">
      <path
         clip-rule="nonzero"
         d="M 1,0 H 2 V 9.964844 H 1 Z m 0,0"
         id="path3328" />
    </clipPath>
    <clipPath
       id="clipPath7171">
      <path
         clip-rule="nonzero"
         d="m 8,0 h 3 V 9.964844 H 8 Z m 0,0"
         id="path8907" />
    </clipPath>
    <clipPath
       id="clipPath4232">
      <path
         clip-rule="nonzero"
         d="M 1,0 H 2 V 9.964844 H 1 Z m 0,0"
         id="path9687" />
    </clipPath>
    <clipPath
       id="clipPath3584">
      <path
         clip-rule="nonzero"
         d="m 9,5 h 5 V 9.964844 H 9 Z m 0,0"
         id="path850" />
    </clipPath>
    <clipPath
       id="clipPath59">
      <path
         clip-rule="nonzero"
         d="m 14,0 h 4 v 9.964844 h -4 z m 0,0"
         id="path4848" />
    </clipPath>
    <clipPath
       id="clipPath6880-3">
      <path
         clip-rule="nonzero"
         d="M 1,0 H 2 V 9.964844 H 1 Z m 0,0"
         id="path3328-6" />
    </clipPath>
    <clipPath
       id="clipPath7171-7">
      <path
         clip-rule="nonzero"
         d="m 8,0 h 3 V 9.964844 H 8 Z m 0,0"
         id="path8907-5" />
    </clipPath>
    <clipPath
       id="clipPath3584-0">
      <path
         clip-rule="nonzero"
         d="m 9,5 h 5 V 9.964844 H 9 Z m 0,0"
         id="path850-6" />
    </clipPath>
    <clipPath
       id="clipPath3584-7">
      <path
         clip-rule="nonzero"
         d="m 9,5 h 5 V 9.964844 H 9 Z m 0,0"
         id="path850-9" />
    </clipPath>
    <clipPath
       id="clipPath3584-5">
      <path
         clip-rule="nonzero"
         d="m 9,5 h 5 V 9.964844 H 9 Z m 0,0"
         id="path850-92" />
    </clipPath>
    <clipPath
       clipPathUnits="userSpaceOnUse"
       id="clipPath2352">
      <path
         d="m 108,0 h 25.371 V 18 H 108 Z"
         id="path2350" />
    </clipPath>
    <clipPath
       clipPathUnits="userSpaceOnUse"
       id="clipPath2360">
      <path
         d="M 0,0 H 134 V 18 H 0 Z"
         id="path2358" />
    </clipPath>
    <clipPath
       clipPathUnits="userSpaceOnUse"
       id="clipPath2352-6">
      <path
         d="m 108,0 h 25.371 V 18 H 108 Z"
         id="path2350-1" />
    </clipPath>
    <clipPath
       clipPathUnits="userSpaceOnUse"
       id="clipPath2360-2">
      <path
         d="M 0,0 H 134 V 18 H 0 Z"
         id="path2358-9" />
    </clipPath>
    <clipPath
       clipPathUnits="userSpaceOnUse"
       id="clipPath2352-2">
      <path
         d="m 108,0 h 25.371 V 18 H 108 Z"
         id="path2350-0" />
    </clipPath>
    <clipPath
       clipPathUnits="userSpaceOnUse"
       id="clipPath2360-6">
      <path
         d="M 0,0 H 134 V 18 H 0 Z"
         id="path2358-1" />
    </clipPath>
    <clipPath
       clipPathUnits="userSpaceOnUse"
       id="clipPath2352-7">
      <path
         d="m 108,0 h 25.371 V 18 H 108 Z"
         id="path2350-4" />
    </clipPath>
    <clipPath
       clipPathUnits="userSpaceOnUse"
       id="clipPath2360-4">
      <path
         d="M 0,0 H 134 V 18 H 0 Z"
         id="path2358-3" />
    </clipPath>
    <clipPath
       id="clipPath8885">
      <path
         clip-rule="nonzero"
         d="M 0,0 H 4.980469 V 9.964844 H 0 Z m 0,0"
         id="path6341" />
    </clipPath>
    <clipPath
       id="clipPath8885-2">
      <path
         clip-rule="nonzero"
         d="M 0,0 H 4.980469 V 9.964844 H 0 Z m 0,0"
         id="path6341-6" />
    </clipPath>
    <clipPath
       id="clipPath8885-2-4">
      <path
         clip-rule="nonzero"
         d="M 0,0 H 4.980469 V 9.964844 H 0 Z m 0,0"
         id="path6341-6-8" />
    </clipPath>
    <clipPath
       id="clipPath4994">
      <path
         clip-rule="nonzero"
         d="M 1,0 H 9 V 20.664062 H 1 Z m 0,0"
         id="path6171" />
    </clipPath>
    <clipPath
       id="clipPath6798">
      <path
         clip-rule="nonzero"
         d="M 2,0 H 14 V 61.988281 H 2 Z m 0,0"
         id="path5097" />
    </clipPath>
    <clipPath
       id="clipPath4053">
      <path
         clip-rule="nonzero"
         d="M 32,0 H 44 V 61.988281 H 32 Z m 0,0"
         id="path2787" />
    </clipPath>
    <clipPath
       id="clipPath916">
      <path
         clip-rule="nonzero"
         d="M 1,0 H 15 V 14.429688 H 1 Z m 0,0"
         id="path3750" />
    </clipPath>
    <clipPath
       id="clipPath6880-2">
      <path
         clip-rule="nonzero"
         d="M 1,0 H 2 V 9.964844 H 1 Z m 0,0"
         id="path3328-2" />
    </clipPath>
    <clipPath
       id="clipPath7171-6">
      <path
         clip-rule="nonzero"
         d="m 8,0 h 3 V 9.964844 H 8 Z m 0,0"
         id="path8907-1" />
    </clipPath>
    <clipPath
       id="clipPath6880-3-0">
      <path
         clip-rule="nonzero"
         d="M 1,0 H 2 V 9.964844 H 1 Z m 0,0"
         id="path3328-6-6" />
    </clipPath>
    <clipPath
       id="clipPath7171-7-1">
      <path
         clip-rule="nonzero"
         d="m 8,0 h 3 V 9.964844 H 8 Z m 0,0"
         id="path8907-5-5" />
    </clipPath>
    <clipPath
       id="clipPath3584-9">
      <path
         clip-rule="nonzero"
         d="m 9,5 h 5 V 9.964844 H 9 Z m 0,0"
         id="path850-4" />
    </clipPath>
    <clipPath
       id="clipPath3584-0-9">
      <path
         clip-rule="nonzero"
         d="m 9,5 h 5 V 9.964844 H 9 Z m 0,0"
         id="path850-6-0" />
    </clipPath>
    <clipPath
       id="clipPath3584-7-9">
      <path
         clip-rule="nonzero"
         d="m 9,5 h 5 V 9.964844 H 9 Z m 0,0"
         id="path850-9-1" />
    </clipPath>
    <clipPath
       id="clipPath3584-5-7">
      <path
         clip-rule="nonzero"
         d="m 9,5 h 5 V 9.964844 H 9 Z m 0,0"
         id="path850-92-7" />
    </clipPath>
    <clipPath
       id="clipPath8885-2-1">
      <path
         clip-rule="nonzero"
         d="M 0,0 H 4.980469 V 9.964844 H 0 Z m 0,0"
         id="path6341-6-1" />
    </clipPath>
    <clipPath
       id="clipPath6880-2-3">
      <path
         clip-rule="nonzero"
         d="M 1,0 H 2 V 9.964844 H 1 Z m 0,0"
         id="path3328-2-8" />
    </clipPath>
    <clipPath
       id="clipPath7171-6-6">
      <path
         clip-rule="nonzero"
         d="m 8,0 h 3 V 9.964844 H 8 Z m 0,0"
         id="path8907-1-0" />
    </clipPath>
    <clipPath
       id="clipPath6880-3-0-4">
      <path
         clip-rule="nonzero"
         d="M 1,0 H 2 V 9.964844 H 1 Z m 0,0"
         id="path3328-6-6-8" />
    </clipPath>
    <clipPath
       id="clipPath7171-7-1-8">
      <path
         clip-rule="nonzero"
         d="m 8,0 h 3 V 9.964844 H 8 Z m 0,0"
         id="path8907-5-5-8" />
    </clipPath>
    <clipPath
       id="clipPath3584-9-9">
      <path
         clip-rule="nonzero"
         d="m 9,5 h 5 V 9.964844 H 9 Z m 0,0"
         id="path850-4-7" />
    </clipPath>
    <clipPath
       id="clipPath3584-0-9-7">
      <path
         clip-rule="nonzero"
         d="m 9,5 h 5 V 9.964844 H 9 Z m 0,0"
         id="path850-6-0-6" />
    </clipPath>
    <clipPath
       id="clipPath3584-7-9-4">
      <path
         clip-rule="nonzero"
         d="m 9,5 h 5 V 9.964844 H 9 Z m 0,0"
         id="path850-9-1-3" />
    </clipPath>
    <clipPath
       id="clipPath3584-5-7-0">
      <path
         clip-rule="nonzero"
         d="m 9,5 h 5 V 9.964844 H 9 Z m 0,0"
         id="path850-92-7-3" />
    </clipPath>
    <clipPath
       id="clipPath8885-2-1-0">
      <path
         clip-rule="nonzero"
         d="M 0,0 H 4.980469 V 9.964844 H 0 Z m 0,0"
         id="path6341-6-1-9" />
    </clipPath>
    <clipPath
       id="clipPath3584-9-6">
      <path
         clip-rule="nonzero"
         d="m 9,5 h 5 V 9.964844 H 9 Z m 0,0"
         id="path850-4-4" />
    </clipPath>
    <clipPath
       id="clipPath4632">
      <path
         clip-rule="nonzero"
         d="M 2,0 H 4 V 20.664062 H 2 Z m 0,0"
         id="path2825" />
    </clipPath>
    <clipPath
       id="clipPath7386">
      <path
         clip-rule="nonzero"
         d="m 18,0 h 5 v 20.664062 h -5 z m 0,0"
         id="path9167" />
    </clipPath>
    <clipPath
       id="clipPath4819">
      <path
         clip-rule="nonzero"
         d="M 2,0 H 4 V 20.664062 H 2 Z m 0,0"
         id="path858" />
    </clipPath>
    <clipPath
       id="clipPath4828">
      <path
         clip-rule="nonzero"
         d="m 15,0 h 6 v 20.664062 h -6 z m 0,0"
         id="path277" />
    </clipPath>
    <clipPath
       id="clipPath8424">
      <path
         clip-rule="nonzero"
         d="M 2,0 H 4 V 20.664062 H 2 Z m 0,0"
         id="path382" />
    </clipPath>
    <clipPath
       id="clipPath5649">
      <path
         clip-rule="nonzero"
         d="m 31,0 h 5 v 20.664062 h -5 z m 0,0"
         id="path8856" />
    </clipPath>
    <clipPath
       id="clipPath8557">
      <path
         clip-rule="nonzero"
         d="m 59,0 h 6 v 20.664062 h -6 z m 0,0"
         id="path1319" />
    </clipPath>
    <clipPath
       id="clipPath9055">
      <path
         clip-rule="nonzero"
         d="m 77,0 h 31 V 20.664062 H 77 Z m 0,0"
         id="path8208" />
    </clipPath>
    <clipPath
       id="clipPath2792">
      <path
         clip-rule="nonzero"
         d="m 145,0 h 5 v 20.664062 h -5 z m 0,0"
         id="path3371" />
    </clipPath>
    <clipPath
       id="clipPath7680">
      <path
         clip-rule="nonzero"
         d="m 177,0 h 15 v 20.664062 h -15 z m 0,0"
         id="path9625" />
    </clipPath>
    <clipPath
       id="clipPath2190">
      <path
         clip-rule="nonzero"
         d="m 227,0 h 5 v 20.664062 h -5 z m 0,0"
         id="path5887" />
    </clipPath>
    <clipPath
       id="clipPath9338">
      <path
         clip-rule="nonzero"
         d="m 246,0 h 6 v 20.664062 h -6 z m 0,0"
         id="path8627" />
    </clipPath>
    <clipPath
       id="clipPath6317">
      <path
         clip-rule="nonzero"
         d="M 2,0 H 4 V 20.664062 H 2 Z m 0,0"
         id="path8809" />
    </clipPath>
    <clipPath
       id="clipPath9458">
      <path
         clip-rule="nonzero"
         d="M 38,0 H 70 V 20.664062 H 38 Z m 0,0"
         id="path281" />
    </clipPath>
    <clipPath
       id="clipPath6278">
      <path
         clip-rule="nonzero"
         d="m 107,0 h 5 v 20.664062 h -5 z m 0,0"
         id="path5784" />
    </clipPath>
    <clipPath
       id="clipPath3825">
      <path
         clip-rule="nonzero"
         d="m 114,0 h 6 v 20.664062 h -6 z m 0,0"
         id="path7053" />
    </clipPath>
    <clipPath
       id="clipPath4819-4">
      <path
         clip-rule="nonzero"
         d="M 2,0 H 4 V 20.664062 H 2 Z m 0,0"
         id="path858-6" />
    </clipPath>
    <clipPath
       id="clipPath4828-2">
      <path
         clip-rule="nonzero"
         d="m 15,0 h 6 v 20.664062 h -6 z m 0,0"
         id="path277-6" />
    </clipPath>
    <clipPath
       id="clipPath916-0">
      <path
         clip-rule="nonzero"
         d="M 1,0 H 15 V 14.429688 H 1 Z m 0,0"
         id="path3750-2" />
    </clipPath>
    <clipPath
       id="clipPath4632-4">
      <path
         clip-rule="nonzero"
         d="M 2,0 H 4 V 20.664062 H 2 Z m 0,0"
         id="path2825-8" />
    </clipPath>
    <clipPath
       id="clipPath7386-0">
      <path
         clip-rule="nonzero"
         d="m 18,0 h 5 v 20.664062 h -5 z m 0,0"
         id="path9167-4" />
    </clipPath>
    <clipPath
       id="clipPath3977">
      <path
         clip-rule="nonzero"
         d="M 1,0 H 7 V 20.628906 H 1 Z m 0,0"
         id="path2396" />
    </clipPath>
    <clipPath
       id="clipPath8673">
      <path
         clip-rule="nonzero"
         d="M 43,0 H 58 V 20.628906 H 43 Z m 0,0"
         id="path324" />
    </clipPath>
    <clipPath
       id="clipPath47">
      <path
         clip-rule="nonzero"
         d="M 1,0 H 7 V 20.628906 H 1 Z m 0,0"
         id="path6596" />
    </clipPath>
    <clipPath
       id="clipPath1727">
      <path
         clip-rule="nonzero"
         d="M 44,0 H 58 V 20.628906 H 44 Z m 0,0"
         id="path107" />
    </clipPath>
    <clipPath
       id="clipPath6317-1">
      <path
         clip-rule="nonzero"
         d="M 2,0 H 4 V 20.664062 H 2 Z m 0,0"
         id="path8809-9" />
    </clipPath>
    <clipPath
       id="clipPath9458-6">
      <path
         clip-rule="nonzero"
         d="M 38,0 H 70 V 20.664062 H 38 Z m 0,0"
         id="path281-2" />
    </clipPath>
    <clipPath
       id="clipPath6278-5">
      <path
         clip-rule="nonzero"
         d="m 107,0 h 5 v 20.664062 h -5 z m 0,0"
         id="path5784-4" />
    </clipPath>
    <clipPath
       id="clipPath3825-4">
      <path
         clip-rule="nonzero"
         d="m 114,0 h 6 v 20.664062 h -6 z m 0,0"
         id="path7053-9" />
    </clipPath>
    <clipPath
       id="clipPath4632-4-9">
      <path
         clip-rule="nonzero"
         d="M 2,0 H 4 V 20.664062 H 2 Z m 0,0"
         id="path2825-8-3" />
    </clipPath>
    <clipPath
       id="clipPath7386-0-6">
      <path
         clip-rule="nonzero"
         d="m 18,0 h 5 v 20.664062 h -5 z m 0,0"
         id="path9167-4-0" />
    </clipPath>
    <clipPath
       id="clipPath3977-5">
      <path
         clip-rule="nonzero"
         d="M 1,0 H 7 V 20.628906 H 1 Z m 0,0"
         id="path2396-0" />
    </clipPath>
    <clipPath
       id="clipPath8673-2">
      <path
         clip-rule="nonzero"
         d="M 43,0 H 58 V 20.628906 H 43 Z m 0,0"
         id="path324-9" />
    </clipPath>
    <clipPath
       id="clipPath47-4">
      <path
         clip-rule="nonzero"
         d="M 1,0 H 7 V 20.628906 H 1 Z m 0,0"
         id="path6596-3" />
    </clipPath>
    <clipPath
       id="clipPath1727-5">
      <path
         clip-rule="nonzero"
         d="M 44,0 H 58 V 20.628906 H 44 Z m 0,0"
         id="path107-1" />
    </clipPath>
    <clipPath
       id="clipPath4632-4-9-1">
      <path
         clip-rule="nonzero"
         d="M 2,0 H 4 V 20.664062 H 2 Z m 0,0"
         id="path2825-8-3-5" />
    </clipPath>
    <clipPath
       id="clipPath7386-0-6-4">
      <path
         clip-rule="nonzero"
         d="m 18,0 h 5 v 20.664062 h -5 z m 0,0"
         id="path9167-4-0-9" />
    </clipPath>
    <clipPath
       id="clipPath4819-0">
      <path
         clip-rule="nonzero"
         d="M 2,0 H 4 V 20.664062 H 2 Z m 0,0"
         id="path858-8" />
    </clipPath>
    <clipPath
       id="clipPath4828-1">
      <path
         clip-rule="nonzero"
         d="m 15,0 h 6 v 20.664062 h -6 z m 0,0"
         id="path277-9" />
    </clipPath>
    <clipPath
       id="clipPath4819-0-9">
      <path
         clip-rule="nonzero"
         d="M 2,0 H 4 V 20.664062 H 2 Z m 0,0"
         id="path858-8-6" />
    </clipPath>
    <clipPath
       id="clipPath4828-1-2">
      <path
         clip-rule="nonzero"
         d="m 15,0 h 6 v 20.664062 h -6 z m 0,0"
         id="path277-9-1" />
    </clipPath>
    <clipPath
       id="clipPath2787">
      <path
         clip-rule="nonzero"
         d="m 20,10 h 7 v 7.21875 h -7 z m 0,0"
         id="path9684" />
    </clipPath>
    <clipPath
       id="clipPath8939">
      <path
         clip-rule="nonzero"
         d="m 20,21 h 7 v 6.90625 h -7 z m 0,0"
         id="path603" />
    </clipPath>
    <clipPath
       id="clipPath2787-8">
      <path
         clip-rule="nonzero"
         d="m 20,10 h 7 v 7.21875 h -7 z m 0,0"
         id="path9684-2" />
    </clipPath>
    <clipPath
       id="clipPath6317-1-3">
      <path
         clip-rule="nonzero"
         d="M 2,0 H 4 V 20.664062 H 2 Z m 0,0"
         id="path8809-9-6" />
    </clipPath>
    <clipPath
       id="clipPath9458-6-0">
      <path
         clip-rule="nonzero"
         d="M 38,0 H 70 V 20.664062 H 38 Z m 0,0"
         id="path281-2-6" />
    </clipPath>
    <clipPath
       id="clipPath6278-5-2">
      <path
         clip-rule="nonzero"
         d="m 107,0 h 5 v 20.664062 h -5 z m 0,0"
         id="path5784-4-6" />
    </clipPath>
    <clipPath
       id="clipPath3825-4-1">
      <path
         clip-rule="nonzero"
         d="m 114,0 h 6 v 20.664062 h -6 z m 0,0"
         id="path7053-9-8" />
    </clipPath>
    <clipPath
       id="clipPath4632-4-9-7">
      <path
         clip-rule="nonzero"
         d="M 2,0 H 4 V 20.664062 H 2 Z m 0,0"
         id="path2825-8-3-9" />
    </clipPath>
    <clipPath
       id="clipPath7386-0-6-2">
      <path
         clip-rule="nonzero"
         d="m 18,0 h 5 v 20.664062 h -5 z m 0,0"
         id="path9167-4-0-0" />
    </clipPath>
    <clipPath
       id="clipPath3977-5-2">
      <path
         clip-rule="nonzero"
         d="M 1,0 H 7 V 20.628906 H 1 Z m 0,0"
         id="path2396-0-3" />
    </clipPath>
    <clipPath
       id="clipPath8673-2-7">
      <path
         clip-rule="nonzero"
         d="M 43,0 H 58 V 20.628906 H 43 Z m 0,0"
         id="path324-9-5" />
    </clipPath>
    <clipPath
       id="clipPath47-4-9">
      <path
         clip-rule="nonzero"
         d="M 1,0 H 7 V 20.628906 H 1 Z m 0,0"
         id="path6596-3-2" />
    </clipPath>
    <clipPath
       id="clipPath1727-5-2">
      <path
         clip-rule="nonzero"
         d="M 44,0 H 58 V 20.628906 H 44 Z m 0,0"
         id="path107-1-8" />
    </clipPath>
    <clipPath
       id="clipPath4632-9">
      <path
         clip-rule="nonzero"
         d="M 2,0 H 4 V 20.664062 H 2 Z m 0,0"
         id="path2825-3" />
    </clipPath>
    <clipPath
       id="clipPath7386-1">
      <path
         clip-rule="nonzero"
         d="m 18,0 h 5 v 20.664062 h -5 z m 0,0"
         id="path9167-9" />
    </clipPath>
    <clipPath
       id="clipPath4819-2">
      <path
         clip-rule="nonzero"
         d="M 2,0 H 4 V 20.664062 H 2 Z m 0,0"
         id="path858-0" />
    </clipPath>
    <clipPath
       id="clipPath4828-6">
      <path
         clip-rule="nonzero"
         d="m 15,0 h 6 v 20.664062 h -6 z m 0,0"
         id="path277-1" />
    </clipPath>
    <clipPath
       id="clipPath8885-2-1-3">
      <path
         clip-rule="nonzero"
         d="M 0,0 H 4.980469 V 9.964844 H 0 Z m 0,0"
         id="path6341-6-1-0" />
    </clipPath>
    <clipPath
       id="clipPath8885-2-1-0-7">
      <path
         clip-rule="nonzero"
         d="M 0,0 H 4.980469 V 9.964844 H 0 Z m 0,0"
         id="path6341-6-1-9-8" />
    </clipPath>
    <clipPath
       id="clipPath4632-6">
      <path
         clip-rule="nonzero"
         d="M 2,0 H 4 V 20.664062 H 2 Z m 0,0"
         id="path2825-88" />
    </clipPath>
    <clipPath
       id="clipPath7386-4">
      <path
         clip-rule="nonzero"
         d="m 18,0 h 5 v 20.664062 h -5 z m 0,0"
         id="path9167-3" />
    </clipPath>
    <clipPath
       id="clipPath4632-9-1">
      <path
         clip-rule="nonzero"
         d="M 2,0 H 4 V 20.664062 H 2 Z m 0,0"
         id="path2825-3-4" />
    </clipPath>
    <clipPath
       id="clipPath7386-1-9">
      <path
         clip-rule="nonzero"
         d="m 18,0 h 5 v 20.664062 h -5 z m 0,0"
         id="path9167-9-2" />
    </clipPath>
    <clipPath
       id="clipPath4819-06">
      <path
         clip-rule="nonzero"
         d="M 2,0 H 4 V 20.664062 H 2 Z m 0,0"
         id="path858-89" />
    </clipPath>
    <clipPath
       id="clipPath4828-26">
      <path
         clip-rule="nonzero"
         d="m 15,0 h 6 v 20.664062 h -6 z m 0,0"
         id="path277-64" />
    </clipPath>
    <clipPath
       id="clipPath4819-2-9">
      <path
         clip-rule="nonzero"
         d="M 2,0 H 4 V 20.664062 H 2 Z m 0,0"
         id="path858-0-5" />
    </clipPath>
    <clipPath
       id="clipPath4828-6-0">
      <path
         clip-rule="nonzero"
         d="m 15,0 h 6 v 20.664062 h -6 z m 0,0"
         id="path277-1-4" />
    </clipPath>
    <clipPath
       id="clipPath2787-87">
      <path
         clip-rule="nonzero"
         d="m 20,10 h 7 v 7.21875 h -7 z m 0,0"
         id="path9684-1" />
    </clipPath>
    <clipPath
       id="clipPath6317-1-3-7">
      <path
         clip-rule="nonzero"
         d="M 2,0 H 4 V 20.664062 H 2 Z m 0,0"
         id="path8809-9-6-2" />
    </clipPath>
    <clipPath
       id="clipPath9458-6-0-7">
      <path
         clip-rule="nonzero"
         d="M 38,0 H 70 V 20.664062 H 38 Z m 0,0"
         id="path281-2-6-2" />
    </clipPath>
    <clipPath
       id="clipPath6278-5-2-2">
      <path
         clip-rule="nonzero"
         d="m 107,0 h 5 v 20.664062 h -5 z m 0,0"
         id="path5784-4-6-6" />
    </clipPath>
    <clipPath
       id="clipPath3825-4-1-1">
      <path
         clip-rule="nonzero"
         d="m 114,0 h 6 v 20.664062 h -6 z m 0,0"
         id="path7053-9-8-0" />
    </clipPath>
    <clipPath
       id="clipPath3977-5-2-6">
      <path
         clip-rule="nonzero"
         d="M 1,0 H 7 V 20.628906 H 1 Z m 0,0"
         id="path2396-0-3-1" />
    </clipPath>
    <clipPath
       id="clipPath8673-2-7-5">
      <path
         clip-rule="nonzero"
         d="M 43,0 H 58 V 20.628906 H 43 Z m 0,0"
         id="path324-9-5-9" />
    </clipPath>
    <clipPath
       id="clipPath47-4-9-4">
      <path
         clip-rule="nonzero"
         d="M 1,0 H 7 V 20.628906 H 1 Z m 0,0"
         id="path6596-3-2-9" />
    </clipPath>
    <clipPath
       id="clipPath1727-5-2-0">
      <path
         clip-rule="nonzero"
         d="M 44,0 H 58 V 20.628906 H 44 Z m 0,0"
         id="path107-1-8-9" />
    </clipPath>
    <clipPath
       id="clipPath4615">
      <path
         clip-rule="nonzero"
         d="M 2,0 H 4 V 20.664062 H 2 Z m 0,0"
         id="path689" />
    </clipPath>
    <clipPath
       id="clipPath8821">
      <path
         clip-rule="nonzero"
         d="m 15,0 h 6 v 20.664062 h -6 z m 0,0"
         id="path6948" />
    </clipPath>
    <clipPath
       id="clipPath2615">
      <path
         clip-rule="nonzero"
         d="M 2,0 H 4 V 20.664062 H 2 Z m 0,0"
         id="path7771" />
    </clipPath>
    <clipPath
       id="clipPath5680">
      <path
         clip-rule="nonzero"
         d="m 71,0 h 31 V 20.664062 H 71 Z m 0,0"
         id="path2926" />
    </clipPath>
    <clipPath
       id="clipPath5428">
      <path
         clip-rule="nonzero"
         d="m 139,0 h 6 v 20.664062 h -6 z m 0,0"
         id="path7658" />
    </clipPath>
    <clipPath
       id="clipPath8719">
      <path
         clip-rule="nonzero"
         d="m 147,0 h 5 v 20.664062 h -5 z m 0,0"
         id="path1497" />
    </clipPath>
    <clipPath
       id="clipPath4615-9">
      <path
         clip-rule="nonzero"
         d="M 2,0 H 4 V 20.664062 H 2 Z m 0,0"
         id="path689-6" />
    </clipPath>
    <clipPath
       id="clipPath8821-0">
      <path
         clip-rule="nonzero"
         d="m 15,0 h 6 v 20.664062 h -6 z m 0,0"
         id="path6948-2" />
    </clipPath>
    <clipPath
       id="clipPath5803">
      <path
         clip-rule="nonzero"
         d="M 0,1 H 30 V 21.890625 H 0 Z m 0,0"
         id="path280" />
    </clipPath>
    <clipPath
       id="clipPath6119">
      <path
         clip-rule="nonzero"
         d="m 49,1 h 6 v 20.890625 h -6 z m 0,0"
         id="path4783" />
    </clipPath>
    <clipPath
       id="clipPath9321">
      <path
         clip-rule="nonzero"
         d="M 27,1 H 42 V 21.890625 H 27 Z m 0,0"
         id="path1670" />
    </clipPath>
    <clipPath
       id="clipPath9470">
      <path
         clip-rule="nonzero"
         d="m 61,1 h 5 v 20.890625 h -5 z m 0,0"
         id="path1926" />
    </clipPath>
    <clipPath
       id="clipPath9321-0">
      <path
         clip-rule="nonzero"
         d="M 27,1 H 42 V 21.890625 H 27 Z m 0,0"
         id="path1670-4" />
    </clipPath>
    <clipPath
       id="clipPath9470-8">
      <path
         clip-rule="nonzero"
         d="m 61,1 h 5 v 20.890625 h -5 z m 0,0"
         id="path1926-0" />
    </clipPath>
    <clipPath
       id="clipPath9321-2">
      <path
         clip-rule="nonzero"
         d="M 27,1 H 42 V 21.890625 H 27 Z m 0,0"
         id="path1670-5" />
    </clipPath>
    <clipPath
       id="clipPath9470-4">
      <path
         clip-rule="nonzero"
         d="m 61,1 h 5 v 20.890625 h -5 z m 0,0"
         id="path1926-4" />
    </clipPath>
    <clipPath
       id="clipPath9321-9">
      <path
         clip-rule="nonzero"
         d="M 27,1 H 42 V 21.890625 H 27 Z m 0,0"
         id="path1670-2" />
    </clipPath>
    <clipPath
       id="clipPath9470-88">
      <path
         clip-rule="nonzero"
         d="m 61,1 h 5 v 20.890625 h -5 z m 0,0"
         id="path1926-8" />
    </clipPath>
    <clipPath
       id="clipPath4632-9-6">
      <path
         clip-rule="nonzero"
         d="M 2,0 H 4 V 20.664062 H 2 Z m 0,0"
         id="path2825-3-0" />
    </clipPath>
    <clipPath
       id="clipPath7386-1-4">
      <path
         clip-rule="nonzero"
         d="m 18,0 h 5 v 20.664062 h -5 z m 0,0"
         id="path9167-9-1" />
    </clipPath>
    <clipPath
       id="clipPath2615-0">
      <path
         clip-rule="nonzero"
         d="M 2,0 H 4 V 20.664062 H 2 Z m 0,0"
         id="path7771-4" />
    </clipPath>
    <clipPath
       id="clipPath5680-8">
      <path
         clip-rule="nonzero"
         d="m 71,0 h 31 V 20.664062 H 71 Z m 0,0"
         id="path2926-7" />
    </clipPath>
    <clipPath
       id="clipPath5428-0">
      <path
         clip-rule="nonzero"
         d="m 139,0 h 6 v 20.664062 h -6 z m 0,0"
         id="path7658-8" />
    </clipPath>
    <clipPath
       id="clipPath8719-6">
      <path
         clip-rule="nonzero"
         d="m 147,0 h 5 v 20.664062 h -5 z m 0,0"
         id="path1497-2" />
    </clipPath>
    <clipPath
       id="clipPath3788">
      <path
         clip-rule="nonzero"
         d="M 27,1 H 42 V 21.890625 H 27 Z m 0,0"
         id="path9315" />
    </clipPath>
    <clipPath
       id="clipPath3707">
      <path
         clip-rule="nonzero"
         d="m 61,1 h 5 v 20.890625 h -5 z m 0,0"
         id="path7773" />
    </clipPath>
    <clipPath
       id="clipPath1030">
      <path
         clip-rule="nonzero"
         d="M 27,1 H 42 V 21.890625 H 27 Z m 0,0"
         id="path9789" />
    </clipPath>
    <clipPath
       id="clipPath67">
      <path
         clip-rule="nonzero"
         d="m 80,1 h 6 v 20.890625 h -6 z m 0,0"
         id="path4281" />
    </clipPath>
    <clipPath
       id="clipPath4854">
      <path
         clip-rule="nonzero"
         d="m 32,0 h 6 v 20.628906 h -6 z m 0,0"
         id="path8860" />
    </clipPath>
    <clipPath
       id="clipPath4026">
      <path
         clip-rule="nonzero"
         d="M 0,0 H 21 V 20.628906 H 0 Z m 0,0"
         id="path5165" />
    </clipPath>
    <clipPath
       id="clipPath6355">
      <path
         clip-rule="nonzero"
         d="m 65,0 h 5 v 20.628906 h -5 z m 0,0"
         id="path2281" />
    </clipPath>
    <clipPath
       id="clipPath5015">
      <path
         clip-rule="nonzero"
         d="M 2,0 H 4 V 20.664062 H 2 Z m 0,0"
         id="path9363" />
    </clipPath>
    <clipPath
       id="clipPath1776">
      <path
         clip-rule="nonzero"
         d="m 50,0 h 5 v 20.664062 h -5 z m 0,0"
         id="path8734" />
    </clipPath>
    <clipPath
       id="clipPath8885-2-1-0-0">
      <path
         clip-rule="nonzero"
         d="M 0,0 H 4.980469 V 9.964844 H 0 Z m 0,0"
         id="path6341-6-1-9-6" />
    </clipPath>
    <clipPath
       id="clipPath4615-4">
      <path
         clip-rule="nonzero"
         d="M 2,0 H 4 V 20.664062 H 2 Z m 0,0"
         id="path689-7" />
    </clipPath>
    <clipPath
       id="clipPath8821-4">
      <path
         clip-rule="nonzero"
         d="m 15,0 h 6 v 20.664062 h -6 z m 0,0"
         id="path6948-8" />
    </clipPath>
    <clipPath
       id="clipPath4411-5">
      <path
         clip-rule="nonzero"
         d="M 0,0 H 21 V 20.628906 H 0 Z m 0,0"
         id="path7664-8" />
    </clipPath>
    <clipPath
       id="clipPath4854-2">
      <path
         clip-rule="nonzero"
         d="m 32,0 h 6 v 20.628906 h -6 z m 0,0"
         id="path8860-6" />
    </clipPath>
    <clipPath
       id="clipPath5589">
      <path
         clip-rule="nonzero"
         d="M 1,0 H 7 V 20.628906 H 1 Z m 0,0"
         id="path6407" />
    </clipPath>
    <clipPath
       id="clipPath8380">
      <path
         clip-rule="nonzero"
         d="m 126,0 h 6 v 20.628906 h -6 z m 0,0"
         id="path2079" />
    </clipPath>
    <clipPath
       id="clipPath5015-9">
      <path
         clip-rule="nonzero"
         d="M 2,0 H 4 V 20.664062 H 2 Z m 0,0"
         id="path9363-0" />
    </clipPath>
    <clipPath
       id="clipPath1776-9">
      <path
         clip-rule="nonzero"
         d="m 50,0 h 5 v 20.664062 h -5 z m 0,0"
         id="path8734-8" />
    </clipPath>
    <clipPath
       id="clipPath8007">
      <path
         clip-rule="nonzero"
         d="M 2,0 H 4 V 20.664062 H 2 Z m 0,0"
         id="path5232" />
    </clipPath>
    <clipPath
       id="clipPath3082">
      <path
         clip-rule="nonzero"
         d="m 51,0 h 5 v 20.664062 h -5 z m 0,0"
         id="path5334" />
    </clipPath>
    <clipPath
       id="clipPath3435">
      <path
         clip-rule="nonzero"
         d="M 2,1 H 4 V 21.910156 H 2 Z m 0,0"
         id="path6229" />
    </clipPath>
    <clipPath
       id="clipPath1638">
      <path
         clip-rule="nonzero"
         d="m 69,1 h 5 v 20.910156 h -5 z m 0,0"
         id="path4410" />
    </clipPath>
    <clipPath
       id="clipPath6062">
      <path
         clip-rule="nonzero"
         d="m 120,1 h 5 v 20.910156 h -5 z m 0,0"
         id="path28" />
    </clipPath>
    <clipPath
       id="clipPath9735">
      <path
         clip-rule="nonzero"
         d="m 127,1 h 6 v 20.910156 h -6 z m 0,0"
         id="path5082" />
    </clipPath>
    <clipPath
       id="clipPath6763">
      <path
         clip-rule="nonzero"
         d="m 47,0 h 6 v 20.664062 h -6 z m 0,0"
         id="path6753" />
    </clipPath>
    <clipPath
       id="clipPath4980">
      <path
         clip-rule="nonzero"
         d="m 47,0 h 6 v 20.664062 h -6 z m 0,0"
         id="path4691" />
    </clipPath>
    <clipPath
       clipPathUnits="userSpaceOnUse"
       id="clipPath38147">
      <g
         id="g38153"
         transform="matrix(1.5041431,0,0,1.5041431,52.790632,302.7871)">
        <g
           id="g38151">
          <path
             clip-rule="nonzero"
             d="m -44.267675,-211.59296 h 13.961437 v 13.71472 h -13.961437 z m 0,0"
             id="path38149"
             style="stroke-width:0.66483" />
        </g>
      </g>
    </clipPath>
    <clipPath
       clipPathUnits="userSpaceOnUse"
       id="clipPath38155">
      <g
         id="g38161"
         transform="matrix(1.5041431,0,0,1.5041431,66.584917,302.7871)">
        <g
           id="g38159">
          <path
             clip-rule="nonzero"
             d="m -44.267675,-211.59296 h 13.961437 v 13.71472 h -13.961437 z m 0,0"
             id="path38157"
             style="stroke-width:0.66483" />
        </g>
      </g>
    </clipPath>
    <clipPath
       id="clipPath6912">
      <path
         clip-rule="nonzero"
         d="m 12,0 h 3 v 10.949219 h -3 z m 0,0"
         id="path4141" />
    </clipPath>
    <clipPath
       id="clipPath6272">
      <path
         clip-rule="nonzero"
         d="m 21,0 h 3 v 10.949219 h -3 z m 0,0"
         id="path8309" />
    </clipPath>
  </defs>
  <sodipodi:namedview
     id="namedview581"
     pagecolor="#505050"
     bordercolor="#eeeeee"
     borderopacity="1"
     inkscape:showpageshadow="0"
     inkscape:pageopacity="0"
     inkscape:pagecheckerboard="0"
     inkscape:deskcolor="#505050"
     showgrid="false"
     inkscape:zoom="5.4088087"
     inkscape:cx="47.884851"
     inkscape:cy="39.472648"
     inkscape:window-width="1916"
     inkscape:window-height="1036"
     inkscape:window-x="1920"
     inkscape:window-y="0"
     inkscape:window-maximized="1"
     inkscape:current-layer="g587">
    <inkscape:page
       x="0"
       y="0"
       id="page585"
       width="243.16469"
       height="82.375549"
       inkscape:export-filename="qpe_full.png"
       inkscape:export-xdpi="196.2"
       inkscape:export-ydpi="196.2" />
  </sodipodi:namedview>
  <g
     id="g587"
     inkscape:groupmode="layer"
     inkscape:label="Page 1"
     transform="matrix(1.33333 0 0 1.33333 101.136 306.318)">
    <g
       id="g667-3-4"
       transform="translate(-139.03789,-340.45358)">
      <path
         d="M 82.547169,151.238 H 131.65169"
         style="fill:none;stroke:#000000;stroke-width:0.749998;stroke-linecap:butt;stroke-linejoin:miter;stroke-miterlimit:4;stroke-dasharray:none;stroke-opacity:1"
         id="path669-6-6"
         sodipodi:nodetypes="cc" />
    </g>
    <g
       id="g663-6-5"
       transform="translate(-139.03789,-343.45625)">
      <path
         d="M 82.547169,143.664 H 131.65169"
         style="fill:none;stroke:#000000;stroke-width:0.749998;stroke-linecap:butt;stroke-linejoin:miter;stroke-miterlimit:4;stroke-dasharray:none;stroke-opacity:1"
         id="path665-7-9"
         sodipodi:nodetypes="cc" />
    </g>
    <g
       id="g659-7-4"
       transform="translate(-139.03789,-346.45491)">
      <path
         d="M 82.547169,136.086 H 131.65169"
         style="fill:none;stroke:#000000;stroke-width:0.749998;stroke-linecap:butt;stroke-linejoin:miter;stroke-miterlimit:4;stroke-dasharray:none;stroke-opacity:1"
         id="path661-7-0"
         sodipodi:nodetypes="cc" />
    </g>
    <g
       id="g655-5-2"
       transform="translate(-139.03789,-349.45358)">
      <path
         d="M 82.547169,128.508 H 131.65169"
         style="fill:none;stroke:#000000;stroke-width:0.749998;stroke-linecap:butt;stroke-linejoin:miter;stroke-miterlimit:4;stroke-dasharray:none;stroke-opacity:1"
         id="path657-9-5"
         sodipodi:nodetypes="cc" />
    </g>
    <g
       id="g761-7-6-2-7"
       transform="matrix(0.78156141,0,0,-0.49440238,-244.72513,-180.25059)"
       style="fill:#afe9dd">
      <path
         d="m 250.781,1.578 h 43.01268 V 99.722993 H 250.781 Z"
         style="fill:#afe9dd;fill-opacity:1;fill-rule:nonzero;stroke:#000000;stroke-width:0.749998;stroke-linecap:butt;stroke-linejoin:miter;stroke-miterlimit:4;stroke-dasharray:none;stroke-opacity:1"
         id="path763-4-9-9-4"
         sodipodi:nodetypes="ccccc" />
    </g>
    <g
       inkscape:label=""
       transform="matrix(0.750002,0,0,2.9441956,-61.188699,-224.99658)"
       id="g3366-6-9-3">
      <g
         clip-path="url(#clipPath8885-2-1-0)"
         id="g16-4-6-8"
         transform="matrix(1.33333,0,0,1.33333,-0.958333,0.0164998)">
        <g
           fill="#000000"
           fill-opacity="1"
           id="g14-9-4-0">
          <g
             id="use12-5-3-5"
             transform="translate(0,7.4720001)">
            <path
               d="m 2.828125,-6.15625 c 0,-0.390625 0.25,-1.03125 1.34375,-1.09375 C 4.21875,-7.265625 4.25,-7.3125 4.25,-7.359375 c 0,-0.125 -0.078125,-0.125 -0.1875,-0.125 -0.984375,0 -1.90625,0.515625 -1.90625,1.25 v 2.28125 c 0,0.390625 0,0.703125 -0.40625,1.03125 -0.34375,0.296875 -0.71875,0.3125 -0.9375,0.3125 C 0.75,-2.59375 0.71875,-2.546875 0.71875,-2.5 c 0,0.109375 0.0625,0.109375 0.15625,0.125 0.65625,0.03125 1.140625,0.390625 1.25,0.875 0.03125,0.109375 0.03125,0.140625 0.03125,0.5 v 1.96875 c 0,0.421875 0,0.734375 0.46875,1.109375 C 3.015625,2.375 3.671875,2.5 4.0625,2.5 4.171875,2.5 4.25,2.5 4.25,2.375 4.25,2.28125 4.203125,2.28125 4.09375,2.265625 3.46875,2.234375 2.984375,1.90625 2.84375,1.40625 2.828125,1.3125 2.828125,1.296875 2.828125,0.9375 v -2.09375 c 0,-0.453125 -0.09375,-0.625 -0.40625,-0.953125 C 2.21875,-2.3125 1.921875,-2.40625 1.640625,-2.5 c 0.828125,-0.21875 1.1875,-0.6875 1.1875,-1.265625 z m 0,0"
               id="path22-0-3-6" />
          </g>
        </g>
      </g>
    </g>
    <g
       inkscape:label=""
       transform="matrix(0.42841958,0,0,0.42841958,-75.852159,-211.29271)"
       id="g10479">
      <g
         clip-path="url(#clipPath4615)"
         id="g25"
         transform="matrix(1.33333,0,0,1.33333,-3.27083,0.00400035)">
        <g
           fill="#000000"
           fill-opacity="1"
           id="g23">
          <g
             id="use21"
             transform="translate(0,15.497)">
            <path
               d="m 3.28125,-14.75 c 0,-0.375 0,-0.75 -0.40625,-0.75 -0.421875,0 -0.421875,0.375 -0.421875,0.75 V 4.421875 c 0,0.375 0,0.75 0.421875,0.75 0.40625,0 0.40625,-0.375 0.40625,-0.75 z m 0,0"
               id="path41" />
          </g>
        </g>
      </g>
      <g
         fill="#000000"
         fill-opacity="1"
         id="g29"
         transform="matrix(1.33333,0,0,1.33333,-3.27083,0.00400035)">
        <g
           id="use27"
           transform="translate(5.7399998,15.497)">
          <path
             d="m 4.765625,-13.8125 c 0.03125,-0.09375 0.0625,-0.21875 0.0625,-0.3125 0,-0.203125 -0.203125,-0.203125 -0.25,-0.203125 -0.015625,0 -0.75,0.04687 -1.125,0.09375 -0.359375,0.01563 -0.671875,0.0625 -1.03125,0.07813 -0.5,0.04687 -0.640625,0.0625 -0.640625,0.4375 0,0.203125 0.203125,0.203125 0.40625,0.203125 1.0625,0 1.0625,0.1875 1.0625,0.40625 C 3.25,-12.96875 3.078125,-12.375 3,-12 l -0.5,1.984375 C 2.296875,-9.1875 1.109375,-4.5 1.03125,-4.125 0.921875,-3.609375 0.921875,-3.265625 0.921875,-3 c 0,2.109375 1.1875,3.203125 2.53125,3.203125 2.390625,0 4.875,-3.078125 4.875,-6.0625 0,-1.90625 -1.078125,-3.25 -2.625,-3.25 -1.078125,0 -2.046875,0.890625 -2.4375,1.296875 z M 3.46875,-0.203125 c -0.65625,0 -1.375,-0.5 -1.375,-2.109375 0,-0.6875 0.046875,-1.078125 0.421875,-2.515625 C 2.578125,-5.109375 2.90625,-6.421875 3,-6.6875 c 0.03125,-0.171875 1.25,-2.015625 2.65625,-2.015625 0.90625,0 1.328125,0.921875 1.328125,1.984375 0,1 -0.578125,3.328125 -1.09375,4.40625 C 5.375,-1.203125 4.421875,-0.203125 3.46875,-0.203125 Z m 0,0"
             id="path45" />
        </g>
      </g>
      <g
         clip-path="url(#clipPath8821)"
         id="g35"
         transform="matrix(1.33333,0,0,1.33333,-3.27083,0.00400035)">
        <g
           fill="#000000"
           fill-opacity="1"
           id="g33">
          <g
             id="use31"
             transform="translate(14.342,15.497)">
            <path
               d="M 5.640625,-4.8125 C 5.75,-5.0625 5.75,-5.109375 5.75,-5.171875 c 0,-0.046875 0,-0.09375 -0.109375,-0.34375 l -3.609375,-9.5 C 1.90625,-15.375 1.78125,-15.5 1.546875,-15.5 c -0.21875,0 -0.40625,0.1875 -0.40625,0.421875 0,0.0625 0,0.109375 0.09375,0.328125 L 4.890625,-5.171875 1.234375,4.375 c -0.09375,0.234375 -0.09375,0.265625 -0.09375,0.375 0,0.234375 0.1875,0.421875 0.40625,0.421875 0.265625,0 0.359375,-0.21875 0.4375,-0.421875 z m 0,0"
               id="path49" />
          </g>
        </g>
      </g>
    </g>
    <g
       inkscape:label=""
       transform="matrix(0.32237533,0,0,0.32237533,-60.676259,-176.82003)"
       id="g29272">
      <g
         clip-path="url(#clipPath5589)"
         id="g37"
         transform="matrix(1.33333,0,0,1.33333,-2.47917,-0.0136668)">
        <g
           fill="#000000"
           fill-opacity="1"
           id="g29221">
          <g
             id="g29219"
             transform="translate(0,15.479)">
            <path
               d="m 6.328125,5.046875 c 0,-0.03125 0,-0.0625 -0.0625,-0.125 -0.953125,-0.96875 -3.5,-3.625 -3.5,-10.0625 0,-6.453125 2.5,-9.078125 3.515625,-10.109375 0,-0.01563 0.046875,-0.0625 0.046875,-0.125 0,-0.0625 -0.0625,-0.09375 -0.15625,-0.09375 -0.21875,0 -1.984375,1.53125 -2.984375,3.796875 -1.046875,2.296875 -1.328125,4.53125 -1.328125,6.5 0,1.5 0.140625,4.015625 1.390625,6.6875 0.984375,2.140625 2.671875,3.65625 2.921875,3.65625 0.109375,0 0.15625,-0.046875 0.15625,-0.125 z m 0,0"
               id="path77" />
          </g>
        </g>
      </g>
      <g
         fill="#000000"
         fill-opacity="1"
         id="g29228"
         transform="matrix(1.33333,0,0,1.33333,-2.47917,-0.0136668)">
        <g
           id="g29226"
           transform="translate(7.3169999,15.479)">
          <path
             d="m 6.21875,-2.453125 c -0.109375,0.34375 -0.109375,0.390625 -0.390625,0.78125 -0.453125,0.578125 -1.359375,1.46875 -2.34375,1.46875 -0.84375,0 -1.3125,-0.765625 -1.3125,-1.984375 0,-1.140625 0.640625,-3.453125 1.03125,-4.3125 C 3.90625,-7.953125 4.875,-8.703125 5.6875,-8.703125 c 1.359375,0 1.625,1.703125 1.625,1.859375 0,0.03125 -0.0625,0.296875 -0.078125,0.34375 z M 7.546875,-7.75 C 7.3125,-8.28125 6.75,-9.109375 5.6875,-9.109375 c -2.34375,0 -4.859375,3.015625 -4.859375,6.078125 0,2.046875 1.203125,3.234375 2.59375,3.234375 1.140625,0 2.109375,-0.890625 2.6875,-1.5625 0.21875,1.21875 1.1875,1.5625 1.796875,1.5625 0.625,0 1.125,-0.375 1.5,-1.109375 0.328125,-0.703125 0.609375,-1.96875 0.609375,-2.046875 0,-0.109375 -0.078125,-0.1875 -0.203125,-0.1875 -0.1875,0 -0.203125,0.109375 -0.296875,0.40625 -0.296875,1.21875 -0.703125,2.53125 -1.546875,2.53125 -0.59375,0 -0.640625,-0.546875 -0.640625,-0.953125 0,-0.46875 0.0625,-0.703125 0.25,-1.515625 0.140625,-0.515625 0.25,-0.96875 0.421875,-1.5625 0.765625,-3.09375 0.9375,-3.84375 0.9375,-3.96875 0,-0.28125 -0.21875,-0.515625 -0.53125,-0.515625 C 7.75,-8.71875 7.578125,-8 7.546875,-7.75 Z m 0,0"
             id="path29224" />
        </g>
      </g>
      <g
         fill="#000000"
         fill-opacity="1"
         id="g29234"
         transform="matrix(1.33333,0,0,1.33333,-2.47917,-0.0136668)">
        <g
           id="g29232"
           transform="translate(23.6817,15.479)">
          <path
             d="m 13.609375,-10.0625 c 0.375,-0.15625 0.421875,-0.3125 0.421875,-0.4375 0,-0.21875 -0.171875,-0.390625 -0.390625,-0.390625 -0.04687,0 -0.0625,0.03125 -0.359375,0.15625 L 2.109375,-5.59375 c -0.375,0.15625 -0.421875,0.3125 -0.421875,0.421875 0,0.15625 0.03125,0.28125 0.421875,0.46875 L 13.28125,0.4375 c 0.265625,0.125 0.3125,0.140625 0.359375,0.140625 0.21875,0 0.390625,-0.171875 0.390625,-0.390625 0,-0.125 -0.04687,-0.265625 -0.421875,-0.4375 L 2.96875,-5.140625 Z m 0,0"
             id="path29230" />
        </g>
      </g>
      <g
         fill="#000000"
         fill-opacity="1"
         id="g29240"
         transform="matrix(1.33333,0,0,1.33333,-2.47917,-0.0136668)">
        <g
           id="g29238"
           transform="translate(45.162434,15.479)">
          <path
             d="m 15.28125,-11.9375 c 0.234375,-0.890625 0.5625,-1.515625 2.125,-1.578125 0.0625,0 0.3125,-0.01563 0.3125,-0.359375 0,-0.234375 -0.1875,-0.234375 -0.265625,-0.234375 -0.40625,0 -1.46875,0.04687 -1.875,0.04687 h -1 c -0.28125,0 -0.65625,-0.04687 -0.9375,-0.04687 -0.125,0 -0.375,0 -0.375,0.390625 0,0.203125 0.15625,0.203125 0.3125,0.203125 1.234375,0.04687 1.3125,0.515625 1.3125,0.890625 0,0.1875 -0.01563,0.25 -0.07813,0.546875 l -2.34375,9.3125 L 8.0625,-13.75 c -0.15625,-0.34375 -0.171875,-0.359375 -0.625,-0.359375 H 4.921875 c -0.421875,0 -0.609375,0 -0.609375,0.390625 0,0.203125 0.15625,0.203125 0.546875,0.203125 0.09375,0 1.3125,0 1.3125,0.1875 0,0.04687 -0.03125,0.21875 -0.0625,0.265625 l -2.75,10.953125 C 3.125,-1.09375 2.625,-0.65625 1.265625,-0.59375 c -0.109375,0 -0.3125,0.015625 -0.3125,0.390625 C 0.953125,0 1.15625,0 1.21875,0 1.625,0 2.6875,-0.046875 3.09375,-0.046875 h 1 C 4.375,-0.046875 4.734375,0 5.015625,0 c 0.15625,0 0.375,0 0.375,-0.390625 0,-0.1875 -0.203125,-0.203125 -0.28125,-0.203125 C 4.421875,-0.625 3.765625,-0.75 3.765625,-1.484375 3.765625,-1.65625 3.796875,-1.84375 3.84375,-2 L 6.625,-13.0625 c 0.125,0.21875 0.125,0.25 0.21875,0.4375 L 11.75,-0.375 C 11.859375,-0.125 11.890625,0 12.078125,0 c 0.21875,0 0.234375,-0.0625 0.3125,-0.40625 z m 0,0"
             id="path29236" />
        </g>
      </g>
      <g
         fill="#000000"
         fill-opacity="1"
         id="g29245"
         transform="matrix(1.33333,0,0,1.33333,-2.47917,-0.0136668)">
        <g
           id="use51"
           transform="translate(62.397026,15.479)">
          <path
             d="M 4.03125,0.078125 C 4.03125,-1.109375 3.640625,-2 2.78125,-2 2.125,-2 1.796875,-1.46875 1.796875,-1.015625 1.796875,-0.5625 2.109375,0 2.8125,0 3.078125,0 3.3125,-0.078125 3.484375,-0.265625 3.53125,-0.3125 3.546875,-0.3125 3.578125,-0.3125 c 0.03125,0 0.03125,0.296875 0.03125,0.390625 0,0.6875 -0.125,2.03125 -1.3125,3.375 C 2.0625,3.703125 2.0625,3.734375 2.0625,3.78125 c 0,0.109375 0.109375,0.203125 0.203125,0.203125 0.171875,0 1.765625,-1.53125 1.765625,-3.90625 z m 0,0"
             id="path29242" />
        </g>
      </g>
      <g
         fill="#000000"
         fill-opacity="1"
         id="g29251"
         transform="matrix(1.33333,0,0,1.33333,-2.47917,-0.0136668)">
        <g
           id="g29249"
           transform="translate(71.447205,15.479)">
          <path
             d="m 4.765625,-13.8125 c 0.03125,-0.09375 0.0625,-0.21875 0.0625,-0.3125 0,-0.203125 -0.203125,-0.203125 -0.25,-0.203125 -0.015625,0 -0.75,0.04687 -1.125,0.09375 -0.359375,0.01563 -0.671875,0.0625 -1.03125,0.07813 -0.5,0.04687 -0.640625,0.0625 -0.640625,0.4375 0,0.203125 0.203125,0.203125 0.40625,0.203125 1.0625,0 1.0625,0.1875 1.0625,0.40625 C 3.25,-12.96875 3.078125,-12.375 3,-12 l -0.5,1.984375 C 2.296875,-9.1875 1.109375,-4.5 1.03125,-4.125 0.921875,-3.609375 0.921875,-3.265625 0.921875,-3 c 0,2.109375 1.1875,3.203125 2.53125,3.203125 2.390625,0 4.875,-3.078125 4.875,-6.0625 0,-1.90625 -1.078125,-3.25 -2.625,-3.25 -1.078125,0 -2.046875,0.890625 -2.4375,1.296875 z M 3.46875,-0.203125 c -0.65625,0 -1.375,-0.5 -1.375,-2.109375 0,-0.6875 0.046875,-1.078125 0.421875,-2.515625 C 2.578125,-5.109375 2.90625,-6.421875 3,-6.6875 c 0.03125,-0.171875 1.25,-2.015625 2.65625,-2.015625 0.90625,0 1.328125,0.921875 1.328125,1.984375 0,1 -0.578125,3.328125 -1.09375,4.40625 C 5.375,-1.203125 4.421875,-0.203125 3.46875,-0.203125 Z m 0,0"
             id="path29247" />
        </g>
      </g>
      <g
         fill="#000000"
         fill-opacity="1"
         id="g29257"
         transform="matrix(1.33333,0,0,1.33333,-2.47917,-0.0136668)">
        <g
           id="g29255"
           transform="translate(85.793175,15.479)">
          <path
             d="m 13.609375,-10.0625 c 0.375,-0.15625 0.421875,-0.3125 0.421875,-0.4375 0,-0.21875 -0.171875,-0.390625 -0.390625,-0.390625 -0.04687,0 -0.0625,0.03125 -0.359375,0.15625 L 2.109375,-5.59375 c -0.375,0.15625 -0.421875,0.3125 -0.421875,0.421875 0,0.15625 0.03125,0.28125 0.421875,0.46875 L 13.28125,0.4375 c 0.265625,0.125 0.3125,0.140625 0.359375,0.140625 0.21875,0 0.390625,-0.171875 0.390625,-0.390625 0,-0.125 -0.04687,-0.265625 -0.421875,-0.4375 L 2.96875,-5.140625 Z m 0,0"
             id="path29253" />
        </g>
      </g>
      <g
         fill="#000000"
         fill-opacity="1"
         id="g29263"
         transform="matrix(1.33333,0,0,1.33333,-2.47917,-0.0136668)">
        <g
           id="g29261"
           transform="translate(107.27391,15.479)">
          <path
             d="m 15.28125,-11.9375 c 0.234375,-0.890625 0.5625,-1.515625 2.125,-1.578125 0.0625,0 0.3125,-0.01563 0.3125,-0.359375 0,-0.234375 -0.1875,-0.234375 -0.265625,-0.234375 -0.40625,0 -1.46875,0.04687 -1.875,0.04687 h -1 c -0.28125,0 -0.65625,-0.04687 -0.9375,-0.04687 -0.125,0 -0.375,0 -0.375,0.390625 0,0.203125 0.15625,0.203125 0.3125,0.203125 1.234375,0.04687 1.3125,0.515625 1.3125,0.890625 0,0.1875 -0.01563,0.25 -0.07813,0.546875 l -2.34375,9.3125 L 8.0625,-13.75 c -0.15625,-0.34375 -0.171875,-0.359375 -0.625,-0.359375 H 4.921875 c -0.421875,0 -0.609375,0 -0.609375,0.390625 0,0.203125 0.15625,0.203125 0.546875,0.203125 0.09375,0 1.3125,0 1.3125,0.1875 0,0.04687 -0.03125,0.21875 -0.0625,0.265625 l -2.75,10.953125 C 3.125,-1.09375 2.625,-0.65625 1.265625,-0.59375 c -0.109375,0 -0.3125,0.015625 -0.3125,0.390625 C 0.953125,0 1.15625,0 1.21875,0 1.625,0 2.6875,-0.046875 3.09375,-0.046875 h 1 C 4.375,-0.046875 4.734375,0 5.015625,0 c 0.15625,0 0.375,0 0.375,-0.390625 0,-0.1875 -0.203125,-0.203125 -0.28125,-0.203125 C 4.421875,-0.625 3.765625,-0.75 3.765625,-1.484375 3.765625,-1.65625 3.796875,-1.84375 3.84375,-2 L 6.625,-13.0625 c 0.125,0.21875 0.125,0.25 0.21875,0.4375 L 11.75,-0.375 C 11.859375,-0.125 11.890625,0 12.078125,0 c 0.21875,0 0.234375,-0.0625 0.3125,-0.40625 z m 0,0"
             id="path29259" />
        </g>
      </g>
      <g
         clip-path="url(#clipPath8380)"
         id="g71"
         transform="matrix(1.33333,0,0,1.33333,-2.47917,-0.0136668)">
        <g
           fill="#000000"
           fill-opacity="1"
           id="g29269">
          <g
             id="g29267"
             transform="translate(125.628,15.479)">
            <path
               d="m 5.4375,-5.140625 c 0,-1.484375 -0.15625,-4.015625 -1.390625,-6.671875 -0.984375,-2.15625 -2.6875,-3.65625 -2.9375,-3.65625 -0.0625,0 -0.140625,0.01563 -0.140625,0.125 0,0.03125 0.015625,0.0625 0.046875,0.09375 C 2,-14.21875 4.53125,-11.59375 4.53125,-5.171875 4.53125,1.28125 2.03125,3.90625 1.015625,4.9375 0.984375,4.984375 0.96875,5 0.96875,5.046875 c 0,0.09375 0.078125,0.125 0.140625,0.125 0.234375,0 1.984375,-1.53125 3,-3.8125 1.03125,-2.28125 1.328125,-4.515625 1.328125,-6.5 z m 0,0"
               id="path29265" />
          </g>
        </g>
      </g>
    </g>
    <g
       inkscape:label=""
       transform="matrix(0.4147793,0,0,0.4147793,-1.0035098,-221.92724)"
       id="g34988">
      <g
         clip-path="url(#clipPath8007)"
         id="g31"
         transform="matrix(1.33333,0,0,1.33333,-3.27083,0.00400035)">
        <g
           fill="#000000"
           fill-opacity="1"
           id="g34971">
          <g
             id="g34969"
             transform="translate(0,15.497)">
            <path
               d="m 3.28125,-14.75 c 0,-0.375 0,-0.75 -0.40625,-0.75 -0.421875,0 -0.421875,0.375 -0.421875,0.75 V 4.421875 c 0,0.375 0,0.75 0.421875,0.75 0.40625,0 0.40625,-0.375 0.40625,-0.75 z m 0,0"
               id="path55" />
          </g>
        </g>
      </g>
      <g
         fill="#000000"
         fill-opacity="1"
         id="g34976"
         transform="matrix(1.33333,0,0,1.33333,-3.27083,0.00400035)">
        <g
           id="use33"
           transform="translate(5.7399998,15.497)">
          <path
             d="m 4.765625,-13.8125 c 0.03125,-0.09375 0.0625,-0.21875 0.0625,-0.3125 0,-0.203125 -0.203125,-0.203125 -0.25,-0.203125 -0.015625,0 -0.75,0.04687 -1.125,0.09375 -0.359375,0.01563 -0.671875,0.0625 -1.03125,0.07813 -0.5,0.04687 -0.640625,0.0625 -0.640625,0.4375 0,0.203125 0.203125,0.203125 0.40625,0.203125 1.0625,0 1.0625,0.1875 1.0625,0.40625 C 3.25,-12.96875 3.078125,-12.375 3,-12 l -0.5,1.984375 C 2.296875,-9.1875 1.109375,-4.5 1.03125,-4.125 0.921875,-3.609375 0.921875,-3.265625 0.921875,-3 c 0,2.109375 1.1875,3.203125 2.53125,3.203125 2.390625,0 4.875,-3.078125 4.875,-6.0625 0,-1.90625 -1.078125,-3.25 -2.625,-3.25 -1.078125,0 -2.046875,0.890625 -2.4375,1.296875 z M 3.46875,-0.203125 c -0.65625,0 -1.375,-0.5 -1.375,-2.109375 0,-0.6875 0.046875,-1.078125 0.421875,-2.515625 C 2.578125,-5.109375 2.90625,-6.421875 3,-6.6875 c 0.03125,-0.171875 1.25,-2.015625 2.65625,-2.015625 0.90625,0 1.328125,0.921875 1.328125,1.984375 0,1 -0.578125,3.328125 -1.09375,4.40625 C 5.375,-1.203125 4.421875,-0.203125 3.46875,-0.203125 Z m 0,0"
             id="path59" />
        </g>
      </g>
      <g
         fill="#000000"
         fill-opacity="1"
         id="g39"
         transform="matrix(1.33333,0,0,1.33333,-3.27083,0.00400035)">
        <g
           id="use37"
           transform="translate(18.933001,15.497)">
          <path
             d="m 13.609375,-4.75 c 0.359375,0 0.71875,0 0.71875,-0.421875 0,-0.40625 -0.359375,-0.40625 -0.71875,-0.40625 H 2.4375 c -0.34375,0 -0.71875,0 -0.71875,0.40625 0,0.421875 0.375,0.421875 0.71875,0.421875 z m 0,0"
             id="path63" />
        </g>
      </g>
      <g
         fill="#000000"
         fill-opacity="1"
         id="g43"
         transform="matrix(1.33333,0,0,1.33333,-3.27083,0.00400035)">
        <g
           id="use41"
           transform="translate(39.596001,15.497)">
          <path
             d="m 6.21875,-2.453125 c -0.109375,0.34375 -0.109375,0.390625 -0.390625,0.78125 -0.453125,0.578125 -1.359375,1.46875 -2.34375,1.46875 -0.84375,0 -1.3125,-0.765625 -1.3125,-1.984375 0,-1.140625 0.640625,-3.453125 1.03125,-4.3125 C 3.90625,-7.953125 4.875,-8.703125 5.6875,-8.703125 c 1.359375,0 1.625,1.703125 1.625,1.859375 0,0.03125 -0.0625,0.296875 -0.078125,0.34375 z M 7.546875,-7.75 C 7.3125,-8.28125 6.75,-9.109375 5.6875,-9.109375 c -2.34375,0 -4.859375,3.015625 -4.859375,6.078125 0,2.046875 1.203125,3.234375 2.59375,3.234375 1.140625,0 2.109375,-0.890625 2.6875,-1.5625 0.21875,1.21875 1.1875,1.5625 1.796875,1.5625 0.625,0 1.125,-0.375 1.5,-1.109375 0.328125,-0.703125 0.609375,-1.96875 0.609375,-2.046875 0,-0.109375 -0.078125,-0.1875 -0.203125,-0.1875 -0.1875,0 -0.203125,0.109375 -0.296875,0.40625 -0.296875,1.21875 -0.703125,2.53125 -1.546875,2.53125 -0.59375,0 -0.640625,-0.546875 -0.640625,-0.953125 0,-0.46875 0.0625,-0.703125 0.25,-1.515625 0.140625,-0.515625 0.25,-0.96875 0.421875,-1.5625 0.765625,-3.09375 0.9375,-3.84375 0.9375,-3.96875 0,-0.28125 -0.21875,-0.515625 -0.53125,-0.515625 C 7.75,-8.71875 7.578125,-8 7.546875,-7.75 Z m 0,0"
             id="path67" />
        </g>
      </g>
      <g
         clip-path="url(#clipPath3082)"
         id="g49"
         transform="matrix(1.33333,0,0,1.33333,-3.27083,0.00400035)">
        <g
           fill="#000000"
           fill-opacity="1"
           id="g47">
          <g
             id="use45"
             transform="translate(50.216,15.497)">
            <path
               d="M 5.640625,-4.8125 C 5.75,-5.0625 5.75,-5.109375 5.75,-5.171875 c 0,-0.046875 0,-0.09375 -0.109375,-0.34375 l -3.609375,-9.5 C 1.90625,-15.375 1.78125,-15.5 1.546875,-15.5 c -0.21875,0 -0.40625,0.1875 -0.40625,0.421875 0,0.0625 0,0.109375 0.09375,0.328125 L 4.890625,-5.171875 1.234375,4.375 c -0.09375,0.234375 -0.09375,0.265625 -0.09375,0.375 0,0.234375 0.1875,0.421875 0.40625,0.421875 0.265625,0 0.359375,-0.21875 0.4375,-0.421875 z m 0,0"
               id="path71" />
          </g>
        </g>
      </g>
    </g>
    <g
       inkscape:label=""
       transform="matrix(0.4147793,0,0,0.4147793,-1.0035098,-201.31202)"
       id="g35988">
      <g
         clip-path="url(#clipPath3435)"
         id="g55"
         transform="matrix(1.33333,0,0,1.33333,-3.27083,0.381667)">
        <g
           fill="#000000"
           fill-opacity="1"
           id="g53">
          <g
             id="g35949"
             transform="translate(0,16.743)">
            <path
               d="m 3.28125,-14.75 c 0,-0.375 0,-0.75 -0.40625,-0.75 -0.421875,0 -0.421875,0.375 -0.421875,0.75 V 4.421875 c 0,0.375 0,0.75 0.421875,0.75 0.40625,0 0.40625,-0.375 0.40625,-0.75 z m 0,0"
               id="path109" />
          </g>
        </g>
      </g>
      <g
         fill="#000000"
         fill-opacity="1"
         id="g59"
         transform="matrix(1.33333,0,0,1.33333,-3.27083,0.381667)">
        <g
           id="use57"
           transform="translate(5.7399998,16.743)">
          <path
             d="m 8.609375,-3.203125 h -0.375 c -0.203125,1.46875 -0.359375,1.71875 -0.453125,1.84375 -0.09375,0.15625 -1.578125,0.15625 -1.875,0.15625 H 1.9375 C 2.6875,-2 4.125,-3.46875 5.890625,-5.171875 c 1.25,-1.1875 2.71875,-2.59375 2.71875,-4.640625 0,-2.4375 -1.9375,-3.84375 -4.109375,-3.84375 -2.265625,0 -3.65625,2 -3.65625,3.859375 0,0.8125 0.609375,0.921875 0.84375,0.921875 0.21875,0 0.828125,-0.125 0.828125,-0.859375 0,-0.640625 -0.53125,-0.828125 -0.828125,-0.828125 -0.125,0 -0.234375,0.03125 -0.328125,0.0625 0.390625,-1.75 1.59375,-2.609375 2.859375,-2.609375 1.796875,0 2.96875,1.421875 2.96875,3.296875 0,1.796875 -1.046875,3.34375 -2.234375,4.6875 L 0.84375,-0.46875 V 0 H 8.125 Z m 0,0"
             id="path113" />
        </g>
      </g>
      <g
         fill="#000000"
         fill-opacity="1"
         id="g63"
         transform="matrix(1.33333,0,0,1.33333,-3.27083,0.381667)">
        <g
           id="use61"
           transform="translate(15.216,9.2449999)">
          <path
             d="M 2.953125,-4.203125 C 2.984375,-4.28125 3.34375,-5 3.875,-5.46875 c 0.375,-0.34375 0.859375,-0.5625 1.421875,-0.5625 0.5625,0 0.765625,0.421875 0.765625,1 0,0.8125 -0.578125,2.453125 -0.875,3.21875 -0.125,0.34375 -0.203125,0.53125 -0.203125,0.796875 0,0.640625 0.453125,1.15625 1.140625,1.15625 1.328125,0 1.828125,-2.109375 1.828125,-2.1875 C 7.953125,-2.125 7.90625,-2.1875 7.8125,-2.1875 c -0.125,0 -0.140625,0.046875 -0.203125,0.296875 -0.34375,1.171875 -0.875,1.75 -1.4375,1.75 -0.140625,0 -0.375,-0.015625 -0.375,-0.46875 0,-0.359375 0.15625,-0.796875 0.234375,-1 C 6.328125,-2.390625 6.921875,-4 6.921875,-4.8125 c 0,-0.875 -0.5,-1.515625 -1.59375,-1.515625 -1.265625,0 -1.9375,0.90625 -2.203125,1.265625 C 3.078125,-5.875 2.5,-6.328125 1.859375,-6.328125 c -0.453125,0 -0.765625,0.28125 -1.015625,0.765625 -0.25,0.515625 -0.453125,1.375 -0.453125,1.4375 0,0.046875 0.046875,0.125 0.15625,0.125 0.109375,0 0.125,-0.015625 0.21875,-0.34375 0.21875,-0.875 0.484375,-1.6875 1.0625,-1.6875 0.328125,0 0.4375,0.21875 0.4375,0.65625 0,0.3125 -0.140625,0.875 -0.25,1.3125 L 1.625,-2.515625 c -0.0625,0.28125 -0.21875,0.921875 -0.296875,1.1875 -0.09375,0.359375 -0.25,1.046875 -0.25,1.109375 0,0.203125 0.15625,0.359375 0.375,0.359375 0.171875,0 0.375,-0.078125 0.484375,-0.296875 0.03125,-0.078125 0.15625,-0.578125 0.234375,-0.859375 l 0.3125,-1.296875 z m 0,0"
             id="path117" />
        </g>
      </g>
      <g
         fill="#000000"
         fill-opacity="1"
         id="g69"
         transform="matrix(1.33333,0,0,1.33333,-3.27083,0.381667)">
        <g
           id="use65"
           transform="translate(23.601,9.2449999)">
          <path
             d="M 5.71875,-3.3125 H 9.6875 c 0.203125,0 0.453125,0 0.453125,-0.265625 0,-0.265625 -0.25,-0.265625 -0.453125,-0.265625 H 5.71875 v -3.953125 c 0,-0.203125 0,-0.46875 -0.25,-0.46875 -0.28125,0 -0.28125,0.25 -0.28125,0.46875 V -3.84375 H 1.234375 c -0.203125,0 -0.453125,0 -0.453125,0.265625 0,0.265625 0.234375,0.265625 0.453125,0.265625 H 5.1875 v 3.953125 c 0,0.203125 0,0.46875 0.265625,0.46875 0.265625,0 0.265625,-0.25 0.265625,-0.46875 z m 0,0"
             id="path121" />
        </g>
        <g
           id="use67"
           transform="translate(34.527065,9.2449999)">
          <path
             d="m 4.125,-9.1875 c 0,-0.34375 0,-0.34375 -0.28125,-0.34375 C 3.5,-9.15625 2.78125,-8.625 1.3125,-8.625 v 0.421875 c 0.328125,0 1.046875,0 1.828125,-0.375 v 7.46875 c 0,0.515625 -0.046875,0.6875 -1.296875,0.6875 H 1.390625 V 0 c 0.390625,-0.03125 1.78125,-0.03125 2.25,-0.03125 0.46875,0 1.859375,0 2.234375,0.03125 V -0.421875 H 5.4375 c -1.265625,0 -1.3125,-0.171875 -1.3125,-0.6875 z m 0,0"
             id="path125" />
        </g>
      </g>
      <g
         fill="#000000"
         fill-opacity="1"
         id="g73"
         transform="matrix(1.33333,0,0,1.33333,-3.27083,0.381667)">
        <g
           id="use71"
           transform="translate(46.639999,16.743)">
          <path
             d="m 13.609375,-4.75 c 0.359375,0 0.71875,0 0.71875,-0.421875 0,-0.40625 -0.359375,-0.40625 -0.71875,-0.40625 H 2.4375 c -0.34375,0 -0.71875,0 -0.71875,0.40625 0,0.421875 0.375,0.421875 0.71875,0.421875 z m 0,0"
             id="path129" />
        </g>
      </g>
      <g
         clip-path="url(#clipPath1638)"
         id="g79"
         transform="matrix(1.33333,0,0,1.33333,-3.27083,0.381667)">
        <g
           fill="#000000"
           fill-opacity="1"
           id="g77">
          <g
             id="use75"
             transform="translate(67.302002,16.743)">
            <path
               d="m 6.328125,5.046875 c 0,-0.03125 0,-0.0625 -0.0625,-0.125 -0.953125,-0.96875 -3.5,-3.625 -3.5,-10.0625 0,-6.453125 2.5,-9.078125 3.515625,-10.109375 0,-0.01563 0.046875,-0.0625 0.046875,-0.125 0,-0.0625 -0.0625,-0.09375 -0.15625,-0.09375 -0.21875,0 -1.984375,1.53125 -2.984375,3.796875 -1.046875,2.296875 -1.328125,4.53125 -1.328125,6.5 0,1.5 0.140625,4.015625 1.390625,6.6875 0.984375,2.140625 2.671875,3.65625 2.921875,3.65625 0.109375,0 0.15625,-0.046875 0.15625,-0.125 z m 0,0"
               id="path133" />
          </g>
        </g>
      </g>
      <g
         fill="#000000"
         fill-opacity="1"
         id="g83"
         transform="matrix(1.33333,0,0,1.33333,-3.27083,0.381667)">
        <g
           id="use81"
           transform="translate(74.620003,16.743)">
          <path
             d="m 4.765625,-13.8125 c 0.03125,-0.09375 0.0625,-0.21875 0.0625,-0.3125 0,-0.203125 -0.203125,-0.203125 -0.25,-0.203125 -0.015625,0 -0.75,0.04687 -1.125,0.09375 -0.359375,0.01563 -0.671875,0.0625 -1.03125,0.07813 -0.5,0.04687 -0.640625,0.0625 -0.640625,0.4375 0,0.203125 0.203125,0.203125 0.40625,0.203125 1.0625,0 1.0625,0.1875 1.0625,0.40625 C 3.25,-12.96875 3.078125,-12.375 3,-12 l -0.5,1.984375 C 2.296875,-9.1875 1.109375,-4.5 1.03125,-4.125 0.921875,-3.609375 0.921875,-3.265625 0.921875,-3 c 0,2.109375 1.1875,3.203125 2.53125,3.203125 2.390625,0 4.875,-3.078125 4.875,-6.0625 0,-1.90625 -1.078125,-3.25 -2.625,-3.25 -1.078125,0 -2.046875,0.890625 -2.4375,1.296875 z M 3.46875,-0.203125 c -0.65625,0 -1.375,-0.5 -1.375,-2.109375 0,-0.6875 0.046875,-1.078125 0.421875,-2.515625 C 2.578125,-5.109375 2.90625,-6.421875 3,-6.6875 c 0.03125,-0.171875 1.25,-2.015625 2.65625,-2.015625 0.90625,0 1.328125,0.921875 1.328125,1.984375 0,1 -0.578125,3.328125 -1.09375,4.40625 C 5.375,-1.203125 4.421875,-0.203125 3.46875,-0.203125 Z m 0,0"
             id="path137" />
        </g>
      </g>
      <g
         fill="#000000"
         fill-opacity="1"
         id="g87"
         transform="matrix(1.33333,0,0,1.33333,-3.27083,0.381667)">
        <g
           id="use85"
           transform="translate(87.813004,16.743)">
          <path
             d="m 13.609375,-4.75 c 0.359375,0 0.71875,0 0.71875,-0.421875 0,-0.40625 -0.359375,-0.40625 -0.71875,-0.40625 H 2.4375 c -0.34375,0 -0.71875,0 -0.71875,0.40625 0,0.421875 0.375,0.421875 0.71875,0.421875 z m 0,0"
             id="path141" />
        </g>
      </g>
      <g
         fill="#000000"
         fill-opacity="1"
         id="g91"
         transform="matrix(1.33333,0,0,1.33333,-3.27083,0.381667)">
        <g
           id="use89"
           transform="translate(108.476,16.743)">
          <path
             d="m 6.21875,-2.453125 c -0.109375,0.34375 -0.109375,0.390625 -0.390625,0.78125 -0.453125,0.578125 -1.359375,1.46875 -2.34375,1.46875 -0.84375,0 -1.3125,-0.765625 -1.3125,-1.984375 0,-1.140625 0.640625,-3.453125 1.03125,-4.3125 C 3.90625,-7.953125 4.875,-8.703125 5.6875,-8.703125 c 1.359375,0 1.625,1.703125 1.625,1.859375 0,0.03125 -0.0625,0.296875 -0.078125,0.34375 z M 7.546875,-7.75 C 7.3125,-8.28125 6.75,-9.109375 5.6875,-9.109375 c -2.34375,0 -4.859375,3.015625 -4.859375,6.078125 0,2.046875 1.203125,3.234375 2.59375,3.234375 1.140625,0 2.109375,-0.890625 2.6875,-1.5625 0.21875,1.21875 1.1875,1.5625 1.796875,1.5625 0.625,0 1.125,-0.375 1.5,-1.109375 0.328125,-0.703125 0.609375,-1.96875 0.609375,-2.046875 0,-0.109375 -0.078125,-0.1875 -0.203125,-0.1875 -0.1875,0 -0.203125,0.109375 -0.296875,0.40625 -0.296875,1.21875 -0.703125,2.53125 -1.546875,2.53125 -0.59375,0 -0.640625,-0.546875 -0.640625,-0.953125 0,-0.46875 0.0625,-0.703125 0.25,-1.515625 0.140625,-0.515625 0.25,-0.96875 0.421875,-1.5625 0.765625,-3.09375 0.9375,-3.84375 0.9375,-3.96875 0,-0.28125 -0.21875,-0.515625 -0.53125,-0.515625 C 7.75,-8.71875 7.578125,-8 7.546875,-7.75 Z m 0,0"
             id="path145" />
        </g>
      </g>
      <g
         clip-path="url(#clipPath6062)"
         id="g97"
         transform="matrix(1.33333,0,0,1.33333,-3.27083,0.381667)">
        <g
           fill="#000000"
           fill-opacity="1"
           id="g95">
          <g
             id="use93"
             transform="translate(119.097,16.743)">
            <path
               d="m 5.4375,-5.140625 c 0,-1.484375 -0.15625,-4.015625 -1.390625,-6.671875 -0.984375,-2.15625 -2.6875,-3.65625 -2.9375,-3.65625 -0.0625,0 -0.140625,0.01563 -0.140625,0.125 0,0.03125 0.015625,0.0625 0.046875,0.09375 C 2,-14.21875 4.53125,-11.59375 4.53125,-5.171875 4.53125,1.28125 2.03125,3.90625 1.015625,4.9375 0.984375,4.984375 0.96875,5 0.96875,5.046875 c 0,0.09375 0.078125,0.125 0.140625,0.125 0.234375,0 1.984375,-1.53125 3,-3.8125 1.03125,-2.28125 1.328125,-4.515625 1.328125,-6.5 z m 0,0"
               id="path149" />
          </g>
        </g>
      </g>
      <g
         clip-path="url(#clipPath9735)"
         id="g103"
         transform="matrix(1.33333,0,0,1.33333,-3.27083,0.381667)">
        <g
           fill="#000000"
           fill-opacity="1"
           id="g101">
          <g
             id="use99"
             transform="translate(126.414,16.743)">
            <path
               d="M 5.640625,-4.8125 C 5.75,-5.0625 5.75,-5.109375 5.75,-5.171875 c 0,-0.046875 0,-0.09375 -0.109375,-0.34375 l -3.609375,-9.5 C 1.90625,-15.375 1.78125,-15.5 1.546875,-15.5 c -0.21875,0 -0.40625,0.1875 -0.40625,0.421875 0,0.0625 0,0.109375 0.09375,0.328125 L 4.890625,-5.171875 1.234375,4.375 c -0.09375,0.234375 -0.09375,0.265625 -0.09375,0.375 0,0.234375 0.1875,0.421875 0.40625,0.421875 0.265625,0 0.359375,-0.21875 0.4375,-0.421875 z m 0,0"
               id="path153" />
          </g>
        </g>
      </g>
    </g>
    <g
       id="g38107"
       transform="translate(81.587272,-81.201177)">
      <g
         fill="#000000"
         fill-opacity="1"
         id="g36994"
         transform="matrix(0.55303768,0,0,0.55303768,-0.59788757,-140.40086)">
        <g
           id="g36992"
           transform="translate(0,15.497)">
          <path
             d="m 4.765625,-13.8125 c 0.03125,-0.09375 0.0625,-0.21875 0.0625,-0.3125 0,-0.203125 -0.203125,-0.203125 -0.25,-0.203125 -0.015625,0 -0.75,0.04687 -1.125,0.09375 -0.359375,0.01563 -0.671875,0.0625 -1.03125,0.07813 -0.5,0.04687 -0.640625,0.0625 -0.640625,0.4375 0,0.203125 0.203125,0.203125 0.40625,0.203125 1.0625,0 1.0625,0.1875 1.0625,0.40625 C 3.25,-12.96875 3.078125,-12.375 3,-12 l -0.5,1.984375 C 2.296875,-9.1875 1.109375,-4.5 1.03125,-4.125 0.921875,-3.609375 0.921875,-3.265625 0.921875,-3 c 0,2.109375 1.1875,3.203125 2.53125,3.203125 2.390625,0 4.875,-3.078125 4.875,-6.0625 0,-1.90625 -1.078125,-3.25 -2.625,-3.25 -1.078125,0 -2.046875,0.890625 -2.4375,1.296875 z M 3.46875,-0.203125 c -0.65625,0 -1.375,-0.5 -1.375,-2.109375 0,-0.6875 0.046875,-1.078125 0.421875,-2.515625 C 2.578125,-5.109375 2.90625,-6.421875 3,-6.6875 c 0.03125,-0.171875 1.25,-2.015625 2.65625,-2.015625 0.90625,0 1.328125,0.921875 1.328125,1.984375 0,1 -0.578125,3.328125 -1.09375,4.40625 C 5.375,-1.203125 4.421875,-0.203125 3.46875,-0.203125 Z m 0,0"
             id="path43" />
        </g>
      </g>
      <g
         fill="#000000"
         fill-opacity="1"
         id="g27"
         transform="matrix(0.55303768,0,0,0.55303768,-0.59788757,-140.40086)">
        <g
           id="use25"
           transform="translate(14.342,15.497)">
          <path
             d="m 13.921875,-6.6875 c 0.296875,-0.125 0.40625,-0.28125 0.40625,-0.453125 0,-0.21875 -0.07813,-0.34375 -0.40625,-0.484375 L 2.546875,-13 C 2.25,-13.140625 2.171875,-13.140625 2.125,-13.140625 c -0.25,0 -0.40625,0.1875 -0.40625,0.421875 0,0.25 0.15625,0.34375 0.390625,0.453125 l 10.84375,5.09375 -10.8125,5.109375 c -0.40625,0.1875 -0.421875,0.34375 -0.421875,0.46875 0,0.234375 0.1875,0.421875 0.40625,0.421875 0.0625,0 0.109375,0 0.375,-0.15625 z m -0.3125,9.515625 c 0.359375,0 0.71875,0 0.71875,-0.40625 C 14.328125,2 13.90625,2 13.59375,2 H 2.453125 C 2.140625,2 1.71875,2 1.71875,2.421875 c 0,0.40625 0.375,0.40625 0.71875,0.40625 z m 0,0"
             id="path47" />
        </g>
      </g>
      <g
         fill="#000000"
         fill-opacity="1"
         id="g37001"
         transform="matrix(0.55303768,0,0,0.55303768,-0.59788757,-140.40086)">
        <g
           id="use29"
           transform="translate(36.152,15.497)">
          <path
             d="m 6.21875,-2.453125 c -0.109375,0.34375 -0.109375,0.390625 -0.390625,0.78125 -0.453125,0.578125 -1.359375,1.46875 -2.34375,1.46875 -0.84375,0 -1.3125,-0.765625 -1.3125,-1.984375 0,-1.140625 0.640625,-3.453125 1.03125,-4.3125 C 3.90625,-7.953125 4.875,-8.703125 5.6875,-8.703125 c 1.359375,0 1.625,1.703125 1.625,1.859375 0,0.03125 -0.0625,0.296875 -0.078125,0.34375 z M 7.546875,-7.75 C 7.3125,-8.28125 6.75,-9.109375 5.6875,-9.109375 c -2.34375,0 -4.859375,3.015625 -4.859375,6.078125 0,2.046875 1.203125,3.234375 2.59375,3.234375 1.140625,0 2.109375,-0.890625 2.6875,-1.5625 0.21875,1.21875 1.1875,1.5625 1.796875,1.5625 0.625,0 1.125,-0.375 1.5,-1.109375 0.328125,-0.703125 0.609375,-1.96875 0.609375,-2.046875 0,-0.109375 -0.078125,-0.1875 -0.203125,-0.1875 -0.1875,0 -0.203125,0.109375 -0.296875,0.40625 -0.296875,1.21875 -0.703125,2.53125 -1.546875,2.53125 -0.59375,0 -0.640625,-0.546875 -0.640625,-0.953125 0,-0.46875 0.0625,-0.703125 0.25,-1.515625 0.140625,-0.515625 0.25,-0.96875 0.421875,-1.5625 0.765625,-3.09375 0.9375,-3.84375 0.9375,-3.96875 0,-0.28125 -0.21875,-0.515625 -0.53125,-0.515625 C 7.75,-8.71875 7.578125,-8 7.546875,-7.75 Z m 0,0"
             id="path51" />
        </g>
      </g>
    </g>
    <g
       id="g38083"
       transform="translate(44.834613,18.273634)">
      <g
         fill="#000000"
         fill-opacity="1"
         id="g38018"
         transform="matrix(0.55303768,0,0,0.55303768,36.24472,-218.21622)">
        <g
           id="g38016"
           transform="translate(0,15.497)">
          <path
             d="m 4.765625,-13.8125 c 0.03125,-0.09375 0.0625,-0.21875 0.0625,-0.3125 0,-0.203125 -0.203125,-0.203125 -0.25,-0.203125 -0.015625,0 -0.75,0.04687 -1.125,0.09375 -0.359375,0.01563 -0.671875,0.0625 -1.03125,0.07813 -0.5,0.04687 -0.640625,0.0625 -0.640625,0.4375 0,0.203125 0.203125,0.203125 0.40625,0.203125 1.0625,0 1.0625,0.1875 1.0625,0.40625 C 3.25,-12.96875 3.078125,-12.375 3,-12 l -0.5,1.984375 C 2.296875,-9.1875 1.109375,-4.5 1.03125,-4.125 0.921875,-3.609375 0.921875,-3.265625 0.921875,-3 c 0,2.109375 1.1875,3.203125 2.53125,3.203125 2.390625,0 4.875,-3.078125 4.875,-6.0625 0,-1.90625 -1.078125,-3.25 -2.625,-3.25 -1.078125,0 -2.046875,0.890625 -2.4375,1.296875 z M 3.46875,-0.203125 c -0.65625,0 -1.375,-0.5 -1.375,-2.109375 0,-0.6875 0.046875,-1.078125 0.421875,-2.515625 C 2.578125,-5.109375 2.90625,-6.421875 3,-6.6875 c 0.03125,-0.171875 1.25,-2.015625 2.65625,-2.015625 0.90625,0 1.328125,0.921875 1.328125,1.984375 0,1 -0.578125,3.328125 -1.09375,4.40625 C 5.375,-1.203125 4.421875,-0.203125 3.46875,-0.203125 Z m 0,0"
             id="path38014" />
        </g>
      </g>
      <g
         fill="#000000"
         fill-opacity="1"
         id="g38024"
         transform="matrix(0.55303768,0,0,0.55303768,36.24472,-218.21622)">
        <g
           id="g38022"
           transform="translate(14.345974,15.497)">
          <path
             d="m 13.609375,-10.0625 c 0.375,-0.15625 0.421875,-0.3125 0.421875,-0.4375 0,-0.21875 -0.171875,-0.390625 -0.390625,-0.390625 -0.04687,0 -0.0625,0.03125 -0.359375,0.15625 L 2.109375,-5.59375 c -0.375,0.15625 -0.421875,0.3125 -0.421875,0.421875 0,0.15625 0.03125,0.28125 0.421875,0.46875 L 13.28125,0.4375 c 0.265625,0.125 0.3125,0.140625 0.359375,0.140625 0.21875,0 0.390625,-0.171875 0.390625,-0.390625 0,-0.125 -0.04687,-0.265625 -0.421875,-0.4375 L 2.96875,-5.140625 Z m 0,0"
             id="path38020" />
        </g>
      </g>
      <g
         fill="#000000"
         fill-opacity="1"
         id="g38030"
         transform="matrix(0.55303768,0,0,0.55303768,36.24472,-218.21622)">
        <g
           id="g38028"
           transform="translate(35.82671,15.497)">
          <path
             d="m 6.21875,-2.453125 c -0.109375,0.34375 -0.109375,0.390625 -0.390625,0.78125 -0.453125,0.578125 -1.359375,1.46875 -2.34375,1.46875 -0.84375,0 -1.3125,-0.765625 -1.3125,-1.984375 0,-1.140625 0.640625,-3.453125 1.03125,-4.3125 C 3.90625,-7.953125 4.875,-8.703125 5.6875,-8.703125 c 1.359375,0 1.625,1.703125 1.625,1.859375 0,0.03125 -0.0625,0.296875 -0.078125,0.34375 z M 7.546875,-7.75 C 7.3125,-8.28125 6.75,-9.109375 5.6875,-9.109375 c -2.34375,0 -4.859375,3.015625 -4.859375,6.078125 0,2.046875 1.203125,3.234375 2.59375,3.234375 1.140625,0 2.109375,-0.890625 2.6875,-1.5625 0.21875,1.21875 1.1875,1.5625 1.796875,1.5625 0.625,0 1.125,-0.375 1.5,-1.109375 0.328125,-0.703125 0.609375,-1.96875 0.609375,-2.046875 0,-0.109375 -0.078125,-0.1875 -0.203125,-0.1875 -0.1875,0 -0.203125,0.109375 -0.296875,0.40625 -0.296875,1.21875 -0.703125,2.53125 -1.546875,2.53125 -0.59375,0 -0.640625,-0.546875 -0.640625,-0.953125 0,-0.46875 0.0625,-0.703125 0.25,-1.515625 0.140625,-0.515625 0.25,-0.96875 0.421875,-1.5625 0.765625,-3.09375 0.9375,-3.84375 0.9375,-3.96875 0,-0.28125 -0.21875,-0.515625 -0.53125,-0.515625 C 7.75,-8.71875 7.578125,-8 7.546875,-7.75 Z m 0,0"
             id="path38026" />
        </g>
      </g>
    </g>
    <g
       inkscape:label=""
       transform="matrix(0.96493247,0,0,0.96493247,-46.582466,-212.37649)"
       id="g128082">
      <g
         fill="#000000"
         fill-opacity="1"
         id="g128053"
         transform="matrix(1.33333,0,0,1.33333,-0.75,0.0843334)">
        <g
           id="g128051"
           transform="translate(0,8.4580002)">
          <path
             d="M 3.984375,-1.34375 C 5.515625,-1.46875 6.625,-2.390625 6.625,-3.40625 6.625,-4.4375 5.5,-5.34375 3.984375,-5.46875 v -0.546875 c 0,-0.34375 0,-0.484375 0.9375,-0.484375 H 5.25 v -0.3125 c -0.359375,0.03125 -1.265625,0.03125 -1.6875,0.03125 -0.40625,0 -1.328125,0 -1.6875,-0.03125 V -6.5 h 0.328125 c 0.953125,0 0.953125,0.125 0.953125,0.484375 V -5.46875 C 1.625,-5.3125 0.5625,-4.390625 0.5625,-3.40625 c 0,1.03125 1.109375,1.90625 2.59375,2.0625 v 0.5625 c 0,0.328125 0,0.46875 -0.953125,0.46875 H 1.875 V 0 c 0.359375,-0.03125 1.28125,-0.03125 1.6875,-0.03125 0.40625,0 1.328125,0 1.6875,0.03125 V -0.3125 H 4.921875 c -0.9375,0 -0.9375,-0.125 -0.9375,-0.46875 z M 3.15625,-1.578125 C 1.734375,-1.765625 1.5625,-2.78125 1.5625,-3.40625 c 0,-0.515625 0.09375,-1.625 1.59375,-1.828125 z M 3.984375,-5.25 c 1.375,0.171875 1.640625,1.078125 1.640625,1.84375 0,0.59375 -0.140625,1.65625 -1.640625,1.84375 z m 0,0"
             id="path128049" />
        </g>
      </g>
      <g
         fill="#000000"
         fill-opacity="1"
         id="g128059"
         transform="matrix(1.33333,0,0,1.33333,-0.75,0.0843334)">
        <g
           id="g128057"
           transform="translate(7.1950002,4.8429999)">
          <path
             d="m 1.90625,-2.90625 c 0.109375,0 0.171875,0.015625 0.390625,0.0625 0.21875,0.0625 0.390625,0.109375 0.515625,0.109375 0.28125,0 0.296875,-0.203125 0.296875,-0.265625 0,-0.0625 -0.015625,-0.28125 -0.296875,-0.28125 -0.125,0 -0.296875,0.046875 -0.515625,0.109375 -0.21875,0.0625 -0.28125,0.0625 -0.390625,0.078125 0.015625,-0.25 0.0625,-0.53125 0.09375,-0.75 0.03125,-0.140625 0.09375,-0.5 0.09375,-0.734375 0,-0.21875 -0.09375,-0.328125 -0.265625,-0.328125 -0.15625,0 -0.28125,0.078125 -0.28125,0.328125 0,0.21875 0.0625,0.578125 0.109375,0.8125 0.015625,0.078125 0.078125,0.40625 0.078125,0.671875 C 1.640625,-3.109375 1.5625,-3.109375 1.359375,-3.171875 1.140625,-3.234375 0.96875,-3.28125 0.84375,-3.28125 c -0.28125,0 -0.3125,0.21875 -0.3125,0.28125 0,0.046875 0.03125,0.265625 0.3125,0.265625 0.125,0 0.296875,-0.046875 0.515625,-0.109375 0.203125,-0.046875 0.28125,-0.0625 0.375,-0.0625 0,0.171875 -0.0625,0.390625 -0.09375,0.53125 -0.09375,0.4375 -0.09375,0.484375 -0.09375,0.84375 0,1.34375 0.140625,2.78125 0.15625,2.921875 0.015625,0.0625 0.03125,0.09375 0.125,0.09375 0.109375,0 0.109375,-0.03125 0.125,-0.125 0,-0.015625 0.046875,-0.625 0.078125,-1.046875 0.03125,-0.609375 0.0625,-1.21875 0.0625,-1.84375 0,-0.359375 0,-0.40625 -0.09375,-0.859375 -0.015625,-0.0625 -0.078125,-0.34375 -0.09375,-0.515625 z m 0,0"
             id="path128055" />
        </g>
      </g>
      <g
         clip-path="url(#clipPath6912)"
         id="g128066"
         transform="matrix(1.33333,0,0,1.33333,-0.75,0.0843334)">
        <g
           fill="#000000"
           fill-opacity="1"
           id="g128064">
          <g
             id="use35"
             transform="translate(11.346,8.4580002)">
            <path
               d="m 3.296875,2.390625 c 0,-0.03125 0,-0.046875 -0.171875,-0.21875 C 1.890625,0.921875 1.5625,-0.96875 1.5625,-2.5 c 0,-1.734375 0.375,-3.46875 1.609375,-4.703125 0.125,-0.125 0.125,-0.140625 0.125,-0.171875 0,-0.078125 -0.03125,-0.109375 -0.09375,-0.109375 -0.109375,0 -1,0.6875 -1.59375,1.953125 -0.5,1.09375 -0.625,2.203125 -0.625,3.03125 0,0.78125 0.109375,1.984375 0.65625,3.125 C 2.25,1.84375 3.09375,2.5 3.203125,2.5 c 0.0625,0 0.09375,-0.03125 0.09375,-0.109375 z m 0,0"
               id="path128061" />
          </g>
        </g>
      </g>
      <g
         fill="#000000"
         fill-opacity="1"
         id="g128072"
         transform="matrix(1.33333,0,0,1.33333,-0.75,0.0843334)">
        <g
           id="g128070"
           transform="translate(15.221,8.4580002)">
          <path
             d="M 3.71875,-3.765625 C 3.53125,-4.140625 3.25,-4.40625 2.796875,-4.40625 c -1.15625,0 -2.390625,1.46875 -2.390625,2.921875 0,0.9375 0.546875,1.59375 1.3125,1.59375 0.203125,0 0.703125,-0.046875 1.296875,-0.75 0.078125,0.421875 0.4375,0.75 0.90625,0.75 0.359375,0 0.578125,-0.234375 0.75,-0.546875 0.15625,-0.359375 0.296875,-0.96875 0.296875,-0.984375 0,-0.109375 -0.09375,-0.109375 -0.125,-0.109375 -0.09375,0 -0.109375,0.046875 -0.140625,0.1875 -0.171875,0.640625 -0.34375,1.234375 -0.75,1.234375 -0.28125,0 -0.296875,-0.265625 -0.296875,-0.453125 0,-0.21875 0.015625,-0.3125 0.125,-0.75 C 3.890625,-1.71875 3.90625,-1.828125 4,-2.203125 L 4.359375,-3.59375 c 0.0625,-0.28125 0.0625,-0.296875 0.0625,-0.34375 0,-0.171875 -0.109375,-0.265625 -0.28125,-0.265625 -0.25,0 -0.390625,0.21875 -0.421875,0.4375 z M 3.078125,-1.1875 C 3.015625,-1 3.015625,-0.984375 2.875,-0.8125 2.4375,-0.265625 2.03125,-0.109375 1.75,-0.109375 c -0.5,0 -0.640625,-0.546875 -0.640625,-0.9375 0,-0.5 0.3125,-1.71875 0.546875,-2.1875 0.3125,-0.578125 0.75,-0.953125 1.15625,-0.953125 0.640625,0 0.78125,0.8125 0.78125,0.875 0,0.0625 -0.015625,0.125 -0.03125,0.171875 z m 0,0"
             id="path128068" />
        </g>
      </g>
      <g
         clip-path="url(#clipPath6272)"
         id="g128080"
         transform="matrix(1.33333,0,0,1.33333,-0.75,0.0843334)">
        <g
           fill="#000000"
           fill-opacity="1"
           id="g128078">
          <g
             id="g128076"
             transform="translate(20.487,8.4580002)">
            <path
               d="m 2.875,-2.5 c 0,-0.765625 -0.109375,-1.96875 -0.65625,-3.109375 -0.59375,-1.21875 -1.453125,-1.875 -1.546875,-1.875 -0.0625,0 -0.109375,0.046875 -0.109375,0.109375 0,0.03125 0,0.046875 0.1875,0.234375 0.984375,0.984375 1.546875,2.5625 1.546875,4.640625 0,1.71875 -0.359375,3.46875 -1.59375,4.71875 C 0.5625,2.34375 0.5625,2.359375 0.5625,2.390625 0.5625,2.453125 0.609375,2.5 0.671875,2.5 0.765625,2.5 1.671875,1.8125 2.25,0.546875 2.765625,-0.546875 2.875,-1.65625 2.875,-2.5 Z m 0,0"
               id="path128074" />
          </g>
        </g>
      </g>
    </g>
  </g>
</svg>
